  0
SECTION
  2
HEADER
  9
$ACADVER
  1
AC1027
  9
$ACADMAINTVER
 70
105
  9
$DWGCODEPAGE
  3
ANSI_1252
  9
$LASTSAVEDBY
  1
ezdxf
  9
$REQUIREDVERSIONS
160
0
  9
$INSBASE
 10
0.0
 20
0.0
 30
0.0
  9
$EXTMIN
 10
1e+20
 20
1e+20
 30
1e+20
  9
$EXTMAX
 10
-1e+20
 20
-1e+20
 30
-1e+20
  9
$LIMMIN
 10
0.0
 20
0.0
  9
$LIMMAX
 10
420.0
 20
297.0
  9
$ORTHOMODE
 70
0
  9
$REGENMODE
 70
1
  9
$FILLMODE
 70
1
  9
$QTEXTMODE
 70
0
  9
$MIRRTEXT
 70
1
  9
$LTSCALE
 40
1.0
  9
$ATTMODE
 70
1
  9
$TEXTSIZE
 40
2.5
  9
$TRACEWID
 40
1.0
  9
$TEXTSTYLE
  7
OpenSans
  9
$CLAYER
  8
0
  9
$CELTYPE
  6
ByLayer
  9
$CECOLOR
 62
256
  9
$CELTSCALE
 40
1.0
  9
$DISPSILH
 70
0
  9
$DIMSCALE
 40
1.0
  9
$DIMASZ
 40
0.175
  9
$DIMEXO
 40
0.125
  9
$DIMDLI
 40
3.75
  9
$DIMRND
 40
0.0
  9
$DIMDLE
 40
0.0
  9
$DIMEXE
 40
0.375
  9
$DIMTP
 40
0.0
  9
$DIMTM
 40
0.0
  9
$DIMTXT
 40
0.25
  9
$DIMCEN
 40
2.5
  9
$DIMTSZ
 40
0.0
  9
$DIMTOL
 70
0
  9
$DIMLIM
 70
0
  9
$DIMTIH
 70
0
  9
$DIMTOH
 70
0
  9
$DIMSE1
 70
0
  9
$DIMSE2
 70
0
  9
$DIMTAD
 70
1
  9
$DIMZIN
 70
12
  9
$DIMBLK
  1
ARCHTICK
  9
$DIMASO
 70
1
  9
$DIMSHO
 70
1
  9
$DIMPOST
  1

  9
$DIMAPOST
  1

  9
$DIMALT
 70
0
  9
$DIMALTD
 70
3
  9
$DIMALTF
 40
0.03937007874
  9
$DIMLFAC
 40
100.0
  9
$DIMTOFL
 70
1
  9
$DIMTVP
 40
0.0
  9
$DIMTIX
 70
0
  9
$DIMSOXD
 70
0
  9
$DIMSAH
 70
0
  9
$DIMBLK1
  1

  9
$DIMBLK2
  1

  9
$DIMSTYLE
  2
EZDXF
  9
$DIMCLRD
 70
0
  9
$DIMCLRE
 70
0
  9
$DIMCLRT
 70
0
  9
$DIMTFAC
 40
0.5
  9
$DIMGAP
 40
0.1
  9
$DIMJUST
 70
0
  9
$DIMSD1
 70
0
  9
$DIMSD2
 70
0
  9
$DIMTOLJ
 70
0
  9
$DIMTZIN
 70
8
  9
$DIMALTZ
 70
0
  9
$DIMALTTZ
 70
0
  9
$DIMUPT
 70
1
  9
$DIMDEC
 70
2
  9
$DIMTDEC
 70
2
  9
$DIMALTU
 70
2
  9
$DIMALTTD
 70
3
  9
$DIMTXSTY
  7
OpenSansCondensed-Light
  9
$DIMAUNIT
 70
0
  9
$DIMADEC
 70
2
  9
$DIMALTRND
 40
0.0
  9
$DIMAZIN
 70
3
  9
$DIMDSEP
 70
46
  9
$DIMATFIT
 70
3
  9
$DIMFRAC
 70
0
  9
$DIMLDRBLK
  1

  9
$DIMLUNIT
 70
2
  9
$DIMLWD
 70
-2
  9
$DIMLWE
 70
-2
  9
$DIMTMOVE
 70
2
  9
$DIMFXL
 40
1.0
  9
$DIMFXLON
 70
0
  9
$DIMJOGANG
 40
0.785398163397
  9
$DIMTFILL
 70
0
  9
$DIMTFILLCLR
 70
0
  9
$DIMARCSYM
 70
0
  9
$DIMLTYPE
  6

  9
$DIMLTEX1
  6

  9
$DIMLTEX2
  6

  9
$DIMTXTDIRECTION
 70
0
  9
$LUNITS
 70
2
  9
$LUPREC
 70
4
  9
$SKETCHINC
 40
1.0
  9
$FILLETRAD
 40
10.0
  9
$AUNITS
 70
0
  9
$AUPREC
 70
2
  9
$MENU
  1
.
  9
$ELEVATION
 40
0.0
  9
$PELEVATION
 40
0.0
  9
$THICKNESS
 40
0.0
  9
$LIMCHECK
 70
0
  9
$CHAMFERA
 40
0.0
  9
$CHAMFERB
 40
0.0
  9
$CHAMFERC
 40
0.0
  9
$CHAMFERD
 40
0.0
  9
$SKPOLY
 70
0
  9
$TDCREATE
 40
2461323.868761574
  9
$TDUCREATE
 40
2458532.153996898
  9
$TDUPDATE
 40
2461323.868761574
  9
$TDUUPDATE
 40
2458532.1544311
  9
$TDINDWG
 40
0.0
  9
$TDUSRTIMER
 40
0.0
  9
$USRTIMER
 70
1
  9
$ANGBASE
 50
0.0
  9
$ANGDIR
 70
0
  9
$PDMODE
 70
0
  9
$PDSIZE
 40
0.0
  9
$PLINEWID
 40
0.0
  9
$SPLFRAME
 70
0
  9
$SPLINETYPE
 70
6
  9
$SPLINESEGS
 70
8
  9
$HANDSEED
  5
3D3
  9
$SURFTAB1
 70
6
  9
$SURFTAB2
 70
6
  9
$SURFTYPE
 70
6
  9
$SURFU
 70
6
  9
$SURFV
 70
6
  9
$UCSBASE
  2

  9
$UCSNAME
  2

  9
$UCSORG
 10
0.0
 20
0.0
 30
0.0
  9
$UCSXDIR
 10
1.0
 20
0.0
 30
0.0
  9
$UCSYDIR
 10
0.0
 20
1.0
 30
0.0
  9
$UCSORTHOREF
  2

  9
$UCSORTHOVIEW
 70
0
  9
$UCSORGTOP
 10
0.0
 20
0.0
 30
0.0
  9
$UCSORGBOTTOM
 10
0.0
 20
0.0
 30
0.0
  9
$UCSORGLEFT
 10
0.0
 20
0.0
 30
0.0
  9
$UCSORGRIGHT
 10
0.0
 20
0.0
 30
0.0
  9
$UCSORGFRONT
 10
0.0
 20
0.0
 30
0.0
  9
$UCSORGBACK
 10
0.0
 20
0.0
 30
0.0
  9
$PUCSBASE
  2

  9
$PUCSNAME
  2

  9
$PUCSORG
 10
0.0
 20
0.0
 30
0.0
  9
$PUCSXDIR
 10
1.0
 20
0.0
 30
0.0
  9
$PUCSYDIR
 10
0.0
 20
1.0
 30
0.0
  9
$PUCSORTHOREF
  2

  9
$PUCSORTHOVIEW
 70
0
  9
$PUCSORGTOP
 10
0.0
 20
0.0
 30
0.0
  9
$PUCSORGBOTTOM
 10
0.0
 20
0.0
 30
0.0
  9
$PUCSORGLEFT
 10
0.0
 20
0.0
 30
0.0
  9
$PUCSORGRIGHT
 10
0.0
 20
0.0
 30
0.0
  9
$PUCSORGFRONT
 10
0.0
 20
0.0
 30
0.0
  9
$PUCSORGBACK
 10
0.0
 20
0.0
 30
0.0
  9
$USERI1
 70
0
  9
$USERI2
 70
0
  9
$USERI3
 70
0
  9
$USERI4
 70
0
  9
$USERI5
 70
0
  9
$USERR1
 40
0.0
  9
$USERR2
 40
0.0
  9
$USERR3
 40
0.0
  9
$USERR4
 40
0.0
  9
$USERR5
 40
0.0
  9
$WORLDVIEW
 70
1
  9
$SHADEDGE
 70
3
  9
$SHADEDIF
 70
70
  9
$TILEMODE
 70
1
  9
$MAXACTVP
 70
64
  9
$PINSBASE
 10
0.0
 20
0.0
 30
0.0
  9
$PLIMCHECK
 70
0
  9
$PEXTMIN
 10
1e+20
 20
1e+20
 30
1e+20
  9
$PEXTMAX
 10
-1e+20
 20
-1e+20
 30
-1e+20
  9
$PLIMMIN
 10
0.0
 20
0.0
  9
$PLIMMAX
 10
420.0
 20
297.0
  9
$UNITMODE
 70
0
  9
$VISRETAIN
 70
1
  9
$PLINEGEN
 70
0
  9
$PSLTSCALE
 70
1
  9
$TREEDEPTH
 70
3020
  9
$CMLSTYLE
  2
Standard
  9
$CMLJUST
 70
0
  9
$CMLSCALE
 40
20.0
  9
$PROXYGRAPHICS
 70
1
  9
$MEASUREMENT
 70
1
  9
$CELWEIGHT
370
-1
  9
$ENDCAPS
280
0
  9
$JOINSTYLE
280
0
  9
$LWDISPLAY
290
0
  9
$INSUNITS
 70
6
  9
$HYPERLINKBASE
  1

  9
$STYLESHEET
  1

  9
$XEDIT
290
1
  9
$CEPSNTYPE
380
0
  9
$PSTYLEMODE
290
1
  9
$FINGERPRINTGUID
  2
{4AD1E5A1-3DCD-4350-B95F-F677CD522C79}
  9
$VERSIONGUID
  2
{F484DFD3-F97F-4B24-BD3F-9842B182C29B}
  9
$EXTNAMES
290
1
  9
$PSVPSCALE
 40
0.0
  9
$OLESTARTUP
290
0
  9
$SORTENTS
280
127
  9
$INDEXCTL
280
0
  9
$HIDETEXT
280
1
  9
$XCLIPFRAME
280
2
  9
$HALOGAP
280
0
  9
$OBSCOLOR
 70
257
  9
$OBSLTYPE
280
0
  9
$INTERSECTIONDISPLAY
280
0
  9
$INTERSECTIONCOLOR
 70
257
  9
$DIMASSOC
280
2
  9
$PROJECTNAME
  1

  9
$CAMERADISPLAY
290
0
  9
$LENSLENGTH
 40
50.0
  9
$CAMERAHEIGHT
 40
0.0
  9
$STEPSPERSEC
 40
24.0
  9
$STEPSIZE
 40
100.0
  9
$3DDWFPREC
 40
2.0
  9
$PSOLWIDTH
 40
0.005
  9
$PSOLHEIGHT
 40
0.08
  9
$LOFTANG1
 40
1.570796326795
  9
$LOFTANG2
 40
1.570796326795
  9
$LOFTMAG1
 40
0.0
  9
$LOFTMAG2
 40
0.0
  9
$LOFTPARAM
 70
7
  9
$LOFTNORMALS
280
1
  9
$LATITUDE
 40
37.795
  9
$LONGITUDE
 40
-122.394
  9
$NORTHDIRECTION
 40
0.0
  9
$TIMEZONE
 70
-8000
  9
$LIGHTGLYPHDISPLAY
280
1
  9
$TILEMODELIGHTSYNCH
280
1
  9
$CMATERIAL
347
20
  9
$SOLIDHIST
280
0
  9
$SHOWHIST
280
1
  9
$DWFFRAME
280
2
  9
$DGNFRAME
280
2
  9
$REALWORLDSCALE
290
1
  9
$INTERFERECOLOR
 62
256
  9
$CSHADOW
280
0
  9
$SHADOWPLANELOCATION
 40
0.0
  0
ENDSEC
  0
SECTION
  2
CLASSES
  0
CLASS
  1
ACDBDICTIONARYWDFLT
  2
AcDbDictionaryWithDefault
  3
ObjectDBX Classes
 90
0
 91
0
280
0
281
0
  0
CLASS
  1
SUN
  2
AcDbSun
  3
SCENEOE
 90
1153
 91
0
280
0
281
0
  0
CLASS
  1
VISUALSTYLE
  2
AcDbVisualStyle
  3
ObjectDBX Classes
 90
4095
 91
0
280
0
281
0
  0
CLASS
  1
MATERIAL
  2
AcDbMaterial
  3
ObjectDBX Classes
 90
1153
 91
0
280
0
281
0
  0
CLASS
  1
SCALE
  2
AcDbScale
  3
ObjectDBX Classes
 90
1153
 91
0
280
0
281
0
  0
CLASS
  1
TABLESTYLE
  2
AcDbTableStyle
  3
ObjectDBX Classes
 90
4095
 91
0
280
0
281
0
  0
CLASS
  1
MLEADERSTYLE
  2
AcDbMLeaderStyle
  3
ACDB_MLEADERSTYLE_CLASS
 90
4095
 91
0
280
0
281
0
  0
CLASS
  1
DICTIONARYVAR
  2
AcDbDictionaryVar
  3
ObjectDBX Classes
 90
0
 91
0
280
0
281
0
  0
CLASS
  1
CELLSTYLEMAP
  2
AcDbCellStyleMap
  3
ObjectDBX Classes
 90
1152
 91
0
280
0
281
0
  0
CLASS
  1
MENTALRAYRENDERSETTINGS
  2
AcDbMentalRayRenderSettings
  3
SCENEOE
 90
1024
 91
0
280
0
281
0
  0
CLASS
  1
ACDBDETAILVIEWSTYLE
  2
AcDbDetailViewStyle
  3
ObjectDBX Classes
 90
1025
 91
0
280
0
281
0
  0
CLASS
  1
ACDBSECTIONVIEWSTYLE
  2
AcDbSectionViewStyle
  3
ObjectDBX Classes
 90
1025
 91
0
280
0
281
0
  0
CLASS
  1
RASTERVARIABLES
  2
AcDbRasterVariables
  3
ISM
 90
0
 91
0
280
0
281
0
  0
CLASS
  1
LAYOUT
  2
AcDbLayout
  3
ObjectDBX Classes
 90
0
 91
0
280
0
281
0
  0
CLASS
  1
ACDBPLACEHOLDER
  2
AcDbPlaceHolder
  3
ObjectDBX Classes
 90
0
 91
0
280
0
281
0
  0
ENDSEC
  0
SECTION
  2
TABLES
  0
TABLE
  2
VPORT
  5
8
330
0
100
AcDbSymbolTable
 70
1
  0
VPORT
  5
23
330
8
100
AcDbSymbolTableRecord
100
AcDbViewportTableRecord
  2
*Active
 70
0
 10
0.0
 20
0.0
 11
1.0
 21
1.0
 12
0.0
 22
0.0
 13
0.0
 23
0.0
 14
0.5
 24
0.5
 15
0.5
 25
0.5
 16
0.0
 26
0.0
 36
1.0
 17
0.0
 27
0.0
 37
0.0
 40
1000.0
 41
1.34
 42
50.0
 43
0.0
 44
0.0
 50
0.0
 51
0.0
 71
0
 72
1000
 73
1
 74
3
 75
0
 76
0
 77
0
 78
0
281
0
 65
0
146
0.0
  0
ENDTAB
  0
TABLE
  2
LTYPE
  5
2
330
0
100
AcDbSymbolTable
 70
22
  0
LTYPE
  5
24
330
2
100
AcDbSymbolTableRecord
100
AcDbLinetypeTableRecord
  2
ByBlock
 70
0
  3

 72
65
 73
0
 40
0.0
  0
LTYPE
  5
25
330
2
100
AcDbSymbolTableRecord
100
AcDbLinetypeTableRecord
  2
ByLayer
 70
0
  3

 72
65
 73
0
 40
0.0
  0
LTYPE
  5
26
330
2
100
AcDbSymbolTableRecord
100
AcDbLinetypeTableRecord
  2
Continuous
 70
0
  3

 72
65
 73
0
 40
0.0
  0
LTYPE
  5
2F
330
2
100
AcDbSymbolTableRecord
100
AcDbLinetypeTableRecord
  2
CENTER
 70
0
  3
Center ____ _ ____ _ ____ _ ____ _ ____ _ ____
 72
65
 73
4
 40
5.08
 49
3.175
 74
0
 49
-0.635
 74
0
 49
0.635
 74
0
 49
-0.635
 74
0
  0
LTYPE
  5
30
330
2
100
AcDbSymbolTableRecord
100
AcDbLinetypeTableRecord
  2
CENTERX2
 70
0
  3
Center (2x) ________  __  ________  __  ________
 72
65
 73
4
 40
8.89
 49
6.35
 74
0
 49
-0.635
 74
0
 49
1.27
 74
0
 49
-0.635
 74
0
  0
LTYPE
  5
31
330
2
100
AcDbSymbolTableRecord
100
AcDbLinetypeTableRecord
  2
CENTER2
 70
0
  3
Center (.5x) ____ _ ____ _ ____ _ ____ _ ____
 72
65
 73
4
 40
2.54
 49
1.587
 74
0
 49
-0.318
 74
0
 49
0.318
 74
0
 49
-0.318
 74
0
  0
LTYPE
  5
32
330
2
100
AcDbSymbolTableRecord
100
AcDbLinetypeTableRecord
  2
DASHED
 70
0
  3
Dashed __ __ __ __ __ __ __ __ __ __ __ __ __ _
 72
65
 73
2
 40
1.524
 49
1.27
 74
0
 49
-0.254
 74
0
  0
LTYPE
  5
33
330
2
100
AcDbSymbolTableRecord
100
AcDbLinetypeTableRecord
  2
DASHEDX2
 70
0
  3
Dashed (2x) ____  ____  ____  ____  ____  ____
 72
65
 73
2
 40
3.048
 49
2.54
 74
0
 49
-0.508
 74
0
  0
LTYPE
  5
34
330
2
100
AcDbSymbolTableRecord
100
AcDbLinetypeTableRecord
  2
DASHED2
 70
0
  3
Dashed (.5x) _ _ _ _ _ _ _ _ _ _ _ _ _ _
 72
65
 73
2
 40
0.762
 49
0.635
 74
0
 49
-0.127
 74
0
  0
LTYPE
  5
35
330
2
100
AcDbSymbolTableRecord
100
AcDbLinetypeTableRecord
  2
PHANTOM
 70
0
  3
Phantom ______  __  __  ______  __  __  ______
 72
65
 73
6
 40
6.35
 49
3.175
 74
0
 49
-0.635
 74
0
 49
0.635
 74
0
 49
-0.635
 74
0
 49
0.635
 74
0
 49
-0.635
 74
0
  0
LTYPE
  5
36
330
2
100
AcDbSymbolTableRecord
100
AcDbLinetypeTableRecord
  2
PHANTOMX2
 70
0
  3
Phantom (2x)____________    ____    ____    ____________
 72
65
 73
6
 40
10.795
 49
6.35
 74
0
 49
-0.635
 74
0
 49
1.27
 74
0
 49
-0.635
 74
0
 49
1.27
 74
0
 49
-0.635
 74
0
  0
LTYPE
  5
37
330
2
100
AcDbSymbolTableRecord
100
AcDbLinetypeTableRecord
  2
PHANTOM2
 70
0
  3
Phantom (.5x) ___ _ _ ___ _ _ ___ _ _ ___ _ _ ___
 72
65
 73
6
 40
3.175
 49
1.587
 74
0
 49
-0.318
 74
0
 49
0.318
 74
0
 49
-0.318
 74
0
 49
0.318
 74
0
 49
-0.318
 74
0
  0
LTYPE
  5
38
330
2
100
AcDbSymbolTableRecord
100
AcDbLinetypeTableRecord
  2
DASHDOT
 70
0
  3
Dash dot __ . __ . __ . __ . __ . __ . __ . __
 72
65
 73
4
 40
3.556
 49
2.54
 74
0
 49
-0.508
 74
0
 49
0.0
 74
0
 49
-0.508
 74
0
  0
LTYPE
  5
39
330
2
100
AcDbSymbolTableRecord
100
AcDbLinetypeTableRecord
  2
DASHDOTX2
 70
0
  3
Dash dot (2x) ____  .  ____  .  ____  .  ____
 72
65
 73
4
 40
6.096
 49
5.08
 74
0
 49
-0.508
 74
0
 49
0.0
 74
0
 49
-0.508
 74
0
  0
LTYPE
  5
3A
330
2
100
AcDbSymbolTableRecord
100
AcDbLinetypeTableRecord
  2
DASHDOT2
 70
0
  3
Dash dot (.5x) _ . _ . _ . _ . _ . _ . _ . _
 72
65
 73
4
 40
1.778
 49
1.27
 74
0
 49
-0.254
 74
0
 49
0.0
 74
0
 49
-0.254
 74
0
  0
LTYPE
  5
3B
330
2
100
AcDbSymbolTableRecord
100
AcDbLinetypeTableRecord
  2
DOT
 70
0
  3
Dot .  .  .  .  .  .  .  .  .  .  .  .  .  .  .  .
 72
65
 73
2
 40
0.508
 49
0.0
 74
0
 49
-0.508
 74
0
  0
LTYPE
  5
3C
330
2
100
AcDbSymbolTableRecord
100
AcDbLinetypeTableRecord
  2
DOTX2
 70
0
  3
Dot (2x) .    .    .    .    .    .    .    . 
 72
65
 73
2
 40
1.016
 49
0.0
 74
0
 49
-1.016
 74
0
  0
LTYPE
  5
3D
330
2
100
AcDbSymbolTableRecord
100
AcDbLinetypeTableRecord
  2
DOT2
 70
0
  3
Dot (.5) . . . . . . . . . . . . . . . . . . . 
 72
65
 73
2
 40
0.254
 49
0.0
 74
0
 49
-0.254
 74
0
  0
LTYPE
  5
3E
330
2
100
AcDbSymbolTableRecord
100
AcDbLinetypeTableRecord
  2
DIVIDE
 70
0
  3
Divide __ . . __ . . __ . . __ . . __ . . __
 72
65
 73
6
 40
4.064
 49
2.54
 74
0
 49
-0.508
 74
0
 49
0.0
 74
0
 49
-0.508
 74
0
 49
0.0
 74
0
 49
-0.508
 74
0
  0
LTYPE
  5
3F
330
2
100
AcDbSymbolTableRecord
100
AcDbLinetypeTableRecord
  2
DIVIDEX2
 70
0
  3
Divide (2x) ____  . .  ____  . .  ____  . .  ____
 72
65
 73
6
 40
6.604
 49
5.08
 74
0
 49
-0.508
 74
0
 49
0.0
 74
0
 49
-0.508
 74
0
 49
0.0
 74
0
 49
-0.508
 74
0
  0
LTYPE
  5
40
330
2
100
AcDbSymbolTableRecord
100
AcDbLinetypeTableRecord
  2
DIVIDE2
 70
0
  3
Divide(.5x) _ . _ . _ . _ . _ . _ . _ . _
 72
65
 73
6
 40
2.032
 49
1.27
 74
0
 49
-0.254
 74
0
 49
0.0
 74
0
 49
-0.254
 74
0
 49
0.0
 74
0
 49
-0.254
 74
0
  0
LTYPE
  5
3CC
330
2
100
AcDbSymbolTableRecord
100
AcDbLinetypeTableRecord
  2
BORDERX2
 70
0
  3
Border (2x) ____  ____  .  ____  ____  .  ___ .
 72
65
 73
6
 40
88.89999999999999
 49
25.4
 74
0
 49
-12.7
 74
0
 49
25.4
 74
0
 49
-12.7
 74
0
 49
0.0
 74
0
 49
-12.7
 74
0
  0
ENDTAB
  0
TABLE
  2
LAYER
  5
1
330
0
100
AcDbSymbolTable
 70
8
  0
LAYER
  5
27
330
1
100
AcDbSymbolTableRecord
100
AcDbLayerTableRecord
  2
0
 70
0
 62
7
  6
Continuous
370
-3
390
13
347
21
  0
LAYER
  5
28
330
1
100
AcDbSymbolTableRecord
100
AcDbLayerTableRecord
  2
Defpoints
 70
0
 62
7
  6
Continuous
290
0
370
-3
390
13
347
21
  0
LAYER
  5
3C6
330
1
100
AcDbSymbolTableRecord
100
AcDbLayerTableRecord
  2
GT_1
 70
0
 62
9
  6
Continuous
370
-3
390
13
347
21
348
0
  0
LAYER
  5
3C7
330
1
100
AcDbSymbolTableRecord
100
AcDbLayerTableRecord
  2
MEMBER
 70
0
 62
7
  6
Continuous
370
-3
390
13
347
21
348
0
  0
LAYER
  5
3C8
330
1
100
AcDbSymbolTableRecord
100
AcDbLayerTableRecord
  2
x01001-FrameArea
 70
0
 62
2
  6
BORDERX2
370
-3
390
13
347
21
348
0
  0
LAYER
  5
3C9
330
1
100
AcDbSymbolTableRecord
100
AcDbLayerTableRecord
  2
IE-WIRE
 70
0
 62
7
  6
Continuous
370
25
390
13
347
21
348
0
  0
LAYER
  5
3CA
330
1
100
AcDbSymbolTableRecord
100
AcDbLayerTableRecord
  2
power
 70
0
 62
7
  6
Continuous
370
25
390
13
347
21
348
0
  0
LAYER
  5
3CB
330
1
100
AcDbSymbolTableRecord
100
AcDbLayerTableRecord
  2
HELPPOINT
 70
0
 62
7
  6
Continuous
370
-3
390
13
347
21
348
0
  0
ENDTAB
  0
TABLE
  2
STYLE
  5
5
330
0
100
AcDbSymbolTable
 70
29
  0
STYLE
  5
29
330
5
100
AcDbSymbolTableRecord
100
AcDbTextStyleTableRecord
  2
Standard
 70
0
 40
0.0
 41
1.0
 50
0.0
 71
0
 42
2.5
  3
txt
  4

  0
STYLE
  5
41
330
5
100
AcDbSymbolTableRecord
100
AcDbTextStyleTableRecord
  2
OpenSans-Light
 70
0
 40
0.0
 41
1.0
 50
0.0
 71
0
 42
2.5
  3
OpenSans-Light.ttf
  4

  0
STYLE
  5
42
330
5
100
AcDbSymbolTableRecord
100
AcDbTextStyleTableRecord
  2
OpenSans-Light-Italic
 70
0
 40
0.0
 41
1.0
 50
0.0
 71
0
 42
2.5
  3
OpenSans-LightItalic.ttf
  4

  0
STYLE
  5
43
330
5
100
AcDbSymbolTableRecord
100
AcDbTextStyleTableRecord
  2
OpenSans
 70
0
 40
0.0
 41
1.0
 50
0.0
 71
0
 42
2.5
  3
OpenSans-Regular.ttf
  4

  0
STYLE
  5
44
330
5
100
AcDbSymbolTableRecord
100
AcDbTextStyleTableRecord
  2
OpenSans-Italic
 70
0
 40
0.0
 41
1.0
 50
0.0
 71
0
 42
2.5
  3
OpenSans-Italic.ttf
  4

  0
STYLE
  5
45
330
5
100
AcDbSymbolTableRecord
100
AcDbTextStyleTableRecord
  2
OpenSans-SemiBold
 70
0
 40
0.0
 41
1.0
 50
0.0
 71
0
 42
2.5
  3
OpenSans-SemiBold.ttf
  4

  0
STYLE
  5
46
330
5
100
AcDbSymbolTableRecord
100
AcDbTextStyleTableRecord
  2
OpenSans-SemiBoldItalic
 70
0
 40
0.0
 41
1.0
 50
0.0
 71
0
 42
2.5
  3
OpenSans-SemiBoldItalic.ttf
  4

  0
STYLE
  5
47
330
5
100
AcDbSymbolTableRecord
100
AcDbTextStyleTableRecord
  2
OpenSans-Bold
 70
0
 40
0.0
 41
1.0
 50
0.0
 71
0
 42
2.5
  3
OpenSans-Bold.ttf
  4

  0
STYLE
  5
48
330
5
100
AcDbSymbolTableRecord
100
AcDbTextStyleTableRecord
  2
OpenSans-BoldItalic
 70
0
 40
0.0
 41
1.0
 50
0.0
 71
0
 42
2.5
  3
OpenSans-BoldItalic.ttf
  4

  0
STYLE
  5
49
330
5
100
AcDbSymbolTableRecord
100
AcDbTextStyleTableRecord
  2
OpenSans-ExtraBold
 70
0
 40
0.0
 41
1.0
 50
0.0
 71
0
 42
2.5
  3
OpenSans-ExtraBold.ttf
  4

  0
STYLE
  5
4A
330
5
100
AcDbSymbolTableRecord
100
AcDbTextStyleTableRecord
  2
OpenSans-ExtraBoldItalic
 70
0
 40
0.0
 41
1.0
 50
0.0
 71
0
 42
2.5
  3
OpenSans-ExtraBoldItalic.ttf
  4

  0
STYLE
  5
4B
330
5
100
AcDbSymbolTableRecord
100
AcDbTextStyleTableRecord
  2
OpenSansCondensed-Bold
 70
0
 40
0.0
 41
1.0
 50
0.0
 71
0
 42
2.5
  3
OpenSansCondensed-Bold.ttf
  4

  0
STYLE
  5
4C
330
5
100
AcDbSymbolTableRecord
100
AcDbTextStyleTableRecord
  2
OpenSansCondensed-Light
 70
0
 40
0.0
 41
1.0
 50
0.0
 71
0
 42
2.5
  3
OpenSansCondensed-Light.ttf
  4

  0
STYLE
  5
4D
330
5
100
AcDbSymbolTableRecord
100
AcDbTextStyleTableRecord
  2
OpenSansCondensed-Italic
 70
0
 40
0.0
 41
1.0
 50
0.0
 71
0
 42
2.5
  3
OpenSansCondensed-LightItalic.ttf
  4

  0
STYLE
  5
4E
330
5
100
AcDbSymbolTableRecord
100
AcDbTextStyleTableRecord
  2
LiberationSans
 70
0
 40
0.0
 41
1.0
 50
0.0
 71
0
 42
2.5
  3
LiberationSans-Regular.ttf
  4

  0
STYLE
  5
4F
330
5
100
AcDbSymbolTableRecord
100
AcDbTextStyleTableRecord
  2
LiberationSans-Bold
 70
0
 40
0.0
 41
1.0
 50
0.0
 71
0
 42
2.5
  3
LiberationSans-Bold.ttf
  4

  0
STYLE
  5
50
330
5
100
AcDbSymbolTableRecord
100
AcDbTextStyleTableRecord
  2
LiberationSans-BoldItalic
 70
0
 40
0.0
 41
1.0
 50
0.0
 71
0
 42
2.5
  3
LiberationSans-BoldItalic.ttf
  4

  0
STYLE
  5
51
330
5
100
AcDbSymbolTableRecord
100
AcDbTextStyleTableRecord
  2
LiberationSans-Italic
 70
0
 40
0.0
 41
1.0
 50
0.0
 71
0
 42
2.5
  3
LiberationSans-Italic.ttf
  4

  0
STYLE
  5
52
330
5
100
AcDbSymbolTableRecord
100
AcDbTextStyleTableRecord
  2
LiberationSerif
 70
0
 40
0.0
 41
1.0
 50
0.0
 71
0
 42
2.5
  3
LiberationSerif-Regular.ttf
  4

  0
STYLE
  5
53
330
5
100
AcDbSymbolTableRecord
100
AcDbTextStyleTableRecord
  2
LiberationSerif-Bold
 70
0
 40
0.0
 41
1.0
 50
0.0
 71
0
 42
2.5
  3
LiberationSerif-Bold.ttf
  4

  0
STYLE
  5
54
330
5
100
AcDbSymbolTableRecord
100
AcDbTextStyleTableRecord
  2
LiberationSerif-BoldItalic
 70
0
 40
0.0
 41
1.0
 50
0.0
 71
0
 42
2.5
  3
LiberationSerif-BoldItalic.ttf
  4

  0
STYLE
  5
55
330
5
100
AcDbSymbolTableRecord
100
AcDbTextStyleTableRecord
  2
LiberationSerif-Italic
 70
0
 40
0.0
 41
1.0
 50
0.0
 71
0
 42
2.5
  3
LiberationSerif-Italic.ttf
  4

  0
STYLE
  5
56
330
5
100
AcDbSymbolTableRecord
100
AcDbTextStyleTableRecord
  2
LiberationMono
 70
0
 40
0.0
 41
1.0
 50
0.0
 71
0
 42
2.5
  3
LiberationMono-Regular.ttf
  4

  0
STYLE
  5
57
330
5
100
AcDbSymbolTableRecord
100
AcDbTextStyleTableRecord
  2
LiberationMono-Bold
 70
0
 40
0.0
 41
1.0
 50
0.0
 71
0
 42
2.5
  3
LiberationMono-Bold.ttf
  4

  0
STYLE
  5
58
330
5
100
AcDbSymbolTableRecord
100
AcDbTextStyleTableRecord
  2
LiberationMono-BoldItalic
 70
0
 40
0.0
 41
1.0
 50
0.0
 71
0
 42
2.5
  3
LiberationMono-BoldItalic.ttf
  4

  0
STYLE
  5
59
330
5
100
AcDbSymbolTableRecord
100
AcDbTextStyleTableRecord
  2
LiberationMono-Italic
 70
0
 40
0.0
 41
1.0
 50
0.0
 71
0
 42
2.5
  3
LiberationMono-Italic.ttf
  4

  0
STYLE
  5
3CD
330
5
100
AcDbSymbolTableRecord
100
AcDbTextStyleTableRecord
  2
ROMANS
 70
0
 40
25.0
 41
0.85
 50
0.0
 71
0
 42
2.5
  3
romans.shx
  4

  0
STYLE
  5
3CE
330
5
100
AcDbSymbolTableRecord
100
AcDbTextStyleTableRecord
  2
Tahoma
 70
0
 40
0.0
 41
1.0
 50
0.0
 71
0
 42
2.5
  3

  4

  0
STYLE
  5
3CF
330
5
100
AcDbSymbolTableRecord
100
AcDbTextStyleTableRecord
  2
HTX11
 70
0
 40
0.0
 41
1.0
 50
0.0
 71
0
 42
2.5
  3
O8111901
  4

  0
ENDTAB
  0
TABLE
  2
VIEW
  5
7
330
0
100
AcDbSymbolTable
 70
0
  0
ENDTAB
  0
TABLE
  2
UCS
  5
6
330
0
100
AcDbSymbolTable
 70
0
  0
ENDTAB
  0
TABLE
  2
APPID
  5
3
330
0
100
AcDbSymbolTable
 70
3
  0
APPID
  5
2A
330
3
100
AcDbSymbolTableRecord
100
AcDbRegAppTableRecord
  2
ACAD
 70
0
  0
APPID
  5
3D0
330
3
100
AcDbSymbolTableRecord
100
AcDbRegAppTableRecord
  2
HATCHBACKGROUNDCOLOR
 70
0
  0
APPID
  5
3D1
330
3
100
AcDbSymbolTableRecord
100
AcDbRegAppTableRecord
  2
EZDXF
 70
0
  0
ENDTAB
  0
TABLE
  2
DIMSTYLE
  5
4
330
0
100
AcDbSymbolTable
 70
12
100
AcDbDimStyleTable
  0
DIMSTYLE
105
2B
330
4
100
AcDbSymbolTableRecord
100
AcDbDimStyleTableRecord
  2
Standard
 70
0
 40
1.0
 41
2.5
 42
0.625
 43
3.75
 44
1.25
 45
0.0
 46
0.0
 47
0.0
 48
0.0
 49
2.5
140
2.5
141
2.5
142
0.0
143
0.03937007874
144
1.0
145
0.0
146
1.0
147
0.625
148
0.0
 69
0
 70
0
 71
0
 72
0
 73
0
 74
0
 75
0
 76
0
 77
1
 78
8
 79
3
170
0
171
3
172
1
173
0
174
0
175
0
176
0
177
0
178
0
179
2
271
2
272
2
273
2
274
3
275
0
276
0
277
2
278
44
279
0
280
0
281
0
282
0
283
0
284
8
285
0
286
0
288
0
289
3
290
0
371
-2
372
-2
  0
DIMSTYLE
105
73
330
4
100
AcDbSymbolTableRecord
100
AcDbDimStyleTableRecord
  2
EZDXF
 70
0
 40
1.0
 41
0.175
 42
0.125
 43
3.75
 44
0.375
 45
0.0
 46
0.0
 47
0.0
 48
0.0
 49
2.5
140
0.25
141
2.5
142
0.0
143
0.03937007874
144
100.0
145
0.0
146
0.5
147
0.1
148
0.0
 69
0
 70
0
 71
0
 72
0
 73
0
 74
0
 75
0
 76
0
 77
1
 78
12
 79
3
170
0
171
3
172
1
173
0
174
0
175
0
176
0
177
0
178
0
179
2
271
2
272
2
273
2
274
3
275
0
276
0
277
2
278
46
279
2
280
0
281
0
282
0
283
0
284
8
285
0
286
0
288
1
289
3
290
0
340
4C
342
74
371
-2
372
-2
  0
DIMSTYLE
105
7C
330
4
100
AcDbSymbolTableRecord
100
AcDbDimStyleTableRecord
  2
EZ_M_100_H25_CM
 70
0
 40
1.0
 41
0.25
 42
0.125
 43
3.75
 44
0.375
 45
0.0
 46
0.0
 47
0.0
 48
0.0
 49
2.5
140
0.25
141
2.5
142
0.125
143
0.03937007874
144
100.0
145
0.0
146
0.5
147
0.1
148
0.0
 69
0
 70
0
 71
0
 72
0
 73
0
 74
0
 75
0
 76
0
 77
1
 78
12
 79
3
170
0
171
3
172
1
173
0
174
0
175
0
176
0
177
0
178
0
179
2
271
2
272
2
273
2
274
3
275
0
276
0
277
2
278
46
279
2
280
0
281
0
282
0
283
0
284
8
285
0
286
0
288
1
289
3
290
0
340
4C
371
-2
372
-2
  0
DIMSTYLE
105
7D
330
4
100
AcDbSymbolTableRecord
100
AcDbDimStyleTableRecord
  2
EZ_M_50_H25_CM
 70
0
 40
1.0
 41
0.125
 42
0.0625
 43
3.75
 44
0.1875
 45
0.0
 46
0.0
 47
0.0
 48
0.0
 49
2.5
140
0.125
141
2.5
142
0.0625
143
0.03937007874
144
100.0
145
0.0
146
0.5
147
0.05
148
0.0
 69
0
 70
0
 71
0
 72
0
 73
0
 74
0
 75
0
 76
0
 77
1
 78
12
 79
3
170
0
171
3
172
1
173
0
174
0
175
0
176
0
177
0
178
0
179
2
271
2
272
2
273
2
274
3
275
0
276
0
277
2
278
46
279
2
280
0
281
0
282
0
283
0
284
8
285
0
286
0
288
1
289
3
290
0
340
4C
371
-2
372
-2
  0
DIMSTYLE
105
7E
330
4
100
AcDbSymbolTableRecord
100
AcDbDimStyleTableRecord
  2
EZ_M_25_H25_CM
 70
0
 40
1.0
 41
0.0625
 42
0.03125
 43
3.75
 44
0.09375
 45
0.0
 46
0.0
 47
0.0
 48
0.0
 49
2.5
140
0.0625
141
2.5
142
0.03125
143
0.03937007874
144
100.0
145
0.0
146
0.5
147
0.025
148
0.0
 69
0
 70
0
 71
0
 72
0
 73
0
 74
0
 75
0
 76
0
 77
1
 78
12
 79
3
170
0
171
3
172
1
173
0
174
0
175
0
176
0
177
0
178
0
179
2
271
2
272
2
273
2
274
3
275
0
276
0
277
2
278
46
279
2
280
0
281
0
282
0
283
0
284
8
285
0
286
0
288
1
289
3
290
0
340
4C
371
-2
372
-2
  0
DIMSTYLE
105
7F
330
4
100
AcDbSymbolTableRecord
100
AcDbDimStyleTableRecord
  2
EZ_M_20_H25_CM
 70
0
 40
1.0
 41
0.05
 42
0.025
 43
3.75
 44
0.07500000000000001
 45
0.0
 46
0.0
 47
0.0
 48
0.0
 49
2.5
140
0.05
141
2.5
142
0.025
143
0.03937007874
144
100.0
145
0.0
146
0.5
147
0.020000000000000004
148
0.0
 69
0
 70
0
 71
0
 72
0
 73
0
 74
0
 75
0
 76
0
 77
1
 78
12
 79
3
170
0
171
3
172
1
173
0
174
0
175
0
176
0
177
0
178
0
179
2
271
2
272
2
273
2
274
3
275
0
276
0
277
2
278
46
279
2
280
0
281
0
282
0
283
0
284
8
285
0
286
0
288
1
289
3
290
0
340
4C
371
-2
372
-2
  0
DIMSTYLE
105
80
330
4
100
AcDbSymbolTableRecord
100
AcDbDimStyleTableRecord
  2
EZ_M_10_H25_CM
 70
0
 40
1.0
 41
0.025
 42
0.0125
 43
3.75
 44
0.037500000000000006
 45
0.0
 46
0.0
 47
0.0
 48
0.0
 49
2.5
140
0.025
141
2.5
142
0.0125
143
0.03937007874
144
100.0
145
0.0
146
0.5
147
0.010000000000000002
148
0.0
 69
0
 70
0
 71
0
 72
0
 73
0
 74
0
 75
0
 76
0
 77
1
 78
12
 79
3
170
0
171
3
172
1
173
0
174
0
175
0
176
0
177
0
178
0
179
2
271
2
272
2
273
2
274
3
275
0
276
0
277
2
278
46
279
2
280
0
281
0
282
0
283
0
284
8
285
0
286
0
288
1
289
3
290
0
340
4C
371
-2
372
-2
  0
DIMSTYLE
105
81
330
4
100
AcDbSymbolTableRecord
100
AcDbDimStyleTableRecord
  2
EZ_M_5_H25_CM
 70
0
 40
1.0
 41
0.0125
 42
0.00625
 43
3.75
 44
0.018750000000000003
 45
0.0
 46
0.0
 47
0.0
 48
0.0
 49
2.5
140
0.0125
141
2.5
142
0.00625
143
0.03937007874
144
100.0
145
0.0
146
0.5
147
0.005000000000000001
148
0.0
 69
0
 70
0
 71
0
 72
0
 73
0
 74
0
 75
0
 76
0
 77
1
 78
12
 79
3
170
0
171
3
172
1
173
0
174
0
175
0
176
0
177
0
178
0
179
2
271
2
272
2
273
2
274
3
275
0
276
0
277
2
278
46
279
2
280
0
281
0
282
0
283
0
284
8
285
0
286
0
288
1
289
3
290
0
340
4C
371
-2
372
-2
  0
DIMSTYLE
105
82
330
4
100
AcDbSymbolTableRecord
100
AcDbDimStyleTableRecord
  2
EZ_M_1_H25_CM
 70
0
 40
1.0
 41
0.0025
 42
0.00125
 43
3.75
 44
0.00375
 45
0.0
 46
0.0
 47
0.0
 48
0.0
 49
2.5
140
0.0025
141
2.5
142
0.00125
143
0.03937007874
144
100.0
145
0.0
146
0.5
147
0.001
148
0.0
 69
0
 70
0
 71
0
 72
0
 73
0
 74
0
 75
0
 76
0
 77
1
 78
12
 79
3
170
0
171
3
172
1
173
0
174
0
175
0
176
0
177
0
178
0
179
2
271
2
272
2
273
2
274
3
275
0
276
0
277
2
278
46
279
2
280
0
281
0
282
0
283
0
284
8
285
0
286
0
288
1
289
3
290
0
340
4C
371
-2
372
-2
  0
DIMSTYLE
105
83
330
4
100
AcDbSymbolTableRecord
100
AcDbDimStyleTableRecord
  2
EZ_RADIUS
 70
0
 40
1.0
 41
0.25
 42
0.125
 43
3.75
 44
0.375
 45
0.0
 46
0.0
 47
0.0
 48
0.0
 49
2.5
140
0.25
141
0.0
142
0.0
143
0.03937007874
144
100.0
145
0.0
146
0.5
147
0.1
148
0.0
 69
0
 70
0
 71
0
 72
0
 73
0
 74
0
 75
0
 76
0
 77
1
 78
12
 79
3
170
0
171
3
172
0
173
0
174
0
175
0
176
0
177
0
178
0
179
2
271
2
272
2
273
2
274
3
275
0
276
0
277
2
278
46
279
1
280
0
281
0
282
0
283
0
284
8
285
0
286
0
288
1
289
3
290
0
340
4C
342
84
371
-2
372
-2
  0
DIMSTYLE
105
88
330
4
100
AcDbSymbolTableRecord
100
AcDbDimStyleTableRecord
  2
EZ_RADIUS_INSIDE
 70
0
 40
1.0
 41
0.25
 42
0.125
 43
3.75
 44
0.375
 45
0.0
 46
0.0
 47
0.0
 48
0.0
 49
2.5
140
0.25
141
0.0
142
0.0
143
0.03937007874
144
100.0
145
0.0
146
0.5
147
0.1
148
0.0
 69
0
 70
0
 71
0
 72
0
 73
0
 74
0
 75
0
 76
0
 77
0
 78
12
 79
3
170
0
171
3
172
0
173
0
174
1
175
0
176
0
177
0
178
0
179
2
271
2
272
2
273
2
274
3
275
0
276
0
277
2
278
46
279
0
280
0
281
0
282
0
283
0
284
8
285
0
286
0
288
1
289
0
290
0
340
4C
342
84
371
-2
372
-2
  0
DIMSTYLE
105
89
330
4
100
AcDbSymbolTableRecord
100
AcDbDimStyleTableRecord
  2
EZ_CURVED
 70
0
 40
1.0
 41
0.25
 42
0.125
 43
3.75
 44
0.375
 45
0.0
 46
0.0
 47
0.0
 48
0.0
 49
2.5
140
0.25
141
2.5
142
0.0
143
0.03937007874
144
100.0
145
0.0
146
0.5
147
0.1
148
0.0
 69
0
 70
0
 71
0
 72
0
 73
0
 74
0
 75
0
 76
0
 77
1
 78
12
 79
2
 90
2
170
0
171
3
172
1
173
0
174
0
175
0
176
0
177
0
178
0
179
2
271
2
272
2
273
2
274
3
275
0
276
0
277
2
278
46
279
2
280
0
281
0
282
0
283
0
284
8
285
0
286
0
288
1
289
3
290
0
340
4C
371
-2
372
-2
  0
ENDTAB
  0
TABLE
  2
BLOCK_RECORD
  5
9
330
0
100
AcDbSymbolTable
 70
7
  0
BLOCK_RECORD
  5
17
330
9
100
AcDbSymbolTableRecord
100
AcDbBlockTableRecord
  2
*Model_Space
340
1A
 70
0
280
1
281
0
  0
BLOCK_RECORD
  5
1B
330
9
100
AcDbSymbolTableRecord
100
AcDbBlockTableRecord
  2
*Paper_Space
340
1E
 70
0
280
1
281
0
  0
BLOCK_RECORD
  5
74
330
9
100
AcDbSymbolTableRecord
100
AcDbBlockTableRecord
  2
_ARCHTICK
340
0
 70
0
280
1
281
0
  0
BLOCK_RECORD
  5
78
330
9
100
AcDbSymbolTableRecord
100
AcDbBlockTableRecord
  2
_CLOSEDFILLED
340
0
 70
0
280
1
281
0
  0
BLOCK_RECORD
  5
84
330
9
100
AcDbSymbolTableRecord
100
AcDbBlockTableRecord
  2
_CLOSEDBLANK
340
0
 70
0
280
1
281
0
  0
BLOCK_RECORD
  5
390
330
9
100
AcDbSymbolTableRecord
100
AcDbBlockTableRecord
  2
xTermSingleLayer02
340
0
 70
0
280
1
281
0
  0
BLOCK_RECORD
  5
399
330
9
100
AcDbSymbolTableRecord
100
AcDbBlockTableRecord
  2
IS_HiC2821-1
340
0
 70
0
280
1
281
0
  0
ENDTAB
  0
ENDSEC
  0
SECTION
  2
BLOCKS
  0
BLOCK
  5
18
330
17
100
AcDbEntity
  8
0
100
AcDbBlockBegin
  2
*Model_Space
 70
2
 10
0.0
 20
0.0
 30
0.0
  3
*Model_Space
  1

  0
ENDBLK
  5
19
330
17
100
AcDbEntity
  8
0
100
AcDbBlockEnd
  0
BLOCK
  5
1C
330
1B
100
AcDbEntity
  8
0
100
AcDbBlockBegin
  2
*Paper_Space
 70
0
 10
0.0
 20
0.0
 30
0.0
  3
*Paper_Space
  1

  0
ENDBLK
  5
1D
330
1B
100
AcDbEntity
  8
0
100
AcDbBlockEnd
  0
BLOCK
  5
75
330
74
100
AcDbEntity
  8
0
100
AcDbBlockBegin
  2
_ARCHTICK
 70
0
 10
0.0
 20
0.0
 30
0.0
  3
_ARCHTICK
  1

  0
LWPOLYLINE
  5
77
330
74
100
AcDbEntity
  8
0
  6
BYBLOCK
 62
0
100
AcDbPolyline
 90
2
 70
0
 43
0.15
 10
-0.5
 20
-0.5
 10
0.5
 20
0.5
  0
ENDBLK
  5
76
330
74
100
AcDbEntity
  8
0
100
AcDbBlockEnd
  0
BLOCK
  5
79
330
78
100
AcDbEntity
  8
0
100
AcDbBlockBegin
  2
_CLOSEDFILLED
 70
0
 10
0.0
 20
0.0
 30
0.0
  3
_CLOSEDFILLED
  1

  0
SOLID
  5
7B
330
78
100
AcDbEntity
  8
0
  6
BYBLOCK
 62
0
100
AcDbTrace
 10
-1.0
 20
0.16439898372402537
 30
0.0
 11
0.0
 21
0.0
 31
0.0
 12
-1.0
 22
-0.16439898372402537
 32
0.0
 13
-1.0
 23
-0.16439898372402537
 33
0.0
  0
ENDBLK
  5
7A
330
78
100
AcDbEntity
  8
0
100
AcDbBlockEnd
  0
BLOCK
  5
85
330
84
100
AcDbEntity
  8
0
100
AcDbBlockBegin
  2
_CLOSEDBLANK
 70
0
 10
0.0
 20
0.0
 30
0.0
  3
_CLOSEDBLANK
  1

  0
LWPOLYLINE
  5
87
330
84
100
AcDbEntity
  8
0
  6
BYBLOCK
 62
0
100
AcDbPolyline
 90
3
 70
1
 10
-1.0
 20
0.16439898372402537
 10
0.0
 20
0.0
 10
-1.0
 20
-0.16439898372402537
  0
ENDBLK
  5
86
330
84
100
AcDbEntity
  8
0
100
AcDbBlockEnd
  0
BLOCK
  5
391
330
390
100
AcDbEntity
  8
0
100
AcDbBlockBegin
  2
xTermSingleLayer02
 70
2
 10
0.0
 20
0.0
 30
0.0
  3
xTermSingleLayer02
  1

  0
LWPOLYLINE
  5
393
330
390
100
AcDbEntity
  8
0
 62
7
 48
25.39999961853027
100
AcDbPolyline
 90
4
 70
1
 10
536.8309130924754
 20
-536.7653006816254
 10
3378.117506571667
 20
-536.7653006816254
 10
3378.117506571667
 20
0.0
 10
536.8309130924754
 20
0.0
  0
LWPOLYLINE
  5
394
330
390
100
AcDbEntity
  8
0
 62
7
 48
25.39999961853027
100
AcDbPolyline
 90
4
 70
1
 10
3378.117506571667
 20
-536.7653006816254
 10
3914.948419661072
 20
-536.7653006816254
 10
3914.948419661072
 20
0.0
 10
3378.117506571667
 20
0.0
  0
CIRCLE
  5
395
330
390
100
AcDbEntity
  8
0
 62
7
 48
25.39999961853027
100
AcDbCircle
 10
3646.532963115533
 20
-268.3826503408054
 30
0.0
 40
141.2466056886129
  0
LWPOLYLINE
  5
396
330
390
100
AcDbEntity
  8
0
 62
7
 48
25.39999961853027
100
AcDbPolyline
 90
4
 70
1
 10
0.0
 20
-536.7653006816254
 10
536.8309130907874
 20
-536.7653006816254
 10
536.8309130907874
 20
0.0
 10
0.0
 20
0.0
  0
CIRCLE
  5
397
330
390
100
AcDbEntity
  8
0
 62
7
 48
25.39999961853027
100
AcDbCircle
 10
268.4154565469362
 20
-268.3826503408054
 30
0.0
 40
141.2466056886129
  0
ATTDEF
  5
398
330
390
100
AcDbEntity
  8
0
100
AcDbText
 10
661.4916110486956
 20
-386.8292539856193
 30
0.0
 40
212.5
  1
xB
100
AcDbAttributeDefinition
  3
Terminal_B
  2
TERMINAL_B
 70
0
280
1
  0
ENDBLK
  5
392
330
390
100
AcDbEntity
  8
0
100
AcDbBlockEnd
  0
BLOCK
  5
39A
330
399
100
AcDbEntity
  8
0
100
AcDbBlockBegin
  2
IS_HiC2821-1
 70
0
 10
0.0
 20
0.0
 30
0.0
  3
IS_HiC2821-1
  1

  0
TEXT
  5
39C
330
399
100
AcDbEntity
  8
power
 62
7
100
AcDbText
 10
113.6610323584294
 20
-15.80165441064507
 30
0.0
 40
9.965808239316482
  1
1
  7
Tahoma
 72
1
 11
117.4023935443111
 21
-10.81875029098683
 31
0.0
100
AcDbText
 73
2
  0
LWPOLYLINE
  5
39D
330
399
100
AcDbEntity
  8
0
 62
1
 48
25.39999961853027
100
AcDbPolyline
 90
4
 70
1
 10
129.719712252295
 20
-20.61178754617868
 10
150.3340193149859
 20
-20.61178754617868
 10
150.3340193149859
 20
0.0
 10
129.719712252295
 20
0.0
  0
LINE
  5
39E
330
399
100
AcDbEntity
  8
0
 62
1
 48
25.39999961853027
100
AcDbLine
 10
136.191376384907
 20
-6.470873154592937
 30
0.0
 11
143.862355182313
 21
-14.14091439152389
 31
0.0
  0
CIRCLE
  5
39F
330
399
100
AcDbEntity
  8
0
 62
1
 48
25.39999961853027
100
AcDbCircle
 10
140.02686578358
 20
-10.30589377309207
 30
0.0
 40
5.423869658442737
  0
LINE
  5
3A0
330
399
100
AcDbEntity
  8
0
 62
1
 48
25.39999961853027
100
AcDbLine
 10
143.862355182252
 20
-6.470873154592937
 30
0.0
 11
136.191376384907
 21
-14.14091439152389
 31
0.0
  0
LWPOLYLINE
  5
3A1
330
399
100
AcDbEntity
  8
0
 62
1
 48
25.39999961853027
100
AcDbPolyline
 90
4
 70
1
 10
0.0
 20
-20.61178754617868
 10
20.61430706269107
 20
-20.61178754617868
 10
20.61430706269107
 20
0.0
 10
0.0
 20
0.0
  0
LINE
  5
3A2
330
399
100
AcDbEntity
  8
0
 62
1
 48
25.39999961853027
100
AcDbLine
 10
14.14264293007886
 20
-6.470873154592937
 30
0.0
 11
6.471664132672913
 21
-14.14091439152389
 31
0.0
  0
CIRCLE
  5
3A3
330
399
100
AcDbEntity
  8
0
 62
1
 48
25.39999961853027
100
AcDbCircle
 10
10.3071535314059
 20
-10.30589377309207
 30
0.0
 40
5.423869658442737
  0
LINE
  5
3A4
330
399
100
AcDbEntity
  8
0
 62
1
 48
25.39999961853027
100
AcDbLine
 10
6.471664132734077
 20
-6.470873154592937
 30
0.0
 11
14.14264293007886
 21
-14.14091439152389
 31
0.0
  0
TEXT
  5
3A5
330
399
100
AcDbEntity
  8
power
 62
7
100
AcDbText
 10
113.6610323584294
 20
-36.41344195682329
 30
0.0
 40
9.965808239316482
  1
4
  7
Tahoma
 72
1
 11
117.4023935443111
 21
-31.43053783716505
 31
0.0
100
AcDbText
 73
2
  0
LWPOLYLINE
  5
3A6
330
399
100
AcDbEntity
  8
0
 62
1
 48
25.39999961853027
100
AcDbPolyline
 90
4
 70
1
 10
129.719712252295
 20
-41.2235750923569
 10
150.3340193149859
 20
-41.2235750923569
 10
150.3340193149859
 20
-20.61178754617868
 10
129.719712252295
 20
-20.61178754617868
  0
LINE
  5
3A7
330
399
100
AcDbEntity
  8
0
 62
1
 48
25.39999961853027
100
AcDbLine
 10
136.191376384907
 20
-27.08266070077116
 30
0.0
 11
143.862355182313
 21
-34.75270193770211
 31
0.0
  0
CIRCLE
  5
3A8
330
399
100
AcDbEntity
  8
0
 62
1
 48
25.39999961853027
100
AcDbCircle
 10
140.02686578358
 20
-30.91768131926983
 30
0.0
 40
5.423869658442737
  0
LINE
  5
3A9
330
399
100
AcDbEntity
  8
0
 62
1
 48
25.39999961853027
100
AcDbLine
 10
143.862355182252
 20
-27.08266070077116
 30
0.0
 11
136.191376384907
 21
-34.75270193770211
 31
0.0
  0
LWPOLYLINE
  5
3AA
330
399
100
AcDbEntity
  8
0
 62
1
 48
25.39999961853027
100
AcDbPolyline
 90
4
 70
1
 10
0.0
 20
-41.2235750923569
 10
20.61430706269107
 20
-41.2235750923569
 10
20.61430706269107
 20
-20.61178754617868
 10
0.0
 20
-20.61178754617868
  0
LINE
  5
3AB
330
399
100
AcDbEntity
  8
0
 62
1
 48
25.39999961853027
100
AcDbLine
 10
14.14264293007886
 20
-27.08266070077116
 30
0.0
 11
6.471664132672913
 21
-34.75270193770211
 31
0.0
  0
CIRCLE
  5
3AC
330
399
100
AcDbEntity
  8
0
 62
1
 48
25.39999961853027
100
AcDbCircle
 10
10.3071535314059
 20
-30.91768131926983
 30
0.0
 40
5.423869658442737
  0
LINE
  5
3AD
330
399
100
AcDbEntity
  8
0
 62
1
 48
25.39999961853027
100
AcDbLine
 10
6.471664132734077
 20
-27.08266070077116
 30
0.0
 11
14.14264293007886
 21
-34.75270193770211
 31
0.0
  0
LWPOLYLINE
  5
3AE
330
399
100
AcDbEntity
  8
0
100
AcDbPolyline
 90
4
 70
1
 10
0.0
 20
0.0
 10
150.3340193149859
 20
0.0
 10
150.3340193149859
 20
-41.2235750923569
 10
0.0
 20
-41.2235750923569
  0
TEXT
  5
3AF
330
399
100
AcDbEntity
  8
power
 62
7
100
AcDbText
 10
113.6610323584294
 20
-57.02522950300242
 30
0.0
 40
9.965808239316482
  1
2
  7
Tahoma
 72
1
 11
117.4023935443111
 21
-52.04232538334418
 31
0.0
100
AcDbText
 73
2
  0
LWPOLYLINE
  5
3B0
330
399
100
AcDbEntity
  8
0
 62
1
 48
25.39999961853027
100
AcDbPolyline
 90
4
 70
1
 10
129.719712252295
 20
-61.83536263853603
 10
150.3340193149859
 20
-61.83536263853603
 10
150.3340193149859
 20
-41.2235750923569
 10
129.719712252295
 20
-41.2235750923569
  0
LINE
  5
3B1
330
399
100
AcDbEntity
  8
0
 62
1
 48
25.39999961853027
100
AcDbLine
 10
136.191376384907
 20
-47.69444824694983
 30
0.0
 11
143.862355182313
 21
-55.36448948388079
 31
0.0
  0
CIRCLE
  5
3B2
330
399
100
AcDbEntity
  8
0
 62
1
 48
25.39999961853027
100
AcDbCircle
 10
140.02686578358
 20
-51.52946886544851
 30
0.0
 40
5.423869658442737
  0
LINE
  5
3B3
330
399
100
AcDbEntity
  8
0
 62
1
 48
25.39999961853027
100
AcDbLine
 10
143.862355182252
 20
-47.69444824694983
 30
0.0
 11
136.191376384907
 21
-55.36448948388079
 31
0.0
  0
LWPOLYLINE
  5
3B4
330
399
100
AcDbEntity
  8
0
 62
1
 48
25.39999961853027
100
AcDbPolyline
 90
4
 70
1
 10
0.0
 20
-61.83536263853603
 10
20.61430706269107
 20
-61.83536263853603
 10
20.61430706269107
 20
-41.2235750923569
 10
0.0
 20
-41.2235750923569
  0
LINE
  5
3B5
330
399
100
AcDbEntity
  8
0
 62
1
 48
25.39999961853027
100
AcDbLine
 10
14.14264293007886
 20
-47.69444824694983
 30
0.0
 11
6.471664132672913
 21
-55.36448948388079
 31
0.0
  0
CIRCLE
  5
3B6
330
399
100
AcDbEntity
  8
0
 62
1
 48
25.39999961853027
100
AcDbCircle
 10
10.3071535314059
 20
-51.52946886544851
 30
0.0
 40
5.423869658442737
  0
LINE
  5
3B7
330
399
100
AcDbEntity
  8
0
 62
1
 48
25.39999961853027
100
AcDbLine
 10
6.471664132734077
 20
-47.69444824694983
 30
0.0
 11
14.14264293007886
 21
-55.36448948388079
 31
0.0
  0
TEXT
  5
3B8
330
399
100
AcDbEntity
  8
power
 62
7
100
AcDbText
 10
113.6610323584294
 20
-77.63701704918019
 30
0.0
 40
9.965808239316482
  1
5
  7
Tahoma
 72
1
 11
117.4023935443111
 21
-72.65411292952194
 31
0.0
100
AcDbText
 73
2
  0
LWPOLYLINE
  5
3B9
330
399
100
AcDbEntity
  8
0
 62
1
 48
25.39999961853027
100
AcDbPolyline
 90
4
 70
1
 10
129.719712252295
 20
-82.44715018471379
 10
150.3340193149859
 20
-82.44715018471379
 10
150.3340193149859
 20
-61.83536263853603
 10
129.719712252295
 20
-61.83536263853603
  0
LINE
  5
3BA
330
399
100
AcDbEntity
  8
0
 62
1
 48
25.39999961853027
100
AcDbLine
 10
136.191376384907
 20
-68.3062357931276
 30
0.0
 11
143.862355182313
 21
-75.97627703005855
 31
0.0
  0
CIRCLE
  5
3BB
330
399
100
AcDbEntity
  8
0
 62
1
 48
25.39999961853027
100
AcDbCircle
 10
140.02686578358
 20
-72.14125641162718
 30
0.0
 40
5.423869658442737
  0
LINE
  5
3BC
330
399
100
AcDbEntity
  8
0
 62
1
 48
25.39999961853027
100
AcDbLine
 10
143.862355182252
 20
-68.3062357931276
 30
0.0
 11
136.191376384907
 21
-75.97627703005855
 31
0.0
  0
LWPOLYLINE
  5
3BD
330
399
100
AcDbEntity
  8
0
 62
1
 48
25.39999961853027
100
AcDbPolyline
 90
4
 70
1
 10
0.0
 20
-82.44715018471379
 10
20.61430706269107
 20
-82.44715018471379
 10
20.61430706269107
 20
-61.83536263853603
 10
0.0
 20
-61.83536263853603
  0
LINE
  5
3BE
330
399
100
AcDbEntity
  8
0
 62
1
 48
25.39999961853027
100
AcDbLine
 10
14.14264293007886
 20
-68.3062357931276
 30
0.0
 11
6.471664132672913
 21
-75.97627703005855
 31
0.0
  0
CIRCLE
  5
3BF
330
399
100
AcDbEntity
  8
0
 62
1
 48
25.39999961853027
100
AcDbCircle
 10
10.3071535314059
 20
-72.14125641162718
 30
0.0
 40
5.423869658442737
  0
LINE
  5
3C0
330
399
100
AcDbEntity
  8
0
 62
1
 48
25.39999961853027
100
AcDbLine
 10
6.471664132734077
 20
-68.3062357931276
 30
0.0
 11
14.14264293007886
 21
-75.97627703005855
 31
0.0
  0
LWPOLYLINE
  5
3C1
330
399
100
AcDbEntity
  8
0
100
AcDbPolyline
 90
4
 70
1
 10
0.0
 20
-41.2235750923569
 10
150.3340193149859
 20
-41.2235750923569
 10
150.3340193149859
 20
-82.44715018471379
 10
0.0
 20
-82.44715018471379
  0
TEXT
  5
3C2
330
399
100
AcDbEntity
  8
power
 62
7
100
AcDbText
 10
28.37864497593268
 20
-15.80165441064507
 30
0.0
 40
9.965808239316482
  1
11
  7
Tahoma
 72
1
 11
35.86136734769616
 21
-10.81875029098683
 31
0.0
100
AcDbText
 73
2
  0
TEXT
  5
3C3
330
399
100
AcDbEntity
  8
power
 62
7
100
AcDbText
 10
28.37864497593268
 20
-36.41344195682329
 30
0.0
 40
9.965808239316482
  1
14
  7
Tahoma
 72
1
 11
35.86136734769616
 21
-31.43053783716505
 31
0.0
100
AcDbText
 73
2
  0
TEXT
  5
3C4
330
399
100
AcDbEntity
  8
power
 62
7
100
AcDbText
 10
28.37864497593268
 20
-57.02522950300242
 30
0.0
 40
9.965808239316482
  1
12
  7
Tahoma
 72
1
 11
35.86136734769616
 21
-52.04232538334418
 31
0.0
100
AcDbText
 73
2
  0
TEXT
  5
3C5
330
399
100
AcDbEntity
  8
power
 62
7
100
AcDbText
 10
28.37864497593268
 20
-77.63701704918019
 30
0.0
 40
9.965808239316482
  1
15
  7
Tahoma
 72
1
 11
35.86136734769616
 21
-72.65411292952194
 31
0.0
100
AcDbText
 73
2
  0
ENDBLK
  5
39B
330
399
100
AcDbEntity
  8
0
100
AcDbBlockEnd
  0
ENDSEC
  0
SECTION
  2
ENTITIES
  0
TEXT
  5
8A
330
17
100
AcDbEntity
  8
0
 62
2
100
AcDbText
 10
749.4170759651461
 20
2430.632119067255
 30
0.0
 40
11.4409728
  1
1756-IB32
  7
Tahoma
 72
1
 11
785.6186497376111
 21
2436.3526054672548
 31
0.0
100
AcDbText
 73
2
  0
TEXT
  5
8B
330
17
100
AcDbEntity
  8
0
 62
2
100
AcDbText
 10
690.0328967417354
 20
2402.062502078483
 30
0.0
 40
11.4409728
  1
DIGITAL INPUT MODULE
  7
Tahoma
 72
1
 11
777.3692414906964
 21
2407.7829884784824
 31
0.0
100
AcDbText
 73
2
  0
TEXT
  5
8C
330
17
100
AcDbEntity
  8
0
 62
2
100
AcDbText
 10
716.1853560279869
 20
2468.0593128929013
 30
0.0
 40
11.4409728
  1
CHASSIS C4 SLOT 2
  7
Tahoma
 72
1
 11
786.1796755186515
 21
2473.779799292901
 31
0.0
100
AcDbText
 73
2
  0
LINE
  5
8D
330
17
100
AcDbEntity
  8
IE-WIRE
 62
4
 48
25.39999961853027
100
AcDbLine
 10
348.1486821241051
 20
2264.8038057801987
 30
0.0
 11
593.4300439792605
 21
2264.8038057802623
 31
0.0
  0
LINE
  5
8E
330
17
100
AcDbEntity
  8
IE-WIRE
 62
4
 48
25.39999961853027
100
AcDbLine
 10
348.1486821241051
 20
2215.17097734074
 30
0.0
 11
593.4300439792605
 21
2215.17097734074
 31
0.0
  0
LINE
  5
8F
330
17
100
AcDbEntity
  8
IE-WIRE
 62
4
 48
25.39999961853027
100
AcDbLine
 10
338.9737934142413
 20
2255.628917070336
 30
0.0
 11
338.9737934142413
 21
1729.5314682761564
 31
0.0
  0
TEXT
  5
90
330
17
100
AcDbEntity
  8
0
 62
4
100
AcDbText
 10
365.79757853485717
 20
2270.7603954379565
 30
0.0
 40
9.948672000000002
  1
C4S2-2/P4-SIDI2-M2-14
  7
Tahoma
100
AcDbText
  0
TEXT
  5
91
330
17
100
AcDbEntity
  8
0
 62
4
100
AcDbText
 10
565.8521242630704
 20
2270.0572738004175
 30
0.0
 40
9.948672000000002
  1
WH
  7
Tahoma
100
AcDbText
  0
TEXT
  5
92
330
17
100
AcDbEntity
  8
0
 62
4
100
AcDbText
 10
565.8521242630704
 20
2220.42444536102
 30
0.0
 40
9.948672000000002
  1
WH
  7
Tahoma
100
AcDbText
  0
TEXT
  5
93
330
17
100
AcDbEntity
  8
0
 62
4
100
AcDbText
 10
985.3489088676124
 20
2071.5259600426944
 30
0.0
 40
9.948672000000002
  1
WH
  7
Tahoma
100
AcDbText
  0
TEXT
  5
94
330
17
100
AcDbEntity
  8
0
 62
4
100
AcDbText
 10
985.3489088676124
 20
2021.893131603235
 30
0.0
 40
9.948672000000002
  1
WH
  7
Tahoma
100
AcDbText
  0
LINE
  5
95
330
17
100
AcDbEntity
  8
IE-WIRE
 62
4
 48
25.39999961853027
100
AcDbLine
 10
348.1486821241051
 20
2165.538148901278
 30
0.0
 11
593.4300439792605
 21
2165.538148901278
 31
0.0
  0
TEXT
  5
96
330
17
100
AcDbEntity
  8
0
 62
4
100
AcDbText
 10
565.8521242630704
 20
2170.791616921495
 30
0.0
 40
9.948672000000002
  1
WH
  7
Tahoma
100
AcDbText
  0
LINE
  5
97
330
17
100
AcDbEntity
  8
IE-WIRE
 62
4
 48
25.39999961853027
100
AcDbLine
 10
348.1486821241051
 20
2115.9053204618176
 30
0.0
 11
593.4300439792605
 21
2115.9053204618176
 31
0.0
  0
TEXT
  5
98
330
17
100
AcDbEntity
  8
0
 62
4
100
AcDbText
 10
565.8521242630704
 20
2121.1587884820947
 30
0.0
 40
9.948672000000002
  1
WH
  7
Tahoma
100
AcDbText
  0
LINE
  5
99
330
17
100
AcDbEntity
  8
IE-WIRE
 62
4
 48
25.39999961853027
100
AcDbLine
 10
348.1486821241051
 20
2066.2724920224173
 30
0.0
 11
593.4300439792605
 21
2066.2724920224173
 31
0.0
  0
TEXT
  5
9A
330
17
100
AcDbEntity
  8
0
 62
4
100
AcDbText
 10
565.8521242630704
 20
2071.5259600426343
 30
0.0
 40
9.948672000000002
  1
WH
  7
Tahoma
100
AcDbText
  0
TEXT
  5
9B
330
17
100
AcDbEntity
  8
0
 62
4
100
AcDbText
 10
985.3489088676124
 20
1972.2603031637727
 30
0.0
 40
9.948672000000002
  1
WH
  7
Tahoma
100
AcDbText
  0
TEXT
  5
9C
330
17
100
AcDbEntity
  8
0
 62
4
100
AcDbText
 10
985.3489088676124
 20
1922.6274747243724
 30
0.0
 40
9.948672000000002
  1
WH
  7
Tahoma
100
AcDbText
  0
TEXT
  5
9D
330
17
100
AcDbEntity
  8
0
 62
4
100
AcDbText
 10
1048.267930147791
 20
2271.091989202516
 30
0.0
 40
9.948672000000002
  1
C4S2-1/P4-SIDI2-M1-14
  7
Tahoma
100
AcDbText
  0
TEXT
  5
9E
330
17
100
AcDbEntity
  8
0
 62
4
100
AcDbText
 10
985.3489088676124
 20
2270.0572738004175
 30
0.0
 40
9.948672000000002
  1
WH
  7
Tahoma
100
AcDbText
  0
TEXT
  5
9F
330
17
100
AcDbEntity
  8
0
 62
4
100
AcDbText
 10
985.3489088676124
 20
2220.42444536102
 30
0.0
 40
9.948672000000002
  1
WH
  7
Tahoma
100
AcDbText
  0
TEXT
  5
A0
330
17
100
AcDbEntity
  8
0
 62
4
100
AcDbText
 10
985.3489088676124
 20
2170.791616921556
 30
0.0
 40
9.948672000000002
  1
WH
  7
Tahoma
100
AcDbText
  0
TEXT
  5
A1
330
17
100
AcDbEntity
  8
0
 62
4
100
AcDbText
 10
985.3489088676124
 20
2121.1587884820947
 30
0.0
 40
9.948672000000002
  1
WH
  7
Tahoma
100
AcDbText
  0
LINE
  5
A2
330
17
100
AcDbEntity
  8
IE-WIRE
 62
4
 48
25.39999961853027
100
AcDbLine
 10
348.1486821241051
 20
2016.639663582896
 30
0.0
 11
593.4300439792605
 21
2016.639663582896
 31
0.0
  0
TEXT
  5
A3
330
17
100
AcDbEntity
  8
0
 62
4
100
AcDbText
 10
565.8521242630704
 20
2021.893131603114
 30
0.0
 40
9.948672000000002
  1
WH
  7
Tahoma
100
AcDbText
  0
LINE
  5
A4
330
17
100
AcDbEntity
  8
IE-WIRE
 62
4
 48
25.39999961853027
100
AcDbLine
 10
348.1486821241051
 20
1967.0068351434957
 30
0.0
 11
593.4300439792605
 21
1967.0068351434957
 31
0.0
  0
TEXT
  5
A5
330
17
100
AcDbEntity
  8
0
 62
4
100
AcDbText
 10
565.8521242630704
 20
1972.2603031637136
 30
0.0
 40
9.948672000000002
  1
WH
  7
Tahoma
100
AcDbText
  0
LINE
  5
A6
330
17
100
AcDbEntity
  8
IE-WIRE
 62
4
 48
25.39999961853027
100
AcDbLine
 10
348.1486821241051
 20
1917.3740067040326
 30
0.0
 11
593.4300439792605
 21
1917.3740067040326
 31
0.0
  0
TEXT
  5
A7
330
17
100
AcDbEntity
  8
0
 62
4
100
AcDbText
 10
565.8521242630704
 20
1922.6274747242496
 30
0.0
 40
9.948672000000002
  1
WH
  7
Tahoma
100
AcDbText
  0
LINE
  5
A8
330
17
100
AcDbEntity
  8
IE-WIRE
 62
7
 48
25.39999961853027
100
AcDbLine
 10
314.8921258362352
 20
1858.6019782646927
 30
0.0
 11
314.8921258362643
 21
1726.255790401925
 31
0.0
  0
TEXT
  5
A9
330
17
100
AcDbEntity
  8
0
 62
7
100
AcDbText
 10
365.79757853485717
 20
1874.0293626041312
 30
0.0
 40
9.948672000000002
  1
0VDC
  7
Tahoma
100
AcDbText
  0
LINE
  5
AA
330
17
100
AcDbEntity
  8
IE-WIRE
 62
7
 48
25.39999961853027
100
AcDbLine
 10
593.4300439792605
 20
1867.741178264695
 30
0.0
 11
324.03132583623665
 21
1867.741178264695
 31
0.0
  0
TEXT
  5
AB
330
17
100
AcDbEntity
  8
0
 62
7
100
AcDbText
 10
568.9127603851666
 20
1872.994646284913
 30
0.0
 40
9.948672000000002
  1
BK
  7
Tahoma
100
AcDbText
  0
LINE
  5
AC
330
17
100
AcDbEntity
  8
IE-WIRE
 62
4
 48
25.39999961853027
100
AcDbLine
 10
1208.148156579944
 20
2264.8038057801987
 30
0.0
 11
962.8667947247886
 21
2264.8038057802623
 31
0.0
  0
LINE
  5
AD
330
17
100
AcDbEntity
  8
IE-WIRE
 62
4
 48
25.39999961853027
100
AcDbLine
 10
1208.148156579944
 20
2215.17097734074
 30
0.0
 11
962.8667947247886
 21
2215.17097734074
 31
0.0
  0
LINE
  5
AE
330
17
100
AcDbEntity
  8
IE-WIRE
 62
4
 48
25.39999961853027
100
AcDbLine
 10
1217.3230452898079
 20
2255.628917070336
 30
0.0
 11
1217.3230452898079
 21
1791.8467743991014
 31
0.0
  0
LINE
  5
AF
330
17
100
AcDbEntity
  8
IE-WIRE
 62
4
 48
25.39999961853027
100
AcDbLine
 10
1208.148156579944
 20
2165.538148901278
 30
0.0
 11
962.8667947247886
 21
2165.538148901278
 31
0.0
  0
LINE
  5
B0
330
17
100
AcDbEntity
  8
IE-WIRE
 62
4
 48
25.39999961853027
100
AcDbLine
 10
1208.148156579944
 20
2115.9053204618176
 30
0.0
 11
962.8667947247886
 21
2115.9053204618176
 31
0.0
  0
LINE
  5
B1
330
17
100
AcDbEntity
  8
IE-WIRE
 62
4
 48
25.39999961853027
100
AcDbLine
 10
1208.148156579944
 20
2066.2724920224173
 30
0.0
 11
962.8667947247886
 21
2066.2724920224173
 31
0.0
  0
LINE
  5
B2
330
17
100
AcDbEntity
  8
IE-WIRE
 62
4
 48
25.39999961853027
100
AcDbLine
 10
1208.148156579944
 20
2016.639663582896
 30
0.0
 11
962.8667947247886
 21
2016.639663582896
 31
0.0
  0
LINE
  5
B3
330
17
100
AcDbEntity
  8
IE-WIRE
 62
4
 48
25.39999961853027
100
AcDbLine
 10
1208.148156579944
 20
1967.0068351434957
 30
0.0
 11
962.8667947247886
 21
1967.0068351434957
 31
0.0
  0
LINE
  5
B4
330
17
100
AcDbEntity
  8
IE-WIRE
 62
4
 48
25.39999961853027
100
AcDbLine
 10
1208.148156579944
 20
1917.3740067040326
 30
0.0
 11
962.8667947247886
 21
1917.3740067040326
 31
0.0
  0
LINE
  5
B5
330
17
100
AcDbEntity
  8
IE-WIRE
 62
7
 48
25.39999961853027
100
AcDbLine
 10
1241.4047128678103
 20
1858.6019782646927
 30
0.0
 11
1241.4047128677794
 21
1712.2338780264636
 31
0.0
  0
LINE
  5
B6
330
17
100
AcDbEntity
  8
IE-WIRE
 62
7
 48
25.39999961853027
100
AcDbLine
 10
962.8667947247886
 20
1867.741178264695
 30
0.0
 11
1232.2655128678107
 21
1867.741178264695
 31
0.0
  0
TEXT
  5
B7
330
17
100
AcDbEntity
  8
0
 62
4
100
AcDbText
 10
1678.165673547288
 20
2441.099944589707
 30
0.0
 40
9.948672000000002
  1
P4-SI3
  7
Tahoma
 72
1
 11
1698.2567794599781
 21
2446.074280589707
 31
0.0
100
AcDbText
 73
2
  0
TEXT
  5
B8
330
17
100
AcDbEntity
  8
0
 62
7
100
AcDbText
 10
988.7571941542828
 20
1872.994646284913
 30
0.0
 40
9.948672000000002
  1
BK
  7
Tahoma
100
AcDbText
  0
LINE
  5
B9
330
17
100
AcDbEntity
  8
IE-WIRE
 62
4
 48
25.39999961853027
100
AcDbLine
 10
1398.5806811065668
 20
2387.5263306096476
 30
0.0
 11
1398.5806811065668
 21
986.1501543611648
 31
0.0
  0
LINE
  5
BA
330
17
100
AcDbEntity
  8
IE-WIRE
 62
4
100
AcDbLine
 10
348.1129934142409
 20
1712.2338780264636
 30
0.0
 11
1276.2139941840815
 21
1712.2338780264636
 31
0.0
  0
LINE
  5
BB
330
17
100
AcDbEntity
  8
IE-WIRE
 62
4
 48
25.39999961853027
100
AcDbLine
 10
2044.4555039844072
 20
2408.138118155827
 30
0.0
 11
2044.4555039844072
 21
1007.138930088594
 31
0.0
  0
LINE
  5
BC
330
17
100
AcDbEntity
  8
IE-WIRE
 62
4
 48
25.39999961853027
100
AcDbLine
 10
2227.161066024888
 20
2423.690967971055
 30
0.0
 11
2474.8957330163976
 21
2423.690967971117
 31
0.0
  0
LINE
  5
BD
330
17
100
AcDbEntity
  8
IE-WIRE
 62
4
 48
25.39999961853027
100
AcDbLine
 10
2227.161066024888
 20
2423.6909679710516
 30
0.0
 11
2474.8957330163976
 21
2423.6909679711152
 31
0.0
  0
LINE
  5
BE
330
17
100
AcDbEntity
  8
IE-WIRE
 62
4
 48
25.39999961853027
100
AcDbLine
 10
2227.161066024888
 20
2361.855605332523
 30
0.0
 11
2474.8957330163976
 21
2361.8556053325874
 31
0.0
  0
LINE
  5
BF
330
17
100
AcDbEntity
  8
IE-WIRE
 62
4
 48
25.39999961853027
100
AcDbLine
 10
2227.161066024888
 20
2361.855605332519
 30
0.0
 11
2474.8957330163976
 21
2361.855605332583
 31
0.0
  0
LINE
  5
C0
330
17
100
AcDbEntity
  8
IE-WIRE
 62
4
 48
25.39999961853027
100
AcDbLine
 10
2227.161066024888
 20
2300.0202426939995
 30
0.0
 11
2474.8957330163976
 21
2300.020242694063
 31
0.0
  0
LINE
  5
C1
330
17
100
AcDbEntity
  8
IE-WIRE
 62
4
 48
25.39999961853027
100
AcDbLine
 10
2227.161066024888
 20
2300.020242693996
 30
0.0
 11
2474.8957330163976
 21
2300.0202426940596
 31
0.0
  0
LINE
  5
C2
330
17
100
AcDbEntity
  8
IE-WIRE
 62
4
 48
25.39999961853027
100
AcDbLine
 10
2227.161066024888
 20
2238.1848800554726
 30
0.0
 11
2474.8957330163976
 21
2238.1848800555363
 31
0.0
  0
LINE
  5
C3
330
17
100
AcDbEntity
  8
IE-WIRE
 62
4
 48
25.39999961853027
100
AcDbLine
 10
2227.161066024888
 20
2238.184880055469
 30
0.0
 11
2474.8957330163976
 21
2238.1848800555326
 31
0.0
  0
LINE
  5
C4
330
17
100
AcDbEntity
  8
IE-WIRE
 62
4
 48
25.39999961853027
100
AcDbLine
 10
2227.161066024888
 20
2176.3495174169493
 30
0.0
 11
2474.8957330163976
 21
2176.349517417012
 31
0.0
  0
LINE
  5
C5
330
17
100
AcDbEntity
  8
IE-WIRE
 62
4
 48
25.39999961853027
100
AcDbLine
 10
2227.161066024888
 20
2176.3495174169457
 30
0.0
 11
2474.8957330163976
 21
2176.3495174170093
 31
0.0
  0
LINE
  5
C6
330
17
100
AcDbEntity
  8
IE-WIRE
 62
4
 48
25.39999961853027
100
AcDbLine
 10
2227.161066024888
 20
2114.514154778425
 30
0.0
 11
2474.8957330163976
 21
2114.514154778488
 31
0.0
  0
LINE
  5
C7
330
17
100
AcDbEntity
  8
IE-WIRE
 62
4
 48
25.39999961853027
100
AcDbLine
 10
2227.161066024888
 20
2114.5141547784224
 30
0.0
 11
2474.8957330163976
 21
2114.514154778485
 31
0.0
  0
LINE
  5
C8
330
17
100
AcDbEntity
  8
IE-WIRE
 62
4
 48
25.39999961853027
100
AcDbLine
 10
2227.161066024888
 20
2382.4673928787033
 30
0.0
 11
2474.8957330163976
 21
2382.467392878765
 31
0.0
  0
LINE
  5
C9
330
17
100
AcDbEntity
  8
IE-WIRE
 62
4
 48
25.39999961853027
100
AcDbLine
 10
2227.161066024888
 20
2382.467392878699
 30
0.0
 11
2474.8957330163976
 21
2382.4673928787615
 31
0.0
  0
LINE
  5
CA
330
17
100
AcDbEntity
  8
IE-WIRE
 62
4
 48
25.39999961853027
100
AcDbLine
 10
2227.161066024888
 20
2320.6320302401764
 30
0.0
 11
2474.8957330163976
 21
2320.6320302402382
 31
0.0
  0
LINE
  5
CB
330
17
100
AcDbEntity
  8
IE-WIRE
 62
4
 48
25.39999961853027
100
AcDbLine
 10
2227.161066024888
 20
2320.632030240172
 30
0.0
 11
2474.8957330163976
 21
2320.6320302402346
 31
0.0
  0
LINE
  5
CC
330
17
100
AcDbEntity
  8
IE-WIRE
 62
4
 48
25.39999961853027
100
AcDbLine
 10
2227.161066024888
 20
2258.796667601652
 30
0.0
 11
2474.8957330163976
 21
2258.796667601715
 31
0.0
  0
LINE
  5
CD
330
17
100
AcDbEntity
  8
IE-WIRE
 62
4
 48
25.39999961853027
100
AcDbLine
 10
2227.161066024888
 20
2258.7966676016476
 30
0.0
 11
2474.8957330163976
 21
2258.7966676017113
 31
0.0
  0
LINE
  5
CE
330
17
100
AcDbEntity
  8
IE-WIRE
 62
4
 48
25.39999961853027
100
AcDbLine
 10
2227.161066024888
 20
2196.9613049631243
 30
0.0
 11
2474.8957330163976
 21
2196.961304963188
 31
0.0
  0
LINE
  5
CF
330
17
100
AcDbEntity
  8
IE-WIRE
 62
4
 48
25.39999961853027
100
AcDbLine
 10
2227.161066024888
 20
2196.9613049631207
 30
0.0
 11
2474.8957330163976
 21
2196.9613049631844
 31
0.0
  0
LINE
  5
D0
330
17
100
AcDbEntity
  8
IE-WIRE
 62
4
 48
25.39999961853027
100
AcDbLine
 10
2227.161066024888
 20
2135.125942324601
 30
0.0
 11
2474.8957330163976
 21
2135.125942324664
 31
0.0
  0
LINE
  5
D1
330
17
100
AcDbEntity
  8
IE-WIRE
 62
4
 48
25.39999961853027
100
AcDbLine
 10
2227.161066024888
 20
2135.1259423245965
 30
0.0
 11
2474.8957330163976
 21
2135.125942324661
 31
0.0
  0
LINE
  5
D2
330
17
100
AcDbEntity
  8
IE-WIRE
 62
4
 48
25.39999961853027
100
AcDbLine
 10
2227.161066024888
 20
2403.07918042488
 30
0.0
 11
2474.8957330163976
 21
2403.079180424944
 31
0.0
  0
LINE
  5
D3
330
17
100
AcDbEntity
  8
IE-WIRE
 62
4
 48
25.39999961853027
100
AcDbLine
 10
2227.161066024888
 20
2403.0791804248765
 30
0.0
 11
2474.8957330163976
 21
2403.07918042494
 31
0.0
  0
LINE
  5
D4
330
17
100
AcDbEntity
  8
IE-WIRE
 62
4
 48
25.39999961853027
100
AcDbLine
 10
2227.161066024888
 20
2341.2438177863532
 30
0.0
 11
2474.8957330163976
 21
2341.243817786416
 31
0.0
  0
LINE
  5
D5
330
17
100
AcDbEntity
  8
IE-WIRE
 62
4
 48
25.39999961853027
100
AcDbLine
 10
2227.161066024888
 20
2341.2438177863496
 30
0.0
 11
2474.8957330163976
 21
2341.2438177864133
 31
0.0
  0
LINE
  5
D6
330
17
100
AcDbEntity
  8
IE-WIRE
 62
4
 48
25.39999961853027
100
AcDbLine
 10
2227.161066024888
 20
2279.408455147828
 30
0.0
 11
2474.8957330163976
 21
2279.4084551478936
 31
0.0
  0
LINE
  5
D7
330
17
100
AcDbEntity
  8
IE-WIRE
 62
4
 48
25.39999961853027
100
AcDbLine
 10
2227.161066024888
 20
2279.4084551478263
 30
0.0
 11
2474.8957330163976
 21
2279.408455147889
 31
0.0
  0
LINE
  5
D8
330
17
100
AcDbEntity
  8
IE-WIRE
 62
4
 48
25.39999961853027
100
AcDbLine
 10
2227.161066024888
 20
2217.5730925093067
 30
0.0
 11
2474.8957330163976
 21
2217.5730925093685
 31
0.0
  0
LINE
  5
D9
330
17
100
AcDbEntity
  8
IE-WIRE
 62
4
 48
25.39999961853027
100
AcDbLine
 10
2227.161066024888
 20
2217.573092509303
 30
0.0
 11
2474.8957330163976
 21
2217.573092509366
 31
0.0
  0
LINE
  5
DA
330
17
100
AcDbEntity
  8
IE-WIRE
 62
4
 48
25.39999961853027
100
AcDbLine
 10
2227.161066024888
 20
2155.737729870779
 30
0.0
 11
2474.8957330163976
 21
2155.7377298708416
 31
0.0
  0
LINE
  5
DB
330
17
100
AcDbEntity
  8
IE-WIRE
 62
4
 48
25.39999961853027
100
AcDbLine
 10
2227.161066024888
 20
2155.737729870775
 30
0.0
 11
2474.8957330163976
 21
2155.737729870838
 31
0.0
  0
TEXT
  5
DC
330
17
100
AcDbEntity
  8
0
 62
4
100
AcDbText
 10
2238.938136377308
 20
2429.9791513934324
 30
0.0
 40
9.948672000000002
  1
IS-JB612-TBDI21-1A/P4-SIDI2-M1-1
  7
Tahoma
100
AcDbText
  0
INSERT
  5
DD
330
17
100
AcDbEntity
  8
0
100
AcDbBlockReference
 66
1
  2
xTermSingleLayer02
 10
2474.8957330163976
 20
2433.996861744201
 30
0.0
 41
0.0384
 42
0.0384
 43
0.0384
  0
ATTRIB
  5
DE
330
DD
100
AcDbEntity
  8
0
100
AcDbText
 10
2500.2970108806676
 20
2419.1426183911535
 30
0.0
 40
8.160000000000002
  1
1A
100
AcDbAttribute
  2
TERMINAL_B
 70
0
280
1
  0
SEQEND
  5
DF
330
DD
100
AcDbEntity
  8
0
  0
TEXT
  5
E0
330
17
100
AcDbEntity
  8
0
 62
4
100
AcDbText
 10
2497.9508103273474
 20
2441.099944589707
 30
0.0
 40
9.948672000000002
  1
IS-JB612-TBDI21
  7
Tahoma
 72
1
 11
2550.0627426738884
 21
2446.074280589707
 31
0.0
100
AcDbText
 73
2
  0
INSERT
  5
E1
330
17
100
AcDbEntity
  8
0
100
AcDbBlockReference
 66
1
  2
xTermSingleLayer02
 10
2474.8957330163976
 20
2413.385074198027
 30
0.0
 41
0.0384
 42
0.0384
 43
0.0384
  0
ATTRIB
  5
E2
330
E1
100
AcDbEntity
  8
0
100
AcDbText
 10
2500.2970108806676
 20
2398.5308308449803
 30
0.0
 40
8.160000000000002
  1
1B
100
AcDbAttribute
  2
TERMINAL_B
 70
0
280
1
  0
SEQEND
  5
E3
330
E1
100
AcDbEntity
  8
0
  0
INSERT
  5
E4
330
17
100
AcDbEntity
  8
0
100
AcDbBlockReference
 66
1
  2
xTermSingleLayer02
 10
2474.8957330163976
 20
2392.773286651852
 30
0.0
 41
0.0384
 42
0.0384
 43
0.0384
  0
ATTRIB
  5
E5
330
E4
100
AcDbEntity
  8
0
100
AcDbText
 10
2500.2970108806676
 20
2377.919043298806
 30
0.0
 40
8.160000000000002
  1
xB
100
AcDbAttribute
  2
TERMINAL_B
 70
0
280
1
  0
SEQEND
  5
E6
330
E4
100
AcDbEntity
  8
0
  0
INSERT
  5
E7
330
17
100
AcDbEntity
  8
0
100
AcDbBlockReference
 66
1
  2
xTermSingleLayer02
 10
2474.8957330163976
 20
2372.1614991056776
 30
0.0
 41
0.0384
 42
0.0384
 43
0.0384
  0
ATTRIB
  5
E8
330
E7
100
AcDbEntity
  8
0
100
AcDbText
 10
2500.2970108806676
 20
2357.30725575263
 30
0.0
 40
8.160000000000002
  1
xB
100
AcDbAttribute
  2
TERMINAL_B
 70
0
280
1
  0
SEQEND
  5
E9
330
E7
100
AcDbEntity
  8
0
  0
INSERT
  5
EA
330
17
100
AcDbEntity
  8
0
100
AcDbBlockReference
 66
1
  2
xTermSingleLayer02
 10
2474.8957330163976
 20
2351.5497115595035
 30
0.0
 41
0.0384
 42
0.0384
 43
0.0384
  0
ATTRIB
  5
EB
330
EA
100
AcDbEntity
  8
0
100
AcDbText
 10
2500.2970108806676
 20
2336.695468206456
 30
0.0
 40
8.160000000000002
  1
xB
100
AcDbAttribute
  2
TERMINAL_B
 70
0
280
1
  0
SEQEND
  5
EC
330
EA
100
AcDbEntity
  8
0
  0
INSERT
  5
ED
330
17
100
AcDbEntity
  8
0
100
AcDbBlockReference
 66
1
  2
xTermSingleLayer02
 10
2474.8957330163976
 20
2330.9379240133294
 30
0.0
 41
0.0384
 42
0.0384
 43
0.0384
  0
ATTRIB
  5
EE
330
ED
100
AcDbEntity
  8
0
100
AcDbText
 10
2500.2970108806676
 20
2316.083680660282
 30
0.0
 40
8.160000000000002
  1
xB
100
AcDbAttribute
  2
TERMINAL_B
 70
0
280
1
  0
SEQEND
  5
EF
330
ED
100
AcDbEntity
  8
0
  0
INSERT
  5
F0
330
17
100
AcDbEntity
  8
0
100
AcDbBlockReference
 66
1
  2
xTermSingleLayer02
 10
2474.8957330163976
 20
2310.3261364671544
 30
0.0
 41
0.0384
 42
0.0384
 43
0.0384
  0
ATTRIB
  5
F1
330
F0
100
AcDbEntity
  8
0
100
AcDbText
 10
2500.2970108806676
 20
2295.471893114107
 30
0.0
 40
8.160000000000002
  1
xB
100
AcDbAttribute
  2
TERMINAL_B
 70
0
280
1
  0
SEQEND
  5
F2
330
F0
100
AcDbEntity
  8
0
  0
INSERT
  5
F3
330
17
100
AcDbEntity
  8
0
100
AcDbBlockReference
 66
1
  2
xTermSingleLayer02
 10
2474.8957330163976
 20
2289.7143489209793
 30
0.0
 41
0.0384
 42
0.0384
 43
0.0384
  0
ATTRIB
  5
F4
330
F3
100
AcDbEntity
  8
0
100
AcDbText
 10
2500.2970108806676
 20
2274.860105567932
 30
0.0
 40
8.160000000000002
  1
xB
100
AcDbAttribute
  2
TERMINAL_B
 70
0
280
1
  0
SEQEND
  5
F5
330
F3
100
AcDbEntity
  8
0
  0
INSERT
  5
F6
330
17
100
AcDbEntity
  8
0
100
AcDbBlockReference
 66
1
  2
xTermSingleLayer02
 10
2474.8957330163976
 20
2269.102561374806
 30
0.0
 41
0.0384
 42
0.0384
 43
0.0384
  0
ATTRIB
  5
F7
330
F6
100
AcDbEntity
  8
0
100
AcDbText
 10
2500.2970108806676
 20
2254.2483180217587
 30
0.0
 40
8.160000000000002
  1
xB
100
AcDbAttribute
  2
TERMINAL_B
 70
0
280
1
  0
SEQEND
  5
F8
330
F6
100
AcDbEntity
  8
0
  0
INSERT
  5
F9
330
17
100
AcDbEntity
  8
0
100
AcDbBlockReference
 66
1
  2
xTermSingleLayer02
 10
2474.8957330163976
 20
2248.490773828632
 30
0.0
 41
0.0384
 42
0.0384
 43
0.0384
  0
ATTRIB
  5
FA
330
F9
100
AcDbEntity
  8
0
100
AcDbText
 10
2500.2970108806676
 20
2233.6365304755836
 30
0.0
 40
8.160000000000002
  1
xB
100
AcDbAttribute
  2
TERMINAL_B
 70
0
280
1
  0
SEQEND
  5
FB
330
F9
100
AcDbEntity
  8
0
  0
INSERT
  5
FC
330
17
100
AcDbEntity
  8
0
100
AcDbBlockReference
 66
1
  2
xTermSingleLayer02
 10
2474.8957330163976
 20
2227.878986282457
 30
0.0
 41
0.0384
 42
0.0384
 43
0.0384
  0
ATTRIB
  5
FD
330
FC
100
AcDbEntity
  8
0
100
AcDbText
 10
2500.2970108806676
 20
2213.0247429294095
 30
0.0
 40
8.160000000000002
  1
xB
100
AcDbAttribute
  2
TERMINAL_B
 70
0
280
1
  0
SEQEND
  5
FE
330
FC
100
AcDbEntity
  8
0
  0
INSERT
  5
FF
330
17
100
AcDbEntity
  8
0
100
AcDbBlockReference
 66
1
  2
xTermSingleLayer02
 10
2474.8957330163976
 20
2207.267198736283
 30
0.0
 41
0.0384
 42
0.0384
 43
0.0384
  0
ATTRIB
  5
100
330
FF
100
AcDbEntity
  8
0
100
AcDbText
 10
2500.2970108806676
 20
2192.4129553832354
 30
0.0
 40
8.160000000000002
  1
xB
100
AcDbAttribute
  2
TERMINAL_B
 70
0
280
1
  0
SEQEND
  5
101
330
FF
100
AcDbEntity
  8
0
  0
INSERT
  5
102
330
17
100
AcDbEntity
  8
0
100
AcDbBlockReference
 66
1
  2
xTermSingleLayer02
 10
2474.8957330163976
 20
2186.6554111901078
 30
0.0
 41
0.0384
 42
0.0384
 43
0.0384
  0
ATTRIB
  5
103
330
102
100
AcDbEntity
  8
0
100
AcDbText
 10
2500.2970108806676
 20
2171.8011678370603
 30
0.0
 40
8.160000000000002
  1
xB
100
AcDbAttribute
  2
TERMINAL_B
 70
0
280
1
  0
SEQEND
  5
104
330
102
100
AcDbEntity
  8
0
  0
INSERT
  5
105
330
17
100
AcDbEntity
  8
0
100
AcDbBlockReference
 66
1
  2
xTermSingleLayer02
 10
2474.8957330163976
 20
2166.0436236439346
 30
0.0
 41
0.0384
 42
0.0384
 43
0.0384
  0
ATTRIB
  5
106
330
105
100
AcDbEntity
  8
0
100
AcDbText
 10
2500.2970108806676
 20
2151.189380290886
 30
0.0
 40
8.160000000000002
  1
xB
100
AcDbAttribute
  2
TERMINAL_B
 70
0
280
1
  0
SEQEND
  5
107
330
105
100
AcDbEntity
  8
0
  0
INSERT
  5
108
330
17
100
AcDbEntity
  8
0
100
AcDbBlockReference
 66
1
  2
xTermSingleLayer02
 10
2474.8957330163976
 20
2145.4318360977595
 30
0.0
 41
0.0384
 42
0.0384
 43
0.0384
  0
ATTRIB
  5
109
330
108
100
AcDbEntity
  8
0
100
AcDbText
 10
2500.2970108806676
 20
2130.577592744712
 30
0.0
 40
8.160000000000002
  1
xB
100
AcDbAttribute
  2
TERMINAL_B
 70
0
280
1
  0
SEQEND
  5
10A
330
108
100
AcDbEntity
  8
0
  0
INSERT
  5
10B
330
17
100
AcDbEntity
  8
0
100
AcDbBlockReference
 66
1
  2
xTermSingleLayer02
 10
2474.8957330163976
 20
2124.8200485515863
 30
0.0
 41
0.0384
 42
0.0384
 43
0.0384
  0
ATTRIB
  5
10C
330
10B
100
AcDbEntity
  8
0
100
AcDbText
 10
2500.2970108806676
 20
2109.965805198537
 30
0.0
 40
8.160000000000002
  1
xB
100
AcDbAttribute
  2
TERMINAL_B
 70
0
280
1
  0
SEQEND
  5
10D
330
10B
100
AcDbEntity
  8
0
  0
LINE
  5
10E
330
17
100
AcDbEntity
  8
IE-WIRE
 62
4
 48
25.39999961853027
100
AcDbLine
 10
2227.161066024888
 20
2093.902367232272
 30
0.0
 11
2474.8957330163976
 21
2093.9023672323347
 31
0.0
  0
LINE
  5
10F
330
17
100
AcDbEntity
  8
IE-WIRE
 62
4
 48
25.39999961853027
100
AcDbLine
 10
2227.161066024888
 20
2093.9023672322674
 30
0.0
 11
2474.8957330163976
 21
2093.902367232331
 31
0.0
  0
LINE
  5
110
330
17
100
AcDbEntity
  8
IE-WIRE
 62
4
 48
25.39999961853027
100
AcDbLine
 10
2227.161066024888
 20
2032.0670045937413
 30
0.0
 11
2474.8957330163976
 21
2032.0670045938032
 31
0.0
  0
LINE
  5
111
330
17
100
AcDbEntity
  8
IE-WIRE
 62
4
 48
25.39999961853027
100
AcDbLine
 10
2227.161066024888
 20
2032.0670045937368
 30
0.0
 11
2474.8957330163976
 21
2032.0670045937995
 31
0.0
  0
LINE
  5
112
330
17
100
AcDbEntity
  8
IE-WIRE
 62
4
 48
25.39999961853027
100
AcDbLine
 10
2227.161066024888
 20
1970.2316419552171
 30
0.0
 11
2474.8957330163976
 21
1970.2316419552799
 31
0.0
  0
LINE
  5
113
330
17
100
AcDbEntity
  8
IE-WIRE
 62
4
 48
25.39999961853027
100
AcDbLine
 10
2227.161066024888
 20
1970.2316419552144
 30
0.0
 11
2474.8957330163976
 21
1970.2316419552762
 31
0.0
  0
LINE
  5
114
330
17
100
AcDbEntity
  8
IE-WIRE
 62
4
 48
25.39999961853027
100
AcDbLine
 10
2227.161066024888
 20
1908.3962793166902
 30
0.0
 11
2474.8957330163976
 21
1908.3962793167539
 31
0.0
  0
LINE
  5
115
330
17
100
AcDbEntity
  8
IE-WIRE
 62
4
 48
25.39999961853027
100
AcDbLine
 10
2227.161066024888
 20
1908.3962793166866
 30
0.0
 11
2474.8957330163976
 21
1908.3962793167493
 31
0.0
  0
LINE
  5
116
330
17
100
AcDbEntity
  8
IE-WIRE
 62
4
 48
25.39999961853027
100
AcDbLine
 10
2227.161066024888
 20
1846.560916678166
 30
0.0
 11
2474.8957330163976
 21
1846.5609166782288
 31
0.0
  0
LINE
  5
117
330
17
100
AcDbEntity
  8
IE-WIRE
 62
4
 48
25.39999961853027
100
AcDbLine
 10
2227.161066024888
 20
1846.5609166781605
 30
0.0
 11
2474.8957330163976
 21
1846.560916678225
 31
0.0
  0
LINE
  5
118
330
17
100
AcDbEntity
  8
IE-WIRE
 62
4
 48
25.39999961853027
100
AcDbLine
 10
2227.161066024888
 20
1784.7255540396418
 30
0.0
 11
2474.8957330163976
 21
1784.7255540397045
 31
0.0
  0
LINE
  5
119
330
17
100
AcDbEntity
  8
IE-WIRE
 62
4
 48
25.39999961853027
100
AcDbLine
 10
2227.161066024888
 20
1784.725554039639
 30
0.0
 11
2474.8957330163976
 21
1784.7255540397018
 31
0.0
  0
LINE
  5
11A
330
17
100
AcDbEntity
  8
IE-WIRE
 62
4
 48
25.39999961853027
100
AcDbLine
 10
2227.161066024888
 20
2052.67879213992
 30
0.0
 11
2474.8957330163976
 21
2052.6787921399828
 31
0.0
  0
LINE
  5
11B
330
17
100
AcDbEntity
  8
IE-WIRE
 62
4
 48
25.39999961853027
100
AcDbLine
 10
2227.161066024888
 20
2052.6787921399164
 30
0.0
 11
2474.8957330163976
 21
2052.67879213998
 31
0.0
  0
LINE
  5
11C
330
17
100
AcDbEntity
  8
IE-WIRE
 62
4
 48
25.39999961853027
100
AcDbLine
 10
2227.161066024888
 20
1990.8434295013922
 30
0.0
 11
2474.8957330163976
 21
1990.8434295014567
 31
0.0
  0
LINE
  5
11D
330
17
100
AcDbEntity
  8
IE-WIRE
 62
4
 48
25.39999961853027
100
AcDbLine
 10
2227.161066024888
 20
1990.8434295013885
 30
0.0
 11
2474.8957330163976
 21
1990.8434295014522
 31
0.0
  0
LINE
  5
11E
330
17
100
AcDbEntity
  8
IE-WIRE
 62
4
 48
25.39999961853027
100
AcDbLine
 10
2227.161066024888
 20
1929.0080668628689
 30
0.0
 11
2474.8957330163976
 21
1929.0080668629325
 31
0.0
  0
LINE
  5
11F
330
17
100
AcDbEntity
  8
IE-WIRE
 62
4
 48
25.39999961853027
100
AcDbLine
 10
2227.161066024888
 20
1929.0080668628661
 30
0.0
 11
2474.8957330163976
 21
1929.008066862928
 31
0.0
  0
LINE
  5
120
330
17
100
AcDbEntity
  8
IE-WIRE
 62
4
 48
25.39999961853027
100
AcDbLine
 10
2227.161066024888
 20
1867.172704224342
 30
0.0
 11
2474.8957330163976
 21
1867.1727042244047
 31
0.0
  0
LINE
  5
121
330
17
100
AcDbEntity
  8
IE-WIRE
 62
4
 48
25.39999961853027
100
AcDbLine
 10
2227.161066024888
 20
1867.1727042243383
 30
0.0
 11
2474.8957330163976
 21
1867.172704224402
 31
0.0
  0
LINE
  5
122
330
17
100
AcDbEntity
  8
IE-WIRE
 62
4
 48
25.39999961853027
100
AcDbLine
 10
2227.161066024888
 20
1805.3373415858177
 30
0.0
 11
2474.8957330163976
 21
1805.3373415858823
 31
0.0
  0
LINE
  5
123
330
17
100
AcDbEntity
  8
IE-WIRE
 62
4
 48
25.39999961853027
100
AcDbLine
 10
2227.161066024888
 20
1805.337341585815
 30
0.0
 11
2474.8957330163976
 21
1805.3373415858778
 31
0.0
  0
LINE
  5
124
330
17
100
AcDbEntity
  8
IE-WIRE
 62
4
 48
25.39999961853027
100
AcDbLine
 10
2227.161066024888
 20
2073.290579686097
 30
0.0
 11
2474.8957330163976
 21
2073.2905796861605
 31
0.0
  0
LINE
  5
125
330
17
100
AcDbEntity
  8
IE-WIRE
 62
4
 48
25.39999961853027
100
AcDbLine
 10
2227.161066024888
 20
2073.290579686094
 30
0.0
 11
2474.8957330163976
 21
2073.290579686157
 31
0.0
  0
LINE
  5
126
330
17
100
AcDbEntity
  8
IE-WIRE
 62
4
 48
25.39999961853027
100
AcDbLine
 10
2227.161066024888
 20
2011.4552170475708
 30
0.0
 11
2474.8957330163976
 21
2011.4552170476345
 31
0.0
  0
LINE
  5
127
330
17
100
AcDbEntity
  8
IE-WIRE
 62
4
 48
25.39999961853027
100
AcDbLine
 10
2227.161066024888
 20
2011.4552170475672
 30
0.0
 11
2474.8957330163976
 21
2011.4552170476309
 31
0.0
  0
LINE
  5
128
330
17
100
AcDbEntity
  8
IE-WIRE
 62
4
 48
25.39999961853027
100
AcDbLine
 10
2227.161066024888
 20
1949.6198544090475
 30
0.0
 11
2474.8957330163976
 21
1949.6198544091103
 31
0.0
  0
LINE
  5
129
330
17
100
AcDbEntity
  8
IE-WIRE
 62
4
 48
25.39999961853027
100
AcDbLine
 10
2227.161066024888
 20
1949.619854409043
 30
0.0
 11
2474.8957330163976
 21
1949.6198544091067
 31
0.0
  0
LINE
  5
12A
330
17
100
AcDbEntity
  8
IE-WIRE
 62
4
 48
25.39999961853027
100
AcDbLine
 10
2227.161066024888
 20
1887.7844917705215
 30
0.0
 11
2474.8957330163976
 21
1887.784491770586
 31
0.0
  0
LINE
  5
12B
330
17
100
AcDbEntity
  8
IE-WIRE
 62
4
 48
25.39999961853027
100
AcDbLine
 10
2227.161066024888
 20
1887.7844917705197
 30
0.0
 11
2474.8957330163976
 21
1887.7844917705834
 31
0.0
  0
LINE
  5
12C
330
17
100
AcDbEntity
  8
IE-WIRE
 62
4
 48
25.39999961853027
100
AcDbLine
 10
2227.161066024888
 20
1825.9491291319955
 30
0.0
 11
2474.8957330163976
 21
1825.9491291320592
 31
0.0
  0
LINE
  5
12D
330
17
100
AcDbEntity
  8
IE-WIRE
 62
4
 48
25.39999961853027
100
AcDbLine
 10
2227.161066024888
 20
1825.9491291319928
 30
0.0
 11
2474.8957330163976
 21
1825.9491291320555
 31
0.0
  0
INSERT
  5
12E
330
17
100
AcDbEntity
  8
0
100
AcDbBlockReference
 66
1
  2
xTermSingleLayer02
 10
2474.8957330163976
 20
2104.2082610054085
 30
0.0
 41
0.0384
 42
0.0384
 43
0.0384
  0
ATTRIB
  5
12F
330
12E
100
AcDbEntity
  8
0
100
AcDbText
 10
2500.2970108806676
 20
2089.354017652363
 30
0.0
 40
8.160000000000002
  1
xB
100
AcDbAttribute
  2
TERMINAL_B
 70
0
280
1
  0
SEQEND
  5
130
330
12E
100
AcDbEntity
  8
0
  0
INSERT
  5
131
330
17
100
AcDbEntity
  8
0
100
AcDbBlockReference
 66
1
  2
xTermSingleLayer02
 10
2474.8957330163976
 20
2083.596473459236
 30
0.0
 41
0.0384
 42
0.0384
 43
0.0384
  0
ATTRIB
  5
132
330
131
100
AcDbEntity
  8
0
100
AcDbText
 10
2500.2970108806676
 20
2068.742230106188
 30
0.0
 40
8.160000000000002
  1
xB
100
AcDbAttribute
  2
TERMINAL_B
 70
0
280
1
  0
SEQEND
  5
133
330
131
100
AcDbEntity
  8
0
  0
INSERT
  5
134
330
17
100
AcDbEntity
  8
0
100
AcDbBlockReference
 66
1
  2
xTermSingleLayer02
 10
2474.8957330163976
 20
2062.984685913062
 30
0.0
 41
0.0384
 42
0.0384
 43
0.0384
  0
ATTRIB
  5
135
330
134
100
AcDbEntity
  8
0
100
AcDbText
 10
2500.2970108806676
 20
2048.1304425600138
 30
0.0
 40
8.160000000000002
  1
xB
100
AcDbAttribute
  2
TERMINAL_B
 70
0
280
1
  0
SEQEND
  5
136
330
134
100
AcDbEntity
  8
0
  0
INSERT
  5
137
330
17
100
AcDbEntity
  8
0
100
AcDbBlockReference
 66
1
  2
xTermSingleLayer02
 10
2474.8957330163976
 20
2042.372898366887
 30
0.0
 41
0.0384
 42
0.0384
 43
0.0384
  0
ATTRIB
  5
138
330
137
100
AcDbEntity
  8
0
100
AcDbText
 10
2500.2970108806676
 20
2027.5186550138405
 30
0.0
 40
8.160000000000002
  1
xB
100
AcDbAttribute
  2
TERMINAL_B
 70
0
280
1
  0
SEQEND
  5
139
330
137
100
AcDbEntity
  8
0
  0
INSERT
  5
13A
330
17
100
AcDbEntity
  8
0
100
AcDbBlockReference
 66
1
  2
xTermSingleLayer02
 10
2474.8957330163976
 20
2021.761110820713
 30
0.0
 41
0.0384
 42
0.0384
 43
0.0384
  0
ATTRIB
  5
13B
330
13A
100
AcDbEntity
  8
0
100
AcDbText
 10
2500.2970108806676
 20
2006.9068674676655
 30
0.0
 40
8.160000000000002
  1
xB
100
AcDbAttribute
  2
TERMINAL_B
 70
0
280
1
  0
SEQEND
  5
13C
330
13A
100
AcDbEntity
  8
0
  0
INSERT
  5
13D
330
17
100
AcDbEntity
  8
0
100
AcDbBlockReference
 66
1
  2
xTermSingleLayer02
 10
2474.8957330163976
 20
2001.1493232745388
 30
0.0
 41
0.0384
 42
0.0384
 43
0.0384
  0
ATTRIB
  5
13E
330
13D
100
AcDbEntity
  8
0
100
AcDbText
 10
2500.2970108806676
 20
1986.2950799214914
 30
0.0
 40
8.160000000000002
  1
xB
100
AcDbAttribute
  2
TERMINAL_B
 70
0
280
1
  0
SEQEND
  5
13F
330
13D
100
AcDbEntity
  8
0
  0
INSERT
  5
140
330
17
100
AcDbEntity
  8
0
100
AcDbBlockReference
 66
1
  2
xTermSingleLayer02
 10
2474.8957330163976
 20
1980.5375357283638
 30
0.0
 41
0.0384
 42
0.0384
 43
0.0384
  0
ATTRIB
  5
141
330
140
100
AcDbEntity
  8
0
100
AcDbText
 10
2500.2970108806676
 20
1965.6832923753145
 30
0.0
 40
8.160000000000002
  1
xB
100
AcDbAttribute
  2
TERMINAL_B
 70
0
280
1
  0
SEQEND
  5
142
330
140
100
AcDbEntity
  8
0
  0
INSERT
  5
143
330
17
100
AcDbEntity
  8
0
100
AcDbBlockReference
 66
1
  2
xTermSingleLayer02
 10
2474.8957330163976
 20
1959.9257481821896
 30
0.0
 41
0.0384
 42
0.0384
 43
0.0384
  0
ATTRIB
  5
144
330
143
100
AcDbEntity
  8
0
100
AcDbText
 10
2500.2970108806676
 20
1945.0715048291422
 30
0.0
 40
8.160000000000002
  1
xB
100
AcDbAttribute
  2
TERMINAL_B
 70
0
280
1
  0
SEQEND
  5
145
330
143
100
AcDbEntity
  8
0
  0
INSERT
  5
146
330
17
100
AcDbEntity
  8
0
100
AcDbBlockReference
 66
1
  2
xTermSingleLayer02
 10
2474.8957330163976
 20
1939.3139606360146
 30
0.0
 41
0.0384
 42
0.0384
 43
0.0384
  0
ATTRIB
  5
147
330
146
100
AcDbEntity
  8
0
100
AcDbText
 10
2500.2970108806676
 20
1924.4597172829672
 30
0.0
 40
8.160000000000002
  1
xB
100
AcDbAttribute
  2
TERMINAL_B
 70
0
280
1
  0
SEQEND
  5
148
330
146
100
AcDbEntity
  8
0
  0
INSERT
  5
149
330
17
100
AcDbEntity
  8
0
100
AcDbBlockReference
 66
1
  2
xTermSingleLayer02
 10
2474.8957330163976
 20
1918.7021730898414
 30
0.0
 41
0.0384
 42
0.0384
 43
0.0384
  0
ATTRIB
  5
14A
330
149
100
AcDbEntity
  8
0
100
AcDbText
 10
2500.2970108806676
 20
1903.847929736793
 30
0.0
 40
8.160000000000002
  1
xB
100
AcDbAttribute
  2
TERMINAL_B
 70
0
280
1
  0
SEQEND
  5
14B
330
149
100
AcDbEntity
  8
0
  0
INSERT
  5
14C
330
17
100
AcDbEntity
  8
0
100
AcDbBlockReference
 66
1
  2
xTermSingleLayer02
 10
2474.8957330163976
 20
1898.0903855436673
 30
0.0
 41
0.0384
 42
0.0384
 43
0.0384
  0
ATTRIB
  5
14D
330
14C
100
AcDbEntity
  8
0
100
AcDbText
 10
2500.2970108806676
 20
1883.236142190619
 30
0.0
 40
8.160000000000002
  1
xB
100
AcDbAttribute
  2
TERMINAL_B
 70
0
280
1
  0
SEQEND
  5
14E
330
14C
100
AcDbEntity
  8
0
  0
INSERT
  5
14F
330
17
100
AcDbEntity
  8
0
100
AcDbBlockReference
 66
1
  2
xTermSingleLayer02
 10
2474.8957330163976
 20
1877.4785979974922
 30
0.0
 41
0.0384
 42
0.0384
 43
0.0384
  0
ATTRIB
  5
150
330
14F
100
AcDbEntity
  8
0
100
AcDbText
 10
2500.2970108806676
 20
1862.6243546444439
 30
0.0
 40
8.160000000000002
  1
xB
100
AcDbAttribute
  2
TERMINAL_B
 70
0
280
1
  0
SEQEND
  5
151
330
14F
100
AcDbEntity
  8
0
  0
INSERT
  5
152
330
17
100
AcDbEntity
  8
0
100
AcDbBlockReference
 66
1
  2
xTermSingleLayer02
 10
2474.8957330163976
 20
1856.8668104513172
 30
0.0
 41
0.0384
 42
0.0384
 43
0.0384
  0
ATTRIB
  5
153
330
152
100
AcDbEntity
  8
0
100
AcDbText
 10
2500.2970108806676
 20
1842.0125670982698
 30
0.0
 40
8.160000000000002
  1
xB
100
AcDbAttribute
  2
TERMINAL_B
 70
0
280
1
  0
SEQEND
  5
154
330
152
100
AcDbEntity
  8
0
  0
INSERT
  5
155
330
17
100
AcDbEntity
  8
0
100
AcDbBlockReference
 66
1
  2
xTermSingleLayer02
 10
2474.8957330163976
 20
1836.255022905143
 30
0.0
 41
0.0384
 42
0.0384
 43
0.0384
  0
ATTRIB
  5
156
330
155
100
AcDbEntity
  8
0
100
AcDbText
 10
2500.2970108806676
 20
1821.4007795520956
 30
0.0
 40
8.160000000000002
  1
xB
100
AcDbAttribute
  2
TERMINAL_B
 70
0
280
1
  0
SEQEND
  5
157
330
155
100
AcDbEntity
  8
0
  0
INSERT
  5
158
330
17
100
AcDbEntity
  8
0
100
AcDbBlockReference
 66
1
  2
xTermSingleLayer02
 10
2474.8957330163976
 20
1815.643235358969
 30
0.0
 41
0.0384
 42
0.0384
 43
0.0384
  0
ATTRIB
  5
159
330
158
100
AcDbEntity
  8
0
100
AcDbText
 10
2500.2970108806676
 20
1800.7889920059206
 30
0.0
 40
8.160000000000002
  1
xB
100
AcDbAttribute
  2
TERMINAL_B
 70
0
280
1
  0
SEQEND
  5
15A
330
158
100
AcDbEntity
  8
0
  0
INSERT
  5
15B
330
17
100
AcDbEntity
  8
0
100
AcDbBlockReference
 66
1
  2
xTermSingleLayer02
 10
2474.8957330163976
 20
1795.0314478127939
 30
0.0
 41
0.0384
 42
0.0384
 43
0.0384
  0
ATTRIB
  5
15C
330
15B
100
AcDbEntity
  8
0
100
AcDbText
 10
2500.2970108806676
 20
1780.1772044597474
 30
0.0
 40
8.160000000000002
  1
xB
100
AcDbAttribute
  2
TERMINAL_B
 70
0
280
1
  0
SEQEND
  5
15D
330
15B
100
AcDbEntity
  8
0
  0
LINE
  5
15E
330
17
100
AcDbEntity
  8
IE-WIRE
 62
7
 48
25.39999961853027
100
AcDbLine
 10
1232.444712867662
 20
1637.1931001533658
 30
0.0
 11
203.42516553412497
 21
1637.1931001533658
 31
0.0
  0
LINE
  5
15F
330
17
100
AcDbEntity
  8
IE-WIRE
 62
4
100
AcDbLine
 10
2052.455503984407
 20
999.138930088593
 30
0.0
 11
2210.0218660248884
 21
999.138930088593
 31
0.0
  0
LINE
  5
160
330
17
100
AcDbEntity
  8
IE-WIRE
 62
4
 48
25.39999961853027
100
AcDbLine
 10
2218.0218660248884
 20
2414.551767971052
 30
0.0
 11
2218.0218660248884
 21
1007.138930088594
 31
0.0
  0
LINE
  5
161
330
17
100
AcDbEntity
  8
x01001-FrameArea
100
AcDbLine
 10
2118.1607723313973
 20
2561.5313463750717
 30
0.0
 11
2118.1607723313973
 21
475.02071715290595
 31
0.0
  0
LINE
  5
162
330
17
100
AcDbEntity
  8
x01001-FrameArea
100
AcDbLine
 10
2741.311142848268
 20
2561.5313463750717
 30
0.0
 11
2741.311142848268
 21
475.02071715290595
 31
0.0
  0
TEXT
  5
163
330
17
100
AcDbEntity
  8
0
 62
2
100
AcDbText
 10
1001.5250683640479
 20
2500.802931473335
 30
0.0
 40
32.0
  1
=CA4+MCP-M4-P2
  7
Tahoma
 72
1
 11
1183.3813477461827
 21
2516.802931473335
 31
0.0
100
AcDbText
 73
2
  0
TEXT
  5
164
330
17
100
AcDbEntity
  8
0
 62
2
100
AcDbText
 10
2327.022870336088
 20
2500.802931473335
 30
0.0
 40
32.0
  1
=IS-JB-612
  7
Tahoma
 72
1
 11
2437.6689415248075
 21
2516.802931473335
 31
0.0
100
AcDbText
 73
2
  0
TEXT
  5
165
330
17
100
AcDbEntity
  8
0
 62
2
100
AcDbText
 10
3282.1508093733773
 20
2500.802931473335
 30
0.0
 40
32.0
  1
=IS-JB-612
  7
Tahoma
 72
1
 11
3392.7968805620876
 21
2516.802931473335
 31
0.0
100
AcDbText
 73
2
  0
LINE
  5
166
330
17
100
AcDbEntity
  8
MEMBER
 62
4
100
AcDbLine
 10
3198.068732587857
 20
196.58293558645573
 30
0.0
 11
3893.3010657592076
 21
196.58293558645573
 31
0.0
  0
LINE
  5
167
330
17
100
AcDbEntity
  8
MEMBER
 62
4
100
AcDbLine
 10
3198.068732587857
 20
56.09811575745698
 30
0.0
 11
3893.3010657592076
 21
56.09811575745698
 31
0.0
  0
LINE
  5
168
330
17
100
AcDbEntity
  8
MEMBER
 62
4
370
35
100
AcDbLine
 10
5.820766091346741e-11
 20
288.161844599701
 30
0.0
 11
3893.3010657592076
 21
288.161844599701
 31
0.0
  0
LINE
  5
169
330
17
100
AcDbEntity
  8
HELPPOINT
 62
4
370
35
100
AcDbLine
 10
5.820766091346741e-11
 20
5.911715561524034e-11
 30
0.0
 11
5.820766091346741e-11
 21
2704.214040749008
 31
0.0
  0
LINE
  5
16A
330
17
100
AcDbEntity
  8
HELPPOINT
 62
4
370
35
100
AcDbLine
 10
5.820766091346741e-11
 20
2704.214040749008
 30
0.0
 11
3893.3010657592076
 21
2704.214040749008
 31
0.0
  0
LINE
  5
16B
330
17
100
AcDbEntity
  8
HELPPOINT
 62
4
370
35
100
AcDbLine
 10
3893.3010657592076
 20
2704.214040749008
 30
0.0
 11
3893.3010657592076
 21
5.911715561524034e-11
 31
0.0
  0
LINE
  5
16C
330
17
100
AcDbEntity
  8
HELPPOINT
 62
4
370
35
100
AcDbLine
 10
3893.3010657592076
 20
5.911715561524034e-11
 30
0.0
 11
5.820766091346741e-11
 21
5.911715561524034e-11
 31
0.0
  0
LINE
  5
16D
330
17
100
AcDbEntity
  8
HELPPOINT
 62
4
100
AcDbLine
 10
3198.068732587857
 20
56.09811575745698
 30
0.0
 11
3893.3010657592076
 21
56.09811575745698
 31
0.0
  0
LINE
  5
16E
330
17
100
AcDbEntity
  8
HELPPOINT
 62
4
100
AcDbLine
 10
3198.068732587857
 20
196.58293558645573
 30
0.0
 11
3893.3010657592076
 21
196.58293558645573
 31
0.0
  0
LINE
  5
16F
330
17
100
AcDbEntity
  8
GT_1
 62
4
100
AcDbLine
 10
3198.068732587857
 20
5.911715561524034e-11
 30
0.0
 11
3198.068732587857
 21
288.161844599701
 31
0.0
  0
TEXT
  5
170
330
17
100
AcDbEntity
  8
GT_1
 62
4
100
AcDbText
 10
3207.963422747858
 20
266.80882021080515
 30
0.0
 40
14.25048787328728
  1
PROJECT:
  7
HTX11
100
AcDbText
  0
TEXT
  5
171
330
17
100
AcDbEntity
  8
GT_1
 62
4
100
AcDbText
 10
3207.963422747858
 20
174.42689290398312
 30
0.0
 40
14.25048787328728
  1
DRAWING:
  7
HTX11
100
AcDbText
  0
LINE
  5
172
330
17
100
AcDbEntity
  8
0
 62
4
 48
0.5
100
AcDbLine
 10
3845.8559218291175
 20
56.09811575745698
 30
0.0
 11
3845.8559218291175
 21
5.911715561524034e-11
 31
0.0
  0
LINE
  5
173
330
17
100
AcDbEntity
  8
0
 62
4
 48
0.5
100
AcDbLine
 10
3774.688205934077
 20
56.09811575745698
 30
0.0
 11
3774.688205934077
 21
5.911715561524034e-11
 31
0.0
  0
TEXT
  5
174
330
17
100
AcDbEntity
  8
MEMBER
 62
4
 48
0.8
100
AcDbText
 10
3782.695406990828
 20
37.05899445415707
 30
0.0
 40
12.00362141431238
  1
SHEET.
  7
ROMANS
100
AcDbText
  0
TEXT
  5
175
330
17
100
AcDbEntity
  8
MEMBER
 62
4
 48
0.8
100
AcDbText
 10
3852.6278684431472
 20
37.05899445415707
 30
0.0
 40
12.00362141431238
  1
REV.
  7
ROMANS
100
AcDbText
  0
LINE
  5
176
330
17
100
AcDbEntity
  8
MEMBER
 62
4
100
AcDbLine
 10
3198.068732587857
 20
196.58293558645573
 30
0.0
 11
3893.3010657592076
 21
196.58293558645573
 31
0.0
  0
LINE
  5
177
330
17
100
AcDbEntity
  8
MEMBER
 62
4
100
AcDbLine
 10
3198.068732587857
 20
56.09811575745698
 30
0.0
 11
3893.3010657592076
 21
56.09811575745698
 31
0.0
  0
LINE
  5
178
330
17
100
AcDbEntity
  8
MEMBER
 62
4
370
35
100
AcDbLine
 10
5.820766091346741e-11
 20
288.161844599701
 30
0.0
 11
3893.3010657592076
 21
288.161844599701
 31
0.0
  0
LINE
  5
179
330
17
100
AcDbEntity
  8
HELPPOINT
 62
4
370
35
100
AcDbLine
 10
5.820766091346741e-11
 20
5.911715561524034e-11
 30
0.0
 11
5.820766091346741e-11
 21
2704.214040749008
 31
0.0
  0
LINE
  5
17A
330
17
100
AcDbEntity
  8
HELPPOINT
 62
4
370
35
100
AcDbLine
 10
5.820766091346741e-11
 20
2704.214040749008
 30
0.0
 11
3893.3010657592076
 21
2704.214040749008
 31
0.0
  0
LINE
  5
17B
330
17
100
AcDbEntity
  8
HELPPOINT
 62
4
370
35
100
AcDbLine
 10
3893.3010657592076
 20
2704.214040749008
 30
0.0
 11
3893.3010657592076
 21
5.911715561524034e-11
 31
0.0
  0
LINE
  5
17C
330
17
100
AcDbEntity
  8
HELPPOINT
 62
4
370
35
100
AcDbLine
 10
3893.3010657592076
 20
5.911715561524034e-11
 30
0.0
 11
5.820766091346741e-11
 21
5.911715561524034e-11
 31
0.0
  0
LINE
  5
17D
330
17
100
AcDbEntity
  8
GT_1
 62
4
100
AcDbLine
 10
3198.068732587857
 20
56.09811575745698
 30
0.0
 11
3893.3010657592076
 21
56.09811575745698
 31
0.0
  0
LINE
  5
17E
330
17
100
AcDbEntity
  8
HELPPOINT
 62
4
100
AcDbLine
 10
3198.068732587857
 20
196.58293558645573
 30
0.0
 11
3893.3010657592076
 21
196.58293558645573
 31
0.0
  0
LINE
  5
17F
330
17
100
AcDbEntity
  8
GT_1
 62
4
100
AcDbLine
 10
3198.068732587857
 20
5.911715561524034e-11
 30
0.0
 11
3198.068732587857
 21
288.161844599701
 31
0.0
  0
LINE
  5
180
330
17
100
AcDbEntity
  8
0
 62
4
 48
0.5
100
AcDbLine
 10
3845.8559218291175
 20
56.09811575745698
 30
0.0
 11
3845.8559218291175
 21
5.911715561524034e-11
 31
0.0
  0
LINE
  5
181
330
17
100
AcDbEntity
  8
0
 62
4
 48
0.5
100
AcDbLine
 10
3774.688205934077
 20
56.09811575745698
 30
0.0
 11
3774.688205934077
 21
5.911715561524034e-11
 31
0.0
  0
LINE
  5
182
330
17
100
AcDbEntity
  8
0
 62
4
100
AcDbLine
 10
3302.3241106871283
 20
56.09801743127218
 30
0.0
 11
3302.3241106871283
 21
-0.00018485495820641518
 31
0.0
  0
TEXT
  5
183
330
17
100
AcDbEntity
  8
MEMBER
 62
4
 48
0.8
100
AcDbText
 10
3203.959242534187
 20
37.05886676104274
 30
0.0
 40
11.87540656107273
  1
SCALE:
  7
ROMANS
100
AcDbText
  0
TEXT
  5
184
330
17
100
AcDbEntity
  8
MEMBER
 62
4
 48
0.8
100
AcDbText
 10
3319.227238241938
 20
37.05886676104274
 30
0.0
 40
11.87540656107273
  1
PROJECT NO.
  7
ROMANS
100
AcDbText
  0
TEXT
  5
185
330
17
100
AcDbEntity
  8
MEMBER
 62
4
 48
0.8
100
AcDbText
 10
3482.9110124419676
 20
37.05886676104274
 30
0.0
 40
11.87540656107273
  1
DRAWING NO:
  7
ROMANS
100
AcDbText
  0
TEXT
  5
186
330
17
100
AcDbEntity
  8
MEMBER
 62
4
 48
0.8
100
AcDbText
 10
3320.4345589676577
 20
7.335958264186047
 30
0.0
 40
14.23356513362789
  1
xxxxx
  7
ROMANS
100
AcDbText
  0
TEXT
  5
187
330
17
100
AcDbEntity
  8
MEMBER
 62
4
 48
0.8
100
AcDbText
 10
3220.003416973228
 20
7.335958264186047
 30
0.0
 40
14.23356513362789
  1
NONE
  7
ROMANS
100
AcDbText
  0
LINE
  5
188
330
17
100
AcDbEntity
  8
0
 62
4
100
AcDbLine
 10
3467.5629212754975
 20
56.09801743127218
 30
0.0
 11
3467.5629212754975
 21
-0.00018485495820641518
 31
0.0
  0
TEXT
  5
189
330
17
100
AcDbEntity
  8
MEMBER
 62
4
 48
0.8
100
AcDbText
 10
1028.0207195297698
 20
13.446836132090993
 30
0.0
 40
11.87540656107273
  1
DESCRIPTION
  7
ROMANS
100
AcDbText
  0
TEXT
  5
18A
330
17
100
AcDbEntity
  8
MEMBER
 62
4
 48
0.8
100
AcDbText
 10
775.1369028742774
 20
13.446836132090993
 30
0.0
 40
11.87540656107273
  1
REV
  7
ROMANS
100
AcDbText
  0
TEXT
  5
18B
330
17
100
AcDbEntity
  8
MEMBER
 62
4
 48
0.8
100
AcDbText
 10
181.3637902425835
 20
13.446836132090993
 30
0.0
 40
11.87540656107273
  1
REFERENCE DRAWINGS
  7
ROMANS
100
AcDbText
  0
TEXT
  5
18C
330
17
100
AcDbEntity
  8
MEMBER
 62
4
 48
0.8
100
AcDbText
 10
621.5903530202922
 20
13.446836132090993
 30
0.0
 40
11.87540656107273
  1
DWG. NUMBER
  7
ROMANS
100
AcDbText
  0
TEXT
  5
18D
330
17
100
AcDbEntity
  8
MEMBER
 62
4
 48
0.8
100
AcDbText
 10
1766.6006344539983
 20
7.971882356564038
 30
0.0
 40
11.87540656107273
  1
INGREDION
  7
ROMANS
 41
0.8000000000000002
100
AcDbText
  0
TEXT
  5
18E
330
17
100
AcDbEntity
  8
MEMBER
 62
4
 48
0.8
100
AcDbText
 10
1777.4076310621476
 20
29.662908539642103
 30
0.0
 40
11.87540656107273
  1
APP'D
  7
ROMANS
100
AcDbText
  0
TEXT
  5
18F
330
17
100
AcDbEntity
  8
MEMBER
 62
4
 48
0.8
100
AcDbText
 10
1596.9238663113792
 20
5.12885831866879
 30
0.0
 40
11.87540656107273
  1
VENDOR
  7
ROMANS
100
AcDbText
  0
TEXT
  5
190
330
17
100
AcDbEntity
  8
MEMBER
 62
4
 48
0.8
100
AcDbText
 10
1696.1620612578681
 20
29.662908539642103
 30
0.0
 40
11.87540656107273
  1
APP'D
  7
ROMANS
100
AcDbText
  0
TEXT
  5
191
330
17
100
AcDbEntity
  8
MEMBER
 62
4
 48
0.8
100
AcDbText
 10
1412.8092794021359
 20
14.196706631861161
 30
0.0
 40
11.87540656107273
  1
DATE
  7
ROMANS
100
AcDbText
  0
TEXT
  5
192
330
17
100
AcDbEntity
  8
MEMBER
 62
4
 48
0.8
100
AcDbText
 10
1520.7873601142783
 20
27.265213148668863
 30
0.0
 40
11.87540656107273
  1
DRAWN
  7
ROMANS
100
AcDbText
  0
TEXT
  5
193
330
17
100
AcDbEntity
  8
MEMBER
 62
4
 48
0.8
100
AcDbText
 10
1610.590003522695
 20
28.49289434554612
 30
0.0
 40
11.87540656107273
  1
CHK'D
  7
ROMANS
100
AcDbText
  0
TEXT
  5
194
330
17
100
AcDbEntity
  8
MEMBER
 62
4
 48
0.8
100
AcDbText
 10
1863.3532964918377
 20
33.58130130870313
 30
0.0
 40
11.87540656107273
  1
DATE:
  7
ROMANS
100
AcDbText
  0
TEXT
  5
195
330
17
100
AcDbEntity
  8
MEMBER
 62
4
 48
0.8
100
AcDbText
 10
1863.3532964918377
 20
92.13950435677589
 30
0.0
 40
11.87540656107273
  1
DRAWN BY:
  7
ROMANS
100
AcDbText
  0
TEXT
  5
196
330
17
100
AcDbEntity
  8
MEMBER
 62
4
 48
0.8
100
AcDbText
 10
2057.3171783313774
 20
33.58130130870313
 30
0.0
 40
11.87540656107273
  1
DATE:
  7
ROMANS
100
AcDbText
  0
TEXT
  5
197
330
17
100
AcDbEntity
  8
MEMBER
 62
4
 48
0.8
100
AcDbText
 10
2057.3171783313774
 20
92.13950435677589
 30
0.0
 40
11.87540656107273
  1
CHECKED BY:
  7
ROMANS
100
AcDbText
  0
TEXT
  5
198
330
17
100
AcDbEntity
  8
MEMBER
 62
4
 48
0.8
100
AcDbText
 10
2252.5095505047375
 20
33.58130130870313
 30
0.0
 40
11.87540656107273
  1
DATE:
  7
ROMANS
100
AcDbText
  0
TEXT
  5
199
330
17
100
AcDbEntity
  8
MEMBER
 62
4
 48
0.8
100
AcDbText
 10
2252.5095505047375
 20
92.13950435677589
 30
0.0
 40
11.87540656107273
  1
APP'D.:
  7
ROMANS
100
AcDbText
  0
TEXT
  5
19A
330
17
100
AcDbEntity
  8
MEMBER
 62
4
 48
0.8
100
AcDbText
 10
2449.259648421368
 20
33.58130130870313
 30
0.0
 40
11.87540656107273
  1
DATE:
  7
ROMANS
100
AcDbText
  0
TEXT
  5
19B
330
17
100
AcDbEntity
  8
GT_1
 62
4
100
AcDbText
 10
2645.2731558795767
 20
263.48491356451996
 30
0.0
 40
14.25048787328728
  1
CLIENT:
  7
HTX11
100
AcDbText
  0
LINE
  5
19C
330
17
100
AcDbEntity
  8
GT_1
 62
4
100
AcDbLine
 10
3198.068732587857
 20
5.911715561524034e-11
 30
0.0
 11
3198.068732587857
 21
288.161844599701
 31
0.0
  0
LINE
  5
19D
330
17
100
AcDbEntity
  8
GT_1
 62
4
100
AcDbLine
 10
2635.8231044894783
 20
114.32358280644985
 30
0.0
 11
1848.8079709383874
 21
114.32358280644985
 31
0.0
  0
LINE
  5
19E
330
17
100
AcDbEntity
  8
GT_1
 62
4
100
AcDbLine
 10
2635.8231044894783
 20
52.87547909683781
 30
0.0
 11
1848.8079709383874
 21
52.87547909683781
 31
0.0
  0
LINE
  5
19F
330
17
100
AcDbEntity
  8
GT_1
 62
4
100
AcDbLine
 10
1757.8195533197177
 20
21.80057040258589
 30
0.0
 11
1507.4361271654489
 21
21.80057040258589
 31
0.0
  0
LINE
  5
1A0
330
17
100
AcDbEntity
  8
GT_1
 62
4
100
AcDbLine
 10
1848.714605672987
 20
49.81015001563401
 30
0.0
 11
5.820766091346741e-11
 21
49.81015001563401
 31
0.0
  0
LINE
  5
1A1
330
17
100
AcDbEntity
  8
GT_1
 62
4
100
AcDbLine
 10
1848.8079709383874
 20
89.73608586745104
 30
0.0
 11
5.820766091346741e-11
 21
89.73608586745104
 31
0.0
  0
LINE
  5
1A2
330
17
100
AcDbEntity
  8
GT_1
 62
4
100
AcDbLine
 10
1848.8079709383874
 20
129.66202171938494
 30
0.0
 11
5.820766091346741e-11
 21
129.66202171938494
 31
0.0
  0
LINE
  5
1A3
330
17
100
AcDbEntity
  8
GT_1
 62
4
100
AcDbLine
 10
1848.8079709383874
 20
169.5879575712611
 30
0.0
 11
5.820766091346741e-11
 21
169.5879575712611
 31
0.0
  0
LINE
  5
1A4
330
17
100
AcDbEntity
  8
GT_1
 62
4
100
AcDbLine
 10
1848.8079709383874
 20
209.513893423195
 30
0.0
 11
5.820766091346741e-11
 21
209.513893423195
 31
0.0
  0
LINE
  5
1A5
330
17
100
AcDbEntity
  8
GT_1
 62
4
100
AcDbLine
 10
1848.8079709383874
 20
249.3169802416819
 30
0.0
 11
5.820766091346741e-11
 21
249.3169802416819
 31
0.0
  0
LINE
  5
1A6
330
17
100
AcDbEntity
  8
GT_1
 62
4
100
AcDbLine
 10
1848.8079709383874
 20
5.911715561524034e-11
 30
0.0
 11
1848.8079709383874
 21
288.161844599701
 31
0.0
  0
LINE
  5
1A7
330
17
100
AcDbEntity
  8
GT_1
 62
4
100
AcDbLine
 10
1674.5108125763982
 20
21.830545566685032
 30
0.0
 11
1674.5108125763982
 21
288.191819763917
 31
0.0
  0
LINE
  5
1A8
330
17
100
AcDbEntity
  8
GT_1
 62
4
100
AcDbLine
 10
595.3891111787525
 20
5.911715561524034e-11
 30
0.0
 11
595.3891111787525
 21
288.161844599701
 31
0.0
  0
LINE
  5
1A9
330
17
100
AcDbEntity
  8
GT_1
 62
4
100
AcDbLine
 10
767.3040485053207
 20
5.911715561524034e-11
 30
0.0
 11
767.3040485053207
 21
288.161844599701
 31
0.0
  0
LINE
  5
1AA
330
17
100
AcDbEntity
  8
GT_1
 62
4
100
AcDbLine
 10
816.4436618614127
 20
5.911715561524034e-11
 30
0.0
 11
816.4436618614127
 21
288.161844599701
 31
0.0
  0
LINE
  5
1AB
330
17
100
AcDbEntity
  8
GT_1
 62
4
100
AcDbLine
 10
1379.1339023691835
 20
5.911715561524034e-11
 30
0.0
 11
1379.1339023691835
 21
288.161844599701
 31
0.0
  0
LINE
  5
1AC
330
17
100
AcDbEntity
  8
GT_1
 62
4
100
AcDbLine
 10
1507.4361271654489
 20
5.911715561524034e-11
 30
0.0
 11
1507.4361271654489
 21
288.161844599701
 31
0.0
  0
LINE
  5
1AD
330
17
100
AcDbEntity
  8
GT_1
 62
4
100
AcDbLine
 10
1757.8195533197177
 20
5.911715561524034e-11
 30
0.0
 11
1757.8195533197177
 21
288.161844599701
 31
0.0
  0
LINE
  5
1AE
330
17
100
AcDbEntity
  8
GT_1
 62
4
100
AcDbLine
 10
1590.97346987098
 20
21.80057040258589
 30
0.0
 11
1590.97346987098
 21
288.161844599701
 31
0.0
  0
LINE
  5
1AF
330
17
100
AcDbEntity
  8
GT_1
 62
4
100
AcDbLine
 10
2439.0730065726075
 20
5.911715561524034e-11
 30
0.0
 11
2439.0730065726075
 21
114.32358280644985
 31
0.0
  0
LINE
  5
1B0
330
17
100
AcDbEntity
  8
GT_1
 62
4
100
AcDbLine
 10
2242.3179946945784
 20
5.911715561524034e-11
 30
0.0
 11
2242.3179946945784
 21
114.32358280644985
 31
0.0
  0
LINE
  5
1B1
330
17
100
AcDbEntity
  8
GT_1
 62
4
100
AcDbLine
 10
2045.5580688551381
 20
5.911715561524034e-11
 30
0.0
 11
2045.5580688551381
 21
114.32358280644985
 31
0.0
  0
LINE
  5
1B2
330
17
100
AcDbEntity
  8
GT_1
 62
4
100
AcDbLine
 10
2635.8231044894783
 20
5.911715561524034e-11
 30
0.0
 11
2635.8231044894783
 21
288.161844599701
 31
0.0
  0
TEXT
  5
1B3
330
17
100
AcDbEntity
  8
MEMBER
 62
4
 48
0.8
100
AcDbText
 10
2443.267598639828
 20
92.13950435677589
 30
0.0
 40
11.87540656107273
  1
INGREDION APP'D.:
  7
ROMANS
 41
0.8000000000000002
100
AcDbText
  0
TEXT
  5
1B4
330
17
100
AcDbEntity
  8
MEMBER
 62
4
 48
0.8
100
AcDbText
 10
3864.4398777363276
 20
7.336131803574972
 30
0.0
 40
14.23354317902654
  1
3
  7
ROMANS
 72
1
 11
3871.217755440628
 21
7.336131803574972
 31
0.0
100
AcDbText
  0
TEXT
  5
1B5
330
17
100
AcDbEntity
  8
0
 62
4
 48
100.0
100
AcDbText
 10
3454.886024585747
 20
105.77028402061796
 30
0.0
 40
14.69257450479394
  1
WIRING DIAGRAM
  7
HTX11
 72
1
 11
3543.7411180195068
 21
113.11657127301487
 31
0.0
100
AcDbText
 73
2
  0
TEXT
  5
1B6
330
17
100
AcDbEntity
  8
MEMBER
 62
4
 48
0.8
100
AcDbText
 10
3486.578024046208
 20
7.335958264186047
 30
0.0
 40
14.23356513362789
  1
xxx:xxx:
  7
ROMANS
 41
0.7999999999999999
100
AcDbText
  0
TEXT
  5
1B7
330
17
100
AcDbEntity
  8
MEMBER
 62
4
 48
0.8
100
AcDbText
 10
1861.864339141348
 20
262.74345289496705
 30
0.0
 40
12.35042282351564
  1
CONTRACTOR:
  7
ROMANS
100
AcDbText
  0
TEXT
  5
1B8
330
17
100
AcDbEntity
  8
MEMBER
 62
4
 48
0.8
100
AcDbText
 10
1887.8235282524874
 20
67.20880734128878
 30
0.0
 40
11.87540656107273
  1
cj@xDev.co.th
  7
ROMANS
100
AcDbText
  0
TEXT
  5
1B9
330
17
100
AcDbEntity
  8
MEMBER
 62
4
 48
0.8
100
AcDbText
 10
1887.8235282524874
 20
8.50422490970277
 30
0.0
 40
11.87540656107273
  1
11/09/2026
  7
ROMANS
100
AcDbText
  0
TEXT
  5
1BA
330
17
100
AcDbEntity
  8
MEMBER
 62
4
 48
0.8
100
AcDbText
 10
1541.1946874307068
 20
63.9845556046339
 30
0.0
 40
11.87540656107273
  1
cj
  7
ROMANS
 72
1
 11
1549.1116251380881
 21
69.92225888516987
 31
0.0
100
AcDbText
 73
2
  0
TEXT
  5
1BB
330
17
100
AcDbEntity
  8
MEMBER
 62
4
 48
0.8
100
AcDbText
 10
1382.7084205485335
 20
63.9845556046339
 30
0.0
 40
11.87540656107273
  1
11/09/2026
  7
ROMANS
 72
1
 11
1441.2372100281063
 21
69.92225888516987
 31
0.0
100
AcDbText
 73
2
  0
TEXT
  5
1BC
330
17
100
AcDbEntity
  8
MEMBER
 62
4
 48
0.8
100
AcDbText
 10
991.4021959852435
 20
63.9845556046339
 30
0.0
 40
11.87540656107273
  1
ISSUED FOR REVIEW
  7
ROMANS
 72
1
 11
1083.0124751706608
 21
69.92225888516987
 31
0.0
100
AcDbText
 73
2
  0
TEXT
  5
1BD
330
17
100
AcDbEntity
  8
MEMBER
 62
4
 48
0.8
100
AcDbText
 10
786.1306677141911
 20
63.9845556046339
 30
0.0
 40
11.87540656107273
  1
1
  7
ROMANS
 72
1
 11
790.9373798936722
 21
69.92225888516987
 31
0.0
100
AcDbText
 73
2
  0
TEXT
  5
1BE
330
17
100
AcDbEntity
  8
0
 62
4
 48
100.0
100
AcDbText
 10
3463.916236840858
 20
224.83637206400408
 30
0.0
 40
14.69257450479394
  1
SPRINT PROJECT
  7
HTX11
 72
1
 11
3555.9197390970676
 21
232.182659316401
 31
0.0
100
AcDbText
 73
2
  0
TEXT
  5
1BF
330
17
100
AcDbEntity
  8
MEMBER
 62
4
 48
0.8
100
AcDbText
 10
1624.7320301362379
 20
63.9845556046339
 30
0.0
 40
11.87540656107273
  1
cj
  7
ROMANS
 72
1
 11
1632.6489678436174
 21
69.92225888516987
 31
0.0
100
AcDbText
 73
2
  0
TEXT
  5
1C0
330
17
100
AcDbEntity
  8
MEMBER
 62
4
 48
0.8
100
AcDbText
 10
1708.269372841767
 20
63.9845556046339
 30
0.0
 40
11.87540656107273
  1
cj
  7
ROMANS
 72
1
 11
1716.1863105491484
 21
69.92225888516987
 31
0.0
100
AcDbText
 73
2
  0
TEXT
  5
1C1
330
17
100
AcDbEntity
  8
0
 62
4
 48
100.0
100
AcDbText
 10
3425.151052373667
 20
138.69184644588586
 30
0.0
 40
14.69257450479394
  1
SPRINT PROJECT PLC
  7
HTX11
 72
1
 11
3543.7411180195068
 21
146.03813369828276
 31
0.0
100
AcDbText
 73
2
  0
ATTDEF
  5
1C2
330
17
100
AcDbEntity
  8
0
100
AcDbText
 10
3512.108981250267
 20
72.41974765961686
 30
0.0
 40
14.82145673729213
  1
A
  7
HTX11
 72
1
 11
3517.7552504835166
 21
79.83047602826309
 31
0.0
100
AcDbAttributeDefinition
  3
A
  2
A
 70
0
 74
2
280
1
  0
ATTDEF
  5
1C3
330
17
100
AcDbEntity
  8
0
100
AcDbText
 10
3806.658534194088
 20
7.456581811624801
 30
0.0
 40
14.82145673729213
  1
CHASSIS C4 SLOT 2
  7
HTX11
 72
1
 11
3811.599019773188
 21
14.867310180271033
 31
0.0
100
AcDbAttributeDefinition
  3
B
  2
B
 70
0
 74
2
280
1
  0
TEXT
  5
1C4
330
17
100
AcDbEntity
  8
MEMBER
 62
4
 48
0.8
100
AcDbText
 10
2084.5809971112776
 20
67.20880734128878
 30
0.0
 40
11.87540656107273
  1
cj@xDev.co.th
  7
ROMANS
100
AcDbText
  0
TEXT
  5
1C5
330
17
100
AcDbEntity
  8
MEMBER
 62
4
 48
0.8
100
AcDbText
 10
2281.3384659699477
 20
67.20880734128878
 30
0.0
 40
11.87540656107273
  1
cj@xDev.co.th
  7
ROMANS
100
AcDbText
  0
TEXT
  5
1C6
330
17
100
AcDbEntity
  8
MEMBER
 62
4
 48
0.8
100
AcDbText
 10
2084.583454091917
 20
8.50422490970277
 30
0.0
 40
11.87540656107273
  1
11/09/2026
  7
ROMANS
100
AcDbText
  0
TEXT
  5
1C7
330
17
100
AcDbEntity
  8
MEMBER
 62
4
 48
0.8
100
AcDbText
 10
2281.3384659699477
 20
8.50422490970277
 30
0.0
 40
11.87540656107273
  1
11/09/2026
  7
ROMANS
100
AcDbText
  0
TEXT
  5
1C8
330
17
100
AcDbEntity
  8
MEMBER
 62
4
 48
0.8
100
AcDbText
 10
76.61549647859465
 20
975.5698373866021
 30
0.0
 40
12.35042282351564
  1
SLOT C4S2 - I/O POINT SCHEDULE & CHANNEL LIST
  7
ROMANS
100
AcDbText
  0
LINE
  5
1C9
330
17
100
AcDbEntity
  8
0
 62
7
100
AcDbLine
 10
65.70000000000073
 20
937.9000000000001
 30
0.0
 11
1411.5
 21
937.9000000000001
 31
0.0
  0
LINE
  5
1CA
330
17
100
AcDbEntity
  8
0
 62
7
100
AcDbLine
 10
125.0
 20
333.8000000000002
 30
0.0
 11
125.0
 21
965.9000000000001
 31
0.0
  0
LINE
  5
1CB
330
17
100
AcDbEntity
  8
0
 62
7
100
AcDbLine
 10
200.0
 20
333.8000000000002
 30
0.0
 11
200.0
 21
965.9000000000001
 31
0.0
  0
LINE
  5
1CC
330
17
100
AcDbEntity
  8
0
 62
7
100
AcDbLine
 10
400.0
 20
333.8000000000002
 30
0.0
 11
400.0
 21
965.9000000000001
 31
0.0
  0
LINE
  5
1CD
330
17
100
AcDbEntity
  8
0
 62
7
100
AcDbLine
 10
580.0
 20
333.8000000000002
 30
0.0
 11
580.0
 21
965.9000000000001
 31
0.0
  0
LINE
  5
1CE
330
17
100
AcDbEntity
  8
0
 62
7
100
AcDbLine
 10
1210.0
 20
333.8000000000002
 30
0.0
 11
1210.0
 21
965.9000000000001
 31
0.0
  0
TEXT
  5
1CF
330
17
100
AcDbEntity
  8
0
 62
3
100
AcDbText
 10
68.70000000000073
 20
948.9000000000001
 30
0.0
 40
7.5
  1
PIN
100
AcDbText
  0
TEXT
  5
1D0
330
17
100
AcDbEntity
  8
0
 62
3
100
AcDbText
 10
128.0
 20
948.9000000000001
 30
0.0
 40
7.5
  1
TERM
100
AcDbText
  0
TEXT
  5
1D1
330
17
100
AcDbEntity
  8
0
 62
3
100
AcDbText
 10
203.0
 20
948.9000000000001
 30
0.0
 40
7.5
  1
PLC TAG
100
AcDbText
  0
TEXT
  5
1D2
330
17
100
AcDbEntity
  8
0
 62
3
100
AcDbText
 10
403.0
 20
948.9000000000001
 30
0.0
 40
7.5
  1
INST TAG
100
AcDbText
  0
TEXT
  5
1D3
330
17
100
AcDbEntity
  8
0
 62
3
100
AcDbText
 10
583.0
 20
948.9000000000001
 30
0.0
 40
7.5
  1
SIGNAL DESCRIPTION
100
AcDbText
  0
TEXT
  5
1D4
330
17
100
AcDbEntity
  8
0
 62
3
100
AcDbText
 10
1213.0
 20
948.9000000000001
 30
0.0
 40
7.5
  1
DEST / JB
100
AcDbText
  0
LINE
  5
1D5
330
17
100
AcDbEntity
  8
0
 62
8
100
AcDbLine
 10
65.70000000000073
 20
919.0218750000008
 30
0.0
 11
1411.5
 21
919.0218750000008
 31
0.0
  0
TEXT
  5
1D6
330
17
100
AcDbEntity
  8
0
 62
7
100
AcDbText
 10
68.70000000000073
 20
922.0218750000008
 30
0.0
 40
5.5
  1
1
100
AcDbText
  0
TEXT
  5
1D7
330
17
100
AcDbEntity
  8
0
 62
7
100
AcDbText
 10
128.0
 20
922.0218750000008
 30
0.0
 40
5.5
  1
IN-0
100
AcDbText
  0
TEXT
  5
1D8
330
17
100
AcDbEntity
  8
0
 62
7
100
AcDbText
 10
203.0
 20
922.0218750000008
 30
0.0
 40
5.5
  1
DI_C4S2_00_ISV-61303
100
AcDbText
  0
TEXT
  5
1D9
330
17
100
AcDbEntity
  8
0
 62
7
100
AcDbText
 10
403.0
 20
922.0218750000008
 30
0.0
 40
5.5
  1
ISV-61303
100
AcDbText
  0
TEXT
  5
1DA
330
17
100
AcDbEntity
  8
0
 62
7
100
AcDbText
 10
583.0
 20
922.0218750000008
 30
0.0
 40
5.5
  1
Process Instrument
100
AcDbText
  0
TEXT
  5
1DB
330
17
100
AcDbEntity
  8
0
 62
7
100
AcDbText
 10
1213.0
 20
922.0218750000008
 30
0.0
 40
5.5
  1
IS-JB-612
100
AcDbText
  0
LINE
  5
1DC
330
17
100
AcDbEntity
  8
0
 62
8
100
AcDbLine
 10
65.70000000000073
 20
900.1437500000002
 30
0.0
 11
1411.5
 21
900.1437500000002
 31
0.0
  0
TEXT
  5
1DD
330
17
100
AcDbEntity
  8
0
 62
7
100
AcDbText
 10
68.70000000000073
 20
903.1437500000002
 30
0.0
 40
5.5
  1
2
100
AcDbText
  0
TEXT
  5
1DE
330
17
100
AcDbEntity
  8
0
 62
7
100
AcDbText
 10
128.0
 20
903.1437500000002
 30
0.0
 40
5.5
  1
IN-1
100
AcDbText
  0
TEXT
  5
1DF
330
17
100
AcDbEntity
  8
0
 62
7
100
AcDbText
 10
203.0
 20
903.1437500000002
 30
0.0
 40
5.5
  1
DI_C4S2_01_ISV-61304
100
AcDbText
  0
TEXT
  5
1E0
330
17
100
AcDbEntity
  8
0
 62
7
100
AcDbText
 10
403.0
 20
903.1437500000002
 30
0.0
 40
5.5
  1
ISV-61304
100
AcDbText
  0
TEXT
  5
1E1
330
17
100
AcDbEntity
  8
0
 62
7
100
AcDbText
 10
583.0
 20
903.1437500000002
 30
0.0
 40
5.5
  1
Process Instrument
100
AcDbText
  0
TEXT
  5
1E2
330
17
100
AcDbEntity
  8
0
 62
7
100
AcDbText
 10
1213.0
 20
903.1437500000002
 30
0.0
 40
5.5
  1
IS-JB-612
100
AcDbText
  0
LINE
  5
1E3
330
17
100
AcDbEntity
  8
0
 62
8
100
AcDbLine
 10
65.70000000000073
 20
881.265625
 30
0.0
 11
1411.5
 21
881.265625
 31
0.0
  0
TEXT
  5
1E4
330
17
100
AcDbEntity
  8
0
 62
7
100
AcDbText
 10
68.70000000000073
 20
884.265625
 30
0.0
 40
5.5
  1
3
100
AcDbText
  0
TEXT
  5
1E5
330
17
100
AcDbEntity
  8
0
 62
7
100
AcDbText
 10
128.0
 20
884.265625
 30
0.0
 40
5.5
  1
IN-2
100
AcDbText
  0
TEXT
  5
1E6
330
17
100
AcDbEntity
  8
0
 62
7
100
AcDbText
 10
203.0
 20
884.265625
 30
0.0
 40
5.5
  1
DI_C4S2_02_LSH-61304
100
AcDbText
  0
TEXT
  5
1E7
330
17
100
AcDbEntity
  8
0
 62
7
100
AcDbText
 10
403.0
 20
884.265625
 30
0.0
 40
5.5
  1
LSH-61304
100
AcDbText
  0
TEXT
  5
1E8
330
17
100
AcDbEntity
  8
0
 62
7
100
AcDbText
 10
583.0
 20
884.265625
 30
0.0
 40
5.5
  1
Process Instrument
100
AcDbText
  0
TEXT
  5
1E9
330
17
100
AcDbEntity
  8
0
 62
7
100
AcDbText
 10
1213.0
 20
884.265625
 30
0.0
 40
5.5
  1
IS-JB-612
100
AcDbText
  0
LINE
  5
1EA
330
17
100
AcDbEntity
  8
0
 62
8
100
AcDbLine
 10
65.70000000000073
 20
862.3874999999998
 30
0.0
 11
1411.5
 21
862.3874999999998
 31
0.0
  0
TEXT
  5
1EB
330
17
100
AcDbEntity
  8
0
 62
7
100
AcDbText
 10
68.70000000000073
 20
865.3874999999998
 30
0.0
 40
5.5
  1
4
100
AcDbText
  0
TEXT
  5
1EC
330
17
100
AcDbEntity
  8
0
 62
7
100
AcDbText
 10
128.0
 20
865.3874999999998
 30
0.0
 40
5.5
  1
IN-3
100
AcDbText
  0
TEXT
  5
1ED
330
17
100
AcDbEntity
  8
0
 62
7
100
AcDbText
 10
203.0
 20
865.3874999999998
 30
0.0
 40
5.5
  1
DI_C4S2_03_LSH-61305
100
AcDbText
  0
TEXT
  5
1EE
330
17
100
AcDbEntity
  8
0
 62
7
100
AcDbText
 10
403.0
 20
865.3874999999998
 30
0.0
 40
5.5
  1
LSH-61305
100
AcDbText
  0
TEXT
  5
1EF
330
17
100
AcDbEntity
  8
0
 62
7
100
AcDbText
 10
583.0
 20
865.3874999999998
 30
0.0
 40
5.5
  1
Process Instrument
100
AcDbText
  0
TEXT
  5
1F0
330
17
100
AcDbEntity
  8
0
 62
7
100
AcDbText
 10
1213.0
 20
865.3874999999998
 30
0.0
 40
5.5
  1
IS-JB-612
100
AcDbText
  0
LINE
  5
1F1
330
17
100
AcDbEntity
  8
0
 62
8
100
AcDbLine
 10
65.70000000000073
 20
843.5093750000001
 30
0.0
 11
1411.5
 21
843.5093750000001
 31
0.0
  0
TEXT
  5
1F2
330
17
100
AcDbEntity
  8
0
 62
7
100
AcDbText
 10
68.70000000000073
 20
846.5093750000001
 30
0.0
 40
5.5
  1
5
100
AcDbText
  0
TEXT
  5
1F3
330
17
100
AcDbEntity
  8
0
 62
7
100
AcDbText
 10
128.0
 20
846.5093750000001
 30
0.0
 40
5.5
  1
IN-4
100
AcDbText
  0
TEXT
  5
1F4
330
17
100
AcDbEntity
  8
0
 62
7
100
AcDbText
 10
203.0
 20
846.5093750000001
 30
0.0
 40
5.5
  1
DI_C4S2_04_LSH-61307
100
AcDbText
  0
TEXT
  5
1F5
330
17
100
AcDbEntity
  8
0
 62
7
100
AcDbText
 10
403.0
 20
846.5093750000001
 30
0.0
 40
5.5
  1
LSH-61307
100
AcDbText
  0
TEXT
  5
1F6
330
17
100
AcDbEntity
  8
0
 62
7
100
AcDbText
 10
583.0
 20
846.5093750000001
 30
0.0
 40
5.5
  1
Process Instrument
100
AcDbText
  0
TEXT
  5
1F7
330
17
100
AcDbEntity
  8
0
 62
7
100
AcDbText
 10
1213.0
 20
846.5093750000001
 30
0.0
 40
5.5
  1
IS-JB-612
100
AcDbText
  0
LINE
  5
1F8
330
17
100
AcDbEntity
  8
0
 62
8
100
AcDbLine
 10
65.70000000000073
 20
824.6312500000008
 30
0.0
 11
1411.5
 21
824.6312500000008
 31
0.0
  0
TEXT
  5
1F9
330
17
100
AcDbEntity
  8
0
 62
7
100
AcDbText
 10
68.70000000000073
 20
827.6312500000008
 30
0.0
 40
5.5
  1
6
100
AcDbText
  0
TEXT
  5
1FA
330
17
100
AcDbEntity
  8
0
 62
7
100
AcDbText
 10
128.0
 20
827.6312500000008
 30
0.0
 40
5.5
  1
IN-5
100
AcDbText
  0
TEXT
  5
1FB
330
17
100
AcDbEntity
  8
0
 62
7
100
AcDbText
 10
203.0
 20
827.6312500000008
 30
0.0
 40
5.5
  1
DI_C4S2_05_LSH-61312
100
AcDbText
  0
TEXT
  5
1FC
330
17
100
AcDbEntity
  8
0
 62
7
100
AcDbText
 10
403.0
 20
827.6312500000008
 30
0.0
 40
5.5
  1
LSH-61312
100
AcDbText
  0
TEXT
  5
1FD
330
17
100
AcDbEntity
  8
0
 62
7
100
AcDbText
 10
583.0
 20
827.6312500000008
 30
0.0
 40
5.5
  1
Process Instrument
100
AcDbText
  0
TEXT
  5
1FE
330
17
100
AcDbEntity
  8
0
 62
7
100
AcDbText
 10
1213.0
 20
827.6312500000008
 30
0.0
 40
5.5
  1
IS-JB-612
100
AcDbText
  0
LINE
  5
1FF
330
17
100
AcDbEntity
  8
0
 62
8
100
AcDbLine
 10
65.70000000000073
 20
805.7531250000002
 30
0.0
 11
1411.5
 21
805.7531250000002
 31
0.0
  0
TEXT
  5
200
330
17
100
AcDbEntity
  8
0
 62
7
100
AcDbText
 10
68.70000000000073
 20
808.7531250000002
 30
0.0
 40
5.5
  1
7
100
AcDbText
  0
TEXT
  5
201
330
17
100
AcDbEntity
  8
0
 62
7
100
AcDbText
 10
128.0
 20
808.7531250000002
 30
0.0
 40
5.5
  1
IN-6
100
AcDbText
  0
TEXT
  5
202
330
17
100
AcDbEntity
  8
0
 62
7
100
AcDbText
 10
203.0
 20
808.7531250000002
 30
0.0
 40
5.5
  1
DI_C4S2_06_PSE-61302
100
AcDbText
  0
TEXT
  5
203
330
17
100
AcDbEntity
  8
0
 62
7
100
AcDbText
 10
403.0
 20
808.7531250000002
 30
0.0
 40
5.5
  1
PSE-61302
100
AcDbText
  0
TEXT
  5
204
330
17
100
AcDbEntity
  8
0
 62
7
100
AcDbText
 10
583.0
 20
808.7531250000002
 30
0.0
 40
5.5
  1
Process Instrument
100
AcDbText
  0
TEXT
  5
205
330
17
100
AcDbEntity
  8
0
 62
7
100
AcDbText
 10
1213.0
 20
808.7531250000002
 30
0.0
 40
5.5
  1
IS-JB-612
100
AcDbText
  0
LINE
  5
206
330
17
100
AcDbEntity
  8
0
 62
8
100
AcDbLine
 10
65.70000000000073
 20
786.875
 30
0.0
 11
1411.5
 21
786.875
 31
0.0
  0
TEXT
  5
207
330
17
100
AcDbEntity
  8
0
 62
7
100
AcDbText
 10
68.70000000000073
 20
789.875
 30
0.0
 40
5.5
  1
8
100
AcDbText
  0
TEXT
  5
208
330
17
100
AcDbEntity
  8
0
 62
7
100
AcDbText
 10
128.0
 20
789.875
 30
0.0
 40
5.5
  1
IN-7
100
AcDbText
  0
TEXT
  5
209
330
17
100
AcDbEntity
  8
0
 62
7
100
AcDbText
 10
203.0
 20
789.875
 30
0.0
 40
5.5
  1
DI_C4S2_07_PSE-61303
100
AcDbText
  0
TEXT
  5
20A
330
17
100
AcDbEntity
  8
0
 62
7
100
AcDbText
 10
403.0
 20
789.875
 30
0.0
 40
5.5
  1
PSE-61303
100
AcDbText
  0
TEXT
  5
20B
330
17
100
AcDbEntity
  8
0
 62
7
100
AcDbText
 10
583.0
 20
789.875
 30
0.0
 40
5.5
  1
Process Instrument
100
AcDbText
  0
TEXT
  5
20C
330
17
100
AcDbEntity
  8
0
 62
7
100
AcDbText
 10
1213.0
 20
789.875
 30
0.0
 40
5.5
  1
IS-JB-612
100
AcDbText
  0
LINE
  5
20D
330
17
100
AcDbEntity
  8
0
 62
8
100
AcDbLine
 10
65.70000000000073
 20
767.9968750000012
 30
0.0
 11
1411.5
 21
767.9968750000012
 31
0.0
  0
TEXT
  5
20E
330
17
100
AcDbEntity
  8
0
 62
7
100
AcDbText
 10
68.70000000000073
 20
770.9968750000012
 30
0.0
 40
5.5
  1
9
100
AcDbText
  0
TEXT
  5
20F
330
17
100
AcDbEntity
  8
0
 62
7
100
AcDbText
 10
128.0
 20
770.9968750000012
 30
0.0
 40
5.5
  1
IN-8
100
AcDbText
  0
TEXT
  5
210
330
17
100
AcDbEntity
  8
0
 62
7
100
AcDbText
 10
203.0
 20
770.9968750000012
 30
0.0
 40
5.5
  1
DI_C4S2_08_RV-61301
100
AcDbText
  0
TEXT
  5
211
330
17
100
AcDbEntity
  8
0
 62
7
100
AcDbText
 10
403.0
 20
770.9968750000012
 30
0.0
 40
5.5
  1
RV-61301
100
AcDbText
  0
TEXT
  5
212
330
17
100
AcDbEntity
  8
0
 62
7
100
AcDbText
 10
583.0
 20
770.9968750000012
 30
0.0
 40
5.5
  1
Process Instrument
100
AcDbText
  0
TEXT
  5
213
330
17
100
AcDbEntity
  8
0
 62
7
100
AcDbText
 10
1213.0
 20
770.9968750000012
 30
0.0
 40
5.5
  1
IS-JB-612
100
AcDbText
  0
LINE
  5
214
330
17
100
AcDbEntity
  8
0
 62
8
100
AcDbLine
 10
65.70000000000073
 20
749.1187500000001
 30
0.0
 11
1411.5
 21
749.1187500000001
 31
0.0
  0
TEXT
  5
215
330
17
100
AcDbEntity
  8
0
 62
7
100
AcDbText
 10
68.70000000000073
 20
752.1187500000001
 30
0.0
 40
5.5
  1
10
100
AcDbText
  0
TEXT
  5
216
330
17
100
AcDbEntity
  8
0
 62
7
100
AcDbText
 10
128.0
 20
752.1187500000001
 30
0.0
 40
5.5
  1
IN-9
100
AcDbText
  0
TEXT
  5
217
330
17
100
AcDbEntity
  8
0
 62
7
100
AcDbText
 10
203.0
 20
752.1187500000001
 30
0.0
 40
5.5
  1
DI_C4S2_09_RV-61304
100
AcDbText
  0
TEXT
  5
218
330
17
100
AcDbEntity
  8
0
 62
7
100
AcDbText
 10
403.0
 20
752.1187500000001
 30
0.0
 40
5.5
  1
RV-61304
100
AcDbText
  0
TEXT
  5
219
330
17
100
AcDbEntity
  8
0
 62
7
100
AcDbText
 10
583.0
 20
752.1187500000001
 30
0.0
 40
5.5
  1
Process Instrument
100
AcDbText
  0
TEXT
  5
21A
330
17
100
AcDbEntity
  8
0
 62
7
100
AcDbText
 10
1213.0
 20
752.1187500000001
 30
0.0
 40
5.5
  1
IS-JB-612
100
AcDbText
  0
LINE
  5
21B
330
17
100
AcDbEntity
  8
0
 62
8
100
AcDbLine
 10
65.70000000000073
 20
730.2406250000008
 30
0.0
 11
1411.5
 21
730.2406250000008
 31
0.0
  0
TEXT
  5
21C
330
17
100
AcDbEntity
  8
0
 62
7
100
AcDbText
 10
68.70000000000073
 20
733.2406250000008
 30
0.0
 40
5.5
  1
11
100
AcDbText
  0
TEXT
  5
21D
330
17
100
AcDbEntity
  8
0
 62
7
100
AcDbText
 10
128.0
 20
733.2406250000008
 30
0.0
 40
5.5
  1
IN-10
100
AcDbText
  0
TEXT
  5
21E
330
17
100
AcDbEntity
  8
0
 62
7
100
AcDbText
 10
203.0
 20
733.2406250000008
 30
0.0
 40
5.5
  1
DI_C4S2_10_RV-61305
100
AcDbText
  0
TEXT
  5
21F
330
17
100
AcDbEntity
  8
0
 62
7
100
AcDbText
 10
403.0
 20
733.2406250000008
 30
0.0
 40
5.5
  1
RV-61305
100
AcDbText
  0
TEXT
  5
220
330
17
100
AcDbEntity
  8
0
 62
7
100
AcDbText
 10
583.0
 20
733.2406250000008
 30
0.0
 40
5.5
  1
Process Instrument
100
AcDbText
  0
TEXT
  5
221
330
17
100
AcDbEntity
  8
0
 62
7
100
AcDbText
 10
1213.0
 20
733.2406250000008
 30
0.0
 40
5.5
  1
IS-JB-612
100
AcDbText
  0
LINE
  5
222
330
17
100
AcDbEntity
  8
0
 62
8
100
AcDbLine
 10
65.70000000000073
 20
711.3625000000002
 30
0.0
 11
1411.5
 21
711.3625000000002
 31
0.0
  0
TEXT
  5
223
330
17
100
AcDbEntity
  8
0
 62
7
100
AcDbText
 10
68.70000000000073
 20
714.3625000000002
 30
0.0
 40
5.5
  1
12
100
AcDbText
  0
TEXT
  5
224
330
17
100
AcDbEntity
  8
0
 62
7
100
AcDbText
 10
128.0
 20
714.3625000000002
 30
0.0
 40
5.5
  1
IN-11
100
AcDbText
  0
TEXT
  5
225
330
17
100
AcDbEntity
  8
0
 62
7
100
AcDbText
 10
203.0
 20
714.3625000000002
 30
0.0
 40
5.5
  1
DI_C4S2_11_SC-61301
100
AcDbText
  0
TEXT
  5
226
330
17
100
AcDbEntity
  8
0
 62
7
100
AcDbText
 10
403.0
 20
714.3625000000002
 30
0.0
 40
5.5
  1
SC-61301
100
AcDbText
  0
TEXT
  5
227
330
17
100
AcDbEntity
  8
0
 62
7
100
AcDbText
 10
583.0
 20
714.3625000000002
 30
0.0
 40
5.5
  1
Process Instrument
100
AcDbText
  0
TEXT
  5
228
330
17
100
AcDbEntity
  8
0
 62
7
100
AcDbText
 10
1213.0
 20
714.3625000000002
 30
0.0
 40
5.5
  1
IS-JB-612
100
AcDbText
  0
LINE
  5
229
330
17
100
AcDbEntity
  8
0
 62
8
100
AcDbLine
 10
65.70000000000073
 20
692.484375
 30
0.0
 11
1411.5
 21
692.484375
 31
0.0
  0
TEXT
  5
22A
330
17
100
AcDbEntity
  8
0
 62
7
100
AcDbText
 10
68.70000000000073
 20
695.484375
 30
0.0
 40
5.5
  1
13
100
AcDbText
  0
TEXT
  5
22B
330
17
100
AcDbEntity
  8
0
 62
7
100
AcDbText
 10
128.0
 20
695.484375
 30
0.0
 40
5.5
  1
IN-12
100
AcDbText
  0
TEXT
  5
22C
330
17
100
AcDbEntity
  8
0
 62
7
100
AcDbText
 10
203.0
 20
695.484375
 30
0.0
 40
5.5
  1
DI_C4S2_12_SC-61302
100
AcDbText
  0
TEXT
  5
22D
330
17
100
AcDbEntity
  8
0
 62
7
100
AcDbText
 10
403.0
 20
695.484375
 30
0.0
 40
5.5
  1
SC-61302
100
AcDbText
  0
TEXT
  5
22E
330
17
100
AcDbEntity
  8
0
 62
7
100
AcDbText
 10
583.0
 20
695.484375
 30
0.0
 40
5.5
  1
Process Instrument
100
AcDbText
  0
TEXT
  5
22F
330
17
100
AcDbEntity
  8
0
 62
7
100
AcDbText
 10
1213.0
 20
695.484375
 30
0.0
 40
5.5
  1
IS-JB-612
100
AcDbText
  0
LINE
  5
230
330
17
100
AcDbEntity
  8
0
 62
8
100
AcDbLine
 10
65.70000000000073
 20
673.6062500000012
 30
0.0
 11
1411.5
 21
673.6062500000012
 31
0.0
  0
TEXT
  5
231
330
17
100
AcDbEntity
  8
0
 62
7
100
AcDbText
 10
68.70000000000073
 20
676.6062500000012
 30
0.0
 40
5.5
  1
14
100
AcDbText
  0
TEXT
  5
232
330
17
100
AcDbEntity
  8
0
 62
7
100
AcDbText
 10
128.0
 20
676.6062500000012
 30
0.0
 40
5.5
  1
IN-13
100
AcDbText
  0
TEXT
  5
233
330
17
100
AcDbEntity
  8
0
 62
7
100
AcDbText
 10
203.0
 20
676.6062500000012
 30
0.0
 40
5.5
  1
DI_C4S2_13_ZS-61312
100
AcDbText
  0
TEXT
  5
234
330
17
100
AcDbEntity
  8
0
 62
7
100
AcDbText
 10
403.0
 20
676.6062500000012
 30
0.0
 40
5.5
  1
ZS-61312
100
AcDbText
  0
TEXT
  5
235
330
17
100
AcDbEntity
  8
0
 62
7
100
AcDbText
 10
583.0
 20
676.6062500000012
 30
0.0
 40
5.5
  1
Process Instrument
100
AcDbText
  0
TEXT
  5
236
330
17
100
AcDbEntity
  8
0
 62
7
100
AcDbText
 10
1213.0
 20
676.6062500000012
 30
0.0
 40
5.5
  1
IS-JB-612
100
AcDbText
  0
LINE
  5
237
330
17
100
AcDbEntity
  8
0
 62
8
100
AcDbLine
 10
65.70000000000073
 20
654.7281250000001
 30
0.0
 11
1411.5
 21
654.7281250000001
 31
0.0
  0
TEXT
  5
238
330
17
100
AcDbEntity
  8
0
 62
7
100
AcDbText
 10
68.70000000000073
 20
657.7281250000001
 30
0.0
 40
5.5
  1
15
100
AcDbText
  0
TEXT
  5
239
330
17
100
AcDbEntity
  8
0
 62
7
100
AcDbText
 10
128.0
 20
657.7281250000001
 30
0.0
 40
5.5
  1
IN-14
100
AcDbText
  0
TEXT
  5
23A
330
17
100
AcDbEntity
  8
0
 62
7
100
AcDbText
 10
203.0
 20
657.7281250000001
 30
0.0
 40
5.5
  1
DI_C4S2_14_ZS-61313
100
AcDbText
  0
TEXT
  5
23B
330
17
100
AcDbEntity
  8
0
 62
7
100
AcDbText
 10
403.0
 20
657.7281250000001
 30
0.0
 40
5.5
  1
ZS-61313
100
AcDbText
  0
TEXT
  5
23C
330
17
100
AcDbEntity
  8
0
 62
7
100
AcDbText
 10
583.0
 20
657.7281250000001
 30
0.0
 40
5.5
  1
Process Instrument
100
AcDbText
  0
TEXT
  5
23D
330
17
100
AcDbEntity
  8
0
 62
7
100
AcDbText
 10
1213.0
 20
657.7281250000001
 30
0.0
 40
5.5
  1
IS-JB-612
100
AcDbText
  0
LINE
  5
23E
330
17
100
AcDbEntity
  8
0
 62
8
100
AcDbLine
 10
65.70000000000073
 20
635.8500000000008
 30
0.0
 11
1411.5
 21
635.8500000000008
 31
0.0
  0
TEXT
  5
23F
330
17
100
AcDbEntity
  8
0
 62
7
100
AcDbText
 10
68.70000000000073
 20
638.8500000000008
 30
0.0
 40
5.5
  1
16
100
AcDbText
  0
TEXT
  5
240
330
17
100
AcDbEntity
  8
0
 62
7
100
AcDbText
 10
128.0
 20
638.8500000000008
 30
0.0
 40
5.5
  1
IN-15
100
AcDbText
  0
TEXT
  5
241
330
17
100
AcDbEntity
  8
0
 62
7
100
AcDbText
 10
203.0
 20
638.8500000000008
 30
0.0
 40
5.5
  1
DI_C4S2_15_Spare
100
AcDbText
  0
TEXT
  5
242
330
17
100
AcDbEntity
  8
0
 62
7
100
AcDbText
 10
583.0
 20
638.8500000000008
 30
0.0
 40
5.5
  1
Spare Reserve Channel
100
AcDbText
  0
TEXT
  5
243
330
17
100
AcDbEntity
  8
0
 62
7
100
AcDbText
 10
1213.0
 20
638.8500000000008
 30
0.0
 40
5.5
  1
IS-JB-612
100
AcDbText
  0
LINE
  5
244
330
17
100
AcDbEntity
  8
0
 62
8
100
AcDbLine
 10
65.70000000000073
 20
616.9718750000002
 30
0.0
 11
1411.5
 21
616.9718750000002
 31
0.0
  0
TEXT
  5
245
330
17
100
AcDbEntity
  8
0
 62
7
100
AcDbText
 10
68.70000000000073
 20
619.9718750000002
 30
0.0
 40
5.5
  1
19
100
AcDbText
  0
TEXT
  5
246
330
17
100
AcDbEntity
  8
0
 62
7
100
AcDbText
 10
128.0
 20
619.9718750000002
 30
0.0
 40
5.5
  1
IN-16
100
AcDbText
  0
TEXT
  5
247
330
17
100
AcDbEntity
  8
0
 62
7
100
AcDbText
 10
203.0
 20
619.9718750000002
 30
0.0
 40
5.5
  1
DI_C4S2_16_Spare
100
AcDbText
  0
TEXT
  5
248
330
17
100
AcDbEntity
  8
0
 62
7
100
AcDbText
 10
583.0
 20
619.9718750000002
 30
0.0
 40
5.5
  1
Spare Reserve Channel
100
AcDbText
  0
TEXT
  5
249
330
17
100
AcDbEntity
  8
0
 62
7
100
AcDbText
 10
1213.0
 20
619.9718750000002
 30
0.0
 40
5.5
  1
IS-JB-612
100
AcDbText
  0
LINE
  5
24A
330
17
100
AcDbEntity
  8
0
 62
8
100
AcDbLine
 10
65.70000000000073
 20
598.09375
 30
0.0
 11
1411.5
 21
598.09375
 31
0.0
  0
TEXT
  5
24B
330
17
100
AcDbEntity
  8
0
 62
7
100
AcDbText
 10
68.70000000000073
 20
601.09375
 30
0.0
 40
5.5
  1
20
100
AcDbText
  0
TEXT
  5
24C
330
17
100
AcDbEntity
  8
0
 62
7
100
AcDbText
 10
128.0
 20
601.09375
 30
0.0
 40
5.5
  1
IN-17
100
AcDbText
  0
TEXT
  5
24D
330
17
100
AcDbEntity
  8
0
 62
7
100
AcDbText
 10
203.0
 20
601.09375
 30
0.0
 40
5.5
  1
DI_C4S2_17_Spare
100
AcDbText
  0
TEXT
  5
24E
330
17
100
AcDbEntity
  8
0
 62
7
100
AcDbText
 10
583.0
 20
601.09375
 30
0.0
 40
5.5
  1
Spare Reserve Channel
100
AcDbText
  0
TEXT
  5
24F
330
17
100
AcDbEntity
  8
0
 62
7
100
AcDbText
 10
1213.0
 20
601.09375
 30
0.0
 40
5.5
  1
IS-JB-612
100
AcDbText
  0
LINE
  5
250
330
17
100
AcDbEntity
  8
0
 62
8
100
AcDbLine
 10
65.70000000000073
 20
579.2156250000012
 30
0.0
 11
1411.5
 21
579.2156250000012
 31
0.0
  0
TEXT
  5
251
330
17
100
AcDbEntity
  8
0
 62
7
100
AcDbText
 10
68.70000000000073
 20
582.2156250000012
 30
0.0
 40
5.5
  1
21
100
AcDbText
  0
TEXT
  5
252
330
17
100
AcDbEntity
  8
0
 62
7
100
AcDbText
 10
128.0
 20
582.2156250000012
 30
0.0
 40
5.5
  1
IN-18
100
AcDbText
  0
TEXT
  5
253
330
17
100
AcDbEntity
  8
0
 62
7
100
AcDbText
 10
203.0
 20
582.2156250000012
 30
0.0
 40
5.5
  1
DI_C4S2_18_Spare
100
AcDbText
  0
TEXT
  5
254
330
17
100
AcDbEntity
  8
0
 62
7
100
AcDbText
 10
583.0
 20
582.2156250000012
 30
0.0
 40
5.5
  1
Spare Reserve Channel
100
AcDbText
  0
TEXT
  5
255
330
17
100
AcDbEntity
  8
0
 62
7
100
AcDbText
 10
1213.0
 20
582.2156250000012
 30
0.0
 40
5.5
  1
IS-JB-612
100
AcDbText
  0
LINE
  5
256
330
17
100
AcDbEntity
  8
0
 62
8
100
AcDbLine
 10
65.70000000000073
 20
560.3375000000001
 30
0.0
 11
1411.5
 21
560.3375000000001
 31
0.0
  0
TEXT
  5
257
330
17
100
AcDbEntity
  8
0
 62
7
100
AcDbText
 10
68.70000000000073
 20
563.3375000000001
 30
0.0
 40
5.5
  1
22
100
AcDbText
  0
TEXT
  5
258
330
17
100
AcDbEntity
  8
0
 62
7
100
AcDbText
 10
128.0
 20
563.3375000000001
 30
0.0
 40
5.5
  1
IN-19
100
AcDbText
  0
TEXT
  5
259
330
17
100
AcDbEntity
  8
0
 62
7
100
AcDbText
 10
203.0
 20
563.3375000000001
 30
0.0
 40
5.5
  1
DI_C4S2_19_Spare
100
AcDbText
  0
TEXT
  5
25A
330
17
100
AcDbEntity
  8
0
 62
7
100
AcDbText
 10
583.0
 20
563.3375000000001
 30
0.0
 40
5.5
  1
Spare Reserve Channel
100
AcDbText
  0
TEXT
  5
25B
330
17
100
AcDbEntity
  8
0
 62
7
100
AcDbText
 10
1213.0
 20
563.3375000000001
 30
0.0
 40
5.5
  1
IS-JB-612
100
AcDbText
  0
LINE
  5
25C
330
17
100
AcDbEntity
  8
0
 62
8
100
AcDbLine
 10
65.70000000000073
 20
541.4593750000008
 30
0.0
 11
1411.5
 21
541.4593750000008
 31
0.0
  0
TEXT
  5
25D
330
17
100
AcDbEntity
  8
0
 62
7
100
AcDbText
 10
68.70000000000073
 20
544.4593750000008
 30
0.0
 40
5.5
  1
23
100
AcDbText
  0
TEXT
  5
25E
330
17
100
AcDbEntity
  8
0
 62
7
100
AcDbText
 10
128.0
 20
544.4593750000008
 30
0.0
 40
5.5
  1
IN-20
100
AcDbText
  0
TEXT
  5
25F
330
17
100
AcDbEntity
  8
0
 62
7
100
AcDbText
 10
203.0
 20
544.4593750000008
 30
0.0
 40
5.5
  1
DI_C4S2_20_Spare
100
AcDbText
  0
TEXT
  5
260
330
17
100
AcDbEntity
  8
0
 62
7
100
AcDbText
 10
583.0
 20
544.4593750000008
 30
0.0
 40
5.5
  1
Spare Reserve Channel
100
AcDbText
  0
TEXT
  5
261
330
17
100
AcDbEntity
  8
0
 62
7
100
AcDbText
 10
1213.0
 20
544.4593750000008
 30
0.0
 40
5.5
  1
IS-JB-612
100
AcDbText
  0
LINE
  5
262
330
17
100
AcDbEntity
  8
0
 62
8
100
AcDbLine
 10
65.70000000000073
 20
522.5812500000002
 30
0.0
 11
1411.5
 21
522.5812500000002
 31
0.0
  0
TEXT
  5
263
330
17
100
AcDbEntity
  8
0
 62
7
100
AcDbText
 10
68.70000000000073
 20
525.5812500000002
 30
0.0
 40
5.5
  1
24
100
AcDbText
  0
TEXT
  5
264
330
17
100
AcDbEntity
  8
0
 62
7
100
AcDbText
 10
128.0
 20
525.5812500000002
 30
0.0
 40
5.5
  1
IN-21
100
AcDbText
  0
TEXT
  5
265
330
17
100
AcDbEntity
  8
0
 62
7
100
AcDbText
 10
203.0
 20
525.5812500000002
 30
0.0
 40
5.5
  1
DI_C4S2_21_Spare
100
AcDbText
  0
TEXT
  5
266
330
17
100
AcDbEntity
  8
0
 62
7
100
AcDbText
 10
583.0
 20
525.5812500000002
 30
0.0
 40
5.5
  1
Spare Reserve Channel
100
AcDbText
  0
TEXT
  5
267
330
17
100
AcDbEntity
  8
0
 62
7
100
AcDbText
 10
1213.0
 20
525.5812500000002
 30
0.0
 40
5.5
  1
IS-JB-612
100
AcDbText
  0
LINE
  5
268
330
17
100
AcDbEntity
  8
0
 62
8
100
AcDbLine
 10
65.70000000000073
 20
503.703125
 30
0.0
 11
1411.5
 21
503.703125
 31
0.0
  0
TEXT
  5
269
330
17
100
AcDbEntity
  8
0
 62
7
100
AcDbText
 10
68.70000000000073
 20
506.703125
 30
0.0
 40
5.5
  1
25
100
AcDbText
  0
TEXT
  5
26A
330
17
100
AcDbEntity
  8
0
 62
7
100
AcDbText
 10
128.0
 20
506.703125
 30
0.0
 40
5.5
  1
IN-22
100
AcDbText
  0
TEXT
  5
26B
330
17
100
AcDbEntity
  8
0
 62
7
100
AcDbText
 10
203.0
 20
506.703125
 30
0.0
 40
5.5
  1
DI_C4S2_22_Spare
100
AcDbText
  0
TEXT
  5
26C
330
17
100
AcDbEntity
  8
0
 62
7
100
AcDbText
 10
583.0
 20
506.703125
 30
0.0
 40
5.5
  1
Spare Reserve Channel
100
AcDbText
  0
TEXT
  5
26D
330
17
100
AcDbEntity
  8
0
 62
7
100
AcDbText
 10
1213.0
 20
506.703125
 30
0.0
 40
5.5
  1
IS-JB-612
100
AcDbText
  0
LINE
  5
26E
330
17
100
AcDbEntity
  8
0
 62
8
100
AcDbLine
 10
65.70000000000073
 20
484.8250000000012
 30
0.0
 11
1411.5
 21
484.8250000000012
 31
0.0
  0
TEXT
  5
26F
330
17
100
AcDbEntity
  8
0
 62
7
100
AcDbText
 10
68.70000000000073
 20
487.8250000000012
 30
0.0
 40
5.5
  1
26
100
AcDbText
  0
TEXT
  5
270
330
17
100
AcDbEntity
  8
0
 62
7
100
AcDbText
 10
128.0
 20
487.8250000000012
 30
0.0
 40
5.5
  1
IN-23
100
AcDbText
  0
TEXT
  5
271
330
17
100
AcDbEntity
  8
0
 62
7
100
AcDbText
 10
203.0
 20
487.8250000000012
 30
0.0
 40
5.5
  1
DI_C4S2_23_Spare
100
AcDbText
  0
TEXT
  5
272
330
17
100
AcDbEntity
  8
0
 62
7
100
AcDbText
 10
583.0
 20
487.8250000000012
 30
0.0
 40
5.5
  1
Spare Reserve Channel
100
AcDbText
  0
TEXT
  5
273
330
17
100
AcDbEntity
  8
0
 62
7
100
AcDbText
 10
1213.0
 20
487.8250000000012
 30
0.0
 40
5.5
  1
IS-JB-612
100
AcDbText
  0
LINE
  5
274
330
17
100
AcDbEntity
  8
0
 62
8
100
AcDbLine
 10
65.70000000000073
 20
465.9468750000001
 30
0.0
 11
1411.5
 21
465.9468750000001
 31
0.0
  0
TEXT
  5
275
330
17
100
AcDbEntity
  8
0
 62
7
100
AcDbText
 10
68.70000000000073
 20
468.9468750000001
 30
0.0
 40
5.5
  1
27
100
AcDbText
  0
TEXT
  5
276
330
17
100
AcDbEntity
  8
0
 62
7
100
AcDbText
 10
128.0
 20
468.9468750000001
 30
0.0
 40
5.5
  1
IN-24
100
AcDbText
  0
TEXT
  5
277
330
17
100
AcDbEntity
  8
0
 62
7
100
AcDbText
 10
203.0
 20
468.9468750000001
 30
0.0
 40
5.5
  1
DI_C4S2_24_Spare
100
AcDbText
  0
TEXT
  5
278
330
17
100
AcDbEntity
  8
0
 62
7
100
AcDbText
 10
583.0
 20
468.9468750000001
 30
0.0
 40
5.5
  1
Spare Reserve Channel
100
AcDbText
  0
TEXT
  5
279
330
17
100
AcDbEntity
  8
0
 62
7
100
AcDbText
 10
1213.0
 20
468.9468750000001
 30
0.0
 40
5.5
  1
IS-JB-612
100
AcDbText
  0
LINE
  5
27A
330
17
100
AcDbEntity
  8
0
 62
8
100
AcDbLine
 10
65.70000000000073
 20
447.0687500000008
 30
0.0
 11
1411.5
 21
447.0687500000008
 31
0.0
  0
TEXT
  5
27B
330
17
100
AcDbEntity
  8
0
 62
7
100
AcDbText
 10
68.70000000000073
 20
450.0687500000008
 30
0.0
 40
5.5
  1
28
100
AcDbText
  0
TEXT
  5
27C
330
17
100
AcDbEntity
  8
0
 62
7
100
AcDbText
 10
128.0
 20
450.0687500000008
 30
0.0
 40
5.5
  1
IN-25
100
AcDbText
  0
TEXT
  5
27D
330
17
100
AcDbEntity
  8
0
 62
7
100
AcDbText
 10
203.0
 20
450.0687500000008
 30
0.0
 40
5.5
  1
DI_C4S2_25_Spare
100
AcDbText
  0
TEXT
  5
27E
330
17
100
AcDbEntity
  8
0
 62
7
100
AcDbText
 10
583.0
 20
450.0687500000008
 30
0.0
 40
5.5
  1
Spare Reserve Channel
100
AcDbText
  0
TEXT
  5
27F
330
17
100
AcDbEntity
  8
0
 62
7
100
AcDbText
 10
1213.0
 20
450.0687500000008
 30
0.0
 40
5.5
  1
IS-JB-612
100
AcDbText
  0
LINE
  5
280
330
17
100
AcDbEntity
  8
0
 62
8
100
AcDbLine
 10
65.70000000000073
 20
428.1906250000002
 30
0.0
 11
1411.5
 21
428.1906250000002
 31
0.0
  0
TEXT
  5
281
330
17
100
AcDbEntity
  8
0
 62
7
100
AcDbText
 10
68.70000000000073
 20
431.1906250000002
 30
0.0
 40
5.5
  1
29
100
AcDbText
  0
TEXT
  5
282
330
17
100
AcDbEntity
  8
0
 62
7
100
AcDbText
 10
128.0
 20
431.1906250000002
 30
0.0
 40
5.5
  1
IN-26
100
AcDbText
  0
TEXT
  5
283
330
17
100
AcDbEntity
  8
0
 62
7
100
AcDbText
 10
203.0
 20
431.1906250000002
 30
0.0
 40
5.5
  1
DI_C4S2_26_Spare
100
AcDbText
  0
TEXT
  5
284
330
17
100
AcDbEntity
  8
0
 62
7
100
AcDbText
 10
583.0
 20
431.1906250000002
 30
0.0
 40
5.5
  1
Spare Reserve Channel
100
AcDbText
  0
TEXT
  5
285
330
17
100
AcDbEntity
  8
0
 62
7
100
AcDbText
 10
1213.0
 20
431.1906250000002
 30
0.0
 40
5.5
  1
IS-JB-612
100
AcDbText
  0
LINE
  5
286
330
17
100
AcDbEntity
  8
0
 62
8
100
AcDbLine
 10
65.70000000000073
 20
409.3125
 30
0.0
 11
1411.5
 21
409.3125
 31
0.0
  0
TEXT
  5
287
330
17
100
AcDbEntity
  8
0
 62
7
100
AcDbText
 10
68.70000000000073
 20
412.3125
 30
0.0
 40
5.5
  1
30
100
AcDbText
  0
TEXT
  5
288
330
17
100
AcDbEntity
  8
0
 62
7
100
AcDbText
 10
128.0
 20
412.3125
 30
0.0
 40
5.5
  1
IN-27
100
AcDbText
  0
TEXT
  5
289
330
17
100
AcDbEntity
  8
0
 62
7
100
AcDbText
 10
203.0
 20
412.3125
 30
0.0
 40
5.5
  1
DI_C4S2_27_Spare
100
AcDbText
  0
TEXT
  5
28A
330
17
100
AcDbEntity
  8
0
 62
7
100
AcDbText
 10
583.0
 20
412.3125
 30
0.0
 40
5.5
  1
Spare Reserve Channel
100
AcDbText
  0
TEXT
  5
28B
330
17
100
AcDbEntity
  8
0
 62
7
100
AcDbText
 10
1213.0
 20
412.3125
 30
0.0
 40
5.5
  1
IS-JB-612
100
AcDbText
  0
LINE
  5
28C
330
17
100
AcDbEntity
  8
0
 62
8
100
AcDbLine
 10
65.70000000000073
 20
390.4343750000012
 30
0.0
 11
1411.5
 21
390.4343750000012
 31
0.0
  0
TEXT
  5
28D
330
17
100
AcDbEntity
  8
0
 62
7
100
AcDbText
 10
68.70000000000073
 20
393.4343750000012
 30
0.0
 40
5.5
  1
31
100
AcDbText
  0
TEXT
  5
28E
330
17
100
AcDbEntity
  8
0
 62
7
100
AcDbText
 10
128.0
 20
393.4343750000012
 30
0.0
 40
5.5
  1
IN-28
100
AcDbText
  0
TEXT
  5
28F
330
17
100
AcDbEntity
  8
0
 62
7
100
AcDbText
 10
203.0
 20
393.4343750000012
 30
0.0
 40
5.5
  1
DI_C4S2_28_Spare
100
AcDbText
  0
TEXT
  5
290
330
17
100
AcDbEntity
  8
0
 62
7
100
AcDbText
 10
583.0
 20
393.4343750000012
 30
0.0
 40
5.5
  1
Spare Reserve Channel
100
AcDbText
  0
TEXT
  5
291
330
17
100
AcDbEntity
  8
0
 62
7
100
AcDbText
 10
1213.0
 20
393.4343750000012
 30
0.0
 40
5.5
  1
IS-JB-612
100
AcDbText
  0
LINE
  5
292
330
17
100
AcDbEntity
  8
0
 62
8
100
AcDbLine
 10
65.70000000000073
 20
371.5562500000001
 30
0.0
 11
1411.5
 21
371.5562500000001
 31
0.0
  0
TEXT
  5
293
330
17
100
AcDbEntity
  8
0
 62
7
100
AcDbText
 10
68.70000000000073
 20
374.5562500000001
 30
0.0
 40
5.5
  1
32
100
AcDbText
  0
TEXT
  5
294
330
17
100
AcDbEntity
  8
0
 62
7
100
AcDbText
 10
128.0
 20
374.5562500000001
 30
0.0
 40
5.5
  1
IN-29
100
AcDbText
  0
TEXT
  5
295
330
17
100
AcDbEntity
  8
0
 62
7
100
AcDbText
 10
203.0
 20
374.5562500000001
 30
0.0
 40
5.5
  1
DI_C4S2_29_Spare
100
AcDbText
  0
TEXT
  5
296
330
17
100
AcDbEntity
  8
0
 62
7
100
AcDbText
 10
583.0
 20
374.5562500000001
 30
0.0
 40
5.5
  1
Spare Reserve Channel
100
AcDbText
  0
TEXT
  5
297
330
17
100
AcDbEntity
  8
0
 62
7
100
AcDbText
 10
1213.0
 20
374.5562500000001
 30
0.0
 40
5.5
  1
IS-JB-612
100
AcDbText
  0
LINE
  5
298
330
17
100
AcDbEntity
  8
0
 62
8
100
AcDbLine
 10
65.70000000000073
 20
352.6781250000008
 30
0.0
 11
1411.5
 21
352.6781250000008
 31
0.0
  0
TEXT
  5
299
330
17
100
AcDbEntity
  8
0
 62
7
100
AcDbText
 10
68.70000000000073
 20
355.6781250000008
 30
0.0
 40
5.5
  1
33
100
AcDbText
  0
TEXT
  5
29A
330
17
100
AcDbEntity
  8
0
 62
7
100
AcDbText
 10
128.0
 20
355.6781250000008
 30
0.0
 40
5.5
  1
IN-30
100
AcDbText
  0
TEXT
  5
29B
330
17
100
AcDbEntity
  8
0
 62
7
100
AcDbText
 10
203.0
 20
355.6781250000008
 30
0.0
 40
5.5
  1
DI_C4S2_30_Spare
100
AcDbText
  0
TEXT
  5
29C
330
17
100
AcDbEntity
  8
0
 62
7
100
AcDbText
 10
583.0
 20
355.6781250000008
 30
0.0
 40
5.5
  1
Spare Reserve Channel
100
AcDbText
  0
TEXT
  5
29D
330
17
100
AcDbEntity
  8
0
 62
7
100
AcDbText
 10
1213.0
 20
355.6781250000008
 30
0.0
 40
5.5
  1
IS-JB-612
100
AcDbText
  0
TEXT
  5
29E
330
17
100
AcDbEntity
  8
0
 62
7
100
AcDbText
 10
68.70000000000073
 20
336.8000000000002
 30
0.0
 40
5.5
  1
34
100
AcDbText
  0
TEXT
  5
29F
330
17
100
AcDbEntity
  8
0
 62
7
100
AcDbText
 10
128.0
 20
336.8000000000002
 30
0.0
 40
5.5
  1
IN-31
100
AcDbText
  0
TEXT
  5
2A0
330
17
100
AcDbEntity
  8
0
 62
7
100
AcDbText
 10
203.0
 20
336.8000000000002
 30
0.0
 40
5.5
  1
DI_C4S2_31_Spare
100
AcDbText
  0
TEXT
  5
2A1
330
17
100
AcDbEntity
  8
0
 62
7
100
AcDbText
 10
583.0
 20
336.8000000000002
 30
0.0
 40
5.5
  1
Spare Reserve Channel
100
AcDbText
  0
TEXT
  5
2A2
330
17
100
AcDbEntity
  8
0
 62
7
100
AcDbText
 10
1213.0
 20
336.8000000000002
 30
0.0
 40
5.5
  1
IS-JB-612
100
AcDbText
  0
TEXT
  5
2A3
330
17
100
AcDbEntity
  8
power
 62
7
100
AcDbText
 10
1691.174529910957
 20
2409.7722145794623
 30
0.0
 40
9.965808239316482
  1
M1
  7
Tahoma
 72
1
 11
1700.1966316615271
 21
2414.7551186991195
 31
0.0
100
AcDbText
 73
2
  0
TEXT
  5
2A4
330
17
100
AcDbEntity
  8
power
 62
7
100
AcDbText
 10
1691.174529910957
 20
2319.7722145794623
 30
0.0
 40
9.965808239316482
  1
M2
  7
Tahoma
 72
1
 11
1700.1966316615271
 21
2324.7551186991195
 31
0.0
100
AcDbText
 73
2
  0
TEXT
  5
2A5
330
17
100
AcDbEntity
  8
power
 62
7
100
AcDbText
 10
1691.174529910957
 20
2229.7722145794623
 30
0.0
 40
9.965808239316482
  1
M3
  7
Tahoma
 72
1
 11
1700.1966316615271
 21
2234.7551186991195
 31
0.0
100
AcDbText
 73
2
  0
TEXT
  5
2A6
330
17
100
AcDbEntity
  8
power
 62
7
100
AcDbText
 10
1691.174529910957
 20
2139.7722145794623
 30
0.0
 40
9.965808239316482
  1
M4
  7
Tahoma
 72
1
 11
1700.1966316615271
 21
2144.7551186991195
 31
0.0
100
AcDbText
 73
2
  0
TEXT
  5
2A7
330
17
100
AcDbEntity
  8
power
 62
7
100
AcDbText
 10
1691.174529910957
 20
2049.7722145794623
 30
0.0
 40
9.965808239316482
  1
M5
  7
Tahoma
 72
1
 11
1700.1966316615271
 21
2054.7551186991195
 31
0.0
100
AcDbText
 73
2
  0
TEXT
  5
2A8
330
17
100
AcDbEntity
  8
power
 62
7
100
AcDbText
 10
1691.174529910957
 20
1959.7722145794623
 30
0.0
 40
9.965808239316482
  1
M6
  7
Tahoma
 72
1
 11
1700.1966316615271
 21
1964.7551186991195
 31
0.0
100
AcDbText
 73
2
  0
TEXT
  5
2A9
330
17
100
AcDbEntity
  8
power
 62
7
100
AcDbText
 10
1691.174529910957
 20
1869.7722145794623
 30
0.0
 40
9.965808239316482
  1
M7
  7
Tahoma
 72
1
 11
1700.1966316615271
 21
1874.7551186991195
 31
0.0
100
AcDbText
 73
2
  0
TEXT
  5
2AA
330
17
100
AcDbEntity
  8
power
 62
7
100
AcDbText
 10
1691.174529910957
 20
1779.7722145794623
 30
0.0
 40
9.965808239316482
  1
M8
  7
Tahoma
 72
1
 11
1700.1966316615271
 21
1784.7551186991195
 31
0.0
100
AcDbText
 73
2
  0
TEXT
  5
2AB
330
17
100
AcDbEntity
  8
power
 62
7
100
AcDbText
 10
1691.174529910957
 20
1689.7722145794623
 30
0.0
 40
9.965808239316482
  1
M9
  7
Tahoma
 72
1
 11
1700.1966316615271
 21
1694.7551186991195
 31
0.0
100
AcDbText
 73
2
  0
TEXT
  5
2AC
330
17
100
AcDbEntity
  8
power
 62
7
100
AcDbText
 10
1687.4331687250778
 20
1599.7722145794623
 30
0.0
 40
9.965808239316482
  1
M10
  7
Tahoma
 72
1
 11
1700.1966316615271
 21
1604.7551186991195
 31
0.0
100
AcDbText
 73
2
  0
TEXT
  5
2AD
330
17
100
AcDbEntity
  8
power
 62
7
100
AcDbText
 10
1687.4331687250778
 20
1509.7722145794623
 30
0.0
 40
9.965808239316482
  1
M11
  7
Tahoma
 72
1
 11
1700.1966316615271
 21
1514.7551186991195
 31
0.0
100
AcDbText
 73
2
  0
TEXT
  5
2AE
330
17
100
AcDbEntity
  8
power
 62
7
100
AcDbText
 10
1687.4331687250778
 20
1419.7722145794633
 30
0.0
 40
9.965808239316482
  1
M12
  7
Tahoma
 72
1
 11
1700.1966316615271
 21
1424.7551186991213
 31
0.0
100
AcDbText
 73
2
  0
TEXT
  5
2AF
330
17
100
AcDbEntity
  8
power
 62
7
100
AcDbText
 10
1687.4331687250778
 20
1329.7722145794633
 30
0.0
 40
9.965808239316482
  1
M13
  7
Tahoma
 72
1
 11
1700.1966316615271
 21
1334.7551186991213
 31
0.0
100
AcDbText
 73
2
  0
TEXT
  5
2B0
330
17
100
AcDbEntity
  8
power
 62
7
100
AcDbText
 10
1687.4331687250778
 20
1239.7722145794633
 30
0.0
 40
9.965808239316482
  1
M14
  7
Tahoma
 72
1
 11
1700.1966316615271
 21
1244.7551186991213
 31
0.0
100
AcDbText
 73
2
  0
TEXT
  5
2B1
330
17
100
AcDbEntity
  8
power
 62
7
100
AcDbText
 10
1687.4331687250778
 20
1149.7722145794633
 30
0.0
 40
9.965808239316482
  1
M15
  7
Tahoma
 72
1
 11
1700.1966316615271
 21
1154.7551186991213
 31
0.0
100
AcDbText
 73
2
  0
TEXT
  5
2B2
330
17
100
AcDbEntity
  8
power
 62
7
100
AcDbText
 10
1687.4331687250778
 20
1059.7722145794628
 30
0.0
 40
9.965808239316482
  1
M16
  7
Tahoma
 72
1
 11
1700.1966316615271
 21
1064.7551186991209
 31
0.0
100
AcDbText
 73
2
  0
INSERT
  5
2B3
330
17
100
AcDbEntity
  8
0
100
AcDbBlockReference
  2
IS_HiC2821-1
 10
1623.0897698024874
 20
2426.4440119289156
 30
0.0
  0
INSERT
  5
2B5
330
17
100
AcDbEntity
  8
0
100
AcDbBlockReference
  2
IS_HiC2821-1
 10
1623.0897698024874
 20
2336.4440119289156
 30
0.0
  0
INSERT
  5
2B7
330
17
100
AcDbEntity
  8
0
100
AcDbBlockReference
  2
IS_HiC2821-1
 10
1623.0897698024874
 20
2246.4440119289156
 30
0.0
  0
INSERT
  5
2B9
330
17
100
AcDbEntity
  8
0
100
AcDbBlockReference
  2
IS_HiC2821-1
 10
1623.0897698024874
 20
2156.4440119289156
 30
0.0
  0
INSERT
  5
2BB
330
17
100
AcDbEntity
  8
0
100
AcDbBlockReference
  2
IS_HiC2821-1
 10
1623.0897698024874
 20
2066.4440119289156
 30
0.0
  0
INSERT
  5
2BD
330
17
100
AcDbEntity
  8
0
100
AcDbBlockReference
  2
IS_HiC2821-1
 10
1623.0897698024874
 20
1976.4440119289156
 30
0.0
  0
INSERT
  5
2BF
330
17
100
AcDbEntity
  8
0
100
AcDbBlockReference
  2
IS_HiC2821-1
 10
1623.0897698024874
 20
1886.4440119289156
 30
0.0
  0
INSERT
  5
2C1
330
17
100
AcDbEntity
  8
0
100
AcDbBlockReference
  2
IS_HiC2821-1
 10
1623.0897698024874
 20
1796.4440119289156
 30
0.0
  0
INSERT
  5
2C3
330
17
100
AcDbEntity
  8
0
100
AcDbBlockReference
  2
IS_HiC2821-1
 10
1623.0897698024874
 20
1706.4440119289156
 30
0.0
  0
INSERT
  5
2C5
330
17
100
AcDbEntity
  8
0
100
AcDbBlockReference
  2
IS_HiC2821-1
 10
1623.0897698024874
 20
1616.4440119289156
 30
0.0
  0
INSERT
  5
2C7
330
17
100
AcDbEntity
  8
0
100
AcDbBlockReference
  2
IS_HiC2821-1
 10
1623.0897698024874
 20
1526.4440119289156
 30
0.0
  0
INSERT
  5
2C9
330
17
100
AcDbEntity
  8
0
100
AcDbBlockReference
  2
IS_HiC2821-1
 10
1623.0897698024874
 20
1436.4440119289156
 30
0.0
  0
INSERT
  5
2CB
330
17
100
AcDbEntity
  8
0
100
AcDbBlockReference
  2
IS_HiC2821-1
 10
1623.0897698024874
 20
1346.4440119289156
 30
0.0
  0
INSERT
  5
2CD
330
17
100
AcDbEntity
  8
0
100
AcDbBlockReference
  2
IS_HiC2821-1
 10
1623.0897698024874
 20
1256.4440119289156
 30
0.0
  0
INSERT
  5
2CF
330
17
100
AcDbEntity
  8
0
100
AcDbBlockReference
  2
IS_HiC2821-1
 10
1623.0897698024874
 20
1166.4440119289156
 30
0.0
  0
INSERT
  5
2D1
330
17
100
AcDbEntity
  8
0
100
AcDbBlockReference
  2
IS_HiC2821-1
 10
1623.0897698024874
 20
1076.444011928916
 30
0.0
  0
LINE
  5
2D3
330
17
100
AcDbEntity
  8
IE-WIRE
 62
4
100
AcDbLine
 10
1292.2139941840815
 20
977.0109543611647
 30
0.0
 11
1389.441481106569
 21
977.0109543611647
 31
0.0
  0
LINE
  5
2D4
330
17
100
AcDbEntity
  8
IE-WIRE
 62
4
 48
25.39999961853027
100
AcDbLine
 10
1284.2139941840815
 20
1704.2338780264636
 30
0.0
 11
1284.2139941840815
 21
985.0109543611647
 31
0.0
  0
LINE
  5
2D5
330
17
100
AcDbEntity
  8
IE-WIRE
 62
4
100
AcDbLine
 10
1406.5806811065668
 20
2395.5263306096476
 30
0.0
 11
1623.0897698024874
 21
2395.5263306096476
 31
0.0
  0
LINE
  5
2D6
330
17
100
AcDbEntity
  8
IE-WIRE
 62
4
100
AcDbLine
 10
1406.5806811065668
 20
2305.5263306096476
 30
0.0
 11
1623.0897698024874
 21
2305.5263306096476
 31
0.0
  0
LINE
  5
2D7
330
17
100
AcDbEntity
  8
IE-WIRE
 62
4
100
AcDbLine
 10
1406.5806811065668
 20
2215.5263306096476
 30
0.0
 11
1623.0897698024874
 21
2215.5263306096476
 31
0.0
  0
LINE
  5
2D8
330
17
100
AcDbEntity
  8
IE-WIRE
 62
4
100
AcDbLine
 10
1406.5806811065668
 20
2125.5263306096476
 30
0.0
 11
1623.0897698024874
 21
2125.5263306096476
 31
0.0
  0
LINE
  5
2D9
330
17
100
AcDbEntity
  8
IE-WIRE
 62
4
100
AcDbLine
 10
1406.5806811065668
 20
2035.5263306096476
 30
0.0
 11
1623.0897698024874
 21
2035.5263306096476
 31
0.0
  0
LINE
  5
2DA
330
17
100
AcDbEntity
  8
IE-WIRE
 62
4
100
AcDbLine
 10
1406.5806811065668
 20
1945.5263306096476
 30
0.0
 11
1623.0897698024874
 21
1945.5263306096476
 31
0.0
  0
LINE
  5
2DB
330
17
100
AcDbEntity
  8
IE-WIRE
 62
4
100
AcDbLine
 10
1406.5806811065668
 20
1855.5263306096476
 30
0.0
 11
1623.0897698024874
 21
1855.5263306096476
 31
0.0
  0
LINE
  5
2DC
330
17
100
AcDbEntity
  8
IE-WIRE
 62
4
100
AcDbLine
 10
1406.5806811065668
 20
1765.5263306096476
 30
0.0
 11
1623.0897698024874
 21
1765.5263306096476
 31
0.0
  0
LINE
  5
2DD
330
17
100
AcDbEntity
  8
IE-WIRE
 62
4
100
AcDbLine
 10
1406.5806811065668
 20
1675.5263306096476
 30
0.0
 11
1623.0897698024874
 21
1675.5263306096476
 31
0.0
  0
LINE
  5
2DE
330
17
100
AcDbEntity
  8
IE-WIRE
 62
4
100
AcDbLine
 10
1406.5806811065668
 20
1585.5263306096476
 30
0.0
 11
1623.0897698024874
 21
1585.5263306096476
 31
0.0
  0
LINE
  5
2DF
330
17
100
AcDbEntity
  8
IE-WIRE
 62
4
100
AcDbLine
 10
1406.5806811065668
 20
1495.5263306096476
 30
0.0
 11
1623.0897698024874
 21
1495.5263306096476
 31
0.0
  0
LINE
  5
2E0
330
17
100
AcDbEntity
  8
IE-WIRE
 62
4
100
AcDbLine
 10
1406.5806811065668
 20
1405.5263306096476
 30
0.0
 11
1623.0897698024874
 21
1405.5263306096476
 31
0.0
  0
LINE
  5
2E1
330
17
100
AcDbEntity
  8
IE-WIRE
 62
4
100
AcDbLine
 10
1406.5806811065668
 20
1315.5263306096476
 30
0.0
 11
1623.0897698024874
 21
1315.5263306096476
 31
0.0
  0
LINE
  5
2E2
330
17
100
AcDbEntity
  8
IE-WIRE
 62
4
100
AcDbLine
 10
1406.5806811065668
 20
1225.5263306096476
 30
0.0
 11
1623.0897698024874
 21
1225.5263306096476
 31
0.0
  0
LINE
  5
2E3
330
17
100
AcDbEntity
  8
IE-WIRE
 62
4
100
AcDbLine
 10
1406.5806811065668
 20
1135.5263306096476
 30
0.0
 11
1623.0897698024874
 21
1135.5263306096476
 31
0.0
  0
LINE
  5
2E4
330
17
100
AcDbEntity
  8
IE-WIRE
 62
4
100
AcDbLine
 10
1406.5806811065668
 20
1045.526330609648
 30
0.0
 11
1623.0897698024874
 21
1045.526330609648
 31
0.0
  0
LINE
  5
2E5
330
17
100
AcDbEntity
  8
IE-WIRE
 62
4
100
AcDbLine
 10
1773.423789117478
 20
2416.138118155827
 30
0.0
 11
2036.4555039844072
 21
2416.138118155827
 31
0.0
  0
LINE
  5
2E6
330
17
100
AcDbEntity
  8
IE-WIRE
 62
4
100
AcDbLine
 10
1773.423789117478
 20
2395.5263306096476
 30
0.0
 11
2036.4555039843472
 21
2395.5263306096476
 31
0.0
  0
LINE
  5
2E7
330
17
100
AcDbEntity
  8
IE-WIRE
 62
4
100
AcDbLine
 10
1773.423789117478
 20
2326.138118155827
 30
0.0
 11
2036.4555039844072
 21
2326.138118155827
 31
0.0
  0
LINE
  5
2E8
330
17
100
AcDbEntity
  8
IE-WIRE
 62
4
100
AcDbLine
 10
1773.423789117478
 20
2305.5263306096476
 30
0.0
 11
2036.4555039843472
 21
2305.5263306096476
 31
0.0
  0
LINE
  5
2E9
330
17
100
AcDbEntity
  8
IE-WIRE
 62
4
100
AcDbLine
 10
1773.423789117478
 20
2236.1381181558263
 30
0.0
 11
2036.4555039844072
 21
2236.1381181558263
 31
0.0
  0
LINE
  5
2EA
330
17
100
AcDbEntity
  8
IE-WIRE
 62
4
100
AcDbLine
 10
1773.423789117478
 20
2215.5263306096476
 30
0.0
 11
2036.4555039843472
 21
2215.5263306096476
 31
0.0
  0
LINE
  5
2EB
330
17
100
AcDbEntity
  8
IE-WIRE
 62
4
100
AcDbLine
 10
1773.423789117478
 20
2146.1381181558263
 30
0.0
 11
2036.4555039844072
 21
2146.1381181558263
 31
0.0
  0
LINE
  5
2EC
330
17
100
AcDbEntity
  8
IE-WIRE
 62
4
100
AcDbLine
 10
1773.423789117478
 20
2125.5263306096476
 30
0.0
 11
2036.4555039843472
 21
2125.5263306096476
 31
0.0
  0
LINE
  5
2ED
330
17
100
AcDbEntity
  8
IE-WIRE
 62
4
100
AcDbLine
 10
1773.423789117478
 20
2056.1381181558263
 30
0.0
 11
2036.4555039844072
 21
2056.1381181558263
 31
0.0
  0
LINE
  5
2EE
330
17
100
AcDbEntity
  8
IE-WIRE
 62
4
100
AcDbLine
 10
1773.423789117478
 20
2035.5263306096476
 30
0.0
 11
2036.4555039843472
 21
2035.5263306096476
 31
0.0
  0
LINE
  5
2EF
330
17
100
AcDbEntity
  8
IE-WIRE
 62
4
100
AcDbLine
 10
1773.423789117478
 20
1966.1381181558263
 30
0.0
 11
2036.4555039844072
 21
1966.1381181558263
 31
0.0
  0
LINE
  5
2F0
330
17
100
AcDbEntity
  8
IE-WIRE
 62
4
100
AcDbLine
 10
1773.423789117478
 20
1945.5263306096476
 30
0.0
 11
2036.4555039843472
 21
1945.5263306096476
 31
0.0
  0
LINE
  5
2F1
330
17
100
AcDbEntity
  8
IE-WIRE
 62
4
100
AcDbLine
 10
1773.423789117478
 20
1876.1381181558263
 30
0.0
 11
2036.4555039844072
 21
1876.1381181558263
 31
0.0
  0
LINE
  5
2F2
330
17
100
AcDbEntity
  8
IE-WIRE
 62
4
100
AcDbLine
 10
1773.423789117478
 20
1855.5263306096476
 30
0.0
 11
2036.4555039843472
 21
1855.5263306096476
 31
0.0
  0
LINE
  5
2F3
330
17
100
AcDbEntity
  8
IE-WIRE
 62
4
100
AcDbLine
 10
1773.423789117478
 20
1786.1381181558263
 30
0.0
 11
2036.4555039844072
 21
1786.1381181558263
 31
0.0
  0
LINE
  5
2F4
330
17
100
AcDbEntity
  8
IE-WIRE
 62
4
100
AcDbLine
 10
1773.423789117478
 20
1765.5263306096476
 30
0.0
 11
2036.4555039843472
 21
1765.5263306096476
 31
0.0
  0
LINE
  5
2F5
330
17
100
AcDbEntity
  8
IE-WIRE
 62
4
100
AcDbLine
 10
1773.423789117478
 20
1696.1381181558263
 30
0.0
 11
2036.4555039844072
 21
1696.1381181558263
 31
0.0
  0
LINE
  5
2F6
330
17
100
AcDbEntity
  8
IE-WIRE
 62
4
100
AcDbLine
 10
1773.423789117478
 20
1675.5263306096476
 30
0.0
 11
2036.4555039843472
 21
1675.5263306096476
 31
0.0
  0
LINE
  5
2F7
330
17
100
AcDbEntity
  8
IE-WIRE
 62
4
100
AcDbLine
 10
1773.423789117478
 20
1606.1381181558263
 30
0.0
 11
2036.4555039844072
 21
1606.1381181558263
 31
0.0
  0
LINE
  5
2F8
330
17
100
AcDbEntity
  8
IE-WIRE
 62
4
100
AcDbLine
 10
1773.423789117478
 20
1585.5263306096476
 30
0.0
 11
2036.4555039843472
 21
1585.5263306096476
 31
0.0
  0
LINE
  5
2F9
330
17
100
AcDbEntity
  8
IE-WIRE
 62
4
100
AcDbLine
 10
1773.423789117478
 20
1516.1381181558263
 30
0.0
 11
2036.4555039844072
 21
1516.1381181558263
 31
0.0
  0
LINE
  5
2FA
330
17
100
AcDbEntity
  8
IE-WIRE
 62
4
100
AcDbLine
 10
1773.423789117478
 20
1495.5263306096476
 30
0.0
 11
2036.4555039843472
 21
1495.5263306096476
 31
0.0
  0
LINE
  5
2FB
330
17
100
AcDbEntity
  8
IE-WIRE
 62
4
100
AcDbLine
 10
1773.423789117478
 20
1426.1381181558272
 30
0.0
 11
2036.4555039844072
 21
1426.1381181558272
 31
0.0
  0
LINE
  5
2FC
330
17
100
AcDbEntity
  8
IE-WIRE
 62
4
100
AcDbLine
 10
1773.423789117478
 20
1405.5263306096476
 30
0.0
 11
2036.4555039843472
 21
1405.5263306096476
 31
0.0
  0
LINE
  5
2FD
330
17
100
AcDbEntity
  8
IE-WIRE
 62
4
100
AcDbLine
 10
1773.423789117478
 20
1336.1381181558272
 30
0.0
 11
2036.4555039844072
 21
1336.1381181558272
 31
0.0
  0
LINE
  5
2FE
330
17
100
AcDbEntity
  8
IE-WIRE
 62
4
100
AcDbLine
 10
1773.423789117478
 20
1315.5263306096476
 30
0.0
 11
2036.4555039843472
 21
1315.5263306096476
 31
0.0
  0
LINE
  5
2FF
330
17
100
AcDbEntity
  8
IE-WIRE
 62
4
100
AcDbLine
 10
1773.423789117478
 20
1246.1381181558272
 30
0.0
 11
2036.4555039844072
 21
1246.1381181558272
 31
0.0
  0
LINE
  5
300
330
17
100
AcDbEntity
  8
IE-WIRE
 62
4
100
AcDbLine
 10
1773.423789117478
 20
1225.5263306096476
 30
0.0
 11
2036.4555039843472
 21
1225.5263306096476
 31
0.0
  0
LINE
  5
301
330
17
100
AcDbEntity
  8
IE-WIRE
 62
4
100
AcDbLine
 10
1773.423789117478
 20
1156.1381181558272
 30
0.0
 11
2036.4555039844072
 21
1156.1381181558272
 31
0.0
  0
LINE
  5
302
330
17
100
AcDbEntity
  8
IE-WIRE
 62
4
100
AcDbLine
 10
1773.423789117478
 20
1135.5263306096476
 30
0.0
 11
2036.4555039843472
 21
1135.5263306096476
 31
0.0
  0
LINE
  5
303
330
17
100
AcDbEntity
  8
IE-WIRE
 62
4
100
AcDbLine
 10
1773.423789117478
 20
1066.1381181558268
 30
0.0
 11
2036.4555039844072
 21
1066.1381181558268
 31
0.0
  0
LINE
  5
304
330
17
100
AcDbEntity
  8
IE-WIRE
 62
4
100
AcDbLine
 10
1773.423789117478
 20
1045.526330609648
 30
0.0
 11
2036.4555039843472
 21
1045.526330609648
 31
0.0
  0
TEXT
  5
305
330
17
100
AcDbEntity
  8
0
 62
4
100
AcDbText
 10
2238.938136377308
 20
2409.3673638472574
 30
0.0
 40
9.948672000000002
  1
IS-JB612-TBDI21-1B/P4-SIDI2-M1-4
  7
Tahoma
100
AcDbText
  0
TEXT
  5
306
330
17
100
AcDbEntity
  8
0
 62
4
100
AcDbText
 10
1785.2008594699073
 20
2422.426301578207
 30
0.0
 40
9.948672000000002
  1
P4-SIDI2-M1-1/IS-JB612-TBDI21-1A
  7
Tahoma
100
AcDbText
  0
TEXT
  5
307
330
17
100
AcDbEntity
  8
0
 62
4
100
AcDbText
 10
1785.2008594699073
 20
2401.814514032033
 30
0.0
 40
9.948672000000002
  1
P4-SIDI2-M1-4/IS-JB612-TBDI21-1B
  7
Tahoma
100
AcDbText
  0
TEXT
  5
308
330
17
100
AcDbEntity
  8
0
 62
4
100
AcDbText
 10
1436.1287808468242
 20
2402.452200974757
 30
0.0
 40
9.948672000000002
  1
P4-SIDI2-M1-14/C4S2-1
  7
Tahoma
100
AcDbText
  0
TEXT
  5
309
330
17
100
AcDbEntity
  8
0
 62
4
100
AcDbText
 10
1436.1287808468242
 20
2312.452200974757
 30
0.0
 40
9.948672000000002
  1
P4-SIDI2-M2-14/C4S2-1
  7
Tahoma
100
AcDbText
  0
LINE
  5
30A
330
17
100
AcDbEntity
  8
x01001-FrameArea
100
AcDbLine
 10
286.65137384835907
 20
2301.402292606229
 30
0.0
 11
814.0891717655595
 21
2373.146341022978
 31
0.0
  0
LINE
  5
30B
330
17
100
AcDbEntity
  8
x01001-FrameArea
100
AcDbLine
 10
814.0891717655595
 20
2373.146341022978
 30
0.0
 11
721.0439194236478
 21
2304.331623145107
 31
0.0
  0
LINE
  5
30C
330
17
100
AcDbEntity
  8
x01001-FrameArea
100
AcDbLine
 10
721.0439194236478
 20
2304.331623145107
 30
0.0
 11
1269.64546485569
 21
2377.8460680941225
 31
0.0
  0
LINE
  5
30D
330
17
100
AcDbEntity
  8
x01001-FrameArea
100
AcDbLine
 10
1269.64546485569
 20
1799.241741763787
 30
0.0
 11
1269.64546485569
 21
2377.8460680941225
 31
0.0
  0
LINE
  5
30E
330
17
100
AcDbEntity
  8
x01001-FrameArea
100
AcDbLine
 10
1269.64546485569
 20
1799.241741763787
 30
0.0
 11
286.65137384835907
 21
1799.241741763787
 31
0.0
  0
LINE
  5
30F
330
17
100
AcDbEntity
  8
x01001-FrameArea
100
AcDbLine
 10
286.65137384835907
 20
2301.402292606229
 30
0.0
 11
286.65137384835907
 21
1799.241741763787
 31
0.0
  0
LINE
  5
310
330
17
100
AcDbEntity
  8
IE-WIRE
 62
7
 48
25.39999961853027
100
AcDbLine
 10
1241.4047128676757
 20
1712.2338780264636
 30
0.0
 11
1241.4047128676611
 21
1646.153100153364
 31
0.0
  0
LINE
  5
311
330
17
100
AcDbEntity
  8
IE-WIRE
 62
4
 48
25.39999961853027
100
AcDbLine
 10
1217.3230452898079
 20
1791.8467743991014
 30
0.0
 11
1217.3230452898079
 21
1721.373078026464
 31
0.0
  0
LINE
  5
312
330
17
100
AcDbEntity
  8
IE-WIRE
 62
7
 48
25.39999961853027
100
AcDbLine
 10
314.89212583635526
 20
1791.8467743991014
 30
0.0
 11
314.892125836388
 21
1646.1531001533676
 31
0.0
  0
LINE
  5
313
330
17
100
AcDbEntity
  8
IE-WIRE
 62
4
 48
25.39999961853027
100
AcDbLine
 10
338.9737934142413
 20
1791.8467743991014
 30
0.0
 11
338.9737934142413
 21
1721.373078026464
 31
0.0
  0
TEXT
  5
314
330
17
100
AcDbEntity
  8
0
 62
4
100
AcDbText
 10
365.79757853485717
 20
2221.127566998558
 30
0.0
 40
9.948672000000002
  1
C4S2-2/P4-SIDI2-M2-14
  7
Tahoma
100
AcDbText
  0
TEXT
  5
315
330
17
100
AcDbEntity
  8
0
 62
4
100
AcDbText
 10
365.79757853485717
 20
2171.4947385590967
 30
0.0
 40
9.948672000000002
  1
C4S2-2/P4-SIDI2-M2-14
  7
Tahoma
100
AcDbText
  0
TEXT
  5
316
330
17
100
AcDbEntity
  8
0
 62
4
100
AcDbText
 10
365.79757853485717
 20
2121.8619101196946
 30
0.0
 40
9.948672000000002
  1
C4S2-2/P4-SIDI2-M2-14
  7
Tahoma
100
AcDbText
  0
TEXT
  5
317
330
17
100
AcDbEntity
  8
0
 62
4
100
AcDbText
 10
365.79757853485717
 20
2072.229081680235
 30
0.0
 40
9.948672000000002
  1
C4S2-2/P4-SIDI2-M2-14
  7
Tahoma
100
AcDbText
  0
TEXT
  5
318
330
17
100
AcDbEntity
  8
0
 62
4
100
AcDbText
 10
365.79757853485717
 20
2022.596253240773
 30
0.0
 40
9.948672000000002
  1
C4S2-2/P4-SIDI2-M2-14
  7
Tahoma
100
AcDbText
  0
TEXT
  5
319
330
17
100
AcDbEntity
  8
0
 62
4
100
AcDbText
 10
365.79757853485717
 20
1972.9634248013135
 30
0.0
 40
9.948672000000002
  1
C4S2-2/P4-SIDI2-M2-14
  7
Tahoma
100
AcDbText
  0
TEXT
  5
31A
330
17
100
AcDbEntity
  8
0
 62
4
100
AcDbText
 10
365.79757853485717
 20
1923.3305963618513
 30
0.0
 40
9.948672000000002
  1
C4S2-2/P4-SIDI2-M2-14
  7
Tahoma
100
AcDbText
  0
TEXT
  5
31B
330
17
100
AcDbEntity
  8
0
 62
4
100
AcDbText
 10
1048.267930147791
 20
2221.4591607631173
 30
0.0
 40
9.948672000000002
  1
C4S2-1/P4-SIDI2-M1-14
  7
Tahoma
100
AcDbText
  0
TEXT
  5
31C
330
17
100
AcDbEntity
  8
0
 62
4
100
AcDbText
 10
1048.267930147791
 20
2171.826332323656
 30
0.0
 40
9.948672000000002
  1
C4S2-1/P4-SIDI2-M1-14
  7
Tahoma
100
AcDbText
  0
TEXT
  5
31D
330
17
100
AcDbEntity
  8
0
 62
4
100
AcDbText
 10
1048.267930147791
 20
2122.193503884253
 30
0.0
 40
9.948672000000002
  1
C4S2-1/P4-SIDI2-M1-14
  7
Tahoma
100
AcDbText
  0
TEXT
  5
31E
330
17
100
AcDbEntity
  8
0
 62
4
100
AcDbText
 10
1048.267930147791
 20
2072.5606754447954
 30
0.0
 40
9.948672000000002
  1
C4S2-1/P4-SIDI2-M1-14
  7
Tahoma
100
AcDbText
  0
TEXT
  5
31F
330
17
100
AcDbEntity
  8
0
 62
4
100
AcDbText
 10
1048.267930147791
 20
2022.9278470053323
 30
0.0
 40
9.948672000000002
  1
C4S2-1/P4-SIDI2-M1-14
  7
Tahoma
100
AcDbText
  0
TEXT
  5
320
330
17
100
AcDbEntity
  8
0
 62
4
100
AcDbText
 10
1048.267930147791
 20
1973.2950185658729
 30
0.0
 40
9.948672000000002
  1
C4S2-1/P4-SIDI2-M1-14
  7
Tahoma
100
AcDbText
  0
TEXT
  5
321
330
17
100
AcDbEntity
  8
0
 62
4
100
AcDbText
 10
1048.267930147791
 20
1923.6621901264098
 30
0.0
 40
9.948672000000002
  1
C4S2-1/P4-SIDI2-M1-14
  7
Tahoma
100
AcDbText
  0
TEXT
  5
322
330
17
100
AcDbEntity
  8
0
 62
4
100
AcDbText
 10
1436.1287808468242
 20
2222.452200974757
 30
0.0
 40
9.948672000000002
  1
P4-SIDI2-M2-14/C4S2-1
  7
Tahoma
100
AcDbText
  0
TEXT
  5
323
330
17
100
AcDbEntity
  8
0
 62
4
100
AcDbText
 10
1436.1287808468242
 20
2132.452200974757
 30
0.0
 40
9.948672000000002
  1
P4-SIDI2-M2-14/C4S2-1
  7
Tahoma
100
AcDbText
  0
TEXT
  5
324
330
17
100
AcDbEntity
  8
0
 62
4
100
AcDbText
 10
1436.1287808468242
 20
2042.452200974757
 30
0.0
 40
9.948672000000002
  1
P4-SIDI2-M2-14/C4S2-1
  7
Tahoma
100
AcDbText
  0
TEXT
  5
325
330
17
100
AcDbEntity
  8
0
 62
4
100
AcDbText
 10
1436.1287808468242
 20
1952.452200974757
 30
0.0
 40
9.948672000000002
  1
P4-SIDI2-M2-14/C4S2-1
  7
Tahoma
100
AcDbText
  0
TEXT
  5
326
330
17
100
AcDbEntity
  8
0
 62
4
100
AcDbText
 10
1436.1287808468242
 20
1862.452200974757
 30
0.0
 40
9.948672000000002
  1
P4-SIDI2-M2-14/C4S2-1
  7
Tahoma
100
AcDbText
  0
TEXT
  5
327
330
17
100
AcDbEntity
  8
0
 62
4
100
AcDbText
 10
1436.1287808468242
 20
1772.452200974757
 30
0.0
 40
9.948672000000002
  1
P4-SIDI2-M2-14/C4S2-1
  7
Tahoma
100
AcDbText
  0
TEXT
  5
328
330
17
100
AcDbEntity
  8
0
 62
4
100
AcDbText
 10
1436.1287808468242
 20
1682.452200974757
 30
0.0
 40
9.948672000000002
  1
P4-SIDI2-M2-14/C4S2-1
  7
Tahoma
100
AcDbText
  0
TEXT
  5
329
330
17
100
AcDbEntity
  8
0
 62
4
100
AcDbText
 10
1436.1287808468242
 20
1592.452200974757
 30
0.0
 40
9.948672000000002
  1
P4-SIDI2-M2-14/C4S2-1
  7
Tahoma
100
AcDbText
  0
TEXT
  5
32A
330
17
100
AcDbEntity
  8
0
 62
4
100
AcDbText
 10
1436.1287808468242
 20
1502.452200974757
 30
0.0
 40
9.948672000000002
  1
P4-SIDI2-M2-14/C4S2-1
  7
Tahoma
100
AcDbText
  0
TEXT
  5
32B
330
17
100
AcDbEntity
  8
0
 62
4
100
AcDbText
 10
1436.1287808468242
 20
1412.452200974757
 30
0.0
 40
9.948672000000002
  1
P4-SIDI2-M2-14/C4S2-1
  7
Tahoma
100
AcDbText
  0
TEXT
  5
32C
330
17
100
AcDbEntity
  8
0
 62
4
100
AcDbText
 10
1436.1287808468242
 20
1322.452200974757
 30
0.0
 40
9.948672000000002
  1
P4-SIDI2-M2-14/C4S2-1
  7
Tahoma
100
AcDbText
  0
TEXT
  5
32D
330
17
100
AcDbEntity
  8
0
 62
4
100
AcDbText
 10
1436.1287808468242
 20
1232.452200974757
 30
0.0
 40
9.948672000000002
  1
P4-SIDI2-M2-14/C4S2-1
  7
Tahoma
100
AcDbText
  0
TEXT
  5
32E
330
17
100
AcDbEntity
  8
0
 62
4
100
AcDbText
 10
1436.1287808468242
 20
1142.452200974757
 30
0.0
 40
9.948672000000002
  1
P4-SIDI2-M2-14/C4S2-1
  7
Tahoma
100
AcDbText
  0
TEXT
  5
32F
330
17
100
AcDbEntity
  8
0
 62
4
100
AcDbText
 10
1436.1287808468242
 20
1052.452200974757
 30
0.0
 40
9.948672000000002
  1
P4-SIDI2-M2-14/C4S2-1
  7
Tahoma
100
AcDbText
  0
TEXT
  5
330
330
17
100
AcDbEntity
  8
0
 62
4
100
AcDbText
 10
1785.2008594699073
 20
2332.426301578207
 30
0.0
 40
9.948672000000002
  1
P4-SIDI2-M1-1/IS-JB612-TBDI21-1A
  7
Tahoma
100
AcDbText
  0
TEXT
  5
331
330
17
100
AcDbEntity
  8
0
 62
4
100
AcDbText
 10
1785.2008594699073
 20
2311.814514032033
 30
0.0
 40
9.948672000000002
  1
P4-SIDI2-M1-4/IS-JB612-TBDI21-1B
  7
Tahoma
100
AcDbText
  0
TEXT
  5
332
330
17
100
AcDbEntity
  8
0
 62
4
100
AcDbText
 10
1785.2008594699073
 20
2242.426301578207
 30
0.0
 40
9.948672000000002
  1
P4-SIDI2-M1-1/IS-JB612-TBDI21-1A
  7
Tahoma
100
AcDbText
  0
TEXT
  5
333
330
17
100
AcDbEntity
  8
0
 62
4
100
AcDbText
 10
1785.2008594699073
 20
2221.814514032033
 30
0.0
 40
9.948672000000002
  1
P4-SIDI2-M1-4/IS-JB612-TBDI21-1B
  7
Tahoma
100
AcDbText
  0
TEXT
  5
334
330
17
100
AcDbEntity
  8
0
 62
4
100
AcDbText
 10
1785.2008594699073
 20
2152.426301578207
 30
0.0
 40
9.948672000000002
  1
P4-SIDI2-M1-1/IS-JB612-TBDI21-1A
  7
Tahoma
100
AcDbText
  0
TEXT
  5
335
330
17
100
AcDbEntity
  8
0
 62
4
100
AcDbText
 10
1785.2008594699073
 20
2131.814514032033
 30
0.0
 40
9.948672000000002
  1
P4-SIDI2-M1-4/IS-JB612-TBDI21-1B
  7
Tahoma
100
AcDbText
  0
TEXT
  5
336
330
17
100
AcDbEntity
  8
0
 62
4
100
AcDbText
 10
1785.2008594699073
 20
2062.426301578207
 30
0.0
 40
9.948672000000002
  1
P4-SIDI2-M1-1/IS-JB612-TBDI21-1A
  7
Tahoma
100
AcDbText
  0
TEXT
  5
337
330
17
100
AcDbEntity
  8
0
 62
4
100
AcDbText
 10
1785.2008594699073
 20
2041.814514032033
 30
0.0
 40
9.948672000000002
  1
P4-SIDI2-M1-4/IS-JB612-TBDI21-1B
  7
Tahoma
100
AcDbText
  0
TEXT
  5
338
330
17
100
AcDbEntity
  8
0
 62
4
100
AcDbText
 10
1785.2008594699073
 20
1972.4263015782071
 30
0.0
 40
9.948672000000002
  1
P4-SIDI2-M1-1/IS-JB612-TBDI21-1A
  7
Tahoma
100
AcDbText
  0
TEXT
  5
339
330
17
100
AcDbEntity
  8
0
 62
4
100
AcDbText
 10
1785.2008594699073
 20
1951.814514032033
 30
0.0
 40
9.948672000000002
  1
P4-SIDI2-M1-4/IS-JB612-TBDI21-1B
  7
Tahoma
100
AcDbText
  0
TEXT
  5
33A
330
17
100
AcDbEntity
  8
0
 62
4
100
AcDbText
 10
1785.2008594699073
 20
1882.4263015782071
 30
0.0
 40
9.948672000000002
  1
P4-SIDI2-M1-1/IS-JB612-TBDI21-1A
  7
Tahoma
100
AcDbText
  0
TEXT
  5
33B
330
17
100
AcDbEntity
  8
0
 62
4
100
AcDbText
 10
1785.2008594699073
 20
1861.814514032033
 30
0.0
 40
9.948672000000002
  1
P4-SIDI2-M1-4/IS-JB612-TBDI21-1B
  7
Tahoma
100
AcDbText
  0
TEXT
  5
33C
330
17
100
AcDbEntity
  8
0
 62
4
100
AcDbText
 10
1785.2008594699073
 20
1792.4263015782071
 30
0.0
 40
9.948672000000002
  1
P4-SIDI2-M1-1/IS-JB612-TBDI21-1A
  7
Tahoma
100
AcDbText
  0
TEXT
  5
33D
330
17
100
AcDbEntity
  8
0
 62
4
100
AcDbText
 10
1785.2008594699073
 20
1771.814514032033
 30
0.0
 40
9.948672000000002
  1
P4-SIDI2-M1-4/IS-JB612-TBDI21-1B
  7
Tahoma
100
AcDbText
  0
TEXT
  5
33E
330
17
100
AcDbEntity
  8
0
 62
4
100
AcDbText
 10
1785.2008594699073
 20
1702.4263015782071
 30
0.0
 40
9.948672000000002
  1
P4-SIDI2-M1-1/IS-JB612-TBDI21-1A
  7
Tahoma
100
AcDbText
  0
TEXT
  5
33F
330
17
100
AcDbEntity
  8
0
 62
4
100
AcDbText
 10
1785.2008594699073
 20
1681.814514032033
 30
0.0
 40
9.948672000000002
  1
P4-SIDI2-M1-4/IS-JB612-TBDI21-1B
  7
Tahoma
100
AcDbText
  0
TEXT
  5
340
330
17
100
AcDbEntity
  8
0
 62
4
100
AcDbText
 10
1785.2008594699073
 20
1612.4263015782071
 30
0.0
 40
9.948672000000002
  1
P4-SIDI2-M1-1/IS-JB612-TBDI21-1A
  7
Tahoma
100
AcDbText
  0
TEXT
  5
341
330
17
100
AcDbEntity
  8
0
 62
4
100
AcDbText
 10
1785.2008594699073
 20
1591.814514032033
 30
0.0
 40
9.948672000000002
  1
P4-SIDI2-M1-4/IS-JB612-TBDI21-1B
  7
Tahoma
100
AcDbText
  0
TEXT
  5
342
330
17
100
AcDbEntity
  8
0
 62
4
100
AcDbText
 10
1785.2008594699073
 20
1522.4263015782071
 30
0.0
 40
9.948672000000002
  1
P4-SIDI2-M1-1/IS-JB612-TBDI21-1A
  7
Tahoma
100
AcDbText
  0
TEXT
  5
343
330
17
100
AcDbEntity
  8
0
 62
4
100
AcDbText
 10
1785.2008594699073
 20
1501.814514032033
 30
0.0
 40
9.948672000000002
  1
P4-SIDI2-M1-4/IS-JB612-TBDI21-1B
  7
Tahoma
100
AcDbText
  0
TEXT
  5
344
330
17
100
AcDbEntity
  8
0
 62
4
100
AcDbText
 10
1785.2008594699073
 20
1432.4263015782071
 30
0.0
 40
9.948672000000002
  1
P4-SIDI2-M1-1/IS-JB612-TBDI21-1A
  7
Tahoma
100
AcDbText
  0
TEXT
  5
345
330
17
100
AcDbEntity
  8
0
 62
4
100
AcDbText
 10
1785.2008594699073
 20
1411.814514032033
 30
0.0
 40
9.948672000000002
  1
P4-SIDI2-M1-4/IS-JB612-TBDI21-1B
  7
Tahoma
100
AcDbText
  0
TEXT
  5
346
330
17
100
AcDbEntity
  8
0
 62
4
100
AcDbText
 10
1785.2008594699073
 20
1342.4263015782071
 30
0.0
 40
9.948672000000002
  1
P4-SIDI2-M1-1/IS-JB612-TBDI21-1A
  7
Tahoma
100
AcDbText
  0
TEXT
  5
347
330
17
100
AcDbEntity
  8
0
 62
4
100
AcDbText
 10
1785.2008594699073
 20
1321.814514032033
 30
0.0
 40
9.948672000000002
  1
P4-SIDI2-M1-4/IS-JB612-TBDI21-1B
  7
Tahoma
100
AcDbText
  0
TEXT
  5
348
330
17
100
AcDbEntity
  8
0
 62
4
100
AcDbText
 10
1785.2008594699073
 20
1252.4263015782071
 30
0.0
 40
9.948672000000002
  1
P4-SIDI2-M1-1/IS-JB612-TBDI21-1A
  7
Tahoma
100
AcDbText
  0
TEXT
  5
349
330
17
100
AcDbEntity
  8
0
 62
4
100
AcDbText
 10
1785.2008594699073
 20
1231.814514032033
 30
0.0
 40
9.948672000000002
  1
P4-SIDI2-M1-4/IS-JB612-TBDI21-1B
  7
Tahoma
100
AcDbText
  0
TEXT
  5
34A
330
17
100
AcDbEntity
  8
0
 62
4
100
AcDbText
 10
1785.2008594699073
 20
1162.4263015782071
 30
0.0
 40
9.948672000000002
  1
P4-SIDI2-M1-1/IS-JB612-TBDI21-1A
  7
Tahoma
100
AcDbText
  0
TEXT
  5
34B
330
17
100
AcDbEntity
  8
0
 62
4
100
AcDbText
 10
1785.2008594699073
 20
1141.814514032033
 30
0.0
 40
9.948672000000002
  1
P4-SIDI2-M1-4/IS-JB612-TBDI21-1B
  7
Tahoma
100
AcDbText
  0
TEXT
  5
34C
330
17
100
AcDbEntity
  8
0
 62
4
100
AcDbText
 10
1785.2008594699073
 20
1072.4263015782071
 30
0.0
 40
9.948672000000002
  1
P4-SIDI2-M1-1/IS-JB612-TBDI21-1A
  7
Tahoma
100
AcDbText
  0
TEXT
  5
34D
330
17
100
AcDbEntity
  8
0
 62
4
100
AcDbText
 10
1785.2008594699073
 20
1051.814514032033
 30
0.0
 40
9.948672000000002
  1
P4-SIDI2-M1-4/IS-JB612-TBDI21-1B
  7
Tahoma
100
AcDbText
  0
TEXT
  5
34E
330
17
100
AcDbEntity
  8
0
 62
4
100
AcDbText
 10
2238.938136377308
 20
2388.7555763010823
 30
0.0
 40
9.948672000000002
  1
IS-JB612-TBDI21-1A/P4-SIDI2-M1-1
  7
Tahoma
100
AcDbText
  0
TEXT
  5
34F
330
17
100
AcDbEntity
  8
0
 62
4
100
AcDbText
 10
2238.938136377308
 20
2368.143788754909
 30
0.0
 40
9.948672000000002
  1
IS-JB612-TBDI21-1B/P4-SIDI2-M1-4
  7
Tahoma
100
AcDbText
  0
TEXT
  5
350
330
17
100
AcDbEntity
  8
0
 62
4
100
AcDbText
 10
2238.938136377308
 20
2347.532001208735
 30
0.0
 40
9.948672000000002
  1
IS-JB612-TBDI21-1A/P4-SIDI2-M1-1
  7
Tahoma
100
AcDbText
  0
TEXT
  5
351
330
17
100
AcDbEntity
  8
0
 62
4
100
AcDbText
 10
2238.938136377308
 20
2326.920213662561
 30
0.0
 40
9.948672000000002
  1
IS-JB612-TBDI21-1B/P4-SIDI2-M1-4
  7
Tahoma
100
AcDbText
  0
TEXT
  5
352
330
17
100
AcDbEntity
  8
0
 62
4
100
AcDbText
 10
2238.938136377308
 20
2306.308426116386
 30
0.0
 40
9.948672000000002
  1
IS-JB612-TBDI21-1A/P4-SIDI2-M1-1
  7
Tahoma
100
AcDbText
  0
TEXT
  5
353
330
17
100
AcDbEntity
  8
0
 62
4
100
AcDbText
 10
2238.938136377308
 20
2285.696638570211
 30
0.0
 40
9.948672000000002
  1
IS-JB612-TBDI21-1B/P4-SIDI2-M1-4
  7
Tahoma
100
AcDbText
  0
TEXT
  5
354
330
17
100
AcDbEntity
  8
0
 62
4
100
AcDbText
 10
2238.938136377308
 20
2265.0848510240357
 30
0.0
 40
9.948672000000002
  1
IS-JB612-TBDI21-1A/P4-SIDI2-M1-1
  7
Tahoma
100
AcDbText
  0
TEXT
  5
355
330
17
100
AcDbEntity
  8
0
 62
4
100
AcDbText
 10
2238.938136377308
 20
2244.4730634778625
 30
0.0
 40
9.948672000000002
  1
IS-JB612-TBDI21-1B/P4-SIDI2-M1-4
  7
Tahoma
100
AcDbText
  0
TEXT
  5
356
330
17
100
AcDbEntity
  8
0
 62
4
100
AcDbText
 10
2238.938136377308
 20
2223.8612759316893
 30
0.0
 40
9.948672000000002
  1
IS-JB612-TBDI21-1A/P4-SIDI2-M1-1
  7
Tahoma
100
AcDbText
  0
TEXT
  5
357
330
17
100
AcDbEntity
  8
0
 62
4
100
AcDbText
 10
2238.938136377308
 20
2203.2494883855143
 30
0.0
 40
9.948672000000002
  1
IS-JB612-TBDI21-1B/P4-SIDI2-M1-4
  7
Tahoma
100
AcDbText
  0
TEXT
  5
358
330
17
100
AcDbEntity
  8
0
 62
4
100
AcDbText
 10
2238.938136377308
 20
2182.6377008393392
 30
0.0
 40
9.948672000000002
  1
IS-JB612-TBDI21-1A/P4-SIDI2-M1-1
  7
Tahoma
100
AcDbText
  0
TEXT
  5
359
330
17
100
AcDbEntity
  8
0
 62
4
100
AcDbText
 10
2238.938136377308
 20
2162.025913293165
 30
0.0
 40
9.948672000000002
  1
IS-JB612-TBDI21-1B/P4-SIDI2-M1-4
  7
Tahoma
100
AcDbText
  0
TEXT
  5
35A
330
17
100
AcDbEntity
  8
0
 62
4
100
AcDbText
 10
2238.938136377308
 20
2141.414125746991
 30
0.0
 40
9.948672000000002
  1
IS-JB612-TBDI21-1A/P4-SIDI2-M1-1
  7
Tahoma
100
AcDbText
  0
TEXT
  5
35B
330
17
100
AcDbEntity
  8
0
 62
4
100
AcDbText
 10
2238.938136377308
 20
2120.802338200817
 30
0.0
 40
9.948672000000002
  1
IS-JB612-TBDI21-1B/P4-SIDI2-M1-4
  7
Tahoma
100
AcDbText
  0
TEXT
  5
35C
330
17
100
AcDbEntity
  8
0
 62
4
100
AcDbText
 10
2238.938136377308
 20
2100.190550654641
 30
0.0
 40
9.948672000000002
  1
IS-JB612-TBDI21-1A/P4-SIDI2-M1-1
  7
Tahoma
100
AcDbText
  0
TEXT
  5
35D
330
17
100
AcDbEntity
  8
0
 62
4
100
AcDbText
 10
2238.938136377308
 20
2079.578763108467
 30
0.0
 40
9.948672000000002
  1
IS-JB612-TBDI21-1B/P4-SIDI2-M1-4
  7
Tahoma
100
AcDbText
  0
TEXT
  5
35E
330
17
100
AcDbEntity
  8
0
 62
4
100
AcDbText
 10
2238.938136377308
 20
2058.9669755622926
 30
0.0
 40
9.948672000000002
  1
IS-JB612-TBDI21-1A/P4-SIDI2-M1-1
  7
Tahoma
100
AcDbText
  0
TEXT
  5
35F
330
17
100
AcDbEntity
  8
0
 62
4
100
AcDbText
 10
2238.938136377308
 20
2038.3551880161185
 30
0.0
 40
9.948672000000002
  1
IS-JB612-TBDI21-1B/P4-SIDI2-M1-4
  7
Tahoma
100
AcDbText
  0
TEXT
  5
360
330
17
100
AcDbEntity
  8
0
 62
4
100
AcDbText
 10
2238.938136377308
 20
2017.7434004699444
 30
0.0
 40
9.948672000000002
  1
IS-JB612-TBDI21-1A/P4-SIDI2-M1-1
  7
Tahoma
100
AcDbText
  0
TEXT
  5
361
330
17
100
AcDbEntity
  8
0
 62
4
100
AcDbText
 10
2238.938136377308
 20
1997.1316129237703
 30
0.0
 40
9.948672000000002
  1
IS-JB612-TBDI21-1B/P4-SIDI2-M1-4
  7
Tahoma
100
AcDbText
  0
TEXT
  5
362
330
17
100
AcDbEntity
  8
0
 62
4
100
AcDbText
 10
2238.938136377308
 20
1976.5198253775961
 30
0.0
 40
9.948672000000002
  1
IS-JB612-TBDI21-1A/P4-SIDI2-M1-1
  7
Tahoma
100
AcDbText
  0
TEXT
  5
363
330
17
100
AcDbEntity
  8
0
 62
4
100
AcDbText
 10
2238.938136377308
 20
1955.908037831422
 30
0.0
 40
9.948672000000002
  1
IS-JB612-TBDI21-1B/P4-SIDI2-M1-4
  7
Tahoma
100
AcDbText
  0
TEXT
  5
364
330
17
100
AcDbEntity
  8
0
 62
4
100
AcDbText
 10
2238.938136377308
 20
1935.296250285246
 30
0.0
 40
9.948672000000002
  1
IS-JB612-TBDI21-1A/P4-SIDI2-M1-1
  7
Tahoma
100
AcDbText
  0
TEXT
  5
365
330
17
100
AcDbEntity
  8
0
 62
4
100
AcDbText
 10
2238.938136377308
 20
1914.684462739072
 30
0.0
 40
9.948672000000002
  1
IS-JB612-TBDI21-1B/P4-SIDI2-M1-4
  7
Tahoma
100
AcDbText
  0
TEXT
  5
366
330
17
100
AcDbEntity
  8
0
 62
4
100
AcDbText
 10
2238.938136377308
 20
1894.0726751928978
 30
0.0
 40
9.948672000000002
  1
IS-JB612-TBDI21-1A/P4-SIDI2-M1-1
  7
Tahoma
100
AcDbText
  0
TEXT
  5
367
330
17
100
AcDbEntity
  8
0
 62
4
100
AcDbText
 10
2238.938136377308
 20
1873.4608876467237
 30
0.0
 40
9.948672000000002
  1
IS-JB612-TBDI21-1B/P4-SIDI2-M1-4
  7
Tahoma
100
AcDbText
  0
TEXT
  5
368
330
17
100
AcDbEntity
  8
0
 62
4
100
AcDbText
 10
2238.938136377308
 20
1852.8491001005477
 30
0.0
 40
9.948672000000002
  1
IS-JB612-TBDI21-1A/P4-SIDI2-M1-1
  7
Tahoma
100
AcDbText
  0
TEXT
  5
369
330
17
100
AcDbEntity
  8
0
 62
4
100
AcDbText
 10
2238.938136377308
 20
1832.2373125543745
 30
0.0
 40
9.948672000000002
  1
IS-JB612-TBDI21-1B/P4-SIDI2-M1-4
  7
Tahoma
100
AcDbText
  0
TEXT
  5
36A
330
17
100
AcDbEntity
  8
0
 62
4
100
AcDbText
 10
2238.938136377308
 20
1811.6255250082004
 30
0.0
 40
9.948672000000002
  1
IS-JB612-TBDI21-1A/P4-SIDI2-M1-1
  7
Tahoma
100
AcDbText
  0
TEXT
  5
36B
330
17
100
AcDbEntity
  8
0
 62
4
100
AcDbText
 10
2238.938136377308
 20
1791.0137374620263
 30
0.0
 40
9.948672000000002
  1
IS-JB612-TBDI21-1B/P4-SIDI2-M1-4
  7
Tahoma
100
AcDbText
  0
TEXT
  5
36C
330
17
100
AcDbEntity
  8
0
 62
2
100
AcDbText
 10
626.351920405601
 20
2257.9392221002618
 30
0.0
 40
11.4409728
  1
20
  7
Tahoma
 72
1
 11
634.9422545831694
 21
2263.6597085002613
 31
0.0
100
AcDbText
 73
2
  0
TEXT
  5
36D
330
17
100
AcDbEntity
  8
0
 62
2
100
AcDbText
 10
910.7599842654399
 20
2257.9392221002618
 30
0.0
 40
11.4409728
  1
19
  7
Tahoma
 72
1
 11
919.3503184430083
 21
2263.6597085002613
 31
0.0
100
AcDbText
 73
2
  0
TEXT
  5
36E
330
17
100
AcDbEntity
  8
0
 62
2
100
AcDbText
 10
699.9498562760036
 20
2257.9392221002618
 30
0.0
 40
11.4409728
  1
IN-17
  7
Tahoma
 72
1
 11
719.5854546577357
 21
2263.6597085002613
 31
0.0
100
AcDbText
 73
2
  0
TEXT
  5
36F
330
17
100
AcDbEntity
  8
0
 62
2
100
AcDbText
 10
815.4570067978948
 20
2257.9392221002618
 30
0.0
 40
11.4409728
  1
IN-16
  7
Tahoma
 72
1
 11
835.0926051796268
 21
2263.6597085002613
 31
0.0
100
AcDbText
 73
2
  0
TEXT
  5
370
330
17
100
AcDbEntity
  8
0
 62
2
100
AcDbText
 10
626.351920405601
 20
2059.4079083425404
 30
0.0
 40
11.4409728
  1
28
  7
Tahoma
 72
1
 11
634.9422545831694
 21
2065.128394742539
 31
0.0
100
AcDbText
 73
2
  0
TEXT
  5
371
330
17
100
AcDbEntity
  8
0
 62
2
100
AcDbText
 10
626.351920405601
 20
2109.0407367820007
 30
0.0
 40
11.4409728
  1
26
  7
Tahoma
 72
1
 11
634.9422545831694
 21
2114.7612231820003
 31
0.0
100
AcDbText
 73
2
  0
TEXT
  5
372
330
17
100
AcDbEntity
  8
0
 62
2
100
AcDbText
 10
626.351920405601
 20
2158.673565221403
 30
0.0
 40
11.4409728
  1
24
  7
Tahoma
 72
1
 11
634.9422545831694
 21
2164.3940516214034
 31
0.0
100
AcDbText
 73
2
  0
TEXT
  5
373
330
17
100
AcDbEntity
  8
0
 62
2
100
AcDbText
 10
626.351920405601
 20
2208.3063936608605
 30
0.0
 40
11.4409728
  1
22
  7
Tahoma
 72
1
 11
634.9422545831694
 21
2214.02688006086
 31
0.0
100
AcDbText
 73
2
  0
TEXT
  5
374
330
17
100
AcDbEntity
  8
0
 62
2
100
AcDbText
 10
626.351920405601
 20
1960.1422514636797
 30
0.0
 40
11.4409728
  1
32
  7
Tahoma
 72
1
 11
634.9422545831694
 21
1965.8627378636793
 31
0.0
100
AcDbText
 73
2
  0
TEXT
  5
375
330
17
100
AcDbEntity
  8
0
 62
2
100
AcDbText
 10
626.351920405601
 20
2009.77507990308
 30
0.0
 40
11.4409728
  1
30
  7
Tahoma
 72
1
 11
634.9422545831694
 21
2015.4955663030796
 31
0.0
100
AcDbText
 73
2
  0
TEXT
  5
376
330
17
100
AcDbEntity
  8
0
 62
2
100
AcDbText
 10
910.7599842654399
 20
2059.4079083425404
 30
0.0
 40
11.4409728
  1
27
  7
Tahoma
 72
1
 11
919.3503184430083
 21
2065.128394742539
 31
0.0
100
AcDbText
 73
2
  0
TEXT
  5
377
330
17
100
AcDbEntity
  8
0
 62
2
100
AcDbText
 10
910.7599842654399
 20
2109.0407367820007
 30
0.0
 40
11.4409728
  1
25
  7
Tahoma
 72
1
 11
919.3503184430083
 21
2114.7612231820003
 31
0.0
100
AcDbText
 73
2
  0
TEXT
  5
378
330
17
100
AcDbEntity
  8
0
 62
2
100
AcDbText
 10
910.7599842654399
 20
2158.673565221403
 30
0.0
 40
11.4409728
  1
23
  7
Tahoma
 72
1
 11
919.3503184430083
 21
2164.3940516214034
 31
0.0
100
AcDbText
 73
2
  0
TEXT
  5
379
330
17
100
AcDbEntity
  8
0
 62
2
100
AcDbText
 10
910.7599842654399
 20
2208.3063936608605
 30
0.0
 40
11.4409728
  1
21
  7
Tahoma
 72
1
 11
919.3503184430083
 21
2214.02688006086
 31
0.0
100
AcDbText
 73
2
  0
TEXT
  5
37A
330
17
100
AcDbEntity
  8
0
 62
2
100
AcDbText
 10
910.7599842654399
 20
1960.1422514636797
 30
0.0
 40
11.4409728
  1
31
  7
Tahoma
 72
1
 11
919.3503184430083
 21
1965.8627378636793
 31
0.0
100
AcDbText
 73
2
  0
TEXT
  5
37B
330
17
100
AcDbEntity
  8
0
 62
2
100
AcDbText
 10
910.7599842654399
 20
2009.77507990308
 30
0.0
 40
11.4409728
  1
29
  7
Tahoma
 72
1
 11
919.3503184430083
 21
2015.4955663030796
 31
0.0
100
AcDbText
 73
2
  0
TEXT
  5
37C
330
17
100
AcDbEntity
  8
0
 62
2
100
AcDbText
 10
702.80817856049
 20
2208.3063936608605
 30
0.0
 40
11.4409728
  1
IN19
  7
Tahoma
 72
1
 11
719.5854546577357
 21
2214.02688006086
 31
0.0
100
AcDbText
 73
2
  0
TEXT
  5
37D
330
17
100
AcDbEntity
  8
0
 62
2
100
AcDbText
 10
699.9498562760036
 20
2158.673565221403
 30
0.0
 40
11.4409728
  1
IN-23
  7
Tahoma
 72
1
 11
719.5854546577357
 21
2164.3940516214034
 31
0.0
100
AcDbText
 73
2
  0
TEXT
  5
37E
330
17
100
AcDbEntity
  8
0
 62
2
100
AcDbText
 10
699.9498562760036
 20
2109.0407367820007
 30
0.0
 40
11.4409728
  1
IN-23
  7
Tahoma
 72
1
 11
719.5854546577357
 21
2114.7612231820003
 31
0.0
100
AcDbText
 73
2
  0
TEXT
  5
37F
330
17
100
AcDbEntity
  8
0
 62
2
100
AcDbText
 10
699.9498562760036
 20
2059.4079083425404
 30
0.0
 40
11.4409728
  1
IN-25
  7
Tahoma
 72
1
 11
719.5854546577357
 21
2065.128394742539
 31
0.0
100
AcDbText
 73
2
  0
TEXT
  5
380
330
17
100
AcDbEntity
  8
0
 62
2
100
AcDbText
 10
699.9498562760036
 20
1960.1422514636797
 30
0.0
 40
11.4409728
  1
IN-29
  7
Tahoma
 72
1
 11
719.5854546577357
 21
1965.8627378636793
 31
0.0
100
AcDbText
 73
2
  0
TEXT
  5
381
330
17
100
AcDbEntity
  8
0
 62
2
100
AcDbText
 10
699.9498562760036
 20
2009.77507990308
 30
0.0
 40
11.4409728
  1
IN-27
  7
Tahoma
 72
1
 11
719.5854546577357
 21
2015.4955663030796
 31
0.0
100
AcDbText
 73
2
  0
TEXT
  5
382
330
17
100
AcDbEntity
  8
0
 62
2
100
AcDbText
 10
815.4570067978948
 20
2208.3063936608605
 30
0.0
 40
11.4409728
  1
IN-18
  7
Tahoma
 72
1
 11
835.0926051796268
 21
2214.02688006086
 31
0.0
100
AcDbText
 73
2
  0
TEXT
  5
383
330
17
100
AcDbEntity
  8
0
 62
2
100
AcDbText
 10
815.4570067978948
 20
2158.673565221403
 30
0.0
 40
11.4409728
  1
IN-20
  7
Tahoma
 72
1
 11
835.0926051796268
 21
2164.3940516214034
 31
0.0
100
AcDbText
 73
2
  0
TEXT
  5
384
330
17
100
AcDbEntity
  8
0
 62
2
100
AcDbText
 10
815.4570067978948
 20
2109.0407367820007
 30
0.0
 40
11.4409728
  1
IN-24
  7
Tahoma
 72
1
 11
835.0926051796268
 21
2114.7612231820003
 31
0.0
100
AcDbText
 73
2
  0
TEXT
  5
385
330
17
100
AcDbEntity
  8
0
 62
2
100
AcDbText
 10
815.4570067978948
 20
2059.4079083424804
 30
0.0
 40
11.4409728
  1
IN-24
  7
Tahoma
 72
1
 11
835.0926051796268
 21
2065.128394742479
 31
0.0
100
AcDbText
 73
2
  0
TEXT
  5
386
330
17
100
AcDbEntity
  8
0
 62
2
100
AcDbText
 10
815.4570067978948
 20
2009.77507990308
 30
0.0
 40
11.4409728
  1
IN-26
  7
Tahoma
 72
1
 11
835.0926051796268
 21
2015.4955663030796
 31
0.0
100
AcDbText
 73
2
  0
TEXT
  5
387
330
17
100
AcDbEntity
  8
0
 62
2
100
AcDbText
 10
815.4570067978948
 20
1960.1422514636179
 30
0.0
 40
11.4409728
  1
IN-28
  7
Tahoma
 72
1
 11
835.0926051796268
 21
1965.8627378636165
 31
0.0
100
AcDbText
 73
2
  0
TEXT
  5
388
330
17
100
AcDbEntity
  8
0
 62
2
100
AcDbText
 10
626.351920405601
 20
1860.876594584819
 30
0.0
 40
11.4409728
  1
36
  7
Tahoma
 72
1
 11
634.9422545831694
 21
1866.5970809848186
 31
0.0
100
AcDbText
 73
2
  0
TEXT
  5
389
330
17
100
AcDbEntity
  8
0
 62
2
100
AcDbText
 10
626.351920405601
 20
1910.5094230242166
 30
0.0
 40
11.4409728
  1
34
  7
Tahoma
 72
1
 11
634.9422545831694
 21
1916.2299094242162
 31
0.0
100
AcDbText
 73
2
  0
TEXT
  5
38A
330
17
100
AcDbEntity
  8
0
 62
2
100
AcDbText
 10
910.7599842654399
 20
1860.876594584819
 30
0.0
 40
11.4409728
  1
35
  7
Tahoma
 72
1
 11
919.3503184430083
 21
1866.5970809848186
 31
0.0
100
AcDbText
 73
2
  0
TEXT
  5
38B
330
17
100
AcDbEntity
  8
0
 62
2
100
AcDbText
 10
910.7599842654399
 20
1910.5094230242166
 30
0.0
 40
11.4409728
  1
33
  7
Tahoma
 72
1
 11
919.3503184430083
 21
1916.2299094242162
 31
0.0
100
AcDbText
 73
2
  0
TEXT
  5
38C
330
17
100
AcDbEntity
  8
0
 62
2
100
AcDbText
 10
696.592095957938
 20
1860.876594584819
 30
0.0
 40
11.4409728
  1
GND-1
  7
Tahoma
 72
1
 11
719.5854546577357
 21
1866.5970809848186
 31
0.0
100
AcDbText
 73
2
  0
TEXT
  5
38D
330
17
100
AcDbEntity
  8
0
 62
2
100
AcDbText
 10
699.9498562760036
 20
1910.5094230242166
 30
0.0
 40
11.4409728
  1
IN-31
  7
Tahoma
 72
1
 11
719.5854546577357
 21
1916.2299094242162
 31
0.0
100
AcDbText
 73
2
  0
TEXT
  5
38E
330
17
100
AcDbEntity
  8
0
 62
2
100
AcDbText
 10
815.4570067978948
 20
1910.5094230242166
 30
0.0
 40
11.4409728
  1
IN-30
  7
Tahoma
 72
1
 11
835.0926051796268
 21
1916.2299094242162
 31
0.0
100
AcDbText
 73
2
  0
TEXT
  5
38F
330
17
100
AcDbEntity
  8
0
 62
2
100
AcDbText
 10
812.0992464798292
 20
1860.876594584758
 30
0.0
 40
11.4409728
  1
GND-1
  7
Tahoma
 72
1
 11
835.0926051796268
 21
1866.5970809847577
 31
0.0
100
AcDbText
 73
2
  0
ENDSEC
  0
SECTION
  2
OBJECTS
  0
DICTIONARY
  5
A
330
0
100
AcDbDictionary
280
0
281
1
  3
ACAD_COLOR
350
B
  3
ACAD_GROUP
350
C
  3
ACAD_LAYOUT
350
D
  3
ACAD_MATERIAL
350
E
  3
ACAD_MLEADERSTYLE
350
F
  3
ACAD_MLINESTYLE
350
10
  3
ACAD_PLOTSETTINGS
350
11
  3
ACAD_PLOTSTYLENAME
350
12
  3
ACAD_SCALELIST
350
14
  3
ACAD_TABLESTYLE
350
15
  3
ACAD_VISUALSTYLE
350
16
  3
EZDXF_META
350
2D
  0
DICTIONARY
  5
B
330
A
100
AcDbDictionary
280
0
281
1
  0
DICTIONARY
  5
C
330
A
100
AcDbDictionary
280
0
281
1
  0
DICTIONARY
  5
D
330
A
100
AcDbDictionary
280
0
281
1
  3
Model
350
1A
  3
Layout1
350
1E
  0
DICTIONARY
  5
E
330
A
100
AcDbDictionary
280
0
281
1
  3
ByBlock
350
1F
  3
ByLayer
350
20
  3
Global
350
21
  0
DICTIONARY
  5
F
330
A
100
AcDbDictionary
280
0
281
1
  3
Standard
350
2C
  0
DICTIONARY
  5
10
330
A
100
AcDbDictionary
280
0
281
1
  3
Standard
350
22
  0
DICTIONARY
  5
11
330
A
100
AcDbDictionary
280
0
281
1
  0
ACDBDICTIONARYWDFLT
  5
12
330
A
100
AcDbDictionary
280
0
281
1
  3
Normal
350
13
100
AcDbDictionaryWithDefault
340
13
  0
ACDBPLACEHOLDER
  5
13
330
12
  0
DICTIONARY
  5
14
330
A
100
AcDbDictionary
280
0
281
1
  0
DICTIONARY
  5
15
330
A
100
AcDbDictionary
280
0
281
1
  0
DICTIONARY
  5
16
330
A
100
AcDbDictionary
280
0
281
1
  3
2dWireframe
350
5A
  3
Basic
350
5B
  3
Brighten
350
5C
  3
ColorChange
350
5D
  3
Conceptual
350
5E
  3
Dim
350
5F
  3
EdgeColorOff
350
60
  3
Facepattern
350
61
  3
Flat
350
62
  3
FlatWithEdges
350
63
  3
Gouraud
350
64
  3
GouraudWithEdges
350
65
  3
Hidden
350
66
  3
JitterOff
350
67
  3
Linepattern
350
68
  3
Modeling
350
69
  3
OverhangOff
350
6A
  3
Realistic
350
6B
  3
Shaded
350
6C
  3
Shaded with edges
350
6D
  3
Shades of Gray
350
6E
  3
Sketchy
350
6F
  3
Thicken
350
70
  3
Wireframe
350
71
  3
X-Ray
350
72
  0
LAYOUT
  5
1A
330
D
100
AcDbPlotSettings
  1

  2
Adobe PDF
  4
A3
  6

 40
7.5
 41
20.0
 42
7.5
 43
20.0
 44
420.0
 45
297.0
 46
0.0
 47
0.0
 48
0.0
 49
0.0
140
0.0
141
0.0
142
1.0
143
1.0
 70
1024
 72
1
 73
0
 74
5
  7

 75
16
 76
0
 77
2
 78
300
147
1.0
148
0.0
149
0.0
100
AcDbLayout
  1
Model
 70
1
 71
0
 10
0.0
 20
0.0
 11
420.0
 21
297.0
 12
0.0
 22
0.0
 32
0.0
 14
1e+20
 24
1e+20
 34
1e+20
 15
-1e+20
 25
-1e+20
 35
-1e+20
146
0.0
 13
0.0
 23
0.0
 33
0.0
 16
1.0
 26
0.0
 36
0.0
 17
0.0
 27
1.0
 37
0.0
 76
1
330
17
  0
LAYOUT
  5
1E
330
D
100
AcDbPlotSettings
  1

  2
Adobe PDF
  4
A3
  6

 40
7.5
 41
20.0
 42
7.5
 43
20.0
 44
420.0
 45
297.0
 46
0.0
 47
0.0
 48
0.0
 49
0.0
140
0.0
141
0.0
142
1.0
143
1.0
 70
0
 72
1
 73
0
 74
5
  7

 75
16
 76
0
 77
2
 78
300
147
1.0
148
0.0
149
0.0
100
AcDbLayout
  1
Layout1
 70
1
 71
1
 10
0.0
 20
0.0
 11
420.0
 21
297.0
 12
0.0
 22
0.0
 32
0.0
 14
1e+20
 24
1e+20
 34
1e+20
 15
-1e+20
 25
-1e+20
 35
-1e+20
146
0.0
 13
0.0
 23
0.0
 33
0.0
 16
1.0
 26
0.0
 36
0.0
 17
0.0
 27
1.0
 37
0.0
 76
1
330
1B
  0
MATERIAL
  5
1F
102
{ACAD_REACTORS
330
E
102
}
330
E
100
AcDbMaterial
  1
ByBlock
  2

 70
0
 40
1.0
 71
1
 41
1.0
 91
-1023410177
 42
1.0
 72
1
  3

 73
1
 74
1
 75
1
 44
0.5
 73
0
 45
1.0
 46
1.0
 77
1
  4

 78
1
 79
1
170
1
 48
1.0
171
1
  6

172
1
173
1
174
1
140
1.0
141
1.0
175
1
  7

176
1
177
1
178
1
143
1.0
179
1
  8

270
1
271
1
272
1
145
1.0
146
1.0
273
1
  9

274
1
275
1
276
1
 42
1.0
 72
1
  3

 73
1
 74
1
 75
1
 94
63
  0
MATERIAL
  5
20
102
{ACAD_REACTORS
330
E
102
}
330
E
100
AcDbMaterial
  1
ByLayer
  2

 70
0
 40
1.0
 71
1
 41
1.0
 91
-1023410177
 42
1.0
 72
1
  3

 73
1
 74
1
 75
1
 44
0.5
 73
0
 45
1.0
 46
1.0
 77
1
  4

 78
1
 79
1
170
1
 48
1.0
171
1
  6

172
1
173
1
174
1
140
1.0
141
1.0
175
1
  7

176
1
177
1
178
1
143
1.0
179
1
  8

270
1
271
1
272
1
145
1.0
146
1.0
273
1
  9

274
1
275
1
276
1
 42
1.0
 72
1
  3

 73
1
 74
1
 75
1
 94
63
  0
MATERIAL
  5
21
102
{ACAD_REACTORS
330
E
102
}
330
E
100
AcDbMaterial
  1
Global
  2

 70
0
 40
1.0
 71
1
 41
1.0
 91
-1023410177
 42
1.0
 72
1
  3

 73
1
 74
1
 75
1
 44
0.5
 73
0
 45
1.0
 46
1.0
 77
1
  4

 78
1
 79
1
170
1
 48
1.0
171
1
  6

172
1
173
1
174
1
140
1.0
141
1.0
175
1
  7

176
1
177
1
178
1
143
1.0
179
1
  8

270
1
271
1
272
1
145
1.0
146
1.0
273
1
  9

274
1
275
1
276
1
 42
1.0
 72
1
  3

 73
1
 74
1
 75
1
 94
63
  0
MLINESTYLE
  5
22
102
{ACAD_REACTORS
330
10
102
}
330
10
100
AcDbMlineStyle
  2
Standard
 70
0
  3

 62
256
 51
90.0
 52
90.0
 71
2
 49
0.5
 62
256
  6
BYLAYER
 49
-0.5
 62
256
  6
BYLAYER
  0
MLEADERSTYLE
  5
2C
102
{ACAD_REACTORS
330
F
102
}
330
F
100
AcDbMLeaderStyle
179
2
170
2
171
1
172
0
 90
2
 40
0.0
 41
0.0
173
1
 91
-1056964608
 92
-2
290
1
 42
2.0
291
1
 43
8.0
  3
Standard
 44
4.0
300

342
29
174
1
175
1
176
0
178
1
 93
-1056964608
 45
4.0
292
0
297
0
 46
4.0
 94
-1056964608
 47
1.0
 49
1.0
140
1.0
294
1
141
0.0
177
0
142
1.0
295
0
296
0
143
3.75
271
0
272
9
273
9
  0
DICTIONARY
  5
2D
330
A
100
AcDbDictionary
281
1
  3
CREATED_BY_EZDXF
350
2E
  3
WRITTEN_BY_EZDXF
350
3D2
  0
DICTIONARYVAR
  5
2E
330
2D
100
DictionaryVariables
280
0
  1
1.2.0 @ 2026-10-09T13:51:01.151181+00:00
  0
VISUALSTYLE
  5
5A
102
{ACAD_REACTORS
330
16
102
}
330
16
100
AcDbVisualStyle
  2
2dWireframe
 70
4
177
3
291
0
 70
58
 90
2
176
1
 90
2
176
1
 90
0
176
1
 90
0
176
1
 40
0.6
176
1
 40
30.0
176
1
 62
7
420
16777215
176
1
 90
1
176
1
 90
4
176
1
 62
7
176
1
 62
257
176
1
 90
1
176
1
 90
1
176
1
 40
1.0
176
1
 90
8
176
1
 62
7
176
1
 40
1.0
176
1
 90
1
176
1
 90
6
176
1
 90
2
176
1
 62
7
176
1
 90
5
176
1
 90
0
176
1
 90
0
176
1
290
0
176
1
 90
1
176
1
 40
0.0
176
1
 90
0
176
1
290
1
176
1
290
1
176
1
290
0
176
1
290
0
176
1
290
0
176
1
290
0
176
1
290
0
176
1
290
0
176
1
290
0
176
1
 90
50
176
1
 40
0.0
176
1
 40
1.0
176
1
 90
0
176
1
 62
18
420
0
176
1
 90
50
176
1
 90
3
176
1
 62
5
420
255
176
1
290
0
176
1
 90
50
176
1
 90
50
176
1
 90
50
176
1
290
0
176
1
 90
50
176
1
 62
256
176
0
 40
1.0
176
0
 90
2
176
1
  1
strokes_ogs.tif
176
1
290
0
176
1
 40
1.0
176
1
 40
1.0
176
1
  0
VISUALSTYLE
  5
5B
102
{ACAD_REACTORS
330
16
102
}
330
16
100
AcDbVisualStyle
  2
Basic
 70
7
177
3
291
1
 70
58
 90
2
176
1
 90
2
176
1
 90
0
176
1
 90
1
176
1
 40
0.6
176
1
 40
30.0
176
1
 62
7
420
16777215
176
1
 90
1
176
1
 90
4
176
1
 62
7
176
1
 62
257
176
1
 90
1
176
1
 90
1
176
1
 40
1.0
176
1
 90
8
176
1
 62
7
176
1
 40
1.0
176
1
 90
1
176
1
 90
6
176
1
 90
2
176
1
 62
7
176
1
 90
5
176
1
 90
0
176
1
 90
0
176
1
290
0
176
1
 90
1
176
1
 40
0.0
176
1
 90
0
176
1
290
0
176
1
290
1
176
1
290
1
176
1
290
0
176
1
290
0
176
1
290
0
176
1
290
0
176
1
290
0
176
1
290
0
176
1
 90
50
176
1
 40
0.0
176
1
 40
1.0
176
1
 90
0
176
1
 62
18
420
0
176
1
 90
50
176
1
 90
3
176
1
 62
5
420
255
176
1
290
0
176
1
 90
50
176
1
 90
50
176
1
 90
50
176
1
290
0
176
1
 90
50
176
1
 62
256
176
0
 40
1.0
176
0
 90
2
176
1
  1
strokes_ogs.tif
176
1
290
0
176
1
 40
1.0
176
1
 40
1.0
176
1
  0
VISUALSTYLE
  5
5C
102
{ACAD_REACTORS
330
16
102
}
330
16
100
AcDbVisualStyle
  2
Brighten
 70
12
177
3
291
1
 70
58
 90
2
176
1
 90
2
176
1
 90
0
176
1
 90
2
176
1
 40
0.6
176
1
 40
30.0
176
1
 62
7
420
16777215
176
1
 90
1
176
1
 90
4
176
1
 62
7
176
1
 62
257
176
1
 90
1
176
1
 90
1
176
1
 40
1.0
176
1
 90
8
176
1
 62
7
176
1
 40
1.0
176
1
 90
1
176
1
 90
6
176
1
 90
2
176
1
 62
7
176
1
 90
5
176
1
 90
0
176
1
 90
0
176
1
290
0
176
1
 90
1
176
1
 40
0.0
176
1
 90
0
176
1
290
0
176
1
290
1
176
1
290
1
176
1
290
0
176
1
290
0
176
1
290
0
176
1
290
0
176
1
290
0
176
1
290
0
176
1
 90
50
176
1
 40
0.0
176
1
 40
1.0
176
1
 90
0
176
1
 62
18
420
0
176
1
 90
50
176
1
 90
3
176
1
 62
5
420
255
176
1
290
0
176
1
 90
50
176
1
 90
50
176
1
 90
50
176
1
290
0
176
1
 90
50
176
1
 62
256
176
0
 40
1.0
176
0
 90
2
176
1
  1
strokes_ogs.tif
176
1
290
0
176
1
 40
1.0
176
1
 40
1.0
176
1
  0
VISUALSTYLE
  5
5D
102
{ACAD_REACTORS
330
16
102
}
330
16
100
AcDbVisualStyle
  2
ColorChange
 70
16
177
3
291
1
 70
58
 90
2
176
1
 90
2
176
1
 90
0
176
1
 90
2
176
1
 40
0.6
176
1
 40
30.0
176
1
 62
7
420
16777215
176
1
 90
1
176
1
 90
4
176
1
 62
7
176
1
 62
257
176
1
 90
1
176
1
 90
1
176
1
 40
1.0
176
1
 90
8
176
1
 62
7
176
1
 40
1.0
176
1
 90
1
176
1
 90
6
176
1
 90
2
176
1
 62
7
176
1
 90
5
176
1
 90
0
176
1
 90
0
176
1
290
0
176
1
 90
1
176
1
 40
0.0
176
1
 90
0
176
1
290
0
176
1
290
1
176
1
290
1
176
1
290
0
176
1
290
0
176
1
290
0
176
1
290
0
176
1
290
0
176
1
290
0
176
1
 90
50
176
1
 40
0.0
176
1
 40
1.0
176
1
 90
0
176
1
 62
18
420
0
176
1
 90
50
176
1
 90
3
176
1
 62
5
420
255
176
1
290
0
176
1
 90
50
176
1
 90
50
176
1
 90
50
176
1
290
0
176
1
 90
50
176
1
 62
256
176
0
 40
1.0
176
0
 90
2
176
1
  1
strokes_ogs.tif
176
1
290
0
176
1
 40
1.0
176
1
 40
1.0
176
1
  0
VISUALSTYLE
  5
5E
102
{ACAD_REACTORS
330
16
102
}
330
16
100
AcDbVisualStyle
  2
Conceptual
 70
9
177
3
291
0
 70
58
 90
2
176
1
 90
2
176
1
 90
0
176
1
 90
3
176
1
 40
0.6
176
1
 40
30.0
176
1
 62
7
420
16777215
176
1
 90
1
176
1
 90
4
176
1
 62
7
176
1
 62
257
176
1
 90
1
176
1
 90
1
176
1
 40
1.0
176
1
 90
8
176
1
 62
7
176
1
 40
1.0
176
1
 90
1
176
1
 90
6
176
1
 90
2
176
1
 62
7
176
1
 90
5
176
1
 90
0
176
1
 90
0
176
1
290
0
176
1
 90
1
176
1
 40
0.0
176
1
 90
0
176
1
290
0
176
1
290
1
176
1
290
1
176
1
290
0
176
1
290
0
176
1
290
0
176
1
290
0
176
1
290
0
176
1
290
0
176
1
 90
50
176
1
 40
0.0
176
1
 40
1.0
176
1
 90
0
176
1
 62
18
420
0
176
1
 90
50
176
1
 90
3
176
1
 62
5
420
255
176
1
290
0
176
1
 90
50
176
1
 90
50
176
1
 90
50
176
1
290
0
176
1
 90
50
176
1
 62
256
176
0
 40
1.0
176
0
 90
2
176
1
  1
strokes_ogs.tif
176
1
290
0
176
1
 40
1.0
176
1
 40
1.0
176
1
  0
VISUALSTYLE
  5
5F
102
{ACAD_REACTORS
330
16
102
}
330
16
100
AcDbVisualStyle
  2
Dim
 70
11
177
3
291
1
 70
58
 90
2
176
1
 90
2
176
1
 90
0
176
1
 90
2
176
1
 40
0.6
176
1
 40
30.0
176
1
 62
7
420
16777215
176
1
 90
1
176
1
 90
4
176
1
 62
7
176
1
 62
257
176
1
 90
1
176
1
 90
1
176
1
 40
1.0
176
1
 90
8
176
1
 62
7
176
1
 40
1.0
176
1
 90
1
176
1
 90
6
176
1
 90
2
176
1
 62
7
176
1
 90
5
176
1
 90
0
176
1
 90
0
176
1
290
0
176
1
 90
1
176
1
 40
0.0
176
1
 90
0
176
1
290
0
176
1
290
1
176
1
290
1
176
1
290
0
176
1
290
0
176
1
290
0
176
1
290
0
176
1
290
0
176
1
290
0
176
1
 90
50
176
1
 40
0.0
176
1
 40
1.0
176
1
 90
0
176
1
 62
18
420
0
176
1
 90
50
176
1
 90
3
176
1
 62
5
420
255
176
1
290
0
176
1
 90
50
176
1
 90
50
176
1
 90
50
176
1
290
0
176
1
 90
50
176
1
 62
256
176
0
 40
1.0
176
0
 90
2
176
1
  1
strokes_ogs.tif
176
1
290
0
176
1
 40
1.0
176
1
 40
1.0
176
1
  0
VISUALSTYLE
  5
60
102
{ACAD_REACTORS
330
16
102
}
330
16
100
AcDbVisualStyle
  2
EdgeColorOff
 70
22
177
3
291
1
 70
58
 90
2
176
1
 90
2
176
1
 90
0
176
1
 90
2
176
1
 40
0.6
176
1
 40
30.0
176
1
 62
7
420
16777215
176
1
 90
1
176
1
 90
4
176
1
 62
7
176
1
 62
257
176
1
 90
1
176
1
 90
1
176
1
 40
1.0
176
1
 90
8
176
1
 62
7
176
1
 40
1.0
176
1
 90
1
176
1
 90
6
176
1
 90
2
176
1
 62
7
176
1
 90
5
176
1
 90
0
176
1
 90
0
176
1
290
0
176
1
 90
1
176
1
 40
0.0
176
1
 90
0
176
1
290
0
176
1
290
1
176
1
290
1
176
1
290
0
176
1
290
0
176
1
290
0
176
1
290
0
176
1
290
0
176
1
290
0
176
1
 90
50
176
1
 40
0.0
176
1
 40
1.0
176
1
 90
0
176
1
 62
18
420
0
176
1
 90
50
176
1
 90
3
176
1
 62
5
420
255
176
1
290
0
176
1
 90
50
176
1
 90
50
176
1
 90
50
176
1
290
0
176
1
 90
50
176
1
 62
256
176
0
 40
1.0
176
0
 90
2
176
1
  1
strokes_ogs.tif
176
1
290
0
176
1
 40
1.0
176
1
 40
1.0
176
1
  0
VISUALSTYLE
  5
61
102
{ACAD_REACTORS
330
16
102
}
330
16
100
AcDbVisualStyle
  2
Facepattern
 70
15
177
3
291
1
 70
58
 90
2
176
1
 90
2
176
1
 90
0
176
1
 90
2
176
1
 40
0.6
176
1
 40
30.0
176
1
 62
7
420
16777215
176
1
 90
1
176
1
 90
4
176
1
 62
7
176
1
 62
257
176
1
 90
1
176
1
 90
1
176
1
 40
1.0
176
1
 90
8
176
1
 62
7
176
1
 40
1.0
176
1
 90
1
176
1
 90
6
176
1
 90
2
176
1
 62
7
176
1
 90
5
176
1
 90
0
176
1
 90
0
176
1
290
0
176
1
 90
1
176
1
 40
0.0
176
1
 90
0
176
1
290
0
176
1
290
1
176
1
290
1
176
1
290
0
176
1
290
0
176
1
290
0
176
1
290
0
176
1
290
0
176
1
290
0
176
1
 90
50
176
1
 40
0.0
176
1
 40
1.0
176
1
 90
0
176
1
 62
18
420
0
176
1
 90
50
176
1
 90
3
176
1
 62
5
420
255
176
1
290
0
176
1
 90
50
176
1
 90
50
176
1
 90
50
176
1
290
0
176
1
 90
50
176
1
 62
256
176
0
 40
1.0
176
0
 90
2
176
1
  1
strokes_ogs.tif
176
1
290
0
176
1
 40
1.0
176
1
 40
1.0
176
1
  0
VISUALSTYLE
  5
62
102
{ACAD_REACTORS
330
16
102
}
330
16
100
AcDbVisualStyle
  2
Flat
 70
0
177
3
291
1
 70
58
 90
2
176
1
 90
2
176
1
 90
0
176
1
 90
2
176
1
 40
0.6
176
1
 40
30.0
176
1
 62
7
420
16777215
176
1
 90
1
176
1
 90
4
176
1
 62
7
176
1
 62
257
176
1
 90
1
176
1
 90
1
176
1
 40
1.0
176
1
 90
8
176
1
 62
7
176
1
 40
1.0
176
1
 90
1
176
1
 90
6
176
1
 90
2
176
1
 62
7
176
1
 90
5
176
1
 90
0
176
1
 90
0
176
1
290
0
176
1
 90
1
176
1
 40
0.0
176
1
 90
0
176
1
290
0
176
1
290
1
176
1
290
1
176
1
290
0
176
1
290
0
176
1
290
0
176
1
290
0
176
1
290
0
176
1
290
0
176
1
 90
50
176
1
 40
0.0
176
1
 40
1.0
176
1
 90
0
176
1
 62
18
420
0
176
1
 90
50
176
1
 90
3
176
1
 62
5
420
255
176
1
290
0
176
1
 90
50
176
1
 90
50
176
1
 90
50
176
1
290
0
176
1
 90
50
176
1
 62
256
176
0
 40
1.0
176
0
 90
2
176
1
  1
strokes_ogs.tif
176
1
290
0
176
1
 40
1.0
176
1
 40
1.0
176
1
  0
VISUALSTYLE
  5
63
102
{ACAD_REACTORS
330
16
102
}
330
16
100
AcDbVisualStyle
  2
FlatWithEdges
 70
1
177
3
291
1
 70
58
 90
2
176
1
 90
2
176
1
 90
0
176
1
 90
2
176
1
 40
0.6
176
1
 40
30.0
176
1
 62
7
420
16777215
176
1
 90
1
176
1
 90
4
176
1
 62
7
176
1
 62
257
176
1
 90
1
176
1
 90
1
176
1
 40
1.0
176
1
 90
8
176
1
 62
7
176
1
 40
1.0
176
1
 90
1
176
1
 90
6
176
1
 90
2
176
1
 62
7
176
1
 90
5
176
1
 90
0
176
1
 90
0
176
1
290
0
176
1
 90
1
176
1
 40
0.0
176
1
 90
0
176
1
290
0
176
1
290
1
176
1
290
1
176
1
290
0
176
1
290
0
176
1
290
0
176
1
290
0
176
1
290
0
176
1
290
0
176
1
 90
50
176
1
 40
0.0
176
1
 40
1.0
176
1
 90
0
176
1
 62
18
420
0
176
1
 90
50
176
1
 90
3
176
1
 62
5
420
255
176
1
290
0
176
1
 90
50
176
1
 90
50
176
1
 90
50
176
1
290
0
176
1
 90
50
176
1
 62
256
176
0
 40
1.0
176
0
 90
2
176
1
  1
strokes_ogs.tif
176
1
290
0
176
1
 40
1.0
176
1
 40
1.0
176
1
  0
VISUALSTYLE
  5
64
102
{ACAD_REACTORS
330
16
102
}
330
16
100
AcDbVisualStyle
  2
Gouraud
 70
2
177
3
291
1
 70
58
 90
2
176
1
 90
2
176
1
 90
0
176
1
 90
2
176
1
 40
0.6
176
1
 40
30.0
176
1
 62
7
420
16777215
176
1
 90
1
176
1
 90
4
176
1
 62
7
176
1
 62
257
176
1
 90
1
176
1
 90
1
176
1
 40
1.0
176
1
 90
8
176
1
 62
7
176
1
 40
1.0
176
1
 90
1
176
1
 90
6
176
1
 90
2
176
1
 62
7
176
1
 90
5
176
1
 90
0
176
1
 90
0
176
1
290
0
176
1
 90
1
176
1
 40
0.0
176
1
 90
0
176
1
290
0
176
1
290
1
176
1
290
1
176
1
290
0
176
1
290
0
176
1
290
0
176
1
290
0
176
1
290
0
176
1
290
0
176
1
 90
50
176
1
 40
0.0
176
1
 40
1.0
176
1
 90
0
176
1
 62
18
420
0
176
1
 90
50
176
1
 90
3
176
1
 62
5
420
255
176
1
290
0
176
1
 90
50
176
1
 90
50
176
1
 90
50
176
1
290
0
176
1
 90
50
176
1
 62
256
176
0
 40
1.0
176
0
 90
2
176
1
  1
strokes_ogs.tif
176
1
290
0
176
1
 40
1.0
176
1
 40
1.0
176
1
  0
VISUALSTYLE
  5
65
102
{ACAD_REACTORS
330
16
102
}
330
16
100
AcDbVisualStyle
  2
GouraudWithEdges
 70
3
177
3
291
1
 70
58
 90
2
176
1
 90
2
176
1
 90
0
176
1
 90
2
176
1
 40
0.6
176
1
 40
30.0
176
1
 62
7
420
16777215
176
1
 90
1
176
1
 90
4
176
1
 62
7
176
1
 62
257
176
1
 90
1
176
1
 90
1
176
1
 40
1.0
176
1
 90
8
176
1
 62
7
176
1
 40
1.0
176
1
 90
1
176
1
 90
6
176
1
 90
2
176
1
 62
7
176
1
 90
5
176
1
 90
0
176
1
 90
0
176
1
290
0
176
1
 90
1
176
1
 40
0.0
176
1
 90
0
176
1
290
0
176
1
290
1
176
1
290
1
176
1
290
0
176
1
290
0
176
1
290
0
176
1
290
0
176
1
290
0
176
1
290
0
176
1
 90
50
176
1
 40
0.0
176
1
 40
1.0
176
1
 90
0
176
1
 62
18
420
0
176
1
 90
50
176
1
 90
3
176
1
 62
5
420
255
176
1
290
0
176
1
 90
50
176
1
 90
50
176
1
 90
50
176
1
290
0
176
1
 90
50
176
1
 62
256
176
0
 40
1.0
176
0
 90
2
176
1
  1
strokes_ogs.tif
176
1
290
0
176
1
 40
1.0
176
1
 40
1.0
176
1
  0
VISUALSTYLE
  5
66
102
{ACAD_REACTORS
330
16
102
}
330
16
100
AcDbVisualStyle
  2
Hidden
 70
6
177
3
291
0
 70
58
 90
2
176
1
 90
2
176
1
 90
0
176
1
 90
1
176
1
 40
0.6
176
1
 40
30.0
176
1
 62
7
420
16777215
176
1
 90
1
176
1
 90
4
176
1
 62
7
176
1
 62
257
176
1
 90
1
176
1
 90
1
176
1
 40
1.0
176
1
 90
8
176
1
 62
7
176
1
 40
1.0
176
1
 90
1
176
1
 90
6
176
1
 90
2
176
1
 62
7
176
1
 90
5
176
1
 90
0
176
1
 90
0
176
1
290
0
176
1
 90
1
176
1
 40
0.0
176
1
 90
0
176
1
290
0
176
1
290
1
176
1
290
1
176
1
290
0
176
1
290
0
176
1
290
0
176
1
290
0
176
1
290
0
176
1
290
0
176
1
 90
50
176
1
 40
0.0
176
1
 40
1.0
176
1
 90
0
176
1
 62
18
420
0
176
1
 90
50
176
1
 90
3
176
1
 62
5
420
255
176
1
290
0
176
1
 90
50
176
1
 90
50
176
1
 90
50
176
1
290
0
176
1
 90
50
176
1
 62
256
176
0
 40
1.0
176
0
 90
2
176
1
  1
strokes_ogs.tif
176
1
290
0
176
1
 40
1.0
176
1
 40
1.0
176
1
  0
VISUALSTYLE
  5
67
102
{ACAD_REACTORS
330
16
102
}
330
16
100
AcDbVisualStyle
  2
JitterOff
 70
20
177
3
291
1
 70
58
 90
2
176
1
 90
2
176
1
 90
0
176
1
 90
2
176
1
 40
0.6
176
1
 40
30.0
176
1
 62
7
420
16777215
176
1
 90
1
176
1
 90
4
176
1
 62
7
176
1
 62
257
176
1
 90
1
176
1
 90
1
176
1
 40
1.0
176
1
 90
8
176
1
 62
7
176
1
 40
1.0
176
1
 90
1
176
1
 90
6
176
1
 90
2
176
1
 62
7
176
1
 90
5
176
1
 90
0
176
1
 90
0
176
1
290
0
176
1
 90
1
176
1
 40
0.0
176
1
 90
0
176
1
290
0
176
1
290
1
176
1
290
1
176
1
290
0
176
1
290
0
176
1
290
0
176
1
290
0
176
1
290
0
176
1
290
0
176
1
 90
50
176
1
 40
0.0
176
1
 40
1.0
176
1
 90
0
176
1
 62
18
420
0
176
1
 90
50
176
1
 90
3
176
1
 62
5
420
255
176
1
290
0
176
1
 90
50
176
1
 90
50
176
1
 90
50
176
1
290
0
176
1
 90
50
176
1
 62
256
176
0
 40
1.0
176
0
 90
2
176
1
  1
strokes_ogs.tif
176
1
290
0
176
1
 40
1.0
176
1
 40
1.0
176
1
  0
VISUALSTYLE
  5
68
102
{ACAD_REACTORS
330
16
102
}
330
16
100
AcDbVisualStyle
  2
Linepattern
 70
14
177
3
291
1
 70
58
 90
2
176
1
 90
2
176
1
 90
0
176
1
 90
2
176
1
 40
0.6
176
1
 40
30.0
176
1
 62
7
420
16777215
176
1
 90
1
176
1
 90
4
176
1
 62
7
176
1
 62
257
176
1
 90
1
176
1
 90
1
176
1
 40
1.0
176
1
 90
8
176
1
 62
7
176
1
 40
1.0
176
1
 90
1
176
1
 90
6
176
1
 90
2
176
1
 62
7
176
1
 90
5
176
1
 90
0
176
1
 90
0
176
1
290
0
176
1
 90
1
176
1
 40
0.0
176
1
 90
0
176
1
290
0
176
1
290
1
176
1
290
1
176
1
290
0
176
1
290
0
176
1
290
0
176
1
290
0
176
1
290
0
176
1
290
0
176
1
 90
50
176
1
 40
0.0
176
1
 40
1.0
176
1
 90
0
176
1
 62
18
420
0
176
1
 90
50
176
1
 90
3
176
1
 62
5
420
255
176
1
290
0
176
1
 90
50
176
1
 90
50
176
1
 90
50
176
1
290
0
176
1
 90
50
176
1
 62
256
176
0
 40
1.0
176
0
 90
2
176
1
  1
strokes_ogs.tif
176
1
290
0
176
1
 40
1.0
176
1
 40
1.0
176
1
  0
VISUALSTYLE
  5
69
102
{ACAD_REACTORS
330
16
102
}
330
16
100
AcDbVisualStyle
  2
Modeling
 70
10
177
3
291
0
 70
58
 90
2
176
1
 90
2
176
1
 90
0
176
1
 90
2
176
1
 40
0.6
176
1
 40
30.0
176
1
 62
7
420
16777215
176
1
 90
1
176
1
 90
4
176
1
 62
7
176
1
 62
257
176
1
 90
1
176
1
 90
1
176
1
 40
1.0
176
1
 90
8
176
1
 62
7
176
1
 40
1.0
176
1
 90
1
176
1
 90
6
176
1
 90
2
176
1
 62
7
176
1
 90
5
176
1
 90
0
176
1
 90
0
176
1
290
0
176
1
 90
1
176
1
 40
0.0
176
1
 90
0
176
1
290
0
176
1
290
1
176
1
290
1
176
1
290
0
176
1
290
0
176
1
290
0
176
1
290
0
176
1
290
0
176
1
290
0
176
1
 90
50
176
1
 40
0.0
176
1
 40
1.0
176
1
 90
0
176
1
 62
18
420
0
176
1
 90
50
176
1
 90
3
176
1
 62
5
420
255
176
1
290
0
176
1
 90
50
176
1
 90
50
176
1
 90
50
176
1
290
0
176
1
 90
50
176
1
 62
256
176
0
 40
1.0
176
0
 90
2
176
1
  1
strokes_ogs.tif
176
1
290
0
176
1
 40
1.0
176
1
 40
1.0
176
1
  0
VISUALSTYLE
  5
6A
102
{ACAD_REACTORS
330
16
102
}
330
16
100
AcDbVisualStyle
  2
OverhangOff
 70
21
177
3
291
1
 70
58
 90
2
176
1
 90
2
176
1
 90
0
176
1
 90
2
176
1
 40
0.6
176
1
 40
30.0
176
1
 62
7
420
16777215
176
1
 90
1
176
1
 90
4
176
1
 62
7
176
1
 62
257
176
1
 90
1
176
1
 90
1
176
1
 40
1.0
176
1
 90
8
176
1
 62
7
176
1
 40
1.0
176
1
 90
1
176
1
 90
6
176
1
 90
2
176
1
 62
7
176
1
 90
5
176
1
 90
0
176
1
 90
0
176
1
290
0
176
1
 90
1
176
1
 40
0.0
176
1
 90
0
176
1
290
0
176
1
290
1
176
1
290
1
176
1
290
0
176
1
290
0
176
1
290
0
176
1
290
0
176
1
290
0
176
1
290
0
176
1
 90
50
176
1
 40
0.0
176
1
 40
1.0
176
1
 90
0
176
1
 62
18
420
0
176
1
 90
50
176
1
 90
3
176
1
 62
5
420
255
176
1
290
0
176
1
 90
50
176
1
 90
50
176
1
 90
50
176
1
290
0
176
1
 90
50
176
1
 62
256
176
0
 40
1.0
176
0
 90
2
176
1
  1
strokes_ogs.tif
176
1
290
0
176
1
 40
1.0
176
1
 40
1.0
176
1
  0
VISUALSTYLE
  5
6B
102
{ACAD_REACTORS
330
16
102
}
330
16
100
AcDbVisualStyle
  2
Realistic
 70
8
177
3
291
0
 70
58
 90
2
176
1
 90
2
176
1
 90
0
176
1
 90
2
176
1
 40
0.6
176
1
 40
30.0
176
1
 62
7
420
16777215
176
1
 90
1
176
1
 90
4
176
1
 62
7
176
1
 62
257
176
1
 90
1
176
1
 90
1
176
1
 40
1.0
176
1
 90
8
176
1
 62
7
176
1
 40
1.0
176
1
 90
1
176
1
 90
6
176
1
 90
2
176
1
 62
7
176
1
 90
5
176
1
 90
0
176
1
 90
0
176
1
290
0
176
1
 90
1
176
1
 40
0.0
176
1
 90
0
176
1
290
0
176
1
290
1
176
1
290
1
176
1
290
0
176
1
290
0
176
1
290
0
176
1
290
0
176
1
290
0
176
1
290
0
176
1
 90
50
176
1
 40
0.0
176
1
 40
1.0
176
1
 90
0
176
1
 62
18
420
0
176
1
 90
50
176
1
 90
3
176
1
 62
5
420
255
176
1
290
0
176
1
 90
50
176
1
 90
50
176
1
 90
50
176
1
290
0
176
1
 90
50
176
1
 62
256
176
0
 40
1.0
176
0
 90
2
176
1
  1
strokes_ogs.tif
176
1
290
0
176
1
 40
1.0
176
1
 40
1.0
176
1
  0
VISUALSTYLE
  5
6C
102
{ACAD_REACTORS
330
16
102
}
330
16
100
AcDbVisualStyle
  2
Shaded
 70
27
177
3
291
0
 70
58
 90
2
176
1
 90
2
176
1
 90
0
176
1
 90
2
176
1
 40
0.6
176
1
 40
30.0
176
1
 62
7
420
16777215
176
1
 90
1
176
1
 90
4
176
1
 62
7
176
1
 62
257
176
1
 90
1
176
1
 90
1
176
1
 40
1.0
176
1
 90
8
176
1
 62
7
176
1
 40
1.0
176
1
 90
1
176
1
 90
6
176
1
 90
2
176
1
 62
7
176
1
 90
5
176
1
 90
0
176
1
 90
0
176
1
290
0
176
1
 90
1
176
1
 40
0.0
176
1
 90
0
176
1
290
0
176
1
290
1
176
1
290
1
176
1
290
0
176
1
290
0
176
1
290
0
176
1
290
0
176
1
290
0
176
1
290
0
176
1
 90
50
176
1
 40
0.0
176
1
 40
1.0
176
1
 90
0
176
1
 62
18
420
0
176
1
 90
50
176
1
 90
3
176
1
 62
5
420
255
176
1
290
0
176
1
 90
50
176
1
 90
50
176
1
 90
50
176
1
290
0
176
1
 90
50
176
1
 62
256
176
0
 40
1.0
176
0
 90
2
176
1
  1
strokes_ogs.tif
176
1
290
0
176
1
 40
1.0
176
1
 40
1.0
176
1
  0
VISUALSTYLE
  5
6D
102
{ACAD_REACTORS
330
16
102
}
330
16
100
AcDbVisualStyle
  2
Shaded with edges
 70
26
177
3
291
0
 70
58
 90
2
176
1
 90
2
176
1
 90
0
176
1
 90
2
176
1
 40
0.6
176
1
 40
30.0
176
1
 62
7
420
16777215
176
1
 90
1
176
1
 90
4
176
1
 62
7
176
1
 62
257
176
1
 90
1
176
1
 90
1
176
1
 40
1.0
176
1
 90
8
176
1
 62
7
176
1
 40
1.0
176
1
 90
1
176
1
 90
6
176
1
 90
2
176
1
 62
7
176
1
 90
5
176
1
 90
0
176
1
 90
0
176
1
290
0
176
1
 90
1
176
1
 40
0.0
176
1
 90
0
176
1
290
0
176
1
290
1
176
1
290
1
176
1
290
0
176
1
290
0
176
1
290
0
176
1
290
0
176
1
290
0
176
1
290
0
176
1
 90
50
176
1
 40
0.0
176
1
 40
1.0
176
1
 90
0
176
1
 62
18
420
0
176
1
 90
50
176
1
 90
3
176
1
 62
5
420
255
176
1
290
0
176
1
 90
50
176
1
 90
50
176
1
 90
50
176
1
290
0
176
1
 90
50
176
1
 62
256
176
0
 40
1.0
176
0
 90
2
176
1
  1
strokes_ogs.tif
176
1
290
0
176
1
 40
1.0
176
1
 40
1.0
176
1
  0
VISUALSTYLE
  5
6E
102
{ACAD_REACTORS
330
16
102
}
330
16
100
AcDbVisualStyle
  2
Shades of Gray
 70
23
177
3
291
0
 70
58
 90
2
176
1
 90
2
176
1
 90
0
176
1
 90
2
176
1
 40
0.6
176
1
 40
30.0
176
1
 62
7
420
16777215
176
1
 90
1
176
1
 90
4
176
1
 62
7
176
1
 62
257
176
1
 90
1
176
1
 90
1
176
1
 40
1.0
176
1
 90
8
176
1
 62
7
176
1
 40
1.0
176
1
 90
1
176
1
 90
6
176
1
 90
2
176
1
 62
7
176
1
 90
5
176
1
 90
0
176
1
 90
0
176
1
290
0
176
1
 90
1
176
1
 40
0.0
176
1
 90
0
176
1
290
0
176
1
290
1
176
1
290
1
176
1
290
0
176
1
290
0
176
1
290
0
176
1
290
0
176
1
290
0
176
1
290
0
176
1
 90
50
176
1
 40
0.0
176
1
 40
1.0
176
1
 90
0
176
1
 62
18
420
0
176
1
 90
50
176
1
 90
3
176
1
 62
5
420
255
176
1
290
0
176
1
 90
50
176
1
 90
50
176
1
 90
50
176
1
290
0
176
1
 90
50
176
1
 62
256
176
0
 40
1.0
176
0
 90
2
176
1
  1
strokes_ogs.tif
176
1
290
0
176
1
 40
1.0
176
1
 40
1.0
176
1
  0
VISUALSTYLE
  5
6F
102
{ACAD_REACTORS
330
16
102
}
330
16
100
AcDbVisualStyle
  2
Sketchy
 70
24
177
3
291
0
 70
58
 90
2
176
1
 90
2
176
1
 90
0
176
1
 90
1
176
1
 40
0.6
176
1
 40
30.0
176
1
 62
7
420
16777215
176
1
 90
1
176
1
 90
4
176
1
 62
7
176
1
 62
257
176
1
 90
1
176
1
 90
1
176
1
 40
1.0
176
1
 90
8
176
1
 62
7
176
1
 40
1.0
176
1
 90
1
176
1
 90
6
176
1
 90
2
176
1
 62
7
176
1
 90
5
176
1
 90
0
176
1
 90
0
176
1
290
0
176
1
 90
1
176
1
 40
0.0
176
1
 90
0
176
1
290
0
176
1
290
1
176
1
290
1
176
1
290
0
176
1
290
0
176
1
290
0
176
1
290
0
176
1
290
0
176
1
290
0
176
1
 90
50
176
1
 40
0.0
176
1
 40
1.0
176
1
 90
0
176
1
 62
18
420
0
176
1
 90
50
176
1
 90
3
176
1
 62
5
420
255
176
1
290
0
176
1
 90
50
176
1
 90
50
176
1
 90
50
176
1
290
0
176
1
 90
50
176
1
 62
256
176
0
 40
1.0
176
0
 90
2
176
1
  1
strokes_ogs.tif
176
1
290
0
176
1
 40
1.0
176
1
 40
1.0
176
1
  0
VISUALSTYLE
  5
70
102
{ACAD_REACTORS
330
16
102
}
330
16
100
AcDbVisualStyle
  2
Thicken
 70
13
177
3
291
1
 70
58
 90
2
176
1
 90
2
176
1
 90
0
176
1
 90
2
176
1
 40
0.6
176
1
 40
30.0
176
1
 62
7
420
16777215
176
1
 90
1
176
1
 90
4
176
1
 62
7
176
1
 62
257
176
1
 90
1
176
1
 90
1
176
1
 40
1.0
176
1
 90
8
176
1
 62
7
176
1
 40
1.0
176
1
 90
1
176
1
 90
6
176
1
 90
2
176
1
 62
7
176
1
 90
5
176
1
 90
0
176
1
 90
0
176
1
290
0
176
1
 90
1
176
1
 40
0.0
176
1
 90
0
176
1
290
0
176
1
290
1
176
1
290
1
176
1
290
0
176
1
290
0
176
1
290
0
176
1
290
0
176
1
290
0
176
1
290
0
176
1
 90
50
176
1
 40
0.0
176
1
 40
1.0
176
1
 90
0
176
1
 62
18
420
0
176
1
 90
50
176
1
 90
3
176
1
 62
5
420
255
176
1
290
0
176
1
 90
50
176
1
 90
50
176
1
 90
50
176
1
290
0
176
1
 90
50
176
1
 62
256
176
0
 40
1.0
176
0
 90
2
176
1
  1
strokes_ogs.tif
176
1
290
0
176
1
 40
1.0
176
1
 40
1.0
176
1
  0
VISUALSTYLE
  5
71
102
{ACAD_REACTORS
330
16
102
}
330
16
100
AcDbVisualStyle
  2
Wireframe
 70
5
177
3
291
0
 70
58
 90
2
176
1
 90
2
176
1
 90
0
176
1
 90
0
176
1
 40
0.6
176
1
 40
30.0
176
1
 62
7
420
16777215
176
1
 90
1
176
1
 90
4
176
1
 62
7
176
1
 62
257
176
1
 90
1
176
1
 90
1
176
1
 40
1.0
176
1
 90
8
176
1
 62
7
176
1
 40
1.0
176
1
 90
1
176
1
 90
6
176
1
 90
2
176
1
 62
7
176
1
 90
5
176
1
 90
0
176
1
 90
0
176
1
290
0
176
1
 90
1
176
1
 40
0.0
176
1
 90
0
176
1
290
0
176
1
290
1
176
1
290
1
176
1
290
0
176
1
290
0
176
1
290
0
176
1
290
0
176
1
290
0
176
1
290
0
176
1
 90
50
176
1
 40
0.0
176
1
 40
1.0
176
1
 90
0
176
1
 62
18
420
0
176
1
 90
50
176
1
 90
3
176
1
 62
5
420
255
176
1
290
0
176
1
 90
50
176
1
 90
50
176
1
 90
50
176
1
290
0
176
1
 90
50
176
1
 62
256
176
0
 40
1.0
176
0
 90
2
176
1
  1
strokes_ogs.tif
176
1
290
0
176
1
 40
1.0
176
1
 40
1.0
176
1
  0
VISUALSTYLE
  5
72
102
{ACAD_REACTORS
330
16
102
}
330
16
100
AcDbVisualStyle
  2
X-Ray
 70
25
177
3
291
0
 70
58
 90
2
176
1
 90
2
176
1
 90
0
176
1
 90
2
176
1
 40
0.5
176
1
 40
30.0
176
1
 62
7
420
16777215
176
1
 90
1
176
1
 90
4
176
1
 62
7
176
1
 62
257
176
1
 90
1
176
1
 90
1
176
1
 40
1.0
176
1
 90
8
176
1
 62
7
176
1
 40
1.0
176
1
 90
1
176
1
 90
6
176
1
 90
2
176
1
 62
7
176
1
 90
5
176
1
 90
0
176
1
 90
0
176
1
290
0
176
1
 90
1
176
1
 40
0.0
176
1
 90
0
176
1
290
0
176
1
290
1
176
1
290
1
176
1
290
0
176
1
290
0
176
1
290
0
176
1
290
0
176
1
290
0
176
1
290
0
176
1
 90
50
176
1
 40
0.0
176
1
 40
1.0
176
1
 90
0
176
1
 62
18
420
0
176
1
 90
50
176
1
 90
3
176
1
 62
5
420
255
176
1
290
0
176
1
 90
50
176
1
 90
50
176
1
 90
50
176
1
290
0
176
1
 90
50
176
1
 62
256
176
0
 40
1.0
176
0
 90
2
176
1
  1
strokes_ogs.tif
176
1
290
0
176
1
 40
1.0
176
1
 40
1.0
176
1
  0
DICTIONARYVAR
  5
3D2
330
2D
100
DictionaryVariables
280
0
  1
1.2.0 @ 2026-10-09T13:51:01.268361+00:00
  0
ENDSEC
  0
EOF
