  0
SECTION
  2
HEADER
  9
$ACADVER
  1
AC1024
  9
$ACADMAINTVER
 70
6
  9
$DWGCODEPAGE
  3
ANSI_1252
  9
$LASTSAVEDBY
  1
ezdxf
  9
$INSBASE
 10
0.0
 20
0.0
 30
0.0
  9
$EXTMIN
 10
1e+20
 20
1e+20
 30
1e+20
  9
$EXTMAX
 10
-1e+20
 20
-1e+20
 30
-1e+20
  9
$LIMMIN
 10
0.0
 20
0.0
  9
$LIMMAX
 10
420.0
 20
297.0
  9
$ORTHOMODE
 70
0
  9
$REGENMODE
 70
1
  9
$FILLMODE
 70
1
  9
$QTEXTMODE
 70
0
  9
$MIRRTEXT
 70
1
  9
$LTSCALE
 40
1.0
  9
$ATTMODE
 70
1
  9
$TEXTSIZE
 40
2.5
  9
$TRACEWID
 40
1.0
  9
$TEXTSTYLE
  7
OpenSans
  9
$CLAYER
  8
0
  9
$CELTYPE
  6
ByLayer
  9
$CECOLOR
 62
256
  9
$CELTSCALE
 40
1.0
  9
$DISPSILH
 70
0
  9
$DIMSCALE
 40
1.0
  9
$DIMASZ
 40
0.175
  9
$DIMEXO
 40
0.125
  9
$DIMDLI
 40
3.75
  9
$DIMRND
 40
0.0
  9
$DIMDLE
 40
0.0
  9
$DIMEXE
 40
0.375
  9
$DIMTP
 40
0.0
  9
$DIMTM
 40
0.0
  9
$DIMTXT
 40
0.25
  9
$DIMCEN
 40
2.5
  9
$DIMTSZ
 40
0.0
  9
$DIMTOL
 70
0
  9
$DIMLIM
 70
0
  9
$DIMTIH
 70
0
  9
$DIMTOH
 70
0
  9
$DIMSE1
 70
0
  9
$DIMSE2
 70
0
  9
$DIMTAD
 70
1
  9
$DIMZIN
 70
12
  9
$DIMBLK
  1
ARCHTICK
  9
$DIMASO
 70
1
  9
$DIMSHO
 70
1
  9
$DIMPOST
  1

  9
$DIMAPOST
  1

  9
$DIMALT
 70
0
  9
$DIMALTD
 70
3
  9
$DIMALTF
 40
0.03937007874
  9
$DIMLFAC
 40
100.0
  9
$DIMTOFL
 70
1
  9
$DIMTVP
 40
0.0
  9
$DIMTIX
 70
0
  9
$DIMSOXD
 70
0
  9
$DIMSAH
 70
0
  9
$DIMBLK1
  1

  9
$DIMBLK2
  1

  9
$DIMSTYLE
  2
EZDXF
  9
$DIMCLRD
 70
0
  9
$DIMCLRE
 70
0
  9
$DIMCLRT
 70
0
  9
$DIMTFAC
 40
0.5
  9
$DIMGAP
 40
0.1
  9
$DIMJUST
 70
0
  9
$DIMSD1
 70
0
  9
$DIMSD2
 70
0
  9
$DIMTOLJ
 70
0
  9
$DIMTZIN
 70
8
  9
$DIMALTZ
 70
0
  9
$DIMALTTZ
 70
0
  9
$DIMUPT
 70
1
  9
$DIMDEC
 70
2
  9
$DIMTDEC
 70
2
  9
$DIMALTU
 70
2
  9
$DIMALTTD
 70
3
  9
$DIMTXSTY
  7
OpenSansCondensed-Light
  9
$DIMAUNIT
 70
0
  9
$DIMADEC
 70
2
  9
$DIMALTRND
 40
0.0
  9
$DIMAZIN
 70
3
  9
$DIMDSEP
 70
46
  9
$DIMATFIT
 70
3
  9
$DIMFRAC
 70
0
  9
$DIMLDRBLK
  1

  9
$DIMLUNIT
 70
2
  9
$DIMLWD
 70
-2
  9
$DIMLWE
 70
-2
  9
$DIMTMOVE
 70
2
  9
$DIMFXL
 40
1.0
  9
$DIMFXLON
 70
0
  9
$DIMJOGANG
 40
0.785398163397
  9
$DIMTFILL
 70
0
  9
$DIMTFILLCLR
 70
0
  9
$DIMARCSYM
 70
0
  9
$DIMLTYPE
  6

  9
$DIMLTEX1
  6

  9
$DIMLTEX2
  6

  9
$DIMTXTDIRECTION
 70
0
  9
$LUNITS
 70
2
  9
$LUPREC
 70
4
  9
$SKETCHINC
 40
1.0
  9
$FILLETRAD
 40
10.0
  9
$AUNITS
 70
0
  9
$AUPREC
 70
2
  9
$MENU
  1
.
  9
$ELEVATION
 40
0.0
  9
$PELEVATION
 40
0.0
  9
$THICKNESS
 40
0.0
  9
$LIMCHECK
 70
0
  9
$CHAMFERA
 40
0.0
  9
$CHAMFERB
 40
0.0
  9
$CHAMFERC
 40
0.0
  9
$CHAMFERD
 40
0.0
  9
$SKPOLY
 70
0
  9
$TDCREATE
 40
2461291.5380439814
  9
$TDUCREATE
 40
2458532.153996898
  9
$TDUPDATE
 40
2461291.5380439814
  9
$TDUUPDATE
 40
2458532.1544311
  9
$TDINDWG
 40
0.0
  9
$TDUSRTIMER
 40
0.0
  9
$USRTIMER
 70
1
  9
$ANGBASE
 50
0.0
  9
$ANGDIR
 70
0
  9
$PDMODE
 70
0
  9
$PDSIZE
 40
0.0
  9
$PLINEWID
 40
0.0
  9
$SPLFRAME
 70
0
  9
$SPLINETYPE
 70
6
  9
$SPLINESEGS
 70
8
  9
$HANDSEED
  5
32A
  9
$SURFTAB1
 70
6
  9
$SURFTAB2
 70
6
  9
$SURFTYPE
 70
6
  9
$SURFU
 70
6
  9
$SURFV
 70
6
  9
$UCSBASE
  2

  9
$UCSNAME
  2

  9
$UCSORG
 10
0.0
 20
0.0
 30
0.0
  9
$UCSXDIR
 10
1.0
 20
0.0
 30
0.0
  9
$UCSYDIR
 10
0.0
 20
1.0
 30
0.0
  9
$UCSORTHOREF
  2

  9
$UCSORTHOVIEW
 70
0
  9
$UCSORGTOP
 10
0.0
 20
0.0
 30
0.0
  9
$UCSORGBOTTOM
 10
0.0
 20
0.0
 30
0.0
  9
$UCSORGLEFT
 10
0.0
 20
0.0
 30
0.0
  9
$UCSORGRIGHT
 10
0.0
 20
0.0
 30
0.0
  9
$UCSORGFRONT
 10
0.0
 20
0.0
 30
0.0
  9
$UCSORGBACK
 10
0.0
 20
0.0
 30
0.0
  9
$PUCSBASE
  2

  9
$PUCSNAME
  2

  9
$PUCSORG
 10
0.0
 20
0.0
 30
0.0
  9
$PUCSXDIR
 10
1.0
 20
0.0
 30
0.0
  9
$PUCSYDIR
 10
0.0
 20
1.0
 30
0.0
  9
$PUCSORTHOREF
  2

  9
$PUCSORTHOVIEW
 70
0
  9
$PUCSORGTOP
 10
0.0
 20
0.0
 30
0.0
  9
$PUCSORGBOTTOM
 10
0.0
 20
0.0
 30
0.0
  9
$PUCSORGLEFT
 10
0.0
 20
0.0
 30
0.0
  9
$PUCSORGRIGHT
 10
0.0
 20
0.0
 30
0.0
  9
$PUCSORGFRONT
 10
0.0
 20
0.0
 30
0.0
  9
$PUCSORGBACK
 10
0.0
 20
0.0
 30
0.0
  9
$USERI1
 70
0
  9
$USERI2
 70
0
  9
$USERI3
 70
0
  9
$USERI4
 70
0
  9
$USERI5
 70
0
  9
$USERR1
 40
0.0
  9
$USERR2
 40
0.0
  9
$USERR3
 40
0.0
  9
$USERR4
 40
0.0
  9
$USERR5
 40
0.0
  9
$WORLDVIEW
 70
1
  9
$SHADEDGE
 70
3
  9
$SHADEDIF
 70
70
  9
$TILEMODE
 70
1
  9
$MAXACTVP
 70
64
  9
$PINSBASE
 10
0.0
 20
0.0
 30
0.0
  9
$PLIMCHECK
 70
0
  9
$PEXTMIN
 10
1e+20
 20
1e+20
 30
1e+20
  9
$PEXTMAX
 10
-1e+20
 20
-1e+20
 30
-1e+20
  9
$PLIMMIN
 10
0.0
 20
0.0
  9
$PLIMMAX
 10
420.0
 20
297.0
  9
$UNITMODE
 70
0
  9
$VISRETAIN
 70
1
  9
$PLINEGEN
 70
0
  9
$PSLTSCALE
 70
1
  9
$TREEDEPTH
 70
3020
  9
$CMLSTYLE
  2
Standard
  9
$CMLJUST
 70
0
  9
$CMLSCALE
 40
20.0
  9
$PROXYGRAPHICS
 70
1
  9
$MEASUREMENT
 70
1
  9
$CELWEIGHT
370
-1
  9
$ENDCAPS
280
0
  9
$JOINSTYLE
280
0
  9
$LWDISPLAY
290
0
  9
$INSUNITS
 70
4
  9
$HYPERLINKBASE
  1

  9
$STYLESHEET
  1

  9
$XEDIT
290
1
  9
$CEPSNTYPE
380
0
  9
$PSTYLEMODE
290
1
  9
$FINGERPRINTGUID
  2
{FBFA8CC0-9A5F-48C0-B3C2-E5378F49A3C5}
  9
$VERSIONGUID
  2
{E1B9E616-0EBC-4000-9A49-70CFAEDD370D}
  9
$EXTNAMES
290
1
  9
$PSVPSCALE
 40
0.0
  9
$OLESTARTUP
290
0
  9
$SORTENTS
280
127
  9
$INDEXCTL
280
0
  9
$HIDETEXT
280
1
  9
$XCLIPFRAME
280
1
  9
$HALOGAP
280
0
  9
$OBSCOLOR
 70
257
  9
$OBSLTYPE
280
0
  9
$INTERSECTIONDISPLAY
280
0
  9
$INTERSECTIONCOLOR
 70
257
  9
$DIMASSOC
280
2
  9
$PROJECTNAME
  1

  9
$CAMERADISPLAY
290
0
  9
$LENSLENGTH
 40
50.0
  9
$CAMERAHEIGHT
 40
0.0
  9
$STEPSPERSEC
 40
24.0
  9
$STEPSIZE
 40
100.0
  9
$3DDWFPREC
 40
2.0
  9
$PSOLWIDTH
 40
0.005
  9
$PSOLHEIGHT
 40
0.08
  9
$LOFTANG1
 40
1.570796326795
  9
$LOFTANG2
 40
1.570796326795
  9
$LOFTMAG1
 40
0.0
  9
$LOFTMAG2
 40
0.0
  9
$LOFTPARAM
 70
7
  9
$LOFTNORMALS
280
1
  9
$LATITUDE
 40
37.795
  9
$LONGITUDE
 40
-122.394
  9
$NORTHDIRECTION
 40
0.0
  9
$TIMEZONE
 70
-8000
  9
$LIGHTGLYPHDISPLAY
280
1
  9
$TILEMODELIGHTSYNCH
280
1
  9
$CMATERIAL
347
20
  9
$SOLIDHIST
280
0
  9
$SHOWHIST
280
1
  9
$DWFFRAME
280
2
  9
$DGNFRAME
280
2
  9
$REALWORLDSCALE
290
1
  9
$INTERFERECOLOR
 62
256
  9
$CSHADOW
280
0
  9
$SHADOWPLANELOCATION
 40
0.0
  0
ENDSEC
  0
SECTION
  2
CLASSES
  0
CLASS
  1
ACDBDICTIONARYWDFLT
  2
AcDbDictionaryWithDefault
  3
ObjectDBX Classes
 90
0
 91
0
280
0
281
0
  0
CLASS
  1
SUN
  2
AcDbSun
  3
SCENEOE
 90
1153
 91
0
280
0
281
0
  0
CLASS
  1
VISUALSTYLE
  2
AcDbVisualStyle
  3
ObjectDBX Classes
 90
4095
 91
0
280
0
281
0
  0
CLASS
  1
MATERIAL
  2
AcDbMaterial
  3
ObjectDBX Classes
 90
1153
 91
0
280
0
281
0
  0
CLASS
  1
SCALE
  2
AcDbScale
  3
ObjectDBX Classes
 90
1153
 91
0
280
0
281
0
  0
CLASS
  1
TABLESTYLE
  2
AcDbTableStyle
  3
ObjectDBX Classes
 90
4095
 91
0
280
0
281
0
  0
CLASS
  1
MLEADERSTYLE
  2
AcDbMLeaderStyle
  3
ACDB_MLEADERSTYLE_CLASS
 90
4095
 91
0
280
0
281
0
  0
CLASS
  1
DICTIONARYVAR
  2
AcDbDictionaryVar
  3
ObjectDBX Classes
 90
0
 91
0
280
0
281
0
  0
CLASS
  1
CELLSTYLEMAP
  2
AcDbCellStyleMap
  3
ObjectDBX Classes
 90
1152
 91
0
280
0
281
0
  0
CLASS
  1
MENTALRAYRENDERSETTINGS
  2
AcDbMentalRayRenderSettings
  3
SCENEOE
 90
1024
 91
0
280
0
281
0
  0
CLASS
  1
ACDBDETAILVIEWSTYLE
  2
AcDbDetailViewStyle
  3
ObjectDBX Classes
 90
1025
 91
0
280
0
281
0
  0
CLASS
  1
ACDBSECTIONVIEWSTYLE
  2
AcDbSectionViewStyle
  3
ObjectDBX Classes
 90
1025
 91
0
280
0
281
0
  0
CLASS
  1
RASTERVARIABLES
  2
AcDbRasterVariables
  3
ISM
 90
0
 91
0
280
0
281
0
  0
CLASS
  1
LAYOUT
  2
AcDbLayout
  3
ObjectDBX Classes
 90
0
 91
0
280
0
281
0
  0
CLASS
  1
ACDBPLACEHOLDER
  2
AcDbPlaceHolder
  3
ObjectDBX Classes
 90
0
 91
0
280
0
281
0
  0
ENDSEC
  0
SECTION
  2
TABLES
  0
TABLE
  2
VPORT
  5
8
330
0
100
AcDbSymbolTable
 70
1
  0
VPORT
  5
23
330
8
100
AcDbSymbolTableRecord
100
AcDbViewportTableRecord
  2
*Active
 70
0
 10
0.0
 20
0.0
 11
1.0
 21
1.0
 12
0.0
 22
0.0
 13
0.0
 23
0.0
 14
0.5
 24
0.5
 15
0.5
 25
0.5
 16
0.0
 26
0.0
 36
1.0
 17
0.0
 27
0.0
 37
0.0
 40
1000.0
 41
1.34
 42
50.0
 43
0.0
 44
0.0
 50
0.0
 51
0.0
 71
0
 72
1000
 73
1
 74
3
 75
0
 76
0
 77
0
 78
0
281
0
 65
0
146
0.0
  0
ENDTAB
  0
TABLE
  2
LTYPE
  5
2
330
0
100
AcDbSymbolTable
 70
21
  0
LTYPE
  5
24
330
2
100
AcDbSymbolTableRecord
100
AcDbLinetypeTableRecord
  2
ByBlock
 70
0
  3

 72
65
 73
0
 40
0.0
  0
LTYPE
  5
25
330
2
100
AcDbSymbolTableRecord
100
AcDbLinetypeTableRecord
  2
ByLayer
 70
0
  3

 72
65
 73
0
 40
0.0
  0
LTYPE
  5
26
330
2
100
AcDbSymbolTableRecord
100
AcDbLinetypeTableRecord
  2
Continuous
 70
0
  3

 72
65
 73
0
 40
0.0
  0
LTYPE
  5
2F
330
2
100
AcDbSymbolTableRecord
100
AcDbLinetypeTableRecord
  2
CENTER
 70
0
  3
Center ____ _ ____ _ ____ _ ____ _ ____ _ ____
 72
65
 73
4
 40
5.08
 49
3.175
 74
0
 49
-0.635
 74
0
 49
0.635
 74
0
 49
-0.635
 74
0
  0
LTYPE
  5
30
330
2
100
AcDbSymbolTableRecord
100
AcDbLinetypeTableRecord
  2
CENTERX2
 70
0
  3
Center (2x) ________  __  ________  __  ________
 72
65
 73
4
 40
8.89
 49
6.35
 74
0
 49
-0.635
 74
0
 49
1.27
 74
0
 49
-0.635
 74
0
  0
LTYPE
  5
31
330
2
100
AcDbSymbolTableRecord
100
AcDbLinetypeTableRecord
  2
CENTER2
 70
0
  3
Center (.5x) ____ _ ____ _ ____ _ ____ _ ____
 72
65
 73
4
 40
2.54
 49
1.587
 74
0
 49
-0.318
 74
0
 49
0.318
 74
0
 49
-0.318
 74
0
  0
LTYPE
  5
32
330
2
100
AcDbSymbolTableRecord
100
AcDbLinetypeTableRecord
  2
DASHED
 70
0
  3
Dashed __ __ __ __ __ __ __ __ __ __ __ __ __ _
 72
65
 73
2
 40
1.524
 49
1.27
 74
0
 49
-0.254
 74
0
  0
LTYPE
  5
33
330
2
100
AcDbSymbolTableRecord
100
AcDbLinetypeTableRecord
  2
DASHEDX2
 70
0
  3
Dashed (2x) ____  ____  ____  ____  ____  ____
 72
65
 73
2
 40
3.048
 49
2.54
 74
0
 49
-0.508
 74
0
  0
LTYPE
  5
34
330
2
100
AcDbSymbolTableRecord
100
AcDbLinetypeTableRecord
  2
DASHED2
 70
0
  3
Dashed (.5x) _ _ _ _ _ _ _ _ _ _ _ _ _ _
 72
65
 73
2
 40
0.762
 49
0.635
 74
0
 49
-0.127
 74
0
  0
LTYPE
  5
35
330
2
100
AcDbSymbolTableRecord
100
AcDbLinetypeTableRecord
  2
PHANTOM
 70
0
  3
Phantom ______  __  __  ______  __  __  ______
 72
65
 73
6
 40
6.35
 49
3.175
 74
0
 49
-0.635
 74
0
 49
0.635
 74
0
 49
-0.635
 74
0
 49
0.635
 74
0
 49
-0.635
 74
0
  0
LTYPE
  5
36
330
2
100
AcDbSymbolTableRecord
100
AcDbLinetypeTableRecord
  2
PHANTOMX2
 70
0
  3
Phantom (2x)____________    ____    ____    ____________
 72
65
 73
6
 40
10.795
 49
6.35
 74
0
 49
-0.635
 74
0
 49
1.27
 74
0
 49
-0.635
 74
0
 49
1.27
 74
0
 49
-0.635
 74
0
  0
LTYPE
  5
37
330
2
100
AcDbSymbolTableRecord
100
AcDbLinetypeTableRecord
  2
PHANTOM2
 70
0
  3
Phantom (.5x) ___ _ _ ___ _ _ ___ _ _ ___ _ _ ___
 72
65
 73
6
 40
3.175
 49
1.587
 74
0
 49
-0.318
 74
0
 49
0.318
 74
0
 49
-0.318
 74
0
 49
0.318
 74
0
 49
-0.318
 74
0
  0
LTYPE
  5
38
330
2
100
AcDbSymbolTableRecord
100
AcDbLinetypeTableRecord
  2
DASHDOT
 70
0
  3
Dash dot __ . __ . __ . __ . __ . __ . __ . __
 72
65
 73
4
 40
3.556
 49
2.54
 74
0
 49
-0.508
 74
0
 49
0.0
 74
0
 49
-0.508
 74
0
  0
LTYPE
  5
39
330
2
100
AcDbSymbolTableRecord
100
AcDbLinetypeTableRecord
  2
DASHDOTX2
 70
0
  3
Dash dot (2x) ____  .  ____  .  ____  .  ____
 72
65
 73
4
 40
6.096
 49
5.08
 74
0
 49
-0.508
 74
0
 49
0.0
 74
0
 49
-0.508
 74
0
  0
LTYPE
  5
3A
330
2
100
AcDbSymbolTableRecord
100
AcDbLinetypeTableRecord
  2
DASHDOT2
 70
0
  3
Dash dot (.5x) _ . _ . _ . _ . _ . _ . _ . _
 72
65
 73
4
 40
1.778
 49
1.27
 74
0
 49
-0.254
 74
0
 49
0.0
 74
0
 49
-0.254
 74
0
  0
LTYPE
  5
3B
330
2
100
AcDbSymbolTableRecord
100
AcDbLinetypeTableRecord
  2
DOT
 70
0
  3
Dot .  .  .  .  .  .  .  .  .  .  .  .  .  .  .  .
 72
65
 73
2
 40
0.508
 49
0.0
 74
0
 49
-0.508
 74
0
  0
LTYPE
  5
3C
330
2
100
AcDbSymbolTableRecord
100
AcDbLinetypeTableRecord
  2
DOTX2
 70
0
  3
Dot (2x) .    .    .    .    .    .    .    . 
 72
65
 73
2
 40
1.016
 49
0.0
 74
0
 49
-1.016
 74
0
  0
LTYPE
  5
3D
330
2
100
AcDbSymbolTableRecord
100
AcDbLinetypeTableRecord
  2
DOT2
 70
0
  3
Dot (.5) . . . . . . . . . . . . . . . . . . . 
 72
65
 73
2
 40
0.254
 49
0.0
 74
0
 49
-0.254
 74
0
  0
LTYPE
  5
3E
330
2
100
AcDbSymbolTableRecord
100
AcDbLinetypeTableRecord
  2
DIVIDE
 70
0
  3
Divide __ . . __ . . __ . . __ . . __ . . __
 72
65
 73
6
 40
4.064
 49
2.54
 74
0
 49
-0.508
 74
0
 49
0.0
 74
0
 49
-0.508
 74
0
 49
0.0
 74
0
 49
-0.508
 74
0
  0
LTYPE
  5
3F
330
2
100
AcDbSymbolTableRecord
100
AcDbLinetypeTableRecord
  2
DIVIDEX2
 70
0
  3
Divide (2x) ____  . .  ____  . .  ____  . .  ____
 72
65
 73
6
 40
6.604
 49
5.08
 74
0
 49
-0.508
 74
0
 49
0.0
 74
0
 49
-0.508
 74
0
 49
0.0
 74
0
 49
-0.508
 74
0
  0
LTYPE
  5
40
330
2
100
AcDbSymbolTableRecord
100
AcDbLinetypeTableRecord
  2
DIVIDE2
 70
0
  3
Divide(.5x) _ . _ . _ . _ . _ . _ . _ . _
 72
65
 73
6
 40
2.032
 49
1.27
 74
0
 49
-0.254
 74
0
 49
0.0
 74
0
 49
-0.254
 74
0
 49
0.0
 74
0
 49
-0.254
 74
0
  0
ENDTAB
  0
TABLE
  2
LAYER
  5
1
330
0
100
AcDbSymbolTable
 70
29
  0
LAYER
  5
27
330
1
100
AcDbSymbolTableRecord
100
AcDbLayerTableRecord
  2
0
 70
0
 62
7
  6
Continuous
370
-3
390
13
347
21
  0
LAYER
  5
28
330
1
100
AcDbSymbolTableRecord
100
AcDbLayerTableRecord
  2
Defpoints
 70
0
 62
7
  6
Continuous
290
0
370
-3
390
13
347
21
  0
LAYER
  5
8A
330
1
100
AcDbSymbolTableRecord
100
AcDbLayerTableRecord
  2
0_BORDER
 70
0
 62
7
  6
Continuous
370
50
390
13
347
21
  0
LAYER
  5
8B
330
1
100
AcDbSymbolTableRecord
100
AcDbLayerTableRecord
  2
0_TITLE_BLOCK
 70
0
 62
4
  6
Continuous
370
35
390
13
347
21
  0
LAYER
  5
8C
330
1
100
AcDbSymbolTableRecord
100
AcDbLayerTableRecord
  2
ENCL_OUTLINE
 70
0
 62
7
  6
Continuous
370
70
390
13
347
21
  0
LAYER
  5
8D
330
1
100
AcDbSymbolTableRecord
100
AcDbLayerTableRecord
  2
ENCL_DOOR
 70
0
 62
8
  6
Continuous
370
35
390
13
347
21
  0
LAYER
  5
8E
330
1
100
AcDbSymbolTableRecord
100
AcDbLayerTableRecord
  2
BASE_PLINTH
 70
0
 62
9
  6
Continuous
370
50
390
13
347
21
  0
LAYER
  5
8F
330
1
100
AcDbSymbolTableRecord
100
AcDbLayerTableRecord
  2
SUBPANEL_PLATE
 70
0
 62
8
  6
Continuous
370
35
390
13
347
21
  0
LAYER
  5
90
330
1
100
AcDbSymbolTableRecord
100
AcDbLayerTableRecord
  2
WIRE_DUCT
 70
0
 62
8
  6
Continuous
370
18
390
13
347
21
  0
LAYER
  5
91
330
1
100
AcDbSymbolTableRecord
100
AcDbLayerTableRecord
  2
DIN_RAIL
 70
0
 62
2
  6
Continuous
370
25
390
13
347
21
  0
LAYER
  5
92
330
1
100
AcDbSymbolTableRecord
100
AcDbLayerTableRecord
  2
PLC_CHASSIS
 70
0
 62
5
  6
Continuous
370
50
390
13
347
21
  0
LAYER
  5
93
330
1
100
AcDbSymbolTableRecord
100
AcDbLayerTableRecord
  2
PLC_SLOT_CPU
 70
0
 62
5
  6
Continuous
370
35
390
13
347
21
  0
LAYER
  5
94
330
1
100
AcDbSymbolTableRecord
100
AcDbLayerTableRecord
  2
PLC_SLOT_DI
 70
0
 62
3
  6
Continuous
370
35
390
13
347
21
  0
LAYER
  5
95
330
1
100
AcDbSymbolTableRecord
100
AcDbLayerTableRecord
  2
PLC_SLOT_DO
 70
0
 62
30
  6
Continuous
370
35
390
13
347
21
  0
LAYER
  5
96
330
1
100
AcDbSymbolTableRecord
100
AcDbLayerTableRecord
  2
PLC_SLOT_AI
 70
0
 62
6
  6
Continuous
370
35
390
13
347
21
  0
LAYER
  5
97
330
1
100
AcDbSymbolTableRecord
100
AcDbLayerTableRecord
  2
PLC_SLOT_AO
 70
0
 62
4
  6
Continuous
370
35
390
13
347
21
  0
LAYER
  5
98
330
1
100
AcDbSymbolTableRecord
100
AcDbLayerTableRecord
  2
PLC_SLOT_SPARE
 70
0
 62
8
  6
Continuous
370
25
390
13
347
21
  0
LAYER
  5
99
330
1
100
AcDbSymbolTableRecord
100
AcDbLayerTableRecord
  2
POWER_SUPPLY
 70
0
 62
1
  6
Continuous
370
35
390
13
347
21
  0
LAYER
  5
9A
330
1
100
AcDbSymbolTableRecord
100
AcDbLayerTableRecord
  2
COMM_SWITCH
 70
0
 62
3
  6
Continuous
370
35
390
13
347
21
  0
LAYER
  5
9B
330
1
100
AcDbSymbolTableRecord
100
AcDbLayerTableRecord
  2
IS_BARRIERS
 70
0
 62
140
  6
Continuous
370
35
390
13
347
21
  0
LAYER
  5
9C
330
1
100
AcDbSymbolTableRecord
100
AcDbLayerTableRecord
  2
RELAYS
 70
0
 62
2
  6
Continuous
370
35
390
13
347
21
  0
LAYER
  5
9D
330
1
100
AcDbSymbolTableRecord
100
AcDbLayerTableRecord
  2
TERMINAL_STRIP
 70
0
 62
92
  6
Continuous
370
35
390
13
347
21
  0
LAYER
  5
9E
330
1
100
AcDbSymbolTableRecord
100
AcDbLayerTableRecord
  2
TERMINAL_IS
 70
0
 62
140
  6
Continuous
370
35
390
13
347
21
  0
LAYER
  5
9F
330
1
100
AcDbSymbolTableRecord
100
AcDbLayerTableRecord
  2
EARTH_BAR
 70
0
 62
40
  6
Continuous
370
50
390
13
347
21
  0
LAYER
  5
A0
330
1
100
AcDbSymbolTableRecord
100
AcDbLayerTableRecord
  2
DOOR_COMPONENTS
 70
0
 62
2
  6
Continuous
370
35
390
13
347
21
  0
LAYER
  5
A1
330
1
100
AcDbSymbolTableRecord
100
AcDbLayerTableRecord
  2
HMI_UNIT
 70
0
 62
4
  6
Continuous
370
50
390
13
347
21
  0
LAYER
  5
A2
330
1
100
AcDbSymbolTableRecord
100
AcDbLayerTableRecord
  2
DIMENSIONS
 70
0
 62
1
  6
Continuous
370
18
390
13
347
21
  0
LAYER
  5
A3
330
1
100
AcDbSymbolTableRecord
100
AcDbLayerTableRecord
  2
TEXT_LABELS
 70
0
 62
7
  6
Continuous
370
25
390
13
347
21
  0
LAYER
  5
A4
330
1
100
AcDbSymbolTableRecord
100
AcDbLayerTableRecord
  2
TEXT_HEADER
 70
0
 62
4
  6
Continuous
370
35
390
13
347
21
  0
ENDTAB
  0
TABLE
  2
STYLE
  5
5
330
0
100
AcDbSymbolTable
 70
26
  0
STYLE
  5
29
330
5
100
AcDbSymbolTableRecord
100
AcDbTextStyleTableRecord
  2
Standard
 70
0
 40
0.0
 41
1.0
 50
0.0
 71
0
 42
2.5
  3
txt
  4

  0
STYLE
  5
41
330
5
100
AcDbSymbolTableRecord
100
AcDbTextStyleTableRecord
  2
OpenSans-Light
 70
0
 40
0.0
 41
1.0
 50
0.0
 71
0
 42
2.5
  3
OpenSans-Light.ttf
  4

  0
STYLE
  5
42
330
5
100
AcDbSymbolTableRecord
100
AcDbTextStyleTableRecord
  2
OpenSans-Light-Italic
 70
0
 40
0.0
 41
1.0
 50
0.0
 71
0
 42
2.5
  3
OpenSans-LightItalic.ttf
  4

  0
STYLE
  5
43
330
5
100
AcDbSymbolTableRecord
100
AcDbTextStyleTableRecord
  2
OpenSans
 70
0
 40
0.0
 41
1.0
 50
0.0
 71
0
 42
2.5
  3
OpenSans-Regular.ttf
  4

  0
STYLE
  5
44
330
5
100
AcDbSymbolTableRecord
100
AcDbTextStyleTableRecord
  2
OpenSans-Italic
 70
0
 40
0.0
 41
1.0
 50
0.0
 71
0
 42
2.5
  3
OpenSans-Italic.ttf
  4

  0
STYLE
  5
45
330
5
100
AcDbSymbolTableRecord
100
AcDbTextStyleTableRecord
  2
OpenSans-SemiBold
 70
0
 40
0.0
 41
1.0
 50
0.0
 71
0
 42
2.5
  3
OpenSans-SemiBold.ttf
  4

  0
STYLE
  5
46
330
5
100
AcDbSymbolTableRecord
100
AcDbTextStyleTableRecord
  2
OpenSans-SemiBoldItalic
 70
0
 40
0.0
 41
1.0
 50
0.0
 71
0
 42
2.5
  3
OpenSans-SemiBoldItalic.ttf
  4

  0
STYLE
  5
47
330
5
100
AcDbSymbolTableRecord
100
AcDbTextStyleTableRecord
  2
OpenSans-Bold
 70
0
 40
0.0
 41
1.0
 50
0.0
 71
0
 42
2.5
  3
OpenSans-Bold.ttf
  4

  0
STYLE
  5
48
330
5
100
AcDbSymbolTableRecord
100
AcDbTextStyleTableRecord
  2
OpenSans-BoldItalic
 70
0
 40
0.0
 41
1.0
 50
0.0
 71
0
 42
2.5
  3
OpenSans-BoldItalic.ttf
  4

  0
STYLE
  5
49
330
5
100
AcDbSymbolTableRecord
100
AcDbTextStyleTableRecord
  2
OpenSans-ExtraBold
 70
0
 40
0.0
 41
1.0
 50
0.0
 71
0
 42
2.5
  3
OpenSans-ExtraBold.ttf
  4

  0
STYLE
  5
4A
330
5
100
AcDbSymbolTableRecord
100
AcDbTextStyleTableRecord
  2
OpenSans-ExtraBoldItalic
 70
0
 40
0.0
 41
1.0
 50
0.0
 71
0
 42
2.5
  3
OpenSans-ExtraBoldItalic.ttf
  4

  0
STYLE
  5
4B
330
5
100
AcDbSymbolTableRecord
100
AcDbTextStyleTableRecord
  2
OpenSansCondensed-Bold
 70
0
 40
0.0
 41
1.0
 50
0.0
 71
0
 42
2.5
  3
OpenSansCondensed-Bold.ttf
  4

  0
STYLE
  5
4C
330
5
100
AcDbSymbolTableRecord
100
AcDbTextStyleTableRecord
  2
OpenSansCondensed-Light
 70
0
 40
0.0
 41
1.0
 50
0.0
 71
0
 42
2.5
  3
OpenSansCondensed-Light.ttf
  4

  0
STYLE
  5
4D
330
5
100
AcDbSymbolTableRecord
100
AcDbTextStyleTableRecord
  2
OpenSansCondensed-Italic
 70
0
 40
0.0
 41
1.0
 50
0.0
 71
0
 42
2.5
  3
OpenSansCondensed-LightItalic.ttf
  4

  0
STYLE
  5
4E
330
5
100
AcDbSymbolTableRecord
100
AcDbTextStyleTableRecord
  2
LiberationSans
 70
0
 40
0.0
 41
1.0
 50
0.0
 71
0
 42
2.5
  3
LiberationSans-Regular.ttf
  4

  0
STYLE
  5
4F
330
5
100
AcDbSymbolTableRecord
100
AcDbTextStyleTableRecord
  2
LiberationSans-Bold
 70
0
 40
0.0
 41
1.0
 50
0.0
 71
0
 42
2.5
  3
LiberationSans-Bold.ttf
  4

  0
STYLE
  5
50
330
5
100
AcDbSymbolTableRecord
100
AcDbTextStyleTableRecord
  2
LiberationSans-BoldItalic
 70
0
 40
0.0
 41
1.0
 50
0.0
 71
0
 42
2.5
  3
LiberationSans-BoldItalic.ttf
  4

  0
STYLE
  5
51
330
5
100
AcDbSymbolTableRecord
100
AcDbTextStyleTableRecord
  2
LiberationSans-Italic
 70
0
 40
0.0
 41
1.0
 50
0.0
 71
0
 42
2.5
  3
LiberationSans-Italic.ttf
  4

  0
STYLE
  5
52
330
5
100
AcDbSymbolTableRecord
100
AcDbTextStyleTableRecord
  2
LiberationSerif
 70
0
 40
0.0
 41
1.0
 50
0.0
 71
0
 42
2.5
  3
LiberationSerif-Regular.ttf
  4

  0
STYLE
  5
53
330
5
100
AcDbSymbolTableRecord
100
AcDbTextStyleTableRecord
  2
LiberationSerif-Bold
 70
0
 40
0.0
 41
1.0
 50
0.0
 71
0
 42
2.5
  3
LiberationSerif-Bold.ttf
  4

  0
STYLE
  5
54
330
5
100
AcDbSymbolTableRecord
100
AcDbTextStyleTableRecord
  2
LiberationSerif-BoldItalic
 70
0
 40
0.0
 41
1.0
 50
0.0
 71
0
 42
2.5
  3
LiberationSerif-BoldItalic.ttf
  4

  0
STYLE
  5
55
330
5
100
AcDbSymbolTableRecord
100
AcDbTextStyleTableRecord
  2
LiberationSerif-Italic
 70
0
 40
0.0
 41
1.0
 50
0.0
 71
0
 42
2.5
  3
LiberationSerif-Italic.ttf
  4

  0
STYLE
  5
56
330
5
100
AcDbSymbolTableRecord
100
AcDbTextStyleTableRecord
  2
LiberationMono
 70
0
 40
0.0
 41
1.0
 50
0.0
 71
0
 42
2.5
  3
LiberationMono-Regular.ttf
  4

  0
STYLE
  5
57
330
5
100
AcDbSymbolTableRecord
100
AcDbTextStyleTableRecord
  2
LiberationMono-Bold
 70
0
 40
0.0
 41
1.0
 50
0.0
 71
0
 42
2.5
  3
LiberationMono-Bold.ttf
  4

  0
STYLE
  5
58
330
5
100
AcDbSymbolTableRecord
100
AcDbTextStyleTableRecord
  2
LiberationMono-BoldItalic
 70
0
 40
0.0
 41
1.0
 50
0.0
 71
0
 42
2.5
  3
LiberationMono-BoldItalic.ttf
  4

  0
STYLE
  5
59
330
5
100
AcDbSymbolTableRecord
100
AcDbTextStyleTableRecord
  2
LiberationMono-Italic
 70
0
 40
0.0
 41
1.0
 50
0.0
 71
0
 42
2.5
  3
LiberationMono-Italic.ttf
  4

  0
ENDTAB
  0
TABLE
  2
VIEW
  5
7
330
0
100
AcDbSymbolTable
 70
0
  0
ENDTAB
  0
TABLE
  2
UCS
  5
6
330
0
100
AcDbSymbolTable
 70
0
  0
ENDTAB
  0
TABLE
  2
APPID
  5
3
330
0
100
AcDbSymbolTable
 70
3
  0
APPID
  5
2A
330
3
100
AcDbSymbolTableRecord
100
AcDbRegAppTableRecord
  2
ACAD
 70
0
  0
APPID
  5
327
330
3
100
AcDbSymbolTableRecord
100
AcDbRegAppTableRecord
  2
HATCHBACKGROUNDCOLOR
 70
0
  0
APPID
  5
328
330
3
100
AcDbSymbolTableRecord
100
AcDbRegAppTableRecord
  2
EZDXF
 70
0
  0
ENDTAB
  0
TABLE
  2
DIMSTYLE
  5
4
330
0
100
AcDbSymbolTable
 70
13
100
AcDbDimStyleTable
  0
DIMSTYLE
105
2B
330
4
100
AcDbSymbolTableRecord
100
AcDbDimStyleTableRecord
  2
Standard
 70
0
 40
1.0
 41
2.5
 42
0.625
 43
3.75
 44
1.25
 45
0.0
 46
0.0
 47
0.0
 48
0.0
 49
2.5
140
2.5
141
2.5
142
0.0
143
0.03937007874
144
1.0
145
0.0
146
1.0
147
0.625
148
0.0
 69
0
 70
0
 71
0
 72
0
 73
0
 74
0
 75
0
 76
0
 77
1
 78
8
 79
3
170
0
171
3
172
1
173
0
174
0
175
0
176
0
177
0
178
0
179
2
271
2
272
2
273
2
274
3
275
0
276
0
277
2
278
44
279
0
280
0
281
0
282
0
283
0
284
8
285
0
286
0
288
0
289
3
290
0
371
-2
372
-2
  0
DIMSTYLE
105
73
330
4
100
AcDbSymbolTableRecord
100
AcDbDimStyleTableRecord
  2
EZDXF
 70
0
 40
1.0
 41
0.175
 42
0.125
 43
3.75
 44
0.375
 45
0.0
 46
0.0
 47
0.0
 48
0.0
 49
2.5
140
0.25
141
2.5
142
0.0
143
0.03937007874
144
100.0
145
0.0
146
0.5
147
0.1
148
0.0
 69
0
 70
0
 71
0
 72
0
 73
0
 74
0
 75
0
 76
0
 77
1
 78
12
 79
3
170
0
171
3
172
1
173
0
174
0
175
0
176
0
177
0
178
0
179
2
271
2
272
2
273
2
274
3
275
0
276
0
277
2
278
46
279
2
280
0
281
0
282
0
283
0
284
8
285
0
286
0
288
1
289
3
290
0
340
4C
342
74
371
-2
372
-2
  0
DIMSTYLE
105
7C
330
4
100
AcDbSymbolTableRecord
100
AcDbDimStyleTableRecord
  2
EZ_M_100_H25_CM
 70
0
 40
1.0
 41
0.25
 42
0.125
 43
3.75
 44
0.375
 45
0.0
 46
0.0
 47
0.0
 48
0.0
 49
2.5
140
0.25
141
2.5
142
0.125
143
0.03937007874
144
100.0
145
0.0
146
0.5
147
0.1
148
0.0
 69
0
 70
0
 71
0
 72
0
 73
0
 74
0
 75
0
 76
0
 77
1
 78
12
 79
3
170
0
171
3
172
1
173
0
174
0
175
0
176
0
177
0
178
0
179
2
271
2
272
2
273
2
274
3
275
0
276
0
277
2
278
46
279
2
280
0
281
0
282
0
283
0
284
8
285
0
286
0
288
1
289
3
290
0
340
4C
371
-2
372
-2
  0
DIMSTYLE
105
7D
330
4
100
AcDbSymbolTableRecord
100
AcDbDimStyleTableRecord
  2
EZ_M_50_H25_CM
 70
0
 40
1.0
 41
0.125
 42
0.0625
 43
3.75
 44
0.1875
 45
0.0
 46
0.0
 47
0.0
 48
0.0
 49
2.5
140
0.125
141
2.5
142
0.0625
143
0.03937007874
144
100.0
145
0.0
146
0.5
147
0.05
148
0.0
 69
0
 70
0
 71
0
 72
0
 73
0
 74
0
 75
0
 76
0
 77
1
 78
12
 79
3
170
0
171
3
172
1
173
0
174
0
175
0
176
0
177
0
178
0
179
2
271
2
272
2
273
2
274
3
275
0
276
0
277
2
278
46
279
2
280
0
281
0
282
0
283
0
284
8
285
0
286
0
288
1
289
3
290
0
340
4C
371
-2
372
-2
  0
DIMSTYLE
105
7E
330
4
100
AcDbSymbolTableRecord
100
AcDbDimStyleTableRecord
  2
EZ_M_25_H25_CM
 70
0
 40
1.0
 41
0.0625
 42
0.03125
 43
3.75
 44
0.09375
 45
0.0
 46
0.0
 47
0.0
 48
0.0
 49
2.5
140
0.0625
141
2.5
142
0.03125
143
0.03937007874
144
100.0
145
0.0
146
0.5
147
0.025
148
0.0
 69
0
 70
0
 71
0
 72
0
 73
0
 74
0
 75
0
 76
0
 77
1
 78
12
 79
3
170
0
171
3
172
1
173
0
174
0
175
0
176
0
177
0
178
0
179
2
271
2
272
2
273
2
274
3
275
0
276
0
277
2
278
46
279
2
280
0
281
0
282
0
283
0
284
8
285
0
286
0
288
1
289
3
290
0
340
4C
371
-2
372
-2
  0
DIMSTYLE
105
7F
330
4
100
AcDbSymbolTableRecord
100
AcDbDimStyleTableRecord
  2
EZ_M_20_H25_CM
 70
0
 40
1.0
 41
0.05
 42
0.025
 43
3.75
 44
0.07500000000000001
 45
0.0
 46
0.0
 47
0.0
 48
0.0
 49
2.5
140
0.05
141
2.5
142
0.025
143
0.03937007874
144
100.0
145
0.0
146
0.5
147
0.020000000000000004
148
0.0
 69
0
 70
0
 71
0
 72
0
 73
0
 74
0
 75
0
 76
0
 77
1
 78
12
 79
3
170
0
171
3
172
1
173
0
174
0
175
0
176
0
177
0
178
0
179
2
271
2
272
2
273
2
274
3
275
0
276
0
277
2
278
46
279
2
280
0
281
0
282
0
283
0
284
8
285
0
286
0
288
1
289
3
290
0
340
4C
371
-2
372
-2
  0
DIMSTYLE
105
80
330
4
100
AcDbSymbolTableRecord
100
AcDbDimStyleTableRecord
  2
EZ_M_10_H25_CM
 70
0
 40
1.0
 41
0.025
 42
0.0125
 43
3.75
 44
0.037500000000000006
 45
0.0
 46
0.0
 47
0.0
 48
0.0
 49
2.5
140
0.025
141
2.5
142
0.0125
143
0.03937007874
144
100.0
145
0.0
146
0.5
147
0.010000000000000002
148
0.0
 69
0
 70
0
 71
0
 72
0
 73
0
 74
0
 75
0
 76
0
 77
1
 78
12
 79
3
170
0
171
3
172
1
173
0
174
0
175
0
176
0
177
0
178
0
179
2
271
2
272
2
273
2
274
3
275
0
276
0
277
2
278
46
279
2
280
0
281
0
282
0
283
0
284
8
285
0
286
0
288
1
289
3
290
0
340
4C
371
-2
372
-2
  0
DIMSTYLE
105
81
330
4
100
AcDbSymbolTableRecord
100
AcDbDimStyleTableRecord
  2
EZ_M_5_H25_CM
 70
0
 40
1.0
 41
0.0125
 42
0.00625
 43
3.75
 44
0.018750000000000003
 45
0.0
 46
0.0
 47
0.0
 48
0.0
 49
2.5
140
0.0125
141
2.5
142
0.00625
143
0.03937007874
144
100.0
145
0.0
146
0.5
147
0.005000000000000001
148
0.0
 69
0
 70
0
 71
0
 72
0
 73
0
 74
0
 75
0
 76
0
 77
1
 78
12
 79
3
170
0
171
3
172
1
173
0
174
0
175
0
176
0
177
0
178
0
179
2
271
2
272
2
273
2
274
3
275
0
276
0
277
2
278
46
279
2
280
0
281
0
282
0
283
0
284
8
285
0
286
0
288
1
289
3
290
0
340
4C
371
-2
372
-2
  0
DIMSTYLE
105
82
330
4
100
AcDbSymbolTableRecord
100
AcDbDimStyleTableRecord
  2
EZ_M_1_H25_CM
 70
0
 40
1.0
 41
0.0025
 42
0.00125
 43
3.75
 44
0.00375
 45
0.0
 46
0.0
 47
0.0
 48
0.0
 49
2.5
140
0.0025
141
2.5
142
0.00125
143
0.03937007874
144
100.0
145
0.0
146
0.5
147
0.001
148
0.0
 69
0
 70
0
 71
0
 72
0
 73
0
 74
0
 75
0
 76
0
 77
1
 78
12
 79
3
170
0
171
3
172
1
173
0
174
0
175
0
176
0
177
0
178
0
179
2
271
2
272
2
273
2
274
3
275
0
276
0
277
2
278
46
279
2
280
0
281
0
282
0
283
0
284
8
285
0
286
0
288
1
289
3
290
0
340
4C
371
-2
372
-2
  0
DIMSTYLE
105
83
330
4
100
AcDbSymbolTableRecord
100
AcDbDimStyleTableRecord
  2
EZ_RADIUS
 70
0
 40
1.0
 41
0.25
 42
0.125
 43
3.75
 44
0.375
 45
0.0
 46
0.0
 47
0.0
 48
0.0
 49
2.5
140
0.25
141
0.0
142
0.0
143
0.03937007874
144
100.0
145
0.0
146
0.5
147
0.1
148
0.0
 69
0
 70
0
 71
0
 72
0
 73
0
 74
0
 75
0
 76
0
 77
1
 78
12
 79
3
170
0
171
3
172
0
173
0
174
0
175
0
176
0
177
0
178
0
179
2
271
2
272
2
273
2
274
3
275
0
276
0
277
2
278
46
279
1
280
0
281
0
282
0
283
0
284
8
285
0
286
0
288
1
289
3
290
0
340
4C
342
84
371
-2
372
-2
  0
DIMSTYLE
105
88
330
4
100
AcDbSymbolTableRecord
100
AcDbDimStyleTableRecord
  2
EZ_RADIUS_INSIDE
 70
0
 40
1.0
 41
0.25
 42
0.125
 43
3.75
 44
0.375
 45
0.0
 46
0.0
 47
0.0
 48
0.0
 49
2.5
140
0.25
141
0.0
142
0.0
143
0.03937007874
144
100.0
145
0.0
146
0.5
147
0.1
148
0.0
 69
0
 70
0
 71
0
 72
0
 73
0
 74
0
 75
0
 76
0
 77
0
 78
12
 79
3
170
0
171
3
172
0
173
0
174
1
175
0
176
0
177
0
178
0
179
2
271
2
272
2
273
2
274
3
275
0
276
0
277
2
278
46
279
0
280
0
281
0
282
0
283
0
284
8
285
0
286
0
288
1
289
0
290
0
340
4C
342
84
371
-2
372
-2
  0
DIMSTYLE
105
89
330
4
100
AcDbSymbolTableRecord
100
AcDbDimStyleTableRecord
  2
EZ_CURVED
 70
0
 40
1.0
 41
0.25
 42
0.125
 43
3.75
 44
0.375
 45
0.0
 46
0.0
 47
0.0
 48
0.0
 49
2.5
140
0.25
141
2.5
142
0.0
143
0.03937007874
144
100.0
145
0.0
146
0.5
147
0.1
148
0.0
 69
0
 70
0
 71
0
 72
0
 73
0
 74
0
 75
0
 76
0
 77
1
 78
12
 79
2
 90
2
170
0
171
3
172
1
173
0
174
0
175
0
176
0
177
0
178
0
179
2
271
2
272
2
273
2
274
3
275
0
276
0
277
2
278
46
279
2
280
0
281
0
282
0
283
0
284
8
285
0
286
0
288
1
289
3
290
0
340
4C
371
-2
372
-2
  0
DIMSTYLE
105
A5
330
4
100
AcDbSymbolTableRecord
100
AcDbDimStyleTableRecord
  2
METRIC_MM
 70
0
 40
1.0
 41
25.0
 42
10.0
 43
3.75
 44
15.0
 45
0.0
 46
0.0
 47
0.0
 48
0.0
 49
2.5
140
35.0
141
2.5
142
0.0
143
0.03937007874
144
1.0
145
0.0
146
1.0
147
0.625
148
0.0
 69
0
 70
0
 71
0
 72
0
 73
0
 74
0
 75
0
 76
0
 77
1
 78
8
 79
3
170
0
171
3
172
1
173
0
174
0
175
0
176
1
177
1
178
7
179
2
271
0
272
2
273
2
274
3
275
0
276
0
277
2
278
44
279
0
280
0
281
0
282
0
283
0
284
8
285
0
286
0
288
0
289
3
290
0
371
-2
372
-2
  0
ENDTAB
  0
TABLE
  2
BLOCK_RECORD
  5
9
330
0
100
AcDbSymbolTable
 70
18
  0
BLOCK_RECORD
  5
17
330
9
100
AcDbSymbolTableRecord
100
AcDbBlockTableRecord
  2
*Model_Space
340
1A
 70
0
280
1
281
0
  0
BLOCK_RECORD
  5
1B
330
9
100
AcDbSymbolTableRecord
100
AcDbBlockTableRecord
  2
*Paper_Space
340
1E
 70
0
280
1
281
0
  0
BLOCK_RECORD
  5
74
330
9
100
AcDbSymbolTableRecord
100
AcDbBlockTableRecord
  2
_ARCHTICK
340
0
 70
0
280
1
281
0
  0
BLOCK_RECORD
  5
78
330
9
100
AcDbSymbolTableRecord
100
AcDbBlockTableRecord
  2
_CLOSEDFILLED
340
0
 70
0
280
1
281
0
  0
BLOCK_RECORD
  5
84
330
9
100
AcDbSymbolTableRecord
100
AcDbBlockTableRecord
  2
_CLOSEDBLANK
340
0
 70
0
280
1
281
0
  0
BLOCK_RECORD
  5
12F
330
9
100
AcDbSymbolTableRecord
100
AcDbBlockTableRecord
  2
*D1
340
0
 70
0
280
1
281
0
  0
BLOCK_RECORD
  5
13E
330
9
100
AcDbSymbolTableRecord
100
AcDbBlockTableRecord
  2
*D2
340
0
 70
0
280
1
281
0
  0
BLOCK_RECORD
  5
14D
330
9
100
AcDbSymbolTableRecord
100
AcDbBlockTableRecord
  2
*D3
340
0
 70
0
280
1
281
0
  0
BLOCK_RECORD
  5
15C
330
9
100
AcDbSymbolTableRecord
100
AcDbBlockTableRecord
  2
*D4
340
0
 70
0
280
1
281
0
  0
BLOCK_RECORD
  5
16B
330
9
100
AcDbSymbolTableRecord
100
AcDbBlockTableRecord
  2
*D5
340
0
 70
0
280
1
281
0
  0
BLOCK_RECORD
  5
17A
330
9
100
AcDbSymbolTableRecord
100
AcDbBlockTableRecord
  2
*D6
340
0
 70
0
280
1
281
0
  0
BLOCK_RECORD
  5
18B
330
9
100
AcDbSymbolTableRecord
100
AcDbBlockTableRecord
  2
*D7
340
0
 70
0
280
1
281
0
  0
BLOCK_RECORD
  5
19C
330
9
100
AcDbSymbolTableRecord
100
AcDbBlockTableRecord
  2
*D8
340
0
 70
0
280
1
281
0
  0
BLOCK_RECORD
  5
2C9
330
9
100
AcDbSymbolTableRecord
100
AcDbBlockTableRecord
  2
*D9
340
0
 70
0
280
1
281
0
  0
BLOCK_RECORD
  5
2D8
330
9
100
AcDbSymbolTableRecord
100
AcDbBlockTableRecord
  2
*D10
340
0
 70
0
280
1
281
0
  0
BLOCK_RECORD
  5
2E7
330
9
100
AcDbSymbolTableRecord
100
AcDbBlockTableRecord
  2
*D11
340
0
 70
0
280
1
281
0
  0
BLOCK_RECORD
  5
2F6
330
9
100
AcDbSymbolTableRecord
100
AcDbBlockTableRecord
  2
*D12
340
0
 70
0
280
1
281
0
  0
BLOCK_RECORD
  5
305
330
9
100
AcDbSymbolTableRecord
100
AcDbBlockTableRecord
  2
*D13
340
0
 70
0
280
1
281
0
  0
ENDTAB
  0
ENDSEC
  0
SECTION
  2
BLOCKS
  0
BLOCK
  5
18
330
17
100
AcDbEntity
  8
0
100
AcDbBlockBegin
  2
*Model_Space
 70
0
 10
0.0
 20
0.0
 30
0.0
  3
*Model_Space
  1

  0
ENDBLK
  5
19
330
17
100
AcDbEntity
  8
0
100
AcDbBlockEnd
  0
BLOCK
  5
1C
330
1B
100
AcDbEntity
  8
0
100
AcDbBlockBegin
  2
*Paper_Space
 70
0
 10
0.0
 20
0.0
 30
0.0
  3
*Paper_Space
  1

  0
ENDBLK
  5
1D
330
1B
100
AcDbEntity
  8
0
100
AcDbBlockEnd
  0
BLOCK
  5
75
330
74
100
AcDbEntity
  8
0
100
AcDbBlockBegin
  2
_ARCHTICK
 70
0
 10
0.0
 20
0.0
 30
0.0
  3
_ARCHTICK
  1

  0
LWPOLYLINE
  5
77
330
74
100
AcDbEntity
  8
0
  6
BYBLOCK
 62
0
100
AcDbPolyline
 90
2
 70
0
 43
0.15
 10
-0.5
 20
-0.5
 10
0.5
 20
0.5
  0
ENDBLK
  5
76
330
74
100
AcDbEntity
  8
0
100
AcDbBlockEnd
  0
BLOCK
  5
79
330
78
100
AcDbEntity
  8
0
100
AcDbBlockBegin
  2
_CLOSEDFILLED
 70
0
 10
0.0
 20
0.0
 30
0.0
  3
_CLOSEDFILLED
  1

  0
SOLID
  5
7B
330
78
100
AcDbEntity
  8
0
  6
BYBLOCK
 62
0
100
AcDbTrace
 10
-1.0
 20
0.16439898372402537
 30
0.0
 11
0.0
 21
0.0
 31
0.0
 12
-1.0
 22
-0.16439898372402537
 32
0.0
 13
-1.0
 23
-0.16439898372402537
 33
0.0
  0
ENDBLK
  5
7A
330
78
100
AcDbEntity
  8
0
100
AcDbBlockEnd
  0
BLOCK
  5
85
330
84
100
AcDbEntity
  8
0
100
AcDbBlockBegin
  2
_CLOSEDBLANK
 70
0
 10
0.0
 20
0.0
 30
0.0
  3
_CLOSEDBLANK
  1

  0
LWPOLYLINE
  5
87
330
84
100
AcDbEntity
  8
0
  6
BYBLOCK
 62
0
100
AcDbPolyline
 90
3
 70
1
 10
-1.0
 20
0.16439898372402537
 10
0.0
 20
0.0
 10
-1.0
 20
-0.16439898372402537
  0
ENDBLK
  5
86
330
84
100
AcDbEntity
  8
0
100
AcDbBlockEnd
  0
BLOCK
  5
130
330
12F
100
AcDbEntity
  8
0
100
AcDbBlockBegin
  2
*D1
 70
1
 10
0.0
 20
0.0
 30
0.0
  3
*D1
  1

  0
LINE
  5
132
330
12F
100
AcDbEntity
  8
0
 62
1
100
AcDbLine
 10
0.0
 20
-10.0
 30
0.0
 11
0.0
 21
-165.0
 31
0.0
  0
LINE
  5
133
330
12F
100
AcDbEntity
  8
0
 62
1
100
AcDbLine
 10
3200.0
 20
-10.0
 30
0.0
 11
3200.0
 21
-165.0
 31
0.0
  0
INSERT
  5
134
330
12F
100
AcDbEntity
  8
DIMENSIONS
 62
1
100
AcDbBlockReference
  2
_CLOSEDFILLED
 10
0.0
 20
-150.0
 30
0.0
 41
25.0
 42
25.0
 50
180.0
  0
INSERT
  5
136
330
12F
100
AcDbEntity
  8
DIMENSIONS
 62
1
100
AcDbBlockReference
  2
_CLOSEDFILLED
 10
3200.0
 20
-150.0
 30
0.0
 41
25.0
 42
25.0
  0
LINE
  5
138
330
12F
100
AcDbEntity
  8
0
 62
1
100
AcDbLine
 10
25.0
 20
-150.0
 30
0.0
 11
3175.0
 21
-150.0
 31
0.0
  0
MTEXT
  5
139
330
12F
100
AcDbEntity
  8
DIMENSIONS
 62
7
100
AcDbMText
 10
1600.0
 20
-131.875
 30
0.0
 40
35.0
 71
5
  1
3200
  7
OpenSansCondensed-Light
  0
POINT
  5
13A
330
12F
100
AcDbEntity
  8
Defpoints
100
AcDbPoint
 10
0.0
 20
-150.0
 30
0.0
  0
POINT
  5
13B
330
12F
100
AcDbEntity
  8
Defpoints
100
AcDbPoint
 10
0.0
 20
0.0
 30
0.0
  0
POINT
  5
13C
330
12F
100
AcDbEntity
  8
Defpoints
100
AcDbPoint
 10
3200.0
 20
0.0
 30
0.0
  0
ENDBLK
  5
131
330
12F
100
AcDbEntity
  8
0
100
AcDbBlockEnd
  0
BLOCK
  5
13F
330
13E
100
AcDbEntity
  8
0
100
AcDbBlockBegin
  2
*D2
 70
1
 10
0.0
 20
0.0
 30
0.0
  3
*D2
  1

  0
LINE
  5
141
330
13E
100
AcDbEntity
  8
0
 62
1
100
AcDbLine
 10
0.0
 20
-10.0
 30
0.0
 11
0.0
 21
-295.0
 31
0.0
  0
LINE
  5
142
330
13E
100
AcDbEntity
  8
0
 62
1
100
AcDbLine
 10
800.0
 20
-10.0
 30
0.0
 11
800.0
 21
-295.0
 31
0.0
  0
INSERT
  5
143
330
13E
100
AcDbEntity
  8
DIMENSIONS
 62
1
100
AcDbBlockReference
  2
_CLOSEDFILLED
 10
0.0
 20
-280.0
 30
0.0
 41
25.0
 42
25.0
 50
180.0
  0
INSERT
  5
145
330
13E
100
AcDbEntity
  8
DIMENSIONS
 62
1
100
AcDbBlockReference
  2
_CLOSEDFILLED
 10
800.0
 20
-280.0
 30
0.0
 41
25.0
 42
25.0
  0
LINE
  5
147
330
13E
100
AcDbEntity
  8
0
 62
1
100
AcDbLine
 10
25.0
 20
-280.0
 30
0.0
 11
775.0
 21
-280.0
 31
0.0
  0
MTEXT
  5
148
330
13E
100
AcDbEntity
  8
DIMENSIONS
 62
7
100
AcDbMText
 10
400.0
 20
-261.875
 30
0.0
 40
35.0
 71
5
  1
800
  7
OpenSansCondensed-Light
  0
POINT
  5
149
330
13E
100
AcDbEntity
  8
Defpoints
100
AcDbPoint
 10
0.0
 20
-280.0
 30
0.0
  0
POINT
  5
14A
330
13E
100
AcDbEntity
  8
Defpoints
100
AcDbPoint
 10
0.0
 20
0.0
 30
0.0
  0
POINT
  5
14B
330
13E
100
AcDbEntity
  8
Defpoints
100
AcDbPoint
 10
800.0
 20
0.0
 30
0.0
  0
ENDBLK
  5
140
330
13E
100
AcDbEntity
  8
0
100
AcDbBlockEnd
  0
BLOCK
  5
14E
330
14D
100
AcDbEntity
  8
0
100
AcDbBlockBegin
  2
*D3
 70
1
 10
0.0
 20
0.0
 30
0.0
  3
*D3
  1

  0
LINE
  5
150
330
14D
100
AcDbEntity
  8
0
 62
1
100
AcDbLine
 10
800.0
 20
-10.0
 30
0.0
 11
800.0
 21
-295.0
 31
0.0
  0
LINE
  5
151
330
14D
100
AcDbEntity
  8
0
 62
1
100
AcDbLine
 10
1600.0
 20
-10.0
 30
0.0
 11
1600.0
 21
-295.0
 31
0.0
  0
INSERT
  5
152
330
14D
100
AcDbEntity
  8
DIMENSIONS
 62
1
100
AcDbBlockReference
  2
_CLOSEDFILLED
 10
800.0
 20
-280.0
 30
0.0
 41
25.0
 42
25.0
 50
180.0
  0
INSERT
  5
154
330
14D
100
AcDbEntity
  8
DIMENSIONS
 62
1
100
AcDbBlockReference
  2
_CLOSEDFILLED
 10
1600.0
 20
-280.0
 30
0.0
 41
25.0
 42
25.0
  0
LINE
  5
156
330
14D
100
AcDbEntity
  8
0
 62
1
100
AcDbLine
 10
825.0
 20
-280.0
 30
0.0
 11
1575.0
 21
-280.0
 31
0.0
  0
MTEXT
  5
157
330
14D
100
AcDbEntity
  8
DIMENSIONS
 62
7
100
AcDbMText
 10
1200.0
 20
-261.875
 30
0.0
 40
35.0
 71
5
  1
800
  7
OpenSansCondensed-Light
  0
POINT
  5
158
330
14D
100
AcDbEntity
  8
Defpoints
100
AcDbPoint
 10
800.0
 20
-280.0
 30
0.0
  0
POINT
  5
159
330
14D
100
AcDbEntity
  8
Defpoints
100
AcDbPoint
 10
800.0
 20
0.0
 30
0.0
  0
POINT
  5
15A
330
14D
100
AcDbEntity
  8
Defpoints
100
AcDbPoint
 10
1600.0
 20
0.0
 30
0.0
  0
ENDBLK
  5
14F
330
14D
100
AcDbEntity
  8
0
100
AcDbBlockEnd
  0
BLOCK
  5
15D
330
15C
100
AcDbEntity
  8
0
100
AcDbBlockBegin
  2
*D4
 70
1
 10
0.0
 20
0.0
 30
0.0
  3
*D4
  1

  0
LINE
  5
15F
330
15C
100
AcDbEntity
  8
0
 62
1
100
AcDbLine
 10
1600.0
 20
-10.0
 30
0.0
 11
1600.0
 21
-295.0
 31
0.0
  0
LINE
  5
160
330
15C
100
AcDbEntity
  8
0
 62
1
100
AcDbLine
 10
2400.0
 20
-10.0
 30
0.0
 11
2400.0
 21
-295.0
 31
0.0
  0
INSERT
  5
161
330
15C
100
AcDbEntity
  8
DIMENSIONS
 62
1
100
AcDbBlockReference
  2
_CLOSEDFILLED
 10
1600.0
 20
-280.0
 30
0.0
 41
25.0
 42
25.0
 50
180.0
  0
INSERT
  5
163
330
15C
100
AcDbEntity
  8
DIMENSIONS
 62
1
100
AcDbBlockReference
  2
_CLOSEDFILLED
 10
2400.0
 20
-280.0
 30
0.0
 41
25.0
 42
25.0
  0
LINE
  5
165
330
15C
100
AcDbEntity
  8
0
 62
1
100
AcDbLine
 10
1625.0
 20
-280.0
 30
0.0
 11
2375.0
 21
-280.0
 31
0.0
  0
MTEXT
  5
166
330
15C
100
AcDbEntity
  8
DIMENSIONS
 62
7
100
AcDbMText
 10
2000.0
 20
-261.875
 30
0.0
 40
35.0
 71
5
  1
800
  7
OpenSansCondensed-Light
  0
POINT
  5
167
330
15C
100
AcDbEntity
  8
Defpoints
100
AcDbPoint
 10
1600.0
 20
-280.0
 30
0.0
  0
POINT
  5
168
330
15C
100
AcDbEntity
  8
Defpoints
100
AcDbPoint
 10
1600.0
 20
0.0
 30
0.0
  0
POINT
  5
169
330
15C
100
AcDbEntity
  8
Defpoints
100
AcDbPoint
 10
2400.0
 20
0.0
 30
0.0
  0
ENDBLK
  5
15E
330
15C
100
AcDbEntity
  8
0
100
AcDbBlockEnd
  0
BLOCK
  5
16C
330
16B
100
AcDbEntity
  8
0
100
AcDbBlockBegin
  2
*D5
 70
1
 10
0.0
 20
0.0
 30
0.0
  3
*D5
  1

  0
LINE
  5
16E
330
16B
100
AcDbEntity
  8
0
 62
1
100
AcDbLine
 10
2400.0
 20
-10.0
 30
0.0
 11
2400.0
 21
-295.0
 31
0.0
  0
LINE
  5
16F
330
16B
100
AcDbEntity
  8
0
 62
1
100
AcDbLine
 10
3200.0
 20
-10.0
 30
0.0
 11
3200.0
 21
-295.0
 31
0.0
  0
INSERT
  5
170
330
16B
100
AcDbEntity
  8
DIMENSIONS
 62
1
100
AcDbBlockReference
  2
_CLOSEDFILLED
 10
2400.0
 20
-280.0
 30
0.0
 41
25.0
 42
25.0
 50
180.0
  0
INSERT
  5
172
330
16B
100
AcDbEntity
  8
DIMENSIONS
 62
1
100
AcDbBlockReference
  2
_CLOSEDFILLED
 10
3200.0
 20
-280.0
 30
0.0
 41
25.0
 42
25.0
  0
LINE
  5
174
330
16B
100
AcDbEntity
  8
0
 62
1
100
AcDbLine
 10
2425.0
 20
-280.0
 30
0.0
 11
3175.0
 21
-280.0
 31
0.0
  0
MTEXT
  5
175
330
16B
100
AcDbEntity
  8
DIMENSIONS
 62
7
100
AcDbMText
 10
2800.0
 20
-261.875
 30
0.0
 40
35.0
 71
5
  1
800
  7
OpenSansCondensed-Light
  0
POINT
  5
176
330
16B
100
AcDbEntity
  8
Defpoints
100
AcDbPoint
 10
2400.0
 20
-280.0
 30
0.0
  0
POINT
  5
177
330
16B
100
AcDbEntity
  8
Defpoints
100
AcDbPoint
 10
2400.0
 20
0.0
 30
0.0
  0
POINT
  5
178
330
16B
100
AcDbEntity
  8
Defpoints
100
AcDbPoint
 10
3200.0
 20
0.0
 30
0.0
  0
ENDBLK
  5
16D
330
16B
100
AcDbEntity
  8
0
100
AcDbBlockEnd
  0
BLOCK
  5
17B
330
17A
100
AcDbEntity
  8
0
100
AcDbBlockBegin
  2
*D6
 70
1
 10
0.0
 20
0.0
 30
0.0
  3
*D6
  1

  0
LINE
  5
17D
330
17A
100
AcDbEntity
  8
0
 62
1
100
AcDbLine
 10
3200.0
 20
10.0
 30
0.0
 11
3200.0
 21
65.0
 31
0.0
  0
LINE
  5
17E
330
17A
100
AcDbEntity
  8
0
 62
1
100
AcDbLine
 10
3200.0
 20
90.0
 30
0.0
 11
3200.0
 21
35.0
 31
0.0
  0
INSERT
  5
17F
330
17A
100
AcDbEntity
  8
DIMENSIONS
 62
1
100
AcDbBlockReference
  2
_CLOSEDFILLED
 10
3200.0
 20
50.0
 30
0.0
 41
25.0
 42
25.0
  0
INSERT
  5
181
330
17A
100
AcDbEntity
  8
DIMENSIONS
 62
1
100
AcDbBlockReference
  2
_CLOSEDFILLED
 10
3200.0
 20
50.0
 30
0.0
 41
25.0
 42
25.0
 50
180.0
  0
LINE
  5
183
330
17A
100
AcDbEntity
  8
0
 62
1
100
AcDbLine
 10
3175.0
 20
50.0
 30
0.0
 11
3150.0
 21
50.0
 31
0.0
  0
LINE
  5
184
330
17A
100
AcDbEntity
  8
0
 62
1
100
AcDbLine
 10
3225.0
 20
50.0
 30
0.0
 11
3250.0
 21
50.0
 31
0.0
  0
LINE
  5
185
330
17A
100
AcDbEntity
  8
0
 62
1
100
AcDbLine
 10
3200.0
 20
50.0
 30
0.0
 11
3200.0
 21
50.0
 31
0.0
  0
MTEXT
  5
186
330
17A
100
AcDbEntity
  8
DIMENSIONS
 62
7
100
AcDbMText
 10
3200.0
 20
83.125
 30
0.0
 40
35.0
 71
5
  1
0
  7
OpenSansCondensed-Light
  0
POINT
  5
187
330
17A
100
AcDbEntity
  8
Defpoints
100
AcDbPoint
 10
3200.0
 20
50.0
 30
0.0
  0
POINT
  5
188
330
17A
100
AcDbEntity
  8
Defpoints
100
AcDbPoint
 10
3200.0
 20
0.0
 30
0.0
  0
POINT
  5
189
330
17A
100
AcDbEntity
  8
Defpoints
100
AcDbPoint
 10
3200.0
 20
100.0
 30
0.0
  0
ENDBLK
  5
17C
330
17A
100
AcDbEntity
  8
0
100
AcDbBlockEnd
  0
BLOCK
  5
18C
330
18B
100
AcDbEntity
  8
0
100
AcDbBlockBegin
  2
*D7
 70
1
 10
0.0
 20
0.0
 30
0.0
  3
*D7
  1

  0
LINE
  5
18E
330
18B
100
AcDbEntity
  8
0
 62
1
100
AcDbLine
 10
3200.0
 20
110.0
 30
0.0
 11
3200.0
 21
1115.0
 31
0.0
  0
LINE
  5
18F
330
18B
100
AcDbEntity
  8
0
 62
1
100
AcDbLine
 10
3200.0
 20
2090.0
 30
0.0
 11
3200.0
 21
1085.0
 31
0.0
  0
INSERT
  5
190
330
18B
100
AcDbEntity
  8
DIMENSIONS
 62
1
100
AcDbBlockReference
  2
_CLOSEDFILLED
 10
3200.0
 20
1100.0
 30
0.0
 41
25.0
 42
25.0
  0
INSERT
  5
192
330
18B
100
AcDbEntity
  8
DIMENSIONS
 62
1
100
AcDbBlockReference
  2
_CLOSEDFILLED
 10
3200.0
 20
1100.0
 30
0.0
 41
25.0
 42
25.0
 50
180.0
  0
LINE
  5
194
330
18B
100
AcDbEntity
  8
0
 62
1
100
AcDbLine
 10
3175.0
 20
1100.0
 30
0.0
 11
3150.0
 21
1100.0
 31
0.0
  0
LINE
  5
195
330
18B
100
AcDbEntity
  8
0
 62
1
100
AcDbLine
 10
3225.0
 20
1100.0
 30
0.0
 11
3250.0
 21
1100.0
 31
0.0
  0
LINE
  5
196
330
18B
100
AcDbEntity
  8
0
 62
1
100
AcDbLine
 10
3200.0
 20
1100.0
 30
0.0
 11
3200.0
 21
1100.0
 31
0.0
  0
MTEXT
  5
197
330
18B
100
AcDbEntity
  8
DIMENSIONS
 62
7
100
AcDbMText
 10
3200.0
 20
1133.125
 30
0.0
 40
35.0
 71
5
  1
0
  7
OpenSansCondensed-Light
  0
POINT
  5
198
330
18B
100
AcDbEntity
  8
Defpoints
100
AcDbPoint
 10
3200.0
 20
1100.0
 30
0.0
  0
POINT
  5
199
330
18B
100
AcDbEntity
  8
Defpoints
100
AcDbPoint
 10
3200.0
 20
100.0
 30
0.0
  0
POINT
  5
19A
330
18B
100
AcDbEntity
  8
Defpoints
100
AcDbPoint
 10
3200.0
 20
2100.0
 30
0.0
  0
ENDBLK
  5
18D
330
18B
100
AcDbEntity
  8
0
100
AcDbBlockEnd
  0
BLOCK
  5
19D
330
19C
100
AcDbEntity
  8
0
100
AcDbBlockBegin
  2
*D8
 70
1
 10
0.0
 20
0.0
 30
0.0
  3
*D8
  1

  0
LINE
  5
19F
330
19C
100
AcDbEntity
  8
0
 62
1
100
AcDbLine
 10
3200.0
 20
10.0
 30
0.0
 11
3200.0
 21
1065.0
 31
0.0
  0
LINE
  5
1A0
330
19C
100
AcDbEntity
  8
0
 62
1
100
AcDbLine
 10
3200.0
 20
2090.0
 30
0.0
 11
3200.0
 21
1035.0
 31
0.0
  0
INSERT
  5
1A1
330
19C
100
AcDbEntity
  8
DIMENSIONS
 62
1
100
AcDbBlockReference
  2
_CLOSEDFILLED
 10
3200.0
 20
1050.0
 30
0.0
 41
25.0
 42
25.0
  0
INSERT
  5
1A3
330
19C
100
AcDbEntity
  8
DIMENSIONS
 62
1
100
AcDbBlockReference
  2
_CLOSEDFILLED
 10
3200.0
 20
1050.0
 30
0.0
 41
25.0
 42
25.0
 50
180.0
  0
LINE
  5
1A5
330
19C
100
AcDbEntity
  8
0
 62
1
100
AcDbLine
 10
3175.0
 20
1050.0
 30
0.0
 11
3150.0
 21
1050.0
 31
0.0
  0
LINE
  5
1A6
330
19C
100
AcDbEntity
  8
0
 62
1
100
AcDbLine
 10
3225.0
 20
1050.0
 30
0.0
 11
3250.0
 21
1050.0
 31
0.0
  0
LINE
  5
1A7
330
19C
100
AcDbEntity
  8
0
 62
1
100
AcDbLine
 10
3200.0
 20
1050.0
 30
0.0
 11
3200.0
 21
1050.0
 31
0.0
  0
MTEXT
  5
1A8
330
19C
100
AcDbEntity
  8
DIMENSIONS
 62
7
100
AcDbMText
 10
3200.0
 20
1083.125
 30
0.0
 40
35.0
 71
5
  1
0
  7
OpenSansCondensed-Light
  0
POINT
  5
1A9
330
19C
100
AcDbEntity
  8
Defpoints
100
AcDbPoint
 10
3200.0
 20
1050.0
 30
0.0
  0
POINT
  5
1AA
330
19C
100
AcDbEntity
  8
Defpoints
100
AcDbPoint
 10
3200.0
 20
0.0
 30
0.0
  0
POINT
  5
1AB
330
19C
100
AcDbEntity
  8
Defpoints
100
AcDbPoint
 10
3200.0
 20
2100.0
 30
0.0
  0
ENDBLK
  5
19E
330
19C
100
AcDbEntity
  8
0
100
AcDbBlockEnd
  0
BLOCK
  5
2CA
330
2C9
100
AcDbEntity
  8
0
100
AcDbBlockBegin
  2
*D9
 70
1
 10
0.0
 20
0.0
 30
0.0
  3
*D9
  1

  0
LINE
  5
2CC
330
2C9
100
AcDbEntity
  8
0
 62
1
100
AcDbLine
 10
3800.0
 20
-10.0
 30
0.0
 11
3800.0
 21
-165.0
 31
0.0
  0
LINE
  5
2CD
330
2C9
100
AcDbEntity
  8
0
 62
1
100
AcDbLine
 10
7000.0
 20
-10.0
 30
0.0
 11
7000.0
 21
-165.0
 31
0.0
  0
INSERT
  5
2CE
330
2C9
100
AcDbEntity
  8
DIMENSIONS
 62
1
100
AcDbBlockReference
  2
_CLOSEDFILLED
 10
3800.0
 20
-150.0
 30
0.0
 41
25.0
 42
25.0
 50
180.0
  0
INSERT
  5
2D0
330
2C9
100
AcDbEntity
  8
DIMENSIONS
 62
1
100
AcDbBlockReference
  2
_CLOSEDFILLED
 10
7000.0
 20
-150.0
 30
0.0
 41
25.0
 42
25.0
  0
LINE
  5
2D2
330
2C9
100
AcDbEntity
  8
0
 62
1
100
AcDbLine
 10
3825.0
 20
-150.0
 30
0.0
 11
6975.0
 21
-150.0
 31
0.0
  0
MTEXT
  5
2D3
330
2C9
100
AcDbEntity
  8
DIMENSIONS
 62
7
100
AcDbMText
 10
5400.0
 20
-131.875
 30
0.0
 40
35.0
 71
5
  1
3200
  7
OpenSansCondensed-Light
  0
POINT
  5
2D4
330
2C9
100
AcDbEntity
  8
Defpoints
100
AcDbPoint
 10
3800.0
 20
-150.0
 30
0.0
  0
POINT
  5
2D5
330
2C9
100
AcDbEntity
  8
Defpoints
100
AcDbPoint
 10
3800.0
 20
0.0
 30
0.0
  0
POINT
  5
2D6
330
2C9
100
AcDbEntity
  8
Defpoints
100
AcDbPoint
 10
7000.0
 20
0.0
 30
0.0
  0
ENDBLK
  5
2CB
330
2C9
100
AcDbEntity
  8
0
100
AcDbBlockEnd
  0
BLOCK
  5
2D9
330
2D8
100
AcDbEntity
  8
0
100
AcDbBlockBegin
  2
*D10
 70
1
 10
0.0
 20
0.0
 30
0.0
  3
*D10
  1

  0
LINE
  5
2DB
330
2D8
100
AcDbEntity
  8
0
 62
1
100
AcDbLine
 10
3800.0
 20
-10.0
 30
0.0
 11
3800.0
 21
-295.0
 31
0.0
  0
LINE
  5
2DC
330
2D8
100
AcDbEntity
  8
0
 62
1
100
AcDbLine
 10
4600.0
 20
-10.0
 30
0.0
 11
4600.0
 21
-295.0
 31
0.0
  0
INSERT
  5
2DD
330
2D8
100
AcDbEntity
  8
DIMENSIONS
 62
1
100
AcDbBlockReference
  2
_CLOSEDFILLED
 10
3800.0
 20
-280.0
 30
0.0
 41
25.0
 42
25.0
 50
180.0
  0
INSERT
  5
2DF
330
2D8
100
AcDbEntity
  8
DIMENSIONS
 62
1
100
AcDbBlockReference
  2
_CLOSEDFILLED
 10
4600.0
 20
-280.0
 30
0.0
 41
25.0
 42
25.0
  0
LINE
  5
2E1
330
2D8
100
AcDbEntity
  8
0
 62
1
100
AcDbLine
 10
3825.0
 20
-280.0
 30
0.0
 11
4575.0
 21
-280.0
 31
0.0
  0
MTEXT
  5
2E2
330
2D8
100
AcDbEntity
  8
DIMENSIONS
 62
7
100
AcDbMText
 10
4200.0
 20
-261.875
 30
0.0
 40
35.0
 71
5
  1
800
  7
OpenSansCondensed-Light
  0
POINT
  5
2E3
330
2D8
100
AcDbEntity
  8
Defpoints
100
AcDbPoint
 10
3800.0
 20
-280.0
 30
0.0
  0
POINT
  5
2E4
330
2D8
100
AcDbEntity
  8
Defpoints
100
AcDbPoint
 10
3800.0
 20
0.0
 30
0.0
  0
POINT
  5
2E5
330
2D8
100
AcDbEntity
  8
Defpoints
100
AcDbPoint
 10
4600.0
 20
0.0
 30
0.0
  0
ENDBLK
  5
2DA
330
2D8
100
AcDbEntity
  8
0
100
AcDbBlockEnd
  0
BLOCK
  5
2E8
330
2E7
100
AcDbEntity
  8
0
100
AcDbBlockBegin
  2
*D11
 70
1
 10
0.0
 20
0.0
 30
0.0
  3
*D11
  1

  0
LINE
  5
2EA
330
2E7
100
AcDbEntity
  8
0
 62
1
100
AcDbLine
 10
4600.0
 20
-10.0
 30
0.0
 11
4600.0
 21
-295.0
 31
0.0
  0
LINE
  5
2EB
330
2E7
100
AcDbEntity
  8
0
 62
1
100
AcDbLine
 10
5400.0
 20
-10.0
 30
0.0
 11
5400.0
 21
-295.0
 31
0.0
  0
INSERT
  5
2EC
330
2E7
100
AcDbEntity
  8
DIMENSIONS
 62
1
100
AcDbBlockReference
  2
_CLOSEDFILLED
 10
4600.0
 20
-280.0
 30
0.0
 41
25.0
 42
25.0
 50
180.0
  0
INSERT
  5
2EE
330
2E7
100
AcDbEntity
  8
DIMENSIONS
 62
1
100
AcDbBlockReference
  2
_CLOSEDFILLED
 10
5400.0
 20
-280.0
 30
0.0
 41
25.0
 42
25.0
  0
LINE
  5
2F0
330
2E7
100
AcDbEntity
  8
0
 62
1
100
AcDbLine
 10
4625.0
 20
-280.0
 30
0.0
 11
5375.0
 21
-280.0
 31
0.0
  0
MTEXT
  5
2F1
330
2E7
100
AcDbEntity
  8
DIMENSIONS
 62
7
100
AcDbMText
 10
5000.0
 20
-261.875
 30
0.0
 40
35.0
 71
5
  1
800
  7
OpenSansCondensed-Light
  0
POINT
  5
2F2
330
2E7
100
AcDbEntity
  8
Defpoints
100
AcDbPoint
 10
4600.0
 20
-280.0
 30
0.0
  0
POINT
  5
2F3
330
2E7
100
AcDbEntity
  8
Defpoints
100
AcDbPoint
 10
4600.0
 20
0.0
 30
0.0
  0
POINT
  5
2F4
330
2E7
100
AcDbEntity
  8
Defpoints
100
AcDbPoint
 10
5400.0
 20
0.0
 30
0.0
  0
ENDBLK
  5
2E9
330
2E7
100
AcDbEntity
  8
0
100
AcDbBlockEnd
  0
BLOCK
  5
2F7
330
2F6
100
AcDbEntity
  8
0
100
AcDbBlockBegin
  2
*D12
 70
1
 10
0.0
 20
0.0
 30
0.0
  3
*D12
  1

  0
LINE
  5
2F9
330
2F6
100
AcDbEntity
  8
0
 62
1
100
AcDbLine
 10
5400.0
 20
-10.0
 30
0.0
 11
5400.0
 21
-295.0
 31
0.0
  0
LINE
  5
2FA
330
2F6
100
AcDbEntity
  8
0
 62
1
100
AcDbLine
 10
6200.0
 20
-10.0
 30
0.0
 11
6200.0
 21
-295.0
 31
0.0
  0
INSERT
  5
2FB
330
2F6
100
AcDbEntity
  8
DIMENSIONS
 62
1
100
AcDbBlockReference
  2
_CLOSEDFILLED
 10
5400.0
 20
-280.0
 30
0.0
 41
25.0
 42
25.0
 50
180.0
  0
INSERT
  5
2FD
330
2F6
100
AcDbEntity
  8
DIMENSIONS
 62
1
100
AcDbBlockReference
  2
_CLOSEDFILLED
 10
6200.0
 20
-280.0
 30
0.0
 41
25.0
 42
25.0
  0
LINE
  5
2FF
330
2F6
100
AcDbEntity
  8
0
 62
1
100
AcDbLine
 10
5425.0
 20
-280.0
 30
0.0
 11
6175.0
 21
-280.0
 31
0.0
  0
MTEXT
  5
300
330
2F6
100
AcDbEntity
  8
DIMENSIONS
 62
7
100
AcDbMText
 10
5800.0
 20
-261.875
 30
0.0
 40
35.0
 71
5
  1
800
  7
OpenSansCondensed-Light
  0
POINT
  5
301
330
2F6
100
AcDbEntity
  8
Defpoints
100
AcDbPoint
 10
5400.0
 20
-280.0
 30
0.0
  0
POINT
  5
302
330
2F6
100
AcDbEntity
  8
Defpoints
100
AcDbPoint
 10
5400.0
 20
0.0
 30
0.0
  0
POINT
  5
303
330
2F6
100
AcDbEntity
  8
Defpoints
100
AcDbPoint
 10
6200.0
 20
0.0
 30
0.0
  0
ENDBLK
  5
2F8
330
2F6
100
AcDbEntity
  8
0
100
AcDbBlockEnd
  0
BLOCK
  5
306
330
305
100
AcDbEntity
  8
0
100
AcDbBlockBegin
  2
*D13
 70
1
 10
0.0
 20
0.0
 30
0.0
  3
*D13
  1

  0
LINE
  5
308
330
305
100
AcDbEntity
  8
0
 62
1
100
AcDbLine
 10
6200.0
 20
-10.0
 30
0.0
 11
6200.0
 21
-295.0
 31
0.0
  0
LINE
  5
309
330
305
100
AcDbEntity
  8
0
 62
1
100
AcDbLine
 10
7000.0
 20
-10.0
 30
0.0
 11
7000.0
 21
-295.0
 31
0.0
  0
INSERT
  5
30A
330
305
100
AcDbEntity
  8
DIMENSIONS
 62
1
100
AcDbBlockReference
  2
_CLOSEDFILLED
 10
6200.0
 20
-280.0
 30
0.0
 41
25.0
 42
25.0
 50
180.0
  0
INSERT
  5
30C
330
305
100
AcDbEntity
  8
DIMENSIONS
 62
1
100
AcDbBlockReference
  2
_CLOSEDFILLED
 10
7000.0
 20
-280.0
 30
0.0
 41
25.0
 42
25.0
  0
LINE
  5
30E
330
305
100
AcDbEntity
  8
0
 62
1
100
AcDbLine
 10
6225.0
 20
-280.0
 30
0.0
 11
6975.0
 21
-280.0
 31
0.0
  0
MTEXT
  5
30F
330
305
100
AcDbEntity
  8
DIMENSIONS
 62
7
100
AcDbMText
 10
6600.0
 20
-261.875
 30
0.0
 40
35.0
 71
5
  1
800
  7
OpenSansCondensed-Light
  0
POINT
  5
310
330
305
100
AcDbEntity
  8
Defpoints
100
AcDbPoint
 10
6200.0
 20
-280.0
 30
0.0
  0
POINT
  5
311
330
305
100
AcDbEntity
  8
Defpoints
100
AcDbPoint
 10
6200.0
 20
0.0
 30
0.0
  0
POINT
  5
312
330
305
100
AcDbEntity
  8
Defpoints
100
AcDbPoint
 10
7000.0
 20
0.0
 30
0.0
  0
ENDBLK
  5
307
330
305
100
AcDbEntity
  8
0
100
AcDbBlockEnd
  0
ENDSEC
  0
SECTION
  2
ENTITIES
  0
LWPOLYLINE
  5
A6
330
17
100
AcDbEntity
  8
BASE_PLINTH
100
AcDbPolyline
 90
4
 70
1
 10
0.0
 20
0.0
 10
3200.0
 20
0.0
 10
3200.0
 20
100.0
 10
0.0
 20
100.0
  0
LWPOLYLINE
  5
A7
330
17
100
AcDbEntity
  8
BASE_PLINTH
100
AcDbPolyline
 90
4
 70
1
 10
50.0
 20
20.0
 10
750.0
 20
20.0
 10
750.0
 20
80.0
 10
50.0
 20
80.0
  0
TEXT
  5
A8
330
17
100
AcDbEntity
  8
TEXT_LABELS
100
AcDbText
 10
400.0
 20
40.0
 30
0.0
 40
22.0
  1
PLINTH 100mm
 72
1
 11
400.0
 21
40.0
 31
0.0
100
AcDbText
 73
2
  0
LWPOLYLINE
  5
A9
330
17
100
AcDbEntity
  8
BASE_PLINTH
100
AcDbPolyline
 90
4
 70
1
 10
850.0
 20
20.0
 10
1550.0
 20
20.0
 10
1550.0
 20
80.0
 10
850.0
 20
80.0
  0
TEXT
  5
AA
330
17
100
AcDbEntity
  8
TEXT_LABELS
100
AcDbText
 10
1200.0
 20
40.0
 30
0.0
 40
22.0
  1
PLINTH 100mm
 72
1
 11
1200.0
 21
40.0
 31
0.0
100
AcDbText
 73
2
  0
LWPOLYLINE
  5
AB
330
17
100
AcDbEntity
  8
BASE_PLINTH
100
AcDbPolyline
 90
4
 70
1
 10
1650.0
 20
20.0
 10
2350.0
 20
20.0
 10
2350.0
 20
80.0
 10
1650.0
 20
80.0
  0
TEXT
  5
AC
330
17
100
AcDbEntity
  8
TEXT_LABELS
100
AcDbText
 10
2000.0
 20
40.0
 30
0.0
 40
22.0
  1
PLINTH 100mm
 72
1
 11
2000.0
 21
40.0
 31
0.0
100
AcDbText
 73
2
  0
LWPOLYLINE
  5
AD
330
17
100
AcDbEntity
  8
BASE_PLINTH
100
AcDbPolyline
 90
4
 70
1
 10
2450.0
 20
20.0
 10
3150.0
 20
20.0
 10
3150.0
 20
80.0
 10
2450.0
 20
80.0
  0
TEXT
  5
AE
330
17
100
AcDbEntity
  8
TEXT_LABELS
100
AcDbText
 10
2800.0
 20
40.0
 30
0.0
 40
22.0
  1
PLINTH 100mm
 72
1
 11
2800.0
 21
40.0
 31
0.0
100
AcDbText
 73
2
  0
LWPOLYLINE
  5
AF
330
17
100
AcDbEntity
  8
ENCL_OUTLINE
100
AcDbPolyline
 90
4
 70
1
 10
0.0
 20
100.0
 10
800.0
 20
100.0
 10
800.0
 20
2100.0
 10
0.0
 20
2100.0
  0
LWPOLYLINE
  5
B0
330
17
100
AcDbEntity
  8
ENCL_DOOR
100
AcDbPolyline
 90
4
 70
1
 10
20.0
 20
120.0
 10
780.0
 20
120.0
 10
780.0
 20
2080.0
 10
20.0
 20
2080.0
  0
LWPOLYLINE
  5
B1
330
17
100
AcDbEntity
  8
ENCL_DOOR
100
AcDbPolyline
 90
4
 70
1
 10
15.0
 20
320.0
 10
30.0
 20
320.0
 10
30.0
 20
390.0
 10
15.0
 20
390.0
  0
LWPOLYLINE
  5
B2
330
17
100
AcDbEntity
  8
ENCL_DOOR
100
AcDbPolyline
 90
4
 70
1
 10
15.0
 20
1065.0
 10
30.0
 20
1065.0
 10
30.0
 20
1135.0
 10
15.0
 20
1135.0
  0
LWPOLYLINE
  5
B3
330
17
100
AcDbEntity
  8
ENCL_DOOR
100
AcDbPolyline
 90
4
 70
1
 10
15.0
 20
1830.0
 10
30.0
 20
1830.0
 10
30.0
 20
1900.0
 10
15.0
 20
1900.0
  0
LWPOLYLINE
  5
B4
330
17
100
AcDbEntity
  8
DOOR_COMPONENTS
100
AcDbPolyline
 90
4
 70
1
 10
735.0
 20
1000.0
 10
760.0
 20
1000.0
 10
760.0
 20
1200.0
 10
735.0
 20
1200.0
  0
CIRCLE
  5
B5
330
17
100
AcDbEntity
  8
DOOR_COMPONENTS
100
AcDbCircle
 10
747.5
 20
1100.0
 30
0.0
 40
7.5
  0
LWPOLYLINE
  5
B6
330
17
100
AcDbEntity
  8
ENCL_OUTLINE
100
AcDbPolyline
 90
4
 70
1
 10
240.0
 20
2020.0
 10
560.0
 20
2020.0
 10
560.0
 20
2090.0
 10
240.0
 20
2090.0
  0
TEXT
  5
B7
330
17
100
AcDbEntity
  8
TEXT_LABELS
100
AcDbText
 10
400.0
 20
2055.0
 30
0.0
 40
18.0
  1
ROOF EXHAUST FAN
 72
1
 11
400.0
 21
2055.0
 31
0.0
100
AcDbText
 73
2
  0
CIRCLE
  5
B8
330
17
100
AcDbEntity
  8
ENCL_OUTLINE
100
AcDbCircle
 10
100.0
 20
2135.0
 30
0.0
 40
25.0
  0
CIRCLE
  5
B9
330
17
100
AcDbEntity
  8
ENCL_OUTLINE
100
AcDbCircle
 10
700.0
 20
2135.0
 30
0.0
 40
25.0
  0
LWPOLYLINE
  5
BA
330
17
100
AcDbEntity
  8
0_TITLE_BLOCK
100
AcDbPolyline
 90
4
 70
1
 10
60.0
 20
1950.0
 10
740.0
 20
1950.0
 10
740.0
 20
2030.0
 10
60.0
 20
2030.0
  0
TEXT
  5
BB
330
17
100
AcDbEntity
  8
TEXT_HEADER
100
AcDbText
 10
400.0
 20
2000.0
 30
0.0
 40
26.0
  1
PANEL M1
 72
1
 11
400.0
 21
2000.0
 31
0.0
100
AcDbText
 73
2
  0
TEXT
  5
BC
330
17
100
AcDbEntity
  8
TEXT_LABELS
100
AcDbText
 10
400.0
 20
1970.0
 30
0.0
 40
18.0
  1
MASTER CONTROLLER
 72
1
 11
400.0
 21
1970.0
 31
0.0
100
AcDbText
 73
2
  0
LWPOLYLINE
  5
BD
330
17
100
AcDbEntity
  8
DOOR_COMPONENTS
100
AcDbPolyline
 90
4
 70
1
 10
100.0
 20
180.0
 10
700.0
 20
180.0
 10
700.0
 20
280.0
 10
100.0
 20
280.0
  0
TEXT
  5
BE
330
17
100
AcDbEntity
  8
TEXT_LABELS
100
AcDbText
 10
400.0
 20
230.0
 30
0.0
 40
20.0
  1
AIR INLET FILTER
 72
1
 11
400.0
 21
230.0
 31
0.0
100
AcDbText
 73
2
  0
LWPOLYLINE
  5
BF
330
17
100
AcDbEntity
  8
HMI_UNIT
100
AcDbPolyline
 90
4
 70
1
 10
200.0
 20
1560.0
 10
600.0
 20
1560.0
 10
600.0
 20
1860.0
 10
200.0
 20
1860.0
  0
LWPOLYLINE
  5
C0
330
17
100
AcDbEntity
  8
HMI_UNIT
100
AcDbPolyline
 90
4
 70
1
 10
225.0
 20
1585.0
 10
575.0
 20
1585.0
 10
575.0
 20
1835.0
 10
225.0
 20
1835.0
  0
TEXT
  5
C1
330
17
100
AcDbEntity
  8
TEXT_HEADER
100
AcDbText
 10
400.0
 20
1730.0
 30
0.0
 40
24.0
  1
PanelView Plus 7 (15-inch)
 72
1
 11
400.0
 21
1730.0
 31
0.0
100
AcDbText
 73
2
  0
TEXT
  5
C2
330
17
100
AcDbEntity
  8
TEXT_LABELS
100
AcDbText
 10
400.0
 20
1680.0
 30
0.0
 40
20.0
  1
JET COOKER SCADA
 72
1
 11
400.0
 21
1680.0
 31
0.0
100
AcDbText
 73
2
  0
CIRCLE
  5
C3
330
17
100
AcDbEntity
  8
DOOR_COMPONENTS
100
AcDbCircle
 10
200.0
 20
1460.0
 30
0.0
 40
25.0
  0
TEXT
  5
C4
330
17
100
AcDbEntity
  8
TEXT_LABELS
100
AcDbText
 10
200.0
 20
1415.0
 30
0.0
 40
18.0
  1
R (RED)
 72
1
 11
200.0
 21
1415.0
 31
0.0
100
AcDbText
 73
2
  0
CIRCLE
  5
C5
330
17
100
AcDbEntity
  8
DOOR_COMPONENTS
100
AcDbCircle
 10
360.0
 20
1460.0
 30
0.0
 40
25.0
  0
TEXT
  5
C6
330
17
100
AcDbEntity
  8
TEXT_LABELS
100
AcDbText
 10
360.0
 20
1415.0
 30
0.0
 40
18.0
  1
S (AMBER)
 72
1
 11
360.0
 21
1415.0
 31
0.0
100
AcDbText
 73
2
  0
CIRCLE
  5
C7
330
17
100
AcDbEntity
  8
DOOR_COMPONENTS
100
AcDbCircle
 10
520.0
 20
1460.0
 30
0.0
 40
25.0
  0
TEXT
  5
C8
330
17
100
AcDbEntity
  8
TEXT_LABELS
100
AcDbText
 10
520.0
 20
1415.0
 30
0.0
 40
18.0
  1
T (BLUE)
 72
1
 11
520.0
 21
1415.0
 31
0.0
100
AcDbText
 73
2
  0
CIRCLE
  5
C9
330
17
100
AcDbEntity
  8
DOOR_COMPONENTS
100
AcDbCircle
 10
150.0
 20
1320.0
 30
0.0
 40
25.0
  0
TEXT
  5
CA
330
17
100
AcDbEntity
  8
TEXT_LABELS
100
AcDbText
 10
150.0
 20
1275.0
 30
0.0
 40
16.0
  1
START
 72
1
 11
150.0
 21
1275.0
 31
0.0
100
AcDbText
 73
2
  0
CIRCLE
  5
CB
330
17
100
AcDbEntity
  8
DOOR_COMPONENTS
100
AcDbCircle
 10
290.0
 20
1320.0
 30
0.0
 40
25.0
  0
TEXT
  5
CC
330
17
100
AcDbEntity
  8
TEXT_LABELS
100
AcDbText
 10
290.0
 20
1275.0
 30
0.0
 40
16.0
  1
STOP
 72
1
 11
290.0
 21
1275.0
 31
0.0
100
AcDbText
 73
2
  0
CIRCLE
  5
CD
330
17
100
AcDbEntity
  8
DOOR_COMPONENTS
100
AcDbCircle
 10
430.0
 20
1320.0
 30
0.0
 40
25.0
  0
TEXT
  5
CE
330
17
100
AcDbEntity
  8
TEXT_LABELS
100
AcDbText
 10
430.0
 20
1275.0
 30
0.0
 40
16.0
  1
RESET
 72
1
 11
430.0
 21
1275.0
 31
0.0
100
AcDbText
 73
2
  0
CIRCLE
  5
CF
330
17
100
AcDbEntity
  8
DOOR_COMPONENTS
100
AcDbCircle
 10
570.0
 20
1320.0
 30
0.0
 40
25.0
  0
TEXT
  5
D0
330
17
100
AcDbEntity
  8
TEXT_LABELS
100
AcDbText
 10
570.0
 20
1275.0
 30
0.0
 40
16.0
  1
LAMP TEST
 72
1
 11
570.0
 21
1275.0
 31
0.0
100
AcDbText
 73
2
  0
CIRCLE
  5
D1
330
17
100
AcDbEntity
  8
DOOR_COMPONENTS
100
AcDbCircle
 10
400.0
 20
1140.0
 30
0.0
 40
55.0
  0
CIRCLE
  5
D2
330
17
100
AcDbEntity
  8
DOOR_COMPONENTS
100
AcDbCircle
 10
400.0
 20
1140.0
 30
0.0
 40
35.0
  0
TEXT
  5
D3
330
17
100
AcDbEntity
  8
TEXT_HEADER
100
AcDbText
 10
400.0
 20
1060.0
 30
0.0
 40
22.0
  1
EMERGENCY STOP
 72
1
 11
400.0
 21
1060.0
 31
0.0
100
AcDbText
 73
2
  0
LWPOLYLINE
  5
D4
330
17
100
AcDbEntity
  8
DOOR_COMPONENTS
100
AcDbPolyline
 90
4
 70
1
 10
350.0
 20
890.0
 10
450.0
 20
890.0
 10
450.0
 20
990.0
 10
350.0
 20
990.0
  0
LWPOLYLINE
  5
D5
330
17
100
AcDbEntity
  8
DOOR_COMPONENTS
100
AcDbPolyline
 90
4
 70
1
 10
385.0
 20
890.0
 10
415.0
 20
890.0
 10
415.0
 20
990.0
 10
385.0
 20
990.0
  0
TEXT
  5
D6
330
17
100
AcDbEntity
  8
TEXT_LABELS
100
AcDbText
 10
400.0
 20
855.0
 30
0.0
 40
20.0
  1
MAIN SWITCH (400V)
 72
1
 11
400.0
 21
855.0
 31
0.0
100
AcDbText
 73
2
  0
LWPOLYLINE
  5
D7
330
17
100
AcDbEntity
  8
ENCL_OUTLINE
100
AcDbPolyline
 90
4
 70
1
 10
800.0
 20
100.0
 10
1600.0
 20
100.0
 10
1600.0
 20
2100.0
 10
800.0
 20
2100.0
  0
LWPOLYLINE
  5
D8
330
17
100
AcDbEntity
  8
ENCL_DOOR
100
AcDbPolyline
 90
4
 70
1
 10
820.0
 20
120.0
 10
1580.0
 20
120.0
 10
1580.0
 20
2080.0
 10
820.0
 20
2080.0
  0
LWPOLYLINE
  5
D9
330
17
100
AcDbEntity
  8
ENCL_DOOR
100
AcDbPolyline
 90
4
 70
1
 10
815.0
 20
320.0
 10
830.0
 20
320.0
 10
830.0
 20
390.0
 10
815.0
 20
390.0
  0
LWPOLYLINE
  5
DA
330
17
100
AcDbEntity
  8
ENCL_DOOR
100
AcDbPolyline
 90
4
 70
1
 10
815.0
 20
1065.0
 10
830.0
 20
1065.0
 10
830.0
 20
1135.0
 10
815.0
 20
1135.0
  0
LWPOLYLINE
  5
DB
330
17
100
AcDbEntity
  8
ENCL_DOOR
100
AcDbPolyline
 90
4
 70
1
 10
815.0
 20
1830.0
 10
830.0
 20
1830.0
 10
830.0
 20
1900.0
 10
815.0
 20
1900.0
  0
LWPOLYLINE
  5
DC
330
17
100
AcDbEntity
  8
DOOR_COMPONENTS
100
AcDbPolyline
 90
4
 70
1
 10
1535.0
 20
1000.0
 10
1560.0
 20
1000.0
 10
1560.0
 20
1200.0
 10
1535.0
 20
1200.0
  0
CIRCLE
  5
DD
330
17
100
AcDbEntity
  8
DOOR_COMPONENTS
100
AcDbCircle
 10
1547.5
 20
1100.0
 30
0.0
 40
7.5
  0
LWPOLYLINE
  5
DE
330
17
100
AcDbEntity
  8
ENCL_OUTLINE
100
AcDbPolyline
 90
4
 70
1
 10
1040.0
 20
2020.0
 10
1360.0
 20
2020.0
 10
1360.0
 20
2090.0
 10
1040.0
 20
2090.0
  0
TEXT
  5
DF
330
17
100
AcDbEntity
  8
TEXT_LABELS
100
AcDbText
 10
1200.0
 20
2055.0
 30
0.0
 40
18.0
  1
ROOF EXHAUST FAN
 72
1
 11
1200.0
 21
2055.0
 31
0.0
100
AcDbText
 73
2
  0
CIRCLE
  5
E0
330
17
100
AcDbEntity
  8
ENCL_OUTLINE
100
AcDbCircle
 10
900.0
 20
2135.0
 30
0.0
 40
25.0
  0
CIRCLE
  5
E1
330
17
100
AcDbEntity
  8
ENCL_OUTLINE
100
AcDbCircle
 10
1500.0
 20
2135.0
 30
0.0
 40
25.0
  0
LWPOLYLINE
  5
E2
330
17
100
AcDbEntity
  8
0_TITLE_BLOCK
100
AcDbPolyline
 90
4
 70
1
 10
860.0
 20
1950.0
 10
1540.0
 20
1950.0
 10
1540.0
 20
2030.0
 10
860.0
 20
2030.0
  0
TEXT
  5
E3
330
17
100
AcDbEntity
  8
TEXT_HEADER
100
AcDbText
 10
1200.0
 20
2000.0
 30
0.0
 40
26.0
  1
PANEL M2
 72
1
 11
1200.0
 21
2000.0
 31
0.0
100
AcDbText
 73
2
  0
TEXT
  5
E4
330
17
100
AcDbEntity
  8
TEXT_LABELS
100
AcDbText
 10
1200.0
 20
1970.0
 30
0.0
 40
18.0
  1
I/O EXPANSION 1
 72
1
 11
1200.0
 21
1970.0
 31
0.0
100
AcDbText
 73
2
  0
LWPOLYLINE
  5
E5
330
17
100
AcDbEntity
  8
DOOR_COMPONENTS
100
AcDbPolyline
 90
4
 70
1
 10
900.0
 20
180.0
 10
1500.0
 20
180.0
 10
1500.0
 20
280.0
 10
900.0
 20
280.0
  0
TEXT
  5
E6
330
17
100
AcDbEntity
  8
TEXT_LABELS
100
AcDbText
 10
1200.0
 20
230.0
 30
0.0
 40
20.0
  1
AIR INLET FILTER
 72
1
 11
1200.0
 21
230.0
 31
0.0
100
AcDbText
 73
2
  0
CIRCLE
  5
E7
330
17
100
AcDbEntity
  8
DOOR_COMPONENTS
100
AcDbCircle
 10
950.0
 20
1680.0
 30
0.0
 40
25.0
  0
TEXT
  5
E8
330
17
100
AcDbEntity
  8
TEXT_LABELS
100
AcDbText
 10
950.0
 20
1635.0
 30
0.0
 40
16.0
  1
POWER ON
 72
1
 11
950.0
 21
1635.0
 31
0.0
100
AcDbText
 73
2
  0
CIRCLE
  5
E9
330
17
100
AcDbEntity
  8
DOOR_COMPONENTS
100
AcDbCircle
 10
1090.0
 20
1680.0
 30
0.0
 40
25.0
  0
TEXT
  5
EA
330
17
100
AcDbEntity
  8
TEXT_LABELS
100
AcDbText
 10
1090.0
 20
1635.0
 30
0.0
 40
16.0
  1
HEALTHY
 72
1
 11
1090.0
 21
1635.0
 31
0.0
100
AcDbText
 73
2
  0
CIRCLE
  5
EB
330
17
100
AcDbEntity
  8
DOOR_COMPONENTS
100
AcDbCircle
 10
1230.0
 20
1680.0
 30
0.0
 40
25.0
  0
TEXT
  5
EC
330
17
100
AcDbEntity
  8
TEXT_LABELS
100
AcDbText
 10
1230.0
 20
1635.0
 30
0.0
 40
16.0
  1
ALARM
 72
1
 11
1230.0
 21
1635.0
 31
0.0
100
AcDbText
 73
2
  0
CIRCLE
  5
ED
330
17
100
AcDbEntity
  8
DOOR_COMPONENTS
100
AcDbCircle
 10
1370.0
 20
1680.0
 30
0.0
 40
25.0
  0
TEXT
  5
EE
330
17
100
AcDbEntity
  8
TEXT_LABELS
100
AcDbText
 10
1370.0
 20
1635.0
 30
0.0
 40
16.0
  1
FAULT
 72
1
 11
1370.0
 21
1635.0
 31
0.0
100
AcDbText
 73
2
  0
LWPOLYLINE
  5
EF
330
17
100
AcDbEntity
  8
DOOR_COMPONENTS
100
AcDbPolyline
 90
3
 70
1
 10
1200.0
 20
1530.0
 10
1110.0
 20
1370.0
 10
1290.0
 20
1370.0
  0
TEXT
  5
F0
330
17
100
AcDbEntity
  8
TEXT_HEADER
100
AcDbText
 10
1200.0
 20
1430.0
 30
0.0
 40
70.0
  1
!
 72
1
 11
1200.0
 21
1430.0
 31
0.0
100
AcDbText
 73
2
  0
TEXT
  5
F1
330
17
100
AcDbEntity
  8
TEXT_HEADER
100
AcDbText
 10
1200.0
 20
1325.0
 30
0.0
 40
22.0
  1
400V / 230V HAZARD
 72
1
 11
1200.0
 21
1325.0
 31
0.0
100
AcDbText
 73
2
  0
LWPOLYLINE
  5
F2
330
17
100
AcDbEntity
  8
DOOR_COMPONENTS
100
AcDbPolyline
 90
4
 70
1
 10
920.0
 20
360.0
 10
1480.0
 20
360.0
 10
1480.0
 20
660.0
 10
920.0
 20
660.0
  0
TEXT
  5
F3
330
17
100
AcDbEntity
  8
TEXT_LABELS
100
AcDbText
 10
1200.0
 20
510.0
 30
0.0
 40
22.0
  1
DOCUMENT POCKET (A4)
 72
1
 11
1200.0
 21
510.0
 31
0.0
100
AcDbText
 73
2
  0
LWPOLYLINE
  5
F4
330
17
100
AcDbEntity
  8
ENCL_OUTLINE
100
AcDbPolyline
 90
4
 70
1
 10
1600.0
 20
100.0
 10
2400.0
 20
100.0
 10
2400.0
 20
2100.0
 10
1600.0
 20
2100.0
  0
LWPOLYLINE
  5
F5
330
17
100
AcDbEntity
  8
ENCL_DOOR
100
AcDbPolyline
 90
4
 70
1
 10
1620.0
 20
120.0
 10
2380.0
 20
120.0
 10
2380.0
 20
2080.0
 10
1620.0
 20
2080.0
  0
LWPOLYLINE
  5
F6
330
17
100
AcDbEntity
  8
ENCL_DOOR
100
AcDbPolyline
 90
4
 70
1
 10
1615.0
 20
320.0
 10
1630.0
 20
320.0
 10
1630.0
 20
390.0
 10
1615.0
 20
390.0
  0
LWPOLYLINE
  5
F7
330
17
100
AcDbEntity
  8
ENCL_DOOR
100
AcDbPolyline
 90
4
 70
1
 10
1615.0
 20
1065.0
 10
1630.0
 20
1065.0
 10
1630.0
 20
1135.0
 10
1615.0
 20
1135.0
  0
LWPOLYLINE
  5
F8
330
17
100
AcDbEntity
  8
ENCL_DOOR
100
AcDbPolyline
 90
4
 70
1
 10
1615.0
 20
1830.0
 10
1630.0
 20
1830.0
 10
1630.0
 20
1900.0
 10
1615.0
 20
1900.0
  0
LWPOLYLINE
  5
F9
330
17
100
AcDbEntity
  8
DOOR_COMPONENTS
100
AcDbPolyline
 90
4
 70
1
 10
2335.0
 20
1000.0
 10
2360.0
 20
1000.0
 10
2360.0
 20
1200.0
 10
2335.0
 20
1200.0
  0
CIRCLE
  5
FA
330
17
100
AcDbEntity
  8
DOOR_COMPONENTS
100
AcDbCircle
 10
2347.5
 20
1100.0
 30
0.0
 40
7.5
  0
LWPOLYLINE
  5
FB
330
17
100
AcDbEntity
  8
ENCL_OUTLINE
100
AcDbPolyline
 90
4
 70
1
 10
1840.0
 20
2020.0
 10
2160.0
 20
2020.0
 10
2160.0
 20
2090.0
 10
1840.0
 20
2090.0
  0
TEXT
  5
FC
330
17
100
AcDbEntity
  8
TEXT_LABELS
100
AcDbText
 10
2000.0
 20
2055.0
 30
0.0
 40
18.0
  1
ROOF EXHAUST FAN
 72
1
 11
2000.0
 21
2055.0
 31
0.0
100
AcDbText
 73
2
  0
CIRCLE
  5
FD
330
17
100
AcDbEntity
  8
ENCL_OUTLINE
100
AcDbCircle
 10
1700.0
 20
2135.0
 30
0.0
 40
25.0
  0
CIRCLE
  5
FE
330
17
100
AcDbEntity
  8
ENCL_OUTLINE
100
AcDbCircle
 10
2300.0
 20
2135.0
 30
0.0
 40
25.0
  0
LWPOLYLINE
  5
FF
330
17
100
AcDbEntity
  8
0_TITLE_BLOCK
100
AcDbPolyline
 90
4
 70
1
 10
1660.0
 20
1950.0
 10
2340.0
 20
1950.0
 10
2340.0
 20
2030.0
 10
1660.0
 20
2030.0
  0
TEXT
  5
100
330
17
100
AcDbEntity
  8
TEXT_HEADER
100
AcDbText
 10
2000.0
 20
2000.0
 30
0.0
 40
26.0
  1
PANEL M3
 72
1
 11
2000.0
 21
2000.0
 31
0.0
100
AcDbText
 73
2
  0
TEXT
  5
101
330
17
100
AcDbEntity
  8
TEXT_LABELS
100
AcDbText
 10
2000.0
 20
1970.0
 30
0.0
 40
18.0
  1
I/O & IS BARRIERS
 72
1
 11
2000.0
 21
1970.0
 31
0.0
100
AcDbText
 73
2
  0
LWPOLYLINE
  5
102
330
17
100
AcDbEntity
  8
DOOR_COMPONENTS
100
AcDbPolyline
 90
4
 70
1
 10
1700.0
 20
180.0
 10
2300.0
 20
180.0
 10
2300.0
 20
280.0
 10
1700.0
 20
280.0
  0
TEXT
  5
103
330
17
100
AcDbEntity
  8
TEXT_LABELS
100
AcDbText
 10
2000.0
 20
230.0
 30
0.0
 40
20.0
  1
AIR INLET FILTER
 72
1
 11
2000.0
 21
230.0
 31
0.0
100
AcDbText
 73
2
  0
CIRCLE
  5
104
330
17
100
AcDbEntity
  8
DOOR_COMPONENTS
100
AcDbCircle
 10
1750.0
 20
1680.0
 30
0.0
 40
25.0
  0
TEXT
  5
105
330
17
100
AcDbEntity
  8
TEXT_LABELS
100
AcDbText
 10
1750.0
 20
1635.0
 30
0.0
 40
16.0
  1
POWER ON
 72
1
 11
1750.0
 21
1635.0
 31
0.0
100
AcDbText
 73
2
  0
CIRCLE
  5
106
330
17
100
AcDbEntity
  8
DOOR_COMPONENTS
100
AcDbCircle
 10
1890.0
 20
1680.0
 30
0.0
 40
25.0
  0
TEXT
  5
107
330
17
100
AcDbEntity
  8
TEXT_LABELS
100
AcDbText
 10
1890.0
 20
1635.0
 30
0.0
 40
16.0
  1
HEALTHY
 72
1
 11
1890.0
 21
1635.0
 31
0.0
100
AcDbText
 73
2
  0
CIRCLE
  5
108
330
17
100
AcDbEntity
  8
DOOR_COMPONENTS
100
AcDbCircle
 10
2030.0
 20
1680.0
 30
0.0
 40
25.0
  0
TEXT
  5
109
330
17
100
AcDbEntity
  8
TEXT_LABELS
100
AcDbText
 10
2030.0
 20
1635.0
 30
0.0
 40
16.0
  1
ALARM
 72
1
 11
2030.0
 21
1635.0
 31
0.0
100
AcDbText
 73
2
  0
CIRCLE
  5
10A
330
17
100
AcDbEntity
  8
DOOR_COMPONENTS
100
AcDbCircle
 10
2170.0
 20
1680.0
 30
0.0
 40
25.0
  0
TEXT
  5
10B
330
17
100
AcDbEntity
  8
TEXT_LABELS
100
AcDbText
 10
2170.0
 20
1635.0
 30
0.0
 40
16.0
  1
FAULT
 72
1
 11
2170.0
 21
1635.0
 31
0.0
100
AcDbText
 73
2
  0
LWPOLYLINE
  5
10C
330
17
100
AcDbEntity
  8
DOOR_COMPONENTS
100
AcDbPolyline
 90
3
 70
1
 10
2000.0
 20
1530.0
 10
1910.0
 20
1370.0
 10
2090.0
 20
1370.0
  0
TEXT
  5
10D
330
17
100
AcDbEntity
  8
TEXT_HEADER
100
AcDbText
 10
2000.0
 20
1430.0
 30
0.0
 40
70.0
  1
!
 72
1
 11
2000.0
 21
1430.0
 31
0.0
100
AcDbText
 73
2
  0
TEXT
  5
10E
330
17
100
AcDbEntity
  8
TEXT_HEADER
100
AcDbText
 10
2000.0
 20
1325.0
 30
0.0
 40
22.0
  1
400V / 230V HAZARD
 72
1
 11
2000.0
 21
1325.0
 31
0.0
100
AcDbText
 73
2
  0
LWPOLYLINE
  5
10F
330
17
100
AcDbEntity
  8
DOOR_COMPONENTS
100
AcDbPolyline
 90
4
 70
1
 10
1720.0
 20
360.0
 10
2280.0
 20
360.0
 10
2280.0
 20
660.0
 10
1720.0
 20
660.0
  0
TEXT
  5
110
330
17
100
AcDbEntity
  8
TEXT_LABELS
100
AcDbText
 10
2000.0
 20
510.0
 30
0.0
 40
22.0
  1
DOCUMENT POCKET (A4)
 72
1
 11
2000.0
 21
510.0
 31
0.0
100
AcDbText
 73
2
  0
LWPOLYLINE
  5
111
330
17
100
AcDbEntity
  8
ENCL_OUTLINE
100
AcDbPolyline
 90
4
 70
1
 10
2400.0
 20
100.0
 10
3200.0
 20
100.0
 10
3200.0
 20
2100.0
 10
2400.0
 20
2100.0
  0
LWPOLYLINE
  5
112
330
17
100
AcDbEntity
  8
ENCL_DOOR
100
AcDbPolyline
 90
4
 70
1
 10
2420.0
 20
120.0
 10
3180.0
 20
120.0
 10
3180.0
 20
2080.0
 10
2420.0
 20
2080.0
  0
LWPOLYLINE
  5
113
330
17
100
AcDbEntity
  8
ENCL_DOOR
100
AcDbPolyline
 90
4
 70
1
 10
2415.0
 20
320.0
 10
2430.0
 20
320.0
 10
2430.0
 20
390.0
 10
2415.0
 20
390.0
  0
LWPOLYLINE
  5
114
330
17
100
AcDbEntity
  8
ENCL_DOOR
100
AcDbPolyline
 90
4
 70
1
 10
2415.0
 20
1065.0
 10
2430.0
 20
1065.0
 10
2430.0
 20
1135.0
 10
2415.0
 20
1135.0
  0
LWPOLYLINE
  5
115
330
17
100
AcDbEntity
  8
ENCL_DOOR
100
AcDbPolyline
 90
4
 70
1
 10
2415.0
 20
1830.0
 10
2430.0
 20
1830.0
 10
2430.0
 20
1900.0
 10
2415.0
 20
1900.0
  0
LWPOLYLINE
  5
116
330
17
100
AcDbEntity
  8
DOOR_COMPONENTS
100
AcDbPolyline
 90
4
 70
1
 10
3135.0
 20
1000.0
 10
3160.0
 20
1000.0
 10
3160.0
 20
1200.0
 10
3135.0
 20
1200.0
  0
CIRCLE
  5
117
330
17
100
AcDbEntity
  8
DOOR_COMPONENTS
100
AcDbCircle
 10
3147.5
 20
1100.0
 30
0.0
 40
7.5
  0
LWPOLYLINE
  5
118
330
17
100
AcDbEntity
  8
ENCL_OUTLINE
100
AcDbPolyline
 90
4
 70
1
 10
2640.0
 20
2020.0
 10
2960.0
 20
2020.0
 10
2960.0
 20
2090.0
 10
2640.0
 20
2090.0
  0
TEXT
  5
119
330
17
100
AcDbEntity
  8
TEXT_LABELS
100
AcDbText
 10
2800.0
 20
2055.0
 30
0.0
 40
18.0
  1
ROOF EXHAUST FAN
 72
1
 11
2800.0
 21
2055.0
 31
0.0
100
AcDbText
 73
2
  0
CIRCLE
  5
11A
330
17
100
AcDbEntity
  8
ENCL_OUTLINE
100
AcDbCircle
 10
2500.0
 20
2135.0
 30
0.0
 40
25.0
  0
CIRCLE
  5
11B
330
17
100
AcDbEntity
  8
ENCL_OUTLINE
100
AcDbCircle
 10
3100.0
 20
2135.0
 30
0.0
 40
25.0
  0
LWPOLYLINE
  5
11C
330
17
100
AcDbEntity
  8
0_TITLE_BLOCK
100
AcDbPolyline
 90
4
 70
1
 10
2460.0
 20
1950.0
 10
3140.0
 20
1950.0
 10
3140.0
 20
2030.0
 10
2460.0
 20
2030.0
  0
TEXT
  5
11D
330
17
100
AcDbEntity
  8
TEXT_HEADER
100
AcDbText
 10
2800.0
 20
2000.0
 30
0.0
 40
26.0
  1
PANEL M4
 72
1
 11
2800.0
 21
2000.0
 31
0.0
100
AcDbText
 73
2
  0
TEXT
  5
11E
330
17
100
AcDbEntity
  8
TEXT_LABELS
100
AcDbText
 10
2800.0
 20
1970.0
 30
0.0
 40
18.0
  1
I/O & IS BARRIERS
 72
1
 11
2800.0
 21
1970.0
 31
0.0
100
AcDbText
 73
2
  0
LWPOLYLINE
  5
11F
330
17
100
AcDbEntity
  8
DOOR_COMPONENTS
100
AcDbPolyline
 90
4
 70
1
 10
2500.0
 20
180.0
 10
3100.0
 20
180.0
 10
3100.0
 20
280.0
 10
2500.0
 20
280.0
  0
TEXT
  5
120
330
17
100
AcDbEntity
  8
TEXT_LABELS
100
AcDbText
 10
2800.0
 20
230.0
 30
0.0
 40
20.0
  1
AIR INLET FILTER
 72
1
 11
2800.0
 21
230.0
 31
0.0
100
AcDbText
 73
2
  0
CIRCLE
  5
121
330
17
100
AcDbEntity
  8
DOOR_COMPONENTS
100
AcDbCircle
 10
2550.0
 20
1680.0
 30
0.0
 40
25.0
  0
TEXT
  5
122
330
17
100
AcDbEntity
  8
TEXT_LABELS
100
AcDbText
 10
2550.0
 20
1635.0
 30
0.0
 40
16.0
  1
POWER ON
 72
1
 11
2550.0
 21
1635.0
 31
0.0
100
AcDbText
 73
2
  0
CIRCLE
  5
123
330
17
100
AcDbEntity
  8
DOOR_COMPONENTS
100
AcDbCircle
 10
2690.0
 20
1680.0
 30
0.0
 40
25.0
  0
TEXT
  5
124
330
17
100
AcDbEntity
  8
TEXT_LABELS
100
AcDbText
 10
2690.0
 20
1635.0
 30
0.0
 40
16.0
  1
HEALTHY
 72
1
 11
2690.0
 21
1635.0
 31
0.0
100
AcDbText
 73
2
  0
CIRCLE
  5
125
330
17
100
AcDbEntity
  8
DOOR_COMPONENTS
100
AcDbCircle
 10
2830.0
 20
1680.0
 30
0.0
 40
25.0
  0
TEXT
  5
126
330
17
100
AcDbEntity
  8
TEXT_LABELS
100
AcDbText
 10
2830.0
 20
1635.0
 30
0.0
 40
16.0
  1
ALARM
 72
1
 11
2830.0
 21
1635.0
 31
0.0
100
AcDbText
 73
2
  0
CIRCLE
  5
127
330
17
100
AcDbEntity
  8
DOOR_COMPONENTS
100
AcDbCircle
 10
2970.0
 20
1680.0
 30
0.0
 40
25.0
  0
TEXT
  5
128
330
17
100
AcDbEntity
  8
TEXT_LABELS
100
AcDbText
 10
2970.0
 20
1635.0
 30
0.0
 40
16.0
  1
FAULT
 72
1
 11
2970.0
 21
1635.0
 31
0.0
100
AcDbText
 73
2
  0
LWPOLYLINE
  5
129
330
17
100
AcDbEntity
  8
DOOR_COMPONENTS
100
AcDbPolyline
 90
3
 70
1
 10
2800.0
 20
1530.0
 10
2710.0
 20
1370.0
 10
2890.0
 20
1370.0
  0
TEXT
  5
12A
330
17
100
AcDbEntity
  8
TEXT_HEADER
100
AcDbText
 10
2800.0
 20
1430.0
 30
0.0
 40
70.0
  1
!
 72
1
 11
2800.0
 21
1430.0
 31
0.0
100
AcDbText
 73
2
  0
TEXT
  5
12B
330
17
100
AcDbEntity
  8
TEXT_HEADER
100
AcDbText
 10
2800.0
 20
1325.0
 30
0.0
 40
22.0
  1
400V / 230V HAZARD
 72
1
 11
2800.0
 21
1325.0
 31
0.0
100
AcDbText
 73
2
  0
LWPOLYLINE
  5
12C
330
17
100
AcDbEntity
  8
DOOR_COMPONENTS
100
AcDbPolyline
 90
4
 70
1
 10
2520.0
 20
360.0
 10
3080.0
 20
360.0
 10
3080.0
 20
660.0
 10
2520.0
 20
660.0
  0
TEXT
  5
12D
330
17
100
AcDbEntity
  8
TEXT_LABELS
100
AcDbText
 10
2800.0
 20
510.0
 30
0.0
 40
22.0
  1
DOCUMENT POCKET (A4)
 72
1
 11
2800.0
 21
510.0
 31
0.0
100
AcDbText
 73
2
  0
DIMENSION
  5
12E
330
17
100
AcDbEntity
  8
DIMENSIONS
100
AcDbDimension
280
0
  2
*D1
  3
METRIC_MM
 10
0.0
 20
-150.0
 30
0.0
 11
1600.0
 21
-131.875
 31
0.0
 70
32
 71
5
  1
<>
100
AcDbAlignedDimension
 13
0.0
 23
0.0
 33
0.0
 14
3200.0
 24
0.0
 34
0.0
 50
0.0
100
AcDbRotatedDimension
  0
DIMENSION
  5
13D
330
17
100
AcDbEntity
  8
DIMENSIONS
100
AcDbDimension
280
0
  2
*D2
  3
METRIC_MM
 10
0.0
 20
-280.0
 30
0.0
 11
400.0
 21
-261.875
 31
0.0
 70
32
 71
5
  1
<>
100
AcDbAlignedDimension
 13
0.0
 23
0.0
 33
0.0
 14
800.0
 24
0.0
 34
0.0
 50
0.0
100
AcDbRotatedDimension
  0
DIMENSION
  5
14C
330
17
100
AcDbEntity
  8
DIMENSIONS
100
AcDbDimension
280
0
  2
*D3
  3
METRIC_MM
 10
800.0
 20
-280.0
 30
0.0
 11
1200.0
 21
-261.875
 31
0.0
 70
32
 71
5
  1
<>
100
AcDbAlignedDimension
 13
800.0
 23
0.0
 33
0.0
 14
1600.0
 24
0.0
 34
0.0
 50
0.0
100
AcDbRotatedDimension
  0
DIMENSION
  5
15B
330
17
100
AcDbEntity
  8
DIMENSIONS
100
AcDbDimension
280
0
  2
*D4
  3
METRIC_MM
 10
1600.0
 20
-280.0
 30
0.0
 11
2000.0
 21
-261.875
 31
0.0
 70
32
 71
5
  1
<>
100
AcDbAlignedDimension
 13
1600.0
 23
0.0
 33
0.0
 14
2400.0
 24
0.0
 34
0.0
 50
0.0
100
AcDbRotatedDimension
  0
DIMENSION
  5
16A
330
17
100
AcDbEntity
  8
DIMENSIONS
100
AcDbDimension
280
0
  2
*D5
  3
METRIC_MM
 10
2400.0
 20
-280.0
 30
0.0
 11
2800.0
 21
-261.875
 31
0.0
 70
32
 71
5
  1
<>
100
AcDbAlignedDimension
 13
2400.0
 23
0.0
 33
0.0
 14
3200.0
 24
0.0
 34
0.0
 50
0.0
100
AcDbRotatedDimension
  0
DIMENSION
  5
179
330
17
100
AcDbEntity
  8
DIMENSIONS
100
AcDbDimension
280
0
  2
*D6
  3
METRIC_MM
 10
3200.0
 20
50.0
 30
0.0
 11
3200.0
 21
83.125
 31
0.0
 70
32
 71
5
  1
<>
100
AcDbAlignedDimension
 13
3200.0
 23
0.0
 33
0.0
 14
3200.0
 24
100.0
 34
0.0
 50
0.0
100
AcDbRotatedDimension
  0
DIMENSION
  5
18A
330
17
100
AcDbEntity
  8
DIMENSIONS
100
AcDbDimension
280
0
  2
*D7
  3
METRIC_MM
 10
3200.0
 20
1100.0
 30
0.0
 11
3200.0
 21
1133.125
 31
0.0
 70
32
 71
5
  1
<>
100
AcDbAlignedDimension
 13
3200.0
 23
100.0
 33
0.0
 14
3200.0
 24
2100.0
 34
0.0
 50
0.0
100
AcDbRotatedDimension
  0
DIMENSION
  5
19B
330
17
100
AcDbEntity
  8
DIMENSIONS
100
AcDbDimension
280
0
  2
*D8
  3
METRIC_MM
 10
3200.0
 20
1050.0
 30
0.0
 11
3200.0
 21
1083.125
 31
0.0
 70
32
 71
5
  1
<>
100
AcDbAlignedDimension
 13
3200.0
 23
0.0
 33
0.0
 14
3200.0
 24
2100.0
 34
0.0
 50
0.0
100
AcDbRotatedDimension
  0
TEXT
  5
1AC
330
17
100
AcDbEntity
  8
TEXT_HEADER
100
AcDbText
 10
1600.0
 20
2300.0
 30
0.0
 40
45.0
  1
4-PANEL SUITE: FRONT ELEVATION (DOORS CLOSED)
 72
1
 11
1600.0
 21
2300.0
 31
0.0
100
AcDbText
 73
2
  0
LWPOLYLINE
  5
1AD
330
17
100
AcDbEntity
  8
BASE_PLINTH
100
AcDbPolyline
 90
4
 70
1
 10
3800.0
 20
0.0
 10
7000.0
 20
0.0
 10
7000.0
 20
100.0
 10
3800.0
 20
100.0
  0
LWPOLYLINE
  5
1AE
330
17
100
AcDbEntity
  8
ENCL_OUTLINE
100
AcDbPolyline
 90
4
 70
1
 10
3800.0
 20
100.0
 10
4600.0
 20
100.0
 10
4600.0
 20
2100.0
 10
3800.0
 20
2100.0
  0
LWPOLYLINE
  5
1AF
330
17
100
AcDbEntity
  8
SUBPANEL_PLATE
100
AcDbPolyline
 90
4
 70
1
 10
3850.0
 20
150.0
 10
4550.0
 20
150.0
 10
4550.0
 20
2050.0
 10
3850.0
 20
2050.0
  0
LWPOLYLINE
  5
1B0
330
17
100
AcDbEntity
  8
WIRE_DUCT
100
AcDbPolyline
 90
4
 70
1
 10
3865.0
 20
210.0
 10
3945.0
 20
210.0
 10
3945.0
 20
1990.0
 10
3865.0
 20
1990.0
  0
LWPOLYLINE
  5
1B1
330
17
100
AcDbEntity
  8
WIRE_DUCT
100
AcDbPolyline
 90
4
 70
1
 10
4455.0
 20
210.0
 10
4535.0
 20
210.0
 10
4535.0
 20
1990.0
 10
4455.0
 20
1990.0
  0
LWPOLYLINE
  5
1B2
330
17
100
AcDbEntity
  8
WIRE_DUCT
100
AcDbPolyline
 90
4
 70
1
 10
3945.0
 20
1900.0
 10
4455.0
 20
1900.0
 10
4455.0
 20
1980.0
 10
3945.0
 20
1980.0
  0
LWPOLYLINE
  5
1B3
330
17
100
AcDbEntity
  8
WIRE_DUCT
100
AcDbPolyline
 90
4
 70
1
 10
3945.0
 20
1450.0
 10
4455.0
 20
1450.0
 10
4455.0
 20
1530.0
 10
3945.0
 20
1530.0
  0
LWPOLYLINE
  5
1B4
330
17
100
AcDbEntity
  8
WIRE_DUCT
100
AcDbPolyline
 90
4
 70
1
 10
3945.0
 20
950.0
 10
4455.0
 20
950.0
 10
4455.0
 20
1030.0
 10
3945.0
 20
1030.0
  0
LWPOLYLINE
  5
1B5
330
17
100
AcDbEntity
  8
WIRE_DUCT
100
AcDbPolyline
 90
4
 70
1
 10
3945.0
 20
550.0
 10
4455.0
 20
550.0
 10
4455.0
 20
630.0
 10
3945.0
 20
630.0
  0
LWPOLYLINE
  5
1B6
330
17
100
AcDbEntity
  8
DIN_RAIL
100
AcDbPolyline
 90
4
 70
1
 10
3955.0
 20
1700.0
 10
4445.0
 20
1700.0
 10
4445.0
 20
1735.0
 10
3955.0
 20
1735.0
  0
LWPOLYLINE
  5
1B7
330
17
100
AcDbEntity
  8
DIN_RAIL
100
AcDbPolyline
 90
4
 70
1
 10
3955.0
 20
1200.0
 10
4445.0
 20
1200.0
 10
4445.0
 20
1235.0
 10
3955.0
 20
1235.0
  0
LWPOLYLINE
  5
1B8
330
17
100
AcDbEntity
  8
DIN_RAIL
100
AcDbPolyline
 90
4
 70
1
 10
3955.0
 20
350.0
 10
4445.0
 20
350.0
 10
4445.0
 20
385.0
 10
3955.0
 20
385.0
  0
LWPOLYLINE
  5
1B9
330
17
100
AcDbEntity
  8
EARTH_BAR
100
AcDbPolyline
 90
4
 70
1
 10
3870.0
 20
210.0
 10
4530.0
 20
210.0
 10
4530.0
 20
240.0
 10
3870.0
 20
240.0
  0
TEXT
  5
1BA
330
17
100
AcDbEntity
  8
TEXT_LABELS
100
AcDbText
 10
4200.0
 20
225.0
 30
0.0
 40
16.0
  1
PE / EARTH COPPER BAR 30x5mm
 72
1
 11
4200.0
 21
225.0
 31
0.0
100
AcDbText
 73
2
  0
LWPOLYLINE
  5
1BB
330
17
100
AcDbEntity
  8
POWER_SUPPLY
100
AcDbPolyline
 90
4
 70
1
 10
3965.0
 20
1675.0
 10
4035.0
 20
1675.0
 10
4035.0
 20
1760.0
 10
3965.0
 20
1760.0
  0
TEXT
  5
1BC
330
17
100
AcDbEntity
  8
TEXT_LABELS
100
AcDbText
 10
4000.0
 20
1717.0
 30
0.0
 40
18.0
  1
MCB
 72
1
 11
4000.0
 21
1717.0
 31
0.0
100
AcDbText
 73
2
  0
LWPOLYLINE
  5
1BD
330
17
100
AcDbEntity
  8
POWER_SUPPLY
100
AcDbPolyline
 90
4
 70
1
 10
4055.0
 20
1655.0
 10
4175.0
 20
1655.0
 10
4175.0
 20
1780.0
 10
4055.0
 20
1780.0
  0
TEXT
  5
1BE
330
17
100
AcDbEntity
  8
TEXT_LABELS
100
AcDbText
 10
4115.0
 20
1717.0
 30
0.0
 40
18.0
  1
PSU 1 (20A)
 72
1
 11
4115.0
 21
1717.0
 31
0.0
100
AcDbText
 73
2
  0
LWPOLYLINE
  5
1BF
330
17
100
AcDbEntity
  8
POWER_SUPPLY
100
AcDbPolyline
 90
4
 70
1
 10
4190.0
 20
1655.0
 10
4310.0
 20
1655.0
 10
4310.0
 20
1780.0
 10
4190.0
 20
1780.0
  0
TEXT
  5
1C0
330
17
100
AcDbEntity
  8
TEXT_LABELS
100
AcDbText
 10
4250.0
 20
1717.0
 30
0.0
 40
18.0
  1
PSU 2 (20A)
 72
1
 11
4250.0
 21
1717.0
 31
0.0
100
AcDbText
 73
2
  0
LWPOLYLINE
  5
1C1
330
17
100
AcDbEntity
  8
COMM_SWITCH
100
AcDbPolyline
 90
4
 70
1
 10
4325.0
 20
1660.0
 10
4425.0
 20
1660.0
 10
4425.0
 20
1775.0
 10
4325.0
 20
1775.0
  0
TEXT
  5
1C2
330
17
100
AcDbEntity
  8
TEXT_LABELS
100
AcDbText
 10
4375.0
 20
1717.0
 30
0.0
 40
16.0
  1
STRATIX 5700
 72
1
 11
4375.0
 21
1717.0
 31
0.0
100
AcDbText
 73
2
  0
LWPOLYLINE
  5
1C3
330
17
100
AcDbEntity
  8
PLC_CHASSIS
100
AcDbPolyline
 90
4
 70
1
 10
3955.0
 20
1070.0
 10
4445.0
 20
1070.0
 10
4445.0
 20
1390.0
 10
3955.0
 20
1390.0
  0
LWPOLYLINE
  5
1C4
330
17
100
AcDbEntity
  8
POWER_SUPPLY
100
AcDbPolyline
 90
4
 70
1
 10
3965.0
 20
1085.0
 10
4040.0
 20
1085.0
 10
4040.0
 20
1375.0
 10
3965.0
 20
1375.0
  0
TEXT
  5
1C5
330
17
100
AcDbEntity
  8
TEXT_LABELS
100
AcDbText
 10
4002.5
 20
1230.0
 30
0.0
 40
18.0
  1
PA72
 72
1
 11
4002.5
 21
1230.0
 31
0.0
100
AcDbText
 73
2
  0
LWPOLYLINE
  5
1C6
330
17
100
AcDbEntity
  8
PLC_SLOT_CPU
100
AcDbPolyline
 90
4
 70
1
 10
4045.0
 20
1085.0
 10
4073.0
 20
1085.0
 10
4073.0
 20
1375.0
 10
4045.0
 20
1375.0
  0
TEXT
  5
1C7
330
17
100
AcDbEntity
  8
TEXT_LABELS
100
AcDbText
 10
4059.0
 20
1230.0
 30
0.0
 40
14.0
  1
CPU
 72
1
 11
4059.0
 21
1230.0
 31
0.0
100
AcDbText
 73
2
  0
LWPOLYLINE
  5
1C8
330
17
100
AcDbEntity
  8
PLC_SLOT_SPARE
100
AcDbPolyline
 90
4
 70
1
 10
4075.0
 20
1085.0
 10
4103.0
 20
1085.0
 10
4103.0
 20
1375.0
 10
4075.0
 20
1375.0
  0
TEXT
  5
1C9
330
17
100
AcDbEntity
  8
TEXT_LABELS
100
AcDbText
 10
4089.0
 20
1230.0
 30
0.0
 40
14.0
  1
RES
 72
1
 11
4089.0
 21
1230.0
 31
0.0
100
AcDbText
 73
2
  0
LWPOLYLINE
  5
1CA
330
17
100
AcDbEntity
  8
PLC_SLOT_DI
100
AcDbPolyline
 90
4
 70
1
 10
4105.0
 20
1085.0
 10
4133.0
 20
1085.0
 10
4133.0
 20
1375.0
 10
4105.0
 20
1375.0
  0
TEXT
  5
1CB
330
17
100
AcDbEntity
  8
TEXT_LABELS
100
AcDbText
 10
4119.0
 20
1230.0
 30
0.0
 40
14.0
  1
DI
 72
1
 11
4119.0
 21
1230.0
 31
0.0
100
AcDbText
 73
2
  0
LWPOLYLINE
  5
1CC
330
17
100
AcDbEntity
  8
PLC_SLOT_DI
100
AcDbPolyline
 90
4
 70
1
 10
4135.0
 20
1085.0
 10
4163.0
 20
1085.0
 10
4163.0
 20
1375.0
 10
4135.0
 20
1375.0
  0
TEXT
  5
1CD
330
17
100
AcDbEntity
  8
TEXT_LABELS
100
AcDbText
 10
4149.0
 20
1230.0
 30
0.0
 40
14.0
  1
DI
 72
1
 11
4149.0
 21
1230.0
 31
0.0
100
AcDbText
 73
2
  0
LWPOLYLINE
  5
1CE
330
17
100
AcDbEntity
  8
PLC_SLOT_DI
100
AcDbPolyline
 90
4
 70
1
 10
4165.0
 20
1085.0
 10
4193.0
 20
1085.0
 10
4193.0
 20
1375.0
 10
4165.0
 20
1375.0
  0
TEXT
  5
1CF
330
17
100
AcDbEntity
  8
TEXT_LABELS
100
AcDbText
 10
4179.0
 20
1230.0
 30
0.0
 40
14.0
  1
DI
 72
1
 11
4179.0
 21
1230.0
 31
0.0
100
AcDbText
 73
2
  0
LWPOLYLINE
  5
1D0
330
17
100
AcDbEntity
  8
PLC_SLOT_DI
100
AcDbPolyline
 90
4
 70
1
 10
4195.0
 20
1085.0
 10
4223.0
 20
1085.0
 10
4223.0
 20
1375.0
 10
4195.0
 20
1375.0
  0
TEXT
  5
1D1
330
17
100
AcDbEntity
  8
TEXT_LABELS
100
AcDbText
 10
4209.0
 20
1230.0
 30
0.0
 40
14.0
  1
DI
 72
1
 11
4209.0
 21
1230.0
 31
0.0
100
AcDbText
 73
2
  0
LWPOLYLINE
  5
1D2
330
17
100
AcDbEntity
  8
PLC_SLOT_DO
100
AcDbPolyline
 90
4
 70
1
 10
4225.0
 20
1085.0
 10
4253.0
 20
1085.0
 10
4253.0
 20
1375.0
 10
4225.0
 20
1375.0
  0
TEXT
  5
1D3
330
17
100
AcDbEntity
  8
TEXT_LABELS
100
AcDbText
 10
4239.0
 20
1230.0
 30
0.0
 40
14.0
  1
DO
 72
1
 11
4239.0
 21
1230.0
 31
0.0
100
AcDbText
 73
2
  0
LWPOLYLINE
  5
1D4
330
17
100
AcDbEntity
  8
PLC_SLOT_DO
100
AcDbPolyline
 90
4
 70
1
 10
4255.0
 20
1085.0
 10
4283.0
 20
1085.0
 10
4283.0
 20
1375.0
 10
4255.0
 20
1375.0
  0
TEXT
  5
1D5
330
17
100
AcDbEntity
  8
TEXT_LABELS
100
AcDbText
 10
4269.0
 20
1230.0
 30
0.0
 40
14.0
  1
DO
 72
1
 11
4269.0
 21
1230.0
 31
0.0
100
AcDbText
 73
2
  0
LWPOLYLINE
  5
1D6
330
17
100
AcDbEntity
  8
PLC_SLOT_AI
100
AcDbPolyline
 90
4
 70
1
 10
4285.0
 20
1085.0
 10
4313.0
 20
1085.0
 10
4313.0
 20
1375.0
 10
4285.0
 20
1375.0
  0
TEXT
  5
1D7
330
17
100
AcDbEntity
  8
TEXT_LABELS
100
AcDbText
 10
4299.0
 20
1230.0
 30
0.0
 40
14.0
  1
AI
 72
1
 11
4299.0
 21
1230.0
 31
0.0
100
AcDbText
 73
2
  0
LWPOLYLINE
  5
1D8
330
17
100
AcDbEntity
  8
PLC_SLOT_AI
100
AcDbPolyline
 90
4
 70
1
 10
4315.0
 20
1085.0
 10
4343.0
 20
1085.0
 10
4343.0
 20
1375.0
 10
4315.0
 20
1375.0
  0
TEXT
  5
1D9
330
17
100
AcDbEntity
  8
TEXT_LABELS
100
AcDbText
 10
4329.0
 20
1230.0
 30
0.0
 40
14.0
  1
AI
 72
1
 11
4329.0
 21
1230.0
 31
0.0
100
AcDbText
 73
2
  0
LWPOLYLINE
  5
1DA
330
17
100
AcDbEntity
  8
PLC_SLOT_SPARE
100
AcDbPolyline
 90
4
 70
1
 10
4345.0
 20
1085.0
 10
4373.0
 20
1085.0
 10
4373.0
 20
1375.0
 10
4345.0
 20
1375.0
  0
TEXT
  5
1DB
330
17
100
AcDbEntity
  8
TEXT_LABELS
100
AcDbText
 10
4359.0
 20
1230.0
 30
0.0
 40
14.0
  1
N2
 72
1
 11
4359.0
 21
1230.0
 31
0.0
100
AcDbText
 73
2
  0
LWPOLYLINE
  5
1DC
330
17
100
AcDbEntity
  8
PLC_SLOT_SPARE
100
AcDbPolyline
 90
4
 70
1
 10
4375.0
 20
1085.0
 10
4403.0
 20
1085.0
 10
4403.0
 20
1375.0
 10
4375.0
 20
1375.0
  0
TEXT
  5
1DD
330
17
100
AcDbEntity
  8
TEXT_LABELS
100
AcDbText
 10
4389.0
 20
1230.0
 30
0.0
 40
14.0
  1
N2
 72
1
 11
4389.0
 21
1230.0
 31
0.0
100
AcDbText
 73
2
  0
LWPOLYLINE
  5
1DE
330
17
100
AcDbEntity
  8
PLC_SLOT_SPARE
100
AcDbPolyline
 90
4
 70
1
 10
4405.0
 20
1085.0
 10
4433.0
 20
1085.0
 10
4433.0
 20
1375.0
 10
4405.0
 20
1375.0
  0
TEXT
  5
1DF
330
17
100
AcDbEntity
  8
TEXT_LABELS
100
AcDbText
 10
4419.0
 20
1230.0
 30
0.0
 40
14.0
  1
N2
 72
1
 11
4419.0
 21
1230.0
 31
0.0
100
AcDbText
 73
2
  0
TEXT
  5
1E0
330
17
100
AcDbEntity
  8
TEXT_HEADER
100
AcDbText
 10
4200.0
 20
1410.0
 30
0.0
 40
20.0
  1
CHASSIS C1: 1756-A13 (13 SLOTS)
 72
1
 11
4200.0
 21
1410.0
 31
0.0
100
AcDbText
 73
2
  0
LWPOLYLINE
  5
1E1
330
17
100
AcDbEntity
  8
RELAYS
100
AcDbPolyline
 90
4
 70
1
 10
3955.0
 20
1165.0
 10
3982.625
 20
1165.0
 10
3982.625
 20
1270.0
 10
3955.0
 20
1270.0
  0
LWPOLYLINE
  5
1E2
330
17
100
AcDbEntity
  8
RELAYS
100
AcDbPolyline
 90
4
 70
1
 10
3985.625
 20
1165.0
 10
4013.25
 20
1165.0
 10
4013.25
 20
1270.0
 10
3985.625
 20
1270.0
  0
LWPOLYLINE
  5
1E3
330
17
100
AcDbEntity
  8
RELAYS
100
AcDbPolyline
 90
4
 70
1
 10
4016.25
 20
1165.0
 10
4043.875
 20
1165.0
 10
4043.875
 20
1270.0
 10
4016.25
 20
1270.0
  0
LWPOLYLINE
  5
1E4
330
17
100
AcDbEntity
  8
RELAYS
100
AcDbPolyline
 90
4
 70
1
 10
4046.875
 20
1165.0
 10
4074.5
 20
1165.0
 10
4074.5
 20
1270.0
 10
4046.875
 20
1270.0
  0
LWPOLYLINE
  5
1E5
330
17
100
AcDbEntity
  8
RELAYS
100
AcDbPolyline
 90
4
 70
1
 10
4077.5
 20
1165.0
 10
4105.125
 20
1165.0
 10
4105.125
 20
1270.0
 10
4077.5
 20
1270.0
  0
LWPOLYLINE
  5
1E6
330
17
100
AcDbEntity
  8
RELAYS
100
AcDbPolyline
 90
4
 70
1
 10
4108.125
 20
1165.0
 10
4135.75
 20
1165.0
 10
4135.75
 20
1270.0
 10
4108.125
 20
1270.0
  0
LWPOLYLINE
  5
1E7
330
17
100
AcDbEntity
  8
RELAYS
100
AcDbPolyline
 90
4
 70
1
 10
4138.75
 20
1165.0
 10
4166.375
 20
1165.0
 10
4166.375
 20
1270.0
 10
4138.75
 20
1270.0
  0
LWPOLYLINE
  5
1E8
330
17
100
AcDbEntity
  8
RELAYS
100
AcDbPolyline
 90
4
 70
1
 10
4169.375
 20
1165.0
 10
4197.0
 20
1165.0
 10
4197.0
 20
1270.0
 10
4169.375
 20
1270.0
  0
LWPOLYLINE
  5
1E9
330
17
100
AcDbEntity
  8
RELAYS
100
AcDbPolyline
 90
4
 70
1
 10
4200.0
 20
1165.0
 10
4227.625
 20
1165.0
 10
4227.625
 20
1270.0
 10
4200.0
 20
1270.0
  0
LWPOLYLINE
  5
1EA
330
17
100
AcDbEntity
  8
RELAYS
100
AcDbPolyline
 90
4
 70
1
 10
4230.625
 20
1165.0
 10
4258.25
 20
1165.0
 10
4258.25
 20
1270.0
 10
4230.625
 20
1270.0
  0
LWPOLYLINE
  5
1EB
330
17
100
AcDbEntity
  8
RELAYS
100
AcDbPolyline
 90
4
 70
1
 10
4261.25
 20
1165.0
 10
4288.875
 20
1165.0
 10
4288.875
 20
1270.0
 10
4261.25
 20
1270.0
  0
LWPOLYLINE
  5
1EC
330
17
100
AcDbEntity
  8
RELAYS
100
AcDbPolyline
 90
4
 70
1
 10
4291.875
 20
1165.0
 10
4319.5
 20
1165.0
 10
4319.5
 20
1270.0
 10
4291.875
 20
1270.0
  0
LWPOLYLINE
  5
1ED
330
17
100
AcDbEntity
  8
RELAYS
100
AcDbPolyline
 90
4
 70
1
 10
4322.5
 20
1165.0
 10
4350.125
 20
1165.0
 10
4350.125
 20
1270.0
 10
4322.5
 20
1270.0
  0
LWPOLYLINE
  5
1EE
330
17
100
AcDbEntity
  8
RELAYS
100
AcDbPolyline
 90
4
 70
1
 10
4353.125
 20
1165.0
 10
4380.75
 20
1165.0
 10
4380.75
 20
1270.0
 10
4353.125
 20
1270.0
  0
LWPOLYLINE
  5
1EF
330
17
100
AcDbEntity
  8
RELAYS
100
AcDbPolyline
 90
4
 70
1
 10
4383.75
 20
1165.0
 10
4411.375
 20
1165.0
 10
4411.375
 20
1270.0
 10
4383.75
 20
1270.0
  0
LWPOLYLINE
  5
1F0
330
17
100
AcDbEntity
  8
RELAYS
100
AcDbPolyline
 90
4
 70
1
 10
4414.375
 20
1165.0
 10
4442.0
 20
1165.0
 10
4442.0
 20
1270.0
 10
4414.375
 20
1270.0
  0
TEXT
  5
1F1
330
17
100
AcDbEntity
  8
TEXT_LABELS
100
AcDbText
 10
4200.0
 20
1285.0
 30
0.0
 40
18.0
  1
24VDC INTERPOSING RELAY BANK (FINDER 39)
 72
1
 11
4200.0
 21
1285.0
 31
0.0
100
AcDbText
 73
2
  0
LWPOLYLINE
  5
1F2
330
17
100
AcDbEntity
  8
TERMINAL_STRIP
100
AcDbPolyline
 90
4
 70
1
 10
3955.0
 20
315.0
 10
4445.0
 20
315.0
 10
4445.0
 20
420.0
 10
3955.0
 20
420.0
  0
TEXT
  5
1F3
330
17
100
AcDbEntity
  8
TEXT_LABELS
100
AcDbText
 10
4200.0
 20
435.0
 30
0.0
 40
18.0
  1
FIELD TERMINAL STRIP (X1, X2)
 72
1
 11
4200.0
 21
435.0
 31
0.0
100
AcDbText
 73
2
  0
TEXT
  5
1F4
330
17
100
AcDbEntity
  8
TEXT_HEADER
100
AcDbText
 10
4200.0
 20
60.0
 30
0.0
 40
22.0
  1
PANEL M1 (CHASSIS C1)
 72
1
 11
4200.0
 21
60.0
 31
0.0
100
AcDbText
 73
2
  0
TEXT
  5
1F5
330
17
100
AcDbEntity
  8
TEXT_LABELS
100
AcDbText
 10
4200.0
 20
30.0
 30
0.0
 40
18.0
  1
SERVES: JB-401, JB-601, CA1
 72
1
 11
4200.0
 21
30.0
 31
0.0
100
AcDbText
 73
2
  0
LWPOLYLINE
  5
1F6
330
17
100
AcDbEntity
  8
ENCL_OUTLINE
100
AcDbPolyline
 90
4
 70
1
 10
4600.0
 20
100.0
 10
5400.0
 20
100.0
 10
5400.0
 20
2100.0
 10
4600.0
 20
2100.0
  0
LWPOLYLINE
  5
1F7
330
17
100
AcDbEntity
  8
SUBPANEL_PLATE
100
AcDbPolyline
 90
4
 70
1
 10
4650.0
 20
150.0
 10
5350.0
 20
150.0
 10
5350.0
 20
2050.0
 10
4650.0
 20
2050.0
  0
LWPOLYLINE
  5
1F8
330
17
100
AcDbEntity
  8
WIRE_DUCT
100
AcDbPolyline
 90
4
 70
1
 10
4665.0
 20
210.0
 10
4745.0
 20
210.0
 10
4745.0
 20
1990.0
 10
4665.0
 20
1990.0
  0
LWPOLYLINE
  5
1F9
330
17
100
AcDbEntity
  8
WIRE_DUCT
100
AcDbPolyline
 90
4
 70
1
 10
5255.0
 20
210.0
 10
5335.0
 20
210.0
 10
5335.0
 20
1990.0
 10
5255.0
 20
1990.0
  0
LWPOLYLINE
  5
1FA
330
17
100
AcDbEntity
  8
WIRE_DUCT
100
AcDbPolyline
 90
4
 70
1
 10
4745.0
 20
1900.0
 10
5255.0
 20
1900.0
 10
5255.0
 20
1980.0
 10
4745.0
 20
1980.0
  0
LWPOLYLINE
  5
1FB
330
17
100
AcDbEntity
  8
WIRE_DUCT
100
AcDbPolyline
 90
4
 70
1
 10
4745.0
 20
1450.0
 10
5255.0
 20
1450.0
 10
5255.0
 20
1530.0
 10
4745.0
 20
1530.0
  0
LWPOLYLINE
  5
1FC
330
17
100
AcDbEntity
  8
WIRE_DUCT
100
AcDbPolyline
 90
4
 70
1
 10
4745.0
 20
950.0
 10
5255.0
 20
950.0
 10
5255.0
 20
1030.0
 10
4745.0
 20
1030.0
  0
LWPOLYLINE
  5
1FD
330
17
100
AcDbEntity
  8
WIRE_DUCT
100
AcDbPolyline
 90
4
 70
1
 10
4745.0
 20
550.0
 10
5255.0
 20
550.0
 10
5255.0
 20
630.0
 10
4745.0
 20
630.0
  0
LWPOLYLINE
  5
1FE
330
17
100
AcDbEntity
  8
DIN_RAIL
100
AcDbPolyline
 90
4
 70
1
 10
4755.0
 20
1700.0
 10
5245.0
 20
1700.0
 10
5245.0
 20
1735.0
 10
4755.0
 20
1735.0
  0
LWPOLYLINE
  5
1FF
330
17
100
AcDbEntity
  8
DIN_RAIL
100
AcDbPolyline
 90
4
 70
1
 10
4755.0
 20
1200.0
 10
5245.0
 20
1200.0
 10
5245.0
 20
1235.0
 10
4755.0
 20
1235.0
  0
LWPOLYLINE
  5
200
330
17
100
AcDbEntity
  8
DIN_RAIL
100
AcDbPolyline
 90
4
 70
1
 10
4755.0
 20
350.0
 10
5245.0
 20
350.0
 10
5245.0
 20
385.0
 10
4755.0
 20
385.0
  0
LWPOLYLINE
  5
201
330
17
100
AcDbEntity
  8
EARTH_BAR
100
AcDbPolyline
 90
4
 70
1
 10
4670.0
 20
210.0
 10
5330.0
 20
210.0
 10
5330.0
 20
240.0
 10
4670.0
 20
240.0
  0
TEXT
  5
202
330
17
100
AcDbEntity
  8
TEXT_LABELS
100
AcDbText
 10
5000.0
 20
225.0
 30
0.0
 40
16.0
  1
PE / EARTH COPPER BAR 30x5mm
 72
1
 11
5000.0
 21
225.0
 31
0.0
100
AcDbText
 73
2
  0
LWPOLYLINE
  5
203
330
17
100
AcDbEntity
  8
POWER_SUPPLY
100
AcDbPolyline
 90
4
 70
1
 10
4765.0
 20
1675.0
 10
4945.0
 20
1675.0
 10
4945.0
 20
1760.0
 10
4765.0
 20
1760.0
  0
TEXT
  5
204
330
17
100
AcDbEntity
  8
TEXT_LABELS
100
AcDbText
 10
4855.0
 20
1717.0
 30
0.0
 40
18.0
  1
DC FUSE / CB UNIT
 72
1
 11
4855.0
 21
1717.0
 31
0.0
100
AcDbText
 73
2
  0
LWPOLYLINE
  5
205
330
17
100
AcDbEntity
  8
COMM_SWITCH
100
AcDbPolyline
 90
4
 70
1
 10
4975.0
 20
1665.0
 10
5095.0
 20
1665.0
 10
5095.0
 20
1770.0
 10
4975.0
 20
1770.0
  0
TEXT
  5
206
330
17
100
AcDbEntity
  8
TEXT_LABELS
100
AcDbText
 10
5035.0
 20
1717.0
 30
0.0
 40
18.0
  1
1756-EN2TR
 72
1
 11
5035.0
 21
1717.0
 31
0.0
100
AcDbText
 73
2
  0
LWPOLYLINE
  5
207
330
17
100
AcDbEntity
  8
PLC_CHASSIS
100
AcDbPolyline
 90
4
 70
1
 10
4755.0
 20
1070.0
 10
5245.0
 20
1070.0
 10
5245.0
 20
1390.0
 10
4755.0
 20
1390.0
  0
LWPOLYLINE
  5
208
330
17
100
AcDbEntity
  8
POWER_SUPPLY
100
AcDbPolyline
 90
4
 70
1
 10
4765.0
 20
1085.0
 10
4840.0
 20
1085.0
 10
4840.0
 20
1375.0
 10
4765.0
 20
1375.0
  0
TEXT
  5
209
330
17
100
AcDbEntity
  8
TEXT_LABELS
100
AcDbText
 10
4802.5
 20
1230.0
 30
0.0
 40
18.0
  1
PA72
 72
1
 11
4802.5
 21
1230.0
 31
0.0
100
AcDbText
 73
2
  0
LWPOLYLINE
  5
20A
330
17
100
AcDbEntity
  8
PLC_SLOT_DI
100
AcDbPolyline
 90
4
 70
1
 10
4845.0
 20
1085.0
 10
4873.0
 20
1085.0
 10
4873.0
 20
1375.0
 10
4845.0
 20
1375.0
  0
TEXT
  5
20B
330
17
100
AcDbEntity
  8
TEXT_LABELS
100
AcDbText
 10
4859.0
 20
1230.0
 30
0.0
 40
14.0
  1
DI
 72
1
 11
4859.0
 21
1230.0
 31
0.0
100
AcDbText
 73
2
  0
LWPOLYLINE
  5
20C
330
17
100
AcDbEntity
  8
PLC_SLOT_DI
100
AcDbPolyline
 90
4
 70
1
 10
4875.0
 20
1085.0
 10
4903.0
 20
1085.0
 10
4903.0
 20
1375.0
 10
4875.0
 20
1375.0
  0
TEXT
  5
20D
330
17
100
AcDbEntity
  8
TEXT_LABELS
100
AcDbText
 10
4889.0
 20
1230.0
 30
0.0
 40
14.0
  1
DI
 72
1
 11
4889.0
 21
1230.0
 31
0.0
100
AcDbText
 73
2
  0
LWPOLYLINE
  5
20E
330
17
100
AcDbEntity
  8
PLC_SLOT_DI
100
AcDbPolyline
 90
4
 70
1
 10
4905.0
 20
1085.0
 10
4933.0
 20
1085.0
 10
4933.0
 20
1375.0
 10
4905.0
 20
1375.0
  0
TEXT
  5
20F
330
17
100
AcDbEntity
  8
TEXT_LABELS
100
AcDbText
 10
4919.0
 20
1230.0
 30
0.0
 40
14.0
  1
DI
 72
1
 11
4919.0
 21
1230.0
 31
0.0
100
AcDbText
 73
2
  0
LWPOLYLINE
  5
210
330
17
100
AcDbEntity
  8
PLC_SLOT_DI
100
AcDbPolyline
 90
4
 70
1
 10
4935.0
 20
1085.0
 10
4963.0
 20
1085.0
 10
4963.0
 20
1375.0
 10
4935.0
 20
1375.0
  0
TEXT
  5
211
330
17
100
AcDbEntity
  8
TEXT_LABELS
100
AcDbText
 10
4949.0
 20
1230.0
 30
0.0
 40
14.0
  1
DI
 72
1
 11
4949.0
 21
1230.0
 31
0.0
100
AcDbText
 73
2
  0
LWPOLYLINE
  5
212
330
17
100
AcDbEntity
  8
PLC_SLOT_DI
100
AcDbPolyline
 90
4
 70
1
 10
4965.0
 20
1085.0
 10
4993.0
 20
1085.0
 10
4993.0
 20
1375.0
 10
4965.0
 20
1375.0
  0
TEXT
  5
213
330
17
100
AcDbEntity
  8
TEXT_LABELS
100
AcDbText
 10
4979.0
 20
1230.0
 30
0.0
 40
14.0
  1
DI
 72
1
 11
4979.0
 21
1230.0
 31
0.0
100
AcDbText
 73
2
  0
LWPOLYLINE
  5
214
330
17
100
AcDbEntity
  8
PLC_SLOT_DO
100
AcDbPolyline
 90
4
 70
1
 10
4995.0
 20
1085.0
 10
5023.0
 20
1085.0
 10
5023.0
 20
1375.0
 10
4995.0
 20
1375.0
  0
TEXT
  5
215
330
17
100
AcDbEntity
  8
TEXT_LABELS
100
AcDbText
 10
5009.0
 20
1230.0
 30
0.0
 40
14.0
  1
DO
 72
1
 11
5009.0
 21
1230.0
 31
0.0
100
AcDbText
 73
2
  0
LWPOLYLINE
  5
216
330
17
100
AcDbEntity
  8
PLC_SLOT_DO
100
AcDbPolyline
 90
4
 70
1
 10
5025.0
 20
1085.0
 10
5053.0
 20
1085.0
 10
5053.0
 20
1375.0
 10
5025.0
 20
1375.0
  0
TEXT
  5
217
330
17
100
AcDbEntity
  8
TEXT_LABELS
100
AcDbText
 10
5039.0
 20
1230.0
 30
0.0
 40
14.0
  1
DO
 72
1
 11
5039.0
 21
1230.0
 31
0.0
100
AcDbText
 73
2
  0
LWPOLYLINE
  5
218
330
17
100
AcDbEntity
  8
PLC_SLOT_DO
100
AcDbPolyline
 90
4
 70
1
 10
5055.0
 20
1085.0
 10
5083.0
 20
1085.0
 10
5083.0
 20
1375.0
 10
5055.0
 20
1375.0
  0
TEXT
  5
219
330
17
100
AcDbEntity
  8
TEXT_LABELS
100
AcDbText
 10
5069.0
 20
1230.0
 30
0.0
 40
14.0
  1
DO
 72
1
 11
5069.0
 21
1230.0
 31
0.0
100
AcDbText
 73
2
  0
LWPOLYLINE
  5
21A
330
17
100
AcDbEntity
  8
PLC_SLOT_AI
100
AcDbPolyline
 90
4
 70
1
 10
5085.0
 20
1085.0
 10
5113.0
 20
1085.0
 10
5113.0
 20
1375.0
 10
5085.0
 20
1375.0
  0
TEXT
  5
21B
330
17
100
AcDbEntity
  8
TEXT_LABELS
100
AcDbText
 10
5099.0
 20
1230.0
 30
0.0
 40
14.0
  1
AI
 72
1
 11
5099.0
 21
1230.0
 31
0.0
100
AcDbText
 73
2
  0
LWPOLYLINE
  5
21C
330
17
100
AcDbEntity
  8
PLC_SLOT_AI
100
AcDbPolyline
 90
4
 70
1
 10
5115.0
 20
1085.0
 10
5143.0
 20
1085.0
 10
5143.0
 20
1375.0
 10
5115.0
 20
1375.0
  0
TEXT
  5
21D
330
17
100
AcDbEntity
  8
TEXT_LABELS
100
AcDbText
 10
5129.0
 20
1230.0
 30
0.0
 40
14.0
  1
AI
 72
1
 11
5129.0
 21
1230.0
 31
0.0
100
AcDbText
 73
2
  0
LWPOLYLINE
  5
21E
330
17
100
AcDbEntity
  8
PLC_SLOT_AI
100
AcDbPolyline
 90
4
 70
1
 10
5145.0
 20
1085.0
 10
5173.0
 20
1085.0
 10
5173.0
 20
1375.0
 10
5145.0
 20
1375.0
  0
TEXT
  5
21F
330
17
100
AcDbEntity
  8
TEXT_LABELS
100
AcDbText
 10
5159.0
 20
1230.0
 30
0.0
 40
14.0
  1
AI
 72
1
 11
5159.0
 21
1230.0
 31
0.0
100
AcDbText
 73
2
  0
LWPOLYLINE
  5
220
330
17
100
AcDbEntity
  8
PLC_SLOT_AI
100
AcDbPolyline
 90
4
 70
1
 10
5175.0
 20
1085.0
 10
5203.0
 20
1085.0
 10
5203.0
 20
1375.0
 10
5175.0
 20
1375.0
  0
TEXT
  5
221
330
17
100
AcDbEntity
  8
TEXT_LABELS
100
AcDbText
 10
5189.0
 20
1230.0
 30
0.0
 40
14.0
  1
AI
 72
1
 11
5189.0
 21
1230.0
 31
0.0
100
AcDbText
 73
2
  0
LWPOLYLINE
  5
222
330
17
100
AcDbEntity
  8
PLC_SLOT_AI
100
AcDbPolyline
 90
4
 70
1
 10
5205.0
 20
1085.0
 10
5233.0
 20
1085.0
 10
5233.0
 20
1375.0
 10
5205.0
 20
1375.0
  0
TEXT
  5
223
330
17
100
AcDbEntity
  8
TEXT_LABELS
100
AcDbText
 10
5219.0
 20
1230.0
 30
0.0
 40
14.0
  1
AI
 72
1
 11
5219.0
 21
1230.0
 31
0.0
100
AcDbText
 73
2
  0
TEXT
  5
224
330
17
100
AcDbEntity
  8
TEXT_HEADER
100
AcDbText
 10
5000.0
 20
1410.0
 30
0.0
 40
20.0
  1
CHASSIS C2: 1756-A13 (13 SLOTS)
 72
1
 11
5000.0
 21
1410.0
 31
0.0
100
AcDbText
 73
2
  0
LWPOLYLINE
  5
225
330
17
100
AcDbEntity
  8
RELAYS
100
AcDbPolyline
 90
4
 70
1
 10
4755.0
 20
1165.0
 10
4782.625
 20
1165.0
 10
4782.625
 20
1270.0
 10
4755.0
 20
1270.0
  0
LWPOLYLINE
  5
226
330
17
100
AcDbEntity
  8
RELAYS
100
AcDbPolyline
 90
4
 70
1
 10
4785.625
 20
1165.0
 10
4813.25
 20
1165.0
 10
4813.25
 20
1270.0
 10
4785.625
 20
1270.0
  0
LWPOLYLINE
  5
227
330
17
100
AcDbEntity
  8
RELAYS
100
AcDbPolyline
 90
4
 70
1
 10
4816.25
 20
1165.0
 10
4843.875
 20
1165.0
 10
4843.875
 20
1270.0
 10
4816.25
 20
1270.0
  0
LWPOLYLINE
  5
228
330
17
100
AcDbEntity
  8
RELAYS
100
AcDbPolyline
 90
4
 70
1
 10
4846.875
 20
1165.0
 10
4874.5
 20
1165.0
 10
4874.5
 20
1270.0
 10
4846.875
 20
1270.0
  0
LWPOLYLINE
  5
229
330
17
100
AcDbEntity
  8
RELAYS
100
AcDbPolyline
 90
4
 70
1
 10
4877.5
 20
1165.0
 10
4905.125
 20
1165.0
 10
4905.125
 20
1270.0
 10
4877.5
 20
1270.0
  0
LWPOLYLINE
  5
22A
330
17
100
AcDbEntity
  8
RELAYS
100
AcDbPolyline
 90
4
 70
1
 10
4908.125
 20
1165.0
 10
4935.75
 20
1165.0
 10
4935.75
 20
1270.0
 10
4908.125
 20
1270.0
  0
LWPOLYLINE
  5
22B
330
17
100
AcDbEntity
  8
RELAYS
100
AcDbPolyline
 90
4
 70
1
 10
4938.75
 20
1165.0
 10
4966.375
 20
1165.0
 10
4966.375
 20
1270.0
 10
4938.75
 20
1270.0
  0
LWPOLYLINE
  5
22C
330
17
100
AcDbEntity
  8
RELAYS
100
AcDbPolyline
 90
4
 70
1
 10
4969.375
 20
1165.0
 10
4997.0
 20
1165.0
 10
4997.0
 20
1270.0
 10
4969.375
 20
1270.0
  0
LWPOLYLINE
  5
22D
330
17
100
AcDbEntity
  8
RELAYS
100
AcDbPolyline
 90
4
 70
1
 10
5000.0
 20
1165.0
 10
5027.625
 20
1165.0
 10
5027.625
 20
1270.0
 10
5000.0
 20
1270.0
  0
LWPOLYLINE
  5
22E
330
17
100
AcDbEntity
  8
RELAYS
100
AcDbPolyline
 90
4
 70
1
 10
5030.625
 20
1165.0
 10
5058.25
 20
1165.0
 10
5058.25
 20
1270.0
 10
5030.625
 20
1270.0
  0
LWPOLYLINE
  5
22F
330
17
100
AcDbEntity
  8
RELAYS
100
AcDbPolyline
 90
4
 70
1
 10
5061.25
 20
1165.0
 10
5088.875
 20
1165.0
 10
5088.875
 20
1270.0
 10
5061.25
 20
1270.0
  0
LWPOLYLINE
  5
230
330
17
100
AcDbEntity
  8
RELAYS
100
AcDbPolyline
 90
4
 70
1
 10
5091.875
 20
1165.0
 10
5119.5
 20
1165.0
 10
5119.5
 20
1270.0
 10
5091.875
 20
1270.0
  0
LWPOLYLINE
  5
231
330
17
100
AcDbEntity
  8
RELAYS
100
AcDbPolyline
 90
4
 70
1
 10
5122.5
 20
1165.0
 10
5150.125
 20
1165.0
 10
5150.125
 20
1270.0
 10
5122.5
 20
1270.0
  0
LWPOLYLINE
  5
232
330
17
100
AcDbEntity
  8
RELAYS
100
AcDbPolyline
 90
4
 70
1
 10
5153.125
 20
1165.0
 10
5180.75
 20
1165.0
 10
5180.75
 20
1270.0
 10
5153.125
 20
1270.0
  0
LWPOLYLINE
  5
233
330
17
100
AcDbEntity
  8
RELAYS
100
AcDbPolyline
 90
4
 70
1
 10
5183.75
 20
1165.0
 10
5211.375
 20
1165.0
 10
5211.375
 20
1270.0
 10
5183.75
 20
1270.0
  0
LWPOLYLINE
  5
234
330
17
100
AcDbEntity
  8
RELAYS
100
AcDbPolyline
 90
4
 70
1
 10
5214.375
 20
1165.0
 10
5242.0
 20
1165.0
 10
5242.0
 20
1270.0
 10
5214.375
 20
1270.0
  0
TEXT
  5
235
330
17
100
AcDbEntity
  8
TEXT_LABELS
100
AcDbText
 10
5000.0
 20
1285.0
 30
0.0
 40
18.0
  1
24VDC INTERPOSING RELAY BANK (FINDER 39)
 72
1
 11
5000.0
 21
1285.0
 31
0.0
100
AcDbText
 73
2
  0
LWPOLYLINE
  5
236
330
17
100
AcDbEntity
  8
TERMINAL_STRIP
100
AcDbPolyline
 90
4
 70
1
 10
4755.0
 20
315.0
 10
5245.0
 20
315.0
 10
5245.0
 20
420.0
 10
4755.0
 20
420.0
  0
TEXT
  5
237
330
17
100
AcDbEntity
  8
TEXT_LABELS
100
AcDbText
 10
5000.0
 20
435.0
 30
0.0
 40
18.0
  1
FIELD TERMINAL STRIP (X1, X2)
 72
1
 11
5000.0
 21
435.0
 31
0.0
100
AcDbText
 73
2
  0
TEXT
  5
238
330
17
100
AcDbEntity
  8
TEXT_HEADER
100
AcDbText
 10
5000.0
 20
60.0
 30
0.0
 40
22.0
  1
PANEL M2 (CHASSIS C2)
 72
1
 11
5000.0
 21
60.0
 31
0.0
100
AcDbText
 73
2
  0
TEXT
  5
239
330
17
100
AcDbEntity
  8
TEXT_LABELS
100
AcDbText
 10
5000.0
 20
30.0
 30
0.0
 40
18.0
  1
SERVES: JB-602, JB-402, JB-607
 72
1
 11
5000.0
 21
30.0
 31
0.0
100
AcDbText
 73
2
  0
LWPOLYLINE
  5
23A
330
17
100
AcDbEntity
  8
ENCL_OUTLINE
100
AcDbPolyline
 90
4
 70
1
 10
5400.0
 20
100.0
 10
6200.0
 20
100.0
 10
6200.0
 20
2100.0
 10
5400.0
 20
2100.0
  0
LWPOLYLINE
  5
23B
330
17
100
AcDbEntity
  8
SUBPANEL_PLATE
100
AcDbPolyline
 90
4
 70
1
 10
5450.0
 20
150.0
 10
6150.0
 20
150.0
 10
6150.0
 20
2050.0
 10
5450.0
 20
2050.0
  0
LWPOLYLINE
  5
23C
330
17
100
AcDbEntity
  8
WIRE_DUCT
100
AcDbPolyline
 90
4
 70
1
 10
5465.0
 20
210.0
 10
5545.0
 20
210.0
 10
5545.0
 20
1990.0
 10
5465.0
 20
1990.0
  0
LWPOLYLINE
  5
23D
330
17
100
AcDbEntity
  8
WIRE_DUCT
100
AcDbPolyline
 90
4
 70
1
 10
6055.0
 20
210.0
 10
6135.0
 20
210.0
 10
6135.0
 20
1990.0
 10
6055.0
 20
1990.0
  0
LWPOLYLINE
  5
23E
330
17
100
AcDbEntity
  8
WIRE_DUCT
100
AcDbPolyline
 90
4
 70
1
 10
5545.0
 20
1900.0
 10
6055.0
 20
1900.0
 10
6055.0
 20
1980.0
 10
5545.0
 20
1980.0
  0
LWPOLYLINE
  5
23F
330
17
100
AcDbEntity
  8
WIRE_DUCT
100
AcDbPolyline
 90
4
 70
1
 10
5545.0
 20
1450.0
 10
6055.0
 20
1450.0
 10
6055.0
 20
1530.0
 10
5545.0
 20
1530.0
  0
LWPOLYLINE
  5
240
330
17
100
AcDbEntity
  8
WIRE_DUCT
100
AcDbPolyline
 90
4
 70
1
 10
5545.0
 20
950.0
 10
6055.0
 20
950.0
 10
6055.0
 20
1030.0
 10
5545.0
 20
1030.0
  0
LWPOLYLINE
  5
241
330
17
100
AcDbEntity
  8
WIRE_DUCT
100
AcDbPolyline
 90
4
 70
1
 10
5545.0
 20
550.0
 10
6055.0
 20
550.0
 10
6055.0
 20
630.0
 10
5545.0
 20
630.0
  0
LWPOLYLINE
  5
242
330
17
100
AcDbEntity
  8
DIN_RAIL
100
AcDbPolyline
 90
4
 70
1
 10
5555.0
 20
1700.0
 10
6045.0
 20
1700.0
 10
6045.0
 20
1735.0
 10
5555.0
 20
1735.0
  0
LWPOLYLINE
  5
243
330
17
100
AcDbEntity
  8
DIN_RAIL
100
AcDbPolyline
 90
4
 70
1
 10
5555.0
 20
1200.0
 10
6045.0
 20
1200.0
 10
6045.0
 20
1235.0
 10
5555.0
 20
1235.0
  0
LWPOLYLINE
  5
244
330
17
100
AcDbEntity
  8
DIN_RAIL
100
AcDbPolyline
 90
4
 70
1
 10
5555.0
 20
350.0
 10
6045.0
 20
350.0
 10
6045.0
 20
385.0
 10
5555.0
 20
385.0
  0
LWPOLYLINE
  5
245
330
17
100
AcDbEntity
  8
EARTH_BAR
100
AcDbPolyline
 90
4
 70
1
 10
5470.0
 20
210.0
 10
6130.0
 20
210.0
 10
6130.0
 20
240.0
 10
5470.0
 20
240.0
  0
TEXT
  5
246
330
17
100
AcDbEntity
  8
TEXT_LABELS
100
AcDbText
 10
5800.0
 20
225.0
 30
0.0
 40
16.0
  1
PE / EARTH COPPER BAR 30x5mm
 72
1
 11
5800.0
 21
225.0
 31
0.0
100
AcDbText
 73
2
  0
LWPOLYLINE
  5
247
330
17
100
AcDbEntity
  8
POWER_SUPPLY
100
AcDbPolyline
 90
4
 70
1
 10
5565.0
 20
1675.0
 10
5745.0
 20
1675.0
 10
5745.0
 20
1760.0
 10
5565.0
 20
1760.0
  0
TEXT
  5
248
330
17
100
AcDbEntity
  8
TEXT_LABELS
100
AcDbText
 10
5655.0
 20
1717.0
 30
0.0
 40
18.0
  1
DC FUSE / CB UNIT
 72
1
 11
5655.0
 21
1717.0
 31
0.0
100
AcDbText
 73
2
  0
LWPOLYLINE
  5
249
330
17
100
AcDbEntity
  8
COMM_SWITCH
100
AcDbPolyline
 90
4
 70
1
 10
5775.0
 20
1665.0
 10
5895.0
 20
1665.0
 10
5895.0
 20
1770.0
 10
5775.0
 20
1770.0
  0
TEXT
  5
24A
330
17
100
AcDbEntity
  8
TEXT_LABELS
100
AcDbText
 10
5835.0
 20
1717.0
 30
0.0
 40
18.0
  1
1756-EN2TR
 72
1
 11
5835.0
 21
1717.0
 31
0.0
100
AcDbText
 73
2
  0
LWPOLYLINE
  5
24B
330
17
100
AcDbEntity
  8
PLC_CHASSIS
100
AcDbPolyline
 90
4
 70
1
 10
5555.0
 20
1070.0
 10
6045.0
 20
1070.0
 10
6045.0
 20
1390.0
 10
5555.0
 20
1390.0
  0
LWPOLYLINE
  5
24C
330
17
100
AcDbEntity
  8
POWER_SUPPLY
100
AcDbPolyline
 90
4
 70
1
 10
5565.0
 20
1085.0
 10
5640.0
 20
1085.0
 10
5640.0
 20
1375.0
 10
5565.0
 20
1375.0
  0
TEXT
  5
24D
330
17
100
AcDbEntity
  8
TEXT_LABELS
100
AcDbText
 10
5602.5
 20
1230.0
 30
0.0
 40
18.0
  1
PA72
 72
1
 11
5602.5
 21
1230.0
 31
0.0
100
AcDbText
 73
2
  0
LWPOLYLINE
  5
24E
330
17
100
AcDbEntity
  8
PLC_SLOT_DI
100
AcDbPolyline
 90
4
 70
1
 10
5645.0
 20
1085.0
 10
5673.0
 20
1085.0
 10
5673.0
 20
1375.0
 10
5645.0
 20
1375.0
  0
TEXT
  5
24F
330
17
100
AcDbEntity
  8
TEXT_LABELS
100
AcDbText
 10
5659.0
 20
1230.0
 30
0.0
 40
14.0
  1
DI
 72
1
 11
5659.0
 21
1230.0
 31
0.0
100
AcDbText
 73
2
  0
LWPOLYLINE
  5
250
330
17
100
AcDbEntity
  8
PLC_SLOT_DI
100
AcDbPolyline
 90
4
 70
1
 10
5675.0
 20
1085.0
 10
5703.0
 20
1085.0
 10
5703.0
 20
1375.0
 10
5675.0
 20
1375.0
  0
TEXT
  5
251
330
17
100
AcDbEntity
  8
TEXT_LABELS
100
AcDbText
 10
5689.0
 20
1230.0
 30
0.0
 40
14.0
  1
DI
 72
1
 11
5689.0
 21
1230.0
 31
0.0
100
AcDbText
 73
2
  0
LWPOLYLINE
  5
252
330
17
100
AcDbEntity
  8
PLC_SLOT_DO
100
AcDbPolyline
 90
4
 70
1
 10
5705.0
 20
1085.0
 10
5733.0
 20
1085.0
 10
5733.0
 20
1375.0
 10
5705.0
 20
1375.0
  0
TEXT
  5
253
330
17
100
AcDbEntity
  8
TEXT_LABELS
100
AcDbText
 10
5719.0
 20
1230.0
 30
0.0
 40
14.0
  1
DO
 72
1
 11
5719.0
 21
1230.0
 31
0.0
100
AcDbText
 73
2
  0
LWPOLYLINE
  5
254
330
17
100
AcDbEntity
  8
PLC_SLOT_AI
100
AcDbPolyline
 90
4
 70
1
 10
5735.0
 20
1085.0
 10
5763.0
 20
1085.0
 10
5763.0
 20
1375.0
 10
5735.0
 20
1375.0
  0
TEXT
  5
255
330
17
100
AcDbEntity
  8
TEXT_LABELS
100
AcDbText
 10
5749.0
 20
1230.0
 30
0.0
 40
14.0
  1
AI
 72
1
 11
5749.0
 21
1230.0
 31
0.0
100
AcDbText
 73
2
  0
LWPOLYLINE
  5
256
330
17
100
AcDbEntity
  8
PLC_SLOT_AI
100
AcDbPolyline
 90
4
 70
1
 10
5765.0
 20
1085.0
 10
5793.0
 20
1085.0
 10
5793.0
 20
1375.0
 10
5765.0
 20
1375.0
  0
TEXT
  5
257
330
17
100
AcDbEntity
  8
TEXT_LABELS
100
AcDbText
 10
5779.0
 20
1230.0
 30
0.0
 40
14.0
  1
AI
 72
1
 11
5779.0
 21
1230.0
 31
0.0
100
AcDbText
 73
2
  0
LWPOLYLINE
  5
258
330
17
100
AcDbEntity
  8
PLC_SLOT_SPARE
100
AcDbPolyline
 90
4
 70
1
 10
5795.0
 20
1085.0
 10
5823.0
 20
1085.0
 10
5823.0
 20
1375.0
 10
5795.0
 20
1375.0
  0
TEXT
  5
259
330
17
100
AcDbEntity
  8
TEXT_LABELS
100
AcDbText
 10
5809.0
 20
1230.0
 30
0.0
 40
14.0
  1
N2
 72
1
 11
5809.0
 21
1230.0
 31
0.0
100
AcDbText
 73
2
  0
LWPOLYLINE
  5
25A
330
17
100
AcDbEntity
  8
PLC_SLOT_SPARE
100
AcDbPolyline
 90
4
 70
1
 10
5825.0
 20
1085.0
 10
5853.0
 20
1085.0
 10
5853.0
 20
1375.0
 10
5825.0
 20
1375.0
  0
TEXT
  5
25B
330
17
100
AcDbEntity
  8
TEXT_LABELS
100
AcDbText
 10
5839.0
 20
1230.0
 30
0.0
 40
14.0
  1
N2
 72
1
 11
5839.0
 21
1230.0
 31
0.0
100
AcDbText
 73
2
  0
LWPOLYLINE
  5
25C
330
17
100
AcDbEntity
  8
PLC_SLOT_SPARE
100
AcDbPolyline
 90
4
 70
1
 10
5855.0
 20
1085.0
 10
5883.0
 20
1085.0
 10
5883.0
 20
1375.0
 10
5855.0
 20
1375.0
  0
TEXT
  5
25D
330
17
100
AcDbEntity
  8
TEXT_LABELS
100
AcDbText
 10
5869.0
 20
1230.0
 30
0.0
 40
14.0
  1
N2
 72
1
 11
5869.0
 21
1230.0
 31
0.0
100
AcDbText
 73
2
  0
LWPOLYLINE
  5
25E
330
17
100
AcDbEntity
  8
PLC_SLOT_SPARE
100
AcDbPolyline
 90
4
 70
1
 10
5885.0
 20
1085.0
 10
5913.0
 20
1085.0
 10
5913.0
 20
1375.0
 10
5885.0
 20
1375.0
  0
TEXT
  5
25F
330
17
100
AcDbEntity
  8
TEXT_LABELS
100
AcDbText
 10
5899.0
 20
1230.0
 30
0.0
 40
14.0
  1
N2
 72
1
 11
5899.0
 21
1230.0
 31
0.0
100
AcDbText
 73
2
  0
LWPOLYLINE
  5
260
330
17
100
AcDbEntity
  8
PLC_SLOT_SPARE
100
AcDbPolyline
 90
4
 70
1
 10
5915.0
 20
1085.0
 10
5943.0
 20
1085.0
 10
5943.0
 20
1375.0
 10
5915.0
 20
1375.0
  0
TEXT
  5
261
330
17
100
AcDbEntity
  8
TEXT_LABELS
100
AcDbText
 10
5929.0
 20
1230.0
 30
0.0
 40
14.0
  1
N2
 72
1
 11
5929.0
 21
1230.0
 31
0.0
100
AcDbText
 73
2
  0
LWPOLYLINE
  5
262
330
17
100
AcDbEntity
  8
PLC_SLOT_SPARE
100
AcDbPolyline
 90
4
 70
1
 10
5945.0
 20
1085.0
 10
5973.0
 20
1085.0
 10
5973.0
 20
1375.0
 10
5945.0
 20
1375.0
  0
TEXT
  5
263
330
17
100
AcDbEntity
  8
TEXT_LABELS
100
AcDbText
 10
5959.0
 20
1230.0
 30
0.0
 40
14.0
  1
N2
 72
1
 11
5959.0
 21
1230.0
 31
0.0
100
AcDbText
 73
2
  0
LWPOLYLINE
  5
264
330
17
100
AcDbEntity
  8
PLC_SLOT_SPARE
100
AcDbPolyline
 90
4
 70
1
 10
5975.0
 20
1085.0
 10
6003.0
 20
1085.0
 10
6003.0
 20
1375.0
 10
5975.0
 20
1375.0
  0
TEXT
  5
265
330
17
100
AcDbEntity
  8
TEXT_LABELS
100
AcDbText
 10
5989.0
 20
1230.0
 30
0.0
 40
14.0
  1
N2
 72
1
 11
5989.0
 21
1230.0
 31
0.0
100
AcDbText
 73
2
  0
LWPOLYLINE
  5
266
330
17
100
AcDbEntity
  8
PLC_SLOT_AO
100
AcDbPolyline
 90
4
 70
1
 10
6005.0
 20
1085.0
 10
6033.0
 20
1085.0
 10
6033.0
 20
1375.0
 10
6005.0
 20
1375.0
  0
TEXT
  5
267
330
17
100
AcDbEntity
  8
TEXT_LABELS
100
AcDbText
 10
6019.0
 20
1230.0
 30
0.0
 40
14.0
  1
AO
 72
1
 11
6019.0
 21
1230.0
 31
0.0
100
AcDbText
 73
2
  0
TEXT
  5
268
330
17
100
AcDbEntity
  8
TEXT_HEADER
100
AcDbText
 10
5800.0
 20
1410.0
 30
0.0
 40
20.0
  1
CHASSIS C3: 1756-A13 (13 SLOTS)
 72
1
 11
5800.0
 21
1410.0
 31
0.0
100
AcDbText
 73
2
  0
LWPOLYLINE
  5
269
330
17
100
AcDbEntity
  8
IS_BARRIERS
100
AcDbPolyline
 90
4
 70
1
 10
5555.0
 20
1155.0
 10
5579.222222222223
 20
1155.0
 10
5579.222222222223
 20
1280.0
 10
5555.0
 20
1280.0
  0
LWPOLYLINE
  5
26A
330
17
100
AcDbEntity
  8
IS_BARRIERS
100
AcDbPolyline
 90
4
 70
1
 10
5582.222222222223
 20
1155.0
 10
5606.444444444445
 20
1155.0
 10
5606.444444444445
 20
1280.0
 10
5582.222222222223
 20
1280.0
  0
LWPOLYLINE
  5
26B
330
17
100
AcDbEntity
  8
IS_BARRIERS
100
AcDbPolyline
 90
4
 70
1
 10
5609.444444444444
 20
1155.0
 10
5633.666666666667
 20
1155.0
 10
5633.666666666667
 20
1280.0
 10
5609.444444444444
 20
1280.0
  0
LWPOLYLINE
  5
26C
330
17
100
AcDbEntity
  8
IS_BARRIERS
100
AcDbPolyline
 90
4
 70
1
 10
5636.666666666667
 20
1155.0
 10
5660.88888888889
 20
1155.0
 10
5660.88888888889
 20
1280.0
 10
5636.666666666667
 20
1280.0
  0
LWPOLYLINE
  5
26D
330
17
100
AcDbEntity
  8
IS_BARRIERS
100
AcDbPolyline
 90
4
 70
1
 10
5663.888888888889
 20
1155.0
 10
5688.111111111111
 20
1155.0
 10
5688.111111111111
 20
1280.0
 10
5663.888888888889
 20
1280.0
  0
LWPOLYLINE
  5
26E
330
17
100
AcDbEntity
  8
IS_BARRIERS
100
AcDbPolyline
 90
4
 70
1
 10
5691.111111111111
 20
1155.0
 10
5715.333333333334
 20
1155.0
 10
5715.333333333334
 20
1280.0
 10
5691.111111111111
 20
1280.0
  0
LWPOLYLINE
  5
26F
330
17
100
AcDbEntity
  8
IS_BARRIERS
100
AcDbPolyline
 90
4
 70
1
 10
5718.333333333333
 20
1155.0
 10
5742.555555555556
 20
1155.0
 10
5742.555555555556
 20
1280.0
 10
5718.333333333333
 20
1280.0
  0
LWPOLYLINE
  5
270
330
17
100
AcDbEntity
  8
IS_BARRIERS
100
AcDbPolyline
 90
4
 70
1
 10
5745.555555555556
 20
1155.0
 10
5769.777777777778
 20
1155.0
 10
5769.777777777778
 20
1280.0
 10
5745.555555555556
 20
1280.0
  0
LWPOLYLINE
  5
271
330
17
100
AcDbEntity
  8
IS_BARRIERS
100
AcDbPolyline
 90
4
 70
1
 10
5772.777777777777
 20
1155.0
 10
5797.0
 20
1155.0
 10
5797.0
 20
1280.0
 10
5772.777777777777
 20
1280.0
  0
LWPOLYLINE
  5
272
330
17
100
AcDbEntity
  8
IS_BARRIERS
100
AcDbPolyline
 90
4
 70
1
 10
5800.0
 20
1155.0
 10
5824.222222222223
 20
1155.0
 10
5824.222222222223
 20
1280.0
 10
5800.0
 20
1280.0
  0
LWPOLYLINE
  5
273
330
17
100
AcDbEntity
  8
IS_BARRIERS
100
AcDbPolyline
 90
4
 70
1
 10
5827.222222222223
 20
1155.0
 10
5851.444444444445
 20
1155.0
 10
5851.444444444445
 20
1280.0
 10
5827.222222222223
 20
1280.0
  0
LWPOLYLINE
  5
274
330
17
100
AcDbEntity
  8
IS_BARRIERS
100
AcDbPolyline
 90
4
 70
1
 10
5854.444444444444
 20
1155.0
 10
5878.666666666667
 20
1155.0
 10
5878.666666666667
 20
1280.0
 10
5854.444444444444
 20
1280.0
  0
LWPOLYLINE
  5
275
330
17
100
AcDbEntity
  8
IS_BARRIERS
100
AcDbPolyline
 90
4
 70
1
 10
5881.666666666667
 20
1155.0
 10
5905.88888888889
 20
1155.0
 10
5905.88888888889
 20
1280.0
 10
5881.666666666667
 20
1280.0
  0
LWPOLYLINE
  5
276
330
17
100
AcDbEntity
  8
IS_BARRIERS
100
AcDbPolyline
 90
4
 70
1
 10
5908.888888888889
 20
1155.0
 10
5933.111111111111
 20
1155.0
 10
5933.111111111111
 20
1280.0
 10
5908.888888888889
 20
1280.0
  0
LWPOLYLINE
  5
277
330
17
100
AcDbEntity
  8
IS_BARRIERS
100
AcDbPolyline
 90
4
 70
1
 10
5936.111111111111
 20
1155.0
 10
5960.333333333334
 20
1155.0
 10
5960.333333333334
 20
1280.0
 10
5936.111111111111
 20
1280.0
  0
LWPOLYLINE
  5
278
330
17
100
AcDbEntity
  8
IS_BARRIERS
100
AcDbPolyline
 90
4
 70
1
 10
5963.333333333333
 20
1155.0
 10
5987.555555555556
 20
1155.0
 10
5987.555555555556
 20
1280.0
 10
5963.333333333333
 20
1280.0
  0
LWPOLYLINE
  5
279
330
17
100
AcDbEntity
  8
IS_BARRIERS
100
AcDbPolyline
 90
4
 70
1
 10
5990.555555555556
 20
1155.0
 10
6014.777777777778
 20
1155.0
 10
6014.777777777778
 20
1280.0
 10
5990.555555555556
 20
1280.0
  0
LWPOLYLINE
  5
27A
330
17
100
AcDbEntity
  8
IS_BARRIERS
100
AcDbPolyline
 90
4
 70
1
 10
6017.777777777777
 20
1155.0
 10
6042.0
 20
1155.0
 10
6042.0
 20
1280.0
 10
6017.777777777777
 20
1280.0
  0
TEXT
  5
27B
330
17
100
AcDbEntity
  8
IS_BARRIERS
100
AcDbText
 10
5800.0
 20
1295.0
 30
0.0
 40
18.0
  1
PEPPERL+FUCHS EX-i GALVANIC BARRIERS (KFD2)
 72
1
 11
5800.0
 21
1295.0
 31
0.0
100
AcDbText
 73
2
  0
LWPOLYLINE
  5
27C
330
17
100
AcDbEntity
  8
TERMINAL_STRIP
100
AcDbPolyline
 90
4
 70
1
 10
5555.0
 20
315.0
 10
5743.0
 20
315.0
 10
5743.0
 20
420.0
 10
5555.0
 20
420.0
  0
TEXT
  5
27D
330
17
100
AcDbEntity
  8
TEXT_LABELS
100
AcDbText
 10
5649.0
 20
435.0
 30
0.0
 40
16.0
  1
NON-IS TB
 72
1
 11
5649.0
 21
435.0
 31
0.0
100
AcDbText
 73
2
  0
LWPOLYLINE
  5
27E
330
17
100
AcDbEntity
  8
DIMENSIONS
100
AcDbPolyline
 90
4
 70
1
 10
5748.0
 20
305.0
 10
5758.0
 20
305.0
 10
5758.0
 20
430.0
 10
5748.0
 20
430.0
  0
LWPOLYLINE
  5
27F
330
17
100
AcDbEntity
  8
TERMINAL_IS
100
AcDbPolyline
 90
4
 70
1
 10
5763.0
 20
315.0
 10
6021.5
 20
315.0
 10
6021.5
 20
420.0
 10
5763.0
 20
420.0
  0
TEXT
  5
280
330
17
100
AcDbEntity
  8
TERMINAL_IS
100
AcDbText
 10
5892.25
 20
435.0
 30
0.0
 40
16.0
  1
BLUE IS TERMINALS (Ex-i)
 72
1
 11
5892.25
 21
435.0
 31
0.0
100
AcDbText
 73
2
  0
TEXT
  5
281
330
17
100
AcDbEntity
  8
TEXT_HEADER
100
AcDbText
 10
5800.0
 20
60.0
 30
0.0
 40
22.0
  1
PANEL M3 (CHASSIS C3 - Ex-i)
 72
1
 11
5800.0
 21
60.0
 31
0.0
100
AcDbText
 73
2
  0
TEXT
  5
282
330
17
100
AcDbEntity
  8
TEXT_LABELS
100
AcDbText
 10
5800.0
 20
30.0
 30
0.0
 40
18.0
  1
SERVES: IS-JB-603, IS-JB-618, JB-618
 72
1
 11
5800.0
 21
30.0
 31
0.0
100
AcDbText
 73
2
  0
LWPOLYLINE
  5
283
330
17
100
AcDbEntity
  8
ENCL_OUTLINE
100
AcDbPolyline
 90
4
 70
1
 10
6200.0
 20
100.0
 10
7000.0
 20
100.0
 10
7000.0
 20
2100.0
 10
6200.0
 20
2100.0
  0
LWPOLYLINE
  5
284
330
17
100
AcDbEntity
  8
SUBPANEL_PLATE
100
AcDbPolyline
 90
4
 70
1
 10
6250.0
 20
150.0
 10
6950.0
 20
150.0
 10
6950.0
 20
2050.0
 10
6250.0
 20
2050.0
  0
LWPOLYLINE
  5
285
330
17
100
AcDbEntity
  8
WIRE_DUCT
100
AcDbPolyline
 90
4
 70
1
 10
6265.0
 20
210.0
 10
6345.0
 20
210.0
 10
6345.0
 20
1990.0
 10
6265.0
 20
1990.0
  0
LWPOLYLINE
  5
286
330
17
100
AcDbEntity
  8
WIRE_DUCT
100
AcDbPolyline
 90
4
 70
1
 10
6855.0
 20
210.0
 10
6935.0
 20
210.0
 10
6935.0
 20
1990.0
 10
6855.0
 20
1990.0
  0
LWPOLYLINE
  5
287
330
17
100
AcDbEntity
  8
WIRE_DUCT
100
AcDbPolyline
 90
4
 70
1
 10
6345.0
 20
1900.0
 10
6855.0
 20
1900.0
 10
6855.0
 20
1980.0
 10
6345.0
 20
1980.0
  0
LWPOLYLINE
  5
288
330
17
100
AcDbEntity
  8
WIRE_DUCT
100
AcDbPolyline
 90
4
 70
1
 10
6345.0
 20
1450.0
 10
6855.0
 20
1450.0
 10
6855.0
 20
1530.0
 10
6345.0
 20
1530.0
  0
LWPOLYLINE
  5
289
330
17
100
AcDbEntity
  8
WIRE_DUCT
100
AcDbPolyline
 90
4
 70
1
 10
6345.0
 20
950.0
 10
6855.0
 20
950.0
 10
6855.0
 20
1030.0
 10
6345.0
 20
1030.0
  0
LWPOLYLINE
  5
28A
330
17
100
AcDbEntity
  8
WIRE_DUCT
100
AcDbPolyline
 90
4
 70
1
 10
6345.0
 20
550.0
 10
6855.0
 20
550.0
 10
6855.0
 20
630.0
 10
6345.0
 20
630.0
  0
LWPOLYLINE
  5
28B
330
17
100
AcDbEntity
  8
DIN_RAIL
100
AcDbPolyline
 90
4
 70
1
 10
6355.0
 20
1700.0
 10
6845.0
 20
1700.0
 10
6845.0
 20
1735.0
 10
6355.0
 20
1735.0
  0
LWPOLYLINE
  5
28C
330
17
100
AcDbEntity
  8
DIN_RAIL
100
AcDbPolyline
 90
4
 70
1
 10
6355.0
 20
1200.0
 10
6845.0
 20
1200.0
 10
6845.0
 20
1235.0
 10
6355.0
 20
1235.0
  0
LWPOLYLINE
  5
28D
330
17
100
AcDbEntity
  8
DIN_RAIL
100
AcDbPolyline
 90
4
 70
1
 10
6355.0
 20
350.0
 10
6845.0
 20
350.0
 10
6845.0
 20
385.0
 10
6355.0
 20
385.0
  0
LWPOLYLINE
  5
28E
330
17
100
AcDbEntity
  8
EARTH_BAR
100
AcDbPolyline
 90
4
 70
1
 10
6270.0
 20
210.0
 10
6930.0
 20
210.0
 10
6930.0
 20
240.0
 10
6270.0
 20
240.0
  0
TEXT
  5
28F
330
17
100
AcDbEntity
  8
TEXT_LABELS
100
AcDbText
 10
6600.0
 20
225.0
 30
0.0
 40
16.0
  1
PE / EARTH COPPER BAR 30x5mm
 72
1
 11
6600.0
 21
225.0
 31
0.0
100
AcDbText
 73
2
  0
LWPOLYLINE
  5
290
330
17
100
AcDbEntity
  8
POWER_SUPPLY
100
AcDbPolyline
 90
4
 70
1
 10
6365.0
 20
1675.0
 10
6545.0
 20
1675.0
 10
6545.0
 20
1760.0
 10
6365.0
 20
1760.0
  0
TEXT
  5
291
330
17
100
AcDbEntity
  8
TEXT_LABELS
100
AcDbText
 10
6455.0
 20
1717.0
 30
0.0
 40
18.0
  1
DC FUSE / CB UNIT
 72
1
 11
6455.0
 21
1717.0
 31
0.0
100
AcDbText
 73
2
  0
LWPOLYLINE
  5
292
330
17
100
AcDbEntity
  8
COMM_SWITCH
100
AcDbPolyline
 90
4
 70
1
 10
6575.0
 20
1665.0
 10
6695.0
 20
1665.0
 10
6695.0
 20
1770.0
 10
6575.0
 20
1770.0
  0
TEXT
  5
293
330
17
100
AcDbEntity
  8
TEXT_LABELS
100
AcDbText
 10
6635.0
 20
1717.0
 30
0.0
 40
18.0
  1
1756-EN2TR
 72
1
 11
6635.0
 21
1717.0
 31
0.0
100
AcDbText
 73
2
  0
LWPOLYLINE
  5
294
330
17
100
AcDbEntity
  8
PLC_CHASSIS
100
AcDbPolyline
 90
4
 70
1
 10
6355.0
 20
1070.0
 10
6845.0
 20
1070.0
 10
6845.0
 20
1390.0
 10
6355.0
 20
1390.0
  0
LWPOLYLINE
  5
295
330
17
100
AcDbEntity
  8
POWER_SUPPLY
100
AcDbPolyline
 90
4
 70
1
 10
6365.0
 20
1085.0
 10
6440.0
 20
1085.0
 10
6440.0
 20
1375.0
 10
6365.0
 20
1375.0
  0
TEXT
  5
296
330
17
100
AcDbEntity
  8
TEXT_LABELS
100
AcDbText
 10
6402.5
 20
1230.0
 30
0.0
 40
18.0
  1
PA72
 72
1
 11
6402.5
 21
1230.0
 31
0.0
100
AcDbText
 73
2
  0
LWPOLYLINE
  5
297
330
17
100
AcDbEntity
  8
PLC_SLOT_DI
100
AcDbPolyline
 90
4
 70
1
 10
6445.0
 20
1085.0
 10
6473.0
 20
1085.0
 10
6473.0
 20
1375.0
 10
6445.0
 20
1375.0
  0
TEXT
  5
298
330
17
100
AcDbEntity
  8
TEXT_LABELS
100
AcDbText
 10
6459.0
 20
1230.0
 30
0.0
 40
14.0
  1
DI
 72
1
 11
6459.0
 21
1230.0
 31
0.0
100
AcDbText
 73
2
  0
LWPOLYLINE
  5
299
330
17
100
AcDbEntity
  8
PLC_SLOT_DI
100
AcDbPolyline
 90
4
 70
1
 10
6475.0
 20
1085.0
 10
6503.0
 20
1085.0
 10
6503.0
 20
1375.0
 10
6475.0
 20
1375.0
  0
TEXT
  5
29A
330
17
100
AcDbEntity
  8
TEXT_LABELS
100
AcDbText
 10
6489.0
 20
1230.0
 30
0.0
 40
14.0
  1
DI
 72
1
 11
6489.0
 21
1230.0
 31
0.0
100
AcDbText
 73
2
  0
LWPOLYLINE
  5
29B
330
17
100
AcDbEntity
  8
PLC_SLOT_DI
100
AcDbPolyline
 90
4
 70
1
 10
6505.0
 20
1085.0
 10
6533.0
 20
1085.0
 10
6533.0
 20
1375.0
 10
6505.0
 20
1375.0
  0
TEXT
  5
29C
330
17
100
AcDbEntity
  8
TEXT_LABELS
100
AcDbText
 10
6519.0
 20
1230.0
 30
0.0
 40
14.0
  1
DI
 72
1
 11
6519.0
 21
1230.0
 31
0.0
100
AcDbText
 73
2
  0
LWPOLYLINE
  5
29D
330
17
100
AcDbEntity
  8
PLC_SLOT_DO
100
AcDbPolyline
 90
4
 70
1
 10
6535.0
 20
1085.0
 10
6563.0
 20
1085.0
 10
6563.0
 20
1375.0
 10
6535.0
 20
1375.0
  0
TEXT
  5
29E
330
17
100
AcDbEntity
  8
TEXT_LABELS
100
AcDbText
 10
6549.0
 20
1230.0
 30
0.0
 40
14.0
  1
DO
 72
1
 11
6549.0
 21
1230.0
 31
0.0
100
AcDbText
 73
2
  0
LWPOLYLINE
  5
29F
330
17
100
AcDbEntity
  8
PLC_SLOT_AI
100
AcDbPolyline
 90
4
 70
1
 10
6565.0
 20
1085.0
 10
6593.0
 20
1085.0
 10
6593.0
 20
1375.0
 10
6565.0
 20
1375.0
  0
TEXT
  5
2A0
330
17
100
AcDbEntity
  8
TEXT_LABELS
100
AcDbText
 10
6579.0
 20
1230.0
 30
0.0
 40
14.0
  1
AI
 72
1
 11
6579.0
 21
1230.0
 31
0.0
100
AcDbText
 73
2
  0
LWPOLYLINE
  5
2A1
330
17
100
AcDbEntity
  8
PLC_SLOT_AI
100
AcDbPolyline
 90
4
 70
1
 10
6595.0
 20
1085.0
 10
6623.0
 20
1085.0
 10
6623.0
 20
1375.0
 10
6595.0
 20
1375.0
  0
TEXT
  5
2A2
330
17
100
AcDbEntity
  8
TEXT_LABELS
100
AcDbText
 10
6609.0
 20
1230.0
 30
0.0
 40
14.0
  1
AI
 72
1
 11
6609.0
 21
1230.0
 31
0.0
100
AcDbText
 73
2
  0
LWPOLYLINE
  5
2A3
330
17
100
AcDbEntity
  8
PLC_SLOT_SPARE
100
AcDbPolyline
 90
4
 70
1
 10
6625.0
 20
1085.0
 10
6653.0
 20
1085.0
 10
6653.0
 20
1375.0
 10
6625.0
 20
1375.0
  0
TEXT
  5
2A4
330
17
100
AcDbEntity
  8
TEXT_LABELS
100
AcDbText
 10
6639.0
 20
1230.0
 30
0.0
 40
14.0
  1
N2
 72
1
 11
6639.0
 21
1230.0
 31
0.0
100
AcDbText
 73
2
  0
LWPOLYLINE
  5
2A5
330
17
100
AcDbEntity
  8
PLC_SLOT_SPARE
100
AcDbPolyline
 90
4
 70
1
 10
6655.0
 20
1085.0
 10
6683.0
 20
1085.0
 10
6683.0
 20
1375.0
 10
6655.0
 20
1375.0
  0
TEXT
  5
2A6
330
17
100
AcDbEntity
  8
TEXT_LABELS
100
AcDbText
 10
6669.0
 20
1230.0
 30
0.0
 40
14.0
  1
N2
 72
1
 11
6669.0
 21
1230.0
 31
0.0
100
AcDbText
 73
2
  0
LWPOLYLINE
  5
2A7
330
17
100
AcDbEntity
  8
PLC_SLOT_SPARE
100
AcDbPolyline
 90
4
 70
1
 10
6685.0
 20
1085.0
 10
6713.0
 20
1085.0
 10
6713.0
 20
1375.0
 10
6685.0
 20
1375.0
  0
TEXT
  5
2A8
330
17
100
AcDbEntity
  8
TEXT_LABELS
100
AcDbText
 10
6699.0
 20
1230.0
 30
0.0
 40
14.0
  1
N2
 72
1
 11
6699.0
 21
1230.0
 31
0.0
100
AcDbText
 73
2
  0
LWPOLYLINE
  5
2A9
330
17
100
AcDbEntity
  8
PLC_SLOT_SPARE
100
AcDbPolyline
 90
4
 70
1
 10
6715.0
 20
1085.0
 10
6743.0
 20
1085.0
 10
6743.0
 20
1375.0
 10
6715.0
 20
1375.0
  0
TEXT
  5
2AA
330
17
100
AcDbEntity
  8
TEXT_LABELS
100
AcDbText
 10
6729.0
 20
1230.0
 30
0.0
 40
14.0
  1
N2
 72
1
 11
6729.0
 21
1230.0
 31
0.0
100
AcDbText
 73
2
  0
LWPOLYLINE
  5
2AB
330
17
100
AcDbEntity
  8
PLC_SLOT_SPARE
100
AcDbPolyline
 90
4
 70
1
 10
6745.0
 20
1085.0
 10
6773.0
 20
1085.0
 10
6773.0
 20
1375.0
 10
6745.0
 20
1375.0
  0
TEXT
  5
2AC
330
17
100
AcDbEntity
  8
TEXT_LABELS
100
AcDbText
 10
6759.0
 20
1230.0
 30
0.0
 40
14.0
  1
N2
 72
1
 11
6759.0
 21
1230.0
 31
0.0
100
AcDbText
 73
2
  0
LWPOLYLINE
  5
2AD
330
17
100
AcDbEntity
  8
PLC_SLOT_SPARE
100
AcDbPolyline
 90
4
 70
1
 10
6775.0
 20
1085.0
 10
6803.0
 20
1085.0
 10
6803.0
 20
1375.0
 10
6775.0
 20
1375.0
  0
TEXT
  5
2AE
330
17
100
AcDbEntity
  8
TEXT_LABELS
100
AcDbText
 10
6789.0
 20
1230.0
 30
0.0
 40
14.0
  1
N2
 72
1
 11
6789.0
 21
1230.0
 31
0.0
100
AcDbText
 73
2
  0
LWPOLYLINE
  5
2AF
330
17
100
AcDbEntity
  8
PLC_SLOT_SPARE
100
AcDbPolyline
 90
4
 70
1
 10
6805.0
 20
1085.0
 10
6833.0
 20
1085.0
 10
6833.0
 20
1375.0
 10
6805.0
 20
1375.0
  0
TEXT
  5
2B0
330
17
100
AcDbEntity
  8
TEXT_LABELS
100
AcDbText
 10
6819.0
 20
1230.0
 30
0.0
 40
14.0
  1
N2
 72
1
 11
6819.0
 21
1230.0
 31
0.0
100
AcDbText
 73
2
  0
TEXT
  5
2B1
330
17
100
AcDbEntity
  8
TEXT_HEADER
100
AcDbText
 10
6600.0
 20
1410.0
 30
0.0
 40
20.0
  1
CHASSIS C4: 1756-A13 (13 SLOTS)
 72
1
 11
6600.0
 21
1410.0
 31
0.0
100
AcDbText
 73
2
  0
LWPOLYLINE
  5
2B2
330
17
100
AcDbEntity
  8
IS_BARRIERS
100
AcDbPolyline
 90
4
 70
1
 10
6355.0
 20
1155.0
 10
6387.0
 20
1155.0
 10
6387.0
 20
1280.0
 10
6355.0
 20
1280.0
  0
LWPOLYLINE
  5
2B3
330
17
100
AcDbEntity
  8
IS_BARRIERS
100
AcDbPolyline
 90
4
 70
1
 10
6390.0
 20
1155.0
 10
6422.0
 20
1155.0
 10
6422.0
 20
1280.0
 10
6390.0
 20
1280.0
  0
LWPOLYLINE
  5
2B4
330
17
100
AcDbEntity
  8
IS_BARRIERS
100
AcDbPolyline
 90
4
 70
1
 10
6425.0
 20
1155.0
 10
6457.0
 20
1155.0
 10
6457.0
 20
1280.0
 10
6425.0
 20
1280.0
  0
LWPOLYLINE
  5
2B5
330
17
100
AcDbEntity
  8
IS_BARRIERS
100
AcDbPolyline
 90
4
 70
1
 10
6460.0
 20
1155.0
 10
6492.0
 20
1155.0
 10
6492.0
 20
1280.0
 10
6460.0
 20
1280.0
  0
LWPOLYLINE
  5
2B6
330
17
100
AcDbEntity
  8
IS_BARRIERS
100
AcDbPolyline
 90
4
 70
1
 10
6495.0
 20
1155.0
 10
6527.0
 20
1155.0
 10
6527.0
 20
1280.0
 10
6495.0
 20
1280.0
  0
LWPOLYLINE
  5
2B7
330
17
100
AcDbEntity
  8
IS_BARRIERS
100
AcDbPolyline
 90
4
 70
1
 10
6530.0
 20
1155.0
 10
6562.0
 20
1155.0
 10
6562.0
 20
1280.0
 10
6530.0
 20
1280.0
  0
LWPOLYLINE
  5
2B8
330
17
100
AcDbEntity
  8
IS_BARRIERS
100
AcDbPolyline
 90
4
 70
1
 10
6565.0
 20
1155.0
 10
6597.0
 20
1155.0
 10
6597.0
 20
1280.0
 10
6565.0
 20
1280.0
  0
LWPOLYLINE
  5
2B9
330
17
100
AcDbEntity
  8
IS_BARRIERS
100
AcDbPolyline
 90
4
 70
1
 10
6600.0
 20
1155.0
 10
6632.0
 20
1155.0
 10
6632.0
 20
1280.0
 10
6600.0
 20
1280.0
  0
LWPOLYLINE
  5
2BA
330
17
100
AcDbEntity
  8
IS_BARRIERS
100
AcDbPolyline
 90
4
 70
1
 10
6635.0
 20
1155.0
 10
6667.0
 20
1155.0
 10
6667.0
 20
1280.0
 10
6635.0
 20
1280.0
  0
LWPOLYLINE
  5
2BB
330
17
100
AcDbEntity
  8
IS_BARRIERS
100
AcDbPolyline
 90
4
 70
1
 10
6670.0
 20
1155.0
 10
6702.0
 20
1155.0
 10
6702.0
 20
1280.0
 10
6670.0
 20
1280.0
  0
LWPOLYLINE
  5
2BC
330
17
100
AcDbEntity
  8
IS_BARRIERS
100
AcDbPolyline
 90
4
 70
1
 10
6705.0
 20
1155.0
 10
6737.0
 20
1155.0
 10
6737.0
 20
1280.0
 10
6705.0
 20
1280.0
  0
LWPOLYLINE
  5
2BD
330
17
100
AcDbEntity
  8
IS_BARRIERS
100
AcDbPolyline
 90
4
 70
1
 10
6740.0
 20
1155.0
 10
6772.0
 20
1155.0
 10
6772.0
 20
1280.0
 10
6740.0
 20
1280.0
  0
LWPOLYLINE
  5
2BE
330
17
100
AcDbEntity
  8
IS_BARRIERS
100
AcDbPolyline
 90
4
 70
1
 10
6775.0
 20
1155.0
 10
6807.0
 20
1155.0
 10
6807.0
 20
1280.0
 10
6775.0
 20
1280.0
  0
LWPOLYLINE
  5
2BF
330
17
100
AcDbEntity
  8
IS_BARRIERS
100
AcDbPolyline
 90
4
 70
1
 10
6810.0
 20
1155.0
 10
6842.0
 20
1155.0
 10
6842.0
 20
1280.0
 10
6810.0
 20
1280.0
  0
TEXT
  5
2C0
330
17
100
AcDbEntity
  8
IS_BARRIERS
100
AcDbText
 10
6600.0
 20
1295.0
 30
0.0
 40
18.0
  1
PEPPERL+FUCHS EX-i GALVANIC BARRIERS (KFD2)
 72
1
 11
6600.0
 21
1295.0
 31
0.0
100
AcDbText
 73
2
  0
LWPOLYLINE
  5
2C1
330
17
100
AcDbEntity
  8
TERMINAL_STRIP
100
AcDbPolyline
 90
4
 70
1
 10
6355.0
 20
315.0
 10
6543.0
 20
315.0
 10
6543.0
 20
420.0
 10
6355.0
 20
420.0
  0
TEXT
  5
2C2
330
17
100
AcDbEntity
  8
TEXT_LABELS
100
AcDbText
 10
6449.0
 20
435.0
 30
0.0
 40
16.0
  1
NON-IS TB
 72
1
 11
6449.0
 21
435.0
 31
0.0
100
AcDbText
 73
2
  0
LWPOLYLINE
  5
2C3
330
17
100
AcDbEntity
  8
DIMENSIONS
100
AcDbPolyline
 90
4
 70
1
 10
6548.0
 20
305.0
 10
6558.0
 20
305.0
 10
6558.0
 20
430.0
 10
6548.0
 20
430.0
  0
LWPOLYLINE
  5
2C4
330
17
100
AcDbEntity
  8
TERMINAL_IS
100
AcDbPolyline
 90
4
 70
1
 10
6563.0
 20
315.0
 10
6821.5
 20
315.0
 10
6821.5
 20
420.0
 10
6563.0
 20
420.0
  0
TEXT
  5
2C5
330
17
100
AcDbEntity
  8
TERMINAL_IS
100
AcDbText
 10
6692.25
 20
435.0
 30
0.0
 40
16.0
  1
BLUE IS TERMINALS (Ex-i)
 72
1
 11
6692.25
 21
435.0
 31
0.0
100
AcDbText
 73
2
  0
TEXT
  5
2C6
330
17
100
AcDbEntity
  8
TEXT_HEADER
100
AcDbText
 10
6600.0
 20
60.0
 30
0.0
 40
22.0
  1
PANEL M4 (CHASSIS C4 - Ex-i)
 72
1
 11
6600.0
 21
60.0
 31
0.0
100
AcDbText
 73
2
  0
TEXT
  5
2C7
330
17
100
AcDbEntity
  8
TEXT_LABELS
100
AcDbText
 10
6600.0
 20
30.0
 30
0.0
 40
18.0
  1
SERVES: JB-606, IS-JB-612, JB-612, IS-JB-608
 72
1
 11
6600.0
 21
30.0
 31
0.0
100
AcDbText
 73
2
  0
DIMENSION
  5
2C8
330
17
100
AcDbEntity
  8
DIMENSIONS
100
AcDbDimension
280
0
  2
*D9
  3
METRIC_MM
 10
3800.0
 20
-150.0
 30
0.0
 11
5400.0
 21
-131.875
 31
0.0
 70
32
 71
5
  1
<>
100
AcDbAlignedDimension
 13
3800.0
 23
0.0
 33
0.0
 14
7000.0
 24
0.0
 34
0.0
 50
0.0
100
AcDbRotatedDimension
  0
DIMENSION
  5
2D7
330
17
100
AcDbEntity
  8
DIMENSIONS
100
AcDbDimension
280
0
  2
*D10
  3
METRIC_MM
 10
3800.0
 20
-280.0
 30
0.0
 11
4200.0
 21
-261.875
 31
0.0
 70
32
 71
5
  1
<>
100
AcDbAlignedDimension
 13
3800.0
 23
0.0
 33
0.0
 14
4600.0
 24
0.0
 34
0.0
 50
0.0
100
AcDbRotatedDimension
  0
DIMENSION
  5
2E6
330
17
100
AcDbEntity
  8
DIMENSIONS
100
AcDbDimension
280
0
  2
*D11
  3
METRIC_MM
 10
4600.0
 20
-280.0
 30
0.0
 11
5000.0
 21
-261.875
 31
0.0
 70
32
 71
5
  1
<>
100
AcDbAlignedDimension
 13
4600.0
 23
0.0
 33
0.0
 14
5400.0
 24
0.0
 34
0.0
 50
0.0
100
AcDbRotatedDimension
  0
DIMENSION
  5
2F5
330
17
100
AcDbEntity
  8
DIMENSIONS
100
AcDbDimension
280
0
  2
*D12
  3
METRIC_MM
 10
5400.0
 20
-280.0
 30
0.0
 11
5800.0
 21
-261.875
 31
0.0
 70
32
 71
5
  1
<>
100
AcDbAlignedDimension
 13
5400.0
 23
0.0
 33
0.0
 14
6200.0
 24
0.0
 34
0.0
 50
0.0
100
AcDbRotatedDimension
  0
DIMENSION
  5
304
330
17
100
AcDbEntity
  8
DIMENSIONS
100
AcDbDimension
280
0
  2
*D13
  3
METRIC_MM
 10
6200.0
 20
-280.0
 30
0.0
 11
6600.0
 21
-261.875
 31
0.0
 70
32
 71
5
  1
<>
100
AcDbAlignedDimension
 13
6200.0
 23
0.0
 33
0.0
 14
7000.0
 24
0.0
 34
0.0
 50
0.0
100
AcDbRotatedDimension
  0
TEXT
  5
313
330
17
100
AcDbEntity
  8
TEXT_HEADER
100
AcDbText
 10
5400.0
 20
2300.0
 30
0.0
 40
45.0
  1
4-PANEL SUITE: INTERNAL MOUNTING GENERAL ARRANGEMENT
 72
1
 11
5400.0
 21
2300.0
 31
0.0
100
AcDbText
 73
2
  0
LWPOLYLINE
  5
314
330
17
100
AcDbEntity
  8
0_BORDER
100
AcDbPolyline
 90
4
 70
1
 10
5800.0
 20
-600.0
 10
7000.0
 20
-600.0
 10
7000.0
 20
-320.0
 10
5800.0
 20
-320.0
  0
LINE
  5
315
330
17
100
AcDbEntity
  8
0_TITLE_BLOCK
100
AcDbLine
 10
5800.0
 20
-420.0
 30
0.0
 11
7000.0
 21
-420.0
 31
0.0
  0
LINE
  5
316
330
17
100
AcDbEntity
  8
0_TITLE_BLOCK
100
AcDbLine
 10
5800.0
 20
-510.0
 30
0.0
 11
7000.0
 21
-510.0
 31
0.0
  0
LINE
  5
317
330
17
100
AcDbEntity
  8
0_TITLE_BLOCK
100
AcDbLine
 10
6550.0
 20
-600.0
 30
0.0
 11
6550.0
 21
-420.0
 31
0.0
  0
LINE
  5
318
330
17
100
AcDbEntity
  8
0_TITLE_BLOCK
100
AcDbLine
 10
6780.0
 20
-600.0
 30
0.0
 11
6780.0
 21
-510.0
 31
0.0
  0
LINE
  5
319
330
17
100
AcDbEntity
  8
0_TITLE_BLOCK
100
AcDbLine
 10
6200.0
 20
-600.0
 30
0.0
 11
6200.0
 21
-510.0
 31
0.0
  0
TEXT
  5
31A
330
17
100
AcDbEntity
  8
TEXT_HEADER
100
AcDbText
 10
5825.0
 20
-365.0
 30
0.0
 40
32.0
  1
INGREDION (THAILAND) CO., LTD.
 11
5825.0
 21
-365.0
 31
0.0
100
AcDbText
  0
TEXT
  5
31B
330
17
100
AcDbEntity
  8
TEXT_LABELS
100
AcDbText
 10
5825.0
 20
-400.0
 30
0.0
 40
22.0
  1
KALASIN STARCH PLANT - JET COOKER PROJECT
 11
5825.0
 21
-400.0
 31
0.0
100
AcDbText
  0
TEXT
  5
31C
330
17
100
AcDbEntity
  8
TEXT_HEADER
100
AcDbText
 10
6575.0
 20
-365.0
 30
0.0
 40
26.0
  1
AEC INDUSTRIAL ENGINEERING CO., LTD.
 11
6575.0
 21
-365.0
 31
0.0
100
AcDbText
  0
TEXT
  5
31D
330
17
100
AcDbEntity
  8
TEXT_LABELS
100
AcDbText
 10
6575.0
 20
-400.0
 30
0.0
 40
18.0
  1
SYSTEMS INTEGRATION & AUTOMATION
 11
6575.0
 21
-400.0
 31
0.0
100
AcDbText
  0
TEXT
  5
31E
330
17
100
AcDbEntity
  8
TEXT_HEADER
100
AcDbText
 10
5825.0
 20
-465.0
 30
0.0
 40
30.0
  1
MCC 4-PANEL SUITE (M1..M4) ELEVATION & MOUNTING PLAN
 11
5825.0
 21
-465.0
 31
0.0
100
AcDbText
  0
TEXT
  5
31F
330
17
100
AcDbEntity
  8
TEXT_LABELS
100
AcDbText
 10
5825.0
 20
-495.0
 30
0.0
 40
18.0
  1
MAIN CONTROL CABINET CA1 / MOTOR CONTROL PANELS M1..M4
 11
5825.0
 21
-495.0
 31
0.0
100
AcDbText
  0
TEXT
  5
320
330
17
100
AcDbEntity
  8
TEXT_LABELS
100
AcDbText
 10
6575.0
 20
-455.0
 30
0.0
 40
22.0
  1
DOC NO: CA1-DWG-PL-MASTER
 11
6575.0
 21
-455.0
 31
0.0
100
AcDbText
  0
TEXT
  5
321
330
17
100
AcDbEntity
  8
TEXT_LABELS
100
AcDbText
 10
6575.0
 20
-490.0
 30
0.0
 40
20.0
  1
REV: 3.6    DATE: 2026-09-07
 11
6575.0
 21
-490.0
 31
0.0
100
AcDbText
  0
TEXT
  5
322
330
17
100
AcDbEntity
  8
TEXT_LABELS
100
AcDbText
 10
5825.0
 20
-545.0
 30
0.0
 40
18.0
  1
DRAWN: AEC-ENG
 11
5825.0
 21
-545.0
 31
0.0
100
AcDbText
  0
TEXT
  5
323
330
17
100
AcDbEntity
  8
TEXT_LABELS
100
AcDbText
 10
5825.0
 20
-575.0
 30
0.0
 40
18.0
  1
CHECKED: LEAD-PE
 11
5825.0
 21
-575.0
 31
0.0
100
AcDbText
  0
TEXT
  5
324
330
17
100
AcDbEntity
  8
TEXT_HEADER
100
AcDbText
 10
6225.0
 20
-545.0
 30
0.0
 40
20.0
  1
STATUS: APPROVED
 11
6225.0
 21
-545.0
 31
0.0
100
AcDbText
  0
TEXT
  5
325
330
17
100
AcDbEntity
  8
TEXT_LABELS
100
AcDbText
 10
6225.0
 20
-575.0
 30
0.0
 40
18.0
  1
SCALE: 1:1 (MODEL 1:1 mm)
 11
6225.0
 21
-575.0
 31
0.0
100
AcDbText
  0
TEXT
  5
326
330
17
100
AcDbEntity
  8
TEXT_HEADER
100
AcDbText
 10
6575.0
 20
-560.0
 30
0.0
 40
28.0
  1
SHEET: 1 / 1
 11
6575.0
 21
-560.0
 31
0.0
100
AcDbText
  0
ENDSEC
  0
SECTION
  2
OBJECTS
  0
DICTIONARY
  5
A
330
0
100
AcDbDictionary
281
1
  3
ACAD_COLOR
350
B
  3
ACAD_GROUP
350
C
  3
ACAD_LAYOUT
350
D
  3
ACAD_MATERIAL
350
E
  3
ACAD_MLEADERSTYLE
350
F
  3
ACAD_MLINESTYLE
350
10
  3
ACAD_PLOTSETTINGS
350
11
  3
ACAD_PLOTSTYLENAME
350
12
  3
ACAD_SCALELIST
350
14
  3
ACAD_TABLESTYLE
350
15
  3
ACAD_VISUALSTYLE
350
16
  3
EZDXF_META
350
2D
  0
DICTIONARY
  5
B
330
A
100
AcDbDictionary
281
1
  0
DICTIONARY
  5
C
330
A
100
AcDbDictionary
281
1
  0
DICTIONARY
  5
D
330
A
100
AcDbDictionary
281
1
  3
Model
350
1A
  3
Layout1
350
1E
  0
DICTIONARY
  5
E
330
A
100
AcDbDictionary
281
1
  3
ByBlock
350
1F
  3
ByLayer
350
20
  3
Global
350
21
  0
DICTIONARY
  5
F
330
A
100
AcDbDictionary
281
1
  3
Standard
350
2C
  0
DICTIONARY
  5
10
330
A
100
AcDbDictionary
281
1
  3
Standard
350
22
  0
DICTIONARY
  5
11
330
A
100
AcDbDictionary
281
1
  0
ACDBDICTIONARYWDFLT
  5
12
330
A
100
AcDbDictionary
281
1
  3
Normal
350
13
100
AcDbDictionaryWithDefault
340
13
  0
ACDBPLACEHOLDER
  5
13
330
12
  0
DICTIONARY
  5
14
330
A
100
AcDbDictionary
281
1
  0
DICTIONARY
  5
15
330
A
100
AcDbDictionary
281
1
  0
DICTIONARY
  5
16
330
A
100
AcDbDictionary
281
1
  3
2dWireframe
350
5A
  3
Basic
350
5B
  3
Brighten
350
5C
  3
ColorChange
350
5D
  3
Conceptual
350
5E
  3
Dim
350
5F
  3
EdgeColorOff
350
60
  3
Facepattern
350
61
  3
Flat
350
62
  3
FlatWithEdges
350
63
  3
Gouraud
350
64
  3
GouraudWithEdges
350
65
  3
Hidden
350
66
  3
JitterOff
350
67
  3
Linepattern
350
68
  3
Modeling
350
69
  3
OverhangOff
350
6A
  3
Realistic
350
6B
  3
Shaded
350
6C
  3
Shaded with edges
350
6D
  3
Shades of Gray
350
6E
  3
Sketchy
350
6F
  3
Thicken
350
70
  3
Wireframe
350
71
  3
X-Ray
350
72
  0
LAYOUT
  5
1A
330
D
100
AcDbPlotSettings
  1

  4
A3
  6

 40
7.5
 41
20.0
 42
7.5
 43
20.0
 44
420.0
 45
297.0
 46
0.0
 47
0.0
 48
0.0
 49
0.0
140
0.0
141
0.0
142
1.0
143
1.0
 70
1024
 72
1
 73
0
 74
5
  7

 75
16
 76
0
 77
2
 78
300
147
1.0
148
0.0
149
0.0
100
AcDbLayout
  1
Model
 70
1
 71
0
 10
0.0
 20
0.0
 11
420.0
 21
297.0
 12
0.0
 22
0.0
 32
0.0
 14
1e+20
 24
1e+20
 34
1e+20
 15
-1e+20
 25
-1e+20
 35
-1e+20
146
0.0
 13
0.0
 23
0.0
 33
0.0
 16
1.0
 26
0.0
 36
0.0
 17
0.0
 27
1.0
 37
0.0
 76
1
330
17
  0
LAYOUT
  5
1E
330
D
100
AcDbPlotSettings
  1

  4
A3
  6

 40
7.5
 41
20.0
 42
7.5
 43
20.0
 44
420.0
 45
297.0
 46
0.0
 47
0.0
 48
0.0
 49
0.0
140
0.0
141
0.0
142
1.0
143
1.0
 70
0
 72
1
 73
0
 74
5
  7

 75
16
 76
0
 77
2
 78
300
147
1.0
148
0.0
149
0.0
100
AcDbLayout
  1
Layout1
 70
1
 71
1
 10
0.0
 20
0.0
 11
420.0
 21
297.0
 12
0.0
 22
0.0
 32
0.0
 14
1e+20
 24
1e+20
 34
1e+20
 15
-1e+20
 25
-1e+20
 35
-1e+20
146
0.0
 13
0.0
 23
0.0
 33
0.0
 16
1.0
 26
0.0
 36
0.0
 17
0.0
 27
1.0
 37
0.0
 76
1
330
1B
  0
MATERIAL
  5
1F
102
{ACAD_REACTORS
330
E
102
}
330
E
100
AcDbMaterial
  1
ByBlock
  2

 70
0
 40
1.0
 71
1
 41
1.0
 91
-1023410177
 42
1.0
 72
1
  3

 73
1
 74
1
 75
1
 44
0.5
 73
0
 45
1.0
 46
1.0
 77
1
  4

 78
1
 79
1
170
1
 48
1.0
171
1
  6

172
1
173
1
174
1
140
1.0
141
1.0
175
1
  7

176
1
177
1
178
1
143
1.0
179
1
  8

270
1
271
1
272
1
145
1.0
146
1.0
273
1
  9

274
1
275
1
276
1
 42
1.0
 72
1
  3

 73
1
 74
1
 75
1
 94
63
  0
MATERIAL
  5
20
102
{ACAD_REACTORS
330
E
102
}
330
E
100
AcDbMaterial
  1
ByLayer
  2

 70
0
 40
1.0
 71
1
 41
1.0
 91
-1023410177
 42
1.0
 72
1
  3

 73
1
 74
1
 75
1
 44
0.5
 73
0
 45
1.0
 46
1.0
 77
1
  4

 78
1
 79
1
170
1
 48
1.0
171
1
  6

172
1
173
1
174
1
140
1.0
141
1.0
175
1
  7

176
1
177
1
178
1
143
1.0
179
1
  8

270
1
271
1
272
1
145
1.0
146
1.0
273
1
  9

274
1
275
1
276
1
 42
1.0
 72
1
  3

 73
1
 74
1
 75
1
 94
63
  0
MATERIAL
  5
21
102
{ACAD_REACTORS
330
E
102
}
330
E
100
AcDbMaterial
  1
Global
  2

 70
0
 40
1.0
 71
1
 41
1.0
 91
-1023410177
 42
1.0
 72
1
  3

 73
1
 74
1
 75
1
 44
0.5
 73
0
 45
1.0
 46
1.0
 77
1
  4

 78
1
 79
1
170
1
 48
1.0
171
1
  6

172
1
173
1
174
1
140
1.0
141
1.0
175
1
  7

176
1
177
1
178
1
143
1.0
179
1
  8

270
1
271
1
272
1
145
1.0
146
1.0
273
1
  9

274
1
275
1
276
1
 42
1.0
 72
1
  3

 73
1
 74
1
 75
1
 94
63
  0
MLINESTYLE
  5
22
102
{ACAD_REACTORS
330
10
102
}
330
10
100
AcDbMlineStyle
  2
Standard
 70
0
  3

 62
256
 51
90.0
 52
90.0
 71
2
 49
0.5
 62
256
  6
BYLAYER
 49
-0.5
 62
256
  6
BYLAYER
  0
MLEADERSTYLE
  5
2C
102
{ACAD_REACTORS
330
F
102
}
330
F
100
AcDbMLeaderStyle
179
2
170
2
171
1
172
0
 90
2
 40
0.0
 41
0.0
173
1
 91
-1056964608
 92
-2
290
1
 42
2.0
291
1
 43
8.0
  3
Standard
 44
4.0
300

342
29
174
1
175
1
176
0
178
1
 93
-1056964608
 45
4.0
292
0
297
0
 46
4.0
 94
-1056964608
 47
1.0
 49
1.0
140
1.0
294
1
141
0.0
177
0
142
1.0
295
0
296
0
143
3.75
271
0
272
9
273
9
  0
DICTIONARY
  5
2D
330
A
100
AcDbDictionary
280
1
281
1
  3
CREATED_BY_EZDXF
350
2E
  3
WRITTEN_BY_EZDXF
350
329
  0
DICTIONARYVAR
  5
2E
330
2D
100
DictionaryVariables
280
0
  1
1.4.4 @ 2026-09-07T05:54:47.686102+00:00
  0
VISUALSTYLE
  5
5A
102
{ACAD_REACTORS
330
16
102
}
330
16
100
AcDbVisualStyle
  2
2dWireframe
 70
4
 90
0
 40
0.6
 62
7
290
0
291
0
  0
VISUALSTYLE
  5
5B
102
{ACAD_REACTORS
330
16
102
}
330
16
100
AcDbVisualStyle
  2
Basic
 70
7
 90
1
 40
0.6
 62
7
290
0
291
1
  0
VISUALSTYLE
  5
5C
102
{ACAD_REACTORS
330
16
102
}
330
16
100
AcDbVisualStyle
  2
Brighten
 70
12
 90
2
 40
0.6
 62
7
290
0
291
1
  0
VISUALSTYLE
  5
5D
102
{ACAD_REACTORS
330
16
102
}
330
16
100
AcDbVisualStyle
  2
ColorChange
 70
16
 90
2
 40
0.6
 62
8
290
0
291
1
  0
VISUALSTYLE
  5
5E
102
{ACAD_REACTORS
330
16
102
}
330
16
100
AcDbVisualStyle
  2
Conceptual
 70
9
 90
3
 40
0.6
 62
7
290
0
291
0
  0
VISUALSTYLE
  5
5F
102
{ACAD_REACTORS
330
16
102
}
330
16
100
AcDbVisualStyle
  2
Dim
 70
11
 90
2
 40
0.6
 62
7
290
0
291
1
  0
VISUALSTYLE
  5
60
102
{ACAD_REACTORS
330
16
102
}
330
16
100
AcDbVisualStyle
  2
EdgeColorOff
 70
22
 90
2
 40
0.6
 62
7
290
0
291
1
  0
VISUALSTYLE
  5
61
102
{ACAD_REACTORS
330
16
102
}
330
16
100
AcDbVisualStyle
  2
Facepattern
 70
15
 90
2
 40
0.6
 62
7
290
0
291
1
  0
VISUALSTYLE
  5
62
102
{ACAD_REACTORS
330
16
102
}
330
16
100
AcDbVisualStyle
  2
Flat
 70
0
 90
2
 40
0.6
 62
7
290
0
291
1
  0
VISUALSTYLE
  5
63
102
{ACAD_REACTORS
330
16
102
}
330
16
100
AcDbVisualStyle
  2
FlatWithEdges
 70
1
 90
2
 40
0.6
 62
7
290
0
291
1
  0
VISUALSTYLE
  5
64
102
{ACAD_REACTORS
330
16
102
}
330
16
100
AcDbVisualStyle
  2
Gouraud
 70
2
 90
2
 40
0.6
 62
7
290
0
291
1
  0
VISUALSTYLE
  5
65
102
{ACAD_REACTORS
330
16
102
}
330
16
100
AcDbVisualStyle
  2
GouraudWithEdges
 70
3
 90
2
 40
0.6
 62
7
290
0
291
1
  0
VISUALSTYLE
  5
66
102
{ACAD_REACTORS
330
16
102
}
330
16
100
AcDbVisualStyle
  2
Hidden
 70
6
 90
1
 40
0.6
 62
7
290
0
291
0
  0
VISUALSTYLE
  5
67
102
{ACAD_REACTORS
330
16
102
}
330
16
100
AcDbVisualStyle
  2
JitterOff
 70
20
 90
2
 40
0.6
 62
7
290
0
291
1
  0
VISUALSTYLE
  5
68
102
{ACAD_REACTORS
330
16
102
}
330
16
100
AcDbVisualStyle
  2
Linepattern
 70
14
 90
2
 40
0.6
 62
7
290
0
291
1
  0
VISUALSTYLE
  5
69
102
{ACAD_REACTORS
330
16
102
}
330
16
100
AcDbVisualStyle
  2
Modeling
 70
10
 90
2
 40
0.6
 62
7
290
0
291
0
  0
VISUALSTYLE
  5
6A
102
{ACAD_REACTORS
330
16
102
}
330
16
100
AcDbVisualStyle
  2
OverhangOff
 70
21
 90
2
 40
0.6
 62
7
290
0
291
1
  0
VISUALSTYLE
  5
6B
102
{ACAD_REACTORS
330
16
102
}
330
16
100
AcDbVisualStyle
  2
Realistic
 70
8
 90
2
 40
0.6
 62
7
290
0
291
0
  0
VISUALSTYLE
  5
6C
102
{ACAD_REACTORS
330
16
102
}
330
16
100
AcDbVisualStyle
  2
Shaded
 70
27
 90
2
 40
0.6
 62
7
290
0
291
0
  0
VISUALSTYLE
  5
6D
102
{ACAD_REACTORS
330
16
102
}
330
16
100
AcDbVisualStyle
  2
Shaded with edges
 70
26
 90
2
 40
0.6
 62
7
290
0
291
0
  0
VISUALSTYLE
  5
6E
102
{ACAD_REACTORS
330
16
102
}
330
16
100
AcDbVisualStyle
  2
Shades of Gray
 70
23
 90
2
 40
0.6
 62
7
290
0
291
0
  0
VISUALSTYLE
  5
6F
102
{ACAD_REACTORS
330
16
102
}
330
16
100
AcDbVisualStyle
  2
Sketchy
 70
24
 90
1
 40
0.6
 62
7
290
0
291
0
  0
VISUALSTYLE
  5
70
102
{ACAD_REACTORS
330
16
102
}
330
16
100
AcDbVisualStyle
  2
Thicken
 70
13
 90
2
 40
0.6
 62
7
290
0
291
1
  0
VISUALSTYLE
  5
71
102
{ACAD_REACTORS
330
16
102
}
330
16
100
AcDbVisualStyle
  2
Wireframe
 70
5
 90
0
 40
0.6
 62
7
290
0
291
0
  0
VISUALSTYLE
  5
72
102
{ACAD_REACTORS
330
16
102
}
330
16
100
AcDbVisualStyle
  2
X-Ray
 70
25
 90
2
 40
0.5
 62
7
290
0
291
0
  0
DICTIONARYVAR
  5
329
330
2D
100
DictionaryVariables
280
0
  1
1.4.4 @ 2026-09-07T05:54:47.727575+00:00
  0
ENDSEC
  0
EOF
