  0
SECTION
  2
HEADER
  9
$ACADVER
  1
AC1024
  9
$ACADMAINTVER
 70
6
  9
$DWGCODEPAGE
  3
ANSI_1252
  9
$LASTSAVEDBY
  1
ezdxf
  9
$INSBASE
 10
0.0
 20
0.0
 30
0.0
  9
$EXTMIN
 10
1e+20
 20
1e+20
 30
1e+20
  9
$EXTMAX
 10
-1e+20
 20
-1e+20
 30
-1e+20
  9
$LIMMIN
 10
0.0
 20
0.0
  9
$LIMMAX
 10
420.0
 20
297.0
  9
$ORTHOMODE
 70
0
  9
$REGENMODE
 70
1
  9
$FILLMODE
 70
1
  9
$QTEXTMODE
 70
0
  9
$MIRRTEXT
 70
1
  9
$LTSCALE
 40
1.0
  9
$ATTMODE
 70
1
  9
$TEXTSIZE
 40
2.5
  9
$TRACEWID
 40
1.0
  9
$TEXTSTYLE
  7
Standard
  9
$CLAYER
  8
0
  9
$CELTYPE
  6
ByLayer
  9
$CECOLOR
 62
256
  9
$CELTSCALE
 40
1.0
  9
$DISPSILH
 70
0
  9
$DIMSCALE
 40
1.0
  9
$DIMASZ
 40
2.5
  9
$DIMEXO
 40
0.625
  9
$DIMDLI
 40
3.75
  9
$DIMRND
 40
0.0
  9
$DIMDLE
 40
0.0
  9
$DIMEXE
 40
1.25
  9
$DIMTP
 40
0.0
  9
$DIMTM
 40
0.0
  9
$DIMTXT
 40
2.5
  9
$DIMCEN
 40
2.5
  9
$DIMTSZ
 40
0.0
  9
$DIMTOL
 70
0
  9
$DIMLIM
 70
0
  9
$DIMTIH
 70
0
  9
$DIMTOH
 70
0
  9
$DIMSE1
 70
0
  9
$DIMSE2
 70
0
  9
$DIMTAD
 70
1
  9
$DIMZIN
 70
8
  9
$DIMBLK
  1

  9
$DIMASO
 70
1
  9
$DIMSHO
 70
1
  9
$DIMPOST
  1

  9
$DIMAPOST
  1

  9
$DIMALT
 70
0
  9
$DIMALTD
 70
3
  9
$DIMALTF
 40
0.03937007874
  9
$DIMLFAC
 40
1.0
  9
$DIMTOFL
 70
1
  9
$DIMTVP
 40
0.0
  9
$DIMTIX
 70
0
  9
$DIMSOXD
 70
0
  9
$DIMSAH
 70
0
  9
$DIMBLK1
  1

  9
$DIMBLK2
  1

  9
$DIMSTYLE
  2
ISO-25
  9
$DIMCLRD
 70
0
  9
$DIMCLRE
 70
0
  9
$DIMCLRT
 70
0
  9
$DIMTFAC
 40
1.0
  9
$DIMGAP
 40
0.625
  9
$DIMJUST
 70
0
  9
$DIMSD1
 70
0
  9
$DIMSD2
 70
0
  9
$DIMTOLJ
 70
0
  9
$DIMTZIN
 70
8
  9
$DIMALTZ
 70
0
  9
$DIMALTTZ
 70
0
  9
$DIMUPT
 70
0
  9
$DIMDEC
 70
2
  9
$DIMTDEC
 70
2
  9
$DIMALTU
 70
2
  9
$DIMALTTD
 70
3
  9
$DIMTXSTY
  7
Standard
  9
$DIMAUNIT
 70
0
  9
$DIMADEC
 70
0
  9
$DIMALTRND
 40
0.0
  9
$DIMAZIN
 70
0
  9
$DIMDSEP
 70
44
  9
$DIMATFIT
 70
3
  9
$DIMFRAC
 70
0
  9
$DIMLDRBLK
  1

  9
$DIMLUNIT
 70
2
  9
$DIMLWD
 70
-2
  9
$DIMLWE
 70
-2
  9
$DIMTMOVE
 70
0
  9
$DIMFXL
 40
1.0
  9
$DIMFXLON
 70
0
  9
$DIMJOGANG
 40
0.785398163397
  9
$DIMTFILL
 70
0
  9
$DIMTFILLCLR
 70
0
  9
$DIMARCSYM
 70
0
  9
$DIMLTYPE
  6

  9
$DIMLTEX1
  6

  9
$DIMLTEX2
  6

  9
$DIMTXTDIRECTION
 70
0
  9
$LUNITS
 70
2
  9
$LUPREC
 70
4
  9
$SKETCHINC
 40
1.0
  9
$FILLETRAD
 40
10.0
  9
$AUNITS
 70
0
  9
$AUPREC
 70
2
  9
$MENU
  1
.
  9
$ELEVATION
 40
0.0
  9
$PELEVATION
 40
0.0
  9
$THICKNESS
 40
0.0
  9
$LIMCHECK
 70
0
  9
$CHAMFERA
 40
0.0
  9
$CHAMFERB
 40
0.0
  9
$CHAMFERC
 40
0.0
  9
$CHAMFERD
 40
0.0
  9
$SKPOLY
 70
0
  9
$TDCREATE
 40
2461317.7275925926
  9
$TDUCREATE
 40
2458532.153996898
  9
$TDUPDATE
 40
2461317.7275925926
  9
$TDUUPDATE
 40
2458532.1544311
  9
$TDINDWG
 40
0.0
  9
$TDUSRTIMER
 40
0.0
  9
$USRTIMER
 70
1
  9
$ANGBASE
 50
0.0
  9
$ANGDIR
 70
0
  9
$PDMODE
 70
0
  9
$PDSIZE
 40
0.0
  9
$PLINEWID
 40
0.0
  9
$SPLFRAME
 70
0
  9
$SPLINETYPE
 70
6
  9
$SPLINESEGS
 70
8
  9
$HANDSEED
  5
15A
  9
$SURFTAB1
 70
6
  9
$SURFTAB2
 70
6
  9
$SURFTYPE
 70
6
  9
$SURFU
 70
6
  9
$SURFV
 70
6
  9
$UCSBASE
  2

  9
$UCSNAME
  2

  9
$UCSORG
 10
0.0
 20
0.0
 30
0.0
  9
$UCSXDIR
 10
1.0
 20
0.0
 30
0.0
  9
$UCSYDIR
 10
0.0
 20
1.0
 30
0.0
  9
$UCSORTHOREF
  2

  9
$UCSORTHOVIEW
 70
0
  9
$UCSORGTOP
 10
0.0
 20
0.0
 30
0.0
  9
$UCSORGBOTTOM
 10
0.0
 20
0.0
 30
0.0
  9
$UCSORGLEFT
 10
0.0
 20
0.0
 30
0.0
  9
$UCSORGRIGHT
 10
0.0
 20
0.0
 30
0.0
  9
$UCSORGFRONT
 10
0.0
 20
0.0
 30
0.0
  9
$UCSORGBACK
 10
0.0
 20
0.0
 30
0.0
  9
$PUCSBASE
  2

  9
$PUCSNAME
  2

  9
$PUCSORG
 10
0.0
 20
0.0
 30
0.0
  9
$PUCSXDIR
 10
1.0
 20
0.0
 30
0.0
  9
$PUCSYDIR
 10
0.0
 20
1.0
 30
0.0
  9
$PUCSORTHOREF
  2

  9
$PUCSORTHOVIEW
 70
0
  9
$PUCSORGTOP
 10
0.0
 20
0.0
 30
0.0
  9
$PUCSORGBOTTOM
 10
0.0
 20
0.0
 30
0.0
  9
$PUCSORGLEFT
 10
0.0
 20
0.0
 30
0.0
  9
$PUCSORGRIGHT
 10
0.0
 20
0.0
 30
0.0
  9
$PUCSORGFRONT
 10
0.0
 20
0.0
 30
0.0
  9
$PUCSORGBACK
 10
0.0
 20
0.0
 30
0.0
  9
$USERI1
 70
0
  9
$USERI2
 70
0
  9
$USERI3
 70
0
  9
$USERI4
 70
0
  9
$USERI5
 70
0
  9
$USERR1
 40
0.0
  9
$USERR2
 40
0.0
  9
$USERR3
 40
0.0
  9
$USERR4
 40
0.0
  9
$USERR5
 40
0.0
  9
$WORLDVIEW
 70
1
  9
$SHADEDGE
 70
3
  9
$SHADEDIF
 70
70
  9
$TILEMODE
 70
1
  9
$MAXACTVP
 70
64
  9
$PINSBASE
 10
0.0
 20
0.0
 30
0.0
  9
$PLIMCHECK
 70
0
  9
$PEXTMIN
 10
1e+20
 20
1e+20
 30
1e+20
  9
$PEXTMAX
 10
-1e+20
 20
-1e+20
 30
-1e+20
  9
$PLIMMIN
 10
0.0
 20
0.0
  9
$PLIMMAX
 10
420.0
 20
297.0
  9
$UNITMODE
 70
0
  9
$VISRETAIN
 70
1
  9
$PLINEGEN
 70
0
  9
$PSLTSCALE
 70
1
  9
$TREEDEPTH
 70
3020
  9
$CMLSTYLE
  2
Standard
  9
$CMLJUST
 70
0
  9
$CMLSCALE
 40
20.0
  9
$PROXYGRAPHICS
 70
1
  9
$MEASUREMENT
 70
1
  9
$CELWEIGHT
370
-1
  9
$ENDCAPS
280
0
  9
$JOINSTYLE
280
0
  9
$LWDISPLAY
290
0
  9
$INSUNITS
 70
6
  9
$HYPERLINKBASE
  1

  9
$STYLESHEET
  1

  9
$XEDIT
290
1
  9
$CEPSNTYPE
380
0
  9
$PSTYLEMODE
290
1
  9
$FINGERPRINTGUID
  2
{CB80B758-EE01-46D1-B049-CE38719F1982}
  9
$VERSIONGUID
  2
{A31CB7C7-04D9-4147-A6F6-6A63F04B4EE7}
  9
$EXTNAMES
290
1
  9
$PSVPSCALE
 40
0.0
  9
$OLESTARTUP
290
0
  9
$SORTENTS
280
127
  9
$INDEXCTL
280
0
  9
$HIDETEXT
280
1
  9
$XCLIPFRAME
280
2
  9
$HALOGAP
280
0
  9
$OBSCOLOR
 70
257
  9
$OBSLTYPE
280
0
  9
$INTERSECTIONDISPLAY
280
0
  9
$INTERSECTIONCOLOR
 70
257
  9
$DIMASSOC
280
2
  9
$PROJECTNAME
  1

  9
$CAMERADISPLAY
290
0
  9
$LENSLENGTH
 40
50.0
  9
$CAMERAHEIGHT
 40
0.0
  9
$STEPSPERSEC
 40
24.0
  9
$STEPSIZE
 40
100.0
  9
$3DDWFPREC
 40
2.0
  9
$PSOLWIDTH
 40
0.005
  9
$PSOLHEIGHT
 40
0.08
  9
$LOFTANG1
 40
1.570796326795
  9
$LOFTANG2
 40
1.570796326795
  9
$LOFTMAG1
 40
0.0
  9
$LOFTMAG2
 40
0.0
  9
$LOFTPARAM
 70
7
  9
$LOFTNORMALS
280
1
  9
$LATITUDE
 40
37.795
  9
$LONGITUDE
 40
-122.394
  9
$NORTHDIRECTION
 40
0.0
  9
$TIMEZONE
 70
-8000
  9
$LIGHTGLYPHDISPLAY
280
1
  9
$TILEMODELIGHTSYNCH
280
1
  9
$CMATERIAL
347
20
  9
$SOLIDHIST
280
0
  9
$SHOWHIST
280
1
  9
$DWFFRAME
280
2
  9
$DGNFRAME
280
2
  9
$REALWORLDSCALE
290
1
  9
$INTERFERECOLOR
 62
256
  9
$CSHADOW
280
0
  9
$SHADOWPLANELOCATION
 40
0.0
  0
ENDSEC
  0
SECTION
  2
CLASSES
  0
CLASS
  1
ACDBDICTIONARYWDFLT
  2
AcDbDictionaryWithDefault
  3
ObjectDBX Classes
 90
0
 91
0
280
0
281
0
  0
CLASS
  1
SUN
  2
AcDbSun
  3
SCENEOE
 90
1153
 91
0
280
0
281
0
  0
CLASS
  1
VISUALSTYLE
  2
AcDbVisualStyle
  3
ObjectDBX Classes
 90
4095
 91
0
280
0
281
0
  0
CLASS
  1
MATERIAL
  2
AcDbMaterial
  3
ObjectDBX Classes
 90
1153
 91
0
280
0
281
0
  0
CLASS
  1
SCALE
  2
AcDbScale
  3
ObjectDBX Classes
 90
1153
 91
0
280
0
281
0
  0
CLASS
  1
TABLESTYLE
  2
AcDbTableStyle
  3
ObjectDBX Classes
 90
4095
 91
0
280
0
281
0
  0
CLASS
  1
MLEADERSTYLE
  2
AcDbMLeaderStyle
  3
ACDB_MLEADERSTYLE_CLASS
 90
4095
 91
0
280
0
281
0
  0
CLASS
  1
DICTIONARYVAR
  2
AcDbDictionaryVar
  3
ObjectDBX Classes
 90
0
 91
0
280
0
281
0
  0
CLASS
  1
CELLSTYLEMAP
  2
AcDbCellStyleMap
  3
ObjectDBX Classes
 90
1152
 91
0
280
0
281
0
  0
CLASS
  1
MENTALRAYRENDERSETTINGS
  2
AcDbMentalRayRenderSettings
  3
SCENEOE
 90
1024
 91
0
280
0
281
0
  0
CLASS
  1
ACDBDETAILVIEWSTYLE
  2
AcDbDetailViewStyle
  3
ObjectDBX Classes
 90
1025
 91
0
280
0
281
0
  0
CLASS
  1
ACDBSECTIONVIEWSTYLE
  2
AcDbSectionViewStyle
  3
ObjectDBX Classes
 90
1025
 91
0
280
0
281
0
  0
CLASS
  1
RASTERVARIABLES
  2
AcDbRasterVariables
  3
ISM
 90
0
 91
0
280
0
281
0
  0
CLASS
  1
LAYOUT
  2
AcDbLayout
  3
ObjectDBX Classes
 90
0
 91
0
280
0
281
0
  0
CLASS
  1
ACDBPLACEHOLDER
  2
AcDbPlaceHolder
  3
ObjectDBX Classes
 90
0
 91
0
280
0
281
0
  0
ENDSEC
  0
SECTION
  2
TABLES
  0
TABLE
  2
VPORT
  5
8
330
0
100
AcDbSymbolTable
 70
1
  0
VPORT
  5
23
330
8
100
AcDbSymbolTableRecord
100
AcDbViewportTableRecord
  2
*Active
 70
0
 10
0.0
 20
0.0
 11
1.0
 21
1.0
 12
0.0
 22
0.0
 13
0.0
 23
0.0
 14
0.5
 24
0.5
 15
0.5
 25
0.5
 16
0.0
 26
0.0
 36
1.0
 17
0.0
 27
0.0
 37
0.0
 40
1000.0
 41
1.34
 42
50.0
 43
0.0
 44
0.0
 50
0.0
 51
0.0
 71
0
 72
1000
 73
1
 74
3
 75
0
 76
0
 77
0
 78
0
281
0
 65
0
146
0.0
  0
ENDTAB
  0
TABLE
  2
LTYPE
  5
2
330
0
100
AcDbSymbolTable
 70
3
  0
LTYPE
  5
24
330
2
100
AcDbSymbolTableRecord
100
AcDbLinetypeTableRecord
  2
ByBlock
 70
0
  3

 72
65
 73
0
 40
0.0
  0
LTYPE
  5
25
330
2
100
AcDbSymbolTableRecord
100
AcDbLinetypeTableRecord
  2
ByLayer
 70
0
  3

 72
65
 73
0
 40
0.0
  0
LTYPE
  5
26
330
2
100
AcDbSymbolTableRecord
100
AcDbLinetypeTableRecord
  2
Continuous
 70
0
  3

 72
65
 73
0
 40
0.0
  0
ENDTAB
  0
TABLE
  2
LAYER
  5
1
330
0
100
AcDbSymbolTable
 70
6
  0
LAYER
  5
27
330
1
100
AcDbSymbolTableRecord
100
AcDbLayerTableRecord
  2
0
 70
0
 62
7
  6
Continuous
370
-3
390
13
347
21
  0
LAYER
  5
28
330
1
100
AcDbSymbolTableRecord
100
AcDbLayerTableRecord
  2
Defpoints
 70
0
 62
7
  6
Continuous
290
0
370
-3
390
13
347
21
  0
LAYER
  5
2F
330
1
100
AcDbSymbolTableRecord
100
AcDbLayerTableRecord
  2
OUTLINE
 70
0
 62
7
  6
Continuous
370
-3
390
13
347
21
  0
LAYER
  5
30
330
1
100
AcDbSymbolTableRecord
100
AcDbLayerTableRecord
  2
SCHEMATICS
 70
0
 62
7
  6
Continuous
370
-3
390
13
347
21
  0
LAYER
  5
31
330
1
100
AcDbSymbolTableRecord
100
AcDbLayerTableRecord
  2
TEXT
 70
0
 62
7
  6
Continuous
370
-3
390
13
347
21
  0
LAYER
  5
32
330
1
100
AcDbSymbolTableRecord
100
AcDbLayerTableRecord
  2
BORDER
 70
0
 62
2
  6
Continuous
370
-3
390
13
347
21
  0
ENDTAB
  0
TABLE
  2
STYLE
  5
5
330
0
100
AcDbSymbolTable
 70
1
  0
STYLE
  5
29
330
5
100
AcDbSymbolTableRecord
100
AcDbTextStyleTableRecord
  2
Standard
 70
0
 40
0.0
 41
1.0
 50
0.0
 71
0
 42
2.5
  3
txt
  4

  0
ENDTAB
  0
TABLE
  2
VIEW
  5
7
330
0
100
AcDbSymbolTable
 70
0
  0
ENDTAB
  0
TABLE
  2
UCS
  5
6
330
0
100
AcDbSymbolTable
 70
0
  0
ENDTAB
  0
TABLE
  2
APPID
  5
3
330
0
100
AcDbSymbolTable
 70
3
  0
APPID
  5
2A
330
3
100
AcDbSymbolTableRecord
100
AcDbRegAppTableRecord
  2
ACAD
 70
0
  0
APPID
  5
157
330
3
100
AcDbSymbolTableRecord
100
AcDbRegAppTableRecord
  2
HATCHBACKGROUNDCOLOR
 70
0
  0
APPID
  5
158
330
3
100
AcDbSymbolTableRecord
100
AcDbRegAppTableRecord
  2
EZDXF
 70
0
  0
ENDTAB
  0
TABLE
  2
DIMSTYLE
  5
4
330
0
100
AcDbSymbolTable
 70
1
100
AcDbDimStyleTable
  0
DIMSTYLE
105
2B
330
4
100
AcDbSymbolTableRecord
100
AcDbDimStyleTableRecord
  2
Standard
 70
0
 40
1.0
 41
2.5
 42
0.625
 43
3.75
 44
1.25
 45
0.0
 46
0.0
 47
0.0
 48
0.0
 49
2.5
140
2.5
141
2.5
142
0.0
143
0.03937007874
144
1.0
145
0.0
146
1.0
147
0.625
148
0.0
 69
0
 70
0
 71
0
 72
0
 73
0
 74
0
 75
0
 76
0
 77
1
 78
8
 79
3
170
0
171
3
172
1
173
0
174
0
175
0
176
0
177
0
178
0
179
2
271
2
272
2
273
2
274
3
275
0
276
0
277
2
278
44
279
0
280
0
281
0
282
0
283
0
284
8
285
0
286
0
288
0
289
3
290
0
371
-2
372
-2
  0
ENDTAB
  0
TABLE
  2
BLOCK_RECORD
  5
9
330
0
100
AcDbSymbolTable
 70
2
  0
BLOCK_RECORD
  5
17
330
9
100
AcDbSymbolTableRecord
100
AcDbBlockTableRecord
  2
*Model_Space
340
1A
 70
0
280
1
281
0
  0
BLOCK_RECORD
  5
1B
330
9
100
AcDbSymbolTableRecord
100
AcDbBlockTableRecord
  2
*Paper_Space
340
1E
 70
0
280
1
281
0
  0
ENDTAB
  0
ENDSEC
  0
SECTION
  2
BLOCKS
  0
BLOCK
  5
18
330
17
100
AcDbEntity
  8
0
100
AcDbBlockBegin
  2
*Model_Space
 70
0
 10
0.0
 20
0.0
 30
0.0
  3
*Model_Space
  1

  0
ENDBLK
  5
19
330
17
100
AcDbEntity
  8
0
100
AcDbBlockEnd
  0
BLOCK
  5
1C
330
1B
100
AcDbEntity
  8
0
100
AcDbBlockBegin
  2
*Paper_Space
 70
0
 10
0.0
 20
0.0
 30
0.0
  3
*Paper_Space
  1

  0
ENDBLK
  5
1D
330
1B
100
AcDbEntity
  8
0
100
AcDbBlockEnd
  0
ENDSEC
  0
SECTION
  2
ENTITIES
  0
LWPOLYLINE
  5
33
330
17
100
AcDbEntity
  8
BORDER
 62
2
100
AcDbPolyline
 90
5
 70
0
 10
0.0
 20
0.0
 10
595.0
 20
0.0
 10
595.0
 20
842.0
 10
0.0
 20
842.0
 10
0.0
 20
0.0
  0
LWPOLYLINE
  5
34
330
17
100
AcDbEntity
  8
SCHEMATICS
 62
7
100
AcDbPolyline
 90
5
 70
0
 10
56.63999938964844
 20
21.32000732421875
 10
528.9000244140625
 20
21.32000732421875
 10
528.9000244140625
 20
45.3800048828125
 10
56.63999938964844
 20
45.3800048828125
 10
56.63999938964844
 20
21.32000732421875
  0
LINE
  5
35
330
17
100
AcDbEntity
  8
SCHEMATICS
 62
7
100
AcDbLine
 10
56.67300033569336
 20
37.41400146484375
 30
0.0
 11
406.4989929199219
 21
37.41400146484375
 31
0.0
  0
LWPOLYLINE
  5
36
330
17
100
AcDbEntity
  8
SCHEMATICS
 62
7
100
AcDbPolyline
 90
9
 70
0
 10
523.8350219726562
 20
31.33203125
 10
524.0066937208176
 20
31.73451519012451
 10
524.3333463668823
 20
32.00395584106445
 10
524.7641788721085
 20
32.145216941833496
 10
525.2483901977539
 20
32.16316223144531
 10
525.7351793050766
 20
32.062655448913574
 10
526.1737451553345
 20
31.848560333251953
 10
526.5132867097855
 20
31.52574062347412
 10
526.7030029296875
 20
31.09906005859375
  0
LWPOLYLINE
  5
37
330
17
100
AcDbEntity
  8
SCHEMATICS
 62
7
100
AcDbPolyline
 90
9
 70
0
 10
526.7030029296875
 20
31.09906005859375
 10
526.7081320285797
 20
31.022868752479553
 10
526.7123126983643
 20
30.96261692047119
 10
526.7156264781952
 20
30.91652286052704
 10
526.7181549072266
 20
30.88280487060547
 10
526.7199795246124
 20
30.859681248664856
 10
526.7211818695068
 20
30.845370292663574
 10
526.7218434810638
 20
30.838090300559998
 10
526.7220458984375
 20
30.8360595703125
  0
LINE
  5
38
330
17
100
AcDbEntity
  8
SCHEMATICS
 62
7
100
AcDbLine
 10
526.7220458984375
 20
30.8360595703125
 30
0.0
 11
528.4850463867188
 21
30.83502197265625
 31
0.0
  0
LINE
  5
39
330
17
100
AcDbEntity
  8
SCHEMATICS
 62
7
100
AcDbLine
 10
528.4850463867188
 20
30.83502197265625
 30
0.0
 11
528.4730224609375
 21
31.0450439453125
 31
0.0
  0
LWPOLYLINE
  5
3A
330
17
100
AcDbEntity
  8
SCHEMATICS
 62
7
100
AcDbPolyline
 90
9
 70
0
 10
528.4730224609375
 20
31.0450439453125
 10
528.3787617683411
 20
31.6121324300766
 10
528.1642150878906
 20
32.12403392791748
 10
527.8428835868835
 20
32.57422173023224
 10
527.4282684326172
 20
32.95616912841797
 10
526.9338707923889
 20
33.263349413871765
 10
526.3731918334961
 20
33.48923587799072
 10
525.7597327232361
 20
33.627301812171936
 10
525.1069946289062
 20
33.6710205078125
  0
LWPOLYLINE
  5
3B
330
17
100
AcDbEntity
  8
SCHEMATICS
 62
7
100
AcDbPolyline
 90
9
 70
0
 10
525.1069946289062
 20
33.6710205078125
 10
524.5161347389221
 20
33.622968316078186
 10
523.9548950195312
 20
33.481038093566895
 10
523.4392142295837
 20
33.2485693693161
 10
522.9850311279297
 20
32.92890167236328
 10
522.6082844734192
 20
32.52537453174591
 10
522.3249130249023
 20
32.041327476501465
 10
522.1508555412292
 20
31.48010003566742
 10
522.10205078125
 20
30.84503173828125
  0
LWPOLYLINE
  5
3C
330
17
100
AcDbEntity
  8
SCHEMATICS
 62
7
100
AcDbPolyline
 90
9
 70
0
 10
522.10205078125
 20
30.84503173828125
 10
522.1402840614319
 20
30.489162802696228
 10
522.2340126037598
 20
30.162203788757324
 10
522.3775973320007
 20
29.864751935005188
 10
522.5653991699219
 20
29.59740447998047
 10
522.7917790412903
 20
29.360758662223816
 10
523.051097869873
 20
29.15541172027588
 10
523.3377165794373
 20
28.981960892677307
 10
523.64599609375
 20
28.84100341796875
  0
LWPOLYLINE
  5
3D
330
17
100
AcDbEntity
  8
SCHEMATICS
 62
7
100
AcDbPolyline
 90
9
 70
0
 10
523.64599609375
 20
28.84100341796875
 10
524.3978416919708
 20
28.569931745529175
 10
525.0466747283936
 20
28.380552291870117
 10
525.5944879055023
 20
28.238868951797485
 10
526.0432739257812
 20
28.110885620117188
 10
526.3950254917145
 20
27.962606191635132
 10
526.6517353057861
 20
27.760034561157227
 10
526.8153960704803
 20
27.46917462348938
 10
526.8880004882812
 20
27.0560302734375
  0
LWPOLYLINE
  5
3E
330
17
100
AcDbEntity
  8
SCHEMATICS
 62
7
100
AcDbPolyline
 90
9
 70
0
 10
526.8880004882812
 20
27.0560302734375
 10
526.8578292131424
 20
26.764849185943604
 10
526.7443170547485
 20
26.529541015625
 10
526.5658382177353
 20
26.34560537338257
 10
526.3407669067383
 20
26.208541870117188
 10
526.0874773263931
 20
26.113850116729736
 10
525.8243436813354
 20
26.057029724121094
 10
525.5697401762009
 20
26.03358030319214
 10
525.342041015625
 20
26.03900146484375
  0
LWPOLYLINE
  5
3F
330
17
100
AcDbEntity
  8
SCHEMATICS
 62
7
100
AcDbPolyline
 90
9
 70
0
 10
525.342041015625
 20
26.03900146484375
 10
525.0662280321121
 20
26.071051239967346
 10
524.8018655776978
 20
26.12119770050049
 10
524.5531829595566
 20
26.193564295768738
 10
524.3244094848633
 20
26.292274475097656
 10
524.1197744607925
 20
26.421451687812805
 10
523.943507194519
 20
26.585219383239746
 10
523.7998369932175
 20
26.78770101070404
 10
523.6929931640625
 20
27.03302001953125
  0
LWPOLYLINE
  5
40
330
17
100
AcDbEntity
  8
SCHEMATICS
 62
7
100
AcDbPolyline
 90
9
 70
0
 10
523.6929931640625
 20
27.03302001953125
 10
523.6746904850006
 20
27.09079599380493
 10
523.6593990325928
 20
27.144397735595703
 10
523.6469428539276
 20
27.195373058319092
 10
523.6371459960938
 20
27.245269775390625
 10
523.6298325061798
 20
27.29563570022583
 10
523.6248264312744
 20
27.348018646240234
 10
523.6219518184662
 20
27.403966426849365
 10
523.6210327148438
 20
27.46502685546875
  0
LINE
  5
41
330
17
100
AcDbEntity
  8
SCHEMATICS
 62
7
100
AcDbLine
 10
523.6210327148438
 20
27.46502685546875
 30
0.0
 11
523.6210327148438
 21
27.58502197265625
 31
0.0
  0
LINE
  5
42
330
17
100
AcDbEntity
  8
SCHEMATICS
 62
7
100
AcDbLine
 10
523.6210327148438
 20
27.58502197265625
 30
0.0
 11
521.8400268554688
 21
27.58502197265625
 31
0.0
  0
LINE
  5
43
330
17
100
AcDbEntity
  8
SCHEMATICS
 62
7
100
AcDbLine
 10
521.8400268554688
 20
27.58502197265625
 30
0.0
 11
521.8400268554688
 21
27.32501220703125
 31
0.0
  0
LWPOLYLINE
  5
44
330
17
100
AcDbEntity
  8
SCHEMATICS
 62
7
100
AcDbPolyline
 90
9
 70
0
 10
521.8400268554688
 20
27.32501220703125
 10
521.9176465272903
 20
26.656444191932678
 10
522.1373567581177
 20
26.07006549835205
 10
522.4794343709946
 20
25.568666338920593
 10
522.9241561889648
 20
25.15503692626953
 10
523.4517990350723
 20
24.83196747303009
 10
524.0426397323608
 20
24.602248191833496
 10
524.6769551038742
 20
24.468669295310974
 10
525.3350219726562
 20
24.43402099609375
  0
LWPOLYLINE
  5
45
330
17
100
AcDbEntity
  8
SCHEMATICS
 62
7
100
AcDbPolyline
 90
9
 70
0
 10
525.3350219726562
 20
24.43402099609375
 10
525.9684604406357
 20
24.49103045463562
 10
526.5801343917847
 20
24.631174087524414
 10
527.1495953798294
 20
24.855365991592407
 10
527.6563949584961
 20
25.164520263671875
 10
528.0800846815109
 20
25.559551000595093
 10
528.4002161026001
 20
26.041372299194336
 10
528.5963407754898
 20
26.61089825630188
 10
528.6480102539062
 20
27.26904296875
  0
LWPOLYLINE
  5
46
330
17
100
AcDbEntity
  8
SCHEMATICS
 62
7
100
AcDbPolyline
 90
9
 70
0
 10
528.6480102539062
 20
27.26904296875
 10
528.38895881176
 20
28.396867275238037
 10
527.7939023971558
 20
29.147708892822266
 10
526.9819046258926
 20
29.62149477005005
 10
526.0720291137695
 20
29.91815185546875
 10
525.1833394765854
 20
30.137607097625732
 10
524.4348993301392
 20
30.37978744506836
 10
523.9457722902298
 20
30.744619846343994
 10
523.8350219726562
 20
31.33203125
  0
LINE
  5
47
330
17
100
AcDbEntity
  8
SCHEMATICS
 62
7
100
AcDbLine
 10
519.0599975585938
 20
29.9990234375
 30
0.0
 11
515.822998046875
 21
29.9990234375
 31
0.0
  0
LINE
  5
48
330
17
100
AcDbEntity
  8
SCHEMATICS
 62
7
100
AcDbLine
 10
515.822998046875
 20
29.9990234375
 30
0.0
 11
515.822998046875
 21
33.4730224609375
 31
0.0
  0
LINE
  5
49
330
17
100
AcDbEntity
  8
SCHEMATICS
 62
7
100
AcDbLine
 10
515.822998046875
 20
33.4730224609375
 30
0.0
 11
514.0419921875
 21
33.4730224609375
 31
0.0
  0
LINE
  5
4A
330
17
100
AcDbEntity
  8
SCHEMATICS
 62
7
100
AcDbLine
 10
514.0419921875
 20
33.4730224609375
 30
0.0
 11
514.0419921875
 21
24.65704345703125
 31
0.0
  0
LINE
  5
4B
330
17
100
AcDbEntity
  8
SCHEMATICS
 62
7
100
AcDbLine
 10
514.0419921875
 20
24.65704345703125
 30
0.0
 11
515.822998046875
 21
24.65704345703125
 31
0.0
  0
LINE
  5
4C
330
17
100
AcDbEntity
  8
SCHEMATICS
 62
7
100
AcDbLine
 10
515.822998046875
 20
24.65704345703125
 30
0.0
 11
515.822998046875
 21
28.427001953125
 31
0.0
  0
LINE
  5
4D
330
17
100
AcDbEntity
  8
SCHEMATICS
 62
7
100
AcDbLine
 10
515.822998046875
 20
28.427001953125
 30
0.0
 11
519.0599975585938
 21
28.427001953125
 31
0.0
  0
LINE
  5
4E
330
17
100
AcDbEntity
  8
SCHEMATICS
 62
7
100
AcDbLine
 10
519.0599975585938
 20
28.427001953125
 30
0.0
 11
519.0599975585938
 21
24.65704345703125
 31
0.0
  0
LINE
  5
4F
330
17
100
AcDbEntity
  8
SCHEMATICS
 62
7
100
AcDbLine
 10
519.0599975585938
 20
24.65704345703125
 30
0.0
 11
520.8280029296875
 21
24.65704345703125
 31
0.0
  0
LINE
  5
50
330
17
100
AcDbEntity
  8
SCHEMATICS
 62
7
100
AcDbLine
 10
520.8280029296875
 20
24.65704345703125
 30
0.0
 11
520.8280029296875
 21
33.4730224609375
 31
0.0
  0
LINE
  5
51
330
17
100
AcDbEntity
  8
SCHEMATICS
 62
7
100
AcDbLine
 10
520.8280029296875
 20
33.4730224609375
 30
0.0
 11
519.0599975585938
 21
33.4730224609375
 31
0.0
  0
LINE
  5
52
330
17
100
AcDbEntity
  8
SCHEMATICS
 62
7
100
AcDbLine
 10
519.0599975585938
 20
33.4730224609375
 30
0.0
 11
519.0599975585938
 21
29.9990234375
 31
0.0
  0
LINE
  5
53
330
17
100
AcDbEntity
  8
SCHEMATICS
 62
7
100
AcDbLine
 10
512.8569946289062
 20
28.0579833984375
 30
0.0
 11
511.125
 21
28.0579833984375
 31
0.0
  0
LINE
  5
54
330
17
100
AcDbEntity
  8
SCHEMATICS
 62
7
100
AcDbLine
 10
511.125
 20
28.0579833984375
 30
0.0
 11
511.125
 21
27.78497314453125
 31
0.0
  0
LWPOLYLINE
  5
55
330
17
100
AcDbEntity
  8
SCHEMATICS
 62
7
100
AcDbPolyline
 90
9
 70
0
 10
511.125
 20
27.78497314453125
 10
511.0871556997299
 20
27.431196570396423
 10
510.97937297821045
 20
27.099955558776855
 10
510.81027710437775
 20
26.79962933063507
 10
510.58849334716797
 20
26.538597106933594
 10
510.3226469755173
 20
26.32523810863495
 10
510.0213632583618
 20
26.16793155670166
 10
509.69326746463776
 20
26.075056672096252
 10
509.34698486328125
 20
26.05499267578125
  0
LWPOLYLINE
  5
56
330
17
100
AcDbEntity
  8
SCHEMATICS
 62
7
100
AcDbPolyline
 90
9
 70
0
 10
509.34698486328125
 20
26.05499267578125
 10
508.8777097463608
 20
26.119768381118774
 10
508.4836187362671
 20
26.24549674987793
 10
508.15646278858185
 20
26.42712664604187
 10
507.8879928588867
 20
26.65960693359375
 10
507.66995990276337
 20
26.937886476516724
 10
507.49411487579346
 20
27.256914138793945
 10
507.35220873355865
 20
27.61163878440857
 10
507.2359924316406
 20
27.99700927734375
  0
LWPOLYLINE
  5
57
330
17
100
AcDbEntity
  8
SCHEMATICS
 62
7
100
AcDbPolyline
 90
9
 70
0
 10
507.2359924316406
 20
27.99700927734375
 10
507.199526488781
 20
28.14680278301239
 10
507.173198223114
 20
28.29257869720459
 10
507.1556125283241
 20
28.436785340309143
 10
507.1453742980957
 20
28.581871032714844
 10
507.14108842611313
 20
28.730284094810486
 10
507.1413598060608
 20
28.884472846984863
 10
507.1447933316231
 20
29.04688560962677
 10
507.1499938964844
 20
29.219970703125
  0
LWPOLYLINE
  5
58
330
17
100
AcDbEntity
  8
SCHEMATICS
 62
7
100
AcDbPolyline
 90
9
 70
0
 10
507.1499938964844
 20
29.219970703125
 10
507.1591682434082
 20
29.409112453460693
 10
507.1761360168457
 20
29.594749450683594
 10
507.1996898651123
 20
29.774595737457275
 10
507.22862243652344
 20
29.946365356445312
 10
507.26172637939453
 20
30.10777235031128
 10
507.297794342041
 20
30.25653076171875
 10
507.3356189727783
 20
30.3903546333313
 10
507.3739929199219
 20
30.5069580078125
  0
LWPOLYLINE
  5
59
330
17
100
AcDbEntity
  8
SCHEMATICS
 62
7
100
AcDbPolyline
 90
9
 70
0
 10
507.3739929199219
 20
30.5069580078125
 10
507.5120792388916
 20
30.837268590927124
 10
507.68740463256836
 20
31.138429641723633
 10
507.8982124328613
 20
31.40520405769348
 10
508.1427459716797
 20
31.632354736328125
 10
508.4192485809326
 20
31.81464457511902
 10
508.7259635925293
 20
31.946836471557617
 10
509.0611343383789
 20
32.023693323135376
 10
509.4230041503906
 20
32.03997802734375
  0
LWPOLYLINE
  5
5A
330
17
100
AcDbEntity
  8
SCHEMATICS
 62
7
100
AcDbPolyline
 90
9
 70
0
 10
509.4230041503906
 20
32.03997802734375
 10
509.661096572876
 20
32.01768958568573
 10
509.88117599487305
 20
31.972792625427246
 10
510.0844497680664
 20
31.90452539920807
 10
510.2721252441406
 20
31.81212615966797
 10
510.4454097747803
 20
31.694833159446716
 10
510.6055107116699
 20
31.551884651184082
 10
510.75363540649414
 20
31.382518887519836
 10
510.8909912109375
 20
31.18597412109375
  0
LWPOLYLINE
  5
5B
330
17
100
AcDbEntity
  8
SCHEMATICS
 62
7
100
AcDbPolyline
 90
9
 70
0
 10
510.8909912109375
 20
31.18597412109375
 10
510.9452015161514
 20
31.095747709274292
 10
510.99019145965576
 20
31.01027488708496
 10
511.0272377729416
 20
30.927282571792603
 10
511.0576171875
 20
30.844497680664062
 10
511.0826064348221
 20
30.759647130966187
 10
511.1034822463989
 20
30.67045783996582
 10
511.1215213537216
 20
30.57465672492981
 10
511.13800048828125
 20
30.469970703125
  0
LINE
  5
5C
330
17
100
AcDbEntity
  8
SCHEMATICS
 62
7
100
AcDbLine
 10
511.13800048828125
 20
30.469970703125
 30
0.0
 11
512.8569946289062
 21
30.469970703125
 31
0.0
  0
LINE
  5
5D
330
17
100
AcDbEntity
  8
SCHEMATICS
 62
7
100
AcDbLine
 10
512.8569946289062
 20
30.469970703125
 30
0.0
 11
512.8189697265625
 21
30.69000244140625
 31
0.0
  0
LWPOLYLINE
  5
5E
330
17
100
AcDbEntity
  8
SCHEMATICS
 62
7
100
AcDbPolyline
 90
9
 70
0
 10
512.8189697265625
 20
30.69000244140625
 10
512.7879178524017
 20
30.871502161026
 10
512.7439785003662
 20
31.080411911010742
 10
512.6788532733917
 20
31.3150794506073
 10
512.5842437744141
 20
31.5738525390625
 10
512.451851606369
 20
31.85507893562317
 10
512.2733783721924
 20
32.15710639953613
 10
512.04052567482
 20
32.47828269004822
 10
511.7449951171875
 20
32.81695556640625
  0
LWPOLYLINE
  5
5F
330
17
100
AcDbEntity
  8
SCHEMATICS
 62
7
100
AcDbPolyline
 90
9
 70
0
 10
511.7449951171875
 20
32.81695556640625
 10
511.49500262737274
 20
33.053444027900696
 10
511.2356939315796
 20
33.244465827941895
 10
510.96506559848785
 20
33.39423882961273
 10
510.68111419677734
 20
33.506980895996094
 10
510.38183629512787
 20
33.586909890174866
 10
510.06522846221924
 20
33.638243675231934
 10
509.72928726673126
 20
33.66520011425018
 10
509.37200927734375
 20
33.6719970703125
  0
LWPOLYLINE
  5
60
330
17
100
AcDbEntity
  8
SCHEMATICS
 62
7
100
AcDbPolyline
 90
9
 70
0
 10
509.37200927734375
 20
33.6719970703125
 10
509.0670922398567
 20
33.662845730781555
 10
508.78709077835083
 20
33.63746738433838
 10
508.525606572628
 20
33.594443678855896
 10
508.27624130249023
 20
33.53235626220703
 10
508.0325966477394
 20
33.44978678226471
 10
507.7882742881775
 20
33.345316886901855
 10
507.5368759036064
 20
33.217528223991394
 10
507.2720031738281
 20
33.06500244140625
  0
LWPOLYLINE
  5
61
330
17
100
AcDbEntity
  8
SCHEMATICS
 62
7
100
AcDbPolyline
 90
9
 70
0
 10
507.2720031738281
 20
33.06500244140625
 10
506.78091168403625
 20
32.71569550037384
 10
506.38171768188477
 20
32.32030963897705
 10
506.0655391216278
 20
31.882267355918884
 10
505.82349395751953
 20
31.404991149902344
 10
505.6467001438141
 20
30.891903519630432
 10
505.5262756347656
 20
30.346426963806152
 10
505.4533383846283
 20
29.771983981132507
 10
505.41900634765625
 20
29.1719970703125
  0
LWPOLYLINE
  5
62
330
17
100
AcDbEntity
  8
SCHEMATICS
 62
7
100
AcDbPolyline
 90
9
 70
0
 10
505.41900634765625
 20
29.1719970703125
 10
505.45536410808563
 20
28.308309197425842
 10
505.611065864563
 20
27.462483406066895
 10
505.8874241113663
 20
26.66372287273407
 10
506.28575134277344
 20
25.94123077392578
 10
506.80736005306244
 20
25.324210286140442
 10
507.45356273651123
 20
24.841864585876465
 10
508.22567188739777
 20
24.523396849632263
 10
509.125
 20
24.39801025390625
  0
LWPOLYLINE
  5
63
330
17
100
AcDbEntity
  8
SCHEMATICS
 62
7
100
AcDbPolyline
 90
9
 70
0
 10
509.125
 20
24.39801025390625
 10
509.7890266776085
 20
24.438896536827087
 10
510.42057752609253
 20
24.57688808441162
 10
511.0072439312935
 20
24.80793011188507
 10
511.53661727905273
 20
25.127967834472656
 10
511.99628895521164
 20
25.532946467399597
 10
512.3738503456116
 20
26.018811225891113
 10
512.6568928360939
 20
26.581507325172424
 10
512.8330078125
 20
27.21697998046875
  0
LWPOLYLINE
  5
64
330
17
100
AcDbEntity
  8
SCHEMATICS
 62
7
100
AcDbPolyline
 90
9
 70
0
 10
512.8330078125
 20
27.21697998046875
 10
512.8485329151154
 20
27.3106027841568
 10
512.8607234954834
 20
27.3966646194458
 10
512.8697068691254
 20
27.47773253917694
 10
512.8756103515625
 20
27.556373596191406
 10
512.878561258316
 20
27.635154843330383
 10
512.8786869049072
 20
27.71664333343506
 10
512.8761146068573
 20
27.80340611934662
 10
512.8709716796875
 20
27.89801025390625
  0
LINE
  5
65
330
17
100
AcDbEntity
  8
SCHEMATICS
 62
7
100
AcDbLine
 10
512.8709716796875
 20
27.89801025390625
 30
0.0
 11
512.8569946289062
 21
28.0579833984375
 31
0.0
  0
LINE
  5
66
330
17
100
AcDbEntity
  8
SCHEMATICS
 62
7
100
AcDbLine
 10
502.625
 20
28.3909912109375
 30
0.0
 11
502.625
 21
27.64898681640625
 31
0.0
  0
LWPOLYLINE
  5
67
330
17
100
AcDbEntity
  8
SCHEMATICS
 62
7
100
AcDbPolyline
 90
9
 70
0
 10
502.625
 20
27.64898681640625
 10
502.61771899461746
 20
27.455802083015442
 10
502.5948758125305
 20
27.275418281555176
 10
502.55497020483017
 20
27.106943488121033
 10
502.4965019226074
 20
26.949485778808594
 10
502.4179707169533
 20
26.80215322971344
 10
502.31787633895874
 20
26.664053916931152
 10
502.1947185397148
 20
26.534295916557312
 10
502.0469970703125
 20
26.4119873046875
  0
LWPOLYLINE
  5
68
330
17
100
AcDbEntity
  8
SCHEMATICS
 62
7
100
AcDbPolyline
 90
9
 70
0
 10
502.0469970703125
 20
26.4119873046875
 10
501.91501289606094
 20
26.324236154556274
 10
501.78536081314087
 20
26.257875442504883
 10
501.65587252378464
 20
26.210102796554565
 10
501.5243797302246
 20
26.178115844726562
 10
501.38871413469315
 20
26.159112215042114
 10
501.2467074394226
 20
26.15028953552246
 10
501.09619134664536
 20
26.148845434188843
 10
500.93499755859375
 20
26.1519775390625
  0
LWPOLYLINE
  5
69
330
17
100
AcDbEntity
  8
SCHEMATICS
 62
7
100
AcDbPolyline
 90
9
 70
0
 10
500.93499755859375
 20
26.1519775390625
 10
500.7917230129242
 20
26.157654881477356
 10
500.65882110595703
 20
26.166451454162598
 10
500.53391289711
 20
26.180639624595642
 10
500.4146194458008
 20
26.202491760253906
 10
500.29856181144714
 20
26.234280228614807
 10
500.1833610534668
 20
26.27827739715576
 10
500.06663823127747
 20
26.336755633354187
 10
499.9460144042969
 20
26.4119873046875
  0
LWPOLYLINE
  5
6A
330
17
100
AcDbEntity
  8
SCHEMATICS
 62
7
100
AcDbPolyline
 90
9
 70
0
 10
499.9460144042969
 20
26.4119873046875
 10
499.78952580690384
 20
26.531169176101685
 10
499.65733194351196
 20
26.658414840698242
 10
499.54794400930405
 20
26.794755697250366
 10
499.4598731994629
 20
26.94122314453125
 10
499.3916307091713
 20
27.098848581314087
 10
499.34172773361206
 20
27.26866340637207
 10
499.308675467968
 20
27.451699018478394
 10
499.2909851074219
 20
27.64898681640625
  0
LINE
  5
6B
330
17
100
AcDbEntity
  8
SCHEMATICS
 62
7
100
AcDbLine
 10
499.2909851074219
 20
27.64898681640625
 30
0.0
 11
499.25299072265625
 21
28.3909912109375
 31
0.0
  0
LINE
  5
6C
330
17
100
AcDbEntity
  8
SCHEMATICS
 62
7
100
AcDbLine
 10
499.25299072265625
 20
28.3909912109375
 30
0.0
 11
499.25299072265625
 21
33.47296142578125
 31
0.0
  0
LINE
  5
6D
330
17
100
AcDbEntity
  8
SCHEMATICS
 62
7
100
AcDbLine
 10
499.25299072265625
 20
33.47296142578125
 30
0.0
 11
497.4729919433594
 21
33.47296142578125
 31
0.0
  0
LINE
  5
6E
330
17
100
AcDbEntity
  8
SCHEMATICS
 62
7
100
AcDbLine
 10
497.4729919433594
 20
33.47296142578125
 30
0.0
 11
497.4729919433594
 21
27.80999755859375
 31
0.0
  0
LWPOLYLINE
  5
6F
330
17
100
AcDbEntity
  8
SCHEMATICS
 62
7
100
AcDbPolyline
 90
9
 70
0
 10
497.4729919433594
 20
27.80999755859375
 10
497.47374868392944
 20
27.73550772666931
 10
497.47604179382324
 20
27.66742515563965
 10
497.47990560531616
 20
27.60372281074524
 10
497.4853744506836
 20
27.542373657226562
 10
497.4924826622009
 20
27.481350660324097
 10
497.50126457214355
 20
27.41862678527832
 10
497.51175451278687
 20
27.352174997329712
 10
497.52398681640625
 20
27.27996826171875
  0
LWPOLYLINE
  5
70
330
17
100
AcDbEntity
  8
SCHEMATICS
 62
7
100
AcDbPolyline
 90
9
 70
0
 10
497.52398681640625
 20
27.27996826171875
 10
497.63591837882996
 20
26.781912088394165
 10
497.79820251464844
 20
26.324403762817383
 10
498.01160168647766
 20
25.9099280834198
 10
498.2768783569336
 20
25.540969848632812
 10
498.5947949886322
 20
25.220013856887817
 10
498.96611404418945
 20
24.94954490661621
 10
499.3915979862213
 20
24.73204779624939
 10
499.87200927734375
 20
24.57000732421875
  0
LWPOLYLINE
  5
71
330
17
100
AcDbEntity
  8
SCHEMATICS
 62
7
100
AcDbPolyline
 90
9
 70
0
 10
499.87200927734375
 20
24.57000732421875
 10
500.01961475610733
 20
24.535550355911255
 10
500.1560654640198
 20
24.51128578186035
 10
500.2852985262871
 20
24.495504140853882
 10
500.41125106811523
 20
24.486495971679688
 10
500.53786021471024
 20
24.48255181312561
 10
500.6690630912781
 20
24.481962203979492
 10
500.80879682302475
 20
24.483017683029175
 10
500.96099853515625
 20
24.4840087890625
  0
LWPOLYLINE
  5
72
330
17
100
AcDbEntity
  8
SCHEMATICS
 62
7
100
AcDbPolyline
 90
9
 70
0
 10
500.96099853515625
 20
24.4840087890625
 10
501.1044660806656
 20
24.484914541244507
 10
501.2359094619751
 20
24.487546920776367
 10
501.3591488599777
 20
24.49287724494934
 10
501.4780044555664
 20
24.501876831054688
 10
501.5962964296341
 20
24.515516996383667
 10
501.71784496307373
 20
24.53476905822754
 10
501.84647023677826
 20
24.560604333877563
 10
501.9859924316406
 20
24.593994140625
  0
LWPOLYLINE
  5
73
330
17
100
AcDbEntity
  8
SCHEMATICS
 62
7
100
AcDbPolyline
 90
9
 70
0
 10
501.9859924316406
 20
24.593994140625
 10
502.4753562808037
 20
24.754509806632996
 10
502.9201865196228
 20
24.968153953552246
 10
503.31560903787613
 20
25.233592629432678
 10
503.6567497253418
 20
25.54949188232422
 10
503.93873447179794
 20
25.914517760276794
 10
504.1566891670227
 20
26.327336311340332
 10
504.3057397007942
 20
26.78661358356476
 10
504.3810119628906
 20
27.291015625
  0
LINE
  5
74
330
17
100
AcDbEntity
  8
SCHEMATICS
 62
7
100
AcDbLine
 10
504.3810119628906
 20
27.291015625
 30
0.0
 11
504.4159851074219
 21
27.823974609375
 31
0.0
  0
LINE
  5
75
330
17
100
AcDbEntity
  8
SCHEMATICS
 62
7
100
AcDbLine
 10
504.4159851074219
 20
27.823974609375
 30
0.0
 11
504.4159851074219
 21
33.47296142578125
 31
0.0
  0
LINE
  5
76
330
17
100
AcDbEntity
  8
SCHEMATICS
 62
7
100
AcDbLine
 10
504.4159851074219
 20
33.47296142578125
 30
0.0
 11
502.625
 21
33.47296142578125
 31
0.0
  0
LINE
  5
77
330
17
100
AcDbEntity
  8
SCHEMATICS
 62
7
100
AcDbLine
 10
502.625
 20
33.47296142578125
 30
0.0
 11
502.625
 21
28.3909912109375
 31
0.0
  0
LINE
  5
78
330
17
100
AcDbEntity
  8
SCHEMATICS
 62
7
100
AcDbLine
 10
490.614990234375
 20
24.65899658203125
 30
0.0
 11
492.4049987792969
 21
24.65899658203125
 31
0.0
  0
LINE
  5
79
330
17
100
AcDbEntity
  8
SCHEMATICS
 62
7
100
AcDbLine
 10
492.4049987792969
 20
24.65899658203125
 30
0.0
 11
492.4049987792969
 21
28.3909912109375
 31
0.0
  0
LINE
  5
7A
330
17
100
AcDbEntity
  8
SCHEMATICS
 62
7
100
AcDbLine
 10
492.4049987792969
 20
28.3909912109375
 30
0.0
 11
495.82598876953125
 21
28.3909912109375
 31
0.0
  0
LINE
  5
7B
330
17
100
AcDbEntity
  8
SCHEMATICS
 62
7
100
AcDbLine
 10
495.82598876953125
 20
28.3909912109375
 30
0.0
 11
495.82598876953125
 21
29.95001220703125
 31
0.0
  0
LINE
  5
7C
330
17
100
AcDbEntity
  8
SCHEMATICS
 62
7
100
AcDbLine
 10
495.82598876953125
 20
29.95001220703125
 30
0.0
 11
492.4049987792969
 21
29.95001220703125
 31
0.0
  0
LINE
  5
7D
330
17
100
AcDbEntity
  8
SCHEMATICS
 62
7
100
AcDbLine
 10
492.4049987792969
 20
29.95001220703125
 30
0.0
 11
492.4049987792969
 21
31.84100341796875
 31
0.0
  0
LINE
  5
7E
330
17
100
AcDbEntity
  8
SCHEMATICS
 62
7
100
AcDbLine
 10
492.4049987792969
 20
31.84100341796875
 30
0.0
 11
496.3320007324219
 21
31.84100341796875
 31
0.0
  0
LINE
  5
7F
330
17
100
AcDbEntity
  8
SCHEMATICS
 62
7
100
AcDbLine
 10
496.3320007324219
 20
31.84100341796875
 30
0.0
 11
496.3320007324219
 21
33.4730224609375
 31
0.0
  0
LINE
  5
80
330
17
100
AcDbEntity
  8
SCHEMATICS
 62
7
100
AcDbLine
 10
496.3320007324219
 20
33.4730224609375
 30
0.0
 11
490.614990234375
 21
33.4730224609375
 31
0.0
  0
LINE
  5
81
330
17
100
AcDbEntity
  8
SCHEMATICS
 62
7
100
AcDbLine
 10
490.614990234375
 20
33.4730224609375
 30
0.0
 11
490.614990234375
 21
24.65899658203125
 31
0.0
  0
LINE
  5
82
330
17
100
AcDbEntity
  8
SCHEMATICS
 62
7
100
AcDbLine
 10
489.28399658203125
 20
28.39300537109375
 30
0.0
 11
487.2380065917969
 21
28.39300537109375
 31
0.0
  0
LINE
  5
83
330
17
100
AcDbEntity
  8
SCHEMATICS
 62
7
100
AcDbLine
 10
487.2380065917969
 20
28.39300537109375
 30
0.0
 11
487.2380065917969
 21
30.531005859375
 31
0.0
  0
LINE
  5
84
330
17
100
AcDbEntity
  8
SCHEMATICS
 62
7
100
AcDbLine
 10
487.2380065917969
 20
30.531005859375
 30
0.0
 11
485.4519958496094
 21
30.531005859375
 31
0.0
  0
LINE
  5
85
330
17
100
AcDbEntity
  8
SCHEMATICS
 62
7
100
AcDbLine
 10
485.4519958496094
 20
30.531005859375
 30
0.0
 11
485.4519958496094
 21
28.39300537109375
 31
0.0
  0
LINE
  5
86
330
17
100
AcDbEntity
  8
SCHEMATICS
 62
7
100
AcDbLine
 10
485.4519958496094
 20
28.39300537109375
 30
0.0
 11
483.406982421875
 21
28.39300537109375
 31
0.0
  0
LINE
  5
87
330
17
100
AcDbEntity
  8
SCHEMATICS
 62
7
100
AcDbLine
 10
483.406982421875
 20
28.39300537109375
 30
0.0
 11
483.406982421875
 21
26.82403564453125
 31
0.0
  0
LINE
  5
88
330
17
100
AcDbEntity
  8
SCHEMATICS
 62
7
100
AcDbLine
 10
483.406982421875
 20
26.82403564453125
 30
0.0
 11
485.4519958496094
 21
26.82403564453125
 31
0.0
  0
LINE
  5
89
330
17
100
AcDbEntity
  8
SCHEMATICS
 62
7
100
AcDbLine
 10
485.4519958496094
 20
26.82403564453125
 30
0.0
 11
485.4519958496094
 21
24.656982421875
 31
0.0
  0
LINE
  5
8A
330
17
100
AcDbEntity
  8
SCHEMATICS
 62
7
100
AcDbLine
 10
485.4519958496094
 20
24.656982421875
 30
0.0
 11
487.2380065917969
 21
24.656982421875
 31
0.0
  0
LINE
  5
8B
330
17
100
AcDbEntity
  8
SCHEMATICS
 62
7
100
AcDbLine
 10
487.2380065917969
 20
24.656982421875
 30
0.0
 11
487.2380065917969
 21
26.82403564453125
 31
0.0
  0
LINE
  5
8C
330
17
100
AcDbEntity
  8
SCHEMATICS
 62
7
100
AcDbLine
 10
487.2380065917969
 20
26.82403564453125
 30
0.0
 11
489.28399658203125
 21
26.82403564453125
 31
0.0
  0
LINE
  5
8D
330
17
100
AcDbEntity
  8
SCHEMATICS
 62
7
100
AcDbLine
 10
489.28399658203125
 20
26.82403564453125
 30
0.0
 11
489.28399658203125
 21
28.39300537109375
 31
0.0
  0
LINE
  5
8E
330
17
100
AcDbEntity
  8
SCHEMATICS
 62
7
100
AcDbLine
 10
478.5409851074219
 20
26.27398681640625
 30
0.0
 11
478.5409851074219
 21
33.4630126953125
 31
0.0
  0
LINE
  5
8F
330
17
100
AcDbEntity
  8
SCHEMATICS
 62
7
100
AcDbLine
 10
478.5409851074219
 20
33.4630126953125
 30
0.0
 11
476.7519836425781
 21
33.4630126953125
 31
0.0
  0
LINE
  5
90
330
17
100
AcDbEntity
  8
SCHEMATICS
 62
7
100
AcDbLine
 10
476.7519836425781
 20
33.4630126953125
 30
0.0
 11
476.7519836425781
 21
24.65997314453125
 31
0.0
  0
LINE
  5
91
330
17
100
AcDbEntity
  8
SCHEMATICS
 62
7
100
AcDbLine
 10
476.7519836425781
 20
24.65997314453125
 30
0.0
 11
482.4639892578125
 21
24.65997314453125
 31
0.0
  0
LINE
  5
92
330
17
100
AcDbEntity
  8
SCHEMATICS
 62
7
100
AcDbLine
 10
482.4639892578125
 20
24.65997314453125
 30
0.0
 11
482.4639892578125
 21
26.27398681640625
 31
0.0
  0
LINE
  5
93
330
17
100
AcDbEntity
  8
SCHEMATICS
 62
7
100
AcDbLine
 10
482.4639892578125
 20
26.27398681640625
 30
0.0
 11
478.5409851074219
 21
26.27398681640625
 31
0.0
  0
LWPOLYLINE
  5
94
330
17
100
AcDbEntity
  8
SCHEMATICS
 62
7
100
AcDbPolyline
 90
9
 70
0
 10
473.5050048828125
 20
30.55499267578125
 10
473.46706598997116
 20
30.329385638237
 10
473.4010157585144
 20
30.1331205368042
 10
473.30874067544937
 20
29.96591627597809
 10
473.1921272277832
 20
29.827491760253906
 10
473.05306190252304
 20
29.717565894126892
 10
472.893431186676
 20
29.635857582092285
 10
472.7151215672493
 20
29.582085728645325
 10
472.52001953125
 20
29.55596923828125
  0
LINE
  5
95
330
17
100
AcDbEntity
  8
SCHEMATICS
 62
7
100
AcDbLine
 10
472.52001953125
 20
29.55596923828125
 30
0.0
 11
472.0989990234375
 21
29.531982421875
 31
0.0
  0
LINE
  5
96
330
17
100
AcDbEntity
  8
SCHEMATICS
 62
7
100
AcDbLine
 10
472.0989990234375
 20
29.531982421875
 30
0.0
 11
470.3990173339844
 21
29.531982421875
 31
0.0
  0
LINE
  5
97
330
17
100
AcDbEntity
  8
SCHEMATICS
 62
7
100
AcDbLine
 10
470.3990173339844
 20
29.531982421875
 30
0.0
 11
470.3990173339844
 21
31.89898681640625
 31
0.0
  0
LINE
  5
98
330
17
100
AcDbEntity
  8
SCHEMATICS
 62
7
100
AcDbLine
 10
470.3990173339844
 20
31.89898681640625
 30
0.0
 11
472.5299987792969
 21
31.89898681640625
 31
0.0
  0
LWPOLYLINE
  5
99
330
17
100
AcDbEntity
  8
SCHEMATICS
 62
7
100
AcDbPolyline
 90
9
 70
0
 10
472.5299987792969
 20
31.89898681640625
 10
472.7126632332802
 20
31.87509560585022
 10
472.8803505897522
 20
31.83650016784668
 10
473.031865298748
 20
31.777680158615112
 10
473.16601181030273
 20
31.693115234375
 10
473.28159457445145
 20
31.577285051345825
 10
473.37741804122925
 20
31.42466926574707
 10
473.45228666067123
 20
31.229747533798218
 10
473.5050048828125
 20
30.98699951171875
  0
LWPOLYLINE
  5
9A
330
17
100
AcDbEntity
  8
SCHEMATICS
 62
7
100
AcDbPolyline
 90
9
 70
0
 10
473.5050048828125
 20
30.98699951171875
 10
473.5086097717285
 20
30.938856601715088
 10
473.5111846923828
 20
30.88784408569336
 10
473.5127296447754
 20
30.83455991744995
 10
473.51324462890625
 20
30.77960205078125
 10
473.5127296447754
 20
30.723568439483643
 10
473.5111846923828
 20
30.667057037353516
 10
473.5086097717285
 20
30.610665798187256
 10
473.5050048828125
 20
30.55499267578125
  0
LWPOLYLINE
  5
9B
330
17
100
AcDbEntity
  8
SCHEMATICS
 62
7
100
AcDbPolyline
 90
9
 70
0
 10
475.29400634765625
 20
25.58197021484375
 10
475.2543795108795
 20
25.836836576461792
 10
475.2299404144287
 20
26.06855583190918
 10
475.21609568595886
 20
26.28557801246643
 10
475.208251953125
 20
26.496353149414062
 10
475.20181584358215
 20
26.709331274032593
 10
475.19219398498535
 20
26.93296241760254
 10
475.1747930049896
 20
27.17569661140442
 10
475.14501953125
 20
27.44598388671875
  0
LWPOLYLINE
  5
9C
330
17
100
AcDbEntity
  8
SCHEMATICS
 62
7
100
AcDbPolyline
 90
9
 70
0
 10
475.14501953125
 20
27.44598388671875
 10
475.12531650066376
 20
27.561529874801636
 10
475.0836057662964
 20
27.707658767700195
 10
475.0200983285904
 20
27.875019311904907
 10
474.9350051879883
 20
28.05426025390625
 10
474.82853734493256
 20
28.236030340194702
 10
474.7009057998657
 20
28.410978317260742
 10
474.5523215532303
 20
28.56975293159485
 10
474.38299560546875
 20
28.7030029296875
  0
LINE
  5
9D
330
17
100
AcDbEntity
  8
SCHEMATICS
 62
7
100
AcDbLine
 10
474.38299560546875
 20
28.7030029296875
 30
0.0
 11
474.13201904296875
 21
28.865966796875
 31
0.0
  0
LINE
  5
9E
330
17
100
AcDbEntity
  8
SCHEMATICS
 62
7
100
AcDbLine
 10
474.13201904296875
 20
28.865966796875
 30
0.0
 11
474.47900390625
 21
29.11199951171875
 31
0.0
  0
LWPOLYLINE
  5
9F
330
17
100
AcDbEntity
  8
SCHEMATICS
 62
7
100
AcDbPolyline
 90
9
 70
0
 10
474.47900390625
 20
29.11199951171875
 10
474.64613234996796
 20
29.2457172870636
 10
474.7831106185913
 20
29.38669776916504
 10
474.89456713199615
 20
29.5362069606781
 10
474.9851303100586
 20
29.695510864257812
 10
475.0594285726547
 20
29.865875482559204
 10
475.12209033966064
 20
30.048566818237305
 10
475.17774403095245
 20
30.244850873947144
 10
475.23101806640625
 20
30.45599365234375
  0
LWPOLYLINE
  5
A0
330
17
100
AcDbEntity
  8
SCHEMATICS
 62
7
100
AcDbPolyline
 90
9
 70
0
 10
475.23101806640625
 20
30.45599365234375
 10
475.2703660726547
 20
30.632641553878784
 10
475.2983121871948
 20
30.7970027923584
 10
475.3147040605545
 20
30.953109979629517
 10
475.3193893432617
 20
31.104995727539062
 10
475.3122156858444
 20
31.25669264793396
 10
475.29303073883057
 20
31.412233352661133
 10
475.2616821527481
 20
31.575650453567505
 10
475.218017578125
 20
31.7509765625
  0
LWPOLYLINE
  5
A1
330
17
100
AcDbEntity
  8
SCHEMATICS
 62
7
100
AcDbPolyline
 90
9
 70
0
 10
475.218017578125
 20
31.7509765625
 10
475.14410614967346
 20
31.998784065246582
 10
475.0594844818115
 20
32.226707458496094
 10
474.96056628227234
 20
32.435484886169434
 10
474.84376525878906
 20
32.6258544921875
 10
474.70549511909485
 20
32.79855442047119
 10
474.54216957092285
 20
32.954322814941406
 10
474.3502023220062
 20
33.09389781951904
 10
474.1260070800781
 20
33.218017578125
  0
LWPOLYLINE
  5
A2
330
17
100
AcDbEntity
  8
SCHEMATICS
 62
7
100
AcDbPolyline
 90
9
 70
0
 10
474.1260070800781
 20
33.218017578125
 10
473.98296743631363
 20
33.28241014480591
 10
473.84849405288696
 20
33.3346061706543
 10
473.7190596461296
 20
33.37571859359741
 10
473.59113693237305
 20
33.4068603515625
 10
473.46119862794876
 20
33.42914438247681
 10
473.32571744918823
 20
33.44368362426758
 10
473.18116611242294
 20
33.45159101486206
 10
473.0240173339844
 20
33.4539794921875
  0
LINE
  5
A3
330
17
100
AcDbEntity
  8
SCHEMATICS
 62
7
100
AcDbLine
 10
473.0240173339844
 20
33.4539794921875
 30
0.0
 11
468.625
 21
33.4539794921875
 31
0.0
  0
LINE
  5
A4
330
17
100
AcDbEntity
  8
SCHEMATICS
 62
7
100
AcDbLine
 10
468.625
 20
33.4539794921875
 30
0.0
 11
468.625
 21
24.65899658203125
 31
0.0
  0
LINE
  5
A5
330
17
100
AcDbEntity
  8
SCHEMATICS
 62
7
100
AcDbLine
 10
468.625
 20
24.65899658203125
 30
0.0
 11
470.3990173339844
 21
24.65899658203125
 31
0.0
  0
LINE
  5
A6
330
17
100
AcDbEntity
  8
SCHEMATICS
 62
7
100
AcDbLine
 10
470.3990173339844
 20
24.65899658203125
 30
0.0
 11
470.3990173339844
 21
28.06298828125
 31
0.0
  0
LINE
  5
A7
330
17
100
AcDbEntity
  8
SCHEMATICS
 62
7
100
AcDbLine
 10
470.3990173339844
 20
28.06298828125
 30
0.0
 11
472.5299987792969
 21
28.06298828125
 31
0.0
  0
LWPOLYLINE
  5
A8
330
17
100
AcDbEntity
  8
SCHEMATICS
 62
7
100
AcDbPolyline
 90
9
 70
0
 10
472.5299987792969
 20
28.06298828125
 10
472.61570060253143
 20
28.059042096138
 10
472.69658374786377
 20
28.04736042022705
 10
472.7727075815201
 20
28.028178572654724
 10
472.84413146972656
 20
28.001731872558594
 10
472.9109147787094
 20
27.968255639076233
 10
472.9731168746948
 20
27.927985191345215
 10
473.030797123909
 20
27.881155848503113
 10
473.0840148925781
 20
27.8280029296875
  0
LWPOLYLINE
  5
A9
330
17
100
AcDbEntity
  8
SCHEMATICS
 62
7
100
AcDbPolyline
 90
9
 70
0
 10
473.0840148925781
 20
27.8280029296875
 10
473.2091688513756
 20
27.679851770401
 10
473.30862188339233
 20
27.529447555541992
 10
473.3857381939888
 20
27.374634504318237
 10
473.4438819885254
 20
27.2132568359375
 10
473.4864174723625
 20
27.043158769607544
 10
473.5167088508606
 20
26.862184524536133
 10
473.53812032938004
 20
26.66817831993103
 10
473.55401611328125
 20
26.458984375
  0
LWPOLYLINE
  5
AA
330
17
100
AcDbEntity
  8
SCHEMATICS
 62
7
100
AcDbPolyline
 90
9
 70
0
 10
473.55401611328125
 20
26.458984375
 10
473.5651779770851
 20
26.246440052986145
 10
473.5724492073059
 20
26.04882526397705
 10
473.57925194501877
 20
25.86128842830658
 10
473.5890083312988
 20
25.678977966308594
 10
473.6051405072212
 20
25.497042298316956
 10
473.6310706138611
 20
25.310629844665527
 10
473.67022079229355
 20
25.11488902568817
 10
473.72601318359375
 20
24.90496826171875
  0
LINE
  5
AB
330
17
100
AcDbEntity
  8
SCHEMATICS
 62
7
100
AcDbLine
 10
473.72601318359375
 20
24.90496826171875
 30
0.0
 11
473.8009948730469
 21
24.65899658203125
 31
0.0
  0
LINE
  5
AC
330
17
100
AcDbEntity
  8
SCHEMATICS
 62
7
100
AcDbLine
 10
473.8009948730469
 20
24.65899658203125
 30
0.0
 11
475.489013671875
 21
24.65899658203125
 31
0.0
  0
LINE
  5
AD
330
17
100
AcDbEntity
  8
SCHEMATICS
 62
7
100
AcDbLine
 10
475.489013671875
 20
24.65899658203125
 30
0.0
 11
475.4049987792969
 21
24.96697998046875
 31
0.0
  0
LINE
  5
AE
330
17
100
AcDbEntity
  8
SCHEMATICS
 62
7
100
AcDbLine
 10
475.4049987792969
 20
24.96697998046875
 30
0.0
 11
475.29400634765625
 21
25.58197021484375
 31
0.0
  0
LINE
  5
AF
330
17
100
AcDbEntity
  8
SCHEMATICS
 62
7
100
AcDbLine
 10
461.3710021972656
 20
24.64300537109375
 30
0.0
 11
467.43798828125
 21
24.64300537109375
 31
0.0
  0
LINE
  5
B0
330
17
100
AcDbEntity
  8
SCHEMATICS
 62
7
100
AcDbLine
 10
467.43798828125
 20
24.64300537109375
 30
0.0
 11
467.43798828125
 21
26.26300048828125
 31
0.0
  0
LINE
  5
B1
330
17
100
AcDbEntity
  8
SCHEMATICS
 62
7
100
AcDbLine
 10
467.43798828125
 20
26.26300048828125
 30
0.0
 11
463.1629943847656
 21
26.26300048828125
 31
0.0
  0
LINE
  5
B2
330
17
100
AcDbEntity
  8
SCHEMATICS
 62
7
100
AcDbLine
 10
463.1629943847656
 20
26.26300048828125
 30
0.0
 11
463.1629943847656
 21
28.3909912109375
 31
0.0
  0
LINE
  5
B3
330
17
100
AcDbEntity
  8
SCHEMATICS
 62
7
100
AcDbLine
 10
463.1629943847656
 20
28.3909912109375
 30
0.0
 11
467.093017578125
 21
28.3909912109375
 31
0.0
  0
LINE
  5
B4
330
17
100
AcDbEntity
  8
SCHEMATICS
 62
7
100
AcDbLine
 10
467.093017578125
 20
28.3909912109375
 30
0.0
 11
467.093017578125
 21
29.93701171875
 31
0.0
  0
LINE
  5
B5
330
17
100
AcDbEntity
  8
SCHEMATICS
 62
7
100
AcDbLine
 10
467.093017578125
 20
29.93701171875
 30
0.0
 11
463.1629943847656
 21
29.93701171875
 31
0.0
  0
LINE
  5
B6
330
17
100
AcDbEntity
  8
SCHEMATICS
 62
7
100
AcDbLine
 10
463.1629943847656
 20
29.93701171875
 30
0.0
 11
463.1629943847656
 21
31.84002685546875
 31
0.0
  0
LINE
  5
B7
330
17
100
AcDbEntity
  8
SCHEMATICS
 62
7
100
AcDbLine
 10
463.1629943847656
 20
31.84002685546875
 30
0.0
 11
467.43798828125
 21
31.84002685546875
 31
0.0
  0
LINE
  5
B8
330
17
100
AcDbEntity
  8
SCHEMATICS
 62
7
100
AcDbLine
 10
467.43798828125
 20
31.84002685546875
 30
0.0
 11
467.43798828125
 21
33.46099853515625
 31
0.0
  0
LINE
  5
B9
330
17
100
AcDbEntity
  8
SCHEMATICS
 62
7
100
AcDbLine
 10
467.43798828125
 20
33.46099853515625
 30
0.0
 11
461.3710021972656
 21
33.46099853515625
 31
0.0
  0
LINE
  5
BA
330
17
100
AcDbEntity
  8
SCHEMATICS
 62
7
100
AcDbLine
 10
461.3710021972656
 20
33.46099853515625
 30
0.0
 11
461.3710021972656
 21
24.64300537109375
 31
0.0
  0
LINE
  5
BB
330
17
100
AcDbEntity
  8
SCHEMATICS
 62
7
100
AcDbLine
 10
457.6000061035156
 20
29.3809814453125
 30
0.0
 11
457.291015625
 21
29.35699462890625
 31
0.0
  0
LINE
  5
BC
330
17
100
AcDbEntity
  8
SCHEMATICS
 62
7
100
AcDbLine
 10
457.291015625
 20
29.35699462890625
 30
0.0
 11
455.58599853515625
 21
29.35699462890625
 31
0.0
  0
LINE
  5
BD
330
17
100
AcDbEntity
  8
SCHEMATICS
 62
7
100
AcDbLine
 10
455.58599853515625
 20
29.35699462890625
 30
0.0
 11
455.58599853515625
 21
31.91497802734375
 31
0.0
  0
LINE
  5
BE
330
17
100
AcDbEntity
  8
SCHEMATICS
 62
7
100
AcDbLine
 10
455.58599853515625
 20
31.91497802734375
 30
0.0
 11
457.35400390625
 21
31.91497802734375
 31
0.0
  0
LWPOLYLINE
  5
BF
330
17
100
AcDbEntity
  8
SCHEMATICS
 62
7
100
AcDbPolyline
 90
9
 70
0
 10
457.35400390625
 20
31.91497802734375
 10
457.3882814645767
 20
31.913947343826294
 10
457.42028522491455
 20
31.911230087280273
 10
457.450648188591
 20
31.90738844871521
 10
457.4800033569336
 20
31.902984619140625
 10
457.50898373126984
 20
31.89858078956604
 10
457.53822231292725
 20
31.894739151000977
 10
457.56835210323334
 20
31.892021894454956
 10
457.6000061035156
 20
31.8909912109375
  0
LWPOLYLINE
  5
C0
330
17
100
AcDbEntity
  8
SCHEMATICS
 62
7
100
AcDbPolyline
 90
9
 70
0
 10
457.6000061035156
 20
31.8909912109375
 10
457.81580597162247
 20
31.842907667160034
 10
458.00077295303345
 20
31.74953269958496
 10
458.1553880572319
 20
31.617416620254517
 10
458.2801322937012
 20
31.453109741210938
 10
458.3754866719246
 20
31.26316237449646
 10
458.4419322013855
 20
31.05412483215332
 10
458.47994989156723
 20
30.832547426223755
 10
458.4900207519531
 20
30.60498046875
  0
LWPOLYLINE
  5
C1
330
17
100
AcDbEntity
  8
SCHEMATICS
 62
7
100
AcDbPolyline
 90
9
 70
0
 10
458.4900207519531
 20
30.60498046875
 10
458.47220063209534
 20
30.3848295211792
 10
458.426607131958
 20
30.171138763427734
 10
458.35377955436707
 20
29.970271110534668
 10
458.25425720214844
 20
29.788589477539062
 10
458.12857937812805
 20
29.63245677947998
 10
457.97728538513184
 20
29.508235931396484
 10
457.8009145259857
 20
29.422289848327637
 10
457.6000061035156
 20
29.3809814453125
  0
LWPOLYLINE
  5
C2
330
17
100
AcDbEntity
  8
SCHEMATICS
 62
7
100
AcDbPolyline
 90
9
 70
0
 10
458.2440185546875
 20
33.43597412109375
 10
458.1926004886627
 20
33.443891644477844
 10
458.14148712158203
 20
33.44984149932861
 10
458.0901391506195
 20
33.45410478115082
 10
458.0380172729492
 20
33.45696258544922
 10
457.98458218574524
 20
33.45869600772858
 10
457.92929458618164
 20
33.45958614349365
 10
457.8716151714325
 20
33.45991408824921
 10
457.8110046386719
 20
33.4599609375
  0
LINE
  5
C3
330
17
100
AcDbEntity
  8
SCHEMATICS
 62
7
100
AcDbLine
 10
457.8110046386719
 20
33.4599609375
 30
0.0
 11
453.78302001953125
 21
33.4599609375
 31
0.0
  0
LINE
  5
C4
330
17
100
AcDbEntity
  8
SCHEMATICS
 62
7
100
AcDbLine
 10
453.78302001953125
 20
33.4599609375
 30
0.0
 11
453.78302001953125
 21
24.65899658203125
 31
0.0
  0
LINE
  5
C5
330
17
100
AcDbEntity
  8
SCHEMATICS
 62
7
100
AcDbLine
 10
453.78302001953125
 20
24.65899658203125
 30
0.0
 11
455.58599853515625
 21
24.65899658203125
 31
0.0
  0
LINE
  5
C6
330
17
100
AcDbEntity
  8
SCHEMATICS
 62
7
100
AcDbLine
 10
455.58599853515625
 20
24.65899658203125
 30
0.0
 11
455.58599853515625
 21
27.81097412109375
 31
0.0
  0
LINE
  5
C7
330
17
100
AcDbEntity
  8
SCHEMATICS
 62
7
100
AcDbLine
 10
455.58599853515625
 20
27.81097412109375
 30
0.0
 11
457.6360168457031
 21
27.81097412109375
 31
0.0
  0
LINE
  5
C8
330
17
100
AcDbEntity
  8
SCHEMATICS
 62
7
100
AcDbLine
 10
457.6360168457031
 20
27.81097412109375
 30
0.0
 11
457.99700927734375
 21
27.8349609375
 31
0.0
  0
LWPOLYLINE
  5
C9
330
17
100
AcDbEntity
  8
SCHEMATICS
 62
7
100
AcDbPolyline
 90
9
 70
0
 10
457.99700927734375
 20
27.8349609375
 10
458.4956108927727
 20
27.9288911819458
 10
458.93555974960327
 20
28.126602172851562
 10
459.31482845544815
 20
28.41224956512451
 10
459.6313896179199
 20
28.769989013671875
 10
459.8832158446312
 20
29.18397617340088
 10
460.0682797431946
 20
29.63836669921875
 10
460.1845539212227
 20
30.117316246032715
 10
460.2300109863281
 20
30.60498046875
  0
LWPOLYLINE
  5
CA
330
17
100
AcDbEntity
  8
SCHEMATICS
 62
7
100
AcDbPolyline
 90
9
 70
0
 10
460.2300109863281
 20
30.60498046875
 10
460.20816773176193
 20
31.04089343547821
 10
460.12501096725464
 20
31.48523998260498
 10
459.9788537621498
 20
31.922083497047424
 10
459.768009185791
 20
32.335487365722656
 10
459.4907903075218
 20
32.70951497554779
 10
459.1455101966858
 20
33.02822971343994
 10
458.7304819226265
 20
33.27569496631622
 10
458.2440185546875
 20
33.43597412109375
  0
LINE
  5
CB
330
17
100
AcDbEntity
  8
SCHEMATICS
 62
7
100
AcDbLine
 10
450.02899169921875
 20
29.37799072265625
 30
0.0
 11
449.718994140625
 21
29.35400390625
 31
0.0
  0
LINE
  5
CC
330
17
100
AcDbEntity
  8
SCHEMATICS
 62
7
100
AcDbLine
 10
449.718994140625
 20
29.35400390625
 30
0.0
 11
448.0119934082031
 21
29.35400390625
 31
0.0
  0
LINE
  5
CD
330
17
100
AcDbEntity
  8
SCHEMATICS
 62
7
100
AcDbLine
 10
448.0119934082031
 20
29.35400390625
 30
0.0
 11
448.0119934082031
 21
31.91998291015625
 31
0.0
  0
LINE
  5
CE
330
17
100
AcDbEntity
  8
SCHEMATICS
 62
7
100
AcDbLine
 10
448.0119934082031
 20
31.91998291015625
 30
0.0
 11
449.781982421875
 21
31.91998291015625
 31
0.0
  0
LWPOLYLINE
  5
CF
330
17
100
AcDbEntity
  8
SCHEMATICS
 62
7
100
AcDbPolyline
 90
9
 70
0
 10
449.781982421875
 20
31.91998291015625
 10
449.8172119855881
 20
31.918952226638794
 10
449.8498373031616
 20
31.916234970092773
 10
449.8805385828018
 20
31.91239333152771
 10
449.90999603271484
 20
31.907989501953125
 10
449.9388898611069
 20
31.90358567237854
 10
449.9679002761841
 20
31.899744033813477
 10
449.99770748615265
 20
31.897026777267456
 10
450.02899169921875
 20
31.89599609375
  0
LWPOLYLINE
  5
D0
330
17
100
AcDbEntity
  8
SCHEMATICS
 62
7
100
AcDbPolyline
 90
9
 70
0
 10
450.02899169921875
 20
31.89599609375
 10
450.2457780241966
 20
31.84724187850952
 10
450.4314761161804
 20
31.753326416015625
 10
450.58658915758133
 20
31.620741367340088
 10
450.71162033081055
 20
31.455978393554688
 10
450.80707281827927
 20
31.2655291557312
 10
450.8734498023987
 20
31.055885314941406
 10
450.91125446558
 20
30.83353853225708
 10
450.9209899902344
 20
30.60498046875
  0
LWPOLYLINE
  5
D1
330
17
100
AcDbEntity
  8
SCHEMATICS
 62
7
100
AcDbPolyline
 90
9
 70
0
 10
450.9209899902344
 20
30.60498046875
 10
450.90280425548553
 20
30.384182810783386
 10
450.85685443878174
 20
30.16999340057373
 10
450.78369200229645
 20
29.968740105628967
 10
450.6838684082031
 20
29.78675079345703
 10
450.55793511867523
 20
29.630353331565857
 10
450.40644359588623
 20
29.50587558746338
 10
450.2299453020096
 20
29.41964542865753
 10
450.02899169921875
 20
29.37799072265625
  0
LWPOLYLINE
  5
D2
330
17
100
AcDbEntity
  8
SCHEMATICS
 62
7
100
AcDbPolyline
 90
9
 70
0
 10
450.6730041503906
 20
33.4429931640625
 10
450.62171071767807
 20
33.450910687446594
 10
450.5709090232849
 20
33.45686054229736
 10
450.5199664235115
 20
33.46112382411957
 10
450.4682502746582
 20
33.46398162841797
 10
450.41512793302536
 20
33.46571505069733
 10
450.35996675491333
 20
33.4666051864624
 10
450.30213409662247
 20
33.46693313121796
 10
450.2409973144531
 20
33.46697998046875
  0
LINE
  5
D3
330
17
100
AcDbEntity
  8
SCHEMATICS
 62
7
100
AcDbLine
 10
450.2409973144531
 20
33.46697998046875
 30
0.0
 11
446.2049865722656
 21
33.46697998046875
 31
0.0
  0
LINE
  5
D4
330
17
100
AcDbEntity
  8
SCHEMATICS
 62
7
100
AcDbLine
 10
446.2049865722656
 20
33.46697998046875
 30
0.0
 11
446.2049865722656
 21
24.64398193359375
 31
0.0
  0
LINE
  5
D5
330
17
100
AcDbEntity
  8
SCHEMATICS
 62
7
100
AcDbLine
 10
446.2049865722656
 20
24.64398193359375
 30
0.0
 11
448.0119934082031
 21
24.64398193359375
 31
0.0
  0
LINE
  5
D6
330
17
100
AcDbEntity
  8
SCHEMATICS
 62
7
100
AcDbLine
 10
448.0119934082031
 20
24.64398193359375
 30
0.0
 11
448.0119934082031
 21
27.80596923828125
 31
0.0
  0
LINE
  5
D7
330
17
100
AcDbEntity
  8
SCHEMATICS
 62
7
100
AcDbLine
 10
448.0119934082031
 20
27.80596923828125
 30
0.0
 11
450.06500244140625
 21
27.80596923828125
 31
0.0
  0
LINE
  5
D8
330
17
100
AcDbEntity
  8
SCHEMATICS
 62
7
100
AcDbLine
 10
450.06500244140625
 20
27.80596923828125
 30
0.0
 11
450.427001953125
 21
27.83001708984375
 31
0.0
  0
LWPOLYLINE
  5
D9
330
17
100
AcDbEntity
  8
SCHEMATICS
 62
7
100
AcDbPolyline
 90
9
 70
0
 10
450.427001953125
 20
27.83001708984375
 10
450.9268018603325
 20
27.923739194869995
 10
451.3680319786072
 20
28.121572494506836
 10
451.74855905771255
 20
28.407625436782837
 10
452.0662498474121
 20
28.766006469726562
 10
452.31897109746933
 20
29.180824041366577
 10
452.5045895576477
 20
29.636186599731445
 10
452.6209719777107
 20
30.11620259284973
 10
452.6659851074219
 20
30.60498046875
  0
LWPOLYLINE
  5
DA
330
17
100
AcDbEntity
  8
SCHEMATICS
 62
7
100
AcDbPolyline
 90
9
 70
0
 10
452.6659851074219
 20
30.60498046875
 10
452.64454251527786
 20
31.042294025421143
 10
452.56116342544556
 20
31.487873077392578
 10
452.414290368557
 20
31.925790309906006
 10
452.20236587524414
 20
32.340118408203125
 10
451.92383247613907
 20
32.714930057525635
 10
451.5771327018738
 20
33.034297943115234
 10
451.1607090830803
 20
33.28229475021362
 10
450.6730041503906
 20
33.4429931640625
  0
LINE
  5
DB
330
17
100
AcDbEntity
  8
SCHEMATICS
 62
7
100
AcDbLine
 10
439.0
 20
24.64300537109375
 30
0.0
 11
445.0669860839844
 21
24.64300537109375
 31
0.0
  0
LINE
  5
DC
330
17
100
AcDbEntity
  8
SCHEMATICS
 62
7
100
AcDbLine
 10
445.0669860839844
 20
24.64300537109375
 30
0.0
 11
445.0669860839844
 21
26.26300048828125
 31
0.0
  0
LINE
  5
DD
330
17
100
AcDbEntity
  8
SCHEMATICS
 62
7
100
AcDbLine
 10
445.0669860839844
 20
26.26300048828125
 30
0.0
 11
440.7909851074219
 21
26.26300048828125
 31
0.0
  0
LINE
  5
DE
330
17
100
AcDbEntity
  8
SCHEMATICS
 62
7
100
AcDbLine
 10
440.7909851074219
 20
26.26300048828125
 30
0.0
 11
440.7909851074219
 21
28.3909912109375
 31
0.0
  0
LINE
  5
DF
330
17
100
AcDbEntity
  8
SCHEMATICS
 62
7
100
AcDbLine
 10
440.7909851074219
 20
28.3909912109375
 30
0.0
 11
444.72198486328125
 21
28.3909912109375
 31
0.0
  0
LINE
  5
E0
330
17
100
AcDbEntity
  8
SCHEMATICS
 62
7
100
AcDbLine
 10
444.72198486328125
 20
28.3909912109375
 30
0.0
 11
444.72198486328125
 21
29.93701171875
 31
0.0
  0
LINE
  5
E1
330
17
100
AcDbEntity
  8
SCHEMATICS
 62
7
100
AcDbLine
 10
444.72198486328125
 20
29.93701171875
 30
0.0
 11
440.7909851074219
 21
29.93701171875
 31
0.0
  0
LINE
  5
E2
330
17
100
AcDbEntity
  8
SCHEMATICS
 62
7
100
AcDbLine
 10
440.7909851074219
 20
29.93701171875
 30
0.0
 11
440.7909851074219
 21
31.84002685546875
 31
0.0
  0
LINE
  5
E3
330
17
100
AcDbEntity
  8
SCHEMATICS
 62
7
100
AcDbLine
 10
440.7909851074219
 20
31.84002685546875
 30
0.0
 11
445.0669860839844
 21
31.84002685546875
 31
0.0
  0
LINE
  5
E4
330
17
100
AcDbEntity
  8
SCHEMATICS
 62
7
100
AcDbLine
 10
445.0669860839844
 20
31.84002685546875
 30
0.0
 11
445.0669860839844
 21
33.46099853515625
 31
0.0
  0
LINE
  5
E5
330
17
100
AcDbEntity
  8
SCHEMATICS
 62
7
100
AcDbLine
 10
445.0669860839844
 20
33.46099853515625
 30
0.0
 11
439.0
 21
33.46099853515625
 31
0.0
  0
LINE
  5
E6
330
17
100
AcDbEntity
  8
SCHEMATICS
 62
7
100
AcDbLine
 10
439.0
 20
33.46099853515625
 30
0.0
 11
439.0
 21
24.64300537109375
 31
0.0
  0
LINE
  5
E7
330
17
100
AcDbEntity
  8
SCHEMATICS
 62
7
100
AcDbLine
 10
435.3039855957031
 20
29.38201904296875
 30
0.0
 11
434.9939880371094
 21
29.35699462890625
 31
0.0
  0
LINE
  5
E8
330
17
100
AcDbEntity
  8
SCHEMATICS
 62
7
100
AcDbLine
 10
434.9939880371094
 20
29.35699462890625
 30
0.0
 11
433.2909851074219
 21
29.35699462890625
 31
0.0
  0
LINE
  5
E9
330
17
100
AcDbEntity
  8
SCHEMATICS
 62
7
100
AcDbLine
 10
433.2909851074219
 20
29.35699462890625
 30
0.0
 11
433.2909851074219
 21
31.9150390625
 31
0.0
  0
LINE
  5
EA
330
17
100
AcDbEntity
  8
SCHEMATICS
 62
7
100
AcDbLine
 10
433.2909851074219
 20
31.9150390625
 30
0.0
 11
435.0559997558594
 21
31.9150390625
 31
0.0
  0
LWPOLYLINE
  5
EB
330
17
100
AcDbEntity
  8
SCHEMATICS
 62
7
100
AcDbPolyline
 90
9
 70
0
 10
435.0559997558594
 20
31.9150390625
 10
435.09093207120895
 20
31.914005756378174
 10
435.1234278678894
 20
31.91128158569336
 10
435.1541433930397
 20
31.907430171966553
 10
435.1837348937988
 20
31.90301513671875
 10
435.21285861730576
 20
31.898600101470947
 10
435.24217081069946
 20
31.89474868774414
 10
435.2723277211189
 20
31.892024517059326
 10
435.3039855957031
 20
31.8909912109375
  0
LWPOLYLINE
  5
EC
330
17
100
AcDbEntity
  8
SCHEMATICS
 62
7
100
AcDbPolyline
 90
9
 70
0
 10
435.3039855957031
 20
31.8909912109375
 10
435.5204356312752
 20
31.842925310134888
 10
435.70585680007935
 20
31.74955940246582
 10
435.8607172369957
 20
31.617446660995483
 10
435.9854850769043
 20
31.453140258789062
 10
436.0806284546852
 20
31.263193368911743
 10
436.1466155052185
 20
31.05415916442871
 10
436.18391436338425
 20
30.83259081840515
 10
436.1929931640625
 20
30.60504150390625
  0
LWPOLYLINE
  5
ED
330
17
100
AcDbEntity
  8
SCHEMATICS
 62
7
100
AcDbPolyline
 90
9
 70
0
 10
436.1929931640625
 20
30.60504150390625
 10
436.1752163171768
 20
30.384892463684082
 10
436.1297369003296
 20
30.171215057373047
 10
436.0570706129074
 20
29.970383644104004
 10
435.9577331542969
 20
29.788772583007812
 10
435.8322402238846
 20
29.632756233215332
 10
435.68110752105713
 20
29.508708953857422
 10
435.5048507452011
 20
29.42300510406494
 10
435.3039855957031
 20
29.38201904296875
  0
LWPOLYLINE
  5
EE
330
17
100
AcDbEntity
  8
SCHEMATICS
 62
7
100
AcDbPolyline
 90
9
 70
0
 10
435.94598388671875
 20
33.43603515625
 10
435.89531004428864
 20
33.443952679634094
 10
435.84488010406494
 20
33.44990253448486
 10
435.794096827507
 20
33.45416581630707
 10
435.7423629760742
 20
33.45702362060547
 10
435.6890813112259
 20
33.45875704288483
 10
435.6336545944214
 20
33.4596471786499
 10
435.57548558712006
 20
33.45997512340546
 10
435.51397705078125
 20
33.46002197265625
  0
LINE
  5
EF
330
17
100
AcDbEntity
  8
SCHEMATICS
 62
7
100
AcDbLine
 10
435.51397705078125
 20
33.46002197265625
 30
0.0
 11
431.4859924316406
 21
33.46002197265625
 31
0.0
  0
LINE
  5
F0
330
17
100
AcDbEntity
  8
SCHEMATICS
 62
7
100
AcDbLine
 10
431.4859924316406
 20
33.46002197265625
 30
0.0
 11
431.4859924316406
 21
24.65899658203125
 31
0.0
  0
LINE
  5
F1
330
17
100
AcDbEntity
  8
SCHEMATICS
 62
7
100
AcDbLine
 10
431.4859924316406
 20
24.65899658203125
 30
0.0
 11
433.2909851074219
 21
24.65899658203125
 31
0.0
  0
LINE
  5
F2
330
17
100
AcDbEntity
  8
SCHEMATICS
 62
7
100
AcDbLine
 10
433.2909851074219
 20
24.65899658203125
 30
0.0
 11
433.2909851074219
 21
27.81201171875
 31
0.0
  0
LINE
  5
F3
330
17
100
AcDbEntity
  8
SCHEMATICS
 62
7
100
AcDbLine
 10
433.2909851074219
 20
27.81201171875
 30
0.0
 11
435.3399963378906
 21
27.81201171875
 31
0.0
  0
LINE
  5
F4
330
17
100
AcDbEntity
  8
SCHEMATICS
 62
7
100
AcDbLine
 10
435.3399963378906
 20
27.81201171875
 30
0.0
 11
435.698974609375
 21
27.8370361328125
 31
0.0
  0
LWPOLYLINE
  5
F5
330
17
100
AcDbEntity
  8
SCHEMATICS
 62
7
100
AcDbPolyline
 90
9
 70
0
 10
435.698974609375
 20
27.8370361328125
 10
436.19828498363495
 20
27.93062198162079
 10
436.6388578414917
 20
28.12806224822998
 10
437.01867830753326
 20
28.41348898410797
 10
437.33573150634766
 20
28.771034240722656
 10
437.5880025625229
 20
29.18483006954193
 10
437.773476600647
 20
29.63900852203369
 10
437.8901387453079
 20
30.117701649665833
 10
437.93597412109375
 20
30.60504150390625
  0
LWPOLYLINE
  5
F6
330
17
100
AcDbEntity
  8
SCHEMATICS
 62
7
100
AcDbPolyline
 90
9
 70
0
 10
437.93597412109375
 20
30.60504150390625
 10
437.91470259428024
 20
31.040936946868896
 10
437.8317656517029
 20
31.485275268554688
 10
437.6854992508888
 20
31.922117710113525
 10
437.47423934936523
 20
32.33552551269531
 10
437.19632190465927
 20
32.70955991744995
 10
436.8500828742981
 20
33.028282165527344
 10
436.43385821580887
 20
33.27575349807739
 10
435.94598388671875
 20
33.43603515625
  0
LWPOLYLINE
  5
F7
330
17
100
AcDbEntity
  8
SCHEMATICS
 62
7
100
AcDbPolyline
 90
5
 70
0
 10
417.60400390625
 20
24.65997314453125
 10
429.7170104980469
 20
24.65997314453125
 10
429.7170104980469
 20
36.76898193359375
 10
417.60400390625
 20
36.76898193359375
 10
417.60400390625
 20
24.65997314453125
  0
LWPOLYLINE
  5
F8
330
17
100
AcDbEntity
  8
SCHEMATICS
 62
7
100
AcDbPolyline
 90
9
 70
0
 10
424.85699462890625
 20
31.00897216796875
 10
424.625497341156
 20
31.00897216796875
 10
424.1333980560303
 20
31.00897216796875
 10
423.4705328941345
 20
31.00897216796875
 10
422.7267379760742
 20
31.00897216796875
 10
421.99184942245483
 20
31.00897216796875
 10
421.35570335388184
 20
31.00897216796875
 10
420.9081358909607
 20
31.00897216796875
 10
420.7389831542969
 20
31.00897216796875
  0
LINE
  5
F9
330
17
100
AcDbEntity
  8
SCHEMATICS
 62
7
100
AcDbLine
 10
420.7389831542969
 20
31.00897216796875
 30
0.0
 11
420.7389831542969
 21
25.8699951171875
 31
0.0
  0
LINE
  5
FA
330
17
100
AcDbEntity
  8
SCHEMATICS
 62
7
100
AcDbLine
 10
420.7389831542969
 20
25.8699951171875
 30
0.0
 11
421.9499816894531
 21
25.8699951171875
 31
0.0
  0
LINE
  5
FB
330
17
100
AcDbEntity
  8
SCHEMATICS
 62
7
100
AcDbLine
 10
421.9499816894531
 20
25.8699951171875
 30
0.0
 11
421.9499816894531
 21
29.7939453125
 31
0.0
  0
LINE
  5
FC
330
17
100
AcDbEntity
  8
SCHEMATICS
 62
7
100
AcDbLine
 10
421.9499816894531
 20
29.7939453125
 30
0.0
 11
424.85699462890625
 21
29.7939453125
 31
0.0
  0
LWPOLYLINE
  5
FD
330
17
100
AcDbEntity
  8
SCHEMATICS
 62
7
100
AcDbPolyline
 90
9
 70
0
 10
424.85699462890625
 20
29.7939453125
 10
424.9832537174225
 20
29.779295802116394
 10
425.0977325439453
 20
29.73843288421631
 10
425.1988732814789
 20
29.675984978675842
 10
425.28511810302734
 20
29.596580505371094
 10
425.35490918159485
 20
29.50484788417816
 10
425.40668869018555
 20
29.405415534973145
 10
425.4388988018036
 20
29.30291187763214
 10
425.4499816894531
 20
29.20196533203125
  0
LWPOLYLINE
  5
FE
330
17
100
AcDbEntity
  8
SCHEMATICS
 62
7
100
AcDbPolyline
 90
9
 70
0
 10
425.4499816894531
 20
29.20196533203125
 10
425.43241751194
 20
29.036296129226685
 10
425.38446712493896
 20
28.901269912719727
 10
425.3132437467575
 20
28.79425024986267
 10
425.2258605957031
 20
28.712600708007812
 10
425.1294308900833
 20
28.653684854507446
 10
425.03106784820557
 20
28.614866256713867
 10
424.9378846883774
 20
28.59350848197937
 10
424.85699462890625
 20
28.58697509765625
  0
LWPOLYLINE
  5
FF
330
17
100
AcDbEntity
  8
SCHEMATICS
 62
7
100
AcDbPolyline
 90
9
 70
0
 10
424.85699462890625
 20
28.58697509765625
 10
424.77800273895264
 20
28.58697509765625
 10
424.6394329071045
 20
28.58697509765625
 10
424.46289443969727
 20
28.58697509765625
 10
424.2699966430664
 20
28.58697509765625
 10
424.08234882354736
 20
28.58697509765625
 10
423.9215602874756
 20
28.58697509765625
 10
423.8092403411865
 20
28.58697509765625
 10
423.7669982910156
 20
28.58697509765625
  0
LINE
  5
100
330
17
100
AcDbEntity
  8
SCHEMATICS
 62
7
100
AcDbLine
 10
423.7669982910156
 20
28.58697509765625
 30
0.0
 11
423.7669982910156
 21
29.31298828125
 31
0.0
  0
LINE
  5
101
330
17
100
AcDbEntity
  8
SCHEMATICS
 62
7
100
AcDbLine
 10
423.7669982910156
 20
29.31298828125
 30
0.0
 11
422.5579833984375
 21
29.31298828125
 31
0.0
  0
LINE
  5
102
330
17
100
AcDbEntity
  8
SCHEMATICS
 62
7
100
AcDbLine
 10
422.5579833984375
 20
29.31298828125
 30
0.0
 11
422.5579833984375
 21
27.36395263671875
 31
0.0
  0
LINE
  5
103
330
17
100
AcDbEntity
  8
SCHEMATICS
 62
7
100
AcDbLine
 10
422.5579833984375
 20
27.36395263671875
 30
0.0
 11
424.85699462890625
 21
27.36395263671875
 31
0.0
  0
LWPOLYLINE
  5
104
330
17
100
AcDbEntity
  8
SCHEMATICS
 62
7
100
AcDbPolyline
 90
9
 70
0
 10
424.85699462890625
 20
27.36395263671875
 10
425.2511484026909
 20
27.40450155735016
 10
425.6040415763855
 20
27.51940631866455
 10
425.9121933579445
 20
27.698553919792175
 10
426.17212295532227
 20
27.93183135986328
 10
426.38034957647324
 20
28.209125638008118
 10
426.5333924293518
 20
28.520323753356934
 10
426.6277707219124
 20
28.855312705039978
 10
426.6600036621094
 20
29.2039794921875
  0
LWPOLYLINE
  5
105
330
17
100
AcDbEntity
  8
SCHEMATICS
 62
7
100
AcDbPolyline
 90
9
 70
0
 10
426.6600036621094
 20
29.2039794921875
 10
426.62838780879974
 20
29.552560329437256
 10
426.5326929092407
 20
29.884246826171875
 10
426.3772784471512
 20
30.189920902252197
 10
426.16650390625
 20
30.460464477539062
 10
425.90472877025604
 20
30.68675947189331
 10
425.5963125228882
 20
30.85968780517578
 10
425.2456146478653
 20
30.970131397247314
 10
424.85699462890625
 20
31.00897216796875
  0
LINE
  5
106
330
17
100
AcDbEntity
  8
SCHEMATICS
 62
7
100
AcDbLine
 10
422.5580139160156
 20
31.489013671875
 30
0.0
 11
423.76702880859375
 21
31.489013671875
 31
0.0
  0
LWPOLYLINE
  5
107
330
17
100
AcDbEntity
  8
SCHEMATICS
 62
7
100
AcDbPolyline
 90
9
 70
0
 10
423.76702880859375
 20
31.489013671875
 10
423.76702880859375
 20
31.504088640213013
 10
423.76702880859375
 20
31.5473690032959
 10
423.76702880859375
 20
31.61593794822693
 10
423.76702880859375
 20
31.706878662109375
 10
423.76702880859375
 20
31.81727433204651
 10
423.76702880859375
 20
31.9442081451416
 10
423.76702880859375
 20
32.084763288497925
 10
423.76702880859375
 20
32.23602294921875
  0
LINE
  5
108
330
17
100
AcDbEntity
  8
SCHEMATICS
 62
7
100
AcDbLine
 10
423.76702880859375
 20
32.23602294921875
 30
0.0
 11
426.39501953125
 21
32.23602294921875
 31
0.0
  0
LINE
  5
109
330
17
100
AcDbEntity
  8
SCHEMATICS
 62
7
100
AcDbLine
 10
426.39501953125
 20
32.23602294921875
 30
0.0
 11
426.39501953125
 21
33.44598388671875
 31
0.0
  0
LINE
  5
10A
330
17
100
AcDbEntity
  8
SCHEMATICS
 62
7
100
AcDbLine
 10
426.39501953125
 20
33.44598388671875
 30
0.0
 11
423.76702880859375
 21
33.44598388671875
 31
0.0
  0
LWPOLYLINE
  5
10B
330
17
100
AcDbEntity
  8
SCHEMATICS
 62
7
100
AcDbPolyline
 90
9
 70
0
 10
423.76702880859375
 20
33.44598388671875
 10
423.76702880859375
 20
33.53086316585541
 10
423.76702880859375
 20
33.60874080657959
 10
423.76702880859375
 20
33.678903698921204
 10
423.76702880859375
 20
33.740638732910156
 10
423.76702880859375
 20
33.793232798576355
 10
423.76702880859375
 20
33.83597278594971
 10
423.76702880859375
 20
33.86814558506012
 10
423.76702880859375
 20
33.8890380859375
  0
LWPOLYLINE
  5
10C
330
17
100
AcDbEntity
  8
SCHEMATICS
 62
7
100
AcDbPolyline
 90
9
 70
0
 10
423.76702880859375
 20
33.8890380859375
 10
423.7769318819046
 20
33.98847675323486
 10
423.80500888824463
 20
34.077701568603516
 10
423.84881150722504
 20
34.15577411651611
 10
423.90589141845703
 20
34.22175598144531
 10
423.9738003015518
 20
34.27470874786377
 10
424.0500898361206
 20
34.31369400024414
 10
424.1323117017746
 20
34.33777332305908
 10
424.218017578125
 20
34.34600830078125
  0
LWPOLYLINE
  5
10D
330
17
100
AcDbEntity
  8
SCHEMATICS
 62
7
100
AcDbPolyline
 90
9
 70
0
 10
424.218017578125
 20
34.34600830078125
 10
424.46348237991333
 20
34.34600830078125
 10
424.7814998626709
 20
34.34600830078125
 10
425.13962030410767
 20
34.34600830078125
 10
425.5053939819336
 20
34.34600830078125
 10
425.84637117385864
 20
34.34600830078125
 10
426.1301021575928
 20
34.34600830078125
 10
426.32413721084595
 20
34.34600830078125
 10
426.3960266113281
 20
34.34600830078125
  0
LINE
  5
10E
330
17
100
AcDbEntity
  8
SCHEMATICS
 62
7
100
AcDbLine
 10
426.3960266113281
 20
34.34600830078125
 30
0.0
 11
426.3960266113281
 21
35.5560302734375
 31
0.0
  0
LWPOLYLINE
  5
10F
330
17
100
AcDbEntity
  8
SCHEMATICS
 62
7
100
AcDbPolyline
 90
9
 70
0
 10
426.3960266113281
 20
35.5560302734375
 10
426.3059851527214
 20
35.5560302734375
 10
426.06794691085815
 20
35.5560302734375
 10
425.73004108667374
 20
35.5560302734375
 10
425.3403968811035
 20
35.5560302734375
 10
424.94714349508286
 20
35.5560302734375
 10
424.5984101295471
 20
35.5560302734375
 10
424.34232598543167
 20
35.5560302734375
 10
424.2270202636719
 20
35.5560302734375
  0
LWPOLYLINE
  5
110
330
17
100
AcDbEntity
  8
SCHEMATICS
 62
7
100
AcDbPolyline
 90
9
 70
0
 10
424.2270202636719
 20
35.5560302734375
 10
423.87106090784073
 20
35.519386649131775
 10
423.54857301712036
 20
35.41551113128662
 10
423.2638685107231
 20
35.25348675251007
 10
423.0212593078613
 20
35.042396545410156
 10
422.82505732774734
 20
34.79132354259491
 10
422.6795744895935
 20
34.50935077667236
 10
422.58912271261215
 20
34.20556128025055
 10
422.5580139160156
 20
33.8890380859375
  0
LINE
  5
111
330
17
100
AcDbEntity
  8
SCHEMATICS
 62
7
100
AcDbLine
 10
422.5580139160156
 20
33.8890380859375
 30
0.0
 11
422.5580139160156
 21
33.44598388671875
 31
0.0
  0
LINE
  5
112
330
17
100
AcDbEntity
  8
SCHEMATICS
 62
7
100
AcDbLine
 10
422.5580139160156
 20
33.44598388671875
 30
0.0
 11
420.739013671875
 21
33.44598388671875
 31
0.0
  0
LINE
  5
113
330
17
100
AcDbEntity
  8
SCHEMATICS
 62
7
100
AcDbLine
 10
420.739013671875
 20
33.44598388671875
 30
0.0
 11
420.739013671875
 21
32.23602294921875
 31
0.0
  0
LINE
  5
114
330
17
100
AcDbEntity
  8
SCHEMATICS
 62
7
100
AcDbLine
 10
420.739013671875
 20
32.23602294921875
 30
0.0
 11
422.5580139160156
 21
32.23602294921875
 31
0.0
  0
LINE
  5
115
330
17
100
AcDbEntity
  8
SCHEMATICS
 62
7
100
AcDbLine
 10
422.5580139160156
 20
32.23602294921875
 30
0.0
 11
422.5580139160156
 21
31.489013671875
 31
0.0
  0
LWPOLYLINE
  5
116
330
17
100
AcDbEntity
  8
SCHEMATICS
 62
7
100
AcDbPolyline
 90
5
 70
0
 10
56.63999938964844
 20
766.3400268554688
 10
566.8800048828125
 20
766.3400268554688
 10
566.8800048828125
 20
784.3400268554688
 10
56.63999938964844
 20
784.3400268554688
 10
56.63999938964844
 20
766.3400268554688
  0
LINE
  5
117
330
17
100
AcDbEntity
  8
SCHEMATICS
 62
7
100
AcDbLine
 10
199.52699279785156
 20
689.0490112304688
 30
0.0
 11
334.98199462890625
 21
689.0490112304688
 31
0.0
  0
LINE
  5
118
330
17
100
AcDbEntity
  8
SCHEMATICS
 62
7
100
AcDbLine
 10
199.52699279785156
 20
682.114013671875
 30
0.0
 11
334.98199462890625
 21
682.114013671875
 31
0.0
  0
LINE
  5
119
330
17
100
AcDbEntity
  8
SCHEMATICS
 62
7
100
AcDbLine
 10
199.52699279785156
 20
674.2170104980469
 30
0.0
 11
334.98199462890625
 21
674.2170104980469
 31
0.0
  0
LINE
  5
11A
330
17
100
AcDbEntity
  8
SCHEMATICS
 62
7
100
AcDbLine
 10
199.52699279785156
 20
665.1010131835938
 30
0.0
 11
334.98199462890625
 21
665.1010131835938
 31
0.0
  0
LINE
  5
11B
330
17
100
AcDbEntity
  8
SCHEMATICS
 62
7
100
AcDbLine
 10
199.52699279785156
 20
654.3910064697266
 30
0.0
 11
334.98199462890625
 21
654.3910064697266
 31
0.0
  0
LINE
  5
11C
330
17
100
AcDbEntity
  8
SCHEMATICS
 62
7
100
AcDbLine
 10
199.52699279785156
 20
641.2610015869141
 30
0.0
 11
334.98199462890625
 21
641.2610015869141
 31
0.0
  0
LINE
  5
11D
330
17
100
AcDbEntity
  8
SCHEMATICS
 62
7
100
AcDbLine
 10
199.52699279785156
 20
624.2480010986328
 30
0.0
 11
334.98199462890625
 21
624.2480010986328
 31
0.0
  0
LINE
  5
11E
330
17
100
AcDbEntity
  8
SCHEMATICS
 62
7
100
AcDbLine
 10
199.52699279785156
 20
600.2940063476562
 30
0.0
 11
334.98199462890625
 21
600.2940063476562
 31
0.0
  0
LINE
  5
11F
330
17
100
AcDbEntity
  8
SCHEMATICS
 62
7
100
AcDbLine
 10
199.52699279785156
 20
559.4420166015625
 30
0.0
 11
329.35101318359375
 21
559.4420166015625
 31
0.0
  0
LINE
  5
120
330
17
100
AcDbEntity
  8
SCHEMATICS
 62
7
100
AcDbLine
 10
199.52699279785156
 20
695.2450103759766
 30
0.0
 11
334.98199462890625
 21
695.2450103759766
 31
0.0
  0
LINE
  5
121
330
17
100
AcDbEntity
  8
SCHEMATICS
 62
7
100
AcDbLine
 10
199.52699279785156
 20
695.2440185546875
 30
0.0
 11
335.34698486328125
 21
695.2440185546875
 31
0.0
  0
LINE
  5
122
330
17
100
AcDbEntity
  8
SCHEMATICS
 62
7
100
AcDbLine
 10
329.14801025390625
 20
695.0610198974609
 30
0.0
 11
329.14801025390625
 21
559.4420166015625
 31
0.0
  0
LINE
  5
123
330
17
100
AcDbEntity
  8
SCHEMATICS
 62
7
100
AcDbLine
 10
322.2130126953125
 20
695.0610198974609
 30
0.0
 11
322.2130126953125
 21
559.4420166015625
 31
0.0
  0
LINE
  5
124
330
17
100
AcDbEntity
  8
SCHEMATICS
 62
7
100
AcDbLine
 10
314.31500244140625
 20
695.0610198974609
 30
0.0
 11
314.31500244140625
 21
559.4420166015625
 31
0.0
  0
LINE
  5
125
330
17
100
AcDbEntity
  8
SCHEMATICS
 62
7
100
AcDbLine
 10
305.1990051269531
 20
695.0610198974609
 30
0.0
 11
305.1990051269531
 21
559.4420166015625
 31
0.0
  0
LINE
  5
126
330
17
100
AcDbEntity
  8
SCHEMATICS
 62
7
100
AcDbLine
 10
294.49200439453125
 20
695.0610198974609
 30
0.0
 11
294.49200439453125
 21
559.4420166015625
 31
0.0
  0
LINE
  5
127
330
17
100
AcDbEntity
  8
SCHEMATICS
 62
7
100
AcDbLine
 10
281.3600158691406
 20
695.0610198974609
 30
0.0
 11
281.3600158691406
 21
559.4420166015625
 31
0.0
  0
LINE
  5
128
330
17
100
AcDbEntity
  8
SCHEMATICS
 62
7
100
AcDbLine
 10
264.34503173828125
 20
695.0610198974609
 30
0.0
 11
264.34503173828125
 21
559.4420166015625
 31
0.0
  0
LINE
  5
129
330
17
100
AcDbEntity
  8
SCHEMATICS
 62
7
100
AcDbLine
 10
240.38702392578125
 20
695.0610198974609
 30
0.0
 11
240.38702392578125
 21
559.4420166015625
 31
0.0
  0
LINE
  5
12A
330
17
100
AcDbEntity
  8
SCHEMATICS
 62
7
100
AcDbLine
 10
199.53402709960938
 20
698.7120208740234
 30
0.0
 11
199.53402709960938
 21
559.4420166015625
 31
0.0
  0
LINE
  5
12B
330
17
100
AcDbEntity
  8
SCHEMATICS
 62
7
100
AcDbLine
 10
335.3470458984375
 20
695.0610198974609
 30
0.0
 11
335.3470458984375
 21
559.4420166015625
 31
0.0
  0
LINE
  5
12C
330
17
100
AcDbEntity
  8
SCHEMATICS
 62
7
100
AcDbLine
 10
335.3470458984375
 20
695.0610198974609
 30
0.0
 11
335.3470458984375
 21
559.4420166015625
 31
0.0
  0
LINE
  5
12D
330
17
100
AcDbEntity
  8
SCHEMATICS
 62
7
100
AcDbLine
 10
199.51699829101562
 20
702.8469848632812
 30
0.0
 11
199.51699829101562
 21
559.4299926757812
 31
0.0
  0
LINE
  5
12E
330
17
100
AcDbEntity
  8
SCHEMATICS
 62
7
100
AcDbLine
 10
199.51699829101562
 20
702.1530151367188
 30
0.0
 11
197.0659942626953
 21
700.6630096435547
 31
0.0
  0
LINE
  5
12F
330
17
100
AcDbEntity
  8
SCHEMATICS
 62
7
100
AcDbLine
 10
197.0659942626953
 20
700.6630096435547
 30
0.0
 11
197.00999450683594
 21
700.7470092773438
 31
0.0
  0
LINE
  5
130
330
17
100
AcDbEntity
  8
SCHEMATICS
 62
7
100
AcDbLine
 10
197.00999450683594
 20
700.7470092773438
 30
0.0
 11
198.59799194335938
 21
704.7440185546875
 31
0.0
  0
LWPOLYLINE
  5
131
330
17
100
AcDbEntity
  8
SCHEMATICS
 62
7
100
AcDbPolyline
 90
9
 70
0
 10
198.59799194335938
 20
704.7440185546875
 10
198.71278512477875
 20
705.2660611867905
 10
198.8276491165161
 20
705.7881746292114
 10
198.94256031513214
 20
706.310335278511
 10
199.0574951171875
 20
706.83251953125
 10
199.17242991924286
 20
707.354703783989
 10
199.2873411178589
 20
707.8768644332886
 10
199.40220510959625
 20
708.3989778757095
 10
199.51699829101562
 20
708.9210205078125
  0
LWPOLYLINE
  5
132
330
17
100
AcDbEntity
  8
SCHEMATICS
 62
7
100
AcDbPolyline
 90
9
 70
0
 10
199.51699829101562
 20
708.9210205078125
 10
199.63175016641617
 20
708.3989778757095
 10
199.74651384353638
 20
707.8768644332886
 10
199.86130112409592
 20
707.354703783989
 10
199.97612380981445
 20
706.83251953125
 10
200.09099370241165
 20
706.310335278511
 10
200.20592260360718
 20
705.7881746292114
 10
200.3209223151207
 20
705.2660611867905
 10
200.43600463867188
 20
704.7440185546875
  0
LINE
  5
133
330
17
100
AcDbEntity
  8
SCHEMATICS
 62
7
100
AcDbLine
 10
200.43600463867188
 20
704.7440185546875
 30
0.0
 11
202.0240020751953
 21
700.7470092773438
 31
0.0
  0
LINE
  5
134
330
17
100
AcDbEntity
  8
SCHEMATICS
 62
7
100
AcDbLine
 10
202.0240020751953
 20
700.7470092773438
 30
0.0
 11
201.98199462890625
 21
700.6630096435547
 31
0.0
  0
LINE
  5
135
330
17
100
AcDbEntity
  8
SCHEMATICS
 62
7
100
AcDbLine
 10
201.98199462890625
 20
700.6630096435547
 30
0.0
 11
199.51699829101562
 21
702.1530151367188
 31
0.0
  0
LINE
  5
136
330
17
100
AcDbEntity
  8
SCHEMATICS
 62
7
100
AcDbLine
 10
199.51699829101562
 20
559.4310302734375
 30
0.0
 11
355.22998046875
 21
559.4310302734375
 31
0.0
  0
LINE
  5
137
330
17
100
AcDbEntity
  8
SCHEMATICS
 62
7
100
AcDbLine
 10
354.4670104980469
 20
559.4310302734375
 30
0.0
 11
352.8280029296875
 21
562.1280212402344
 31
0.0
  0
LINE
  5
138
330
17
100
AcDbEntity
  8
SCHEMATICS
 62
7
100
AcDbLine
 10
352.8280029296875
 20
562.1280212402344
 30
0.0
 11
352.9200134277344
 21
562.1880187988281
 31
0.0
  0
LINE
  5
139
330
17
100
AcDbEntity
  8
SCHEMATICS
 62
7
100
AcDbLine
 10
352.9200134277344
 20
562.1880187988281
 30
0.0
 11
357.3170166015625
 21
560.4410400390625
 31
0.0
  0
LWPOLYLINE
  5
13A
330
17
100
AcDbEntity
  8
SCHEMATICS
 62
7
100
AcDbPolyline
 90
9
 70
0
 10
357.3170166015625
 20
560.4410400390625
 10
357.89123100042343
 20
560.3147062063217
 10
358.4655966758728
 20
560.1884431838989
 10
359.04007893800735
 20
560.0622273683548
 10
359.6146430969238
 20
559.93603515625
 10
360.18925446271896
 20
559.8098429441452
 10
360.7638783454895
 20
559.6836271286011
 10
361.3384800553322
 20
559.5573641061783
 10
361.91302490234375
 20
559.4310302734375
  0
LWPOLYLINE
  5
13B
330
17
100
AcDbEntity
  8
SCHEMATICS
 62
7
100
AcDbPolyline
 90
9
 70
0
 10
361.91302490234375
 20
559.4310302734375
 10
361.3384800553322
 20
559.3043621182442
 10
360.7638783454895
 20
559.1778359413147
 10
360.18925446271896
 20
559.0514048933983
 10
359.6146430969238
 20
558.9250221252441
 10
359.04007893800735
 20
558.7986407876015
 10
358.4655966758728
 20
558.6722140312195
 10
357.89123100042343
 20
558.5456950068474
 10
357.3170166015625
 20
558.4190368652344
  0
LINE
  5
13C
330
17
100
AcDbEntity
  8
SCHEMATICS
 62
7
100
AcDbLine
 10
357.3170166015625
 20
558.4190368652344
 30
0.0
 11
352.9200134277344
 21
556.6730346679688
 31
0.0
  0
LINE
  5
13D
330
17
100
AcDbEntity
  8
SCHEMATICS
 62
7
100
AcDbLine
 10
352.9200134277344
 20
556.6730346679688
 30
0.0
 11
352.8280029296875
 21
556.7190246582031
 31
0.0
  0
LINE
  5
13E
330
17
100
AcDbEntity
  8
SCHEMATICS
 62
7
100
AcDbLine
 10
352.8280029296875
 20
556.7190246582031
 30
0.0
 11
354.4670104980469
 21
559.4310302734375
 31
0.0
  0
LINE
  5
13F
330
17
100
AcDbEntity
  8
SCHEMATICS
 62
7
100
AcDbLine
 10
199.31300354003906
 20
654.3870239257812
 30
0.0
 11
294.4930114746094
 21
654.3870239257812
 31
0.0
  0
LINE
  5
140
330
17
100
AcDbEntity
  8
SCHEMATICS
 62
7
100
AcDbLine
 10
196.11500549316406
 20
624.1110229492188
 30
0.0
 11
202.94100952148438
 21
624.1110229492188
 31
0.0
  0
LINE
  5
141
330
17
100
AcDbEntity
  8
SCHEMATICS
 62
7
100
AcDbLine
 10
196.11500549316406
 20
654.3920288085938
 30
0.0
 11
202.94100952148438
 21
654.3920288085938
 31
0.0
  0
LINE
  5
142
330
17
100
AcDbEntity
  8
SCHEMATICS
 62
7
100
AcDbLine
 10
196.11500549316406
 20
695.2450256347656
 30
0.0
 11
202.94100952148438
 21
695.2450256347656
 31
0.0
  0
LINE
  5
143
330
17
100
AcDbEntity
  8
SCHEMATICS
 62
7
100
AcDbLine
 10
196.11500549316406
 20
600.2940368652344
 30
0.0
 11
202.94100952148438
 21
600.2940368652344
 31
0.0
  0
LINE
  5
144
330
17
100
AcDbEntity
  8
SCHEMATICS
 62
7
100
AcDbLine
 10
240.38800048828125
 20
556.031005859375
 30
0.0
 11
240.38800048828125
 21
562.8569946289062
 31
0.0
  0
LINE
  5
145
330
17
100
AcDbEntity
  8
SCHEMATICS
 62
7
100
AcDbLine
 10
294.4930114746094
 20
556.031005859375
 30
0.0
 11
294.4930114746094
 21
562.8569946289062
 31
0.0
  0
LINE
  5
146
330
17
100
AcDbEntity
  8
SCHEMATICS
 62
7
100
AcDbLine
 10
335.3470153808594
 20
556.031005859375
 30
0.0
 11
335.3470153808594
 21
562.8569946289062
 31
0.0
  0
LINE
  5
147
330
17
100
AcDbEntity
  8
SCHEMATICS
 62
7
100
AcDbLine
 10
264.34503173828125
 20
556.031005859375
 30
0.0
 11
264.34503173828125
 21
562.8569946289062
 31
0.0
  0
LINE
  5
148
330
17
100
AcDbEntity
  8
SCHEMATICS
 62
7
100
AcDbLine
 10
294.302001953125
 20
559.3889770507812
 30
0.0
 11
294.302001953125
 21
563.1319885253906
 31
0.0
  0
LINE
  5
149
330
17
100
AcDbEntity
  8
SCHEMATICS
 62
7
100
AcDbLine
 10
294.302001953125
 20
566.4219970703125
 30
0.0
 11
294.302001953125
 21
649.0040283203125
 31
0.0
  0
LINE
  5
14A
330
17
100
AcDbEntity
  8
SCHEMATICS
 62
7
100
AcDbLine
 10
294.302001953125
 20
650.6489868164062
 30
0.0
 11
294.302001953125
 21
654.3919830322266
 31
0.0
  0
LINE
  5
14B
330
17
100
AcDbEntity
  8
SCHEMATICS
 62
7
100
AcDbLine
 10
198.99400329589844
 20
654.3669891357422
 30
0.0
 11
264.34600830078125
 21
654.3669891357422
 31
0.0
  0
LINE
  5
14C
330
17
100
AcDbEntity
  8
SCHEMATICS
 62
7
100
AcDbLine
 10
264.34600830078125
 20
654.3669891357422
 30
0.0
 11
294.3030090332031
 21
624.1049957275391
 31
0.0
  0
LINE
  5
14D
330
17
100
AcDbEntity
  8
SCHEMATICS
 62
7
100
AcDbLine
 10
294.3030090332031
 20
624.1049957275391
 30
0.0
 11
294.3030090332031
 21
559.6959838867188
 31
0.0
  0
LINE
  5
14E
330
17
100
AcDbEntity
  8
SCHEMATICS
 62
7
100
AcDbLine
 10
355.0799865722656
 20
624.7999877929688
 30
0.0
 11
354.9599914550781
 21
625.2799835205078
 31
0.0
  0
LINE
  5
14F
330
17
100
AcDbEntity
  8
SCHEMATICS
 62
7
100
AcDbLine
 10
354.9599914550781
 20
625.2799835205078
 30
0.0
 11
293.6399841308594
 21
610.6399841308594
 31
0.0
  0
LINE
  5
150
330
17
100
AcDbEntity
  8
SCHEMATICS
 62
7
100
AcDbLine
 10
293.6399841308594
 20
610.6399841308594
 30
0.0
 11
293.7599792480469
 21
610.1599884033203
 31
0.0
  0
LINE
  5
151
330
17
100
AcDbEntity
  8
SCHEMATICS
 62
7
100
AcDbLine
 10
355.6199951171875
 20
668.6599731445312
 30
0.0
 11
355.44000244140625
 21
669.1399688720703
 31
0.0
  0
LINE
  5
152
330
17
100
AcDbEntity
  8
SCHEMATICS
 62
7
100
AcDbLine
 10
355.44000244140625
 20
669.1399688720703
 30
0.0
 11
294.29998779296875
 21
646.8799743652344
 31
0.0
  0
LINE
  5
153
330
17
100
AcDbEntity
  8
SCHEMATICS
 62
7
100
AcDbLine
 10
294.29998779296875
 20
646.8799743652344
 30
0.0
 11
294.47998046875
 21
646.3999786376953
 31
0.0
  0
LINE
  5
154
330
17
100
AcDbEntity
  8
SCHEMATICS
 62
7
100
AcDbLine
 10
253.32000732421875
 20
729.5
 30
0.0
 11
252.8400115966797
 21
729.5599975585938
 31
0.0
  0
LINE
  5
155
330
17
100
AcDbEntity
  8
SCHEMATICS
 62
7
100
AcDbLine
 10
252.8400115966797
 20
729.5599975585938
 30
0.0
 11
244.74000549316406
 21
654.4400024414062
 31
0.0
  0
LINE
  5
156
330
17
100
AcDbEntity
  8
SCHEMATICS
 62
7
100
AcDbLine
 10
244.74000549316406
 20
654.4400024414062
 30
0.0
 11
245.22000122070312
 21
654.3800048828125
 31
0.0
  0
ENDSEC
  0
SECTION
  2
OBJECTS
  0
DICTIONARY
  5
A
330
0
100
AcDbDictionary
280
0
281
1
  3
ACAD_COLOR
350
B
  3
ACAD_GROUP
350
C
  3
ACAD_LAYOUT
350
D
  3
ACAD_MATERIAL
350
E
  3
ACAD_MLEADERSTYLE
350
F
  3
ACAD_MLINESTYLE
350
10
  3
ACAD_PLOTSETTINGS
350
11
  3
ACAD_PLOTSTYLENAME
350
12
  3
ACAD_SCALELIST
350
14
  3
ACAD_TABLESTYLE
350
15
  3
ACAD_VISUALSTYLE
350
16
  3
EZDXF_META
350
2D
  0
DICTIONARY
  5
B
330
A
100
AcDbDictionary
280
0
281
1
  0
DICTIONARY
  5
C
330
A
100
AcDbDictionary
280
0
281
1
  0
DICTIONARY
  5
D
330
A
100
AcDbDictionary
280
0
281
1
  3
Model
350
1A
  3
Layout1
350
1E
  0
DICTIONARY
  5
E
330
A
100
AcDbDictionary
280
0
281
1
  3
ByBlock
350
1F
  3
ByLayer
350
20
  3
Global
350
21
  0
DICTIONARY
  5
F
330
A
100
AcDbDictionary
280
0
281
1
  3
Standard
350
2C
  0
DICTIONARY
  5
10
330
A
100
AcDbDictionary
280
0
281
1
  3
Standard
350
22
  0
DICTIONARY
  5
11
330
A
100
AcDbDictionary
280
0
281
1
  0
ACDBDICTIONARYWDFLT
  5
12
330
A
100
AcDbDictionary
280
0
281
1
  3
Normal
350
13
100
AcDbDictionaryWithDefault
340
13
  0
ACDBPLACEHOLDER
  5
13
330
12
  0
DICTIONARY
  5
14
330
A
100
AcDbDictionary
280
0
281
1
  0
DICTIONARY
  5
15
330
A
100
AcDbDictionary
280
0
281
1
  0
DICTIONARY
  5
16
330
A
100
AcDbDictionary
280
0
281
1
  0
LAYOUT
  5
1A
330
D
100
AcDbPlotSettings
  1

  2
Adobe PDF
  4
A3
  6

 40
7.5
 41
20.0
 42
7.5
 43
20.0
 44
420.0
 45
297.0
 46
0.0
 47
0.0
 48
0.0
 49
0.0
140
0.0
141
0.0
142
1.0
143
1.0
 70
1024
 72
1
 73
0
 74
5
  7

 75
16
 76
0
 77
2
 78
300
147
1.0
148
0.0
149
0.0
100
AcDbLayout
  1
Model
 70
1
 71
0
 10
0.0
 20
0.0
 11
420.0
 21
297.0
 12
0.0
 22
0.0
 32
0.0
 14
1e+20
 24
1e+20
 34
1e+20
 15
-1e+20
 25
-1e+20
 35
-1e+20
146
0.0
 13
0.0
 23
0.0
 33
0.0
 16
1.0
 26
0.0
 36
0.0
 17
0.0
 27
1.0
 37
0.0
 76
1
330
17
  0
LAYOUT
  5
1E
330
D
100
AcDbPlotSettings
  1

  2
Adobe PDF
  4
A3
  6

 40
7.5
 41
20.0
 42
7.5
 43
20.0
 44
420.0
 45
297.0
 46
0.0
 47
0.0
 48
0.0
 49
0.0
140
0.0
141
0.0
142
1.0
143
1.0
 70
0
 72
1
 73
0
 74
5
  7

 75
16
 76
0
 77
2
 78
300
147
1.0
148
0.0
149
0.0
100
AcDbLayout
  1
Layout1
 70
1
 71
1
 10
0.0
 20
0.0
 11
420.0
 21
297.0
 12
0.0
 22
0.0
 32
0.0
 14
1e+20
 24
1e+20
 34
1e+20
 15
-1e+20
 25
-1e+20
 35
-1e+20
146
0.0
 13
0.0
 23
0.0
 33
0.0
 16
1.0
 26
0.0
 36
0.0
 17
0.0
 27
1.0
 37
0.0
 76
1
330
1B
  0
MATERIAL
  5
1F
102
{ACAD_REACTORS
330
E
102
}
330
E
100
AcDbMaterial
  1
ByBlock
  2

 70
0
 40
1.0
 71
1
 41
1.0
 91
-1023410177
 42
1.0
 72
1
  3

 73
1
 74
1
 75
1
 44
0.5
 73
0
 45
1.0
 46
1.0
 77
1
  4

 78
1
 79
1
170
1
 48
1.0
171
1
  6

172
1
173
1
174
1
140
1.0
141
1.0
175
1
  7

176
1
177
1
178
1
143
1.0
179
1
  8

270
1
271
1
272
1
145
1.0
146
1.0
273
1
  9

274
1
275
1
276
1
 42
1.0
 72
1
  3

 73
1
 74
1
 75
1
 94
63
  0
MATERIAL
  5
20
102
{ACAD_REACTORS
330
E
102
}
330
E
100
AcDbMaterial
  1
ByLayer
  2

 70
0
 40
1.0
 71
1
 41
1.0
 91
-1023410177
 42
1.0
 72
1
  3

 73
1
 74
1
 75
1
 44
0.5
 73
0
 45
1.0
 46
1.0
 77
1
  4

 78
1
 79
1
170
1
 48
1.0
171
1
  6

172
1
173
1
174
1
140
1.0
141
1.0
175
1
  7

176
1
177
1
178
1
143
1.0
179
1
  8

270
1
271
1
272
1
145
1.0
146
1.0
273
1
  9

274
1
275
1
276
1
 42
1.0
 72
1
  3

 73
1
 74
1
 75
1
 94
63
  0
MATERIAL
  5
21
102
{ACAD_REACTORS
330
E
102
}
330
E
100
AcDbMaterial
  1
Global
  2

 70
0
 40
1.0
 71
1
 41
1.0
 91
-1023410177
 42
1.0
 72
1
  3

 73
1
 74
1
 75
1
 44
0.5
 73
0
 45
1.0
 46
1.0
 77
1
  4

 78
1
 79
1
170
1
 48
1.0
171
1
  6

172
1
173
1
174
1
140
1.0
141
1.0
175
1
  7

176
1
177
1
178
1
143
1.0
179
1
  8

270
1
271
1
272
1
145
1.0
146
1.0
273
1
  9

274
1
275
1
276
1
 42
1.0
 72
1
  3

 73
1
 74
1
 75
1
 94
63
  0
MLINESTYLE
  5
22
102
{ACAD_REACTORS
330
10
102
}
330
10
100
AcDbMlineStyle
  2
Standard
 70
0
  3

 62
256
 51
90.0
 52
90.0
 71
2
 49
0.5
 62
256
  6
BYLAYER
 49
-0.5
 62
256
  6
BYLAYER
  0
MLEADERSTYLE
  5
2C
102
{ACAD_REACTORS
330
F
102
}
330
F
100
AcDbMLeaderStyle
179
2
170
2
171
1
172
0
 90
2
 40
0.0
 41
0.0
173
1
 91
-1056964608
 92
-2
290
1
 42
2.0
291
1
 43
8.0
  3
Standard
 44
4.0
300

342
29
174
1
175
1
176
0
178
1
 93
-1056964608
 45
4.0
292
0
297
0
 46
4.0
 94
-1056964608
 47
1.0
 49
1.0
140
1.0
294
1
141
0.0
177
0
142
1.0
295
0
296
0
143
3.75
271
0
272
9
273
9
  0
DICTIONARY
  5
2D
330
A
100
AcDbDictionary
281
1
  3
CREATED_BY_EZDXF
350
2E
  3
WRITTEN_BY_EZDXF
350
159
  0
DICTIONARYVAR
  5
2E
330
2D
100
DictionaryVariables
280
0
  1
1.2.0 @ 2026-10-03T10:27:44.648491+00:00
  0
DICTIONARYVAR
  5
159
330
2D
100
DictionaryVariables
280
0
  1
1.2.0 @ 2026-10-03T10:27:44.673145+00:00
  0
ENDSEC
  0
EOF
