  0
SECTION
  2
HEADER
  9
$ACADVER
  1
AC1024
  9
$ACADMAINTVER
 70
6
  9
$DWGCODEPAGE
  3
ANSI_1252
  9
$LASTSAVEDBY
  1
ezdxf
  9
$INSBASE
 10
0.0
 20
0.0
 30
0.0
  9
$EXTMIN
 10
1e+20
 20
1e+20
 30
1e+20
  9
$EXTMAX
 10
-1e+20
 20
-1e+20
 30
-1e+20
  9
$LIMMIN
 10
0.0
 20
0.0
  9
$LIMMAX
 10
420.0
 20
297.0
  9
$ORTHOMODE
 70
0
  9
$REGENMODE
 70
1
  9
$FILLMODE
 70
1
  9
$QTEXTMODE
 70
0
  9
$MIRRTEXT
 70
1
  9
$LTSCALE
 40
1.0
  9
$ATTMODE
 70
1
  9
$TEXTSIZE
 40
2.5
  9
$TRACEWID
 40
1.0
  9
$TEXTSTYLE
  7
Standard
  9
$CLAYER
  8
0
  9
$CELTYPE
  6
ByLayer
  9
$CECOLOR
 62
256
  9
$CELTSCALE
 40
1.0
  9
$DISPSILH
 70
0
  9
$DIMSCALE
 40
1.0
  9
$DIMASZ
 40
2.5
  9
$DIMEXO
 40
0.625
  9
$DIMDLI
 40
3.75
  9
$DIMRND
 40
0.0
  9
$DIMDLE
 40
0.0
  9
$DIMEXE
 40
1.25
  9
$DIMTP
 40
0.0
  9
$DIMTM
 40
0.0
  9
$DIMTXT
 40
2.5
  9
$DIMCEN
 40
2.5
  9
$DIMTSZ
 40
0.0
  9
$DIMTOL
 70
0
  9
$DIMLIM
 70
0
  9
$DIMTIH
 70
0
  9
$DIMTOH
 70
0
  9
$DIMSE1
 70
0
  9
$DIMSE2
 70
0
  9
$DIMTAD
 70
1
  9
$DIMZIN
 70
8
  9
$DIMBLK
  1

  9
$DIMASO
 70
1
  9
$DIMSHO
 70
1
  9
$DIMPOST
  1

  9
$DIMAPOST
  1

  9
$DIMALT
 70
0
  9
$DIMALTD
 70
3
  9
$DIMALTF
 40
0.03937007874
  9
$DIMLFAC
 40
1.0
  9
$DIMTOFL
 70
1
  9
$DIMTVP
 40
0.0
  9
$DIMTIX
 70
0
  9
$DIMSOXD
 70
0
  9
$DIMSAH
 70
0
  9
$DIMBLK1
  1

  9
$DIMBLK2
  1

  9
$DIMSTYLE
  2
ISO-25
  9
$DIMCLRD
 70
0
  9
$DIMCLRE
 70
0
  9
$DIMCLRT
 70
0
  9
$DIMTFAC
 40
1.0
  9
$DIMGAP
 40
0.625
  9
$DIMJUST
 70
0
  9
$DIMSD1
 70
0
  9
$DIMSD2
 70
0
  9
$DIMTOLJ
 70
0
  9
$DIMTZIN
 70
8
  9
$DIMALTZ
 70
0
  9
$DIMALTTZ
 70
0
  9
$DIMUPT
 70
0
  9
$DIMDEC
 70
2
  9
$DIMTDEC
 70
2
  9
$DIMALTU
 70
2
  9
$DIMALTTD
 70
3
  9
$DIMTXSTY
  7
Standard
  9
$DIMAUNIT
 70
0
  9
$DIMADEC
 70
0
  9
$DIMALTRND
 40
0.0
  9
$DIMAZIN
 70
0
  9
$DIMDSEP
 70
44
  9
$DIMATFIT
 70
3
  9
$DIMFRAC
 70
0
  9
$DIMLDRBLK
  1

  9
$DIMLUNIT
 70
2
  9
$DIMLWD
 70
-2
  9
$DIMLWE
 70
-2
  9
$DIMTMOVE
 70
0
  9
$DIMFXL
 40
1.0
  9
$DIMFXLON
 70
0
  9
$DIMJOGANG
 40
0.785398163397
  9
$DIMTFILL
 70
0
  9
$DIMTFILLCLR
 70
0
  9
$DIMARCSYM
 70
0
  9
$DIMLTYPE
  6

  9
$DIMLTEX1
  6

  9
$DIMLTEX2
  6

  9
$DIMTXTDIRECTION
 70
0
  9
$LUNITS
 70
2
  9
$LUPREC
 70
4
  9
$SKETCHINC
 40
1.0
  9
$FILLETRAD
 40
10.0
  9
$AUNITS
 70
0
  9
$AUPREC
 70
2
  9
$MENU
  1
.
  9
$ELEVATION
 40
0.0
  9
$PELEVATION
 40
0.0
  9
$THICKNESS
 40
0.0
  9
$LIMCHECK
 70
0
  9
$CHAMFERA
 40
0.0
  9
$CHAMFERB
 40
0.0
  9
$CHAMFERC
 40
0.0
  9
$CHAMFERD
 40
0.0
  9
$SKPOLY
 70
0
  9
$TDCREATE
 40
2461317.7243518517
  9
$TDUCREATE
 40
2458532.153996898
  9
$TDUPDATE
 40
2461317.7243518517
  9
$TDUUPDATE
 40
2458532.1544311
  9
$TDINDWG
 40
0.0
  9
$TDUSRTIMER
 40
0.0
  9
$USRTIMER
 70
1
  9
$ANGBASE
 50
0.0
  9
$ANGDIR
 70
0
  9
$PDMODE
 70
0
  9
$PDSIZE
 40
0.0
  9
$PLINEWID
 40
0.0
  9
$SPLFRAME
 70
0
  9
$SPLINETYPE
 70
6
  9
$SPLINESEGS
 70
8
  9
$HANDSEED
  5
1E6
  9
$SURFTAB1
 70
6
  9
$SURFTAB2
 70
6
  9
$SURFTYPE
 70
6
  9
$SURFU
 70
6
  9
$SURFV
 70
6
  9
$UCSBASE
  2

  9
$UCSNAME
  2

  9
$UCSORG
 10
0.0
 20
0.0
 30
0.0
  9
$UCSXDIR
 10
1.0
 20
0.0
 30
0.0
  9
$UCSYDIR
 10
0.0
 20
1.0
 30
0.0
  9
$UCSORTHOREF
  2

  9
$UCSORTHOVIEW
 70
0
  9
$UCSORGTOP
 10
0.0
 20
0.0
 30
0.0
  9
$UCSORGBOTTOM
 10
0.0
 20
0.0
 30
0.0
  9
$UCSORGLEFT
 10
0.0
 20
0.0
 30
0.0
  9
$UCSORGRIGHT
 10
0.0
 20
0.0
 30
0.0
  9
$UCSORGFRONT
 10
0.0
 20
0.0
 30
0.0
  9
$UCSORGBACK
 10
0.0
 20
0.0
 30
0.0
  9
$PUCSBASE
  2

  9
$PUCSNAME
  2

  9
$PUCSORG
 10
0.0
 20
0.0
 30
0.0
  9
$PUCSXDIR
 10
1.0
 20
0.0
 30
0.0
  9
$PUCSYDIR
 10
0.0
 20
1.0
 30
0.0
  9
$PUCSORTHOREF
  2

  9
$PUCSORTHOVIEW
 70
0
  9
$PUCSORGTOP
 10
0.0
 20
0.0
 30
0.0
  9
$PUCSORGBOTTOM
 10
0.0
 20
0.0
 30
0.0
  9
$PUCSORGLEFT
 10
0.0
 20
0.0
 30
0.0
  9
$PUCSORGRIGHT
 10
0.0
 20
0.0
 30
0.0
  9
$PUCSORGFRONT
 10
0.0
 20
0.0
 30
0.0
  9
$PUCSORGBACK
 10
0.0
 20
0.0
 30
0.0
  9
$USERI1
 70
0
  9
$USERI2
 70
0
  9
$USERI3
 70
0
  9
$USERI4
 70
0
  9
$USERI5
 70
0
  9
$USERR1
 40
0.0
  9
$USERR2
 40
0.0
  9
$USERR3
 40
0.0
  9
$USERR4
 40
0.0
  9
$USERR5
 40
0.0
  9
$WORLDVIEW
 70
1
  9
$SHADEDGE
 70
3
  9
$SHADEDIF
 70
70
  9
$TILEMODE
 70
1
  9
$MAXACTVP
 70
64
  9
$PINSBASE
 10
0.0
 20
0.0
 30
0.0
  9
$PLIMCHECK
 70
0
  9
$PEXTMIN
 10
1e+20
 20
1e+20
 30
1e+20
  9
$PEXTMAX
 10
-1e+20
 20
-1e+20
 30
-1e+20
  9
$PLIMMIN
 10
0.0
 20
0.0
  9
$PLIMMAX
 10
420.0
 20
297.0
  9
$UNITMODE
 70
0
  9
$VISRETAIN
 70
1
  9
$PLINEGEN
 70
0
  9
$PSLTSCALE
 70
1
  9
$TREEDEPTH
 70
3020
  9
$CMLSTYLE
  2
Standard
  9
$CMLJUST
 70
0
  9
$CMLSCALE
 40
20.0
  9
$PROXYGRAPHICS
 70
1
  9
$MEASUREMENT
 70
1
  9
$CELWEIGHT
370
-1
  9
$ENDCAPS
280
0
  9
$JOINSTYLE
280
0
  9
$LWDISPLAY
290
0
  9
$INSUNITS
 70
6
  9
$HYPERLINKBASE
  1

  9
$STYLESHEET
  1

  9
$XEDIT
290
1
  9
$CEPSNTYPE
380
0
  9
$PSTYLEMODE
290
1
  9
$FINGERPRINTGUID
  2
{2E2AAD44-46ED-4B8F-A0CD-D51317651F1B}
  9
$VERSIONGUID
  2
{E9016DB1-FC87-40B5-A35B-C201FB9C139B}
  9
$EXTNAMES
290
1
  9
$PSVPSCALE
 40
0.0
  9
$OLESTARTUP
290
0
  9
$SORTENTS
280
127
  9
$INDEXCTL
280
0
  9
$HIDETEXT
280
1
  9
$XCLIPFRAME
280
2
  9
$HALOGAP
280
0
  9
$OBSCOLOR
 70
257
  9
$OBSLTYPE
280
0
  9
$INTERSECTIONDISPLAY
280
0
  9
$INTERSECTIONCOLOR
 70
257
  9
$DIMASSOC
280
2
  9
$PROJECTNAME
  1

  9
$CAMERADISPLAY
290
0
  9
$LENSLENGTH
 40
50.0
  9
$CAMERAHEIGHT
 40
0.0
  9
$STEPSPERSEC
 40
24.0
  9
$STEPSIZE
 40
100.0
  9
$3DDWFPREC
 40
2.0
  9
$PSOLWIDTH
 40
0.005
  9
$PSOLHEIGHT
 40
0.08
  9
$LOFTANG1
 40
1.570796326795
  9
$LOFTANG2
 40
1.570796326795
  9
$LOFTMAG1
 40
0.0
  9
$LOFTMAG2
 40
0.0
  9
$LOFTPARAM
 70
7
  9
$LOFTNORMALS
280
1
  9
$LATITUDE
 40
37.795
  9
$LONGITUDE
 40
-122.394
  9
$NORTHDIRECTION
 40
0.0
  9
$TIMEZONE
 70
-8000
  9
$LIGHTGLYPHDISPLAY
280
1
  9
$TILEMODELIGHTSYNCH
280
1
  9
$CMATERIAL
347
20
  9
$SOLIDHIST
280
0
  9
$SHOWHIST
280
1
  9
$DWFFRAME
280
2
  9
$DGNFRAME
280
2
  9
$REALWORLDSCALE
290
1
  9
$INTERFERECOLOR
 62
256
  9
$CSHADOW
280
0
  9
$SHADOWPLANELOCATION
 40
0.0
  0
ENDSEC
  0
SECTION
  2
CLASSES
  0
CLASS
  1
ACDBDICTIONARYWDFLT
  2
AcDbDictionaryWithDefault
  3
ObjectDBX Classes
 90
0
 91
0
280
0
281
0
  0
CLASS
  1
SUN
  2
AcDbSun
  3
SCENEOE
 90
1153
 91
0
280
0
281
0
  0
CLASS
  1
VISUALSTYLE
  2
AcDbVisualStyle
  3
ObjectDBX Classes
 90
4095
 91
0
280
0
281
0
  0
CLASS
  1
MATERIAL
  2
AcDbMaterial
  3
ObjectDBX Classes
 90
1153
 91
0
280
0
281
0
  0
CLASS
  1
SCALE
  2
AcDbScale
  3
ObjectDBX Classes
 90
1153
 91
0
280
0
281
0
  0
CLASS
  1
TABLESTYLE
  2
AcDbTableStyle
  3
ObjectDBX Classes
 90
4095
 91
0
280
0
281
0
  0
CLASS
  1
MLEADERSTYLE
  2
AcDbMLeaderStyle
  3
ACDB_MLEADERSTYLE_CLASS
 90
4095
 91
0
280
0
281
0
  0
CLASS
  1
DICTIONARYVAR
  2
AcDbDictionaryVar
  3
ObjectDBX Classes
 90
0
 91
0
280
0
281
0
  0
CLASS
  1
CELLSTYLEMAP
  2
AcDbCellStyleMap
  3
ObjectDBX Classes
 90
1152
 91
0
280
0
281
0
  0
CLASS
  1
MENTALRAYRENDERSETTINGS
  2
AcDbMentalRayRenderSettings
  3
SCENEOE
 90
1024
 91
0
280
0
281
0
  0
CLASS
  1
ACDBDETAILVIEWSTYLE
  2
AcDbDetailViewStyle
  3
ObjectDBX Classes
 90
1025
 91
0
280
0
281
0
  0
CLASS
  1
ACDBSECTIONVIEWSTYLE
  2
AcDbSectionViewStyle
  3
ObjectDBX Classes
 90
1025
 91
0
280
0
281
0
  0
CLASS
  1
RASTERVARIABLES
  2
AcDbRasterVariables
  3
ISM
 90
0
 91
0
280
0
281
0
  0
CLASS
  1
LAYOUT
  2
AcDbLayout
  3
ObjectDBX Classes
 90
0
 91
0
280
0
281
0
  0
CLASS
  1
ACDBPLACEHOLDER
  2
AcDbPlaceHolder
  3
ObjectDBX Classes
 90
0
 91
0
280
0
281
0
  0
ENDSEC
  0
SECTION
  2
TABLES
  0
TABLE
  2
VPORT
  5
8
330
0
100
AcDbSymbolTable
 70
1
  0
VPORT
  5
23
330
8
100
AcDbSymbolTableRecord
100
AcDbViewportTableRecord
  2
*Active
 70
0
 10
0.0
 20
0.0
 11
1.0
 21
1.0
 12
0.0
 22
0.0
 13
0.0
 23
0.0
 14
0.5
 24
0.5
 15
0.5
 25
0.5
 16
0.0
 26
0.0
 36
1.0
 17
0.0
 27
0.0
 37
0.0
 40
1000.0
 41
1.34
 42
50.0
 43
0.0
 44
0.0
 50
0.0
 51
0.0
 71
0
 72
1000
 73
1
 74
3
 75
0
 76
0
 77
0
 78
0
281
0
 65
0
146
0.0
  0
ENDTAB
  0
TABLE
  2
LTYPE
  5
2
330
0
100
AcDbSymbolTable
 70
3
  0
LTYPE
  5
24
330
2
100
AcDbSymbolTableRecord
100
AcDbLinetypeTableRecord
  2
ByBlock
 70
0
  3

 72
65
 73
0
 40
0.0
  0
LTYPE
  5
25
330
2
100
AcDbSymbolTableRecord
100
AcDbLinetypeTableRecord
  2
ByLayer
 70
0
  3

 72
65
 73
0
 40
0.0
  0
LTYPE
  5
26
330
2
100
AcDbSymbolTableRecord
100
AcDbLinetypeTableRecord
  2
Continuous
 70
0
  3

 72
65
 73
0
 40
0.0
  0
ENDTAB
  0
TABLE
  2
LAYER
  5
1
330
0
100
AcDbSymbolTable
 70
6
  0
LAYER
  5
27
330
1
100
AcDbSymbolTableRecord
100
AcDbLayerTableRecord
  2
0
 70
0
 62
7
  6
Continuous
370
-3
390
13
347
21
  0
LAYER
  5
28
330
1
100
AcDbSymbolTableRecord
100
AcDbLayerTableRecord
  2
Defpoints
 70
0
 62
7
  6
Continuous
290
0
370
-3
390
13
347
21
  0
LAYER
  5
2F
330
1
100
AcDbSymbolTableRecord
100
AcDbLayerTableRecord
  2
OUTLINE
 70
0
 62
7
  6
Continuous
370
-3
390
13
347
21
  0
LAYER
  5
30
330
1
100
AcDbSymbolTableRecord
100
AcDbLayerTableRecord
  2
SCHEMATICS
 70
0
 62
7
  6
Continuous
370
-3
390
13
347
21
  0
LAYER
  5
31
330
1
100
AcDbSymbolTableRecord
100
AcDbLayerTableRecord
  2
TEXT
 70
0
 62
7
  6
Continuous
370
-3
390
13
347
21
  0
LAYER
  5
32
330
1
100
AcDbSymbolTableRecord
100
AcDbLayerTableRecord
  2
BORDER
 70
0
 62
2
  6
Continuous
370
-3
390
13
347
21
  0
ENDTAB
  0
TABLE
  2
STYLE
  5
5
330
0
100
AcDbSymbolTable
 70
1
  0
STYLE
  5
29
330
5
100
AcDbSymbolTableRecord
100
AcDbTextStyleTableRecord
  2
Standard
 70
0
 40
0.0
 41
1.0
 50
0.0
 71
0
 42
2.5
  3
txt
  4

  0
ENDTAB
  0
TABLE
  2
VIEW
  5
7
330
0
100
AcDbSymbolTable
 70
0
  0
ENDTAB
  0
TABLE
  2
UCS
  5
6
330
0
100
AcDbSymbolTable
 70
0
  0
ENDTAB
  0
TABLE
  2
APPID
  5
3
330
0
100
AcDbSymbolTable
 70
3
  0
APPID
  5
2A
330
3
100
AcDbSymbolTableRecord
100
AcDbRegAppTableRecord
  2
ACAD
 70
0
  0
APPID
  5
1E3
330
3
100
AcDbSymbolTableRecord
100
AcDbRegAppTableRecord
  2
HATCHBACKGROUNDCOLOR
 70
0
  0
APPID
  5
1E4
330
3
100
AcDbSymbolTableRecord
100
AcDbRegAppTableRecord
  2
EZDXF
 70
0
  0
ENDTAB
  0
TABLE
  2
DIMSTYLE
  5
4
330
0
100
AcDbSymbolTable
 70
1
100
AcDbDimStyleTable
  0
DIMSTYLE
105
2B
330
4
100
AcDbSymbolTableRecord
100
AcDbDimStyleTableRecord
  2
Standard
 70
0
 40
1.0
 41
2.5
 42
0.625
 43
3.75
 44
1.25
 45
0.0
 46
0.0
 47
0.0
 48
0.0
 49
2.5
140
2.5
141
2.5
142
0.0
143
0.03937007874
144
1.0
145
0.0
146
1.0
147
0.625
148
0.0
 69
0
 70
0
 71
0
 72
0
 73
0
 74
0
 75
0
 76
0
 77
1
 78
8
 79
3
170
0
171
3
172
1
173
0
174
0
175
0
176
0
177
0
178
0
179
2
271
2
272
2
273
2
274
3
275
0
276
0
277
2
278
44
279
0
280
0
281
0
282
0
283
0
284
8
285
0
286
0
288
0
289
3
290
0
371
-2
372
-2
  0
ENDTAB
  0
TABLE
  2
BLOCK_RECORD
  5
9
330
0
100
AcDbSymbolTable
 70
2
  0
BLOCK_RECORD
  5
17
330
9
100
AcDbSymbolTableRecord
100
AcDbBlockTableRecord
  2
*Model_Space
340
1A
 70
0
280
1
281
0
  0
BLOCK_RECORD
  5
1B
330
9
100
AcDbSymbolTableRecord
100
AcDbBlockTableRecord
  2
*Paper_Space
340
1E
 70
0
280
1
281
0
  0
ENDTAB
  0
ENDSEC
  0
SECTION
  2
BLOCKS
  0
BLOCK
  5
18
330
17
100
AcDbEntity
  8
0
100
AcDbBlockBegin
  2
*Model_Space
 70
0
 10
0.0
 20
0.0
 30
0.0
  3
*Model_Space
  1

  0
ENDBLK
  5
19
330
17
100
AcDbEntity
  8
0
100
AcDbBlockEnd
  0
BLOCK
  5
1C
330
1B
100
AcDbEntity
  8
0
100
AcDbBlockBegin
  2
*Paper_Space
 70
0
 10
0.0
 20
0.0
 30
0.0
  3
*Paper_Space
  1

  0
ENDBLK
  5
1D
330
1B
100
AcDbEntity
  8
0
100
AcDbBlockEnd
  0
ENDSEC
  0
SECTION
  2
ENTITIES
  0
LWPOLYLINE
  5
33
330
17
100
AcDbEntity
  8
BORDER
 62
2
100
AcDbPolyline
 90
5
 70
0
 10
0.0
 20
0.0
 10
595.280029296875
 20
0.0
 10
595.280029296875
 20
841.8900146484375
 10
0.0
 20
841.8900146484375
 10
0.0
 20
0.0
  0
LWPOLYLINE
  5
34
330
17
100
AcDbEntity
  8
SCHEMATICS
 62
7
100
AcDbPolyline
 90
5
 70
0
 10
58.689998626708984
 20
775.8499755859375
 10
228.77000427246094
 20
775.8499755859375
 10
228.77000427246094
 20
793.699951171875
 10
58.689998626708984
 20
793.699951171875
 10
58.689998626708984
 20
775.8499755859375
  0
LWPOLYLINE
  5
35
330
17
100
AcDbEntity
  8
SCHEMATICS
 62
7
100
AcDbPolyline
 90
5
 70
0
 10
228.77000427246094
 20
775.8499755859375
 10
257.1199951171875
 20
775.8499755859375
 10
257.1199951171875
 20
793.699951171875
 10
228.77000427246094
 20
793.699951171875
 10
228.77000427246094
 20
775.8499755859375
  0
LWPOLYLINE
  5
36
330
17
100
AcDbEntity
  8
SCHEMATICS
 62
7
100
AcDbPolyline
 90
5
 70
0
 10
257.1199951171875
 20
775.8499755859375
 10
568.9299926757812
 20
775.8499755859375
 10
568.9299926757812
 20
793.699951171875
 10
257.1199951171875
 20
793.699951171875
 10
257.1199951171875
 20
775.8499755859375
  0
LWPOLYLINE
  5
37
330
17
100
AcDbEntity
  8
SCHEMATICS
 62
7
100
AcDbPolyline
 90
5
 70
0
 10
58.689998626708984
 20
753.5900268554688
 10
228.77000427246094
 20
753.5900268554688
 10
228.77000427246094
 20
766.8400268554688
 10
58.689998626708984
 20
766.8400268554688
 10
58.689998626708984
 20
753.5900268554688
  0
LWPOLYLINE
  5
38
330
17
100
AcDbEntity
  8
SCHEMATICS
 62
7
100
AcDbPolyline
 90
5
 70
0
 10
228.77000427246094
 20
753.5900268554688
 10
257.1199951171875
 20
753.5900268554688
 10
257.1199951171875
 20
766.8400268554688
 10
228.77000427246094
 20
766.8400268554688
 10
228.77000427246094
 20
753.5900268554688
  0
LWPOLYLINE
  5
39
330
17
100
AcDbEntity
  8
SCHEMATICS
 62
7
100
AcDbPolyline
 90
5
 70
0
 10
257.1199951171875
 20
753.5900268554688
 10
568.9299926757812
 20
753.5900268554688
 10
568.9299926757812
 20
766.8400268554688
 10
257.1199951171875
 20
766.8400268554688
 10
257.1199951171875
 20
753.5900268554688
  0
LWPOLYLINE
  5
3A
330
17
100
AcDbEntity
  8
SCHEMATICS
 62
7
100
AcDbPolyline
 90
5
 70
0
 10
58.689998626708984
 20
740.3400268554688
 10
568.9299926757812
 20
740.3400268554688
 10
568.9299926757812
 20
753.5900268554688
 10
58.689998626708984
 20
753.5900268554688
 10
58.689998626708984
 20
740.3400268554688
  0
LWPOLYLINE
  5
3B
330
17
100
AcDbEntity
  8
SCHEMATICS
 62
7
100
AcDbPolyline
 90
5
 70
0
 10
58.689998626708984
 20
727.0900268554688
 10
228.77000427246094
 20
727.0900268554688
 10
228.77000427246094
 20
740.3400268554688
 10
58.689998626708984
 20
740.3400268554688
 10
58.689998626708984
 20
727.0900268554688
  0
LWPOLYLINE
  5
3C
330
17
100
AcDbEntity
  8
SCHEMATICS
 62
7
100
AcDbPolyline
 90
5
 70
0
 10
228.77000427246094
 20
727.0900268554688
 10
257.1199951171875
 20
727.0900268554688
 10
257.1199951171875
 20
740.3400268554688
 10
228.77000427246094
 20
740.3400268554688
 10
228.77000427246094
 20
727.0900268554688
  0
LWPOLYLINE
  5
3D
330
17
100
AcDbEntity
  8
SCHEMATICS
 62
7
100
AcDbPolyline
 90
5
 70
0
 10
257.1199951171875
 20
727.0900268554688
 10
568.9299926757812
 20
727.0900268554688
 10
568.9299926757812
 20
740.3400268554688
 10
257.1199951171875
 20
740.3400268554688
 10
257.1199951171875
 20
727.0900268554688
  0
LINE
  5
3E
330
17
100
AcDbEntity
  8
SCHEMATICS
 62
7
100
AcDbLine
 10
58.689998626708984
 20
713.8300170898438
 30
0.0
 11
58.689998626708984
 21
727.0900268554688
 31
0.0
  0
LINE
  5
3F
330
17
100
AcDbEntity
  8
SCHEMATICS
 62
7
100
AcDbLine
 10
228.77000427246094
 20
713.8300170898438
 30
0.0
 11
58.689998626708984
 21
713.8300170898438
 31
0.0
  0
LINE
  5
40
330
17
100
AcDbEntity
  8
SCHEMATICS
 62
7
100
AcDbLine
 10
228.77000427246094
 20
713.8300170898438
 30
0.0
 11
228.77000427246094
 21
727.0900268554688
 31
0.0
  0
LINE
  5
41
330
17
100
AcDbEntity
  8
SCHEMATICS
 62
7
100
AcDbLine
 10
257.1199951171875
 20
713.8300170898438
 30
0.0
 11
228.77000427246094
 21
713.8300170898438
 31
0.0
  0
LINE
  5
42
330
17
100
AcDbEntity
  8
SCHEMATICS
 62
7
100
AcDbLine
 10
257.1199951171875
 20
713.8300170898438
 30
0.0
 11
257.1199951171875
 21
727.0900268554688
 31
0.0
  0
LINE
  5
43
330
17
100
AcDbEntity
  8
SCHEMATICS
 62
7
100
AcDbLine
 10
568.9299926757812
 20
727.0900268554688
 30
0.0
 11
568.9299926757812
 21
713.8300170898438
 31
0.0
  0
LINE
  5
44
330
17
100
AcDbEntity
  8
SCHEMATICS
 62
7
100
AcDbLine
 10
568.9299926757812
 20
713.8300170898438
 30
0.0
 11
257.1199951171875
 21
713.8300170898438
 31
0.0
  0
LWPOLYLINE
  5
45
330
17
100
AcDbEntity
  8
SCHEMATICS
 62
7
100
AcDbPolyline
 90
5
 70
0
 10
58.689998626708984
 20
684.5800170898438
 10
228.77000427246094
 20
684.5800170898438
 10
228.77000427246094
 20
713.8300170898438
 10
58.689998626708984
 20
713.8300170898438
 10
58.689998626708984
 20
684.5800170898438
  0
LWPOLYLINE
  5
46
330
17
100
AcDbEntity
  8
SCHEMATICS
 62
7
100
AcDbPolyline
 90
5
 70
0
 10
228.77000427246094
 20
684.5800170898438
 10
257.1199951171875
 20
684.5800170898438
 10
257.1199951171875
 20
713.8300170898438
 10
228.77000427246094
 20
713.8300170898438
 10
228.77000427246094
 20
684.5800170898438
  0
LWPOLYLINE
  5
47
330
17
100
AcDbEntity
  8
SCHEMATICS
 62
7
100
AcDbPolyline
 90
5
 70
0
 10
257.1199951171875
 20
684.5800170898438
 10
568.9299926757812
 20
684.5800170898438
 10
568.9299926757812
 20
713.8300170898438
 10
257.1199951171875
 20
713.8300170898438
 10
257.1199951171875
 20
684.5800170898438
  0
LINE
  5
48
330
17
100
AcDbEntity
  8
SCHEMATICS
 62
7
100
AcDbLine
 10
58.689998626708984
 20
671.3300170898438
 30
0.0
 11
58.689998626708984
 21
684.5800170898438
 31
0.0
  0
LINE
  5
49
330
17
100
AcDbEntity
  8
SCHEMATICS
 62
7
100
AcDbLine
 10
228.77000427246094
 20
671.3300170898438
 30
0.0
 11
58.689998626708984
 21
671.3300170898438
 31
0.0
  0
LINE
  5
4A
330
17
100
AcDbEntity
  8
SCHEMATICS
 62
7
100
AcDbLine
 10
228.77000427246094
 20
671.3300170898438
 30
0.0
 11
228.77000427246094
 21
684.5800170898438
 31
0.0
  0
LINE
  5
4B
330
17
100
AcDbEntity
  8
SCHEMATICS
 62
7
100
AcDbLine
 10
257.1199951171875
 20
671.3300170898438
 30
0.0
 11
228.77000427246094
 21
671.3300170898438
 31
0.0
  0
LINE
  5
4C
330
17
100
AcDbEntity
  8
SCHEMATICS
 62
7
100
AcDbLine
 10
257.1199951171875
 20
671.3300170898438
 30
0.0
 11
257.1199951171875
 21
684.5800170898438
 31
0.0
  0
LINE
  5
4D
330
17
100
AcDbEntity
  8
SCHEMATICS
 62
7
100
AcDbLine
 10
568.9299926757812
 20
684.5800170898438
 30
0.0
 11
568.9299926757812
 21
671.3300170898438
 31
0.0
  0
LINE
  5
4E
330
17
100
AcDbEntity
  8
SCHEMATICS
 62
7
100
AcDbLine
 10
568.9299926757812
 20
671.3300170898438
 30
0.0
 11
257.1199951171875
 21
671.3300170898438
 31
0.0
  0
LWPOLYLINE
  5
4F
330
17
100
AcDbEntity
  8
SCHEMATICS
 62
7
100
AcDbPolyline
 90
5
 70
0
 10
58.689998626708984
 20
658.0800170898438
 10
568.9299926757812
 20
658.0800170898438
 10
568.9299926757812
 20
671.3300170898438
 10
58.689998626708984
 20
671.3300170898438
 10
58.689998626708984
 20
658.0800170898438
  0
LINE
  5
50
330
17
100
AcDbEntity
  8
SCHEMATICS
 62
7
100
AcDbLine
 10
58.689998626708984
 20
612.8300170898438
 30
0.0
 11
58.689998626708984
 21
658.0800170898438
 31
0.0
  0
LINE
  5
51
330
17
100
AcDbEntity
  8
SCHEMATICS
 62
7
100
AcDbLine
 10
228.77000427246094
 20
612.8300170898438
 30
0.0
 11
58.689998626708984
 21
612.8300170898438
 31
0.0
  0
LINE
  5
52
330
17
100
AcDbEntity
  8
SCHEMATICS
 62
7
100
AcDbLine
 10
228.77000427246094
 20
612.8300170898438
 30
0.0
 11
228.77000427246094
 21
658.0800170898438
 31
0.0
  0
LINE
  5
53
330
17
100
AcDbEntity
  8
SCHEMATICS
 62
7
100
AcDbLine
 10
257.1199951171875
 20
612.8300170898438
 30
0.0
 11
228.77000427246094
 21
612.8300170898438
 31
0.0
  0
LINE
  5
54
330
17
100
AcDbEntity
  8
SCHEMATICS
 62
7
100
AcDbLine
 10
257.1199951171875
 20
612.8300170898438
 30
0.0
 11
257.1199951171875
 21
658.0800170898438
 31
0.0
  0
LINE
  5
55
330
17
100
AcDbEntity
  8
SCHEMATICS
 62
7
100
AcDbLine
 10
568.9299926757812
 20
658.0800170898438
 30
0.0
 11
568.9299926757812
 21
612.8300170898438
 31
0.0
  0
LINE
  5
56
330
17
100
AcDbEntity
  8
SCHEMATICS
 62
7
100
AcDbLine
 10
568.9299926757812
 20
612.8300170898438
 30
0.0
 11
257.1199951171875
 21
612.8300170898438
 31
0.0
  0
LWPOLYLINE
  5
57
330
17
100
AcDbEntity
  8
SCHEMATICS
 62
7
100
AcDbPolyline
 90
5
 70
0
 10
58.689998626708984
 20
599.5700073242188
 10
568.9299926757812
 20
599.5700073242188
 10
568.9299926757812
 20
612.8200073242188
 10
58.689998626708984
 20
612.8200073242188
 10
58.689998626708984
 20
599.5700073242188
  0
LINE
  5
58
330
17
100
AcDbEntity
  8
SCHEMATICS
 62
7
100
AcDbLine
 10
58.689998626708984
 20
586.3200073242188
 30
0.0
 11
58.689998626708984
 21
599.5700073242188
 31
0.0
  0
LINE
  5
59
330
17
100
AcDbEntity
  8
SCHEMATICS
 62
7
100
AcDbLine
 10
228.77000427246094
 20
586.3200073242188
 30
0.0
 11
58.689998626708984
 21
586.3200073242188
 31
0.0
  0
LINE
  5
5A
330
17
100
AcDbEntity
  8
SCHEMATICS
 62
7
100
AcDbLine
 10
228.77000427246094
 20
586.3200073242188
 30
0.0
 11
228.77000427246094
 21
599.5700073242188
 31
0.0
  0
LINE
  5
5B
330
17
100
AcDbEntity
  8
SCHEMATICS
 62
7
100
AcDbLine
 10
257.1199951171875
 20
586.3200073242188
 30
0.0
 11
228.77000427246094
 21
586.3200073242188
 31
0.0
  0
LINE
  5
5C
330
17
100
AcDbEntity
  8
SCHEMATICS
 62
7
100
AcDbLine
 10
257.1199951171875
 20
586.3200073242188
 30
0.0
 11
257.1199951171875
 21
599.5700073242188
 31
0.0
  0
LINE
  5
5D
330
17
100
AcDbEntity
  8
SCHEMATICS
 62
7
100
AcDbLine
 10
568.9299926757812
 20
599.5700073242188
 30
0.0
 11
568.9299926757812
 21
586.3200073242188
 31
0.0
  0
LINE
  5
5E
330
17
100
AcDbEntity
  8
SCHEMATICS
 62
7
100
AcDbLine
 10
568.9299926757812
 20
586.3200073242188
 30
0.0
 11
257.1199951171875
 21
586.3200073242188
 31
0.0
  0
LWPOLYLINE
  5
5F
330
17
100
AcDbEntity
  8
SCHEMATICS
 62
7
100
AcDbPolyline
 90
5
 70
0
 10
58.689998626708984
 20
573.0700073242188
 10
228.77000427246094
 20
573.0700073242188
 10
228.77000427246094
 20
586.3200073242188
 10
58.689998626708984
 20
586.3200073242188
 10
58.689998626708984
 20
573.0700073242188
  0
LWPOLYLINE
  5
60
330
17
100
AcDbEntity
  8
SCHEMATICS
 62
7
100
AcDbPolyline
 90
5
 70
0
 10
228.77000427246094
 20
573.0700073242188
 10
257.1199951171875
 20
573.0700073242188
 10
257.1199951171875
 20
586.3200073242188
 10
228.77000427246094
 20
586.3200073242188
 10
228.77000427246094
 20
573.0700073242188
  0
LWPOLYLINE
  5
61
330
17
100
AcDbEntity
  8
SCHEMATICS
 62
7
100
AcDbPolyline
 90
5
 70
0
 10
257.1199951171875
 20
573.0700073242188
 10
568.9299926757812
 20
573.0700073242188
 10
568.9299926757812
 20
586.3200073242188
 10
257.1199951171875
 20
586.3200073242188
 10
257.1199951171875
 20
573.0700073242188
  0
LWPOLYLINE
  5
62
330
17
100
AcDbEntity
  8
SCHEMATICS
 62
7
100
AcDbPolyline
 90
5
 70
0
 10
58.689998626708984
 20
559.8200073242188
 10
568.9299926757812
 20
559.8200073242188
 10
568.9299926757812
 20
573.0700073242188
 10
58.689998626708984
 20
573.0700073242188
 10
58.689998626708984
 20
559.8200073242188
  0
LWPOLYLINE
  5
63
330
17
100
AcDbEntity
  8
SCHEMATICS
 62
7
100
AcDbPolyline
 90
5
 70
0
 10
58.689998626708984
 20
538.5700073242188
 10
228.77000427246094
 20
538.5700073242188
 10
228.77000427246094
 20
559.8200073242188
 10
58.689998626708984
 20
559.8200073242188
 10
58.689998626708984
 20
538.5700073242188
  0
LWPOLYLINE
  5
64
330
17
100
AcDbEntity
  8
SCHEMATICS
 62
7
100
AcDbPolyline
 90
5
 70
0
 10
228.77000427246094
 20
538.5700073242188
 10
257.1199951171875
 20
538.5700073242188
 10
257.1199951171875
 20
559.8200073242188
 10
228.77000427246094
 20
559.8200073242188
 10
228.77000427246094
 20
538.5700073242188
  0
LWPOLYLINE
  5
65
330
17
100
AcDbEntity
  8
SCHEMATICS
 62
7
100
AcDbPolyline
 90
5
 70
0
 10
257.1199951171875
 20
538.5700073242188
 10
568.9299926757812
 20
538.5700073242188
 10
568.9299926757812
 20
559.8200073242188
 10
257.1199951171875
 20
559.8200073242188
 10
257.1199951171875
 20
538.5700073242188
  0
LINE
  5
66
330
17
100
AcDbEntity
  8
SCHEMATICS
 62
7
100
AcDbLine
 10
58.689998626708984
 20
525.3099975585938
 30
0.0
 11
58.689998626708984
 21
538.5700073242188
 31
0.0
  0
LINE
  5
67
330
17
100
AcDbEntity
  8
SCHEMATICS
 62
7
100
AcDbLine
 10
228.77000427246094
 20
525.3099975585938
 30
0.0
 11
58.689998626708984
 21
525.3099975585938
 31
0.0
  0
LINE
  5
68
330
17
100
AcDbEntity
  8
SCHEMATICS
 62
7
100
AcDbLine
 10
228.77000427246094
 20
525.3099975585938
 30
0.0
 11
228.77000427246094
 21
538.5700073242188
 31
0.0
  0
LINE
  5
69
330
17
100
AcDbEntity
  8
SCHEMATICS
 62
7
100
AcDbLine
 10
257.1199951171875
 20
525.3099975585938
 30
0.0
 11
228.77000427246094
 21
525.3099975585938
 31
0.0
  0
LINE
  5
6A
330
17
100
AcDbEntity
  8
SCHEMATICS
 62
7
100
AcDbLine
 10
257.1199951171875
 20
525.3099975585938
 30
0.0
 11
257.1199951171875
 21
538.5700073242188
 31
0.0
  0
LINE
  5
6B
330
17
100
AcDbEntity
  8
SCHEMATICS
 62
7
100
AcDbLine
 10
568.9299926757812
 20
538.5700073242188
 30
0.0
 11
568.9299926757812
 21
525.3099975585938
 31
0.0
  0
LINE
  5
6C
330
17
100
AcDbEntity
  8
SCHEMATICS
 62
7
100
AcDbLine
 10
568.9299926757812
 20
525.3099975585938
 30
0.0
 11
257.1199951171875
 21
525.3099975585938
 31
0.0
  0
LWPOLYLINE
  5
6D
330
17
100
AcDbEntity
  8
SCHEMATICS
 62
7
100
AcDbPolyline
 90
5
 70
0
 10
58.689998626708984
 20
512.0599975585938
 10
568.9299926757812
 20
512.0599975585938
 10
568.9299926757812
 20
525.3099975585938
 10
58.689998626708984
 20
525.3099975585938
 10
58.689998626708984
 20
512.0599975585938
  0
LINE
  5
6E
330
17
100
AcDbEntity
  8
SCHEMATICS
 62
7
100
AcDbLine
 10
58.689998626708984
 20
498.80999755859375
 30
0.0
 11
58.689998626708984
 21
512.0599975585938
 31
0.0
  0
LINE
  5
6F
330
17
100
AcDbEntity
  8
SCHEMATICS
 62
7
100
AcDbLine
 10
228.77000427246094
 20
498.80999755859375
 30
0.0
 11
58.689998626708984
 21
498.80999755859375
 31
0.0
  0
LINE
  5
70
330
17
100
AcDbEntity
  8
SCHEMATICS
 62
7
100
AcDbLine
 10
228.77000427246094
 20
498.80999755859375
 30
0.0
 11
228.77000427246094
 21
512.0599975585938
 31
0.0
  0
LINE
  5
71
330
17
100
AcDbEntity
  8
SCHEMATICS
 62
7
100
AcDbLine
 10
257.1199951171875
 20
498.80999755859375
 30
0.0
 11
228.77000427246094
 21
498.80999755859375
 31
0.0
  0
LINE
  5
72
330
17
100
AcDbEntity
  8
SCHEMATICS
 62
7
100
AcDbLine
 10
257.1199951171875
 20
498.80999755859375
 30
0.0
 11
257.1199951171875
 21
512.0599975585938
 31
0.0
  0
LINE
  5
73
330
17
100
AcDbEntity
  8
SCHEMATICS
 62
7
100
AcDbLine
 10
568.9299926757812
 20
512.0599975585938
 30
0.0
 11
568.9299926757812
 21
498.80999755859375
 31
0.0
  0
LINE
  5
74
330
17
100
AcDbEntity
  8
SCHEMATICS
 62
7
100
AcDbLine
 10
568.9299926757812
 20
498.80999755859375
 30
0.0
 11
257.1199951171875
 21
498.80999755859375
 31
0.0
  0
LWPOLYLINE
  5
75
330
17
100
AcDbEntity
  8
SCHEMATICS
 62
7
100
AcDbPolyline
 90
5
 70
0
 10
58.689998626708984
 20
485.55999755859375
 10
228.77000427246094
 20
485.55999755859375
 10
228.77000427246094
 20
498.80999755859375
 10
58.689998626708984
 20
498.80999755859375
 10
58.689998626708984
 20
485.55999755859375
  0
LWPOLYLINE
  5
76
330
17
100
AcDbEntity
  8
SCHEMATICS
 62
7
100
AcDbPolyline
 90
5
 70
0
 10
228.77000427246094
 20
485.55999755859375
 10
257.1199951171875
 20
485.55999755859375
 10
257.1199951171875
 20
498.80999755859375
 10
228.77000427246094
 20
498.80999755859375
 10
228.77000427246094
 20
485.55999755859375
  0
LWPOLYLINE
  5
77
330
17
100
AcDbEntity
  8
SCHEMATICS
 62
7
100
AcDbPolyline
 90
5
 70
0
 10
257.1199951171875
 20
485.55999755859375
 10
568.9299926757812
 20
485.55999755859375
 10
568.9299926757812
 20
498.80999755859375
 10
257.1199951171875
 20
498.80999755859375
 10
257.1199951171875
 20
485.55999755859375
  0
LWPOLYLINE
  5
78
330
17
100
AcDbEntity
  8
SCHEMATICS
 62
7
100
AcDbPolyline
 90
5
 70
0
 10
58.689998626708984
 20
472.30999755859375
 10
568.9299926757812
 20
472.30999755859375
 10
568.9299926757812
 20
485.55999755859375
 10
58.689998626708984
 20
485.55999755859375
 10
58.689998626708984
 20
472.30999755859375
  0
LWPOLYLINE
  5
79
330
17
100
AcDbEntity
  8
SCHEMATICS
 62
7
100
AcDbPolyline
 90
5
 70
0
 10
58.689998626708984
 20
459.04998779296875
 10
228.77000427246094
 20
459.04998779296875
 10
228.77000427246094
 20
472.29998779296875
 10
58.689998626708984
 20
472.29998779296875
 10
58.689998626708984
 20
459.04998779296875
  0
LWPOLYLINE
  5
7A
330
17
100
AcDbEntity
  8
SCHEMATICS
 62
7
100
AcDbPolyline
 90
5
 70
0
 10
228.77000427246094
 20
459.04998779296875
 10
257.1199951171875
 20
459.04998779296875
 10
257.1199951171875
 20
472.29998779296875
 10
228.77000427246094
 20
472.29998779296875
 10
228.77000427246094
 20
459.04998779296875
  0
LWPOLYLINE
  5
7B
330
17
100
AcDbEntity
  8
SCHEMATICS
 62
7
100
AcDbPolyline
 90
5
 70
0
 10
257.1199951171875
 20
459.04998779296875
 10
568.9299926757812
 20
459.04998779296875
 10
568.9299926757812
 20
472.29998779296875
 10
257.1199951171875
 20
472.29998779296875
 10
257.1199951171875
 20
459.04998779296875
  0
LINE
  5
7C
330
17
100
AcDbEntity
  8
SCHEMATICS
 62
7
100
AcDbLine
 10
58.689998626708984
 20
445.79998779296875
 30
0.0
 11
58.689998626708984
 21
459.04998779296875
 31
0.0
  0
LINE
  5
7D
330
17
100
AcDbEntity
  8
SCHEMATICS
 62
7
100
AcDbLine
 10
228.77000427246094
 20
445.79998779296875
 30
0.0
 11
58.689998626708984
 21
445.79998779296875
 31
0.0
  0
LINE
  5
7E
330
17
100
AcDbEntity
  8
SCHEMATICS
 62
7
100
AcDbLine
 10
228.77000427246094
 20
445.79998779296875
 30
0.0
 11
228.77000427246094
 21
459.04998779296875
 31
0.0
  0
LINE
  5
7F
330
17
100
AcDbEntity
  8
SCHEMATICS
 62
7
100
AcDbLine
 10
257.1199951171875
 20
445.79998779296875
 30
0.0
 11
228.77000427246094
 21
445.79998779296875
 31
0.0
  0
LINE
  5
80
330
17
100
AcDbEntity
  8
SCHEMATICS
 62
7
100
AcDbLine
 10
257.1199951171875
 20
445.79998779296875
 30
0.0
 11
257.1199951171875
 21
459.04998779296875
 31
0.0
  0
LINE
  5
81
330
17
100
AcDbEntity
  8
SCHEMATICS
 62
7
100
AcDbLine
 10
568.9299926757812
 20
459.04998779296875
 30
0.0
 11
568.9299926757812
 21
445.79998779296875
 31
0.0
  0
LINE
  5
82
330
17
100
AcDbEntity
  8
SCHEMATICS
 62
7
100
AcDbLine
 10
568.9299926757812
 20
445.79998779296875
 30
0.0
 11
257.1199951171875
 21
445.79998779296875
 31
0.0
  0
LWPOLYLINE
  5
83
330
17
100
AcDbEntity
  8
SCHEMATICS
 62
7
100
AcDbPolyline
 90
5
 70
0
 10
58.689998626708984
 20
432.54998779296875
 10
228.77000427246094
 20
432.54998779296875
 10
228.77000427246094
 20
445.79998779296875
 10
58.689998626708984
 20
445.79998779296875
 10
58.689998626708984
 20
432.54998779296875
  0
LWPOLYLINE
  5
84
330
17
100
AcDbEntity
  8
SCHEMATICS
 62
7
100
AcDbPolyline
 90
5
 70
0
 10
228.77000427246094
 20
432.54998779296875
 10
257.1199951171875
 20
432.54998779296875
 10
257.1199951171875
 20
445.79998779296875
 10
228.77000427246094
 20
445.79998779296875
 10
228.77000427246094
 20
432.54998779296875
  0
LWPOLYLINE
  5
85
330
17
100
AcDbEntity
  8
SCHEMATICS
 62
7
100
AcDbPolyline
 90
5
 70
0
 10
257.1199951171875
 20
432.54998779296875
 10
568.9299926757812
 20
432.54998779296875
 10
568.9299926757812
 20
445.79998779296875
 10
257.1199951171875
 20
445.79998779296875
 10
257.1199951171875
 20
432.54998779296875
  0
LINE
  5
86
330
17
100
AcDbEntity
  8
SCHEMATICS
 62
7
100
AcDbLine
 10
58.689998626708984
 20
419.29998779296875
 30
0.0
 11
58.689998626708984
 21
432.54998779296875
 31
0.0
  0
LINE
  5
87
330
17
100
AcDbEntity
  8
SCHEMATICS
 62
7
100
AcDbLine
 10
228.77000427246094
 20
419.29998779296875
 30
0.0
 11
58.689998626708984
 21
419.29998779296875
 31
0.0
  0
LINE
  5
88
330
17
100
AcDbEntity
  8
SCHEMATICS
 62
7
100
AcDbLine
 10
228.77000427246094
 20
419.29998779296875
 30
0.0
 11
228.77000427246094
 21
432.54998779296875
 31
0.0
  0
LINE
  5
89
330
17
100
AcDbEntity
  8
SCHEMATICS
 62
7
100
AcDbLine
 10
257.1199951171875
 20
419.29998779296875
 30
0.0
 11
228.77000427246094
 21
419.29998779296875
 31
0.0
  0
LINE
  5
8A
330
17
100
AcDbEntity
  8
SCHEMATICS
 62
7
100
AcDbLine
 10
257.1199951171875
 20
419.29998779296875
 30
0.0
 11
257.1199951171875
 21
432.54998779296875
 31
0.0
  0
LINE
  5
8B
330
17
100
AcDbEntity
  8
SCHEMATICS
 62
7
100
AcDbLine
 10
568.9299926757812
 20
432.54998779296875
 30
0.0
 11
568.9299926757812
 21
419.29998779296875
 31
0.0
  0
LINE
  5
8C
330
17
100
AcDbEntity
  8
SCHEMATICS
 62
7
100
AcDbLine
 10
568.9299926757812
 20
419.29998779296875
 30
0.0
 11
257.1199951171875
 21
419.29998779296875
 31
0.0
  0
LWPOLYLINE
  5
8D
330
17
100
AcDbEntity
  8
SCHEMATICS
 62
7
100
AcDbPolyline
 90
5
 70
0
 10
58.689998626708984
 20
406.04998779296875
 10
228.77000427246094
 20
406.04998779296875
 10
228.77000427246094
 20
419.29998779296875
 10
58.689998626708984
 20
419.29998779296875
 10
58.689998626708984
 20
406.04998779296875
  0
LWPOLYLINE
  5
8E
330
17
100
AcDbEntity
  8
SCHEMATICS
 62
7
100
AcDbPolyline
 90
5
 70
0
 10
228.77000427246094
 20
406.04998779296875
 10
257.1199951171875
 20
406.04998779296875
 10
257.1199951171875
 20
419.29998779296875
 10
228.77000427246094
 20
419.29998779296875
 10
228.77000427246094
 20
406.04998779296875
  0
LWPOLYLINE
  5
8F
330
17
100
AcDbEntity
  8
SCHEMATICS
 62
7
100
AcDbPolyline
 90
5
 70
0
 10
257.1199951171875
 20
406.04998779296875
 10
568.9299926757812
 20
406.04998779296875
 10
568.9299926757812
 20
419.29998779296875
 10
257.1199951171875
 20
419.29998779296875
 10
257.1199951171875
 20
406.04998779296875
  0
LINE
  5
90
330
17
100
AcDbEntity
  8
SCHEMATICS
 62
7
100
AcDbLine
 10
58.689998626708984
 20
392.7900085449219
 30
0.0
 11
58.689998626708984
 21
406.04998779296875
 31
0.0
  0
LINE
  5
91
330
17
100
AcDbEntity
  8
SCHEMATICS
 62
7
100
AcDbLine
 10
228.77000427246094
 20
392.7900085449219
 30
0.0
 11
58.689998626708984
 21
392.7900085449219
 31
0.0
  0
LINE
  5
92
330
17
100
AcDbEntity
  8
SCHEMATICS
 62
7
100
AcDbLine
 10
228.77000427246094
 20
392.7900085449219
 30
0.0
 11
228.77000427246094
 21
406.04998779296875
 31
0.0
  0
LINE
  5
93
330
17
100
AcDbEntity
  8
SCHEMATICS
 62
7
100
AcDbLine
 10
257.1199951171875
 20
392.7900085449219
 30
0.0
 11
228.77000427246094
 21
392.7900085449219
 31
0.0
  0
LINE
  5
94
330
17
100
AcDbEntity
  8
SCHEMATICS
 62
7
100
AcDbLine
 10
257.1199951171875
 20
392.7900085449219
 30
0.0
 11
257.1199951171875
 21
406.04998779296875
 31
0.0
  0
LINE
  5
95
330
17
100
AcDbEntity
  8
SCHEMATICS
 62
7
100
AcDbLine
 10
568.9299926757812
 20
406.04998779296875
 30
0.0
 11
568.9299926757812
 21
392.7900085449219
 31
0.0
  0
LINE
  5
96
330
17
100
AcDbEntity
  8
SCHEMATICS
 62
7
100
AcDbLine
 10
568.9299926757812
 20
392.7900085449219
 30
0.0
 11
257.1199951171875
 21
392.7900085449219
 31
0.0
  0
LWPOLYLINE
  5
97
330
17
100
AcDbEntity
  8
SCHEMATICS
 62
7
100
AcDbPolyline
 90
5
 70
0
 10
58.689998626708984
 20
379.5400085449219
 10
228.77000427246094
 20
379.5400085449219
 10
228.77000427246094
 20
392.7900085449219
 10
58.689998626708984
 20
392.7900085449219
 10
58.689998626708984
 20
379.5400085449219
  0
LWPOLYLINE
  5
98
330
17
100
AcDbEntity
  8
SCHEMATICS
 62
7
100
AcDbPolyline
 90
5
 70
0
 10
228.77000427246094
 20
379.5400085449219
 10
257.1199951171875
 20
379.5400085449219
 10
257.1199951171875
 20
392.7900085449219
 10
228.77000427246094
 20
392.7900085449219
 10
228.77000427246094
 20
379.5400085449219
  0
LWPOLYLINE
  5
99
330
17
100
AcDbEntity
  8
SCHEMATICS
 62
7
100
AcDbPolyline
 90
5
 70
0
 10
257.1199951171875
 20
379.5400085449219
 10
568.9299926757812
 20
379.5400085449219
 10
568.9299926757812
 20
392.7900085449219
 10
257.1199951171875
 20
392.7900085449219
 10
257.1199951171875
 20
379.5400085449219
  0
LINE
  5
9A
330
17
100
AcDbEntity
  8
SCHEMATICS
 62
7
100
AcDbLine
 10
58.689998626708984
 20
366.2900085449219
 30
0.0
 11
58.689998626708984
 21
379.5400085449219
 31
0.0
  0
LINE
  5
9B
330
17
100
AcDbEntity
  8
SCHEMATICS
 62
7
100
AcDbLine
 10
228.77000427246094
 20
366.2900085449219
 30
0.0
 11
58.689998626708984
 21
366.2900085449219
 31
0.0
  0
LINE
  5
9C
330
17
100
AcDbEntity
  8
SCHEMATICS
 62
7
100
AcDbLine
 10
228.77000427246094
 20
366.2900085449219
 30
0.0
 11
228.77000427246094
 21
379.5400085449219
 31
0.0
  0
LINE
  5
9D
330
17
100
AcDbEntity
  8
SCHEMATICS
 62
7
100
AcDbLine
 10
257.1199951171875
 20
366.2900085449219
 30
0.0
 11
228.77000427246094
 21
366.2900085449219
 31
0.0
  0
LINE
  5
9E
330
17
100
AcDbEntity
  8
SCHEMATICS
 62
7
100
AcDbLine
 10
257.1199951171875
 20
366.2900085449219
 30
0.0
 11
257.1199951171875
 21
379.5400085449219
 31
0.0
  0
LINE
  5
9F
330
17
100
AcDbEntity
  8
SCHEMATICS
 62
7
100
AcDbLine
 10
568.9299926757812
 20
379.5400085449219
 30
0.0
 11
568.9299926757812
 21
366.2900085449219
 31
0.0
  0
LINE
  5
A0
330
17
100
AcDbEntity
  8
SCHEMATICS
 62
7
100
AcDbLine
 10
568.9299926757812
 20
366.2900085449219
 30
0.0
 11
257.1199951171875
 21
366.2900085449219
 31
0.0
  0
LWPOLYLINE
  5
A1
330
17
100
AcDbEntity
  8
SCHEMATICS
 62
7
100
AcDbPolyline
 90
5
 70
0
 10
58.689998626708984
 20
353.0400085449219
 10
228.77000427246094
 20
353.0400085449219
 10
228.77000427246094
 20
366.2900085449219
 10
58.689998626708984
 20
366.2900085449219
 10
58.689998626708984
 20
353.0400085449219
  0
LWPOLYLINE
  5
A2
330
17
100
AcDbEntity
  8
SCHEMATICS
 62
7
100
AcDbPolyline
 90
5
 70
0
 10
228.77000427246094
 20
353.0400085449219
 10
257.1199951171875
 20
353.0400085449219
 10
257.1199951171875
 20
366.2900085449219
 10
228.77000427246094
 20
366.2900085449219
 10
228.77000427246094
 20
353.0400085449219
  0
LWPOLYLINE
  5
A3
330
17
100
AcDbEntity
  8
SCHEMATICS
 62
7
100
AcDbPolyline
 90
5
 70
0
 10
257.1199951171875
 20
353.0400085449219
 10
568.9299926757812
 20
353.0400085449219
 10
568.9299926757812
 20
366.2900085449219
 10
257.1199951171875
 20
366.2900085449219
 10
257.1199951171875
 20
353.0400085449219
  0
LINE
  5
A4
330
17
100
AcDbEntity
  8
SCHEMATICS
 62
7
100
AcDbLine
 10
58.689998626708984
 20
331.7900085449219
 30
0.0
 11
58.689998626708984
 21
353.0400085449219
 31
0.0
  0
LINE
  5
A5
330
17
100
AcDbEntity
  8
SCHEMATICS
 62
7
100
AcDbLine
 10
228.77000427246094
 20
331.7900085449219
 30
0.0
 11
58.689998626708984
 21
331.7900085449219
 31
0.0
  0
LINE
  5
A6
330
17
100
AcDbEntity
  8
SCHEMATICS
 62
7
100
AcDbLine
 10
228.77000427246094
 20
331.7900085449219
 30
0.0
 11
228.77000427246094
 21
353.0400085449219
 31
0.0
  0
LINE
  5
A7
330
17
100
AcDbEntity
  8
SCHEMATICS
 62
7
100
AcDbLine
 10
257.1199951171875
 20
331.7900085449219
 30
0.0
 11
228.77000427246094
 21
331.7900085449219
 31
0.0
  0
LINE
  5
A8
330
17
100
AcDbEntity
  8
SCHEMATICS
 62
7
100
AcDbLine
 10
257.1199951171875
 20
331.7900085449219
 30
0.0
 11
257.1199951171875
 21
353.0400085449219
 31
0.0
  0
LINE
  5
A9
330
17
100
AcDbEntity
  8
SCHEMATICS
 62
7
100
AcDbLine
 10
568.9299926757812
 20
353.0400085449219
 30
0.0
 11
568.9299926757812
 21
331.7900085449219
 31
0.0
  0
LINE
  5
AA
330
17
100
AcDbEntity
  8
SCHEMATICS
 62
7
100
AcDbLine
 10
568.9299926757812
 20
331.7900085449219
 30
0.0
 11
257.1199951171875
 21
331.7900085449219
 31
0.0
  0
LWPOLYLINE
  5
AB
330
17
100
AcDbEntity
  8
SCHEMATICS
 62
7
100
AcDbPolyline
 90
5
 70
0
 10
58.689998626708984
 20
318.530029296875
 10
228.77000427246094
 20
318.530029296875
 10
228.77000427246094
 20
331.7799987792969
 10
58.689998626708984
 20
331.7799987792969
 10
58.689998626708984
 20
318.530029296875
  0
LWPOLYLINE
  5
AC
330
17
100
AcDbEntity
  8
SCHEMATICS
 62
7
100
AcDbPolyline
 90
5
 70
0
 10
228.77000427246094
 20
318.530029296875
 10
257.1199951171875
 20
318.530029296875
 10
257.1199951171875
 20
331.7799987792969
 10
228.77000427246094
 20
331.7799987792969
 10
228.77000427246094
 20
318.530029296875
  0
LWPOLYLINE
  5
AD
330
17
100
AcDbEntity
  8
SCHEMATICS
 62
7
100
AcDbPolyline
 90
5
 70
0
 10
257.1199951171875
 20
318.530029296875
 10
568.9299926757812
 20
318.530029296875
 10
568.9299926757812
 20
331.7799987792969
 10
257.1199951171875
 20
331.7799987792969
 10
257.1199951171875
 20
318.530029296875
  0
LINE
  5
AE
330
17
100
AcDbEntity
  8
SCHEMATICS
 62
7
100
AcDbLine
 10
58.689998626708984
 20
305.280029296875
 30
0.0
 11
58.689998626708984
 21
318.530029296875
 31
0.0
  0
LINE
  5
AF
330
17
100
AcDbEntity
  8
SCHEMATICS
 62
7
100
AcDbLine
 10
228.77000427246094
 20
305.280029296875
 30
0.0
 11
58.689998626708984
 21
305.280029296875
 31
0.0
  0
LINE
  5
B0
330
17
100
AcDbEntity
  8
SCHEMATICS
 62
7
100
AcDbLine
 10
228.77000427246094
 20
305.280029296875
 30
0.0
 11
228.77000427246094
 21
318.530029296875
 31
0.0
  0
LINE
  5
B1
330
17
100
AcDbEntity
  8
SCHEMATICS
 62
7
100
AcDbLine
 10
257.1199951171875
 20
305.280029296875
 30
0.0
 11
228.77000427246094
 21
305.280029296875
 31
0.0
  0
LINE
  5
B2
330
17
100
AcDbEntity
  8
SCHEMATICS
 62
7
100
AcDbLine
 10
257.1199951171875
 20
305.280029296875
 30
0.0
 11
257.1199951171875
 21
318.530029296875
 31
0.0
  0
LINE
  5
B3
330
17
100
AcDbEntity
  8
SCHEMATICS
 62
7
100
AcDbLine
 10
568.9299926757812
 20
318.530029296875
 30
0.0
 11
568.9299926757812
 21
305.280029296875
 31
0.0
  0
LINE
  5
B4
330
17
100
AcDbEntity
  8
SCHEMATICS
 62
7
100
AcDbLine
 10
568.9299926757812
 20
305.280029296875
 30
0.0
 11
257.1199951171875
 21
305.280029296875
 31
0.0
  0
LWPOLYLINE
  5
B5
330
17
100
AcDbEntity
  8
SCHEMATICS
 62
7
100
AcDbPolyline
 90
5
 70
0
 10
58.689998626708984
 20
292.030029296875
 10
228.77000427246094
 20
292.030029296875
 10
228.77000427246094
 20
305.280029296875
 10
58.689998626708984
 20
305.280029296875
 10
58.689998626708984
 20
292.030029296875
  0
LWPOLYLINE
  5
B6
330
17
100
AcDbEntity
  8
SCHEMATICS
 62
7
100
AcDbPolyline
 90
5
 70
0
 10
228.77000427246094
 20
292.030029296875
 10
257.1199951171875
 20
292.030029296875
 10
257.1199951171875
 20
305.280029296875
 10
228.77000427246094
 20
305.280029296875
 10
228.77000427246094
 20
292.030029296875
  0
LWPOLYLINE
  5
B7
330
17
100
AcDbEntity
  8
SCHEMATICS
 62
7
100
AcDbPolyline
 90
5
 70
0
 10
257.1199951171875
 20
292.030029296875
 10
568.9299926757812
 20
292.030029296875
 10
568.9299926757812
 20
305.280029296875
 10
257.1199951171875
 20
305.280029296875
 10
257.1199951171875
 20
292.030029296875
  0
LINE
  5
B8
330
17
100
AcDbEntity
  8
SCHEMATICS
 62
7
100
AcDbLine
 10
58.689998626708984
 20
278.780029296875
 30
0.0
 11
58.689998626708984
 21
292.030029296875
 31
0.0
  0
LINE
  5
B9
330
17
100
AcDbEntity
  8
SCHEMATICS
 62
7
100
AcDbLine
 10
228.77000427246094
 20
278.780029296875
 30
0.0
 11
58.689998626708984
 21
278.780029296875
 31
0.0
  0
LINE
  5
BA
330
17
100
AcDbEntity
  8
SCHEMATICS
 62
7
100
AcDbLine
 10
228.77000427246094
 20
278.780029296875
 30
0.0
 11
228.77000427246094
 21
292.030029296875
 31
0.0
  0
LINE
  5
BB
330
17
100
AcDbEntity
  8
SCHEMATICS
 62
7
100
AcDbLine
 10
257.1199951171875
 20
278.780029296875
 30
0.0
 11
228.77000427246094
 21
278.780029296875
 31
0.0
  0
LINE
  5
BC
330
17
100
AcDbEntity
  8
SCHEMATICS
 62
7
100
AcDbLine
 10
257.1199951171875
 20
278.780029296875
 30
0.0
 11
257.1199951171875
 21
292.030029296875
 31
0.0
  0
LINE
  5
BD
330
17
100
AcDbEntity
  8
SCHEMATICS
 62
7
100
AcDbLine
 10
568.9299926757812
 20
292.030029296875
 30
0.0
 11
568.9299926757812
 21
278.780029296875
 31
0.0
  0
LINE
  5
BE
330
17
100
AcDbEntity
  8
SCHEMATICS
 62
7
100
AcDbLine
 10
568.9299926757812
 20
278.780029296875
 30
0.0
 11
257.1199951171875
 21
278.780029296875
 31
0.0
  0
LWPOLYLINE
  5
BF
330
17
100
AcDbEntity
  8
SCHEMATICS
 62
7
100
AcDbPolyline
 90
5
 70
0
 10
58.689998626708984
 20
265.530029296875
 10
568.9299926757812
 20
265.530029296875
 10
568.9299926757812
 20
278.780029296875
 10
58.689998626708984
 20
278.780029296875
 10
58.689998626708984
 20
265.530029296875
  0
LINE
  5
C0
330
17
100
AcDbEntity
  8
SCHEMATICS
 62
7
100
AcDbLine
 10
58.689998626708984
 20
252.27001953125
 30
0.0
 11
58.689998626708984
 21
265.530029296875
 31
0.0
  0
LINE
  5
C1
330
17
100
AcDbEntity
  8
SCHEMATICS
 62
7
100
AcDbLine
 10
228.77000427246094
 20
252.27001953125
 30
0.0
 11
58.689998626708984
 21
252.27001953125
 31
0.0
  0
LINE
  5
C2
330
17
100
AcDbEntity
  8
SCHEMATICS
 62
7
100
AcDbLine
 10
228.77000427246094
 20
252.27001953125
 30
0.0
 11
228.77000427246094
 21
265.530029296875
 31
0.0
  0
LINE
  5
C3
330
17
100
AcDbEntity
  8
SCHEMATICS
 62
7
100
AcDbLine
 10
257.1199951171875
 20
252.27001953125
 30
0.0
 11
228.77000427246094
 21
252.27001953125
 31
0.0
  0
LINE
  5
C4
330
17
100
AcDbEntity
  8
SCHEMATICS
 62
7
100
AcDbLine
 10
257.1199951171875
 20
252.27001953125
 30
0.0
 11
257.1199951171875
 21
265.530029296875
 31
0.0
  0
LINE
  5
C5
330
17
100
AcDbEntity
  8
SCHEMATICS
 62
7
100
AcDbLine
 10
568.9299926757812
 20
265.530029296875
 30
0.0
 11
568.9299926757812
 21
252.27001953125
 31
0.0
  0
LINE
  5
C6
330
17
100
AcDbEntity
  8
SCHEMATICS
 62
7
100
AcDbLine
 10
568.9299926757812
 20
252.27001953125
 30
0.0
 11
257.1199951171875
 21
252.27001953125
 31
0.0
  0
LWPOLYLINE
  5
C7
330
17
100
AcDbEntity
  8
SCHEMATICS
 62
7
100
AcDbPolyline
 90
5
 70
0
 10
58.689998626708984
 20
223.02001953125
 10
228.77000427246094
 20
223.02001953125
 10
228.77000427246094
 20
252.27001953125
 10
58.689998626708984
 20
252.27001953125
 10
58.689998626708984
 20
223.02001953125
  0
LWPOLYLINE
  5
C8
330
17
100
AcDbEntity
  8
SCHEMATICS
 62
7
100
AcDbPolyline
 90
5
 70
0
 10
228.77000427246094
 20
223.02001953125
 10
257.1199951171875
 20
223.02001953125
 10
257.1199951171875
 20
252.27001953125
 10
228.77000427246094
 20
252.27001953125
 10
228.77000427246094
 20
223.02001953125
  0
LWPOLYLINE
  5
C9
330
17
100
AcDbEntity
  8
SCHEMATICS
 62
7
100
AcDbPolyline
 90
5
 70
0
 10
257.1199951171875
 20
223.02001953125
 10
568.9299926757812
 20
223.02001953125
 10
568.9299926757812
 20
252.27001953125
 10
257.1199951171875
 20
252.27001953125
 10
257.1199951171875
 20
223.02001953125
  0
LINE
  5
CA
330
17
100
AcDbEntity
  8
SCHEMATICS
 62
7
100
AcDbLine
 10
58.689998626708984
 20
209.77001953125
 30
0.0
 11
58.689998626708984
 21
223.02001953125
 31
0.0
  0
LINE
  5
CB
330
17
100
AcDbEntity
  8
SCHEMATICS
 62
7
100
AcDbLine
 10
228.77000427246094
 20
209.77001953125
 30
0.0
 11
58.689998626708984
 21
209.77001953125
 31
0.0
  0
LINE
  5
CC
330
17
100
AcDbEntity
  8
SCHEMATICS
 62
7
100
AcDbLine
 10
228.77000427246094
 20
209.77001953125
 30
0.0
 11
228.77000427246094
 21
223.02001953125
 31
0.0
  0
LINE
  5
CD
330
17
100
AcDbEntity
  8
SCHEMATICS
 62
7
100
AcDbLine
 10
257.1199951171875
 20
209.77001953125
 30
0.0
 11
228.77000427246094
 21
209.77001953125
 31
0.0
  0
LINE
  5
CE
330
17
100
AcDbEntity
  8
SCHEMATICS
 62
7
100
AcDbLine
 10
257.1199951171875
 20
209.77001953125
 30
0.0
 11
257.1199951171875
 21
223.02001953125
 31
0.0
  0
LINE
  5
CF
330
17
100
AcDbEntity
  8
SCHEMATICS
 62
7
100
AcDbLine
 10
568.9299926757812
 20
223.02001953125
 30
0.0
 11
568.9299926757812
 21
209.77001953125
 31
0.0
  0
LINE
  5
D0
330
17
100
AcDbEntity
  8
SCHEMATICS
 62
7
100
AcDbLine
 10
568.9299926757812
 20
209.77001953125
 30
0.0
 11
257.1199951171875
 21
209.77001953125
 31
0.0
  0
LWPOLYLINE
  5
D1
330
17
100
AcDbEntity
  8
SCHEMATICS
 62
7
100
AcDbPolyline
 90
5
 70
0
 10
58.689998626708984
 20
196.52001953125
 10
228.77000427246094
 20
196.52001953125
 10
228.77000427246094
 20
209.77001953125
 10
58.689998626708984
 20
209.77001953125
 10
58.689998626708984
 20
196.52001953125
  0
LWPOLYLINE
  5
D2
330
17
100
AcDbEntity
  8
SCHEMATICS
 62
7
100
AcDbPolyline
 90
5
 70
0
 10
228.77000427246094
 20
196.52001953125
 10
257.1199951171875
 20
196.52001953125
 10
257.1199951171875
 20
209.77001953125
 10
228.77000427246094
 20
209.77001953125
 10
228.77000427246094
 20
196.52001953125
  0
LWPOLYLINE
  5
D3
330
17
100
AcDbEntity
  8
SCHEMATICS
 62
7
100
AcDbPolyline
 90
5
 70
0
 10
257.1199951171875
 20
196.52001953125
 10
568.9299926757812
 20
196.52001953125
 10
568.9299926757812
 20
209.77001953125
 10
257.1199951171875
 20
209.77001953125
 10
257.1199951171875
 20
196.52001953125
  0
LINE
  5
D4
330
17
100
AcDbEntity
  8
SCHEMATICS
 62
7
100
AcDbLine
 10
58.689998626708984
 20
183.27001953125
 30
0.0
 11
58.689998626708984
 21
196.52001953125
 31
0.0
  0
LINE
  5
D5
330
17
100
AcDbEntity
  8
SCHEMATICS
 62
7
100
AcDbLine
 10
228.77000427246094
 20
183.27001953125
 30
0.0
 11
58.689998626708984
 21
183.27001953125
 31
0.0
  0
LINE
  5
D6
330
17
100
AcDbEntity
  8
SCHEMATICS
 62
7
100
AcDbLine
 10
228.77000427246094
 20
183.27001953125
 30
0.0
 11
228.77000427246094
 21
196.52001953125
 31
0.0
  0
LINE
  5
D7
330
17
100
AcDbEntity
  8
SCHEMATICS
 62
7
100
AcDbLine
 10
257.1199951171875
 20
183.27001953125
 30
0.0
 11
228.77000427246094
 21
183.27001953125
 31
0.0
  0
LINE
  5
D8
330
17
100
AcDbEntity
  8
SCHEMATICS
 62
7
100
AcDbLine
 10
257.1199951171875
 20
183.27001953125
 30
0.0
 11
257.1199951171875
 21
196.52001953125
 31
0.0
  0
LINE
  5
D9
330
17
100
AcDbEntity
  8
SCHEMATICS
 62
7
100
AcDbLine
 10
568.9299926757812
 20
196.52001953125
 30
0.0
 11
568.9299926757812
 21
183.27001953125
 31
0.0
  0
LINE
  5
DA
330
17
100
AcDbEntity
  8
SCHEMATICS
 62
7
100
AcDbLine
 10
568.9299926757812
 20
183.27001953125
 30
0.0
 11
257.1199951171875
 21
183.27001953125
 31
0.0
  0
LWPOLYLINE
  5
DB
330
17
100
AcDbEntity
  8
SCHEMATICS
 62
7
100
AcDbPolyline
 90
5
 70
0
 10
58.689998626708984
 20
170.010009765625
 10
228.77000427246094
 20
170.010009765625
 10
228.77000427246094
 20
183.260009765625
 10
58.689998626708984
 20
183.260009765625
 10
58.689998626708984
 20
170.010009765625
  0
LWPOLYLINE
  5
DC
330
17
100
AcDbEntity
  8
SCHEMATICS
 62
7
100
AcDbPolyline
 90
5
 70
0
 10
228.77000427246094
 20
170.010009765625
 10
257.1199951171875
 20
170.010009765625
 10
257.1199951171875
 20
183.260009765625
 10
228.77000427246094
 20
183.260009765625
 10
228.77000427246094
 20
170.010009765625
  0
LWPOLYLINE
  5
DD
330
17
100
AcDbEntity
  8
SCHEMATICS
 62
7
100
AcDbPolyline
 90
5
 70
0
 10
257.1199951171875
 20
170.010009765625
 10
568.9299926757812
 20
170.010009765625
 10
568.9299926757812
 20
183.260009765625
 10
257.1199951171875
 20
183.260009765625
 10
257.1199951171875
 20
170.010009765625
  0
LINE
  5
DE
330
17
100
AcDbEntity
  8
SCHEMATICS
 62
7
100
AcDbLine
 10
58.689998626708984
 20
156.760009765625
 30
0.0
 11
58.689998626708984
 21
170.010009765625
 31
0.0
  0
LINE
  5
DF
330
17
100
AcDbEntity
  8
SCHEMATICS
 62
7
100
AcDbLine
 10
228.77000427246094
 20
156.760009765625
 30
0.0
 11
58.689998626708984
 21
156.760009765625
 31
0.0
  0
LINE
  5
E0
330
17
100
AcDbEntity
  8
SCHEMATICS
 62
7
100
AcDbLine
 10
228.77000427246094
 20
156.760009765625
 30
0.0
 11
228.77000427246094
 21
170.010009765625
 31
0.0
  0
LINE
  5
E1
330
17
100
AcDbEntity
  8
SCHEMATICS
 62
7
100
AcDbLine
 10
257.1199951171875
 20
156.760009765625
 30
0.0
 11
228.77000427246094
 21
156.760009765625
 31
0.0
  0
LINE
  5
E2
330
17
100
AcDbEntity
  8
SCHEMATICS
 62
7
100
AcDbLine
 10
257.1199951171875
 20
156.760009765625
 30
0.0
 11
257.1199951171875
 21
170.010009765625
 31
0.0
  0
LINE
  5
E3
330
17
100
AcDbEntity
  8
SCHEMATICS
 62
7
100
AcDbLine
 10
568.9299926757812
 20
170.010009765625
 30
0.0
 11
568.9299926757812
 21
156.760009765625
 31
0.0
  0
LINE
  5
E4
330
17
100
AcDbEntity
  8
SCHEMATICS
 62
7
100
AcDbLine
 10
568.9299926757812
 20
156.760009765625
 30
0.0
 11
257.1199951171875
 21
156.760009765625
 31
0.0
  0
LWPOLYLINE
  5
E5
330
17
100
AcDbEntity
  8
SCHEMATICS
 62
7
100
AcDbPolyline
 90
5
 70
0
 10
58.689998626708984
 20
143.510009765625
 10
228.77000427246094
 20
143.510009765625
 10
228.77000427246094
 20
156.760009765625
 10
58.689998626708984
 20
156.760009765625
 10
58.689998626708984
 20
143.510009765625
  0
LWPOLYLINE
  5
E6
330
17
100
AcDbEntity
  8
SCHEMATICS
 62
7
100
AcDbPolyline
 90
5
 70
0
 10
228.77000427246094
 20
143.510009765625
 10
257.1199951171875
 20
143.510009765625
 10
257.1199951171875
 20
156.760009765625
 10
228.77000427246094
 20
156.760009765625
 10
228.77000427246094
 20
143.510009765625
  0
LWPOLYLINE
  5
E7
330
17
100
AcDbEntity
  8
SCHEMATICS
 62
7
100
AcDbPolyline
 90
5
 70
0
 10
257.1199951171875
 20
143.510009765625
 10
568.9299926757812
 20
143.510009765625
 10
568.9299926757812
 20
156.760009765625
 10
257.1199951171875
 20
156.760009765625
 10
257.1199951171875
 20
143.510009765625
  0
LINE
  5
E8
330
17
100
AcDbEntity
  8
SCHEMATICS
 62
7
100
AcDbLine
 10
58.689998626708984
 20
130.260009765625
 30
0.0
 11
58.689998626708984
 21
143.510009765625
 31
0.0
  0
LINE
  5
E9
330
17
100
AcDbEntity
  8
SCHEMATICS
 62
7
100
AcDbLine
 10
228.77000427246094
 20
130.260009765625
 30
0.0
 11
58.689998626708984
 21
130.260009765625
 31
0.0
  0
LINE
  5
EA
330
17
100
AcDbEntity
  8
SCHEMATICS
 62
7
100
AcDbLine
 10
228.77000427246094
 20
130.260009765625
 30
0.0
 11
228.77000427246094
 21
143.510009765625
 31
0.0
  0
LINE
  5
EB
330
17
100
AcDbEntity
  8
SCHEMATICS
 62
7
100
AcDbLine
 10
257.1199951171875
 20
130.260009765625
 30
0.0
 11
228.77000427246094
 21
130.260009765625
 31
0.0
  0
LINE
  5
EC
330
17
100
AcDbEntity
  8
SCHEMATICS
 62
7
100
AcDbLine
 10
257.1199951171875
 20
130.260009765625
 30
0.0
 11
257.1199951171875
 21
143.510009765625
 31
0.0
  0
LINE
  5
ED
330
17
100
AcDbEntity
  8
SCHEMATICS
 62
7
100
AcDbLine
 10
568.9299926757812
 20
143.510009765625
 30
0.0
 11
568.9299926757812
 21
130.260009765625
 31
0.0
  0
LINE
  5
EE
330
17
100
AcDbEntity
  8
SCHEMATICS
 62
7
100
AcDbLine
 10
568.9299926757812
 20
130.260009765625
 30
0.0
 11
257.1199951171875
 21
130.260009765625
 31
0.0
  0
LWPOLYLINE
  5
EF
330
17
100
AcDbEntity
  8
SCHEMATICS
 62
7
100
AcDbPolyline
 90
5
 70
0
 10
58.689998626708984
 20
109.010009765625
 10
228.77000427246094
 20
109.010009765625
 10
228.77000427246094
 20
130.260009765625
 10
58.689998626708984
 20
130.260009765625
 10
58.689998626708984
 20
109.010009765625
  0
LWPOLYLINE
  5
F0
330
17
100
AcDbEntity
  8
SCHEMATICS
 62
7
100
AcDbPolyline
 90
5
 70
0
 10
228.77000427246094
 20
109.010009765625
 10
257.1199951171875
 20
109.010009765625
 10
257.1199951171875
 20
130.260009765625
 10
228.77000427246094
 20
130.260009765625
 10
228.77000427246094
 20
109.010009765625
  0
LWPOLYLINE
  5
F1
330
17
100
AcDbEntity
  8
SCHEMATICS
 62
7
100
AcDbPolyline
 90
5
 70
0
 10
257.1199951171875
 20
109.010009765625
 10
568.9299926757812
 20
109.010009765625
 10
568.9299926757812
 20
130.260009765625
 10
257.1199951171875
 20
130.260009765625
 10
257.1199951171875
 20
109.010009765625
  0
LWPOLYLINE
  5
F2
330
17
100
AcDbEntity
  8
SCHEMATICS
 62
7
100
AcDbPolyline
 90
5
 70
0
 10
58.689998626708984
 20
95.75
 10
568.9299926757812
 20
95.75
 10
568.9299926757812
 20
109.0
 10
58.689998626708984
 20
109.0
 10
58.689998626708984
 20
95.75
  0
LWPOLYLINE
  5
F3
330
17
100
AcDbEntity
  8
SCHEMATICS
 62
7
100
AcDbPolyline
 90
5
 70
0
 10
58.689998626708984
 20
82.5
 10
228.77000427246094
 20
82.5
 10
228.77000427246094
 20
95.75
 10
58.689998626708984
 20
95.75
 10
58.689998626708984
 20
82.5
  0
LWPOLYLINE
  5
F4
330
17
100
AcDbEntity
  8
SCHEMATICS
 62
7
100
AcDbPolyline
 90
5
 70
0
 10
228.77000427246094
 20
82.5
 10
257.1199951171875
 20
82.5
 10
257.1199951171875
 20
95.75
 10
228.77000427246094
 20
95.75
 10
228.77000427246094
 20
82.5
  0
LWPOLYLINE
  5
F5
330
17
100
AcDbEntity
  8
SCHEMATICS
 62
7
100
AcDbPolyline
 90
5
 70
0
 10
257.1199951171875
 20
82.5
 10
568.9299926757812
 20
82.5
 10
568.9299926757812
 20
95.75
 10
257.1199951171875
 20
95.75
 10
257.1199951171875
 20
82.5
  0
LINE
  5
F6
330
17
100
AcDbEntity
  8
SCHEMATICS
 62
7
100
AcDbLine
 10
58.689998626708984
 20
69.25
 30
0.0
 11
58.689998626708984
 21
82.5
 31
0.0
  0
LINE
  5
F7
330
17
100
AcDbEntity
  8
SCHEMATICS
 62
7
100
AcDbLine
 10
228.77000427246094
 20
69.25
 30
0.0
 11
58.689998626708984
 21
69.25
 31
0.0
  0
LINE
  5
F8
330
17
100
AcDbEntity
  8
SCHEMATICS
 62
7
100
AcDbLine
 10
228.77000427246094
 20
69.25
 30
0.0
 11
228.77000427246094
 21
82.5
 31
0.0
  0
LINE
  5
F9
330
17
100
AcDbEntity
  8
SCHEMATICS
 62
7
100
AcDbLine
 10
257.1199951171875
 20
69.25
 30
0.0
 11
228.77000427246094
 21
69.25
 31
0.0
  0
LINE
  5
FA
330
17
100
AcDbEntity
  8
SCHEMATICS
 62
7
100
AcDbLine
 10
257.1199951171875
 20
69.25
 30
0.0
 11
257.1199951171875
 21
82.5
 31
0.0
  0
LINE
  5
FB
330
17
100
AcDbEntity
  8
SCHEMATICS
 62
7
100
AcDbLine
 10
568.9299926757812
 20
82.5
 30
0.0
 11
568.9299926757812
 21
69.25
 31
0.0
  0
LINE
  5
FC
330
17
100
AcDbEntity
  8
SCHEMATICS
 62
7
100
AcDbLine
 10
568.9299926757812
 20
69.25
 30
0.0
 11
257.1199951171875
 21
69.25
 31
0.0
  0
LINE
  5
FD
330
17
100
AcDbEntity
  8
SCHEMATICS
 62
7
100
AcDbLine
 10
56.689998626708984
 20
37.19549560546875
 30
0.0
 11
406.6698303222656
 21
37.19549560546875
 31
0.0
  0
LWPOLYLINE
  5
FE
330
17
100
AcDbEntity
  8
SCHEMATICS
 62
7
100
AcDbPolyline
 90
9
 70
0
 10
524.0565185546875
 20
31.110595703125
 10
524.2281799316406
 20
31.51333224773407
 10
524.5549545288086
 20
31.782904624938965
 10
524.9859962463379
 20
31.924198746681213
 10
525.470458984375
 20
31.942100524902344
 10
525.9574966430664
 20
31.841495871543884
 10
526.3962631225586
 20
31.627270698547363
 10
526.735912322998
 20
31.30431091785431
 10
526.9255981445312
 20
30.87750244140625
  0
LWPOLYLINE
  5
FF
330
17
100
AcDbEntity
  8
SCHEMATICS
 62
7
100
AcDbPolyline
 90
9
 70
0
 10
526.9255981445312
 20
30.87750244140625
 10
526.9309260845184
 20
30.80124282836914
 10
526.9352512359619
 20
30.740924835205078
 10
526.9386637210846
 20
30.69476890563965
 10
526.9412536621094
 20
30.660995483398438
 10
526.9431111812592
 20
30.63782501220703
 10
526.9443264007568
 20
30.623477935791016
 10
526.9449894428253
 20
30.616174697875977
 10
526.9451904296875
 20
30.6141357421875
  0
LINE
  5
100
330
17
100
AcDbEntity
  8
SCHEMATICS
 62
7
100
AcDbLine
 10
526.9451904296875
 20
30.6141357421875
 30
0.0
 11
528.708984375
 21
30.6134033203125
 31
0.0
  0
LINE
  5
101
330
17
100
AcDbEntity
  8
SCHEMATICS
 62
7
100
AcDbLine
 10
528.708984375
 20
30.6134033203125
 30
0.0
 11
528.6962280273438
 21
30.82275390625
 31
0.0
  0
LWPOLYLINE
  5
102
330
17
100
AcDbEntity
  8
SCHEMATICS
 62
7
100
AcDbPolyline
 90
9
 70
0
 10
528.6962280273438
 20
30.82275390625
 10
528.6021234989166
 20
31.390471577644348
 10
528.3876056671143
 20
31.902817726135254
 10
528.066202878952
 20
32.35329854488373
 10
527.6514434814453
 20
32.73542022705078
 10
527.1568558216095
 20
33.042688965797424
 10
526.59596824646
 20
33.26861095428467
 10
525.9823091030121
 20
33.40669238567352
 10
525.3294067382812
 20
33.450439453125
  0
LWPOLYLINE
  5
103
330
17
100
AcDbEntity
  8
SCHEMATICS
 62
7
100
AcDbPolyline
 90
9
 70
0
 10
525.3294067382812
 20
33.450439453125
 10
524.7381410598755
 20
33.40235674381256
 10
524.1765899658203
 20
33.26033878326416
 10
523.6606779098511
 20
33.02773082256317
 10
523.2063293457031
 20
32.70787811279297
 10
522.8294687271118
 20
32.304125905036926
 10
522.5460205078125
 20
31.819819450378418
 10
522.3719091415405
 20
31.258303999900818
 10
522.3230590820312
 20
30.6229248046875
  0
LWPOLYLINE
  5
104
330
17
100
AcDbEntity
  8
SCHEMATICS
 62
7
100
AcDbPolyline
 90
9
 70
0
 10
522.3230590820312
 20
30.6229248046875
 10
522.3611755371094
 20
30.267005920410156
 10
522.4548301696777
 20
29.939983367919922
 10
522.5983867645264
 20
29.642446517944336
 10
522.7862091064453
 20
29.374984741210938
 10
523.0126609802246
 20
29.138187408447266
 10
523.2721061706543
 20
28.93264389038086
 10
523.5589084625244
 20
28.758943557739258
 10
523.867431640625
 20
28.61767578125
  0
LWPOLYLINE
  5
105
330
17
100
AcDbEntity
  8
SCHEMATICS
 62
7
100
AcDbPolyline
 90
9
 70
0
 10
523.867431640625
 20
28.61767578125
 10
524.6196002960205
 20
28.346359968185425
 10
525.2687492370605
 20
28.156827926635742
 10
525.8168525695801
 20
28.015060663223267
 10
526.2658843994141
 20
27.887039184570312
 10
526.6178188323975
 20
27.738744497299194
 10
526.8746299743652
 20
27.536157608032227
 10
527.0382919311523
 20
27.245259523391724
 10
527.1107788085938
 20
26.83203125
  0
LWPOLYLINE
  5
106
330
17
100
AcDbEntity
  8
SCHEMATICS
 62
7
100
AcDbPolyline
 90
9
 70
0
 10
527.1107788085938
 20
26.83203125
 10
527.0805794000626
 20
26.540675282478333
 10
526.9669961929321
 20
26.30520725250244
 10
526.7884234189987
 20
26.121124625205994
 10
526.5632553100586
 20
25.983924865722656
 10
526.309886097908
 20
25.889105439186096
 10
526.0467100143433
 20
25.83216381072998
 10
525.7921212911606
 20
25.808597445487976
 10
525.5645141601562
 20
25.81390380859375
  0
LWPOLYLINE
  5
107
330
17
100
AcDbEntity
  8
SCHEMATICS
 62
7
100
AcDbPolyline
 90
9
 70
0
 10
525.5645141601562
 20
25.81390380859375
 10
525.2884863615036
 20
25.846108555793762
 10
525.0239362716675
 20
25.896401405334473
 10
524.7750917673111
 20
25.968908667564392
 10
524.5461807250977
 20
26.06775665283203
 10
524.3414310216904
 20
26.1970716714859
 10
524.1650705337524
 20
26.36098003387451
 10
524.0213271379471
 20
26.563608050346375
 10
523.9144287109375
 20
26.80908203125
  0
LWPOLYLINE
  5
108
330
17
100
AcDbEntity
  8
SCHEMATICS
 62
7
100
AcDbPolyline
 90
9
 70
0
 10
523.9144287109375
 20
26.80908203125
 10
523.8961619138718
 20
26.866910815238953
 10
523.8809270858765
 20
26.920573234558105
 10
523.8685404062271
 20
26.9716078042984
 10
523.8588180541992
 20
27.02155303955078
 10
523.8515762090683
 20
27.07194745540619
 10
523.8466310501099
 20
27.124329566955566
 10
523.8437987565994
 20
27.180237889289856
 10
523.8428955078125
 20
27.2412109375
  0
LINE
  5
109
330
17
100
AcDbEntity
  8
SCHEMATICS
 62
7
100
AcDbLine
 10
523.8428955078125
 20
27.2412109375
 30
0.0
 11
523.8428955078125
 21
27.36181640625
 31
0.0
  0
LINE
  5
10A
330
17
100
AcDbEntity
  8
SCHEMATICS
 62
7
100
AcDbLine
 10
523.8428955078125
 20
27.36181640625
 30
0.0
 11
522.0604858398438
 21
27.36181640625
 31
0.0
  0
LINE
  5
10B
330
17
100
AcDbEntity
  8
SCHEMATICS
 62
7
100
AcDbLine
 10
522.0604858398438
 20
27.36181640625
 30
0.0
 11
522.0604858398438
 21
27.10150146484375
 31
0.0
  0
LWPOLYLINE
  5
10C
330
17
100
AcDbEntity
  8
SCHEMATICS
 62
7
100
AcDbPolyline
 90
9
 70
0
 10
522.0604858398438
 20
27.10150146484375
 10
522.1381323337555
 20
26.432580947875977
 10
522.3579273223877
 20
25.845840454101562
 10
522.7001540660858
 20
25.344083786010742
 10
523.1450958251953
 20
24.93011474609375
 10
523.6730358600616
 20
24.60673713684082
 10
524.2642574310303
 20
24.376754760742188
 10
524.8990437984467
 20
24.242971420288086
 10
525.5576782226562
 20
24.20819091796875
  0
LWPOLYLINE
  5
10D
330
17
100
AcDbEntity
  8
SCHEMATICS
 62
7
100
AcDbPolyline
 90
9
 70
0
 10
525.5576782226562
 20
24.20819091796875
 10
526.1911962032318
 20
24.265292763710022
 10
526.8030376434326
 20
24.405613899230957
 10
527.3727161884308
 20
24.630056262016296
 10
527.8797454833984
 20
24.93952178955078
 10
528.3036391735077
 20
25.334912419319153
 10
528.6239109039307
 20
25.817130088806152
 10
528.8200743198395
 20
26.38707673549652
 10
528.8716430664062
 20
27.045654296875
  0
LWPOLYLINE
  5
10E
330
17
100
AcDbEntity
  8
SCHEMATICS
 62
7
100
AcDbPolyline
 90
9
 70
0
 10
528.8716430664062
 20
27.045654296875
 10
528.612407207489
 20
28.173970580101013
 10
528.0170211791992
 20
28.925097465515137
 10
527.2046093940735
 20
29.399029850959778
 10
526.2942962646484
 20
29.695762634277344
 10
525.4052062034607
 20
29.91529071331024
 10
524.6564636230469
 20
30.15760898590088
 10
524.1671929359436
 20
30.522712349891663
 10
524.0565185546875
 20
31.110595703125
  0
LINE
  5
10F
330
17
100
AcDbEntity
  8
SCHEMATICS
 62
7
100
AcDbLine
 10
519.2796020507812
 20
29.77667236328125
 30
0.0
 11
516.0410766601562
 21
29.77667236328125
 31
0.0
  0
LINE
  5
110
330
17
100
AcDbEntity
  8
SCHEMATICS
 62
7
100
AcDbLine
 10
516.0410766601562
 20
29.77667236328125
 30
0.0
 11
516.0410766601562
 21
33.25250244140625
 31
0.0
  0
LINE
  5
111
330
17
100
AcDbEntity
  8
SCHEMATICS
 62
7
100
AcDbLine
 10
516.0410766601562
 20
33.25250244140625
 30
0.0
 11
514.2596435546875
 21
33.25250244140625
 31
0.0
  0
LINE
  5
112
330
17
100
AcDbEntity
  8
SCHEMATICS
 62
7
100
AcDbLine
 10
514.2596435546875
 20
33.25250244140625
 30
0.0
 11
514.2596435546875
 21
24.43133544921875
 31
0.0
  0
LINE
  5
113
330
17
100
AcDbEntity
  8
SCHEMATICS
 62
7
100
AcDbLine
 10
514.2596435546875
 20
24.43133544921875
 30
0.0
 11
516.0410766601562
 21
24.43133544921875
 31
0.0
  0
LINE
  5
114
330
17
100
AcDbEntity
  8
SCHEMATICS
 62
7
100
AcDbLine
 10
516.0410766601562
 20
24.43133544921875
 30
0.0
 11
516.0410766601562
 21
28.203857421875
 31
0.0
  0
LINE
  5
115
330
17
100
AcDbEntity
  8
SCHEMATICS
 62
7
100
AcDbLine
 10
516.0410766601562
 20
28.203857421875
 30
0.0
 11
519.2796020507812
 21
28.203857421875
 31
0.0
  0
LINE
  5
116
330
17
100
AcDbEntity
  8
SCHEMATICS
 62
7
100
AcDbLine
 10
519.2796020507812
 20
28.203857421875
 30
0.0
 11
519.2796020507812
 21
24.43133544921875
 31
0.0
  0
LINE
  5
117
330
17
100
AcDbEntity
  8
SCHEMATICS
 62
7
100
AcDbLine
 10
519.2796020507812
 20
24.43133544921875
 30
0.0
 11
521.0482788085938
 21
24.43133544921875
 31
0.0
  0
LINE
  5
118
330
17
100
AcDbEntity
  8
SCHEMATICS
 62
7
100
AcDbLine
 10
521.0482788085938
 20
24.43133544921875
 30
0.0
 11
521.0482788085938
 21
33.25250244140625
 31
0.0
  0
LINE
  5
119
330
17
100
AcDbEntity
  8
SCHEMATICS
 62
7
100
AcDbLine
 10
521.0482788085938
 20
33.25250244140625
 30
0.0
 11
519.2796020507812
 21
33.25250244140625
 31
0.0
  0
LINE
  5
11A
330
17
100
AcDbEntity
  8
SCHEMATICS
 62
7
100
AcDbLine
 10
519.2796020507812
 20
33.25250244140625
 30
0.0
 11
519.2796020507812
 21
29.77667236328125
 31
0.0
  0
LINE
  5
11B
330
17
100
AcDbEntity
  8
SCHEMATICS
 62
7
100
AcDbLine
 10
513.073974609375
 20
27.8341064453125
 30
0.0
 11
511.34161376953125
 21
27.8341064453125
 31
0.0
  0
LINE
  5
11C
330
17
100
AcDbEntity
  8
SCHEMATICS
 62
7
100
AcDbLine
 10
511.34161376953125
 20
27.8341064453125
 30
0.0
 11
511.34161376953125
 21
27.56085205078125
 31
0.0
  0
LWPOLYLINE
  5
11D
330
17
100
AcDbEntity
  8
SCHEMATICS
 62
7
100
AcDbPolyline
 90
9
 70
0
 10
511.34161376953125
 20
27.56085205078125
 10
511.3037340641022
 20
27.20690166950226
 10
511.1958522796631
 20
26.875508308410645
 10
511.0266044139862
 20
26.575055480003357
 10
510.80462646484375
 20
26.313926696777344
 10
510.53855443000793
 20
26.100505471229553
 10
510.237024307251
 20
25.943175315856934
 10
509.9086720943451
 20
25.850319743156433
 10
509.5621337890625
 20
25.830322265625
  0
LWPOLYLINE
  5
11E
330
17
100
AcDbEntity
  8
SCHEMATICS
 62
7
100
AcDbPolyline
 90
9
 70
0
 10
509.5621337890625
 20
25.830322265625
 10
509.0928023457527
 20
25.894997119903564
 10
508.69863748550415
 20
26.020729064941406
 10
508.3713955283165
 20
26.20244550704956
 10
508.10283279418945
 20
26.435073852539062
 10
507.8847056031227
 20
26.713541507720947
 10
507.70877027511597
 20
27.03277587890625
 10
507.5667831301689
 20
27.387704372406006
 10
507.45050048828125
 20
27.77325439453125
  0
LWPOLYLINE
  5
11F
330
17
100
AcDbEntity
  8
SCHEMATICS
 62
7
100
AcDbPolyline
 90
9
 70
0
 10
507.45050048828125
 20
27.77325439453125
 10
507.4141141176224
 20
27.923146963119507
 10
507.3878221511841
 20
28.068998336791992
 10
507.3702348470688
 20
28.21326756477356
 10
507.3599624633789
 20
28.358413696289062
 10
507.35561525821686
 20
28.506895780563354
 10
507.35580348968506
 20
28.66117286682129
 10
507.3591374158859
 20
28.82370400428772
 10
507.3642272949219
 20
28.9969482421875
  0
LWPOLYLINE
  5
120
330
17
100
AcDbEntity
  8
SCHEMATICS
 62
7
100
AcDbPolyline
 90
9
 70
0
 10
507.3642272949219
 20
28.9969482421875
 10
507.3736327290535
 20
29.18614137172699
 10
507.39075326919556
 20
29.371806144714355
 10
507.4143947958946
 20
29.55167305469513
 10
507.44336318969727
 20
29.723472595214844
 10
507.47646433115005
 20
29.88493525981903
 10
507.51250410079956
 20
30.033791542053223
 10
507.55028837919235
 20
30.16777193546295
 10
507.588623046875
 20
30.28460693359375
  0
LWPOLYLINE
  5
121
330
17
100
AcDbEntity
  8
SCHEMATICS
 62
7
100
AcDbPolyline
 90
9
 70
0
 10
507.588623046875
 20
30.28460693359375
 10
507.72687143087387
 20
30.61489701271057
 10
507.9023241996765
 20
30.916154861450195
 10
508.11323577165604
 20
31.183106184005737
 10
508.35786056518555
 20
31.410476684570312
 10
508.63445299863815
 20
31.592992067337036
 10
508.94126749038696
 20
31.725378036499023
 10
509.2765584588051
 20
31.80236029624939
 10
509.6385803222656
 20
31.81866455078125
  0
LWPOLYLINE
  5
122
330
17
100
AcDbEntity
  8
SCHEMATICS
 62
7
100
AcDbPolyline
 90
9
 70
0
 10
509.6385803222656
 20
31.81866455078125
 10
509.87680077552795
 20
31.796282291412354
 10
510.0969581604004
 20
31.75125503540039
 10
510.3002812862396
 20
31.682841777801514
 10
510.48799896240234
 20
31.590301513671875
 10
510.66133999824524
 20
31.472893238067627
 10
510.821533203125
 20
31.329875946044922
 10
510.9698073863983
 20
31.160508632659912
 10
511.1073913574219
 20
30.96405029296875
  0
LWPOLYLINE
  5
123
330
17
100
AcDbEntity
  8
SCHEMATICS
 62
7
100
AcDbPolyline
 90
9
 70
0
 10
511.1073913574219
 20
30.96405029296875
 10
511.161523938179
 20
30.87361240386963
 10
511.2064619064331
 20
30.78799819946289
 10
511.2434791326523
 20
30.70491886138916
 10
511.2738494873047
 20
30.622085571289062
 10
511.29884684085846
 20
30.537209510803223
 10
511.31974506378174
 20
30.448001861572266
 10
511.33781802654266
 20
30.352173805236816
 10
511.3543395996094
 20
30.2474365234375
  0
LINE
  5
124
330
17
100
AcDbEntity
  8
SCHEMATICS
 62
7
100
AcDbLine
 10
511.3543395996094
 20
30.2474365234375
 30
0.0
 11
513.073974609375
 21
30.2474365234375
 31
0.0
  0
LINE
  5
125
330
17
100
AcDbEntity
  8
SCHEMATICS
 62
7
100
AcDbLine
 10
513.073974609375
 20
30.2474365234375
 30
0.0
 11
513.0358276367188
 21
30.46795654296875
 31
0.0
  0
LWPOLYLINE
  5
126
330
17
100
AcDbEntity
  8
SCHEMATICS
 62
7
100
AcDbPolyline
 90
9
 70
0
 10
513.0358276367188
 20
30.46795654296875
 10
513.0048934817314
 20
30.649540424346924
 10
512.9609999656677
 20
30.858489990234375
 10
512.8958683609962
 20
31.093177318572998
 10
512.8012199401855
 20
31.351974487304688
 10
512.6687759757042
 20
31.633253574371338
 10
512.4902577400208
 20
31.935386657714844
 10
512.2573865056038
 20
32.2567458152771
 10
511.9618835449219
 20
32.595703125
  0
LWPOLYLINE
  5
127
330
17
100
AcDbEntity
  8
SCHEMATICS
 62
7
100
AcDbPolyline
 90
9
 70
0
 10
511.9618835449219
 20
32.595703125
 10
511.7117108106613
 20
32.83224594593048
 10
511.45226192474365
 20
33.02333927154541
 10
511.181516289711
 20
33.17320096492767
 10
510.89745330810547
 20
33.286048889160156
 10
510.5980523824692
 20
33.366100907325745
 10
510.28129291534424
 20
33.417574882507324
 10
509.94515430927277
 20
33.44468867778778
 10
509.5876159667969
 20
33.45166015625
  0
LWPOLYLINE
  5
128
330
17
100
AcDbEntity
  8
SCHEMATICS
 62
7
100
AcDbPolyline
 90
9
 70
0
 10
509.5876159667969
 20
33.45166015625
 10
509.28252321481705
 20
33.44221830368042
 10
509.0023617744446
 20
33.41667175292969
 10
508.7407347559929
 20
33.37355852127075
 10
508.4912452697754
 20
33.31141662597656
 10
508.2474964261055
 20
33.22878408432007
 10
508.00309133529663
 20
33.12419891357422
 10
507.7516331076622
 20
32.99619913101196
 10
507.4867248535156
 20
32.84332275390625
  0
LWPOLYLINE
  5
129
330
17
100
AcDbEntity
  8
SCHEMATICS
 62
7
100
AcDbPolyline
 90
9
 70
0
 10
507.4867248535156
 20
32.84332275390625
 10
506.9954826235771
 20
32.49401271343231
 10
506.5961375236511
 20
32.09853649139404
 10
506.2798128724098
 20
31.660332322120667
 10
506.0376319885254
 20
31.182838439941406
 10
505.86071819067
 20
30.669493079185486
 10
505.74019479751587
 20
30.12373447418213
 10
505.66718512773514
 20
29.54900085926056
 10
505.6328125
 20
28.94873046875
  0
LWPOLYLINE
  5
12A
330
17
100
AcDbEntity
  8
SCHEMATICS
 62
7
100
AcDbPolyline
 90
9
 70
0
 10
505.6328125
 20
28.94873046875
 10
505.6692803502083
 20
28.084422826766968
 10
505.8251118659973
 20
27.23802375793457
 10
506.10162776708603
 20
26.438742876052856
 10
506.50014877319336
 20
25.715789794921875
 10
507.02199560403824
 20
25.098374128341675
 10
507.6684889793396
 20
24.615705490112305
 10
508.4409496188164
 20
24.296993494033813
 10
509.3406982421875
 20
24.17144775390625
  0
LWPOLYLINE
  5
12B
330
17
100
AcDbEntity
  8
SCHEMATICS
 62
7
100
AcDbPolyline
 90
9
 70
0
 10
509.3406982421875
 20
24.17144775390625
 10
510.005044400692
 20
24.212571501731873
 10
510.63686323165894
 20
24.350783348083496
 10
511.2237403988838
 20
24.582045674324036
 10
511.7532615661621
 20
24.902320861816406
 10
512.2130123972893
 20
25.307571291923523
 10
512.5905785560608
 20
25.7937593460083
 10
512.8735457062721
 20
26.356847405433655
 10
513.0494995117188
 20
26.9927978515625
  0
LWPOLYLINE
  5
12C
330
17
100
AcDbEntity
  8
SCHEMATICS
 62
7
100
AcDbPolyline
 90
9
 70
0
 10
513.0494995117188
 20
26.9927978515625
 10
513.0650951862335
 20
27.086491346359253
 10
513.0773906707764
 20
27.172624588012695
 10
513.0864903926849
 20
27.253759622573853
 10
513.0924987792969
 20
27.33245849609375
 10
513.0955202579498
 20
27.411283254623413
 10
513.0956592559814
 20
27.492795944213867
 10
513.0930202007294
 20
27.579558610916138
 10
513.0877075195312
 20
27.67413330078125
  0
LINE
  5
12D
330
17
100
AcDbEntity
  8
SCHEMATICS
 62
7
100
AcDbLine
 10
513.0877075195312
 20
27.67413330078125
 30
0.0
 11
513.073974609375
 21
27.8341064453125
 31
0.0
  0
LINE
  5
12E
330
17
100
AcDbEntity
  8
SCHEMATICS
 62
7
100
AcDbLine
 10
502.83721923828125
 20
28.16790771484375
 30
0.0
 11
502.83721923828125
 21
27.42535400390625
 31
0.0
  0
LWPOLYLINE
  5
12F
330
17
100
AcDbEntity
  8
SCHEMATICS
 62
7
100
AcDbPolyline
 90
9
 70
0
 10
502.83721923828125
 20
27.42535400390625
 10
502.8299404978752
 20
27.232003808021545
 10
502.807101726532
 20
27.051526069641113
 10
502.7671990990639
 20
26.88301455974579
 10
502.7087287902832
 20
26.725563049316406
 10
502.6301869750023
 20
26.5782653093338
 10
502.53006982803345
 20
26.44021511077881
 10
502.406873524189
 20
26.310506224632263
 10
502.25909423828125
 20
26.188232421875
  0
LWPOLYLINE
  5
130
330
17
100
AcDbEntity
  8
SCHEMATICS
 62
7
100
AcDbPolyline
 90
9
 70
0
 10
502.25909423828125
 20
26.188232421875
 10
502.126893222332
 20
26.10038661956787
 10
501.9971079826355
 20
26.033924102783203
 10
501.8675566315651
 20
25.98604106903076
 10
501.73605728149414
 20
25.953933715820312
 10
501.600428044796
 20
25.93479824066162
 10
501.458487033844
 20
25.925830841064453
 10
501.3080523610115
 20
25.924227714538574
 10
501.1469421386719
 20
25.92718505859375
  0
LWPOLYLINE
  5
131
330
17
100
AcDbEntity
  8
SCHEMATICS
 62
7
100
AcDbPolyline
 90
9
 70
0
 10
501.1469421386719
 20
25.92718505859375
 10
501.00340205430984
 20
25.93287193775177
 10
500.8703293800354
 20
25.94170093536377
 10
500.74532264471054
 20
25.955950140953064
 10
500.62598037719727
 20
25.97789764404297
 10
500.5099011063576
 20
26.0098215341568
 10
500.39468336105347
 20
26.05399990081787
 10
500.27792567014694
 20
26.1127108335495
 10
500.1572265625
 20
26.188232421875
  0
LWPOLYLINE
  5
132
330
17
100
AcDbEntity
  8
SCHEMATICS
 62
7
100
AcDbPolyline
 90
9
 70
0
 10
500.1572265625
 20
26.188232421875
 10
500.0005404949188
 20
26.307251811027527
 10
499.8682403564453
 20
26.434447288513184
 10
499.75881123542786
 20
26.57081949710846
 10
499.67073822021484
 20
26.717369079589844
 10
499.60250639915466
 20
26.875096678733826
 10
499.5526008605957
 20
27.045002937316895
 10
499.51950669288635
 20
27.22808849811554
 10
499.501708984375
 20
27.42535400390625
  0
LINE
  5
133
330
17
100
AcDbEntity
  8
SCHEMATICS
 62
7
100
AcDbLine
 10
499.501708984375
 20
27.42535400390625
 30
0.0
 11
499.4634704589844
 21
28.16790771484375
 31
0.0
  0
LINE
  5
134
330
17
100
AcDbEntity
  8
SCHEMATICS
 62
7
100
AcDbLine
 10
499.4634704589844
 20
28.16790771484375
 30
0.0
 11
499.4634704589844
 21
33.25250244140625
 31
0.0
  0
LINE
  5
135
330
17
100
AcDbEntity
  8
SCHEMATICS
 62
7
100
AcDbLine
 10
499.4634704589844
 20
33.25250244140625
 30
0.0
 11
497.68304443359375
 21
33.25250244140625
 31
0.0
  0
LINE
  5
136
330
17
100
AcDbEntity
  8
SCHEMATICS
 62
7
100
AcDbLine
 10
497.68304443359375
 20
33.25250244140625
 30
0.0
 11
497.68304443359375
 21
27.58721923828125
 31
0.0
  0
LWPOLYLINE
  5
137
330
17
100
AcDbEntity
  8
SCHEMATICS
 62
7
100
AcDbPolyline
 90
9
 70
0
 10
497.68304443359375
 20
27.58721923828125
 10
497.68378734588623
 20
27.51250171661377
 10
497.6860466003418
 20
27.44426727294922
 10
497.68986797332764
 20
27.38046169281006
 10
497.69529724121094
 20
27.31903076171875
 10
497.7023801803589
 20
27.257920265197754
 10
497.7111625671387
 20
27.19507598876953
 10
497.7216901779175
 20
27.128443717956543
 10
497.7340087890625
 20
27.05596923828125
  0
LWPOLYLINE
  5
138
330
17
100
AcDbEntity
  8
SCHEMATICS
 62
7
100
AcDbPolyline
 90
9
 70
0
 10
497.7340087890625
 20
27.05596923828125
 10
497.84602695703506
 20
26.557808876037598
 10
498.0084080696106
 20
26.100177764892578
 10
498.2219106554985
 20
25.68557071685791
 10
498.4872932434082
 20
25.316482543945312
 10
498.8053143620491
 20
24.995408058166504
 10
499.1767325401306
 20
24.724842071533203
 10
499.60230630636215
 20
24.50727939605713
 10
500.0827941894531
 20
24.34521484375
  0
LWPOLYLINE
  5
139
330
17
100
AcDbEntity
  8
SCHEMATICS
 62
7
100
AcDbPolyline
 90
9
 70
0
 10
500.0827941894531
 20
24.34521484375
 10
500.2305748462677
 20
24.310678482055664
 10
500.3671474456787
 20
24.28631591796875
 10
500.49646162986755
 20
24.270421981811523
 10
500.6224670410156
 20
24.26129150390625
 10
500.7491133213043
 20
24.257219314575195
 10
500.88035011291504
 20
24.256500244140625
 10
501.0201270580292
 20
24.257429122924805
 10
501.1723937988281
 20
24.25830078125
  0
LWPOLYLINE
  5
13A
330
17
100
AcDbEntity
  8
SCHEMATICS
 62
7
100
AcDbPolyline
 90
9
 70
0
 10
501.1723937988281
 20
24.25830078125
 10
501.31607097387314
 20
24.25929045677185
 10
501.44761991500854
 20
24.26202964782715
 10
501.570899784565
 20
24.267478227615356
 10
501.68976974487305
 20
24.276596069335938
 10
501.8080889582634
 20
24.290343046188354
 10
501.92971658706665
 20
24.30967903137207
 10
502.05851179361343
 20
24.335563898086548
 10
502.1983337402344
 20
24.36895751953125
  0
LWPOLYLINE
  5
13B
330
17
100
AcDbEntity
  8
SCHEMATICS
 62
7
100
AcDbPolyline
 90
9
 70
0
 10
502.1983337402344
 20
24.36895751953125
 10
502.68774914741516
 20
24.529385924339294
 10
503.13267707824707
 20
24.74307155609131
 10
503.5282266139984
 20
25.008654713630676
 10
503.8695068359375
 20
25.32477569580078
 10
504.15162682533264
 20
25.690074801445007
 10
504.36969566345215
 20
26.10319232940674
 10
504.51882243156433
 20
26.562768578529358
 10
504.5941162109375
 20
27.06744384765625
  0
LINE
  5
13C
330
17
100
AcDbEntity
  8
SCHEMATICS
 62
7
100
AcDbLine
 10
504.5941162109375
 20
27.06744384765625
 30
0.0
 11
504.6294250488281
 21
27.60064697265625
 31
0.0
  0
LINE
  5
13D
330
17
100
AcDbEntity
  8
SCHEMATICS
 62
7
100
AcDbLine
 10
504.6294250488281
 20
27.60064697265625
 30
0.0
 11
504.6294250488281
 21
33.25250244140625
 31
0.0
  0
LINE
  5
13E
330
17
100
AcDbEntity
  8
SCHEMATICS
 62
7
100
AcDbLine
 10
504.6294250488281
 20
33.25250244140625
 30
0.0
 11
502.83721923828125
 21
33.25250244140625
 31
0.0
  0
LINE
  5
13F
330
17
100
AcDbEntity
  8
SCHEMATICS
 62
7
100
AcDbLine
 10
502.83721923828125
 20
33.25250244140625
 30
0.0
 11
502.83721923828125
 21
28.16790771484375
 31
0.0
  0
LINE
  5
140
330
17
100
AcDbEntity
  8
SCHEMATICS
 62
7
100
AcDbLine
 10
490.82293701171875
 20
24.43365478515625
 30
0.0
 11
492.6141357421875
 21
24.43365478515625
 31
0.0
  0
LINE
  5
141
330
17
100
AcDbEntity
  8
SCHEMATICS
 62
7
100
AcDbLine
 10
492.6141357421875
 20
24.43365478515625
 30
0.0
 11
492.6141357421875
 21
28.16790771484375
 31
0.0
  0
LINE
  5
142
330
17
100
AcDbEntity
  8
SCHEMATICS
 62
7
100
AcDbLine
 10
492.6141357421875
 20
28.16790771484375
 30
0.0
 11
496.0358581542969
 21
28.16790771484375
 31
0.0
  0
LINE
  5
143
330
17
100
AcDbEntity
  8
SCHEMATICS
 62
7
100
AcDbLine
 10
496.0358581542969
 20
28.16790771484375
 30
0.0
 11
496.0358581542969
 21
29.727294921875
 31
0.0
  0
LINE
  5
144
330
17
100
AcDbEntity
  8
SCHEMATICS
 62
7
100
AcDbLine
 10
496.0358581542969
 20
29.727294921875
 30
0.0
 11
492.6141357421875
 21
29.727294921875
 31
0.0
  0
LINE
  5
145
330
17
100
AcDbEntity
  8
SCHEMATICS
 62
7
100
AcDbLine
 10
492.6141357421875
 20
29.727294921875
 30
0.0
 11
492.6141357421875
 21
31.61962890625
 31
0.0
  0
LINE
  5
146
330
17
100
AcDbEntity
  8
SCHEMATICS
 62
7
100
AcDbLine
 10
492.6141357421875
 20
31.61962890625
 30
0.0
 11
496.5424499511719
 21
31.61962890625
 31
0.0
  0
LINE
  5
147
330
17
100
AcDbEntity
  8
SCHEMATICS
 62
7
100
AcDbLine
 10
496.5424499511719
 20
31.61962890625
 30
0.0
 11
496.5424499511719
 21
33.25250244140625
 31
0.0
  0
LINE
  5
148
330
17
100
AcDbEntity
  8
SCHEMATICS
 62
7
100
AcDbLine
 10
496.5424499511719
 20
33.25250244140625
 30
0.0
 11
490.82293701171875
 21
33.25250244140625
 31
0.0
  0
LINE
  5
149
330
17
100
AcDbEntity
  8
SCHEMATICS
 62
7
100
AcDbLine
 10
490.82293701171875
 20
33.25250244140625
 30
0.0
 11
490.82293701171875
 21
24.43365478515625
 31
0.0
  0
LINE
  5
14A
330
17
100
AcDbEntity
  8
SCHEMATICS
 62
7
100
AcDbLine
 10
489.4912414550781
 20
28.1697998046875
 30
0.0
 11
487.4443054199219
 21
28.1697998046875
 31
0.0
  0
LINE
  5
14B
330
17
100
AcDbEntity
  8
SCHEMATICS
 62
7
100
AcDbLine
 10
487.4443054199219
 20
28.1697998046875
 30
0.0
 11
487.4443054199219
 21
30.3094482421875
 31
0.0
  0
LINE
  5
14C
330
17
100
AcDbEntity
  8
SCHEMATICS
 62
7
100
AcDbLine
 10
487.4443054199219
 20
30.3094482421875
 30
0.0
 11
485.6579284667969
 21
30.3094482421875
 31
0.0
  0
LINE
  5
14D
330
17
100
AcDbEntity
  8
SCHEMATICS
 62
7
100
AcDbLine
 10
485.6579284667969
 20
30.3094482421875
 30
0.0
 11
485.6579284667969
 21
28.1697998046875
 31
0.0
  0
LINE
  5
14E
330
17
100
AcDbEntity
  8
SCHEMATICS
 62
7
100
AcDbLine
 10
485.6579284667969
 20
28.1697998046875
 30
0.0
 11
483.6119689941406
 21
28.1697998046875
 31
0.0
  0
LINE
  5
14F
330
17
100
AcDbEntity
  8
SCHEMATICS
 62
7
100
AcDbLine
 10
483.6119689941406
 20
28.1697998046875
 30
0.0
 11
483.6119689941406
 21
26.6004638671875
 31
0.0
  0
LINE
  5
150
330
17
100
AcDbEntity
  8
SCHEMATICS
 62
7
100
AcDbLine
 10
483.6119689941406
 20
26.6004638671875
 30
0.0
 11
485.6579284667969
 21
26.6004638671875
 31
0.0
  0
LINE
  5
151
330
17
100
AcDbEntity
  8
SCHEMATICS
 62
7
100
AcDbLine
 10
485.6579284667969
 20
26.6004638671875
 30
0.0
 11
485.6579284667969
 21
24.43212890625
 31
0.0
  0
LINE
  5
152
330
17
100
AcDbEntity
  8
SCHEMATICS
 62
7
100
AcDbLine
 10
485.6579284667969
 20
24.43212890625
 30
0.0
 11
487.4443054199219
 21
24.43212890625
 31
0.0
  0
LINE
  5
153
330
17
100
AcDbEntity
  8
SCHEMATICS
 62
7
100
AcDbLine
 10
487.4443054199219
 20
24.43212890625
 30
0.0
 11
487.4443054199219
 21
26.6004638671875
 31
0.0
  0
LINE
  5
154
330
17
100
AcDbEntity
  8
SCHEMATICS
 62
7
100
AcDbLine
 10
487.4443054199219
 20
26.6004638671875
 30
0.0
 11
489.4912414550781
 21
26.6004638671875
 31
0.0
  0
LINE
  5
155
330
17
100
AcDbEntity
  8
SCHEMATICS
 62
7
100
AcDbLine
 10
489.4912414550781
 20
26.6004638671875
 30
0.0
 11
489.4912414550781
 21
28.1697998046875
 31
0.0
  0
LINE
  5
156
330
17
100
AcDbEntity
  8
SCHEMATICS
 62
7
100
AcDbLine
 10
478.7429504394531
 20
26.04888916015625
 30
0.0
 11
478.7429504394531
 21
33.24261474609375
 31
0.0
  0
LINE
  5
157
330
17
100
AcDbEntity
  8
SCHEMATICS
 62
7
100
AcDbLine
 10
478.7429504394531
 20
33.24261474609375
 30
0.0
 11
476.95269775390625
 21
33.24261474609375
 31
0.0
  0
LINE
  5
158
330
17
100
AcDbEntity
  8
SCHEMATICS
 62
7
100
AcDbLine
 10
476.95269775390625
 20
33.24261474609375
 30
0.0
 11
476.95269775390625
 21
24.43365478515625
 31
0.0
  0
LINE
  5
159
330
17
100
AcDbEntity
  8
SCHEMATICS
 62
7
100
AcDbLine
 10
476.95269775390625
 20
24.43365478515625
 30
0.0
 11
482.6673889160156
 21
24.43365478515625
 31
0.0
  0
LINE
  5
15A
330
17
100
AcDbEntity
  8
SCHEMATICS
 62
7
100
AcDbLine
 10
482.6673889160156
 20
24.43365478515625
 30
0.0
 11
482.6673889160156
 21
26.04888916015625
 31
0.0
  0
LINE
  5
15B
330
17
100
AcDbEntity
  8
SCHEMATICS
 62
7
100
AcDbLine
 10
482.6673889160156
 20
26.04888916015625
 30
0.0
 11
478.7429504394531
 21
26.04888916015625
 31
0.0
  0
LWPOLYLINE
  5
15C
330
17
100
AcDbEntity
  8
SCHEMATICS
 62
7
100
AcDbPolyline
 90
9
 70
0
 10
473.7053527832031
 20
30.33245849609375
 10
473.66750633716583
 20
30.106778144836426
 10
473.60150241851807
 20
29.91043472290039
 10
473.50922429561615
 20
29.74315357208252
 10
473.3925552368164
 20
29.604660034179688
 10
473.25337851047516
 20
29.49467945098877
 10
473.09357738494873
 20
29.41293716430664
 10
472.91503512859344
 20
29.359158515930176
 10
472.7196350097656
 20
29.33306884765625
  0
LINE
  5
15D
330
17
100
AcDbEntity
  8
SCHEMATICS
 62
7
100
AcDbLine
 10
472.7196350097656
 20
29.33306884765625
 30
0.0
 11
472.29827880859375
 21
29.30853271484375
 31
0.0
  0
LINE
  5
15E
330
17
100
AcDbEntity
  8
SCHEMATICS
 62
7
100
AcDbLine
 10
472.29827880859375
 20
29.30853271484375
 30
0.0
 11
470.5981750488281
 21
29.30853271484375
 31
0.0
  0
LINE
  5
15F
330
17
100
AcDbEntity
  8
SCHEMATICS
 62
7
100
AcDbLine
 10
470.5981750488281
 20
29.30853271484375
 30
0.0
 11
470.5981750488281
 21
31.677490234375
 31
0.0
  0
LINE
  5
160
330
17
100
AcDbEntity
  8
SCHEMATICS
 62
7
100
AcDbLine
 10
470.5981750488281
 20
31.677490234375
 30
0.0
 11
472.5079650878906
 21
31.677490234375
 31
0.0
  0
LINE
  5
161
330
17
100
AcDbEntity
  8
SCHEMATICS
 62
7
100
AcDbLine
 10
472.5079650878906
 20
31.677490234375
 30
0.0
 11
472.73040771484375
 21
31.677490234375
 31
0.0
  0
LWPOLYLINE
  5
162
330
17
100
AcDbEntity
  8
SCHEMATICS
 62
7
100
AcDbPolyline
 90
9
 70
0
 10
472.73040771484375
 20
31.677490234375
 10
472.91297566890717
 20
31.653475284576416
 10
473.08063411712646
 20
31.61478042602539
 10
473.2321664094925
 20
31.555881023406982
 10
473.3663558959961
 20
31.47125244140625
 10
473.4819859266281
 20
31.355370044708252
 10
473.5778398513794
 20
31.202709197998047
 10
473.6527010202408
 20
31.007745265960693
 10
473.7053527832031
 20
30.76495361328125
  0
LWPOLYLINE
  5
163
330
17
100
AcDbEntity
  8
SCHEMATICS
 62
7
100
AcDbPolyline
 90
9
 70
0
 10
473.7053527832031
 20
30.76495361328125
 10
473.70890760421753
 20
30.716684579849243
 10
473.71144676208496
 20
30.66556739807129
 10
473.7129702568054
 20
30.6121985912323
 10
473.7134780883789
 20
30.557174682617188
 10
473.7129702568054
 20
30.501092195510864
 10
473.71144676208496
 20
30.444547653198242
 10
473.70890760421753
 20
30.388137578964233
 10
473.7053527832031
 20
30.33245849609375
  0
LWPOLYLINE
  5
164
330
17
100
AcDbEntity
  8
SCHEMATICS
 62
7
100
AcDbPolyline
 90
9
 70
0
 10
475.49560546875
 20
25.35650634765625
 10
475.45585918426514
 20
25.611403346061707
 10
475.43127632141113
 20
25.84321117401123
 10
475.4172763824463
 20
26.060374855995178
 10
475.4092788696289
 20
26.271339416503906
 10
475.4027032852173
 20
26.48454988002777
 10
475.3929691314697
 20
26.70845127105713
 10
475.37549591064453
 20
26.951488614082336
 10
475.345703125
 20
27.22210693359375
  0
LWPOLYLINE
  5
165
330
17
100
AcDbEntity
  8
SCHEMATICS
 62
7
100
AcDbPolyline
 90
9
 70
0
 10
475.345703125
 20
27.22210693359375
 10
475.3261321783066
 20
27.337576746940613
 10
475.2844648361206
 20
27.483698844909668
 10
475.2209321260452
 20
27.651111245155334
 10
475.1357650756836
 20
27.83045196533203
 10
475.02919471263885
 20
28.012359023094177
 10
474.90145206451416
 20
28.18747043609619
 10
474.75276815891266
 20
28.346424221992493
 10
474.5833740234375
 20
28.4798583984375
  0
LINE
  5
166
330
17
100
AcDbEntity
  8
SCHEMATICS
 62
7
100
AcDbLine
 10
474.5833740234375
 20
28.4798583984375
 30
0.0
 11
474.33251953125
 21
28.64215087890625
 31
0.0
  0
LINE
  5
167
330
17
100
AcDbEntity
  8
SCHEMATICS
 62
7
100
AcDbLine
 10
474.33251953125
 20
28.64215087890625
 30
0.0
 11
474.6794128417969
 21
28.888671875
 31
0.0
  0
LWPOLYLINE
  5
168
330
17
100
AcDbEntity
  8
SCHEMATICS
 62
7
100
AcDbPolyline
 90
9
 70
0
 10
474.6794128417969
 20
28.888671875
 10
474.8468138575554
 20
29.022480249404907
 10
474.9839606285095
 20
29.163545608520508
 10
475.09550338983536
 20
29.313128232955933
 10
475.186092376709
 20
29.472488403320312
 10
475.2603778243065
 20
29.64288640022278
 10
475.32300996780396
 20
29.82558250427246
 10
475.3786390423775
 20
30.02183699607849
 10
475.4319152832031
 20
30.23291015625
  0
LWPOLYLINE
  5
169
330
17
100
AcDbEntity
  8
SCHEMATICS
 62
7
100
AcDbPolyline
 90
9
 70
0
 10
475.4319152832031
 20
30.23291015625
 10
475.4714340567589
 20
30.409855484962463
 10
475.49950551986694
 20
30.574467658996582
 10
475.5159805417061
 20
30.730778574943542
 10
475.5207099914551
 20
30.88282012939453
 10
475.5135447382927
 20
31.034624218940735
 10
475.4943356513977
 20
31.19022274017334
 10
475.4629335999489
 20
31.353647589683533
 10
475.419189453125
 20
31.5289306640625
  0
LWPOLYLINE
  5
16A
330
17
100
AcDbEntity
  8
SCHEMATICS
 62
7
100
AcDbPolyline
 90
9
 70
0
 10
475.419189453125
 20
31.5289306640625
 10
475.3452419042587
 20
31.77685511112213
 10
475.2606134414673
 20
32.00493335723877
 10
475.1616984605789
 20
32.213884234428406
 10
475.0448913574219
 20
32.40442657470703
 10
474.9065865278244
 20
32.57727921009064
 10
474.74317836761475
 20
32.733160972595215
 10
474.55106127262115
 20
32.872790694236755
 10
474.3266296386719
 20
32.99688720703125
  0
LWPOLYLINE
  5
16B
330
17
100
AcDbEntity
  8
SCHEMATICS
 62
7
100
AcDbPolyline
 90
9
 70
0
 10
474.3266296386719
 20
32.99688720703125
 10
474.1836093068123
 20
33.0613226890564
 10
474.0491108894348
 20
33.113555908203125
 10
473.9196199774742
 20
33.15469980239868
 10
473.79162216186523
 20
33.18586730957031
 10
473.66160303354263
 20
33.208171367645264
 10
473.52604818344116
 20
33.22272491455078
 10
473.3814432024956
 20
33.23064088821411
 10
473.2242736816406
 20
33.2330322265625
  0
LINE
  5
16C
330
17
100
AcDbEntity
  8
SCHEMATICS
 62
7
100
AcDbLine
 10
473.2242736816406
 20
33.2330322265625
 30
0.0
 11
468.8236083984375
 21
33.2330322265625
 31
0.0
  0
LINE
  5
16D
330
17
100
AcDbEntity
  8
SCHEMATICS
 62
7
100
AcDbLine
 10
468.8236083984375
 20
33.2330322265625
 30
0.0
 11
468.8236083984375
 21
24.43365478515625
 31
0.0
  0
LINE
  5
16E
330
17
100
AcDbEntity
  8
SCHEMATICS
 62
7
100
AcDbLine
 10
468.8236083984375
 20
24.43365478515625
 30
0.0
 11
470.5981750488281
 21
24.43365478515625
 31
0.0
  0
LINE
  5
16F
330
17
100
AcDbEntity
  8
SCHEMATICS
 62
7
100
AcDbLine
 10
470.5981750488281
 20
24.43365478515625
 30
0.0
 11
470.5981750488281
 21
27.8387451171875
 31
0.0
  0
LINE
  5
170
330
17
100
AcDbEntity
  8
SCHEMATICS
 62
7
100
AcDbLine
 10
470.5981750488281
 20
27.8387451171875
 30
0.0
 11
472.4697570800781
 21
27.8387451171875
 31
0.0
  0
LINE
  5
171
330
17
100
AcDbEntity
  8
SCHEMATICS
 62
7
100
AcDbLine
 10
472.4697570800781
 20
27.8387451171875
 30
0.0
 11
472.73040771484375
 21
27.8387451171875
 31
0.0
  0
LWPOLYLINE
  5
172
330
17
100
AcDbEntity
  8
SCHEMATICS
 62
7
100
AcDbPolyline
 90
9
 70
0
 10
472.73040771484375
 20
27.8387451171875
 10
472.81584841012955
 20
27.83481788635254
 10
472.8965573310852
 20
27.82318878173828
 10
472.9725806117058
 20
27.804086685180664
 10
473.0439643859863
 20
27.777740478515625
 10
473.1107547879219
 20
27.7443790435791
 10
473.17299795150757
 20
27.70423126220703
 10
473.2307400107384
 20
27.65752601623535
 10
473.2840270996094
 20
27.6044921875
  0
LWPOLYLINE
  5
173
330
17
100
AcDbEntity
  8
SCHEMATICS
 62
7
100
AcDbPolyline
 90
9
 70
0
 10
473.2840270996094
 20
27.6044921875
 10
473.40929436683655
 20
27.45622408390045
 10
473.5088195800781
 20
27.305699348449707
 10
473.5859773159027
 20
27.15076434612274
 10
473.6441421508789
 20
26.98926544189453
 10
473.6866886615753
 20
26.81904900074005
 10
473.71699142456055
 20
26.637961387634277
 10
473.7384250164032
 20
26.443848967552185
 10
473.7543640136719
 20
26.23455810546875
  0
LWPOLYLINE
  5
174
330
17
100
AcDbEntity
  8
SCHEMATICS
 62
7
100
AcDbPolyline
 90
9
 70
0
 10
473.7543640136719
 20
26.23455810546875
 10
473.76558941602707
 20
26.02176547050476
 10
473.7728991508484
 20
25.823945999145508
 10
473.7797275185585
 20
25.636234521865845
 10
473.7895088195801
 20
25.453765869140625
 10
473.8056773543358
 20
25.271674871444702
 10
473.8316674232483
 20
25.08509635925293
 10
473.87091332674026
 20
24.88916516304016
 10
473.9268493652344
 20
24.67901611328125
  0
LINE
  5
175
330
17
100
AcDbEntity
  8
SCHEMATICS
 62
7
100
AcDbLine
 10
473.9268493652344
 20
24.67901611328125
 30
0.0
 11
474.00128173828125
 21
24.43365478515625
 31
0.0
  0
LINE
  5
176
330
17
100
AcDbEntity
  8
SCHEMATICS
 62
7
100
AcDbLine
 10
474.00128173828125
 20
24.43365478515625
 30
0.0
 11
475.69061279296875
 21
24.43365478515625
 31
0.0
  0
LINE
  5
177
330
17
100
AcDbEntity
  8
SCHEMATICS
 62
7
100
AcDbLine
 10
475.69061279296875
 20
24.43365478515625
 30
0.0
 11
475.6063537597656
 21
24.74139404296875
 31
0.0
  0
LINE
  5
178
330
17
100
AcDbEntity
  8
SCHEMATICS
 62
7
100
AcDbLine
 10
475.6063537597656
 20
24.74139404296875
 30
0.0
 11
475.49560546875
 21
25.35650634765625
 31
0.0
  0
LINE
  5
179
330
17
100
AcDbEntity
  8
SCHEMATICS
 62
7
100
AcDbLine
 10
461.565673828125
 20
24.41717529296875
 30
0.0
 11
467.6350402832031
 21
24.41717529296875
 31
0.0
  0
LINE
  5
17A
330
17
100
AcDbEntity
  8
SCHEMATICS
 62
7
100
AcDbLine
 10
467.6350402832031
 20
24.41717529296875
 30
0.0
 11
467.6350402832031
 21
26.03778076171875
 31
0.0
  0
LINE
  5
17B
330
17
100
AcDbEntity
  8
SCHEMATICS
 62
7
100
AcDbLine
 10
467.6350402832031
 20
26.03778076171875
 30
0.0
 11
463.35882568359375
 21
26.03778076171875
 31
0.0
  0
LINE
  5
17C
330
17
100
AcDbEntity
  8
SCHEMATICS
 62
7
100
AcDbLine
 10
463.35882568359375
 20
26.03778076171875
 30
0.0
 11
463.35882568359375
 21
28.16790771484375
 31
0.0
  0
LINE
  5
17D
330
17
100
AcDbEntity
  8
SCHEMATICS
 62
7
100
AcDbLine
 10
463.35882568359375
 20
28.16790771484375
 30
0.0
 11
467.29010009765625
 21
28.16790771484375
 31
0.0
  0
LINE
  5
17E
330
17
100
AcDbEntity
  8
SCHEMATICS
 62
7
100
AcDbLine
 10
467.29010009765625
 20
28.16790771484375
 30
0.0
 11
467.29010009765625
 21
29.7138671875
 31
0.0
  0
LINE
  5
17F
330
17
100
AcDbEntity
  8
SCHEMATICS
 62
7
100
AcDbLine
 10
467.29010009765625
 20
29.7138671875
 30
0.0
 11
463.35882568359375
 21
29.7138671875
 31
0.0
  0
LINE
  5
180
330
17
100
AcDbEntity
  8
SCHEMATICS
 62
7
100
AcDbLine
 10
463.35882568359375
 20
29.7138671875
 30
0.0
 11
463.35882568359375
 21
31.61846923828125
 31
0.0
  0
LINE
  5
181
330
17
100
AcDbEntity
  8
SCHEMATICS
 62
7
100
AcDbLine
 10
463.35882568359375
 20
31.61846923828125
 30
0.0
 11
467.6350402832031
 21
31.61846923828125
 31
0.0
  0
LINE
  5
182
330
17
100
AcDbEntity
  8
SCHEMATICS
 62
7
100
AcDbLine
 10
467.6350402832031
 20
31.61846923828125
 30
0.0
 11
467.6350402832031
 21
33.2398681640625
 31
0.0
  0
LINE
  5
183
330
17
100
AcDbEntity
  8
SCHEMATICS
 62
7
100
AcDbLine
 10
467.6350402832031
 20
33.2398681640625
 30
0.0
 11
461.565673828125
 21
33.2398681640625
 31
0.0
  0
LINE
  5
184
330
17
100
AcDbEntity
  8
SCHEMATICS
 62
7
100
AcDbLine
 10
461.565673828125
 20
33.2398681640625
 30
0.0
 11
461.565673828125
 21
24.41717529296875
 31
0.0
  0
LINE
  5
185
330
17
100
AcDbEntity
  8
SCHEMATICS
 62
7
100
AcDbLine
 10
457.7930908203125
 20
29.15850830078125
 30
0.0
 11
457.48345947265625
 21
29.1343994140625
 31
0.0
  0
LINE
  5
186
330
17
100
AcDbEntity
  8
SCHEMATICS
 62
7
100
AcDbLine
 10
457.48345947265625
 20
29.1343994140625
 30
0.0
 11
455.7784729003906
 21
29.1343994140625
 31
0.0
  0
LINE
  5
187
330
17
100
AcDbEntity
  8
SCHEMATICS
 62
7
100
AcDbLine
 10
455.7784729003906
 20
29.1343994140625
 30
0.0
 11
455.7784729003906
 21
31.69354248046875
 31
0.0
  0
LINE
  5
188
330
17
100
AcDbEntity
  8
SCHEMATICS
 62
7
100
AcDbLine
 10
455.7784729003906
 20
31.69354248046875
 30
0.0
 11
457.5471496582031
 21
31.69354248046875
 31
0.0
  0
LWPOLYLINE
  5
189
330
17
100
AcDbEntity
  8
SCHEMATICS
 62
7
100
AcDbPolyline
 90
9
 70
0
 10
457.5471496582031
 20
31.69354248046875
 10
457.5814346075058
 20
31.692522287368774
 10
457.6134214401245
 20
31.68983268737793
 10
457.6437531709671
 20
31.68603014945984
 10
457.6730728149414
 20
31.681671142578125
 10
457.70202338695526
 20
31.67731213569641
 10
457.7312479019165
 20
31.67350959777832
 10
457.76138937473297
 20
31.670819997787476
 10
457.7930908203125
 20
31.6697998046875
  0
LWPOLYLINE
  5
18A
330
17
100
AcDbEntity
  8
SCHEMATICS
 62
7
100
AcDbPolyline
 90
9
 70
0
 10
457.7930908203125
 20
31.6697998046875
 10
458.0090109705925
 20
31.62183403968811
 10
458.1940875053406
 20
31.528493881225586
 10
458.3488021492958
 20
31.396332502365112
 10
458.47363662719727
 20
31.231903076171875
 10
458.569072663784
 20
31.04175877571106
 10
458.63559198379517
 20
30.83245277404785
 10
458.67367631196976
 20
30.610538244247437
 10
458.6838073730469
 20
30.382568359375
  0
LWPOLYLINE
  5
18B
330
17
100
AcDbEntity
  8
SCHEMATICS
 62
7
100
AcDbPolyline
 90
9
 70
0
 10
458.6838073730469
 20
30.382568359375
 10
458.665760576725
 20
30.16236972808838
 10
458.6200222969055
 20
29.948665618896484
 10
458.5471107363701
 20
29.747807502746582
 10
458.4475440979004
 20
29.566146850585938
 10
458.3218405842781
 20
29.410035133361816
 10
458.1705183982849
 20
29.285823822021484
 10
457.9940957427025
 20
29.199864387512207
 10
457.7930908203125
 20
29.15850830078125
  0
LWPOLYLINE
  5
18C
330
17
100
AcDbEntity
  8
SCHEMATICS
 62
7
100
AcDbPolyline
 90
9
 70
0
 10
458.4368896484375
 20
33.21575927734375
 10
458.38572800159454
 20
33.22371709346771
 10
458.33477306365967
 20
33.22969722747803
 10
458.283496260643
 20
33.23398220539093
 10
458.2313690185547
 20
33.236854553222656
 10
458.17786276340485
 20
33.23859679698944
 10
458.1224489212036
 20
33.23949146270752
 10
458.0645989179611
 20
33.23982107639313
 10
458.0037841796875
 20
33.2398681640625
  0
LINE
  5
18D
330
17
100
AcDbEntity
  8
SCHEMATICS
 62
7
100
AcDbLine
 10
458.0037841796875
 20
33.2398681640625
 30
0.0
 11
453.9745178222656
 21
33.2398681640625
 31
0.0
  0
LINE
  5
18E
330
17
100
AcDbEntity
  8
SCHEMATICS
 62
7
100
AcDbLine
 10
453.9745178222656
 20
33.2398681640625
 30
0.0
 11
453.9745178222656
 21
24.43365478515625
 31
0.0
  0
LINE
  5
18F
330
17
100
AcDbEntity
  8
SCHEMATICS
 62
7
100
AcDbLine
 10
453.9745178222656
 20
24.43365478515625
 30
0.0
 11
455.7784729003906
 21
24.43365478515625
 31
0.0
  0
LINE
  5
190
330
17
100
AcDbEntity
  8
SCHEMATICS
 62
7
100
AcDbLine
 10
455.7784729003906
 20
24.43365478515625
 30
0.0
 11
455.7784729003906
 21
27.58721923828125
 31
0.0
  0
LINE
  5
191
330
17
100
AcDbEntity
  8
SCHEMATICS
 62
7
100
AcDbLine
 10
455.7784729003906
 20
27.58721923828125
 30
0.0
 11
457.8293762207031
 21
27.58721923828125
 31
0.0
  0
LINE
  5
192
330
17
100
AcDbEntity
  8
SCHEMATICS
 62
7
100
AcDbLine
 10
457.8293762207031
 20
27.58721923828125
 30
0.0
 11
458.18994140625
 21
27.61212158203125
 31
0.0
  0
LWPOLYLINE
  5
193
330
17
100
AcDbEntity
  8
SCHEMATICS
 62
7
100
AcDbPolyline
 90
9
 70
0
 10
458.18994140625
 20
27.61212158203125
 10
458.6889295578003
 20
27.70584237575531
 10
459.1292095184326
 20
27.903494834899902
 10
459.5087471008301
 20
28.189196705818176
 10
459.8255081176758
 20
28.54706573486328
 10
460.07745838165283
 20
28.961219668388367
 10
460.26256370544434
 20
29.415776252746582
 10
460.3787899017334
 20
29.894853234291077
 10
460.4241027832031
 20
30.382568359375
  0
LWPOLYLINE
  5
194
330
17
100
AcDbEntity
  8
SCHEMATICS
 62
7
100
AcDbPolyline
 90
9
 70
0
 10
460.4241027832031
 20
30.382568359375
 10
460.4024211168289
 20
30.81882357597351
 10
460.3193368911743
 20
31.263505935668945
 10
460.173162817955
 20
31.700672388076782
 10
459.9622116088867
 20
32.1143798828125
 10
459.6847959756851
 20
32.48868536949158
 10
459.3392286300659
 20
32.80764579772949
 10
458.9238222837448
 20
33.055318117141724
 10
458.4368896484375
 20
33.21575927734375
  0
LINE
  5
195
330
17
100
AcDbEntity
  8
SCHEMATICS
 62
7
100
AcDbLine
 10
450.2186584472656
 20
29.1546630859375
 30
0.0
 11
449.90899658203125
 21
29.13018798828125
 31
0.0
  0
LINE
  5
196
330
17
100
AcDbEntity
  8
SCHEMATICS
 62
7
100
AcDbLine
 10
449.90899658203125
 20
29.13018798828125
 30
0.0
 11
448.2010498046875
 21
29.13018798828125
 31
0.0
  0
LINE
  5
197
330
17
100
AcDbEntity
  8
SCHEMATICS
 62
7
100
AcDbLine
 10
448.2010498046875
 20
29.13018798828125
 30
0.0
 11
448.2010498046875
 21
31.6981201171875
 31
0.0
  0
LINE
  5
198
330
17
100
AcDbEntity
  8
SCHEMATICS
 62
7
100
AcDbLine
 10
448.2010498046875
 20
31.6981201171875
 30
0.0
 11
449.9717102050781
 21
31.6981201171875
 31
0.0
  0
LWPOLYLINE
  5
199
330
17
100
AcDbEntity
  8
SCHEMATICS
 62
7
100
AcDbPolyline
 90
9
 70
0
 10
449.9717102050781
 20
31.6981201171875
 10
450.0069183707237
 20
31.697068452835083
 10
450.0395083427429
 20
31.69429588317871
 10
450.0701692700386
 20
31.690376043319702
 10
450.0995903015137
 20
31.685882568359375
 10
450.128460586071
 20
31.681389093399048
 10
450.1574692726135
 20
31.67746925354004
 10
450.1873055100441
 20
31.674696683883667
 10
450.2186584472656
 20
31.67364501953125
  0
LWPOLYLINE
  5
19A
330
17
100
AcDbEntity
  8
SCHEMATICS
 62
7
100
AcDbPolyline
 90
9
 70
0
 10
450.2186584472656
 20
31.67364501953125
 10
450.43553364276886
 20
31.625030159950256
 10
450.6213159561157
 20
31.531140327453613
 10
450.776509642601
 20
31.398496508598328
 10
450.90161895751953
 20
31.233619689941406
 10
450.9971481561661
 20
31.043030858039856
 10
451.06360149383545
 20
30.833250999450684
 10
451.10148322582245
 20
30.610801100730896
 10
451.1112976074219
 20
30.3822021484375
  0
LWPOLYLINE
  5
19B
330
17
100
AcDbEntity
  8
SCHEMATICS
 62
7
100
AcDbPolyline
 90
9
 70
0
 10
451.1112976074219
 20
30.3822021484375
 10
451.092877805233
 20
30.16144847869873
 10
451.04678297042847
 20
29.947223663330078
 10
450.973542034626
 20
29.74587917327881
 10
450.87368392944336
 20
29.563766479492188
 10
450.74773758649826
 20
29.40723705291748
 10
450.59623193740845
 20
29.282642364501953
 10
450.41969591379166
 20
29.19633388519287
 10
450.2186584472656
 20
29.1546630859375
  0
LWPOLYLINE
  5
19C
330
17
100
AcDbEntity
  8
SCHEMATICS
 62
7
100
AcDbPolyline
 90
9
 70
0
 10
450.8634033203125
 20
33.22198486328125
 10
450.81204015016556
 20
33.229801654815674
 10
450.7611451148987
 20
33.23567581176758
 10
450.71008771657944
 20
33.23988485336304
 10
450.6582374572754
 20
33.242706298828125
 10
450.6049638390541
 20
33.244417667388916
 10
450.54963636398315
 20
33.245296478271484
 10
450.4916245341301
 20
33.245620250701904
 10
450.4302978515625
 20
33.24566650390625
  0
LINE
  5
19D
330
17
100
AcDbEntity
  8
SCHEMATICS
 62
7
100
AcDbLine
 10
450.4302978515625
 20
33.24566650390625
 30
0.0
 11
446.3931884765625
 21
33.24566650390625
 31
0.0
  0
LINE
  5
19E
330
17
100
AcDbEntity
  8
SCHEMATICS
 62
7
100
AcDbLine
 10
446.3931884765625
 20
33.24566650390625
 30
0.0
 11
446.3931884765625
 21
24.4183349609375
 31
0.0
  0
LINE
  5
19F
330
17
100
AcDbEntity
  8
SCHEMATICS
 62
7
100
AcDbLine
 10
446.3931884765625
 20
24.4183349609375
 30
0.0
 11
448.2010498046875
 21
24.4183349609375
 31
0.0
  0
LINE
  5
1A0
330
17
100
AcDbEntity
  8
SCHEMATICS
 62
7
100
AcDbLine
 10
448.2010498046875
 20
24.4183349609375
 30
0.0
 11
448.2010498046875
 21
27.5819091796875
 31
0.0
  0
LINE
  5
1A1
330
17
100
AcDbEntity
  8
SCHEMATICS
 62
7
100
AcDbLine
 10
448.2010498046875
 20
27.5819091796875
 30
0.0
 11
450.2548828125
 21
27.5819091796875
 31
0.0
  0
LINE
  5
1A2
330
17
100
AcDbEntity
  8
SCHEMATICS
 62
7
100
AcDbLine
 10
450.2548828125
 20
27.5819091796875
 30
0.0
 11
450.616455078125
 21
27.6055908203125
 31
0.0
  0
LWPOLYLINE
  5
1A3
330
17
100
AcDbEntity
  8
SCHEMATICS
 62
7
100
AcDbPolyline
 90
9
 70
0
 10
450.616455078125
 20
27.6055908203125
 10
451.11662501096725
 20
27.69943630695343
 10
451.5581622123718
 20
27.897446632385254
 10
451.93893057107925
 20
28.183715224266052
 10
452.2567939758301
 20
28.542335510253906
 10
452.50961631536484
 20
28.957400918006897
 10
452.6952614784241
 20
29.413004875183105
 10
452.8115933537483
 20
29.893240809440613
 10
452.8564758300781
 20
30.3822021484375
  0
LWPOLYLINE
  5
1A4
330
17
100
AcDbEntity
  8
SCHEMATICS
 62
7
100
AcDbPolyline
 90
9
 70
0
 10
452.8564758300781
 20
30.3822021484375
 10
452.835183262825
 20
30.819932222366333
 10
452.75189304351807
 20
31.265851974487305
 10
452.60505521297455
 20
31.704044103622437
 10
452.3931198120117
 20
32.11859130859375
 10
452.11453688144684
 20
32.49357628822327
 10
451.76775646209717
 20
32.81308174133301
 10
451.35122859477997
 20
33.061190366744995
 10
450.8634033203125
 20
33.22198486328125
  0
LINE
  5
1A5
330
17
100
AcDbEntity
  8
SCHEMATICS
 62
7
100
AcDbLine
 10
439.1851806640625
 20
24.41717529296875
 30
0.0
 11
445.2545471191406
 21
24.41717529296875
 31
0.0
  0
LINE
  5
1A6
330
17
100
AcDbEntity
  8
SCHEMATICS
 62
7
100
AcDbLine
 10
445.2545471191406
 20
24.41717529296875
 30
0.0
 11
445.2545471191406
 21
26.03778076171875
 31
0.0
  0
LINE
  5
1A7
330
17
100
AcDbEntity
  8
SCHEMATICS
 62
7
100
AcDbLine
 10
445.2545471191406
 20
26.03778076171875
 30
0.0
 11
440.9773864746094
 21
26.03778076171875
 31
0.0
  0
LINE
  5
1A8
330
17
100
AcDbEntity
  8
SCHEMATICS
 62
7
100
AcDbLine
 10
440.9773864746094
 20
26.03778076171875
 30
0.0
 11
440.9773864746094
 21
28.16790771484375
 31
0.0
  0
LINE
  5
1A9
330
17
100
AcDbEntity
  8
SCHEMATICS
 62
7
100
AcDbLine
 10
440.9773864746094
 20
28.16790771484375
 30
0.0
 11
444.9096374511719
 21
28.16790771484375
 31
0.0
  0
LINE
  5
1AA
330
17
100
AcDbEntity
  8
SCHEMATICS
 62
7
100
AcDbLine
 10
444.9096374511719
 20
28.16790771484375
 30
0.0
 11
444.9096374511719
 21
29.7138671875
 31
0.0
  0
LINE
  5
1AB
330
17
100
AcDbEntity
  8
SCHEMATICS
 62
7
100
AcDbLine
 10
444.9096374511719
 20
29.7138671875
 30
0.0
 11
440.9773864746094
 21
29.7138671875
 31
0.0
  0
LINE
  5
1AC
330
17
100
AcDbEntity
  8
SCHEMATICS
 62
7
100
AcDbLine
 10
440.9773864746094
 20
29.7138671875
 30
0.0
 11
440.9773864746094
 21
31.61846923828125
 31
0.0
  0
LINE
  5
1AD
330
17
100
AcDbEntity
  8
SCHEMATICS
 62
7
100
AcDbLine
 10
440.9773864746094
 20
31.61846923828125
 30
0.0
 11
445.2545471191406
 21
31.61846923828125
 31
0.0
  0
LINE
  5
1AE
330
17
100
AcDbEntity
  8
SCHEMATICS
 62
7
100
AcDbLine
 10
445.2545471191406
 20
31.61846923828125
 30
0.0
 11
445.2545471191406
 21
33.2398681640625
 31
0.0
  0
LINE
  5
1AF
330
17
100
AcDbEntity
  8
SCHEMATICS
 62
7
100
AcDbLine
 10
445.2545471191406
 20
33.2398681640625
 30
0.0
 11
439.1851806640625
 21
33.2398681640625
 31
0.0
  0
LINE
  5
1B0
330
17
100
AcDbEntity
  8
SCHEMATICS
 62
7
100
AcDbLine
 10
439.1851806640625
 20
33.2398681640625
 30
0.0
 11
439.1851806640625
 21
24.41717529296875
 31
0.0
  0
LINE
  5
1B1
330
17
100
AcDbEntity
  8
SCHEMATICS
 62
7
100
AcDbLine
 10
435.48712158203125
 20
29.15924072265625
 30
0.0
 11
435.177490234375
 21
29.1343994140625
 31
0.0
  0
LINE
  5
1B2
330
17
100
AcDbEntity
  8
SCHEMATICS
 62
7
100
AcDbLine
 10
435.177490234375
 20
29.1343994140625
 30
0.0
 11
433.47344970703125
 21
29.1343994140625
 31
0.0
  0
LINE
  5
1B3
330
17
100
AcDbEntity
  8
SCHEMATICS
 62
7
100
AcDbLine
 10
433.47344970703125
 20
29.1343994140625
 30
0.0
 11
433.47344970703125
 21
31.69354248046875
 31
0.0
  0
LINE
  5
1B4
330
17
100
AcDbEntity
  8
SCHEMATICS
 62
7
100
AcDbLine
 10
433.47344970703125
 20
31.69354248046875
 30
0.0
 11
435.23919677734375
 21
31.69354248046875
 31
0.0
  0
LWPOLYLINE
  5
1B5
330
17
100
AcDbEntity
  8
SCHEMATICS
 62
7
100
AcDbPolyline
 90
9
 70
0
 10
435.23919677734375
 20
31.69354248046875
 10
435.2741277217865
 20
31.692522287368774
 10
435.30660247802734
 20
31.68983268737793
 10
435.337286233902
 20
31.68603014945984
 10
435.3668441772461
 20
31.681671142578125
 10
435.3959414958954
 20
31.67731213569641
 10
435.42524337768555
 20
31.67350959777832
 10
435.45541501045227
 20
31.670819997787476
 10
435.48712158203125
 20
31.6697998046875
  0
LWPOLYLINE
  5
1B6
330
17
100
AcDbEntity
  8
SCHEMATICS
 62
7
100
AcDbPolyline
 90
9
 70
0
 10
435.48712158203125
 20
31.6697998046875
 10
435.7036794424057
 20
31.62183403968811
 10
435.88919734954834
 20
31.528493881225586
 10
436.04414665699005
 20
31.396332502365112
 10
436.1689987182617
 20
31.231903076171875
 10
436.2642248868942
 20
31.04175877571106
 10
436.33029651641846
 20
30.83245277404785
 10
436.3676849603653
 20
30.610538244247437
 10
436.3768615722656
 20
30.382568359375
  0
LWPOLYLINE
  5
1B7
330
17
100
AcDbEntity
  8
SCHEMATICS
 62
7
100
AcDbPolyline
 90
9
 70
0
 10
436.3768615722656
 20
30.382568359375
 10
436.3588392138481
 20
30.162371158599854
 10
436.31320333480835
 20
29.94867706298828
 10
436.2404471039772
 20
29.747846126556396
 10
436.14106369018555
 20
29.566238403320312
 10
436.01554626226425
 20
29.410213947296143
 10
435.8643879890442
 20
29.2861328125
 10
435.68808203935623
 20
29.200355052947998
 10
435.48712158203125
 20
29.15924072265625
  0
LWPOLYLINE
  5
1B8
330
17
100
AcDbEntity
  8
SCHEMATICS
 62
7
100
AcDbPolyline
 90
9
 70
0
 10
436.1299133300781
 20
33.21575927734375
 10
436.07915222644806
 20
33.22371709346771
 10
436.02862071990967
 20
33.22969722747803
 10
435.9777215719223
 20
33.23398220539093
 10
435.9258575439453
 20
33.236854553222656
 10
435.87243139743805
 20
33.23859679698944
 10
435.81684589385986
 20
33.23949146270752
 10
435.7585037946701
 20
33.23982107639313
 10
435.6968078613281
 20
33.2398681640625
  0
LINE
  5
1B9
330
17
100
AcDbEntity
  8
SCHEMATICS
 62
7
100
AcDbLine
 10
435.6968078613281
 20
33.2398681640625
 30
0.0
 11
431.66754150390625
 21
33.2398681640625
 31
0.0
  0
LINE
  5
1BA
330
17
100
AcDbEntity
  8
SCHEMATICS
 62
7
100
AcDbLine
 10
431.66754150390625
 20
33.2398681640625
 30
0.0
 11
431.66754150390625
 21
24.43365478515625
 31
0.0
  0
LINE
  5
1BB
330
17
100
AcDbEntity
  8
SCHEMATICS
 62
7
100
AcDbLine
 10
431.66754150390625
 20
24.43365478515625
 30
0.0
 11
433.47344970703125
 21
24.43365478515625
 31
0.0
  0
LINE
  5
1BC
330
17
100
AcDbEntity
  8
SCHEMATICS
 62
7
100
AcDbLine
 10
433.47344970703125
 20
24.43365478515625
 30
0.0
 11
433.47344970703125
 21
27.5880126953125
 31
0.0
  0
LINE
  5
1BD
330
17
100
AcDbEntity
  8
SCHEMATICS
 62
7
100
AcDbLine
 10
433.47344970703125
 20
27.5880126953125
 30
0.0
 11
435.52337646484375
 21
27.5880126953125
 31
0.0
  0
LINE
  5
1BE
330
17
100
AcDbEntity
  8
SCHEMATICS
 62
7
100
AcDbLine
 10
435.52337646484375
 20
27.5880126953125
 30
0.0
 11
435.88201904296875
 21
27.61328125
 31
0.0
  0
LWPOLYLINE
  5
1BF
330
17
100
AcDbEntity
  8
SCHEMATICS
 62
7
100
AcDbPolyline
 90
9
 70
0
 10
435.88201904296875
 20
27.61328125
 10
436.3816944360733
 20
27.706894636154175
 10
436.8225793838501
 20
27.904481887817383
 10
437.2026518583298
 20
28.190134286880493
 10
437.51988983154297
 20
28.547943115234375
 10
437.7722712755203
 20
28.961999654769897
 10
437.9577741622925
 20
29.41639518737793
 10
438.0743764638901
 20
29.89522099494934
 10
438.12005615234375
 20
30.382568359375
  0
LWPOLYLINE
  5
1C0
330
17
100
AcDbEntity
  8
SCHEMATICS
 62
7
100
AcDbPolyline
 90
9
 70
0
 10
438.12005615234375
 20
30.382568359375
 10
438.09893077611923
 20
30.81882357597351
 10
438.01607275009155
 20
31.263505935668945
 10
437.8698280453682
 20
31.700672388076782
 10
437.65854263305664
 20
32.1143798828125
 10
437.3805624842644
 20
32.48868536949158
 10
437.0342335700989
 20
32.80764579772949
 10
436.61790186166763
 20
33.055318117141724
 10
436.1299133300781
 20
33.21575927734375
  0
LINE
  5
1C1
330
17
100
AcDbEntity
  8
SCHEMATICS
 62
7
100
AcDbLine
 10
417.77972412109375
 20
36.55078125
 30
0.0
 11
429.89788818359375
 21
36.55078125
 31
0.0
  0
LINE
  5
1C2
330
17
100
AcDbEntity
  8
SCHEMATICS
 62
7
100
AcDbLine
 10
429.89788818359375
 20
36.55078125
 30
0.0
 11
429.89788818359375
 21
24.43438720703125
 31
0.0
  0
LINE
  5
1C3
330
17
100
AcDbEntity
  8
SCHEMATICS
 62
7
100
AcDbLine
 10
429.89788818359375
 20
24.43438720703125
 30
0.0
 11
417.77972412109375
 21
24.43438720703125
 31
0.0
  0
LINE
  5
1C4
330
17
100
AcDbEntity
  8
SCHEMATICS
 62
7
100
AcDbLine
 10
417.77972412109375
 20
24.43438720703125
 30
0.0
 11
417.77972412109375
 21
36.55078125
 31
0.0
  0
LWPOLYLINE
  5
1C5
330
17
100
AcDbEntity
  8
SCHEMATICS
 62
7
100
AcDbPolyline
 90
9
 70
0
 10
425.0357360839844
 20
30.78717041015625
 10
424.8041434288025
 20
30.78717041015625
 10
424.31186866760254
 20
30.78717041015625
 10
423.6487765312195
 20
30.78717041015625
 10
422.9047317504883
 20
30.78717041015625
 10
422.1695990562439
 20
30.78717041015625
 10
421.5332431793213
 20
30.78717041015625
 10
421.0855288505554
 20
30.78717041015625
 10
420.91632080078125
 20
30.78717041015625
  0
LINE
  5
1C6
330
17
100
AcDbEntity
  8
SCHEMATICS
 62
7
100
AcDbLine
 10
420.91632080078125
 20
30.78717041015625
 30
0.0
 11
420.91632080078125
 21
25.64508056640625
 31
0.0
  0
LINE
  5
1C7
330
17
100
AcDbEntity
  8
SCHEMATICS
 62
7
100
AcDbLine
 10
420.91632080078125
 20
25.64508056640625
 30
0.0
 11
422.12744140625
 21
25.64508056640625
 31
0.0
  0
LINE
  5
1C8
330
17
100
AcDbEntity
  8
SCHEMATICS
 62
7
100
AcDbLine
 10
422.12744140625
 20
25.64508056640625
 30
0.0
 11
422.12744140625
 21
29.57110595703125
 31
0.0
  0
LINE
  5
1C9
330
17
100
AcDbEntity
  8
SCHEMATICS
 62
7
100
AcDbLine
 10
422.12744140625
 20
29.57110595703125
 30
0.0
 11
425.0357360839844
 21
29.57110595703125
 31
0.0
  0
LWPOLYLINE
  5
1CA
330
17
100
AcDbEntity
  8
SCHEMATICS
 62
7
100
AcDbPolyline
 90
9
 70
0
 10
425.0357360839844
 20
29.57110595703125
 10
425.16191720962524
 20
29.556448698043823
 10
425.2763423919678
 20
29.515565872192383
 10
425.3774495124817
 20
29.45309090614319
 10
425.4636764526367
 20
29.3736572265625
 10
425.5334610939026
 20
29.281898260116577
 10
425.585241317749
 20
29.18244743347168
 10
425.61745500564575
 20
29.079938173294067
 10
425.6285400390625
 20
28.97900390625
  0
LWPOLYLINE
  5
1CB
330
17
100
AcDbEntity
  8
SCHEMATICS
 62
7
100
AcDbPolyline
 90
9
 70
0
 10
425.6285400390625
 20
28.97900390625
 10
425.61098498106
 20
28.813117384910583
 10
425.56305837631226
 20
28.678011894226074
 10
425.49186807870865
 20
28.571017384529114
 10
425.4045219421387
 20
28.489463806152344
 10
425.3081278204918
 20
28.430681109428406
 10
425.20979356765747
 20
28.39199924468994
 10
425.1166270375252
 20
28.370748162269592
 10
425.0357360839844
 20
28.3642578125
  0
LWPOLYLINE
  5
1CC
330
17
100
AcDbEntity
  8
SCHEMATICS
 62
7
100
AcDbPolyline
 90
9
 70
0
 10
425.0357360839844
 20
28.3642578125
 10
424.9567955136299
 20
28.3642578125
 10
424.81819009780884
 20
28.3642578125
 10
424.64155381917953
 20
28.3642578125
 10
424.4485206604004
 20
28.3642578125
 10
424.2607246041298
 20
28.3642578125
 10
424.0997996330261
 20
28.3642578125
 10
423.9873797297478
 20
28.3642578125
 10
423.9450988769531
 20
28.3642578125
  0
LINE
  5
1CD
330
17
100
AcDbEntity
  8
SCHEMATICS
 62
7
100
AcDbLine
 10
423.9450988769531
 20
28.3642578125
 30
0.0
 11
423.9450988769531
 21
29.0899658203125
 31
0.0
  0
LINE
  5
1CE
330
17
100
AcDbEntity
  8
SCHEMATICS
 62
7
100
AcDbLine
 10
423.9450988769531
 20
29.0899658203125
 30
0.0
 11
422.7359619140625
 21
29.0899658203125
 31
0.0
  0
LINE
  5
1CF
330
17
100
AcDbEntity
  8
SCHEMATICS
 62
7
100
AcDbLine
 10
422.7359619140625
 20
29.0899658203125
 30
0.0
 11
422.7359619140625
 21
27.14019775390625
 31
0.0
  0
LINE
  5
1D0
330
17
100
AcDbEntity
  8
SCHEMATICS
 62
7
100
AcDbLine
 10
422.7359619140625
 20
27.14019775390625
 30
0.0
 11
425.0357360839844
 21
27.14019775390625
 31
0.0
  0
LWPOLYLINE
  5
1D1
330
17
100
AcDbEntity
  8
SCHEMATICS
 62
7
100
AcDbPolyline
 90
9
 70
0
 10
425.0357360839844
 20
27.14019775390625
 10
425.43002688884735
 20
27.18074870109558
 10
425.78307247161865
 20
27.29566764831543
 10
426.0913816690445
 20
27.47485375404358
 10
426.3514633178711
 20
27.708206176757812
 10
426.55982625484467
 20
27.985624074935913
 10
426.7129793167114
 20
28.297006607055664
 10
426.8074313402176
 20
28.63225293159485
 10
426.8396911621094
 20
28.98126220703125
  0
LWPOLYLINE
  5
1D2
330
17
100
AcDbEntity
  8
SCHEMATICS
 62
7
100
AcDbPolyline
 90
9
 70
0
 10
426.8396911621094
 20
28.98126220703125
 10
426.8080283999443
 20
29.329864859580994
 10
426.71227979660034
 20
29.661646842956543
 10
426.55679804086685
 20
29.967466473579407
 10
426.3459358215332
 20
30.238182067871094
 10
426.08404582738876
 20
30.464651942253113
 10
425.7754807472229
 20
30.637734413146973
 10
425.424593269825
 20
30.748287796974182
 10
425.0357360839844
 20
30.78717041015625
  0
LINE
  5
1D3
330
17
100
AcDbEntity
  8
SCHEMATICS
 62
7
100
AcDbLine
 10
422.7359619140625
 20
31.26751708984375
 30
0.0
 11
423.9450988769531
 21
31.26751708984375
 31
0.0
  0
LWPOLYLINE
  5
1D4
330
17
100
AcDbEntity
  8
SCHEMATICS
 62
7
100
AcDbPolyline
 90
9
 70
0
 10
423.9450988769531
 20
31.26751708984375
 10
423.9450988769531
 20
31.28258728981018
 10
423.9450988769531
 20
31.325857162475586
 10
423.9450988769531
 20
31.394415616989136
 10
423.9450988769531
 20
31.4853515625
 10
423.9450988769531
 20
31.59575390815735
 10
423.9450988769531
 20
31.72271156311035
 10
423.9450988769531
 20
31.86331343650818
 10
423.9450988769531
 20
32.0146484375
  0
LINE
  5
1D5
330
17
100
AcDbEntity
  8
SCHEMATICS
 62
7
100
AcDbLine
 10
423.9450988769531
 20
32.0146484375
 30
0.0
 11
426.5751037597656
 21
32.0146484375
 31
0.0
  0
LINE
  5
1D6
330
17
100
AcDbEntity
  8
SCHEMATICS
 62
7
100
AcDbLine
 10
426.5751037597656
 20
32.0146484375
 30
0.0
 11
426.5751037597656
 21
33.22576904296875
 31
0.0
  0
LINE
  5
1D7
330
17
100
AcDbEntity
  8
SCHEMATICS
 62
7
100
AcDbLine
 10
426.5751037597656
 20
33.22576904296875
 30
0.0
 11
423.9450988769531
 21
33.22576904296875
 31
0.0
  0
LWPOLYLINE
  5
1D8
330
17
100
AcDbEntity
  8
SCHEMATICS
 62
7
100
AcDbPolyline
 90
9
 70
0
 10
423.9450988769531
 20
33.22576904296875
 10
423.9450988769531
 20
33.310614585876465
 10
423.9450988769531
 20
33.3884391784668
 10
423.9450988769531
 20
33.45853328704834
 10
423.9450988769531
 20
33.52018737792969
 10
423.9450988769531
 20
33.572691917419434
 10
423.9450988769531
 20
33.61533737182617
 10
423.9450988769531
 20
33.647414207458496
 10
423.9450988769531
 20
33.668212890625
  0
LWPOLYLINE
  5
1D9
330
17
100
AcDbEntity
  8
SCHEMATICS
 62
7
100
AcDbPolyline
 90
9
 70
0
 10
423.9450988769531
 20
33.668212890625
 10
423.9550247192383
 20
33.76788020133972
 10
423.98316383361816
 20
33.85725212097168
 10
424.0270586013794
 20
33.93540596961975
 10
424.0842514038086
 20
34.00141906738281
 10
424.1522846221924
 20
34.05436873435974
 10
424.2287006378174
 20
34.093332290649414
 10
424.3110418319702
 20
34.11738705635071
 10
424.3968505859375
 20
34.1256103515625
  0
LWPOLYLINE
  5
1DA
330
17
100
AcDbEntity
  8
SCHEMATICS
 62
7
100
AcDbPolyline
 90
9
 70
0
 10
424.3968505859375
 20
34.1256103515625
 10
424.64240419864655
 20
34.1256103515625
 10
424.96057987213135
 20
34.1256103515625
 10
425.31890285015106
 20
34.1256103515625
 10
425.68489837646484
 20
34.1256103515625
 10
426.02609169483185
 20
34.1256103515625
 10
426.31000804901123
 20
34.1256103515625
 10
426.50417268276215
 20
34.1256103515625
 10
426.57611083984375
 20
34.1256103515625
  0
LINE
  5
1DB
330
17
100
AcDbEntity
  8
SCHEMATICS
 62
7
100
AcDbLine
 10
426.57611083984375
 20
34.1256103515625
 30
0.0
 11
426.57611083984375
 21
35.33673095703125
 31
0.0
  0
LWPOLYLINE
  5
1DC
330
17
100
AcDbEntity
  8
SCHEMATICS
 62
7
100
AcDbPolyline
 90
9
 70
0
 10
426.57611083984375
 20
35.33673095703125
 10
426.4860239624977
 20
35.33673095703125
 10
426.2478623390198
 20
35.33673095703125
 10
425.9097744822502
 20
35.33673095703125
 10
425.5199089050293
 20
35.33673095703125
 10
425.1264141201973
 20
35.33673095703125
 10
424.7774386405945
 20
35.33673095703125
 10
424.5211309790611
 20
35.33673095703125
 10
424.4056396484375
 20
35.33673095703125
  0
LWPOLYLINE
  5
1DD
330
17
100
AcDbEntity
  8
SCHEMATICS
 62
7
100
AcDbPolyline
 90
9
 70
0
 10
424.4056396484375
 20
35.33673095703125
 10
424.04947620630264
 20
35.30006182193756
 10
423.72683000564575
 20
35.19611072540283
 10
423.44200724363327
 20
35.03396213054657
 10
423.19931411743164
 20
34.82270050048828
 10
423.0030568242073
 20
34.57141029834747
 10
422.8575415611267
 20
34.28917598724365
 10
422.7670745253563
 20
33.985082030296326
 10
422.7359619140625
 20
33.668212890625
  0
LINE
  5
1DE
330
17
100
AcDbEntity
  8
SCHEMATICS
 62
7
100
AcDbLine
 10
422.7359619140625
 20
33.668212890625
 30
0.0
 11
422.7359619140625
 21
33.22576904296875
 31
0.0
  0
LINE
  5
1DF
330
17
100
AcDbEntity
  8
SCHEMATICS
 62
7
100
AcDbLine
 10
422.7359619140625
 20
33.22576904296875
 30
0.0
 11
420.91632080078125
 21
33.22576904296875
 31
0.0
  0
LINE
  5
1E0
330
17
100
AcDbEntity
  8
SCHEMATICS
 62
7
100
AcDbLine
 10
420.91632080078125
 20
33.22576904296875
 30
0.0
 11
420.91632080078125
 21
32.0146484375
 31
0.0
  0
LINE
  5
1E1
330
17
100
AcDbEntity
  8
SCHEMATICS
 62
7
100
AcDbLine
 10
420.91632080078125
 20
32.0146484375
 30
0.0
 11
422.7359619140625
 21
32.0146484375
 31
0.0
  0
LINE
  5
1E2
330
17
100
AcDbEntity
  8
SCHEMATICS
 62
7
100
AcDbLine
 10
422.7359619140625
 20
32.0146484375
 30
0.0
 11
422.7359619140625
 21
31.26751708984375
 31
0.0
  0
ENDSEC
  0
SECTION
  2
OBJECTS
  0
DICTIONARY
  5
A
330
0
100
AcDbDictionary
280
0
281
1
  3
ACAD_COLOR
350
B
  3
ACAD_GROUP
350
C
  3
ACAD_LAYOUT
350
D
  3
ACAD_MATERIAL
350
E
  3
ACAD_MLEADERSTYLE
350
F
  3
ACAD_MLINESTYLE
350
10
  3
ACAD_PLOTSETTINGS
350
11
  3
ACAD_PLOTSTYLENAME
350
12
  3
ACAD_SCALELIST
350
14
  3
ACAD_TABLESTYLE
350
15
  3
ACAD_VISUALSTYLE
350
16
  3
EZDXF_META
350
2D
  0
DICTIONARY
  5
B
330
A
100
AcDbDictionary
280
0
281
1
  0
DICTIONARY
  5
C
330
A
100
AcDbDictionary
280
0
281
1
  0
DICTIONARY
  5
D
330
A
100
AcDbDictionary
280
0
281
1
  3
Model
350
1A
  3
Layout1
350
1E
  0
DICTIONARY
  5
E
330
A
100
AcDbDictionary
280
0
281
1
  3
ByBlock
350
1F
  3
ByLayer
350
20
  3
Global
350
21
  0
DICTIONARY
  5
F
330
A
100
AcDbDictionary
280
0
281
1
  3
Standard
350
2C
  0
DICTIONARY
  5
10
330
A
100
AcDbDictionary
280
0
281
1
  3
Standard
350
22
  0
DICTIONARY
  5
11
330
A
100
AcDbDictionary
280
0
281
1
  0
ACDBDICTIONARYWDFLT
  5
12
330
A
100
AcDbDictionary
280
0
281
1
  3
Normal
350
13
100
AcDbDictionaryWithDefault
340
13
  0
ACDBPLACEHOLDER
  5
13
330
12
  0
DICTIONARY
  5
14
330
A
100
AcDbDictionary
280
0
281
1
  0
DICTIONARY
  5
15
330
A
100
AcDbDictionary
280
0
281
1
  0
DICTIONARY
  5
16
330
A
100
AcDbDictionary
280
0
281
1
  0
LAYOUT
  5
1A
330
D
100
AcDbPlotSettings
  1

  2
Adobe PDF
  4
A3
  6

 40
7.5
 41
20.0
 42
7.5
 43
20.0
 44
420.0
 45
297.0
 46
0.0
 47
0.0
 48
0.0
 49
0.0
140
0.0
141
0.0
142
1.0
143
1.0
 70
1024
 72
1
 73
0
 74
5
  7

 75
16
 76
0
 77
2
 78
300
147
1.0
148
0.0
149
0.0
100
AcDbLayout
  1
Model
 70
1
 71
0
 10
0.0
 20
0.0
 11
420.0
 21
297.0
 12
0.0
 22
0.0
 32
0.0
 14
1e+20
 24
1e+20
 34
1e+20
 15
-1e+20
 25
-1e+20
 35
-1e+20
146
0.0
 13
0.0
 23
0.0
 33
0.0
 16
1.0
 26
0.0
 36
0.0
 17
0.0
 27
1.0
 37
0.0
 76
1
330
17
  0
LAYOUT
  5
1E
330
D
100
AcDbPlotSettings
  1

  2
Adobe PDF
  4
A3
  6

 40
7.5
 41
20.0
 42
7.5
 43
20.0
 44
420.0
 45
297.0
 46
0.0
 47
0.0
 48
0.0
 49
0.0
140
0.0
141
0.0
142
1.0
143
1.0
 70
0
 72
1
 73
0
 74
5
  7

 75
16
 76
0
 77
2
 78
300
147
1.0
148
0.0
149
0.0
100
AcDbLayout
  1
Layout1
 70
1
 71
1
 10
0.0
 20
0.0
 11
420.0
 21
297.0
 12
0.0
 22
0.0
 32
0.0
 14
1e+20
 24
1e+20
 34
1e+20
 15
-1e+20
 25
-1e+20
 35
-1e+20
146
0.0
 13
0.0
 23
0.0
 33
0.0
 16
1.0
 26
0.0
 36
0.0
 17
0.0
 27
1.0
 37
0.0
 76
1
330
1B
  0
MATERIAL
  5
1F
102
{ACAD_REACTORS
330
E
102
}
330
E
100
AcDbMaterial
  1
ByBlock
  2

 70
0
 40
1.0
 71
1
 41
1.0
 91
-1023410177
 42
1.0
 72
1
  3

 73
1
 74
1
 75
1
 44
0.5
 73
0
 45
1.0
 46
1.0
 77
1
  4

 78
1
 79
1
170
1
 48
1.0
171
1
  6

172
1
173
1
174
1
140
1.0
141
1.0
175
1
  7

176
1
177
1
178
1
143
1.0
179
1
  8

270
1
271
1
272
1
145
1.0
146
1.0
273
1
  9

274
1
275
1
276
1
 42
1.0
 72
1
  3

 73
1
 74
1
 75
1
 94
63
  0
MATERIAL
  5
20
102
{ACAD_REACTORS
330
E
102
}
330
E
100
AcDbMaterial
  1
ByLayer
  2

 70
0
 40
1.0
 71
1
 41
1.0
 91
-1023410177
 42
1.0
 72
1
  3

 73
1
 74
1
 75
1
 44
0.5
 73
0
 45
1.0
 46
1.0
 77
1
  4

 78
1
 79
1
170
1
 48
1.0
171
1
  6

172
1
173
1
174
1
140
1.0
141
1.0
175
1
  7

176
1
177
1
178
1
143
1.0
179
1
  8

270
1
271
1
272
1
145
1.0
146
1.0
273
1
  9

274
1
275
1
276
1
 42
1.0
 72
1
  3

 73
1
 74
1
 75
1
 94
63
  0
MATERIAL
  5
21
102
{ACAD_REACTORS
330
E
102
}
330
E
100
AcDbMaterial
  1
Global
  2

 70
0
 40
1.0
 71
1
 41
1.0
 91
-1023410177
 42
1.0
 72
1
  3

 73
1
 74
1
 75
1
 44
0.5
 73
0
 45
1.0
 46
1.0
 77
1
  4

 78
1
 79
1
170
1
 48
1.0
171
1
  6

172
1
173
1
174
1
140
1.0
141
1.0
175
1
  7

176
1
177
1
178
1
143
1.0
179
1
  8

270
1
271
1
272
1
145
1.0
146
1.0
273
1
  9

274
1
275
1
276
1
 42
1.0
 72
1
  3

 73
1
 74
1
 75
1
 94
63
  0
MLINESTYLE
  5
22
102
{ACAD_REACTORS
330
10
102
}
330
10
100
AcDbMlineStyle
  2
Standard
 70
0
  3

 62
256
 51
90.0
 52
90.0
 71
2
 49
0.5
 62
256
  6
BYLAYER
 49
-0.5
 62
256
  6
BYLAYER
  0
MLEADERSTYLE
  5
2C
102
{ACAD_REACTORS
330
F
102
}
330
F
100
AcDbMLeaderStyle
179
2
170
2
171
1
172
0
 90
2
 40
0.0
 41
0.0
173
1
 91
-1056964608
 92
-2
290
1
 42
2.0
291
1
 43
8.0
  3
Standard
 44
4.0
300

342
29
174
1
175
1
176
0
178
1
 93
-1056964608
 45
4.0
292
0
297
0
 46
4.0
 94
-1056964608
 47
1.0
 49
1.0
140
1.0
294
1
141
0.0
177
0
142
1.0
295
0
296
0
143
3.75
271
0
272
9
273
9
  0
DICTIONARY
  5
2D
330
A
100
AcDbDictionary
281
1
  3
CREATED_BY_EZDXF
350
2E
  3
WRITTEN_BY_EZDXF
350
1E5
  0
DICTIONARYVAR
  5
2E
330
2D
100
DictionaryVariables
280
0
  1
1.2.0 @ 2026-10-03T10:23:04.107605+00:00
  0
DICTIONARYVAR
  5
1E5
330
2D
100
DictionaryVariables
280
0
  1
1.2.0 @ 2026-10-03T10:23:04.127675+00:00
  0
ENDSEC
  0
EOF
