  0
SECTION
  2
HEADER
  9
$ACADVER
  1
AC1024
  9
$ACADMAINTVER
 70
6
  9
$DWGCODEPAGE
  3
ANSI_1252
  9
$LASTSAVEDBY
  1
ezdxf
  9
$INSBASE
 10
0.0
 20
0.0
 30
0.0
  9
$EXTMIN
 10
1e+20
 20
1e+20
 30
1e+20
  9
$EXTMAX
 10
-1e+20
 20
-1e+20
 30
-1e+20
  9
$LIMMIN
 10
0.0
 20
0.0
  9
$LIMMAX
 10
420.0
 20
297.0
  9
$ORTHOMODE
 70
0
  9
$REGENMODE
 70
1
  9
$FILLMODE
 70
1
  9
$QTEXTMODE
 70
0
  9
$MIRRTEXT
 70
1
  9
$LTSCALE
 40
1.0
  9
$ATTMODE
 70
1
  9
$TEXTSIZE
 40
2.5
  9
$TRACEWID
 40
1.0
  9
$TEXTSTYLE
  7
OpenSans
  9
$CLAYER
  8
0
  9
$CELTYPE
  6
ByLayer
  9
$CECOLOR
 62
256
  9
$CELTSCALE
 40
1.0
  9
$DISPSILH
 70
0
  9
$DIMSCALE
 40
1.0
  9
$DIMASZ
 40
0.175
  9
$DIMEXO
 40
0.125
  9
$DIMDLI
 40
3.75
  9
$DIMRND
 40
0.0
  9
$DIMDLE
 40
0.0
  9
$DIMEXE
 40
0.375
  9
$DIMTP
 40
0.0
  9
$DIMTM
 40
0.0
  9
$DIMTXT
 40
0.25
  9
$DIMCEN
 40
2.5
  9
$DIMTSZ
 40
0.0
  9
$DIMTOL
 70
0
  9
$DIMLIM
 70
0
  9
$DIMTIH
 70
0
  9
$DIMTOH
 70
0
  9
$DIMSE1
 70
0
  9
$DIMSE2
 70
0
  9
$DIMTAD
 70
1
  9
$DIMZIN
 70
12
  9
$DIMBLK
  1
ARCHTICK
  9
$DIMASO
 70
1
  9
$DIMSHO
 70
1
  9
$DIMPOST
  1

  9
$DIMAPOST
  1

  9
$DIMALT
 70
0
  9
$DIMALTD
 70
3
  9
$DIMALTF
 40
0.03937007874
  9
$DIMLFAC
 40
100.0
  9
$DIMTOFL
 70
1
  9
$DIMTVP
 40
0.0
  9
$DIMTIX
 70
0
  9
$DIMSOXD
 70
0
  9
$DIMSAH
 70
0
  9
$DIMBLK1
  1

  9
$DIMBLK2
  1

  9
$DIMSTYLE
  2
EZDXF
  9
$DIMCLRD
 70
0
  9
$DIMCLRE
 70
0
  9
$DIMCLRT
 70
0
  9
$DIMTFAC
 40
0.5
  9
$DIMGAP
 40
0.1
  9
$DIMJUST
 70
0
  9
$DIMSD1
 70
0
  9
$DIMSD2
 70
0
  9
$DIMTOLJ
 70
0
  9
$DIMTZIN
 70
8
  9
$DIMALTZ
 70
0
  9
$DIMALTTZ
 70
0
  9
$DIMUPT
 70
1
  9
$DIMDEC
 70
2
  9
$DIMTDEC
 70
2
  9
$DIMALTU
 70
2
  9
$DIMALTTD
 70
3
  9
$DIMTXSTY
  7
OpenSansCondensed-Light
  9
$DIMAUNIT
 70
0
  9
$DIMADEC
 70
2
  9
$DIMALTRND
 40
0.0
  9
$DIMAZIN
 70
3
  9
$DIMDSEP
 70
46
  9
$DIMATFIT
 70
3
  9
$DIMFRAC
 70
0
  9
$DIMLDRBLK
  1

  9
$DIMLUNIT
 70
2
  9
$DIMLWD
 70
-2
  9
$DIMLWE
 70
-2
  9
$DIMTMOVE
 70
2
  9
$DIMFXL
 40
1.0
  9
$DIMFXLON
 70
0
  9
$DIMJOGANG
 40
0.785398163397
  9
$DIMTFILL
 70
0
  9
$DIMTFILLCLR
 70
0
  9
$DIMARCSYM
 70
0
  9
$DIMLTYPE
  6

  9
$DIMLTEX1
  6

  9
$DIMLTEX2
  6

  9
$DIMTXTDIRECTION
 70
0
  9
$LUNITS
 70
2
  9
$LUPREC
 70
4
  9
$SKETCHINC
 40
1.0
  9
$FILLETRAD
 40
10.0
  9
$AUNITS
 70
0
  9
$AUPREC
 70
2
  9
$MENU
  1
.
  9
$ELEVATION
 40
0.0
  9
$PELEVATION
 40
0.0
  9
$THICKNESS
 40
0.0
  9
$LIMCHECK
 70
0
  9
$CHAMFERA
 40
0.0
  9
$CHAMFERB
 40
0.0
  9
$CHAMFERC
 40
0.0
  9
$CHAMFERD
 40
0.0
  9
$SKPOLY
 70
0
  9
$TDCREATE
 40
2461313.5491203703
  9
$TDUCREATE
 40
2458532.153996898
  9
$TDUPDATE
 40
2461313.5491203703
  9
$TDUUPDATE
 40
2458532.1544311
  9
$TDINDWG
 40
0.0
  9
$TDUSRTIMER
 40
0.0
  9
$USRTIMER
 70
1
  9
$ANGBASE
 50
0.0
  9
$ANGDIR
 70
0
  9
$PDMODE
 70
0
  9
$PDSIZE
 40
0.0
  9
$PLINEWID
 40
0.0
  9
$SPLFRAME
 70
0
  9
$SPLINETYPE
 70
6
  9
$SPLINESEGS
 70
8
  9
$HANDSEED
  5
36F
  9
$SURFTAB1
 70
6
  9
$SURFTAB2
 70
6
  9
$SURFTYPE
 70
6
  9
$SURFU
 70
6
  9
$SURFV
 70
6
  9
$UCSBASE
  2

  9
$UCSNAME
  2

  9
$UCSORG
 10
0.0
 20
0.0
 30
0.0
  9
$UCSXDIR
 10
1.0
 20
0.0
 30
0.0
  9
$UCSYDIR
 10
0.0
 20
1.0
 30
0.0
  9
$UCSORTHOREF
  2

  9
$UCSORTHOVIEW
 70
0
  9
$UCSORGTOP
 10
0.0
 20
0.0
 30
0.0
  9
$UCSORGBOTTOM
 10
0.0
 20
0.0
 30
0.0
  9
$UCSORGLEFT
 10
0.0
 20
0.0
 30
0.0
  9
$UCSORGRIGHT
 10
0.0
 20
0.0
 30
0.0
  9
$UCSORGFRONT
 10
0.0
 20
0.0
 30
0.0
  9
$UCSORGBACK
 10
0.0
 20
0.0
 30
0.0
  9
$PUCSBASE
  2

  9
$PUCSNAME
  2

  9
$PUCSORG
 10
0.0
 20
0.0
 30
0.0
  9
$PUCSXDIR
 10
1.0
 20
0.0
 30
0.0
  9
$PUCSYDIR
 10
0.0
 20
1.0
 30
0.0
  9
$PUCSORTHOREF
  2

  9
$PUCSORTHOVIEW
 70
0
  9
$PUCSORGTOP
 10
0.0
 20
0.0
 30
0.0
  9
$PUCSORGBOTTOM
 10
0.0
 20
0.0
 30
0.0
  9
$PUCSORGLEFT
 10
0.0
 20
0.0
 30
0.0
  9
$PUCSORGRIGHT
 10
0.0
 20
0.0
 30
0.0
  9
$PUCSORGFRONT
 10
0.0
 20
0.0
 30
0.0
  9
$PUCSORGBACK
 10
0.0
 20
0.0
 30
0.0
  9
$USERI1
 70
0
  9
$USERI2
 70
0
  9
$USERI3
 70
0
  9
$USERI4
 70
0
  9
$USERI5
 70
0
  9
$USERR1
 40
0.0
  9
$USERR2
 40
0.0
  9
$USERR3
 40
0.0
  9
$USERR4
 40
0.0
  9
$USERR5
 40
0.0
  9
$WORLDVIEW
 70
1
  9
$SHADEDGE
 70
3
  9
$SHADEDIF
 70
70
  9
$TILEMODE
 70
1
  9
$MAXACTVP
 70
64
  9
$PINSBASE
 10
0.0
 20
0.0
 30
0.0
  9
$PLIMCHECK
 70
0
  9
$PEXTMIN
 10
1e+20
 20
1e+20
 30
1e+20
  9
$PEXTMAX
 10
-1e+20
 20
-1e+20
 30
-1e+20
  9
$PLIMMIN
 10
0.0
 20
0.0
  9
$PLIMMAX
 10
420.0
 20
297.0
  9
$UNITMODE
 70
0
  9
$VISRETAIN
 70
1
  9
$PLINEGEN
 70
0
  9
$PSLTSCALE
 70
1
  9
$TREEDEPTH
 70
3020
  9
$CMLSTYLE
  2
Standard
  9
$CMLJUST
 70
0
  9
$CMLSCALE
 40
20.0
  9
$PROXYGRAPHICS
 70
1
  9
$MEASUREMENT
 70
1
  9
$CELWEIGHT
370
-1
  9
$ENDCAPS
280
0
  9
$JOINSTYLE
280
0
  9
$LWDISPLAY
290
0
  9
$INSUNITS
 70
4
  9
$HYPERLINKBASE
  1

  9
$STYLESHEET
  1

  9
$XEDIT
290
1
  9
$CEPSNTYPE
380
0
  9
$PSTYLEMODE
290
1
  9
$FINGERPRINTGUID
  2
{5462BAB8-DD1F-4FF7-8A7D-ADFD76905555}
  9
$VERSIONGUID
  2
{510A3D72-DE50-4495-A63B-9B98E21D0234}
  9
$EXTNAMES
290
1
  9
$PSVPSCALE
 40
0.0
  9
$OLESTARTUP
290
0
  9
$SORTENTS
280
127
  9
$INDEXCTL
280
0
  9
$HIDETEXT
280
1
  9
$XCLIPFRAME
280
1
  9
$HALOGAP
280
0
  9
$OBSCOLOR
 70
257
  9
$OBSLTYPE
280
0
  9
$INTERSECTIONDISPLAY
280
0
  9
$INTERSECTIONCOLOR
 70
257
  9
$DIMASSOC
280
2
  9
$PROJECTNAME
  1

  9
$CAMERADISPLAY
290
0
  9
$LENSLENGTH
 40
50.0
  9
$CAMERAHEIGHT
 40
0.0
  9
$STEPSPERSEC
 40
24.0
  9
$STEPSIZE
 40
100.0
  9
$3DDWFPREC
 40
2.0
  9
$PSOLWIDTH
 40
0.005
  9
$PSOLHEIGHT
 40
0.08
  9
$LOFTANG1
 40
1.570796326795
  9
$LOFTANG2
 40
1.570796326795
  9
$LOFTMAG1
 40
0.0
  9
$LOFTMAG2
 40
0.0
  9
$LOFTPARAM
 70
7
  9
$LOFTNORMALS
280
1
  9
$LATITUDE
 40
37.795
  9
$LONGITUDE
 40
-122.394
  9
$NORTHDIRECTION
 40
0.0
  9
$TIMEZONE
 70
-8000
  9
$LIGHTGLYPHDISPLAY
280
1
  9
$TILEMODELIGHTSYNCH
280
1
  9
$CMATERIAL
347
20
  9
$SOLIDHIST
280
0
  9
$SHOWHIST
280
1
  9
$DWFFRAME
280
2
  9
$DGNFRAME
280
2
  9
$REALWORLDSCALE
290
1
  9
$INTERFERECOLOR
 62
256
  9
$CSHADOW
280
0
  9
$SHADOWPLANELOCATION
 40
0.0
  0
ENDSEC
  0
SECTION
  2
CLASSES
  0
CLASS
  1
ACDBDICTIONARYWDFLT
  2
AcDbDictionaryWithDefault
  3
ObjectDBX Classes
 90
0
 91
0
280
0
281
0
  0
CLASS
  1
SUN
  2
AcDbSun
  3
SCENEOE
 90
1153
 91
0
280
0
281
0
  0
CLASS
  1
VISUALSTYLE
  2
AcDbVisualStyle
  3
ObjectDBX Classes
 90
4095
 91
0
280
0
281
0
  0
CLASS
  1
MATERIAL
  2
AcDbMaterial
  3
ObjectDBX Classes
 90
1153
 91
0
280
0
281
0
  0
CLASS
  1
SCALE
  2
AcDbScale
  3
ObjectDBX Classes
 90
1153
 91
0
280
0
281
0
  0
CLASS
  1
TABLESTYLE
  2
AcDbTableStyle
  3
ObjectDBX Classes
 90
4095
 91
0
280
0
281
0
  0
CLASS
  1
MLEADERSTYLE
  2
AcDbMLeaderStyle
  3
ACDB_MLEADERSTYLE_CLASS
 90
4095
 91
0
280
0
281
0
  0
CLASS
  1
DICTIONARYVAR
  2
AcDbDictionaryVar
  3
ObjectDBX Classes
 90
0
 91
0
280
0
281
0
  0
CLASS
  1
CELLSTYLEMAP
  2
AcDbCellStyleMap
  3
ObjectDBX Classes
 90
1152
 91
0
280
0
281
0
  0
CLASS
  1
MENTALRAYRENDERSETTINGS
  2
AcDbMentalRayRenderSettings
  3
SCENEOE
 90
1024
 91
0
280
0
281
0
  0
CLASS
  1
ACDBDETAILVIEWSTYLE
  2
AcDbDetailViewStyle
  3
ObjectDBX Classes
 90
1025
 91
0
280
0
281
0
  0
CLASS
  1
ACDBSECTIONVIEWSTYLE
  2
AcDbSectionViewStyle
  3
ObjectDBX Classes
 90
1025
 91
0
280
0
281
0
  0
CLASS
  1
RASTERVARIABLES
  2
AcDbRasterVariables
  3
ISM
 90
0
 91
0
280
0
281
0
  0
CLASS
  1
ACDBPLACEHOLDER
  2
AcDbPlaceHolder
  3
ObjectDBX Classes
 90
0
 91
0
280
0
281
0
  0
CLASS
  1
LAYOUT
  2
AcDbLayout
  3
ObjectDBX Classes
 90
0
 91
0
280
0
281
0
  0
ENDSEC
  0
SECTION
  2
TABLES
  0
TABLE
  2
VPORT
  5
8
330
0
100
AcDbSymbolTable
 70
1
  0
VPORT
  5
23
330
8
100
AcDbSymbolTableRecord
100
AcDbViewportTableRecord
  2
*Active
 70
0
 10
0.0
 20
0.0
 11
1.0
 21
1.0
 12
0.0
 22
0.0
 13
0.0
 23
0.0
 14
0.5
 24
0.5
 15
0.5
 25
0.5
 16
0.0
 26
0.0
 36
1.0
 17
0.0
 27
0.0
 37
0.0
 40
1000.0
 41
1.34
 42
50.0
 43
0.0
 44
0.0
 50
0.0
 51
0.0
 71
0
 72
1000
 73
1
 74
3
 75
0
 76
0
 77
0
 78
0
281
0
 65
0
146
0.0
  0
ENDTAB
  0
TABLE
  2
LTYPE
  5
2
330
0
100
AcDbSymbolTable
 70
21
  0
LTYPE
  5
24
330
2
100
AcDbSymbolTableRecord
100
AcDbLinetypeTableRecord
  2
ByBlock
 70
0
  3

 72
65
 73
0
 40
0.0
  0
LTYPE
  5
25
330
2
100
AcDbSymbolTableRecord
100
AcDbLinetypeTableRecord
  2
ByLayer
 70
0
  3

 72
65
 73
0
 40
0.0
  0
LTYPE
  5
26
330
2
100
AcDbSymbolTableRecord
100
AcDbLinetypeTableRecord
  2
Continuous
 70
0
  3

 72
65
 73
0
 40
0.0
  0
LTYPE
  5
2F
330
2
100
AcDbSymbolTableRecord
100
AcDbLinetypeTableRecord
  2
CENTER
 70
0
  3
Center ____ _ ____ _ ____ _ ____ _ ____ _ ____
 72
65
 73
4
 40
5.08
 49
3.175
 74
0
 49
-0.635
 74
0
 49
0.635
 74
0
 49
-0.635
 74
0
  0
LTYPE
  5
30
330
2
100
AcDbSymbolTableRecord
100
AcDbLinetypeTableRecord
  2
CENTERX2
 70
0
  3
Center (2x) ________  __  ________  __  ________
 72
65
 73
4
 40
8.89
 49
6.35
 74
0
 49
-0.635
 74
0
 49
1.27
 74
0
 49
-0.635
 74
0
  0
LTYPE
  5
31
330
2
100
AcDbSymbolTableRecord
100
AcDbLinetypeTableRecord
  2
CENTER2
 70
0
  3
Center (.5x) ____ _ ____ _ ____ _ ____ _ ____
 72
65
 73
4
 40
2.54
 49
1.587
 74
0
 49
-0.318
 74
0
 49
0.318
 74
0
 49
-0.318
 74
0
  0
LTYPE
  5
32
330
2
100
AcDbSymbolTableRecord
100
AcDbLinetypeTableRecord
  2
DASHED
 70
0
  3
Dashed __ __ __ __ __ __ __ __ __ __ __ __ __ _
 72
65
 73
2
 40
1.524
 49
1.27
 74
0
 49
-0.254
 74
0
  0
LTYPE
  5
33
330
2
100
AcDbSymbolTableRecord
100
AcDbLinetypeTableRecord
  2
DASHEDX2
 70
0
  3
Dashed (2x) ____  ____  ____  ____  ____  ____
 72
65
 73
2
 40
3.048
 49
2.54
 74
0
 49
-0.508
 74
0
  0
LTYPE
  5
34
330
2
100
AcDbSymbolTableRecord
100
AcDbLinetypeTableRecord
  2
DASHED2
 70
0
  3
Dashed (.5x) _ _ _ _ _ _ _ _ _ _ _ _ _ _
 72
65
 73
2
 40
0.762
 49
0.635
 74
0
 49
-0.127
 74
0
  0
LTYPE
  5
35
330
2
100
AcDbSymbolTableRecord
100
AcDbLinetypeTableRecord
  2
PHANTOM
 70
0
  3
Phantom ______  __  __  ______  __  __  ______
 72
65
 73
6
 40
6.35
 49
3.175
 74
0
 49
-0.635
 74
0
 49
0.635
 74
0
 49
-0.635
 74
0
 49
0.635
 74
0
 49
-0.635
 74
0
  0
LTYPE
  5
36
330
2
100
AcDbSymbolTableRecord
100
AcDbLinetypeTableRecord
  2
PHANTOMX2
 70
0
  3
Phantom (2x)____________    ____    ____    ____________
 72
65
 73
6
 40
10.795
 49
6.35
 74
0
 49
-0.635
 74
0
 49
1.27
 74
0
 49
-0.635
 74
0
 49
1.27
 74
0
 49
-0.635
 74
0
  0
LTYPE
  5
37
330
2
100
AcDbSymbolTableRecord
100
AcDbLinetypeTableRecord
  2
PHANTOM2
 70
0
  3
Phantom (.5x) ___ _ _ ___ _ _ ___ _ _ ___ _ _ ___
 72
65
 73
6
 40
3.175
 49
1.587
 74
0
 49
-0.318
 74
0
 49
0.318
 74
0
 49
-0.318
 74
0
 49
0.318
 74
0
 49
-0.318
 74
0
  0
LTYPE
  5
38
330
2
100
AcDbSymbolTableRecord
100
AcDbLinetypeTableRecord
  2
DASHDOT
 70
0
  3
Dash dot __ . __ . __ . __ . __ . __ . __ . __
 72
65
 73
4
 40
3.556
 49
2.54
 74
0
 49
-0.508
 74
0
 49
0.0
 74
0
 49
-0.508
 74
0
  0
LTYPE
  5
39
330
2
100
AcDbSymbolTableRecord
100
AcDbLinetypeTableRecord
  2
DASHDOTX2
 70
0
  3
Dash dot (2x) ____  .  ____  .  ____  .  ____
 72
65
 73
4
 40
6.096
 49
5.08
 74
0
 49
-0.508
 74
0
 49
0.0
 74
0
 49
-0.508
 74
0
  0
LTYPE
  5
3A
330
2
100
AcDbSymbolTableRecord
100
AcDbLinetypeTableRecord
  2
DASHDOT2
 70
0
  3
Dash dot (.5x) _ . _ . _ . _ . _ . _ . _ . _
 72
65
 73
4
 40
1.778
 49
1.27
 74
0
 49
-0.254
 74
0
 49
0.0
 74
0
 49
-0.254
 74
0
  0
LTYPE
  5
3B
330
2
100
AcDbSymbolTableRecord
100
AcDbLinetypeTableRecord
  2
DOT
 70
0
  3
Dot .  .  .  .  .  .  .  .  .  .  .  .  .  .  .  .
 72
65
 73
2
 40
0.508
 49
0.0
 74
0
 49
-0.508
 74
0
  0
LTYPE
  5
3C
330
2
100
AcDbSymbolTableRecord
100
AcDbLinetypeTableRecord
  2
DOTX2
 70
0
  3
Dot (2x) .    .    .    .    .    .    .    . 
 72
65
 73
2
 40
1.016
 49
0.0
 74
0
 49
-1.016
 74
0
  0
LTYPE
  5
3D
330
2
100
AcDbSymbolTableRecord
100
AcDbLinetypeTableRecord
  2
DOT2
 70
0
  3
Dot (.5) . . . . . . . . . . . . . . . . . . . 
 72
65
 73
2
 40
0.254
 49
0.0
 74
0
 49
-0.254
 74
0
  0
LTYPE
  5
3E
330
2
100
AcDbSymbolTableRecord
100
AcDbLinetypeTableRecord
  2
DIVIDE
 70
0
  3
Divide __ . . __ . . __ . . __ . . __ . . __
 72
65
 73
6
 40
4.064
 49
2.54
 74
0
 49
-0.508
 74
0
 49
0.0
 74
0
 49
-0.508
 74
0
 49
0.0
 74
0
 49
-0.508
 74
0
  0
LTYPE
  5
3F
330
2
100
AcDbSymbolTableRecord
100
AcDbLinetypeTableRecord
  2
DIVIDEX2
 70
0
  3
Divide (2x) ____  . .  ____  . .  ____  . .  ____
 72
65
 73
6
 40
6.604
 49
5.08
 74
0
 49
-0.508
 74
0
 49
0.0
 74
0
 49
-0.508
 74
0
 49
0.0
 74
0
 49
-0.508
 74
0
  0
LTYPE
  5
40
330
2
100
AcDbSymbolTableRecord
100
AcDbLinetypeTableRecord
  2
DIVIDE2
 70
0
  3
Divide(.5x) _ . _ . _ . _ . _ . _ . _ . _
 72
65
 73
6
 40
2.032
 49
1.27
 74
0
 49
-0.254
 74
0
 49
0.0
 74
0
 49
-0.254
 74
0
 49
0.0
 74
0
 49
-0.254
 74
0
  0
ENDTAB
  0
TABLE
  2
LAYER
  5
1
330
0
100
AcDbSymbolTable
 70
17
  0
LAYER
  5
27
330
1
100
AcDbSymbolTableRecord
100
AcDbLayerTableRecord
  2
0
 70
0
 62
7
  6
Continuous
370
-3
390
13
347
21
  0
LAYER
  5
28
330
1
100
AcDbSymbolTableRecord
100
AcDbLayerTableRecord
  2
Defpoints
 70
0
 62
7
  6
Continuous
290
0
370
-3
390
13
347
21
  0
LAYER
  5
8A
330
1
100
AcDbSymbolTableRecord
100
AcDbLayerTableRecord
  2
0_BORDER
 70
0
 62
7
  6
Continuous
370
-3
390
13
347
21
  0
LAYER
  5
8B
330
1
100
AcDbSymbolTableRecord
100
AcDbLayerTableRecord
  2
0_TITLE_BLOCK
 70
0
 62
4
  6
Continuous
370
-3
390
13
347
21
  0
LAYER
  5
8C
330
1
100
AcDbSymbolTableRecord
100
AcDbLayerTableRecord
  2
CHASSIS_FRAME
 70
0
 62
7
  6
Continuous
370
-3
390
13
347
21
  0
LAYER
  5
8D
330
1
100
AcDbSymbolTableRecord
100
AcDbLayerTableRecord
  2
SLOT_BOX
 70
0
 62
8
  6
Continuous
370
-3
390
13
347
21
  0
LAYER
  5
8E
330
1
100
AcDbSymbolTableRecord
100
AcDbLayerTableRecord
  2
DEST_FRAME
 70
0
 62
3
  6
Continuous
370
-3
390
13
347
21
  0
LAYER
  5
8F
330
1
100
AcDbSymbolTableRecord
100
AcDbLayerTableRecord
  2
ROUTING_DI
 70
0
 62
4
  6
Continuous
370
-3
390
13
347
21
  0
LAYER
  5
90
330
1
100
AcDbSymbolTableRecord
100
AcDbLayerTableRecord
  2
ROUTING_DO
 70
0
 62
2
  6
Continuous
370
-3
390
13
347
21
  0
LAYER
  5
91
330
1
100
AcDbSymbolTableRecord
100
AcDbLayerTableRecord
  2
ROUTING_AI
 70
0
 62
1
  6
Continuous
370
-3
390
13
347
21
  0
LAYER
  5
92
330
1
100
AcDbSymbolTableRecord
100
AcDbLayerTableRecord
  2
ROUTING_AO
 70
0
 62
6
  6
Continuous
370
-3
390
13
347
21
  0
LAYER
  5
93
330
1
100
AcDbSymbolTableRecord
100
AcDbLayerTableRecord
  2
ROUTING_BUS
 70
0
 62
5
  6
Continuous
370
-3
390
13
347
21
  0
LAYER
  5
94
330
1
100
AcDbSymbolTableRecord
100
AcDbLayerTableRecord
  2
ROUTING_ETH
 70
0
 62
8
  6
Continuous
370
-3
390
13
347
21
  0
LAYER
  5
95
330
1
100
AcDbSymbolTableRecord
100
AcDbLayerTableRecord
  2
TEXT_MAIN
 70
0
 62
7
  6
Continuous
370
-3
390
13
347
21
  0
LAYER
  5
96
330
1
100
AcDbSymbolTableRecord
100
AcDbLayerTableRecord
  2
TEXT_SUB
 70
0
 62
4
  6
Continuous
370
-3
390
13
347
21
  0
LAYER
  5
97
330
1
100
AcDbSymbolTableRecord
100
AcDbLayerTableRecord
  2
TEXT_ANNOT
 70
0
 62
8
  6
Continuous
370
-3
390
13
347
21
  0
LAYER
  5
98
330
1
100
AcDbSymbolTableRecord
100
AcDbLayerTableRecord
  2
TITLE_TEXT
 70
0
 62
2
  6
Continuous
370
-3
390
13
347
21
  0
ENDTAB
  0
TABLE
  2
STYLE
  5
5
330
0
100
AcDbSymbolTable
 70
26
  0
STYLE
  5
29
330
5
100
AcDbSymbolTableRecord
100
AcDbTextStyleTableRecord
  2
Standard
 70
0
 40
0.0
 41
1.0
 50
0.0
 71
0
 42
2.5
  3
txt
  4

  0
STYLE
  5
41
330
5
100
AcDbSymbolTableRecord
100
AcDbTextStyleTableRecord
  2
OpenSans-Light
 70
0
 40
0.0
 41
1.0
 50
0.0
 71
0
 42
2.5
  3
OpenSans-Light.ttf
  4

  0
STYLE
  5
42
330
5
100
AcDbSymbolTableRecord
100
AcDbTextStyleTableRecord
  2
OpenSans-Light-Italic
 70
0
 40
0.0
 41
1.0
 50
0.0
 71
0
 42
2.5
  3
OpenSans-LightItalic.ttf
  4

  0
STYLE
  5
43
330
5
100
AcDbSymbolTableRecord
100
AcDbTextStyleTableRecord
  2
OpenSans
 70
0
 40
0.0
 41
1.0
 50
0.0
 71
0
 42
2.5
  3
OpenSans-Regular.ttf
  4

  0
STYLE
  5
44
330
5
100
AcDbSymbolTableRecord
100
AcDbTextStyleTableRecord
  2
OpenSans-Italic
 70
0
 40
0.0
 41
1.0
 50
0.0
 71
0
 42
2.5
  3
OpenSans-Italic.ttf
  4

  0
STYLE
  5
45
330
5
100
AcDbSymbolTableRecord
100
AcDbTextStyleTableRecord
  2
OpenSans-SemiBold
 70
0
 40
0.0
 41
1.0
 50
0.0
 71
0
 42
2.5
  3
OpenSans-SemiBold.ttf
  4

  0
STYLE
  5
46
330
5
100
AcDbSymbolTableRecord
100
AcDbTextStyleTableRecord
  2
OpenSans-SemiBoldItalic
 70
0
 40
0.0
 41
1.0
 50
0.0
 71
0
 42
2.5
  3
OpenSans-SemiBoldItalic.ttf
  4

  0
STYLE
  5
47
330
5
100
AcDbSymbolTableRecord
100
AcDbTextStyleTableRecord
  2
OpenSans-Bold
 70
0
 40
0.0
 41
1.0
 50
0.0
 71
0
 42
2.5
  3
OpenSans-Bold.ttf
  4

  0
STYLE
  5
48
330
5
100
AcDbSymbolTableRecord
100
AcDbTextStyleTableRecord
  2
OpenSans-BoldItalic
 70
0
 40
0.0
 41
1.0
 50
0.0
 71
0
 42
2.5
  3
OpenSans-BoldItalic.ttf
  4

  0
STYLE
  5
49
330
5
100
AcDbSymbolTableRecord
100
AcDbTextStyleTableRecord
  2
OpenSans-ExtraBold
 70
0
 40
0.0
 41
1.0
 50
0.0
 71
0
 42
2.5
  3
OpenSans-ExtraBold.ttf
  4

  0
STYLE
  5
4A
330
5
100
AcDbSymbolTableRecord
100
AcDbTextStyleTableRecord
  2
OpenSans-ExtraBoldItalic
 70
0
 40
0.0
 41
1.0
 50
0.0
 71
0
 42
2.5
  3
OpenSans-ExtraBoldItalic.ttf
  4

  0
STYLE
  5
4B
330
5
100
AcDbSymbolTableRecord
100
AcDbTextStyleTableRecord
  2
OpenSansCondensed-Bold
 70
0
 40
0.0
 41
1.0
 50
0.0
 71
0
 42
2.5
  3
OpenSansCondensed-Bold.ttf
  4

  0
STYLE
  5
4C
330
5
100
AcDbSymbolTableRecord
100
AcDbTextStyleTableRecord
  2
OpenSansCondensed-Light
 70
0
 40
0.0
 41
1.0
 50
0.0
 71
0
 42
2.5
  3
OpenSansCondensed-Light.ttf
  4

  0
STYLE
  5
4D
330
5
100
AcDbSymbolTableRecord
100
AcDbTextStyleTableRecord
  2
OpenSansCondensed-Italic
 70
0
 40
0.0
 41
1.0
 50
0.0
 71
0
 42
2.5
  3
OpenSansCondensed-LightItalic.ttf
  4

  0
STYLE
  5
4E
330
5
100
AcDbSymbolTableRecord
100
AcDbTextStyleTableRecord
  2
LiberationSans
 70
0
 40
0.0
 41
1.0
 50
0.0
 71
0
 42
2.5
  3
LiberationSans-Regular.ttf
  4

  0
STYLE
  5
4F
330
5
100
AcDbSymbolTableRecord
100
AcDbTextStyleTableRecord
  2
LiberationSans-Bold
 70
0
 40
0.0
 41
1.0
 50
0.0
 71
0
 42
2.5
  3
LiberationSans-Bold.ttf
  4

  0
STYLE
  5
50
330
5
100
AcDbSymbolTableRecord
100
AcDbTextStyleTableRecord
  2
LiberationSans-BoldItalic
 70
0
 40
0.0
 41
1.0
 50
0.0
 71
0
 42
2.5
  3
LiberationSans-BoldItalic.ttf
  4

  0
STYLE
  5
51
330
5
100
AcDbSymbolTableRecord
100
AcDbTextStyleTableRecord
  2
LiberationSans-Italic
 70
0
 40
0.0
 41
1.0
 50
0.0
 71
0
 42
2.5
  3
LiberationSans-Italic.ttf
  4

  0
STYLE
  5
52
330
5
100
AcDbSymbolTableRecord
100
AcDbTextStyleTableRecord
  2
LiberationSerif
 70
0
 40
0.0
 41
1.0
 50
0.0
 71
0
 42
2.5
  3
LiberationSerif-Regular.ttf
  4

  0
STYLE
  5
53
330
5
100
AcDbSymbolTableRecord
100
AcDbTextStyleTableRecord
  2
LiberationSerif-Bold
 70
0
 40
0.0
 41
1.0
 50
0.0
 71
0
 42
2.5
  3
LiberationSerif-Bold.ttf
  4

  0
STYLE
  5
54
330
5
100
AcDbSymbolTableRecord
100
AcDbTextStyleTableRecord
  2
LiberationSerif-BoldItalic
 70
0
 40
0.0
 41
1.0
 50
0.0
 71
0
 42
2.5
  3
LiberationSerif-BoldItalic.ttf
  4

  0
STYLE
  5
55
330
5
100
AcDbSymbolTableRecord
100
AcDbTextStyleTableRecord
  2
LiberationSerif-Italic
 70
0
 40
0.0
 41
1.0
 50
0.0
 71
0
 42
2.5
  3
LiberationSerif-Italic.ttf
  4

  0
STYLE
  5
56
330
5
100
AcDbSymbolTableRecord
100
AcDbTextStyleTableRecord
  2
LiberationMono
 70
0
 40
0.0
 41
1.0
 50
0.0
 71
0
 42
2.5
  3
LiberationMono-Regular.ttf
  4

  0
STYLE
  5
57
330
5
100
AcDbSymbolTableRecord
100
AcDbTextStyleTableRecord
  2
LiberationMono-Bold
 70
0
 40
0.0
 41
1.0
 50
0.0
 71
0
 42
2.5
  3
LiberationMono-Bold.ttf
  4

  0
STYLE
  5
58
330
5
100
AcDbSymbolTableRecord
100
AcDbTextStyleTableRecord
  2
LiberationMono-BoldItalic
 70
0
 40
0.0
 41
1.0
 50
0.0
 71
0
 42
2.5
  3
LiberationMono-BoldItalic.ttf
  4

  0
STYLE
  5
59
330
5
100
AcDbSymbolTableRecord
100
AcDbTextStyleTableRecord
  2
LiberationMono-Italic
 70
0
 40
0.0
 41
1.0
 50
0.0
 71
0
 42
2.5
  3
LiberationMono-Italic.ttf
  4

  0
ENDTAB
  0
TABLE
  2
VIEW
  5
7
330
0
100
AcDbSymbolTable
 70
0
  0
ENDTAB
  0
TABLE
  2
UCS
  5
6
330
0
100
AcDbSymbolTable
 70
0
  0
ENDTAB
  0
TABLE
  2
APPID
  5
3
330
0
100
AcDbSymbolTable
 70
3
  0
APPID
  5
2A
330
3
100
AcDbSymbolTableRecord
100
AcDbRegAppTableRecord
  2
ACAD
 70
0
  0
APPID
  5
36C
330
3
100
AcDbSymbolTableRecord
100
AcDbRegAppTableRecord
  2
HATCHBACKGROUNDCOLOR
 70
0
  0
APPID
  5
36D
330
3
100
AcDbSymbolTableRecord
100
AcDbRegAppTableRecord
  2
EZDXF
 70
0
  0
ENDTAB
  0
TABLE
  2
DIMSTYLE
  5
4
330
0
100
AcDbSymbolTable
 70
12
100
AcDbDimStyleTable
  0
DIMSTYLE
105
2B
330
4
100
AcDbSymbolTableRecord
100
AcDbDimStyleTableRecord
  2
Standard
 70
0
 40
1.0
 41
2.5
 42
0.625
 43
3.75
 44
1.25
 45
0.0
 46
0.0
 47
0.0
 48
0.0
 49
2.5
140
2.5
141
2.5
142
0.0
143
0.03937007874
144
1.0
145
0.0
146
1.0
147
0.625
148
0.0
 69
0
 70
0
 71
0
 72
0
 73
0
 74
0
 75
0
 76
0
 77
1
 78
8
 79
3
170
0
171
3
172
1
173
0
174
0
175
0
176
0
177
0
178
0
179
2
271
2
272
2
273
2
274
3
275
0
276
0
277
2
278
44
279
0
280
0
281
0
282
0
283
0
284
8
285
0
286
0
288
0
289
3
290
0
371
-2
372
-2
  0
DIMSTYLE
105
73
330
4
100
AcDbSymbolTableRecord
100
AcDbDimStyleTableRecord
  2
EZDXF
 70
0
 40
1.0
 41
0.175
 42
0.125
 43
3.75
 44
0.375
 45
0.0
 46
0.0
 47
0.0
 48
0.0
 49
2.5
140
0.25
141
2.5
142
0.0
143
0.03937007874
144
100.0
145
0.0
146
0.5
147
0.1
148
0.0
 69
0
 70
0
 71
0
 72
0
 73
0
 74
0
 75
0
 76
0
 77
1
 78
12
 79
3
170
0
171
3
172
1
173
0
174
0
175
0
176
0
177
0
178
0
179
2
271
2
272
2
273
2
274
3
275
0
276
0
277
2
278
46
279
2
280
0
281
0
282
0
283
0
284
8
285
0
286
0
288
1
289
3
290
0
340
4C
342
74
371
-2
372
-2
  0
DIMSTYLE
105
7C
330
4
100
AcDbSymbolTableRecord
100
AcDbDimStyleTableRecord
  2
EZ_M_100_H25_CM
 70
0
 40
1.0
 41
0.25
 42
0.125
 43
3.75
 44
0.375
 45
0.0
 46
0.0
 47
0.0
 48
0.0
 49
2.5
140
0.25
141
2.5
142
0.125
143
0.03937007874
144
100.0
145
0.0
146
0.5
147
0.1
148
0.0
 69
0
 70
0
 71
0
 72
0
 73
0
 74
0
 75
0
 76
0
 77
1
 78
12
 79
3
170
0
171
3
172
1
173
0
174
0
175
0
176
0
177
0
178
0
179
2
271
2
272
2
273
2
274
3
275
0
276
0
277
2
278
46
279
2
280
0
281
0
282
0
283
0
284
8
285
0
286
0
288
1
289
3
290
0
340
4C
371
-2
372
-2
  0
DIMSTYLE
105
7D
330
4
100
AcDbSymbolTableRecord
100
AcDbDimStyleTableRecord
  2
EZ_M_50_H25_CM
 70
0
 40
1.0
 41
0.125
 42
0.0625
 43
3.75
 44
0.1875
 45
0.0
 46
0.0
 47
0.0
 48
0.0
 49
2.5
140
0.125
141
2.5
142
0.0625
143
0.03937007874
144
100.0
145
0.0
146
0.5
147
0.05
148
0.0
 69
0
 70
0
 71
0
 72
0
 73
0
 74
0
 75
0
 76
0
 77
1
 78
12
 79
3
170
0
171
3
172
1
173
0
174
0
175
0
176
0
177
0
178
0
179
2
271
2
272
2
273
2
274
3
275
0
276
0
277
2
278
46
279
2
280
0
281
0
282
0
283
0
284
8
285
0
286
0
288
1
289
3
290
0
340
4C
371
-2
372
-2
  0
DIMSTYLE
105
7E
330
4
100
AcDbSymbolTableRecord
100
AcDbDimStyleTableRecord
  2
EZ_M_25_H25_CM
 70
0
 40
1.0
 41
0.0625
 42
0.03125
 43
3.75
 44
0.09375
 45
0.0
 46
0.0
 47
0.0
 48
0.0
 49
2.5
140
0.0625
141
2.5
142
0.03125
143
0.03937007874
144
100.0
145
0.0
146
0.5
147
0.025
148
0.0
 69
0
 70
0
 71
0
 72
0
 73
0
 74
0
 75
0
 76
0
 77
1
 78
12
 79
3
170
0
171
3
172
1
173
0
174
0
175
0
176
0
177
0
178
0
179
2
271
2
272
2
273
2
274
3
275
0
276
0
277
2
278
46
279
2
280
0
281
0
282
0
283
0
284
8
285
0
286
0
288
1
289
3
290
0
340
4C
371
-2
372
-2
  0
DIMSTYLE
105
7F
330
4
100
AcDbSymbolTableRecord
100
AcDbDimStyleTableRecord
  2
EZ_M_20_H25_CM
 70
0
 40
1.0
 41
0.05
 42
0.025
 43
3.75
 44
0.07500000000000001
 45
0.0
 46
0.0
 47
0.0
 48
0.0
 49
2.5
140
0.05
141
2.5
142
0.025
143
0.03937007874
144
100.0
145
0.0
146
0.5
147
0.020000000000000004
148
0.0
 69
0
 70
0
 71
0
 72
0
 73
0
 74
0
 75
0
 76
0
 77
1
 78
12
 79
3
170
0
171
3
172
1
173
0
174
0
175
0
176
0
177
0
178
0
179
2
271
2
272
2
273
2
274
3
275
0
276
0
277
2
278
46
279
2
280
0
281
0
282
0
283
0
284
8
285
0
286
0
288
1
289
3
290
0
340
4C
371
-2
372
-2
  0
DIMSTYLE
105
80
330
4
100
AcDbSymbolTableRecord
100
AcDbDimStyleTableRecord
  2
EZ_M_10_H25_CM
 70
0
 40
1.0
 41
0.025
 42
0.0125
 43
3.75
 44
0.037500000000000006
 45
0.0
 46
0.0
 47
0.0
 48
0.0
 49
2.5
140
0.025
141
2.5
142
0.0125
143
0.03937007874
144
100.0
145
0.0
146
0.5
147
0.010000000000000002
148
0.0
 69
0
 70
0
 71
0
 72
0
 73
0
 74
0
 75
0
 76
0
 77
1
 78
12
 79
3
170
0
171
3
172
1
173
0
174
0
175
0
176
0
177
0
178
0
179
2
271
2
272
2
273
2
274
3
275
0
276
0
277
2
278
46
279
2
280
0
281
0
282
0
283
0
284
8
285
0
286
0
288
1
289
3
290
0
340
4C
371
-2
372
-2
  0
DIMSTYLE
105
81
330
4
100
AcDbSymbolTableRecord
100
AcDbDimStyleTableRecord
  2
EZ_M_5_H25_CM
 70
0
 40
1.0
 41
0.0125
 42
0.00625
 43
3.75
 44
0.018750000000000003
 45
0.0
 46
0.0
 47
0.0
 48
0.0
 49
2.5
140
0.0125
141
2.5
142
0.00625
143
0.03937007874
144
100.0
145
0.0
146
0.5
147
0.005000000000000001
148
0.0
 69
0
 70
0
 71
0
 72
0
 73
0
 74
0
 75
0
 76
0
 77
1
 78
12
 79
3
170
0
171
3
172
1
173
0
174
0
175
0
176
0
177
0
178
0
179
2
271
2
272
2
273
2
274
3
275
0
276
0
277
2
278
46
279
2
280
0
281
0
282
0
283
0
284
8
285
0
286
0
288
1
289
3
290
0
340
4C
371
-2
372
-2
  0
DIMSTYLE
105
82
330
4
100
AcDbSymbolTableRecord
100
AcDbDimStyleTableRecord
  2
EZ_M_1_H25_CM
 70
0
 40
1.0
 41
0.0025
 42
0.00125
 43
3.75
 44
0.00375
 45
0.0
 46
0.0
 47
0.0
 48
0.0
 49
2.5
140
0.0025
141
2.5
142
0.00125
143
0.03937007874
144
100.0
145
0.0
146
0.5
147
0.001
148
0.0
 69
0
 70
0
 71
0
 72
0
 73
0
 74
0
 75
0
 76
0
 77
1
 78
12
 79
3
170
0
171
3
172
1
173
0
174
0
175
0
176
0
177
0
178
0
179
2
271
2
272
2
273
2
274
3
275
0
276
0
277
2
278
46
279
2
280
0
281
0
282
0
283
0
284
8
285
0
286
0
288
1
289
3
290
0
340
4C
371
-2
372
-2
  0
DIMSTYLE
105
83
330
4
100
AcDbSymbolTableRecord
100
AcDbDimStyleTableRecord
  2
EZ_RADIUS
 70
0
 40
1.0
 41
0.25
 42
0.125
 43
3.75
 44
0.375
 45
0.0
 46
0.0
 47
0.0
 48
0.0
 49
2.5
140
0.25
141
0.0
142
0.0
143
0.03937007874
144
100.0
145
0.0
146
0.5
147
0.1
148
0.0
 69
0
 70
0
 71
0
 72
0
 73
0
 74
0
 75
0
 76
0
 77
1
 78
12
 79
3
170
0
171
3
172
0
173
0
174
0
175
0
176
0
177
0
178
0
179
2
271
2
272
2
273
2
274
3
275
0
276
0
277
2
278
46
279
1
280
0
281
0
282
0
283
0
284
8
285
0
286
0
288
1
289
3
290
0
340
4C
342
84
371
-2
372
-2
  0
DIMSTYLE
105
88
330
4
100
AcDbSymbolTableRecord
100
AcDbDimStyleTableRecord
  2
EZ_RADIUS_INSIDE
 70
0
 40
1.0
 41
0.25
 42
0.125
 43
3.75
 44
0.375
 45
0.0
 46
0.0
 47
0.0
 48
0.0
 49
2.5
140
0.25
141
0.0
142
0.0
143
0.03937007874
144
100.0
145
0.0
146
0.5
147
0.1
148
0.0
 69
0
 70
0
 71
0
 72
0
 73
0
 74
0
 75
0
 76
0
 77
0
 78
12
 79
3
170
0
171
3
172
0
173
0
174
1
175
0
176
0
177
0
178
0
179
2
271
2
272
2
273
2
274
3
275
0
276
0
277
2
278
46
279
0
280
0
281
0
282
0
283
0
284
8
285
0
286
0
288
1
289
0
290
0
340
4C
342
84
371
-2
372
-2
  0
DIMSTYLE
105
89
330
4
100
AcDbSymbolTableRecord
100
AcDbDimStyleTableRecord
  2
EZ_CURVED
 70
0
 40
1.0
 41
0.25
 42
0.125
 43
3.75
 44
0.375
 45
0.0
 46
0.0
 47
0.0
 48
0.0
 49
2.5
140
0.25
141
2.5
142
0.0
143
0.03937007874
144
100.0
145
0.0
146
0.5
147
0.1
148
0.0
 69
0
 70
0
 71
0
 72
0
 73
0
 74
0
 75
0
 76
0
 77
1
 78
12
 79
2
 90
2
170
0
171
3
172
1
173
0
174
0
175
0
176
0
177
0
178
0
179
2
271
2
272
2
273
2
274
3
275
0
276
0
277
2
278
46
279
2
280
0
281
0
282
0
283
0
284
8
285
0
286
0
288
1
289
3
290
0
340
4C
371
-2
372
-2
  0
ENDTAB
  0
TABLE
  2
BLOCK_RECORD
  5
9
330
0
100
AcDbSymbolTable
 70
5
  0
BLOCK_RECORD
  5
17
330
9
100
AcDbSymbolTableRecord
100
AcDbBlockTableRecord
  2
*Model_Space
340
1A
 70
0
280
1
281
0
  0
BLOCK_RECORD
  5
1B
330
9
100
AcDbSymbolTableRecord
100
AcDbBlockTableRecord
  2
*Paper_Space
340
1E
 70
0
280
1
281
0
  0
BLOCK_RECORD
  5
74
330
9
100
AcDbSymbolTableRecord
100
AcDbBlockTableRecord
  2
_ARCHTICK
340
0
 70
0
280
1
281
0
  0
BLOCK_RECORD
  5
78
330
9
100
AcDbSymbolTableRecord
100
AcDbBlockTableRecord
  2
_CLOSEDFILLED
340
0
 70
0
280
1
281
0
  0
BLOCK_RECORD
  5
84
330
9
100
AcDbSymbolTableRecord
100
AcDbBlockTableRecord
  2
_CLOSEDBLANK
340
0
 70
0
280
1
281
0
  0
ENDTAB
  0
ENDSEC
  0
SECTION
  2
BLOCKS
  0
BLOCK
  5
18
330
17
100
AcDbEntity
  8
0
100
AcDbBlockBegin
  2
*Model_Space
 70
0
 10
0.0
 20
0.0
 30
0.0
  3
*Model_Space
  1

  0
ENDBLK
  5
19
330
17
100
AcDbEntity
  8
0
100
AcDbBlockEnd
  0
BLOCK
  5
1C
330
1B
100
AcDbEntity
  8
0
100
AcDbBlockBegin
  2
*Paper_Space
 70
0
 10
0.0
 20
0.0
 30
0.0
  3
*Paper_Space
  1

  0
ENDBLK
  5
1D
330
1B
100
AcDbEntity
  8
0
100
AcDbBlockEnd
  0
BLOCK
  5
75
330
74
100
AcDbEntity
  8
0
100
AcDbBlockBegin
  2
_ARCHTICK
 70
0
 10
0.0
 20
0.0
 30
0.0
  3
_ARCHTICK
  1

  0
LWPOLYLINE
  5
77
330
74
100
AcDbEntity
  8
0
  6
BYBLOCK
 62
0
100
AcDbPolyline
 90
2
 70
0
 43
0.15
 10
-0.5
 20
-0.5
 10
0.5
 20
0.5
  0
ENDBLK
  5
76
330
74
100
AcDbEntity
  8
0
100
AcDbBlockEnd
  0
BLOCK
  5
79
330
78
100
AcDbEntity
  8
0
100
AcDbBlockBegin
  2
_CLOSEDFILLED
 70
0
 10
0.0
 20
0.0
 30
0.0
  3
_CLOSEDFILLED
  1

  0
SOLID
  5
7B
330
78
100
AcDbEntity
  8
0
  6
BYBLOCK
 62
0
100
AcDbTrace
 10
-1.0
 20
0.16439898372402537
 30
0.0
 11
0.0
 21
0.0
 31
0.0
 12
-1.0
 22
-0.16439898372402537
 32
0.0
 13
-1.0
 23
-0.16439898372402537
 33
0.0
  0
ENDBLK
  5
7A
330
78
100
AcDbEntity
  8
0
100
AcDbBlockEnd
  0
BLOCK
  5
85
330
84
100
AcDbEntity
  8
0
100
AcDbBlockBegin
  2
_CLOSEDBLANK
 70
0
 10
0.0
 20
0.0
 30
0.0
  3
_CLOSEDBLANK
  1

  0
LWPOLYLINE
  5
87
330
84
100
AcDbEntity
  8
0
  6
BYBLOCK
 62
0
100
AcDbPolyline
 90
3
 70
1
 10
-1.0
 20
0.16439898372402537
 10
0.0
 20
0.0
 10
-1.0
 20
-0.16439898372402537
  0
ENDBLK
  5
86
330
84
100
AcDbEntity
  8
0
100
AcDbBlockEnd
  0
ENDSEC
  0
SECTION
  2
ENTITIES
  0
LWPOLYLINE
  5
99
330
17
100
AcDbEntity
  8
0_BORDER
100
AcDbPolyline
 90
4
 70
1
 10
25.0
 20
25.0
 10
1775.0
 20
25.0
 10
1775.0
 20
1125.0
 10
25.0
 20
1125.0
  0
LWPOLYLINE
  5
9A
330
17
100
AcDbEntity
  8
0_BORDER
100
AcDbPolyline
 90
4
 70
1
 10
30.0
 20
30.0
 10
1770.0
 20
30.0
 10
1770.0
 20
1120.0
 10
30.0
 20
1120.0
  0
TEXT
  5
9B
330
17
100
AcDbEntity
  8
TITLE_TEXT
100
AcDbText
 10
45.0
 20
1101.0
 30
0.0
 40
9.0
  1
KALASIN ENGINEERING xCIP-1545 SYSTEM (PROJECT REF: x2608003)
 11
45.0
 21
1101.0
 31
0.0
100
AcDbText
  0
TEXT
  5
9C
330
17
100
AcDbEntity
  8
TEXT_MAIN
100
AcDbText
 10
45.0
 20
1089.0
 30
0.0
 40
7.0
  1
CHASSIS C1 - C8 TO DESTINATION JUNCTION BOX ARCHITECTURE & INTERCONNECTION DIAGRAM
 11
45.0
 21
1089.0
 31
0.0
100
AcDbText
  0
LINE
  5
9D
330
17
100
AcDbEntity
  8
0_BORDER
100
AcDbLine
 10
35.0
 20
1083.0
 30
0.0
 11
1765.0
 21
1083.0
 31
0.0
  0
LWPOLYLINE
  5
9E
330
17
100
AcDbEntity
  8
CHASSIS_FRAME
100
AcDbPolyline
 90
4
 70
1
 10
50.0
 20
1068.0
 10
420.0
 20
1068.0
 10
420.0
 20
832.0
 10
50.0
 20
832.0
  0
LWPOLYLINE
  5
9F
330
17
100
AcDbEntity
  8
0_TITLE_BLOCK
100
AcDbPolyline
 90
4
 70
1
 10
50.0
 20
1068.0
 10
420.0
 20
1068.0
 10
420.0
 20
1042.0
 10
50.0
 20
1042.0
  0
TEXT
  5
A0
330
17
100
AcDbEntity
  8
TITLE_TEXT
100
AcDbText
 10
58.0
 20
1058.0
 30
0.0
 40
4.2
  1
CHASSIS C1: MAIN CONTROLLER RACK
 11
58.0
 21
1058.0
 31
0.0
100
AcDbText
  0
TEXT
  5
A1
330
17
100
AcDbEntity
  8
TEXT_SUB
100
AcDbText
 10
58.0
 20
1048.0
 30
0.0
 40
3.2
  1
LOC: CA1 Main Cabinet (Control Room)
 11
58.0
 21
1048.0
 31
0.0
100
AcDbText
  0
LWPOLYLINE
  5
A2
330
17
100
AcDbEntity
  8
SLOT_BOX
100
AcDbPolyline
 90
4
 70
1
 10
54.0
 20
1038.0
 10
416.0
 20
1038.0
 10
416.0
 20
1021.0
 10
54.0
 20
1021.0
  0
TEXT
  5
A3
330
17
100
AcDbEntity
  8
TEXT_MAIN
100
AcDbText
 10
58.0
 20
1030.5
 30
0.0
 40
3.4
  1
SLOT 00
 11
58.0
 21
1030.5
 31
0.0
100
AcDbText
  0
TEXT
  5
A4
330
17
100
AcDbEntity
  8
TEXT_SUB
100
AcDbText
 10
96.0
 20
1030.5
 30
0.0
 40
3.2
  1
1756-L950TPSXT
 11
96.0
 21
1030.5
 31
0.0
100
AcDbText
  0
TEXT
  5
A5
330
17
100
AcDbEntity
  8
TEXT_MAIN
100
AcDbText
 10
180.0
 20
1030.5
 30
0.0
 40
3.2
  1
[CPU]
 11
180.0
 21
1030.5
 31
0.0
100
AcDbText
  0
TEXT
  5
A6
330
17
100
AcDbEntity
  8
TEXT_ANNOT
100
AcDbText
 10
225.0
 20
1025.5
 30
0.0
 40
2.8
  1
-> CA1 (1p)
 11
225.0
 21
1025.5
 31
0.0
100
AcDbText
  0
LWPOLYLINE
  5
A7
330
17
100
AcDbEntity
  8
SLOT_BOX
100
AcDbPolyline
 90
4
 70
1
 10
54.0
 20
1019.5
 10
416.0
 20
1019.5
 10
416.0
 20
1002.5
 10
54.0
 20
1002.5
  0
TEXT
  5
A8
330
17
100
AcDbEntity
  8
TEXT_MAIN
100
AcDbText
 10
58.0
 20
1012.0
 30
0.0
 40
3.4
  1
SLOT 01
 11
58.0
 21
1012.0
 31
0.0
100
AcDbText
  0
TEXT
  5
A9
330
17
100
AcDbEntity
  8
TEXT_SUB
100
AcDbText
 10
96.0
 20
1012.0
 30
0.0
 40
3.2
  1
1756-EN4TR
 11
96.0
 21
1012.0
 31
0.0
100
AcDbText
  0
TEXT
  5
AA
330
17
100
AcDbEntity
  8
ROUTING_ETH
100
AcDbText
 10
180.0
 20
1012.0
 30
0.0
 40
3.2
  1
[ETH]
 11
180.0
 21
1012.0
 31
0.0
100
AcDbText
  0
TEXT
  5
AB
330
17
100
AcDbEntity
  8
TEXT_ANNOT
100
AcDbText
 10
225.0
 20
1007.0
 30
0.0
 40
2.8
  1
-> CA1 (1p)
 11
225.0
 21
1007.0
 31
0.0
100
AcDbText
  0
LWPOLYLINE
  5
AC
330
17
100
AcDbEntity
  8
SLOT_BOX
100
AcDbPolyline
 90
4
 70
1
 10
54.0
 20
1001.0
 10
416.0
 20
1001.0
 10
416.0
 20
984.0
 10
54.0
 20
984.0
  0
TEXT
  5
AD
330
17
100
AcDbEntity
  8
TEXT_MAIN
100
AcDbText
 10
58.0
 20
993.5
 30
0.0
 40
3.4
  1
SLOT 02
 11
58.0
 21
993.5
 31
0.0
100
AcDbText
  0
TEXT
  5
AE
330
17
100
AcDbEntity
  8
TEXT_SUB
100
AcDbText
 10
96.0
 20
993.5
 30
0.0
 40
3.2
  1
1756-EN4TR
 11
96.0
 21
993.5
 31
0.0
100
AcDbText
  0
TEXT
  5
AF
330
17
100
AcDbEntity
  8
ROUTING_ETH
100
AcDbText
 10
180.0
 20
993.5
 30
0.0
 40
3.2
  1
[ETH]
 11
180.0
 21
993.5
 31
0.0
100
AcDbText
  0
TEXT
  5
B0
330
17
100
AcDbEntity
  8
TEXT_ANNOT
100
AcDbText
 10
225.0
 20
988.5
 30
0.0
 40
2.8
  1
-> CA1 (1p)
 11
225.0
 21
988.5
 31
0.0
100
AcDbText
  0
LWPOLYLINE
  5
B1
330
17
100
AcDbEntity
  8
SLOT_BOX
100
AcDbPolyline
 90
4
 70
1
 10
54.0
 20
982.5
 10
416.0
 20
982.5
 10
416.0
 20
965.5
 10
54.0
 20
965.5
  0
TEXT
  5
B2
330
17
100
AcDbEntity
  8
TEXT_MAIN
100
AcDbText
 10
58.0
 20
975.0
 30
0.0
 40
3.4
  1
SLOT 03
 11
58.0
 21
975.0
 31
0.0
100
AcDbText
  0
TEXT
  5
B3
330
17
100
AcDbEntity
  8
TEXT_SUB
100
AcDbText
 10
96.0
 20
975.0
 30
0.0
 40
3.2
  1
1756-EN4TR
 11
96.0
 21
975.0
 31
0.0
100
AcDbText
  0
TEXT
  5
B4
330
17
100
AcDbEntity
  8
ROUTING_ETH
100
AcDbText
 10
180.0
 20
975.0
 30
0.0
 40
3.2
  1
[ETH]
 11
180.0
 21
975.0
 31
0.0
100
AcDbText
  0
TEXT
  5
B5
330
17
100
AcDbEntity
  8
TEXT_ANNOT
100
AcDbText
 10
225.0
 20
970.0
 30
0.0
 40
2.8
  1
-> CA1 (1p)
 11
225.0
 21
970.0
 31
0.0
100
AcDbText
  0
LWPOLYLINE
  5
B6
330
17
100
AcDbEntity
  8
SLOT_BOX
100
AcDbPolyline
 90
4
 70
1
 10
54.0
 20
964.0
 10
416.0
 20
964.0
 10
416.0
 20
947.0
 10
54.0
 20
947.0
  0
TEXT
  5
B7
330
17
100
AcDbEntity
  8
TEXT_MAIN
100
AcDbText
 10
58.0
 20
956.5
 30
0.0
 40
3.4
  1
SLOT 04
 11
58.0
 21
956.5
 31
0.0
100
AcDbText
  0
TEXT
  5
B8
330
17
100
AcDbEntity
  8
TEXT_SUB
100
AcDbText
 10
96.0
 20
956.5
 30
0.0
 40
3.2
  1
1756-IB32
 11
96.0
 21
956.5
 31
0.0
100
AcDbText
  0
TEXT
  5
B9
330
17
100
AcDbEntity
  8
ROUTING_DI
100
AcDbText
 10
180.0
 20
956.5
 30
0.0
 40
3.2
  1
[DI]
 11
180.0
 21
956.5
 31
0.0
100
AcDbText
  0
TEXT
  5
BA
330
17
100
AcDbEntity
  8
TEXT_ANNOT
100
AcDbText
 10
225.0
 20
951.5
 30
0.0
 40
2.8
  1
-> CA1 (16p), JB-401 (16p)
 11
225.0
 21
951.5
 31
0.0
100
AcDbText
  0
LWPOLYLINE
  5
BB
330
17
100
AcDbEntity
  8
SLOT_BOX
100
AcDbPolyline
 90
4
 70
1
 10
54.0
 20
945.5
 10
416.0
 20
945.5
 10
416.0
 20
928.5
 10
54.0
 20
928.5
  0
TEXT
  5
BC
330
17
100
AcDbEntity
  8
TEXT_MAIN
100
AcDbText
 10
58.0
 20
938.0
 30
0.0
 40
3.4
  1
SLOT 05
 11
58.0
 21
938.0
 31
0.0
100
AcDbText
  0
TEXT
  5
BD
330
17
100
AcDbEntity
  8
TEXT_SUB
100
AcDbText
 10
96.0
 20
938.0
 30
0.0
 40
3.2
  1
1756-IB32
 11
96.0
 21
938.0
 31
0.0
100
AcDbText
  0
TEXT
  5
BE
330
17
100
AcDbEntity
  8
ROUTING_DI
100
AcDbText
 10
180.0
 20
938.0
 30
0.0
 40
3.2
  1
[DI]
 11
180.0
 21
938.0
 31
0.0
100
AcDbText
  0
TEXT
  5
BF
330
17
100
AcDbEntity
  8
TEXT_ANNOT
100
AcDbText
 10
225.0
 20
933.0
 30
0.0
 40
2.8
  1
-> JB-401 (32p)
 11
225.0
 21
933.0
 31
0.0
100
AcDbText
  0
LWPOLYLINE
  5
C0
330
17
100
AcDbEntity
  8
SLOT_BOX
100
AcDbPolyline
 90
4
 70
1
 10
54.0
 20
927.0
 10
416.0
 20
927.0
 10
416.0
 20
910.0
 10
54.0
 20
910.0
  0
TEXT
  5
C1
330
17
100
AcDbEntity
  8
TEXT_MAIN
100
AcDbText
 10
58.0
 20
919.5
 30
0.0
 40
3.4
  1
SLOT 06
 11
58.0
 21
919.5
 31
0.0
100
AcDbText
  0
TEXT
  5
C2
330
17
100
AcDbEntity
  8
TEXT_SUB
100
AcDbText
 10
96.0
 20
919.5
 30
0.0
 40
3.2
  1
1756-IB32
 11
96.0
 21
919.5
 31
0.0
100
AcDbText
  0
TEXT
  5
C3
330
17
100
AcDbEntity
  8
ROUTING_DI
100
AcDbText
 10
180.0
 20
919.5
 30
0.0
 40
3.2
  1
[DI]
 11
180.0
 21
919.5
 31
0.0
100
AcDbText
  0
TEXT
  5
C4
330
17
100
AcDbEntity
  8
TEXT_ANNOT
100
AcDbText
 10
225.0
 20
914.5
 30
0.0
 40
2.8
  1
-> JB-401 (16p), JB-601 (16p)
 11
225.0
 21
914.5
 31
0.0
100
AcDbText
  0
LWPOLYLINE
  5
C5
330
17
100
AcDbEntity
  8
SLOT_BOX
100
AcDbPolyline
 90
4
 70
1
 10
54.0
 20
908.5
 10
416.0
 20
908.5
 10
416.0
 20
891.5
 10
54.0
 20
891.5
  0
TEXT
  5
C6
330
17
100
AcDbEntity
  8
TEXT_MAIN
100
AcDbText
 10
58.0
 20
901.0
 30
0.0
 40
3.4
  1
SLOT 07
 11
58.0
 21
901.0
 31
0.0
100
AcDbText
  0
TEXT
  5
C7
330
17
100
AcDbEntity
  8
TEXT_SUB
100
AcDbText
 10
96.0
 20
901.0
 30
0.0
 40
3.2
  1
1756-IB32
 11
96.0
 21
901.0
 31
0.0
100
AcDbText
  0
TEXT
  5
C8
330
17
100
AcDbEntity
  8
ROUTING_DI
100
AcDbText
 10
180.0
 20
901.0
 30
0.0
 40
3.2
  1
[DI]
 11
180.0
 21
901.0
 31
0.0
100
AcDbText
  0
TEXT
  5
C9
330
17
100
AcDbEntity
  8
TEXT_ANNOT
100
AcDbText
 10
225.0
 20
896.0
 30
0.0
 40
2.8
  1
-> JB-601 (32p)
 11
225.0
 21
896.0
 31
0.0
100
AcDbText
  0
LWPOLYLINE
  5
CA
330
17
100
AcDbEntity
  8
SLOT_BOX
100
AcDbPolyline
 90
4
 70
1
 10
54.0
 20
890.0
 10
416.0
 20
890.0
 10
416.0
 20
873.0
 10
54.0
 20
873.0
  0
TEXT
  5
CB
330
17
100
AcDbEntity
  8
TEXT_MAIN
100
AcDbText
 10
58.0
 20
882.5
 30
0.0
 40
3.4
  1
SLOT 08
 11
58.0
 21
882.5
 31
0.0
100
AcDbText
  0
TEXT
  5
CC
330
17
100
AcDbEntity
  8
TEXT_SUB
100
AcDbText
 10
96.0
 20
882.5
 30
0.0
 40
3.2
  1
1756-OB32
 11
96.0
 21
882.5
 31
0.0
100
AcDbText
  0
TEXT
  5
CD
330
17
100
AcDbEntity
  8
ROUTING_DO
100
AcDbText
 10
180.0
 20
882.5
 30
0.0
 40
3.2
  1
[DO]
 11
180.0
 21
882.5
 31
0.0
100
AcDbText
  0
TEXT
  5
CE
330
17
100
AcDbEntity
  8
TEXT_ANNOT
100
AcDbText
 10
225.0
 20
877.5
 30
0.0
 40
2.8
  1
-> CA1 (16p), JB-401 (16p)
 11
225.0
 21
877.5
 31
0.0
100
AcDbText
  0
LWPOLYLINE
  5
CF
330
17
100
AcDbEntity
  8
SLOT_BOX
100
AcDbPolyline
 90
4
 70
1
 10
54.0
 20
871.5
 10
416.0
 20
871.5
 10
416.0
 20
854.5
 10
54.0
 20
854.5
  0
TEXT
  5
D0
330
17
100
AcDbEntity
  8
TEXT_MAIN
100
AcDbText
 10
58.0
 20
864.0
 30
0.0
 40
3.4
  1
SLOT 09
 11
58.0
 21
864.0
 31
0.0
100
AcDbText
  0
TEXT
  5
D1
330
17
100
AcDbEntity
  8
TEXT_SUB
100
AcDbText
 10
96.0
 20
864.0
 30
0.0
 40
3.2
  1
1756-OB32
 11
96.0
 21
864.0
 31
0.0
100
AcDbText
  0
TEXT
  5
D2
330
17
100
AcDbEntity
  8
ROUTING_DO
100
AcDbText
 10
180.0
 20
864.0
 30
0.0
 40
3.2
  1
[DO]
 11
180.0
 21
864.0
 31
0.0
100
AcDbText
  0
TEXT
  5
D3
330
17
100
AcDbEntity
  8
TEXT_ANNOT
100
AcDbText
 10
225.0
 20
859.0
 30
0.0
 40
2.8
  1
-> JB-401 (16p), JB-601 (16p)
 11
225.0
 21
859.0
 31
0.0
100
AcDbText
  0
LWPOLYLINE
  5
D4
330
17
100
AcDbEntity
  8
SLOT_BOX
100
AcDbPolyline
 90
4
 70
1
 10
54.0
 20
853.0
 10
416.0
 20
853.0
 10
416.0
 20
836.0
 10
54.0
 20
836.0
  0
TEXT
  5
D5
330
17
100
AcDbEntity
  8
TEXT_MAIN
100
AcDbText
 10
58.0
 20
845.5
 30
0.0
 40
3.4
  1
SLOT 10
 11
58.0
 21
845.5
 31
0.0
100
AcDbText
  0
TEXT
  5
D6
330
17
100
AcDbEntity
  8
TEXT_SUB
100
AcDbText
 10
96.0
 20
845.5
 30
0.0
 40
3.2
  1
1756-IF16
 11
96.0
 21
845.5
 31
0.0
100
AcDbText
  0
TEXT
  5
D7
330
17
100
AcDbEntity
  8
ROUTING_AI
100
AcDbText
 10
180.0
 20
845.5
 30
0.0
 40
3.2
  1
[AI]
 11
180.0
 21
845.5
 31
0.0
100
AcDbText
  0
TEXT
  5
D8
330
17
100
AcDbEntity
  8
TEXT_ANNOT
100
AcDbText
 10
225.0
 20
840.5
 30
0.0
 40
2.8
  1
-> JB-401 (16p)
 11
225.0
 21
840.5
 31
0.0
100
AcDbText
  0
LWPOLYLINE
  5
D9
330
17
100
AcDbEntity
  8
SLOT_BOX
100
AcDbPolyline
 90
4
 70
1
 10
54.0
 20
834.5
 10
416.0
 20
834.5
 10
416.0
 20
817.5
 10
54.0
 20
817.5
  0
TEXT
  5
DA
330
17
100
AcDbEntity
  8
TEXT_MAIN
100
AcDbText
 10
58.0
 20
827.0
 30
0.0
 40
3.4
  1
SLOT 11
 11
58.0
 21
827.0
 31
0.0
100
AcDbText
  0
TEXT
  5
DB
330
17
100
AcDbEntity
  8
TEXT_SUB
100
AcDbText
 10
96.0
 20
827.0
 30
0.0
 40
3.2
  1
1756-IF16
 11
96.0
 21
827.0
 31
0.0
100
AcDbText
  0
TEXT
  5
DC
330
17
100
AcDbEntity
  8
ROUTING_AI
100
AcDbText
 10
180.0
 20
827.0
 30
0.0
 40
3.2
  1
[AI]
 11
180.0
 21
827.0
 31
0.0
100
AcDbText
  0
TEXT
  5
DD
330
17
100
AcDbEntity
  8
TEXT_ANNOT
100
AcDbText
 10
225.0
 20
822.0
 30
0.0
 40
2.8
  1
-> JB-601 (16p)
 11
225.0
 21
822.0
 31
0.0
100
AcDbText
  0
LWPOLYLINE
  5
DE
330
17
100
AcDbEntity
  8
CHASSIS_FRAME
100
AcDbPolyline
 90
4
 70
1
 10
440.0
 20
1068.0
 10
810.0
 20
1068.0
 10
810.0
 20
849.0
 10
440.0
 20
849.0
  0
LWPOLYLINE
  5
DF
330
17
100
AcDbEntity
  8
0_TITLE_BLOCK
100
AcDbPolyline
 90
4
 70
1
 10
440.0
 20
1068.0
 10
810.0
 20
1068.0
 10
810.0
 20
1042.0
 10
440.0
 20
1042.0
  0
TEXT
  5
E0
330
17
100
AcDbEntity
  8
TITLE_TEXT
100
AcDbText
 10
448.0
 20
1058.0
 30
0.0
 40
4.2
  1
CHASSIS C2: MAIN EXPANSION RACK
 11
448.0
 21
1058.0
 31
0.0
100
AcDbText
  0
TEXT
  5
E1
330
17
100
AcDbEntity
  8
TEXT_SUB
100
AcDbText
 10
448.0
 20
1048.0
 30
0.0
 40
3.2
  1
LOC: CA1 Main Cabinet (Control Room)
 11
448.0
 21
1048.0
 31
0.0
100
AcDbText
  0
LWPOLYLINE
  5
E2
330
17
100
AcDbEntity
  8
SLOT_BOX
100
AcDbPolyline
 90
4
 70
1
 10
444.0
 20
1038.0
 10
806.0
 20
1038.0
 10
806.0
 20
1021.0
 10
444.0
 20
1021.0
  0
TEXT
  5
E3
330
17
100
AcDbEntity
  8
TEXT_MAIN
100
AcDbText
 10
448.0
 20
1030.5
 30
0.0
 40
3.4
  1
SLOT 00
 11
448.0
 21
1030.5
 31
0.0
100
AcDbText
  0
TEXT
  5
E4
330
17
100
AcDbEntity
  8
TEXT_SUB
100
AcDbText
 10
486.0
 20
1030.5
 30
0.0
 40
3.2
  1
1756-EN4TR
 11
486.0
 21
1030.5
 31
0.0
100
AcDbText
  0
TEXT
  5
E5
330
17
100
AcDbEntity
  8
ROUTING_ETH
100
AcDbText
 10
570.0
 20
1030.5
 30
0.0
 40
3.2
  1
[ETH]
 11
570.0
 21
1030.5
 31
0.0
100
AcDbText
  0
TEXT
  5
E6
330
17
100
AcDbEntity
  8
TEXT_ANNOT
100
AcDbText
 10
615.0
 20
1025.5
 30
0.0
 40
2.8
  1
-> CA1 (1p)
 11
615.0
 21
1025.5
 31
0.0
100
AcDbText
  0
LWPOLYLINE
  5
E7
330
17
100
AcDbEntity
  8
SLOT_BOX
100
AcDbPolyline
 90
4
 70
1
 10
444.0
 20
1019.5
 10
806.0
 20
1019.5
 10
806.0
 20
1002.5
 10
444.0
 20
1002.5
  0
TEXT
  5
E8
330
17
100
AcDbEntity
  8
TEXT_MAIN
100
AcDbText
 10
448.0
 20
1012.0
 30
0.0
 40
3.4
  1
SLOT 01
 11
448.0
 21
1012.0
 31
0.0
100
AcDbText
  0
TEXT
  5
E9
330
17
100
AcDbEntity
  8
TEXT_SUB
100
AcDbText
 10
486.0
 20
1012.0
 30
0.0
 40
3.2
  1
1756-IB32
 11
486.0
 21
1012.0
 31
0.0
100
AcDbText
  0
TEXT
  5
EA
330
17
100
AcDbEntity
  8
ROUTING_DI
100
AcDbText
 10
570.0
 20
1012.0
 30
0.0
 40
3.2
  1
[DI]
 11
570.0
 21
1012.0
 31
0.0
100
AcDbText
  0
TEXT
  5
EB
330
17
100
AcDbEntity
  8
TEXT_ANNOT
100
AcDbText
 10
615.0
 20
1007.0
 30
0.0
 40
2.8
  1
-> JB-402 (32p)
 11
615.0
 21
1007.0
 31
0.0
100
AcDbText
  0
LWPOLYLINE
  5
EC
330
17
100
AcDbEntity
  8
SLOT_BOX
100
AcDbPolyline
 90
4
 70
1
 10
444.0
 20
1001.0
 10
806.0
 20
1001.0
 10
806.0
 20
984.0
 10
444.0
 20
984.0
  0
TEXT
  5
ED
330
17
100
AcDbEntity
  8
TEXT_MAIN
100
AcDbText
 10
448.0
 20
993.5
 30
0.0
 40
3.4
  1
SLOT 02
 11
448.0
 21
993.5
 31
0.0
100
AcDbText
  0
TEXT
  5
EE
330
17
100
AcDbEntity
  8
TEXT_SUB
100
AcDbText
 10
486.0
 20
993.5
 30
0.0
 40
3.2
  1
1756-IB32
 11
486.0
 21
993.5
 31
0.0
100
AcDbText
  0
TEXT
  5
EF
330
17
100
AcDbEntity
  8
ROUTING_DI
100
AcDbText
 10
570.0
 20
993.5
 30
0.0
 40
3.2
  1
[DI]
 11
570.0
 21
993.5
 31
0.0
100
AcDbText
  0
TEXT
  5
F0
330
17
100
AcDbEntity
  8
TEXT_ANNOT
100
AcDbText
 10
615.0
 20
988.5
 30
0.0
 40
2.8
  1
-> JB-602 (32p)
 11
615.0
 21
988.5
 31
0.0
100
AcDbText
  0
LWPOLYLINE
  5
F1
330
17
100
AcDbEntity
  8
SLOT_BOX
100
AcDbPolyline
 90
4
 70
1
 10
444.0
 20
982.5
 10
806.0
 20
982.5
 10
806.0
 20
965.5
 10
444.0
 20
965.5
  0
TEXT
  5
F2
330
17
100
AcDbEntity
  8
TEXT_MAIN
100
AcDbText
 10
448.0
 20
975.0
 30
0.0
 40
3.4
  1
SLOT 03
 11
448.0
 21
975.0
 31
0.0
100
AcDbText
  0
TEXT
  5
F3
330
17
100
AcDbEntity
  8
TEXT_SUB
100
AcDbText
 10
486.0
 20
975.0
 30
0.0
 40
3.2
  1
1756-IB32
 11
486.0
 21
975.0
 31
0.0
100
AcDbText
  0
TEXT
  5
F4
330
17
100
AcDbEntity
  8
ROUTING_DI
100
AcDbText
 10
570.0
 20
975.0
 30
0.0
 40
3.2
  1
[DI]
 11
570.0
 21
975.0
 31
0.0
100
AcDbText
  0
TEXT
  5
F5
330
17
100
AcDbEntity
  8
TEXT_ANNOT
100
AcDbText
 10
615.0
 20
970.0
 30
0.0
 40
2.8
  1
-> JB-607 (29p)
 11
615.0
 21
970.0
 31
0.0
100
AcDbText
  0
LWPOLYLINE
  5
F6
330
17
100
AcDbEntity
  8
SLOT_BOX
100
AcDbPolyline
 90
4
 70
1
 10
444.0
 20
964.0
 10
806.0
 20
964.0
 10
806.0
 20
947.0
 10
444.0
 20
947.0
  0
TEXT
  5
F7
330
17
100
AcDbEntity
  8
TEXT_MAIN
100
AcDbText
 10
448.0
 20
956.5
 30
0.0
 40
3.4
  1
SLOT 04
 11
448.0
 21
956.5
 31
0.0
100
AcDbText
  0
TEXT
  5
F8
330
17
100
AcDbEntity
  8
TEXT_SUB
100
AcDbText
 10
486.0
 20
956.5
 30
0.0
 40
3.2
  1
1756-IB32
 11
486.0
 21
956.5
 31
0.0
100
AcDbText
  0
TEXT
  5
F9
330
17
100
AcDbEntity
  8
ROUTING_DI
100
AcDbText
 10
570.0
 20
956.5
 30
0.0
 40
3.2
  1
[DI]
 11
570.0
 21
956.5
 31
0.0
100
AcDbText
  0
TEXT
  5
FA
330
17
100
AcDbEntity
  8
TEXT_ANNOT
100
AcDbText
 10
615.0
 20
951.5
 30
0.0
 40
2.8
  1
-> JB-607 (32p)
 11
615.0
 21
951.5
 31
0.0
100
AcDbText
  0
LWPOLYLINE
  5
FB
330
17
100
AcDbEntity
  8
SLOT_BOX
100
AcDbPolyline
 90
4
 70
1
 10
444.0
 20
945.5
 10
806.0
 20
945.5
 10
806.0
 20
928.5
 10
444.0
 20
928.5
  0
TEXT
  5
FC
330
17
100
AcDbEntity
  8
TEXT_MAIN
100
AcDbText
 10
448.0
 20
938.0
 30
0.0
 40
3.4
  1
SLOT 05
 11
448.0
 21
938.0
 31
0.0
100
AcDbText
  0
TEXT
  5
FD
330
17
100
AcDbEntity
  8
TEXT_SUB
100
AcDbText
 10
486.0
 20
938.0
 30
0.0
 40
3.2
  1
1756-IB32
 11
486.0
 21
938.0
 31
0.0
100
AcDbText
  0
TEXT
  5
FE
330
17
100
AcDbEntity
  8
ROUTING_DI
100
AcDbText
 10
570.0
 20
938.0
 30
0.0
 40
3.2
  1
[DI]
 11
570.0
 21
938.0
 31
0.0
100
AcDbText
  0
TEXT
  5
FF
330
17
100
AcDbEntity
  8
TEXT_ANNOT
100
AcDbText
 10
615.0
 20
933.0
 30
0.0
 40
2.8
  1
-> JB-607 (32p)
 11
615.0
 21
933.0
 31
0.0
100
AcDbText
  0
LWPOLYLINE
  5
100
330
17
100
AcDbEntity
  8
SLOT_BOX
100
AcDbPolyline
 90
4
 70
1
 10
444.0
 20
927.0
 10
806.0
 20
927.0
 10
806.0
 20
910.0
 10
444.0
 20
910.0
  0
TEXT
  5
101
330
17
100
AcDbEntity
  8
TEXT_MAIN
100
AcDbText
 10
448.0
 20
919.5
 30
0.0
 40
3.4
  1
SLOT 06
 11
448.0
 21
919.5
 31
0.0
100
AcDbText
  0
TEXT
  5
102
330
17
100
AcDbEntity
  8
TEXT_SUB
100
AcDbText
 10
486.0
 20
919.5
 30
0.0
 40
3.2
  1
1756-OB32
 11
486.0
 21
919.5
 31
0.0
100
AcDbText
  0
TEXT
  5
103
330
17
100
AcDbEntity
  8
ROUTING_DO
100
AcDbText
 10
570.0
 20
919.5
 30
0.0
 40
3.2
  1
[DO]
 11
570.0
 21
919.5
 31
0.0
100
AcDbText
  0
TEXT
  5
104
330
17
100
AcDbEntity
  8
TEXT_ANNOT
100
AcDbText
 10
615.0
 20
914.5
 30
0.0
 40
2.8
  1
-> JB-402 (16p), JB-602 (16p)
 11
615.0
 21
914.5
 31
0.0
100
AcDbText
  0
LWPOLYLINE
  5
105
330
17
100
AcDbEntity
  8
SLOT_BOX
100
AcDbPolyline
 90
4
 70
1
 10
444.0
 20
908.5
 10
806.0
 20
908.5
 10
806.0
 20
891.5
 10
444.0
 20
891.5
  0
TEXT
  5
106
330
17
100
AcDbEntity
  8
TEXT_MAIN
100
AcDbText
 10
448.0
 20
901.0
 30
0.0
 40
3.4
  1
SLOT 07
 11
448.0
 21
901.0
 31
0.0
100
AcDbText
  0
TEXT
  5
107
330
17
100
AcDbEntity
  8
TEXT_SUB
100
AcDbText
 10
486.0
 20
901.0
 30
0.0
 40
3.2
  1
1756-OB32
 11
486.0
 21
901.0
 31
0.0
100
AcDbText
  0
TEXT
  5
108
330
17
100
AcDbEntity
  8
ROUTING_DO
100
AcDbText
 10
570.0
 20
901.0
 30
0.0
 40
3.2
  1
[DO]
 11
570.0
 21
901.0
 31
0.0
100
AcDbText
  0
TEXT
  5
109
330
17
100
AcDbEntity
  8
TEXT_ANNOT
100
AcDbText
 10
615.0
 20
896.0
 30
0.0
 40
2.8
  1
-> JB-607 (32p)
 11
615.0
 21
896.0
 31
0.0
100
AcDbText
  0
LWPOLYLINE
  5
10A
330
17
100
AcDbEntity
  8
SLOT_BOX
100
AcDbPolyline
 90
4
 70
1
 10
444.0
 20
890.0
 10
806.0
 20
890.0
 10
806.0
 20
873.0
 10
444.0
 20
873.0
  0
TEXT
  5
10B
330
17
100
AcDbEntity
  8
TEXT_MAIN
100
AcDbText
 10
448.0
 20
882.5
 30
0.0
 40
3.4
  1
SLOT 08
 11
448.0
 21
882.5
 31
0.0
100
AcDbText
  0
TEXT
  5
10C
330
17
100
AcDbEntity
  8
TEXT_SUB
100
AcDbText
 10
486.0
 20
882.5
 30
0.0
 40
3.2
  1
1756-OB32
 11
486.0
 21
882.5
 31
0.0
100
AcDbText
  0
TEXT
  5
10D
330
17
100
AcDbEntity
  8
ROUTING_DO
100
AcDbText
 10
570.0
 20
882.5
 30
0.0
 40
3.2
  1
[DO]
 11
570.0
 21
882.5
 31
0.0
100
AcDbText
  0
TEXT
  5
10E
330
17
100
AcDbEntity
  8
TEXT_ANNOT
100
AcDbText
 10
615.0
 20
877.5
 30
0.0
 40
2.8
  1
-> JB-607 (32p)
 11
615.0
 21
877.5
 31
0.0
100
AcDbText
  0
LWPOLYLINE
  5
10F
330
17
100
AcDbEntity
  8
SLOT_BOX
100
AcDbPolyline
 90
4
 70
1
 10
444.0
 20
871.5
 10
806.0
 20
871.5
 10
806.0
 20
854.5
 10
444.0
 20
854.5
  0
TEXT
  5
110
330
17
100
AcDbEntity
  8
TEXT_MAIN
100
AcDbText
 10
448.0
 20
864.0
 30
0.0
 40
3.4
  1
SLOT 09
 11
448.0
 21
864.0
 31
0.0
100
AcDbText
  0
TEXT
  5
111
330
17
100
AcDbEntity
  8
TEXT_SUB
100
AcDbText
 10
486.0
 20
864.0
 30
0.0
 40
3.2
  1
1756-IF16
 11
486.0
 21
864.0
 31
0.0
100
AcDbText
  0
TEXT
  5
112
330
17
100
AcDbEntity
  8
ROUTING_AI
100
AcDbText
 10
570.0
 20
864.0
 30
0.0
 40
3.2
  1
[AI]
 11
570.0
 21
864.0
 31
0.0
100
AcDbText
  0
TEXT
  5
113
330
17
100
AcDbEntity
  8
TEXT_ANNOT
100
AcDbText
 10
615.0
 20
859.0
 30
0.0
 40
2.8
  1
-> JB-402 (16p)
 11
615.0
 21
859.0
 31
0.0
100
AcDbText
  0
LWPOLYLINE
  5
114
330
17
100
AcDbEntity
  8
SLOT_BOX
100
AcDbPolyline
 90
4
 70
1
 10
444.0
 20
853.0
 10
806.0
 20
853.0
 10
806.0
 20
836.0
 10
444.0
 20
836.0
  0
TEXT
  5
115
330
17
100
AcDbEntity
  8
TEXT_MAIN
100
AcDbText
 10
448.0
 20
845.5
 30
0.0
 40
3.4
  1
SLOT 10
 11
448.0
 21
845.5
 31
0.0
100
AcDbText
  0
TEXT
  5
116
330
17
100
AcDbEntity
  8
TEXT_SUB
100
AcDbText
 10
486.0
 20
845.5
 30
0.0
 40
3.2
  1
1756-IF16
 11
486.0
 21
845.5
 31
0.0
100
AcDbText
  0
TEXT
  5
117
330
17
100
AcDbEntity
  8
ROUTING_AI
100
AcDbText
 10
570.0
 20
845.5
 30
0.0
 40
3.2
  1
[AI]
 11
570.0
 21
845.5
 31
0.0
100
AcDbText
  0
TEXT
  5
118
330
17
100
AcDbEntity
  8
TEXT_ANNOT
100
AcDbText
 10
615.0
 20
840.5
 30
0.0
 40
2.8
  1
-> JB-602 (16p)
 11
615.0
 21
840.5
 31
0.0
100
AcDbText
  0
LWPOLYLINE
  5
119
330
17
100
AcDbEntity
  8
CHASSIS_FRAME
100
AcDbPolyline
 90
4
 70
1
 10
50.0
 20
798.0
 10
420.0
 20
798.0
 10
420.0
 20
613.0
 10
50.0
 20
613.0
  0
LWPOLYLINE
  5
11A
330
17
100
AcDbEntity
  8
0_TITLE_BLOCK
100
AcDbPolyline
 90
4
 70
1
 10
50.0
 20
798.0
 10
420.0
 20
798.0
 10
420.0
 20
772.0
 10
50.0
 20
772.0
  0
TEXT
  5
11B
330
17
100
AcDbEntity
  8
TITLE_TEXT
100
AcDbText
 10
58.0
 20
788.0
 30
0.0
 40
4.2
  1
CHASSIS C3: REMOTE I/O RACK 1
 11
58.0
 21
788.0
 31
0.0
100
AcDbText
  0
TEXT
  5
11C
330
17
100
AcDbEntity
  8
TEXT_SUB
100
AcDbText
 10
58.0
 20
778.0
 30
0.0
 40
3.2
  1
LOC: Field Enclosure (Spray Dryer 3rd/7th Fl)
 11
58.0
 21
778.0
 31
0.0
100
AcDbText
  0
LWPOLYLINE
  5
11D
330
17
100
AcDbEntity
  8
SLOT_BOX
100
AcDbPolyline
 90
4
 70
1
 10
54.0
 20
768.0
 10
416.0
 20
768.0
 10
416.0
 20
751.0
 10
54.0
 20
751.0
  0
TEXT
  5
11E
330
17
100
AcDbEntity
  8
TEXT_MAIN
100
AcDbText
 10
58.0
 20
760.5
 30
0.0
 40
3.4
  1
SLOT 00
 11
58.0
 21
760.5
 31
0.0
100
AcDbText
  0
TEXT
  5
11F
330
17
100
AcDbEntity
  8
TEXT_SUB
100
AcDbText
 10
96.0
 20
760.5
 30
0.0
 40
3.2
  1
1756-EN4TR
 11
96.0
 21
760.5
 31
0.0
100
AcDbText
  0
TEXT
  5
120
330
17
100
AcDbEntity
  8
ROUTING_ETH
100
AcDbText
 10
180.0
 20
760.5
 30
0.0
 40
3.2
  1
[ETH]
 11
180.0
 21
760.5
 31
0.0
100
AcDbText
  0
TEXT
  5
121
330
17
100
AcDbEntity
  8
TEXT_ANNOT
100
AcDbText
 10
225.0
 20
755.5
 30
0.0
 40
2.8
  1
-> CA1 (1p)
 11
225.0
 21
755.5
 31
0.0
100
AcDbText
  0
LWPOLYLINE
  5
122
330
17
100
AcDbEntity
  8
SLOT_BOX
100
AcDbPolyline
 90
4
 70
1
 10
54.0
 20
749.5
 10
416.0
 20
749.5
 10
416.0
 20
732.5
 10
54.0
 20
732.5
  0
TEXT
  5
123
330
17
100
AcDbEntity
  8
TEXT_MAIN
100
AcDbText
 10
58.0
 20
742.0
 30
0.0
 40
3.4
  1
SLOT 01
 11
58.0
 21
742.0
 31
0.0
100
AcDbText
  0
TEXT
  5
124
330
17
100
AcDbEntity
  8
TEXT_SUB
100
AcDbText
 10
96.0
 20
742.0
 30
0.0
 40
3.2
  1
1756-IB32
 11
96.0
 21
742.0
 31
0.0
100
AcDbText
  0
TEXT
  5
125
330
17
100
AcDbEntity
  8
ROUTING_DI
100
AcDbText
 10
180.0
 20
742.0
 30
0.0
 40
3.2
  1
[DI]
 11
180.0
 21
742.0
 31
0.0
100
AcDbText
  0
TEXT
  5
126
330
17
100
AcDbEntity
  8
TEXT_ANNOT
100
AcDbText
 10
225.0
 20
737.0
 30
0.0
 40
2.8
  1
-> JB-618 (11p)
 11
225.0
 21
737.0
 31
0.0
100
AcDbText
  0
LWPOLYLINE
  5
127
330
17
100
AcDbEntity
  8
SLOT_BOX
100
AcDbPolyline
 90
4
 70
1
 10
54.0
 20
731.0
 10
416.0
 20
731.0
 10
416.0
 20
714.0
 10
54.0
 20
714.0
  0
TEXT
  5
128
330
17
100
AcDbEntity
  8
TEXT_MAIN
100
AcDbText
 10
58.0
 20
723.5
 30
0.0
 40
3.4
  1
SLOT 02
 11
58.0
 21
723.5
 31
0.0
100
AcDbText
  0
TEXT
  5
129
330
17
100
AcDbEntity
  8
TEXT_SUB
100
AcDbText
 10
96.0
 20
723.5
 30
0.0
 40
3.2
  1
1756-IB32
 11
96.0
 21
723.5
 31
0.0
100
AcDbText
  0
TEXT
  5
12A
330
17
100
AcDbEntity
  8
ROUTING_DI
100
AcDbText
 10
180.0
 20
723.5
 30
0.0
 40
3.2
  1
[DI]
 11
180.0
 21
723.5
 31
0.0
100
AcDbText
  0
TEXT
  5
12B
330
17
100
AcDbEntity
  8
TEXT_ANNOT
100
AcDbText
 10
225.0
 20
718.5
 30
0.0
 40
2.8
  1
-> JB-618 (5p)
 11
225.0
 21
718.5
 31
0.0
100
AcDbText
  0
LWPOLYLINE
  5
12C
330
17
100
AcDbEntity
  8
SLOT_BOX
100
AcDbPolyline
 90
4
 70
1
 10
54.0
 20
712.5
 10
416.0
 20
712.5
 10
416.0
 20
695.5
 10
54.0
 20
695.5
  0
TEXT
  5
12D
330
17
100
AcDbEntity
  8
TEXT_MAIN
100
AcDbText
 10
58.0
 20
705.0
 30
0.0
 40
3.4
  1
SLOT 03
 11
58.0
 21
705.0
 31
0.0
100
AcDbText
  0
TEXT
  5
12E
330
17
100
AcDbEntity
  8
TEXT_SUB
100
AcDbText
 10
96.0
 20
705.0
 30
0.0
 40
3.2
  1
1756-OB32
 11
96.0
 21
705.0
 31
0.0
100
AcDbText
  0
TEXT
  5
12F
330
17
100
AcDbEntity
  8
ROUTING_DO
100
AcDbText
 10
180.0
 20
705.0
 30
0.0
 40
3.2
  1
[DO]
 11
180.0
 21
705.0
 31
0.0
100
AcDbText
  0
TEXT
  5
130
330
17
100
AcDbEntity
  8
TEXT_ANNOT
100
AcDbText
 10
225.0
 20
700.0
 30
0.0
 40
2.8
  1
-> JB-618 (32p)
 11
225.0
 21
700.0
 31
0.0
100
AcDbText
  0
LWPOLYLINE
  5
131
330
17
100
AcDbEntity
  8
SLOT_BOX
100
AcDbPolyline
 90
4
 70
1
 10
54.0
 20
694.0
 10
416.0
 20
694.0
 10
416.0
 20
677.0
 10
54.0
 20
677.0
  0
TEXT
  5
132
330
17
100
AcDbEntity
  8
TEXT_MAIN
100
AcDbText
 10
58.0
 20
686.5
 30
0.0
 40
3.4
  1
SLOT 05
 11
58.0
 21
686.5
 31
0.0
100
AcDbText
  0
TEXT
  5
133
330
17
100
AcDbEntity
  8
TEXT_SUB
100
AcDbText
 10
96.0
 20
686.5
 30
0.0
 40
3.2
  1
1756-IF16
 11
96.0
 21
686.5
 31
0.0
100
AcDbText
  0
TEXT
  5
134
330
17
100
AcDbEntity
  8
ROUTING_AI
100
AcDbText
 10
180.0
 20
686.5
 30
0.0
 40
3.2
  1
[AI]
 11
180.0
 21
686.5
 31
0.0
100
AcDbText
  0
TEXT
  5
135
330
17
100
AcDbEntity
  8
TEXT_ANNOT
100
AcDbText
 10
225.0
 20
681.5
 30
0.0
 40
2.8
  1
-> JB-618 (4p)
 11
225.0
 21
681.5
 31
0.0
100
AcDbText
  0
LWPOLYLINE
  5
136
330
17
100
AcDbEntity
  8
SLOT_BOX
100
AcDbPolyline
 90
4
 70
1
 10
54.0
 20
675.5
 10
416.0
 20
675.5
 10
416.0
 20
658.5
 10
54.0
 20
658.5
  0
TEXT
  5
137
330
17
100
AcDbEntity
  8
TEXT_MAIN
100
AcDbText
 10
58.0
 20
668.0
 30
0.0
 40
3.4
  1
SLOT 06
 11
58.0
 21
668.0
 31
0.0
100
AcDbText
  0
TEXT
  5
138
330
17
100
AcDbEntity
  8
TEXT_SUB
100
AcDbText
 10
96.0
 20
668.0
 30
0.0
 40
3.2
  1
1756-IF16/RTD
 11
96.0
 21
668.0
 31
0.0
100
AcDbText
  0
TEXT
  5
139
330
17
100
AcDbEntity
  8
ROUTING_AI
100
AcDbText
 10
180.0
 20
668.0
 30
0.0
 40
3.2
  1
[AI]
 11
180.0
 21
668.0
 31
0.0
100
AcDbText
  0
TEXT
  5
13A
330
17
100
AcDbEntity
  8
TEXT_ANNOT
100
AcDbText
 10
225.0
 20
663.0
 30
0.0
 40
2.8
  1
-> JB-602 (16p)
 11
225.0
 21
663.0
 31
0.0
100
AcDbText
  0
LWPOLYLINE
  5
13B
330
17
100
AcDbEntity
  8
SLOT_BOX
100
AcDbPolyline
 90
4
 70
1
 10
54.0
 20
657.0
 10
416.0
 20
657.0
 10
416.0
 20
640.0
 10
54.0
 20
640.0
  0
TEXT
  5
13C
330
17
100
AcDbEntity
  8
TEXT_MAIN
100
AcDbText
 10
58.0
 20
649.5
 30
0.0
 40
3.4
  1
SLOT 07
 11
58.0
 21
649.5
 31
0.0
100
AcDbText
  0
TEXT
  5
13D
330
17
100
AcDbEntity
  8
TEXT_SUB
100
AcDbText
 10
96.0
 20
649.5
 30
0.0
 40
3.2
  1
1756-IF16/RTD
 11
96.0
 21
649.5
 31
0.0
100
AcDbText
  0
TEXT
  5
13E
330
17
100
AcDbEntity
  8
ROUTING_AI
100
AcDbText
 10
180.0
 20
649.5
 30
0.0
 40
3.2
  1
[AI]
 11
180.0
 21
649.5
 31
0.0
100
AcDbText
  0
TEXT
  5
13F
330
17
100
AcDbEntity
  8
TEXT_ANNOT
100
AcDbText
 10
225.0
 20
644.5
 30
0.0
 40
2.8
  1
-> JB-607 (16p)
 11
225.0
 21
644.5
 31
0.0
100
AcDbText
  0
LWPOLYLINE
  5
140
330
17
100
AcDbEntity
  8
SLOT_BOX
100
AcDbPolyline
 90
4
 70
1
 10
54.0
 20
638.5
 10
416.0
 20
638.5
 10
416.0
 20
621.5
 10
54.0
 20
621.5
  0
TEXT
  5
141
330
17
100
AcDbEntity
  8
TEXT_MAIN
100
AcDbText
 10
58.0
 20
631.0
 30
0.0
 40
3.4
  1
SLOT 08
 11
58.0
 21
631.0
 31
0.0
100
AcDbText
  0
TEXT
  5
142
330
17
100
AcDbEntity
  8
TEXT_SUB
100
AcDbText
 10
96.0
 20
631.0
 30
0.0
 40
3.2
  1
1756-IF16/RTD
 11
96.0
 21
631.0
 31
0.0
100
AcDbText
  0
TEXT
  5
143
330
17
100
AcDbEntity
  8
ROUTING_AI
100
AcDbText
 10
180.0
 20
631.0
 30
0.0
 40
3.2
  1
[AI]
 11
180.0
 21
631.0
 31
0.0
100
AcDbText
  0
TEXT
  5
144
330
17
100
AcDbEntity
  8
TEXT_ANNOT
100
AcDbText
 10
225.0
 20
626.0
 30
0.0
 40
2.8
  1
-> JB-607 (16p)
 11
225.0
 21
626.0
 31
0.0
100
AcDbText
  0
LWPOLYLINE
  5
145
330
17
100
AcDbEntity
  8
SLOT_BOX
100
AcDbPolyline
 90
4
 70
1
 10
54.0
 20
620.0
 10
416.0
 20
620.0
 10
416.0
 20
603.0
 10
54.0
 20
603.0
  0
TEXT
  5
146
330
17
100
AcDbEntity
  8
TEXT_MAIN
100
AcDbText
 10
58.0
 20
612.5
 30
0.0
 40
3.4
  1
SLOT 11
 11
58.0
 21
612.5
 31
0.0
100
AcDbText
  0
TEXT
  5
147
330
17
100
AcDbEntity
  8
TEXT_SUB
100
AcDbText
 10
96.0
 20
612.5
 30
0.0
 40
3.2
  1
1756-OF8
 11
96.0
 21
612.5
 31
0.0
100
AcDbText
  0
TEXT
  5
148
330
17
100
AcDbEntity
  8
ROUTING_AO
100
AcDbText
 10
180.0
 20
612.5
 30
0.0
 40
3.2
  1
[AO]
 11
180.0
 21
612.5
 31
0.0
100
AcDbText
  0
TEXT
  5
149
330
17
100
AcDbEntity
  8
TEXT_ANNOT
100
AcDbText
 10
225.0
 20
607.5
 30
0.0
 40
2.8
  1
-> JB-402 (1p), JB-602 (2p), ..
 11
225.0
 21
607.5
 31
0.0
100
AcDbText
  0
LWPOLYLINE
  5
14A
330
17
100
AcDbEntity
  8
CHASSIS_FRAME
100
AcDbPolyline
 90
4
 70
1
 10
440.0
 20
798.0
 10
810.0
 20
798.0
 10
810.0
 20
681.0
 10
440.0
 20
681.0
  0
LWPOLYLINE
  5
14B
330
17
100
AcDbEntity
  8
0_TITLE_BLOCK
100
AcDbPolyline
 90
4
 70
1
 10
440.0
 20
798.0
 10
810.0
 20
798.0
 10
810.0
 20
772.0
 10
440.0
 20
772.0
  0
TEXT
  5
14C
330
17
100
AcDbEntity
  8
TITLE_TEXT
100
AcDbText
 10
448.0
 20
788.0
 30
0.0
 40
4.2
  1
CHASSIS C4: REMOTE I/O RACK 2
 11
448.0
 21
788.0
 31
0.0
100
AcDbText
  0
TEXT
  5
14D
330
17
100
AcDbEntity
  8
TEXT_SUB
100
AcDbText
 10
448.0
 20
778.0
 30
0.0
 40
3.2
  1
LOC: Field Enclosure (Spray Dryer 6th/8th Fl)
 11
448.0
 21
778.0
 31
0.0
100
AcDbText
  0
LWPOLYLINE
  5
14E
330
17
100
AcDbEntity
  8
SLOT_BOX
100
AcDbPolyline
 90
4
 70
1
 10
444.0
 20
768.0
 10
806.0
 20
768.0
 10
806.0
 20
751.0
 10
444.0
 20
751.0
  0
TEXT
  5
14F
330
17
100
AcDbEntity
  8
TEXT_MAIN
100
AcDbText
 10
448.0
 20
760.5
 30
0.0
 40
3.4
  1
SLOT 00
 11
448.0
 21
760.5
 31
0.0
100
AcDbText
  0
TEXT
  5
150
330
17
100
AcDbEntity
  8
TEXT_SUB
100
AcDbText
 10
486.0
 20
760.5
 30
0.0
 40
3.2
  1
1756-EN4TR
 11
486.0
 21
760.5
 31
0.0
100
AcDbText
  0
TEXT
  5
151
330
17
100
AcDbEntity
  8
ROUTING_ETH
100
AcDbText
 10
570.0
 20
760.5
 30
0.0
 40
3.2
  1
[ETH]
 11
570.0
 21
760.5
 31
0.0
100
AcDbText
  0
TEXT
  5
152
330
17
100
AcDbEntity
  8
TEXT_ANNOT
100
AcDbText
 10
615.0
 20
755.5
 30
0.0
 40
2.8
  1
-> CA1 (1p)
 11
615.0
 21
755.5
 31
0.0
100
AcDbText
  0
LWPOLYLINE
  5
153
330
17
100
AcDbEntity
  8
SLOT_BOX
100
AcDbPolyline
 90
4
 70
1
 10
444.0
 20
749.5
 10
806.0
 20
749.5
 10
806.0
 20
732.5
 10
444.0
 20
732.5
  0
TEXT
  5
154
330
17
100
AcDbEntity
  8
TEXT_MAIN
100
AcDbText
 10
448.0
 20
742.0
 30
0.0
 40
3.4
  1
SLOT 01
 11
448.0
 21
742.0
 31
0.0
100
AcDbText
  0
TEXT
  5
155
330
17
100
AcDbEntity
  8
TEXT_SUB
100
AcDbText
 10
486.0
 20
742.0
 30
0.0
 40
3.2
  1
1756-IB32
 11
486.0
 21
742.0
 31
0.0
100
AcDbText
  0
TEXT
  5
156
330
17
100
AcDbEntity
  8
ROUTING_DI
100
AcDbText
 10
570.0
 20
742.0
 30
0.0
 40
3.2
  1
[DI]
 11
570.0
 21
742.0
 31
0.0
100
AcDbText
  0
TEXT
  5
157
330
17
100
AcDbEntity
  8
TEXT_ANNOT
100
AcDbText
 10
615.0
 20
737.0
 30
0.0
 40
2.8
  1
-> JB-606 (16p)
 11
615.0
 21
737.0
 31
0.0
100
AcDbText
  0
LWPOLYLINE
  5
158
330
17
100
AcDbEntity
  8
SLOT_BOX
100
AcDbPolyline
 90
4
 70
1
 10
444.0
 20
731.0
 10
806.0
 20
731.0
 10
806.0
 20
714.0
 10
444.0
 20
714.0
  0
TEXT
  5
159
330
17
100
AcDbEntity
  8
TEXT_MAIN
100
AcDbText
 10
448.0
 20
723.5
 30
0.0
 40
3.4
  1
SLOT 02
 11
448.0
 21
723.5
 31
0.0
100
AcDbText
  0
TEXT
  5
15A
330
17
100
AcDbEntity
  8
TEXT_SUB
100
AcDbText
 10
486.0
 20
723.5
 30
0.0
 40
3.2
  1
1756-IB32
 11
486.0
 21
723.5
 31
0.0
100
AcDbText
  0
TEXT
  5
15B
330
17
100
AcDbEntity
  8
ROUTING_DI
100
AcDbText
 10
570.0
 20
723.5
 30
0.0
 40
3.2
  1
[DI]
 11
570.0
 21
723.5
 31
0.0
100
AcDbText
  0
TEXT
  5
15C
330
17
100
AcDbEntity
  8
TEXT_ANNOT
100
AcDbText
 10
615.0
 20
718.5
 30
0.0
 40
2.8
  1
-> JB-612 (32p)
 11
615.0
 21
718.5
 31
0.0
100
AcDbText
  0
LWPOLYLINE
  5
15D
330
17
100
AcDbEntity
  8
SLOT_BOX
100
AcDbPolyline
 90
4
 70
1
 10
444.0
 20
712.5
 10
806.0
 20
712.5
 10
806.0
 20
695.5
 10
444.0
 20
695.5
  0
TEXT
  5
15E
330
17
100
AcDbEntity
  8
TEXT_MAIN
100
AcDbText
 10
448.0
 20
705.0
 30
0.0
 40
3.4
  1
SLOT 04
 11
448.0
 21
705.0
 31
0.0
100
AcDbText
  0
TEXT
  5
15F
330
17
100
AcDbEntity
  8
TEXT_SUB
100
AcDbText
 10
486.0
 20
705.0
 30
0.0
 40
3.2
  1
1756-OB32
 11
486.0
 21
705.0
 31
0.0
100
AcDbText
  0
TEXT
  5
160
330
17
100
AcDbEntity
  8
ROUTING_DO
100
AcDbText
 10
570.0
 20
705.0
 30
0.0
 40
3.2
  1
[DO]
 11
570.0
 21
705.0
 31
0.0
100
AcDbText
  0
TEXT
  5
161
330
17
100
AcDbEntity
  8
TEXT_ANNOT
100
AcDbText
 10
615.0
 20
700.0
 30
0.0
 40
2.8
  1
-> JB-606 (8p), JB-612 (16p)
 11
615.0
 21
700.0
 31
0.0
100
AcDbText
  0
LWPOLYLINE
  5
162
330
17
100
AcDbEntity
  8
SLOT_BOX
100
AcDbPolyline
 90
4
 70
1
 10
444.0
 20
694.0
 10
806.0
 20
694.0
 10
806.0
 20
677.0
 10
444.0
 20
677.0
  0
TEXT
  5
163
330
17
100
AcDbEntity
  8
TEXT_MAIN
100
AcDbText
 10
448.0
 20
686.5
 30
0.0
 40
3.4
  1
SLOT 05
 11
448.0
 21
686.5
 31
0.0
100
AcDbText
  0
TEXT
  5
164
330
17
100
AcDbEntity
  8
TEXT_SUB
100
AcDbText
 10
486.0
 20
686.5
 30
0.0
 40
3.2
  1
1756-IF16
 11
486.0
 21
686.5
 31
0.0
100
AcDbText
  0
TEXT
  5
165
330
17
100
AcDbEntity
  8
ROUTING_AI
100
AcDbText
 10
570.0
 20
686.5
 30
0.0
 40
3.2
  1
[AI]
 11
570.0
 21
686.5
 31
0.0
100
AcDbText
  0
TEXT
  5
166
330
17
100
AcDbEntity
  8
TEXT_ANNOT
100
AcDbText
 10
615.0
 20
681.5
 30
0.0
 40
2.8
  1
-> JB-606 (2p), JB-608 (6p), ..
 11
615.0
 21
681.5
 31
0.0
100
AcDbText
  0
LWPOLYLINE
  5
167
330
17
100
AcDbEntity
  8
CHASSIS_FRAME
100
AcDbPolyline
 90
4
 70
1
 10
50.0
 20
528.0
 10
420.0
 20
528.0
 10
420.0
 20
411.0
 10
50.0
 20
411.0
  0
LWPOLYLINE
  5
168
330
17
100
AcDbEntity
  8
0_TITLE_BLOCK
100
AcDbPolyline
 90
4
 70
1
 10
50.0
 20
528.0
 10
420.0
 20
528.0
 10
420.0
 20
502.0
 10
50.0
 20
502.0
  0
TEXT
  5
169
330
17
100
AcDbEntity
  8
TITLE_TEXT
100
AcDbText
 10
58.0
 20
518.0
 30
0.0
 40
4.2
  1
CHASSIS C5: RIO-200 SLURRY PROCESS
 11
58.0
 21
518.0
 31
0.0
100
AcDbText
  0
TEXT
  5
16A
330
17
100
AcDbEntity
  8
TEXT_SUB
100
AcDbText
 10
58.0
 20
508.0
 30
0.0
 40
3.2
  1
LOC: Slurry Out-Building 2nd Floor
 11
58.0
 21
508.0
 31
0.0
100
AcDbText
  0
LWPOLYLINE
  5
16B
330
17
100
AcDbEntity
  8
SLOT_BOX
100
AcDbPolyline
 90
4
 70
1
 10
54.0
 20
498.0
 10
416.0
 20
498.0
 10
416.0
 20
481.0
 10
54.0
 20
481.0
  0
TEXT
  5
16C
330
17
100
AcDbEntity
  8
TEXT_MAIN
100
AcDbText
 10
58.0
 20
490.5
 30
0.0
 40
3.4
  1
SLOT 00
 11
58.0
 21
490.5
 31
0.0
100
AcDbText
  0
TEXT
  5
16D
330
17
100
AcDbEntity
  8
TEXT_SUB
100
AcDbText
 10
96.0
 20
490.5
 30
0.0
 40
3.2
  1
1756-EN4TR
 11
96.0
 21
490.5
 31
0.0
100
AcDbText
  0
TEXT
  5
16E
330
17
100
AcDbEntity
  8
ROUTING_ETH
100
AcDbText
 10
180.0
 20
490.5
 30
0.0
 40
3.2
  1
[ETH]
 11
180.0
 21
490.5
 31
0.0
100
AcDbText
  0
TEXT
  5
16F
330
17
100
AcDbEntity
  8
TEXT_ANNOT
100
AcDbText
 10
225.0
 20
485.5
 30
0.0
 40
2.8
  1
-> CA1 (1p)
 11
225.0
 21
485.5
 31
0.0
100
AcDbText
  0
LWPOLYLINE
  5
170
330
17
100
AcDbEntity
  8
SLOT_BOX
100
AcDbPolyline
 90
4
 70
1
 10
54.0
 20
479.5
 10
416.0
 20
479.5
 10
416.0
 20
462.5
 10
54.0
 20
462.5
  0
TEXT
  5
171
330
17
100
AcDbEntity
  8
TEXT_MAIN
100
AcDbText
 10
58.0
 20
472.0
 30
0.0
 40
3.4
  1
SLOT 01
 11
58.0
 21
472.0
 31
0.0
100
AcDbText
  0
TEXT
  5
172
330
17
100
AcDbEntity
  8
TEXT_SUB
100
AcDbText
 10
96.0
 20
472.0
 30
0.0
 40
3.2
  1
1756-IB32
 11
96.0
 21
472.0
 31
0.0
100
AcDbText
  0
TEXT
  5
173
330
17
100
AcDbEntity
  8
ROUTING_DI
100
AcDbText
 10
180.0
 20
472.0
 30
0.0
 40
3.2
  1
[DI]
 11
180.0
 21
472.0
 31
0.0
100
AcDbText
  0
TEXT
  5
174
330
17
100
AcDbEntity
  8
TEXT_ANNOT
100
AcDbText
 10
225.0
 20
467.0
 30
0.0
 40
2.8
  1
-> RIO-200 (32p)
 11
225.0
 21
467.0
 31
0.0
100
AcDbText
  0
LWPOLYLINE
  5
175
330
17
100
AcDbEntity
  8
SLOT_BOX
100
AcDbPolyline
 90
4
 70
1
 10
54.0
 20
461.0
 10
416.0
 20
461.0
 10
416.0
 20
444.0
 10
54.0
 20
444.0
  0
TEXT
  5
176
330
17
100
AcDbEntity
  8
TEXT_MAIN
100
AcDbText
 10
58.0
 20
453.5
 30
0.0
 40
3.4
  1
SLOT 02
 11
58.0
 21
453.5
 31
0.0
100
AcDbText
  0
TEXT
  5
177
330
17
100
AcDbEntity
  8
TEXT_SUB
100
AcDbText
 10
96.0
 20
453.5
 30
0.0
 40
3.2
  1
1756-IB32
 11
96.0
 21
453.5
 31
0.0
100
AcDbText
  0
TEXT
  5
178
330
17
100
AcDbEntity
  8
ROUTING_DI
100
AcDbText
 10
180.0
 20
453.5
 30
0.0
 40
3.2
  1
[DI]
 11
180.0
 21
453.5
 31
0.0
100
AcDbText
  0
TEXT
  5
179
330
17
100
AcDbEntity
  8
TEXT_ANNOT
100
AcDbText
 10
225.0
 20
448.5
 30
0.0
 40
2.8
  1
-> RIO-200 (32p)
 11
225.0
 21
448.5
 31
0.0
100
AcDbText
  0
LWPOLYLINE
  5
17A
330
17
100
AcDbEntity
  8
SLOT_BOX
100
AcDbPolyline
 90
4
 70
1
 10
54.0
 20
442.5
 10
416.0
 20
442.5
 10
416.0
 20
425.5
 10
54.0
 20
425.5
  0
TEXT
  5
17B
330
17
100
AcDbEntity
  8
TEXT_MAIN
100
AcDbText
 10
58.0
 20
435.0
 30
0.0
 40
3.4
  1
SLOT 03
 11
58.0
 21
435.0
 31
0.0
100
AcDbText
  0
TEXT
  5
17C
330
17
100
AcDbEntity
  8
TEXT_SUB
100
AcDbText
 10
96.0
 20
435.0
 30
0.0
 40
3.2
  1
1756-OB32
 11
96.0
 21
435.0
 31
0.0
100
AcDbText
  0
TEXT
  5
17D
330
17
100
AcDbEntity
  8
ROUTING_DO
100
AcDbText
 10
180.0
 20
435.0
 30
0.0
 40
3.2
  1
[DO]
 11
180.0
 21
435.0
 31
0.0
100
AcDbText
  0
TEXT
  5
17E
330
17
100
AcDbEntity
  8
TEXT_ANNOT
100
AcDbText
 10
225.0
 20
430.0
 30
0.0
 40
2.8
  1
-> RIO-200 (32p)
 11
225.0
 21
430.0
 31
0.0
100
AcDbText
  0
LWPOLYLINE
  5
17F
330
17
100
AcDbEntity
  8
SLOT_BOX
100
AcDbPolyline
 90
4
 70
1
 10
54.0
 20
424.0
 10
416.0
 20
424.0
 10
416.0
 20
407.0
 10
54.0
 20
407.0
  0
TEXT
  5
180
330
17
100
AcDbEntity
  8
TEXT_MAIN
100
AcDbText
 10
58.0
 20
416.5
 30
0.0
 40
3.4
  1
SLOT 04
 11
58.0
 21
416.5
 31
0.0
100
AcDbText
  0
TEXT
  5
181
330
17
100
AcDbEntity
  8
TEXT_SUB
100
AcDbText
 10
96.0
 20
416.5
 30
0.0
 40
3.2
  1
1756-IF16
 11
96.0
 21
416.5
 31
0.0
100
AcDbText
  0
TEXT
  5
182
330
17
100
AcDbEntity
  8
ROUTING_AI
100
AcDbText
 10
180.0
 20
416.5
 30
0.0
 40
3.2
  1
[AI]
 11
180.0
 21
416.5
 31
0.0
100
AcDbText
  0
TEXT
  5
183
330
17
100
AcDbEntity
  8
TEXT_ANNOT
100
AcDbText
 10
225.0
 20
411.5
 30
0.0
 40
2.8
  1
-> RIO-200 (16p)
 11
225.0
 21
411.5
 31
0.0
100
AcDbText
  0
LWPOLYLINE
  5
184
330
17
100
AcDbEntity
  8
CHASSIS_FRAME
100
AcDbPolyline
 90
4
 70
1
 10
440.0
 20
528.0
 10
810.0
 20
528.0
 10
810.0
 20
462.0
 10
440.0
 20
462.0
  0
LWPOLYLINE
  5
185
330
17
100
AcDbEntity
  8
0_TITLE_BLOCK
100
AcDbPolyline
 90
4
 70
1
 10
440.0
 20
528.0
 10
810.0
 20
528.0
 10
810.0
 20
502.0
 10
440.0
 20
502.0
  0
TEXT
  5
186
330
17
100
AcDbEntity
  8
TITLE_TEXT
100
AcDbText
 10
448.0
 20
518.0
 30
0.0
 40
4.2
  1
CHASSIS C6: MOTOR CONTROL INTERFACE
 11
448.0
 21
518.0
 31
0.0
100
AcDbText
  0
TEXT
  5
187
330
17
100
AcDbEntity
  8
TEXT_SUB
100
AcDbText
 10
448.0
 20
508.0
 30
0.0
 40
3.2
  1
LOC: MCC Room Ground Floor
 11
448.0
 21
508.0
 31
0.0
100
AcDbText
  0
LWPOLYLINE
  5
188
330
17
100
AcDbEntity
  8
SLOT_BOX
100
AcDbPolyline
 90
4
 70
1
 10
444.0
 20
498.0
 10
806.0
 20
498.0
 10
806.0
 20
481.0
 10
444.0
 20
481.0
  0
TEXT
  5
189
330
17
100
AcDbEntity
  8
TEXT_MAIN
100
AcDbText
 10
448.0
 20
490.5
 30
0.0
 40
3.4
  1
SLOT 05
 11
448.0
 21
490.5
 31
0.0
100
AcDbText
  0
TEXT
  5
18A
330
17
100
AcDbEntity
  8
TEXT_SUB
100
AcDbText
 10
486.0
 20
490.5
 30
0.0
 40
3.2
  1
1756-OB16
 11
486.0
 21
490.5
 31
0.0
100
AcDbText
  0
TEXT
  5
18B
330
17
100
AcDbEntity
  8
ROUTING_DO
100
AcDbText
 10
570.0
 20
490.5
 30
0.0
 40
3.2
  1
[DO]
 11
570.0
 21
490.5
 31
0.0
100
AcDbText
  0
TEXT
  5
18C
330
17
100
AcDbEntity
  8
TEXT_ANNOT
100
AcDbText
 10
615.0
 20
485.5
 30
0.0
 40
2.8
  1
-> MCC (8p)
 11
615.0
 21
485.5
 31
0.0
100
AcDbText
  0
LWPOLYLINE
  5
18D
330
17
100
AcDbEntity
  8
SLOT_BOX
100
AcDbPolyline
 90
4
 70
1
 10
444.0
 20
479.5
 10
806.0
 20
479.5
 10
806.0
 20
462.5
 10
444.0
 20
462.5
  0
TEXT
  5
18E
330
17
100
AcDbEntity
  8
TEXT_MAIN
100
AcDbText
 10
448.0
 20
472.0
 30
0.0
 40
3.4
  1
SLOT 06
 11
448.0
 21
472.0
 31
0.0
100
AcDbText
  0
TEXT
  5
18F
330
17
100
AcDbEntity
  8
TEXT_SUB
100
AcDbText
 10
486.0
 20
472.0
 30
0.0
 40
3.2
  1
1756-IB16
 11
486.0
 21
472.0
 31
0.0
100
AcDbText
  0
TEXT
  5
190
330
17
100
AcDbEntity
  8
ROUTING_DI
100
AcDbText
 10
570.0
 20
472.0
 30
0.0
 40
3.2
  1
[DI]
 11
570.0
 21
472.0
 31
0.0
100
AcDbText
  0
TEXT
  5
191
330
17
100
AcDbEntity
  8
TEXT_ANNOT
100
AcDbText
 10
615.0
 20
467.0
 30
0.0
 40
2.8
  1
-> MCC (10p)
 11
615.0
 21
467.0
 31
0.0
100
AcDbText
  0
LWPOLYLINE
  5
192
330
17
100
AcDbEntity
  8
CHASSIS_FRAME
100
AcDbPolyline
 90
4
 70
1
 10
50.0
 20
258.0
 10
420.0
 20
258.0
 10
420.0
 20
90.0
 10
50.0
 20
90.0
  0
LWPOLYLINE
  5
193
330
17
100
AcDbEntity
  8
0_TITLE_BLOCK
100
AcDbPolyline
 90
4
 70
1
 10
50.0
 20
258.0
 10
420.0
 20
258.0
 10
420.0
 20
232.0
 10
50.0
 20
232.0
  0
TEXT
  5
194
330
17
100
AcDbEntity
  8
TITLE_TEXT
100
AcDbText
 10
58.0
 20
248.0
 30
0.0
 40
4.2
  1
CHASSIS C7: MCC & BUS SUPERVISORY RACK
 11
58.0
 21
248.0
 31
0.0
100
AcDbText
  0
TEXT
  5
195
330
17
100
AcDbEntity
  8
TEXT_SUB
100
AcDbText
 10
58.0
 20
238.0
 30
0.0
 40
3.2
  1
LOC: MCC Room Ground Floor
 11
58.0
 21
238.0
 31
0.0
100
AcDbText
  0
LWPOLYLINE
  5
196
330
17
100
AcDbEntity
  8
SLOT_BOX
100
AcDbPolyline
 90
4
 70
1
 10
54.0
 20
228.0
 10
416.0
 20
228.0
 10
416.0
 20
211.0
 10
54.0
 20
211.0
  0
TEXT
  5
197
330
17
100
AcDbEntity
  8
TEXT_MAIN
100
AcDbText
 10
58.0
 20
220.5
 30
0.0
 40
3.4
  1
SLOT 00
 11
58.0
 21
220.5
 31
0.0
100
AcDbText
  0
TEXT
  5
198
330
17
100
AcDbEntity
  8
TEXT_SUB
100
AcDbText
 10
96.0
 20
220.5
 30
0.0
 40
3.2
  1
Fieldbus-GW
 11
96.0
 21
220.5
 31
0.0
100
AcDbText
  0
TEXT
  5
199
330
17
100
AcDbEntity
  8
ROUTING_BUS
100
AcDbText
 10
180.0
 20
220.5
 30
0.0
 40
3.2
  1
[BUS]
 11
180.0
 21
220.5
 31
0.0
100
AcDbText
  0
TEXT
  5
19A
330
17
100
AcDbEntity
  8
TEXT_ANNOT
100
AcDbText
 10
225.0
 20
215.5
 30
0.0
 40
2.8
  1
-> JB-601 (1p), JB-607 (1p), ..
 11
225.0
 21
215.5
 31
0.0
100
AcDbText
  0
LWPOLYLINE
  5
19B
330
17
100
AcDbEntity
  8
SLOT_BOX
100
AcDbPolyline
 90
4
 70
1
 10
54.0
 20
209.5
 10
416.0
 20
209.5
 10
416.0
 20
192.5
 10
54.0
 20
192.5
  0
TEXT
  5
19C
330
17
100
AcDbEntity
  8
TEXT_MAIN
100
AcDbText
 10
58.0
 20
202.0
 30
0.0
 40
3.4
  1
SLOT 01
 11
58.0
 21
202.0
 31
0.0
100
AcDbText
  0
TEXT
  5
19D
330
17
100
AcDbEntity
  8
TEXT_SUB
100
AcDbText
 10
96.0
 20
202.0
 30
0.0
 40
3.2
  1
1756-IB32
 11
96.0
 21
202.0
 31
0.0
100
AcDbText
  0
TEXT
  5
19E
330
17
100
AcDbEntity
  8
ROUTING_DI
100
AcDbText
 10
180.0
 20
202.0
 30
0.0
 40
3.2
  1
[DI]
 11
180.0
 21
202.0
 31
0.0
100
AcDbText
  0
TEXT
  5
19F
330
17
100
AcDbEntity
  8
TEXT_ANNOT
100
AcDbText
 10
225.0
 20
197.0
 30
0.0
 40
2.8
  1
-> MCC (32p)
 11
225.0
 21
197.0
 31
0.0
100
AcDbText
  0
LWPOLYLINE
  5
1A0
330
17
100
AcDbEntity
  8
SLOT_BOX
100
AcDbPolyline
 90
4
 70
1
 10
54.0
 20
191.0
 10
416.0
 20
191.0
 10
416.0
 20
174.0
 10
54.0
 20
174.0
  0
TEXT
  5
1A1
330
17
100
AcDbEntity
  8
TEXT_MAIN
100
AcDbText
 10
58.0
 20
183.5
 30
0.0
 40
3.4
  1
SLOT 02
 11
58.0
 21
183.5
 31
0.0
100
AcDbText
  0
TEXT
  5
1A2
330
17
100
AcDbEntity
  8
TEXT_SUB
100
AcDbText
 10
96.0
 20
183.5
 30
0.0
 40
3.2
  1
1756-IB32
 11
96.0
 21
183.5
 31
0.0
100
AcDbText
  0
TEXT
  5
1A3
330
17
100
AcDbEntity
  8
ROUTING_DI
100
AcDbText
 10
180.0
 20
183.5
 30
0.0
 40
3.2
  1
[DI]
 11
180.0
 21
183.5
 31
0.0
100
AcDbText
  0
TEXT
  5
1A4
330
17
100
AcDbEntity
  8
TEXT_ANNOT
100
AcDbText
 10
225.0
 20
178.5
 30
0.0
 40
2.8
  1
-> JB-601 (2p), MCC (30p)
 11
225.0
 21
178.5
 31
0.0
100
AcDbText
  0
LWPOLYLINE
  5
1A5
330
17
100
AcDbEntity
  8
SLOT_BOX
100
AcDbPolyline
 90
4
 70
1
 10
54.0
 20
172.5
 10
416.0
 20
172.5
 10
416.0
 20
155.5
 10
54.0
 20
155.5
  0
TEXT
  5
1A6
330
17
100
AcDbEntity
  8
TEXT_MAIN
100
AcDbText
 10
58.0
 20
165.0
 30
0.0
 40
3.4
  1
SLOT 03
 11
58.0
 21
165.0
 31
0.0
100
AcDbText
  0
TEXT
  5
1A7
330
17
100
AcDbEntity
  8
TEXT_SUB
100
AcDbText
 10
96.0
 20
165.0
 30
0.0
 40
3.2
  1
1756-IB32
 11
96.0
 21
165.0
 31
0.0
100
AcDbText
  0
TEXT
  5
1A8
330
17
100
AcDbEntity
  8
ROUTING_DI
100
AcDbText
 10
180.0
 20
165.0
 30
0.0
 40
3.2
  1
[DI]
 11
180.0
 21
165.0
 31
0.0
100
AcDbText
  0
TEXT
  5
1A9
330
17
100
AcDbEntity
  8
TEXT_ANNOT
100
AcDbText
 10
225.0
 20
160.0
 30
0.0
 40
2.8
  1
-> JB-601 (1p), MCC (25p)
 11
225.0
 21
160.0
 31
0.0
100
AcDbText
  0
LWPOLYLINE
  5
1AA
330
17
100
AcDbEntity
  8
SLOT_BOX
100
AcDbPolyline
 90
4
 70
1
 10
54.0
 20
154.0
 10
416.0
 20
154.0
 10
416.0
 20
137.0
 10
54.0
 20
137.0
  0
TEXT
  5
1AB
330
17
100
AcDbEntity
  8
TEXT_MAIN
100
AcDbText
 10
58.0
 20
146.5
 30
0.0
 40
3.4
  1
SLOT 04
 11
58.0
 21
146.5
 31
0.0
100
AcDbText
  0
TEXT
  5
1AC
330
17
100
AcDbEntity
  8
TEXT_SUB
100
AcDbText
 10
96.0
 20
146.5
 30
0.0
 40
3.2
  1
1756-IB32
 11
96.0
 21
146.5
 31
0.0
100
AcDbText
  0
TEXT
  5
1AD
330
17
100
AcDbEntity
  8
ROUTING_DI
100
AcDbText
 10
180.0
 20
146.5
 30
0.0
 40
3.2
  1
[DI]
 11
180.0
 21
146.5
 31
0.0
100
AcDbText
  0
TEXT
  5
1AE
330
17
100
AcDbEntity
  8
TEXT_ANNOT
100
AcDbText
 10
225.0
 20
141.5
 30
0.0
 40
2.8
  1
-> MCC (28p)
 11
225.0
 21
141.5
 31
0.0
100
AcDbText
  0
LWPOLYLINE
  5
1AF
330
17
100
AcDbEntity
  8
SLOT_BOX
100
AcDbPolyline
 90
4
 70
1
 10
54.0
 20
135.5
 10
416.0
 20
135.5
 10
416.0
 20
118.5
 10
54.0
 20
118.5
  0
TEXT
  5
1B0
330
17
100
AcDbEntity
  8
TEXT_MAIN
100
AcDbText
 10
58.0
 20
128.0
 30
0.0
 40
3.4
  1
SLOT 05
 11
58.0
 21
128.0
 31
0.0
100
AcDbText
  0
TEXT
  5
1B1
330
17
100
AcDbEntity
  8
TEXT_SUB
100
AcDbText
 10
96.0
 20
128.0
 30
0.0
 40
3.2
  1
1756-OB32
 11
96.0
 21
128.0
 31
0.0
100
AcDbText
  0
TEXT
  5
1B2
330
17
100
AcDbEntity
  8
ROUTING_DO
100
AcDbText
 10
180.0
 20
128.0
 30
0.0
 40
3.2
  1
[DO]
 11
180.0
 21
128.0
 31
0.0
100
AcDbText
  0
TEXT
  5
1B3
330
17
100
AcDbEntity
  8
TEXT_ANNOT
100
AcDbText
 10
225.0
 20
123.0
 30
0.0
 40
2.8
  1
-> MCC (32p)
 11
225.0
 21
123.0
 31
0.0
100
AcDbText
  0
LWPOLYLINE
  5
1B4
330
17
100
AcDbEntity
  8
SLOT_BOX
100
AcDbPolyline
 90
4
 70
1
 10
54.0
 20
117.0
 10
416.0
 20
117.0
 10
416.0
 20
100.0
 10
54.0
 20
100.0
  0
TEXT
  5
1B5
330
17
100
AcDbEntity
  8
TEXT_MAIN
100
AcDbText
 10
58.0
 20
109.5
 30
0.0
 40
3.4
  1
SLOT 06
 11
58.0
 21
109.5
 31
0.0
100
AcDbText
  0
TEXT
  5
1B6
330
17
100
AcDbEntity
  8
TEXT_SUB
100
AcDbText
 10
96.0
 20
109.5
 30
0.0
 40
3.2
  1
1756-OB32
 11
96.0
 21
109.5
 31
0.0
100
AcDbText
  0
TEXT
  5
1B7
330
17
100
AcDbEntity
  8
ROUTING_DO
100
AcDbText
 10
180.0
 20
109.5
 30
0.0
 40
3.2
  1
[DO]
 11
180.0
 21
109.5
 31
0.0
100
AcDbText
  0
TEXT
  5
1B8
330
17
100
AcDbEntity
  8
TEXT_ANNOT
100
AcDbText
 10
225.0
 20
104.5
 30
0.0
 40
2.8
  1
-> JB-601 (1p), MCC (31p)
 11
225.0
 21
104.5
 31
0.0
100
AcDbText
  0
LWPOLYLINE
  5
1B9
330
17
100
AcDbEntity
  8
SLOT_BOX
100
AcDbPolyline
 90
4
 70
1
 10
54.0
 20
98.5
 10
416.0
 20
98.5
 10
416.0
 20
81.5
 10
54.0
 20
81.5
  0
TEXT
  5
1BA
330
17
100
AcDbEntity
  8
TEXT_MAIN
100
AcDbText
 10
58.0
 20
91.0
 30
0.0
 40
3.4
  1
SLOT 07
 11
58.0
 21
91.0
 31
0.0
100
AcDbText
  0
TEXT
  5
1BB
330
17
100
AcDbEntity
  8
TEXT_SUB
100
AcDbText
 10
96.0
 20
91.0
 30
0.0
 40
3.2
  1
1756-OB32
 11
96.0
 21
91.0
 31
0.0
100
AcDbText
  0
TEXT
  5
1BC
330
17
100
AcDbEntity
  8
ROUTING_DO
100
AcDbText
 10
180.0
 20
91.0
 30
0.0
 40
3.2
  1
[DO]
 11
180.0
 21
91.0
 31
0.0
100
AcDbText
  0
TEXT
  5
1BD
330
17
100
AcDbEntity
  8
TEXT_ANNOT
100
AcDbText
 10
225.0
 20
86.0
 30
0.0
 40
2.8
  1
-> MCC (24p)
 11
225.0
 21
86.0
 31
0.0
100
AcDbText
  0
LWPOLYLINE
  5
1BE
330
17
100
AcDbEntity
  8
CHASSIS_FRAME
100
AcDbPolyline
 90
4
 70
1
 10
440.0
 20
258.0
 10
810.0
 20
258.0
 10
810.0
 20
107.0
 10
440.0
 20
107.0
  0
LWPOLYLINE
  5
1BF
330
17
100
AcDbEntity
  8
0_TITLE_BLOCK
100
AcDbPolyline
 90
4
 70
1
 10
440.0
 20
258.0
 10
810.0
 20
258.0
 10
810.0
 20
232.0
 10
440.0
 20
232.0
  0
TEXT
  5
1C0
330
17
100
AcDbEntity
  8
TITLE_TEXT
100
AcDbText
 10
448.0
 20
248.0
 30
0.0
 40
4.2
  1
CHASSIS C8: INTRINSICALLY SAFE (IS) SUB-SYSTEM
 11
448.0
 21
248.0
 31
0.0
100
AcDbText
  0
TEXT
  5
1C1
330
17
100
AcDbEntity
  8
TEXT_SUB
100
AcDbText
 10
448.0
 20
238.0
 30
0.0
 40
3.2
  1
LOC: Field Galvanic Isolation Cabinets (Ex Zones)
 11
448.0
 21
238.0
 31
0.0
100
AcDbText
  0
LWPOLYLINE
  5
1C2
330
17
100
AcDbEntity
  8
SLOT_BOX
100
AcDbPolyline
 90
4
 70
1
 10
444.0
 20
228.0
 10
806.0
 20
228.0
 10
806.0
 20
211.0
 10
444.0
 20
211.0
  0
TEXT
  5
1C3
330
17
100
AcDbEntity
  8
TEXT_MAIN
100
AcDbText
 10
448.0
 20
220.5
 30
0.0
 40
3.4
  1
SLOT 01
 11
448.0
 21
220.5
 31
0.0
100
AcDbText
  0
TEXT
  5
1C4
330
17
100
AcDbEntity
  8
TEXT_SUB
100
AcDbText
 10
486.0
 20
220.5
 30
0.0
 40
3.2
  1
IS-IB32
 11
486.0
 21
220.5
 31
0.0
100
AcDbText
  0
TEXT
  5
1C5
330
17
100
AcDbEntity
  8
ROUTING_DI
100
AcDbText
 10
570.0
 20
220.5
 30
0.0
 40
3.2
  1
[DI]
 11
570.0
 21
220.5
 31
0.0
100
AcDbText
  0
TEXT
  5
1C6
330
17
100
AcDbEntity
  8
TEXT_ANNOT
100
AcDbText
 10
615.0
 20
215.5
 30
0.0
 40
2.8
  1
-> IS-JB-603 (16p), IS-JB-608..
 11
615.0
 21
215.5
 31
0.0
100
AcDbText
  0
LWPOLYLINE
  5
1C7
330
17
100
AcDbEntity
  8
SLOT_BOX
100
AcDbPolyline
 90
4
 70
1
 10
444.0
 20
209.5
 10
806.0
 20
209.5
 10
806.0
 20
192.5
 10
444.0
 20
192.5
  0
TEXT
  5
1C8
330
17
100
AcDbEntity
  8
TEXT_MAIN
100
AcDbText
 10
448.0
 20
202.0
 30
0.0
 40
3.4
  1
SLOT 02
 11
448.0
 21
202.0
 31
0.0
100
AcDbText
  0
TEXT
  5
1C9
330
17
100
AcDbEntity
  8
TEXT_SUB
100
AcDbText
 10
486.0
 20
202.0
 30
0.0
 40
3.2
  1
IS-IB32
 11
486.0
 21
202.0
 31
0.0
100
AcDbText
  0
TEXT
  5
1CA
330
17
100
AcDbEntity
  8
ROUTING_DI
100
AcDbText
 10
570.0
 20
202.0
 30
0.0
 40
3.2
  1
[DI]
 11
570.0
 21
202.0
 31
0.0
100
AcDbText
  0
TEXT
  5
1CB
330
17
100
AcDbEntity
  8
TEXT_ANNOT
100
AcDbText
 10
615.0
 20
197.0
 30
0.0
 40
2.8
  1
-> IS-JB-612 (31p)
 11
615.0
 21
197.0
 31
0.0
100
AcDbText
  0
LWPOLYLINE
  5
1CC
330
17
100
AcDbEntity
  8
SLOT_BOX
100
AcDbPolyline
 90
4
 70
1
 10
444.0
 20
191.0
 10
806.0
 20
191.0
 10
806.0
 20
174.0
 10
444.0
 20
174.0
  0
TEXT
  5
1CD
330
17
100
AcDbEntity
  8
TEXT_MAIN
100
AcDbText
 10
448.0
 20
183.5
 30
0.0
 40
3.4
  1
SLOT 03
 11
448.0
 21
183.5
 31
0.0
100
AcDbText
  0
TEXT
  5
1CE
330
17
100
AcDbEntity
  8
TEXT_SUB
100
AcDbText
 10
486.0
 20
183.5
 30
0.0
 40
3.2
  1
IS-IB32
 11
486.0
 21
183.5
 31
0.0
100
AcDbText
  0
TEXT
  5
1CF
330
17
100
AcDbEntity
  8
ROUTING_DI
100
AcDbText
 10
570.0
 20
183.5
 30
0.0
 40
3.2
  1
[DI]
 11
570.0
 21
183.5
 31
0.0
100
AcDbText
  0
TEXT
  5
1D0
330
17
100
AcDbEntity
  8
TEXT_ANNOT
100
AcDbText
 10
615.0
 20
178.5
 30
0.0
 40
2.8
  1
-> IS-JB-618 (32p)
 11
615.0
 21
178.5
 31
0.0
100
AcDbText
  0
LWPOLYLINE
  5
1D1
330
17
100
AcDbEntity
  8
SLOT_BOX
100
AcDbPolyline
 90
4
 70
1
 10
444.0
 20
172.5
 10
806.0
 20
172.5
 10
806.0
 20
155.5
 10
444.0
 20
155.5
  0
TEXT
  5
1D2
330
17
100
AcDbEntity
  8
TEXT_MAIN
100
AcDbText
 10
448.0
 20
165.0
 30
0.0
 40
3.4
  1
SLOT 04
 11
448.0
 21
165.0
 31
0.0
100
AcDbText
  0
TEXT
  5
1D3
330
17
100
AcDbEntity
  8
TEXT_SUB
100
AcDbText
 10
486.0
 20
165.0
 30
0.0
 40
3.2
  1
IS-OB08
 11
486.0
 21
165.0
 31
0.0
100
AcDbText
  0
TEXT
  5
1D4
330
17
100
AcDbEntity
  8
ROUTING_DO
100
AcDbText
 10
570.0
 20
165.0
 30
0.0
 40
3.2
  1
[DO]
 11
570.0
 21
165.0
 31
0.0
100
AcDbText
  0
TEXT
  5
1D5
330
17
100
AcDbEntity
  8
TEXT_ANNOT
100
AcDbText
 10
615.0
 20
160.0
 30
0.0
 40
2.8
  1
-> IS-JB-608 (8p)
 11
615.0
 21
160.0
 31
0.0
100
AcDbText
  0
LWPOLYLINE
  5
1D6
330
17
100
AcDbEntity
  8
SLOT_BOX
100
AcDbPolyline
 90
4
 70
1
 10
444.0
 20
154.0
 10
806.0
 20
154.0
 10
806.0
 20
137.0
 10
444.0
 20
137.0
  0
TEXT
  5
1D7
330
17
100
AcDbEntity
  8
TEXT_MAIN
100
AcDbText
 10
448.0
 20
146.5
 30
0.0
 40
3.4
  1
SLOT 05
 11
448.0
 21
146.5
 31
0.0
100
AcDbText
  0
TEXT
  5
1D8
330
17
100
AcDbEntity
  8
TEXT_SUB
100
AcDbText
 10
486.0
 20
146.5
 30
0.0
 40
3.2
  1
IS-IF16
 11
486.0
 21
146.5
 31
0.0
100
AcDbText
  0
TEXT
  5
1D9
330
17
100
AcDbEntity
  8
ROUTING_AI
100
AcDbText
 10
570.0
 20
146.5
 30
0.0
 40
3.2
  1
[AI]
 11
570.0
 21
146.5
 31
0.0
100
AcDbText
  0
TEXT
  5
1DA
330
17
100
AcDbEntity
  8
TEXT_ANNOT
100
AcDbText
 10
615.0
 20
141.5
 30
0.0
 40
2.8
  1
-> IS-JB-603 (16p)
 11
615.0
 21
141.5
 31
0.0
100
AcDbText
  0
LWPOLYLINE
  5
1DB
330
17
100
AcDbEntity
  8
SLOT_BOX
100
AcDbPolyline
 90
4
 70
1
 10
444.0
 20
135.5
 10
806.0
 20
135.5
 10
806.0
 20
118.5
 10
444.0
 20
118.5
  0
TEXT
  5
1DC
330
17
100
AcDbEntity
  8
TEXT_MAIN
100
AcDbText
 10
448.0
 20
128.0
 30
0.0
 40
3.4
  1
SLOT 06
 11
448.0
 21
128.0
 31
0.0
100
AcDbText
  0
TEXT
  5
1DD
330
17
100
AcDbEntity
  8
TEXT_SUB
100
AcDbText
 10
486.0
 20
128.0
 30
0.0
 40
3.2
  1
IS-IF16
 11
486.0
 21
128.0
 31
0.0
100
AcDbText
  0
TEXT
  5
1DE
330
17
100
AcDbEntity
  8
ROUTING_AI
100
AcDbText
 10
570.0
 20
128.0
 30
0.0
 40
3.2
  1
[AI]
 11
570.0
 21
128.0
 31
0.0
100
AcDbText
  0
TEXT
  5
1DF
330
17
100
AcDbEntity
  8
TEXT_ANNOT
100
AcDbText
 10
615.0
 20
123.0
 30
0.0
 40
2.8
  1
-> IS-JB-608 (8p), IS-JB-612 ..
 11
615.0
 21
123.0
 31
0.0
100
AcDbText
  0
LWPOLYLINE
  5
1E0
330
17
100
AcDbEntity
  8
SLOT_BOX
100
AcDbPolyline
 90
4
 70
1
 10
444.0
 20
117.0
 10
806.0
 20
117.0
 10
806.0
 20
100.0
 10
444.0
 20
100.0
  0
TEXT
  5
1E1
330
17
100
AcDbEntity
  8
TEXT_MAIN
100
AcDbText
 10
448.0
 20
109.5
 30
0.0
 40
3.4
  1
SLOT 07
 11
448.0
 21
109.5
 31
0.0
100
AcDbText
  0
TEXT
  5
1E2
330
17
100
AcDbEntity
  8
TEXT_SUB
100
AcDbText
 10
486.0
 20
109.5
 30
0.0
 40
3.2
  1
IS-IF16
 11
486.0
 21
109.5
 31
0.0
100
AcDbText
  0
TEXT
  5
1E3
330
17
100
AcDbEntity
  8
ROUTING_AI
100
AcDbText
 10
570.0
 20
109.5
 30
0.0
 40
3.2
  1
[AI]
 11
570.0
 21
109.5
 31
0.0
100
AcDbText
  0
TEXT
  5
1E4
330
17
100
AcDbEntity
  8
TEXT_ANNOT
100
AcDbText
 10
615.0
 20
104.5
 30
0.0
 40
2.8
  1
-> IS-JB-618 (12p)
 11
615.0
 21
104.5
 31
0.0
100
AcDbText
  0
LWPOLYLINE
  5
1E5
330
17
100
AcDbEntity
  8
DEST_FRAME
100
AcDbPolyline
 90
4
 70
1
 10
1380.0
 20
1068.0
 10
1750.0
 20
1068.0
 10
1750.0
 20
1022.0
 10
1380.0
 20
1022.0
  0
LWPOLYLINE
  5
1E6
330
17
100
AcDbEntity
  8
0_TITLE_BLOCK
100
AcDbPolyline
 90
4
 70
1
 10
1380.0
 20
1068.0
 10
1750.0
 20
1068.0
 10
1750.0
 20
1050.0
 10
1380.0
 20
1050.0
  0
TEXT
  5
1E7
330
17
100
AcDbEntity
  8
TITLE_TEXT
100
AcDbText
 10
1390.0
 20
1055.0
 30
0.0
 40
5.0
  1
CA1
 11
1390.0
 21
1055.0
 31
0.0
100
AcDbText
  0
TEXT
  5
1E8
330
17
100
AcDbEntity
  8
TEXT_MAIN
100
AcDbText
 10
1695.0
 20
1055.0
 30
0.0
 40
4.5
  1
37 PTS
 11
1695.0
 21
1055.0
 31
0.0
100
AcDbText
  0
TEXT
  5
1E9
330
17
100
AcDbEntity
  8
TEXT_MAIN
100
AcDbText
 10
1390.0
 20
1039.0
 30
0.0
 40
3.4
  1
Control Cabinet CA1
 11
1390.0
 21
1039.0
 31
0.0
100
AcDbText
  0
TEXT
  5
1EA
330
17
100
AcDbEntity
  8
TEXT_SUB
100
AcDbText
 10
1390.0
 20
1029.0
 30
0.0
 40
3.0
  1
LOC: Main Control Room
 11
1390.0
 21
1029.0
 31
0.0
100
AcDbText
  0
LWPOLYLINE
  5
1EB
330
17
100
AcDbEntity
  8
DEST_FRAME
100
AcDbPolyline
 90
4
 70
1
 10
1380.0
 20
1009.0
 10
1750.0
 20
1009.0
 10
1750.0
 20
963.0
 10
1380.0
 20
963.0
  0
LWPOLYLINE
  5
1EC
330
17
100
AcDbEntity
  8
0_TITLE_BLOCK
100
AcDbPolyline
 90
4
 70
1
 10
1380.0
 20
1009.0
 10
1750.0
 20
1009.0
 10
1750.0
 20
991.0
 10
1380.0
 20
991.0
  0
TEXT
  5
1ED
330
17
100
AcDbEntity
  8
TITLE_TEXT
100
AcDbText
 10
1390.0
 20
996.0
 30
0.0
 40
5.0
  1
JB-401
 11
1390.0
 21
996.0
 31
0.0
100
AcDbText
  0
TEXT
  5
1EE
330
17
100
AcDbEntity
  8
TEXT_MAIN
100
AcDbText
 10
1695.0
 20
996.0
 30
0.0
 40
4.5
  1
144 PTS
 11
1695.0
 21
996.0
 31
0.0
100
AcDbText
  0
TEXT
  5
1EF
330
17
100
AcDbEntity
  8
TEXT_MAIN
100
AcDbText
 10
1390.0
 20
980.0
 30
0.0
 40
3.4
  1
Infeed Junction Box
 11
1390.0
 21
980.0
 31
0.0
100
AcDbText
  0
TEXT
  5
1F0
330
17
100
AcDbEntity
  8
TEXT_SUB
100
AcDbText
 10
1390.0
 20
970.0
 30
0.0
 40
3.0
  1
LOC: Infeed 2nd Floor
 11
1390.0
 21
970.0
 31
0.0
100
AcDbText
  0
LWPOLYLINE
  5
1F1
330
17
100
AcDbEntity
  8
DEST_FRAME
100
AcDbPolyline
 90
4
 70
1
 10
1380.0
 20
950.0
 10
1750.0
 20
950.0
 10
1750.0
 20
904.0
 10
1380.0
 20
904.0
  0
LWPOLYLINE
  5
1F2
330
17
100
AcDbEntity
  8
0_TITLE_BLOCK
100
AcDbPolyline
 90
4
 70
1
 10
1380.0
 20
950.0
 10
1750.0
 20
950.0
 10
1750.0
 20
932.0
 10
1380.0
 20
932.0
  0
TEXT
  5
1F3
330
17
100
AcDbEntity
  8
TITLE_TEXT
100
AcDbText
 10
1390.0
 20
937.0
 30
0.0
 40
5.0
  1
JB-402
 11
1390.0
 21
937.0
 31
0.0
100
AcDbText
  0
TEXT
  5
1F4
330
17
100
AcDbEntity
  8
TEXT_MAIN
100
AcDbText
 10
1695.0
 20
937.0
 30
0.0
 40
4.5
  1
65 PTS
 11
1695.0
 21
937.0
 31
0.0
100
AcDbText
  0
TEXT
  5
1F5
330
17
100
AcDbEntity
  8
TEXT_MAIN
100
AcDbText
 10
1390.0
 20
921.0
 30
0.0
 40
3.4
  1
Jet Cooker Junction Box
 11
1390.0
 21
921.0
 31
0.0
100
AcDbText
  0
TEXT
  5
1F6
330
17
100
AcDbEntity
  8
TEXT_SUB
100
AcDbText
 10
1390.0
 20
911.0
 30
0.0
 40
3.0
  1
LOC: Jet Cooker 2nd Floor
 11
1390.0
 21
911.0
 31
0.0
100
AcDbText
  0
LWPOLYLINE
  5
1F7
330
17
100
AcDbEntity
  8
DEST_FRAME
100
AcDbPolyline
 90
4
 70
1
 10
1380.0
 20
891.0
 10
1750.0
 20
891.0
 10
1750.0
 20
845.0
 10
1380.0
 20
845.0
  0
LWPOLYLINE
  5
1F8
330
17
100
AcDbEntity
  8
0_TITLE_BLOCK
100
AcDbPolyline
 90
4
 70
1
 10
1380.0
 20
891.0
 10
1750.0
 20
891.0
 10
1750.0
 20
873.0
 10
1380.0
 20
873.0
  0
TEXT
  5
1F9
330
17
100
AcDbEntity
  8
TITLE_TEXT
100
AcDbText
 10
1390.0
 20
878.0
 30
0.0
 40
5.0
  1
JB-601
 11
1390.0
 21
878.0
 31
0.0
100
AcDbText
  0
TEXT
  5
1FA
330
17
100
AcDbEntity
  8
TEXT_MAIN
100
AcDbText
 10
1695.0
 20
878.0
 30
0.0
 40
4.5
  1
85 PTS
 11
1695.0
 21
878.0
 31
0.0
100
AcDbText
  0
TEXT
  5
1FB
330
17
100
AcDbEntity
  8
TEXT_MAIN
100
AcDbText
 10
1390.0
 20
862.0
 30
0.0
 40
3.4
  1
Spray Dryer Bottom JB
 11
1390.0
 21
862.0
 31
0.0
100
AcDbText
  0
TEXT
  5
1FC
330
17
100
AcDbEntity
  8
TEXT_SUB
100
AcDbText
 10
1390.0
 20
852.0
 30
0.0
 40
3.0
  1
LOC: Spray Dryer 1st Floor
 11
1390.0
 21
852.0
 31
0.0
100
AcDbText
  0
LWPOLYLINE
  5
1FD
330
17
100
AcDbEntity
  8
DEST_FRAME
100
AcDbPolyline
 90
4
 70
1
 10
1380.0
 20
832.0
 10
1750.0
 20
832.0
 10
1750.0
 20
786.0
 10
1380.0
 20
786.0
  0
LWPOLYLINE
  5
1FE
330
17
100
AcDbEntity
  8
0_TITLE_BLOCK
100
AcDbPolyline
 90
4
 70
1
 10
1380.0
 20
832.0
 10
1750.0
 20
832.0
 10
1750.0
 20
814.0
 10
1380.0
 20
814.0
  0
TEXT
  5
1FF
330
17
100
AcDbEntity
  8
TITLE_TEXT
100
AcDbText
 10
1390.0
 20
819.0
 30
0.0
 40
5.0
  1
JB-602
 11
1390.0
 21
819.0
 31
0.0
100
AcDbText
  0
TEXT
  5
200
330
17
100
AcDbEntity
  8
TEXT_MAIN
100
AcDbText
 10
1695.0
 20
819.0
 30
0.0
 40
4.5
  1
66 PTS
 11
1695.0
 21
819.0
 31
0.0
100
AcDbText
  0
TEXT
  5
201
330
17
100
AcDbEntity
  8
TEXT_MAIN
100
AcDbText
 10
1390.0
 20
803.0
 30
0.0
 40
3.4
  1
Spray Dryer Chamber JB
 11
1390.0
 21
803.0
 31
0.0
100
AcDbText
  0
TEXT
  5
202
330
17
100
AcDbEntity
  8
TEXT_SUB
100
AcDbText
 10
1390.0
 20
793.0
 30
0.0
 40
3.0
  1
LOC: Spray Dryer 3rd Floor
 11
1390.0
 21
793.0
 31
0.0
100
AcDbText
  0
LWPOLYLINE
  5
203
330
17
100
AcDbEntity
  8
DEST_FRAME
100
AcDbPolyline
 90
4
 70
1
 10
1380.0
 20
773.0
 10
1750.0
 20
773.0
 10
1750.0
 20
727.0
 10
1380.0
 20
727.0
  0
LWPOLYLINE
  5
204
330
17
100
AcDbEntity
  8
0_TITLE_BLOCK
100
AcDbPolyline
 90
4
 70
1
 10
1380.0
 20
773.0
 10
1750.0
 20
773.0
 10
1750.0
 20
755.0
 10
1380.0
 20
755.0
  0
TEXT
  5
205
330
17
100
AcDbEntity
  8
TITLE_TEXT
100
AcDbText
 10
1390.0
 20
760.0
 30
0.0
 40
5.0
  1
JB-606
 11
1390.0
 21
760.0
 31
0.0
100
AcDbText
  0
TEXT
  5
206
330
17
100
AcDbEntity
  8
TEXT_MAIN
100
AcDbText
 10
1695.0
 20
760.0
 30
0.0
 40
4.5
  1
26 PTS
 11
1695.0
 21
760.0
 31
0.0
100
AcDbText
  0
TEXT
  5
207
330
17
100
AcDbEntity
  8
TEXT_MAIN
100
AcDbText
 10
1390.0
 20
744.0
 30
0.0
 40
3.4
  1
Spray Dryer Filter JB
 11
1390.0
 21
744.0
 31
0.0
100
AcDbText
  0
TEXT
  5
208
330
17
100
AcDbEntity
  8
TEXT_SUB
100
AcDbText
 10
1390.0
 20
734.0
 30
0.0
 40
3.0
  1
LOC: Spray Dryer 6th Floor
 11
1390.0
 21
734.0
 31
0.0
100
AcDbText
  0
LWPOLYLINE
  5
209
330
17
100
AcDbEntity
  8
DEST_FRAME
100
AcDbPolyline
 90
4
 70
1
 10
1380.0
 20
714.0
 10
1750.0
 20
714.0
 10
1750.0
 20
668.0
 10
1380.0
 20
668.0
  0
LWPOLYLINE
  5
20A
330
17
100
AcDbEntity
  8
0_TITLE_BLOCK
100
AcDbPolyline
 90
4
 70
1
 10
1380.0
 20
714.0
 10
1750.0
 20
714.0
 10
1750.0
 20
696.0
 10
1380.0
 20
696.0
  0
TEXT
  5
20B
330
17
100
AcDbEntity
  8
TITLE_TEXT
100
AcDbText
 10
1390.0
 20
701.0
 30
0.0
 40
5.0
  1
JB-607
 11
1390.0
 21
701.0
 31
0.0
100
AcDbText
  0
TEXT
  5
20C
330
17
100
AcDbEntity
  8
TEXT_MAIN
100
AcDbText
 10
1695.0
 20
701.0
 30
0.0
 40
4.5
  1
211 PTS
 11
1695.0
 21
701.0
 31
0.0
100
AcDbText
  0
TEXT
  5
20D
330
17
100
AcDbEntity
  8
TEXT_MAIN
100
AcDbText
 10
1390.0
 20
685.0
 30
0.0
 40
3.4
  1
Spray Dryer Exhaust JB
 11
1390.0
 21
685.0
 31
0.0
100
AcDbText
  0
TEXT
  5
20E
330
17
100
AcDbEntity
  8
TEXT_SUB
100
AcDbText
 10
1390.0
 20
675.0
 30
0.0
 40
3.0
  1
LOC: Spray Dryer 7th Floor
 11
1390.0
 21
675.0
 31
0.0
100
AcDbText
  0
LWPOLYLINE
  5
20F
330
17
100
AcDbEntity
  8
DEST_FRAME
100
AcDbPolyline
 90
4
 70
1
 10
1380.0
 20
655.0
 10
1750.0
 20
655.0
 10
1750.0
 20
609.0
 10
1380.0
 20
609.0
  0
LWPOLYLINE
  5
210
330
17
100
AcDbEntity
  8
0_TITLE_BLOCK
100
AcDbPolyline
 90
4
 70
1
 10
1380.0
 20
655.0
 10
1750.0
 20
655.0
 10
1750.0
 20
637.0
 10
1380.0
 20
637.0
  0
TEXT
  5
211
330
17
100
AcDbEntity
  8
TITLE_TEXT
100
AcDbText
 10
1390.0
 20
642.0
 30
0.0
 40
5.0
  1
JB-608
 11
1390.0
 21
642.0
 31
0.0
100
AcDbText
  0
TEXT
  5
212
330
17
100
AcDbEntity
  8
TEXT_MAIN
100
AcDbText
 10
1695.0
 20
642.0
 30
0.0
 40
4.5
  1
6 PTS
 11
1695.0
 21
642.0
 31
0.0
100
AcDbText
  0
TEXT
  5
213
330
17
100
AcDbEntity
  8
TEXT_MAIN
100
AcDbText
 10
1390.0
 20
626.0
 30
0.0
 40
3.4
  1
Spray Dryer Air Top JB
 11
1390.0
 21
626.0
 31
0.0
100
AcDbText
  0
TEXT
  5
214
330
17
100
AcDbEntity
  8
TEXT_SUB
100
AcDbText
 10
1390.0
 20
616.0
 30
0.0
 40
3.0
  1
LOC: Spray Dryer 8th Floor
 11
1390.0
 21
616.0
 31
0.0
100
AcDbText
  0
LWPOLYLINE
  5
215
330
17
100
AcDbEntity
  8
DEST_FRAME
100
AcDbPolyline
 90
4
 70
1
 10
1380.0
 20
596.0
 10
1750.0
 20
596.0
 10
1750.0
 20
550.0
 10
1380.0
 20
550.0
  0
LWPOLYLINE
  5
216
330
17
100
AcDbEntity
  8
0_TITLE_BLOCK
100
AcDbPolyline
 90
4
 70
1
 10
1380.0
 20
596.0
 10
1750.0
 20
596.0
 10
1750.0
 20
578.0
 10
1380.0
 20
578.0
  0
TEXT
  5
217
330
17
100
AcDbEntity
  8
TITLE_TEXT
100
AcDbText
 10
1390.0
 20
583.0
 30
0.0
 40
5.0
  1
JB-612
 11
1390.0
 21
583.0
 31
0.0
100
AcDbText
  0
TEXT
  5
218
330
17
100
AcDbEntity
  8
TEXT_MAIN
100
AcDbText
 10
1695.0
 20
583.0
 30
0.0
 40
4.5
  1
57 PTS
 11
1695.0
 21
583.0
 31
0.0
100
AcDbText
  0
TEXT
  5
219
330
17
100
AcDbEntity
  8
TEXT_MAIN
100
AcDbText
 10
1390.0
 20
567.0
 30
0.0
 40
3.4
  1
Packing Tower Lower JB
 11
1390.0
 21
567.0
 31
0.0
100
AcDbText
  0
TEXT
  5
21A
330
17
100
AcDbEntity
  8
TEXT_SUB
100
AcDbText
 10
1390.0
 20
557.0
 30
0.0
 40
3.0
  1
LOC: Packing Tower 2nd Floor
 11
1390.0
 21
557.0
 31
0.0
100
AcDbText
  0
LWPOLYLINE
  5
21B
330
17
100
AcDbEntity
  8
DEST_FRAME
100
AcDbPolyline
 90
4
 70
1
 10
1380.0
 20
537.0
 10
1750.0
 20
537.0
 10
1750.0
 20
491.0
 10
1380.0
 20
491.0
  0
LWPOLYLINE
  5
21C
330
17
100
AcDbEntity
  8
0_TITLE_BLOCK
100
AcDbPolyline
 90
4
 70
1
 10
1380.0
 20
537.0
 10
1750.0
 20
537.0
 10
1750.0
 20
519.0
 10
1380.0
 20
519.0
  0
TEXT
  5
21D
330
17
100
AcDbEntity
  8
TITLE_TEXT
100
AcDbText
 10
1390.0
 20
524.0
 30
0.0
 40
5.0
  1
JB-618
 11
1390.0
 21
524.0
 31
0.0
100
AcDbText
  0
TEXT
  5
21E
330
17
100
AcDbEntity
  8
TEXT_MAIN
100
AcDbText
 10
1695.0
 20
524.0
 30
0.0
 40
4.5
  1
52 PTS
 11
1695.0
 21
524.0
 31
0.0
100
AcDbText
  0
TEXT
  5
21F
330
17
100
AcDbEntity
  8
TEXT_MAIN
100
AcDbText
 10
1390.0
 20
508.0
 30
0.0
 40
3.4
  1
Packing Tower Upper JB
 11
1390.0
 21
508.0
 31
0.0
100
AcDbText
  0
TEXT
  5
220
330
17
100
AcDbEntity
  8
TEXT_SUB
100
AcDbText
 10
1390.0
 20
498.0
 30
0.0
 40
3.0
  1
LOC: Packing Tower 8th Floor
 11
1390.0
 21
498.0
 31
0.0
100
AcDbText
  0
LWPOLYLINE
  5
221
330
17
100
AcDbEntity
  8
DEST_FRAME
100
AcDbPolyline
 90
4
 70
1
 10
1380.0
 20
478.0
 10
1750.0
 20
478.0
 10
1750.0
 20
432.0
 10
1380.0
 20
432.0
  0
LWPOLYLINE
  5
222
330
17
100
AcDbEntity
  8
0_TITLE_BLOCK
100
AcDbPolyline
 90
4
 70
1
 10
1380.0
 20
478.0
 10
1750.0
 20
478.0
 10
1750.0
 20
460.0
 10
1380.0
 20
460.0
  0
TEXT
  5
223
330
17
100
AcDbEntity
  8
TITLE_TEXT
100
AcDbText
 10
1390.0
 20
465.0
 30
0.0
 40
5.0
  1
RIO-200
 11
1390.0
 21
465.0
 31
0.0
100
AcDbText
  0
TEXT
  5
224
330
17
100
AcDbEntity
  8
TEXT_MAIN
100
AcDbText
 10
1695.0
 20
465.0
 30
0.0
 40
4.5
  1
112 PTS
 11
1695.0
 21
465.0
 31
0.0
100
AcDbText
  0
TEXT
  5
225
330
17
100
AcDbEntity
  8
TEXT_MAIN
100
AcDbText
 10
1390.0
 20
449.0
 30
0.0
 40
3.4
  1
Remote Slurry Station
 11
1390.0
 21
449.0
 31
0.0
100
AcDbText
  0
TEXT
  5
226
330
17
100
AcDbEntity
  8
TEXT_SUB
100
AcDbText
 10
1390.0
 20
439.0
 30
0.0
 40
3.0
  1
LOC: Slurry Out-Building 2nd Fl
 11
1390.0
 21
439.0
 31
0.0
100
AcDbText
  0
LWPOLYLINE
  5
227
330
17
100
AcDbEntity
  8
DEST_FRAME
100
AcDbPolyline
 90
4
 70
1
 10
1380.0
 20
419.0
 10
1750.0
 20
419.0
 10
1750.0
 20
373.0
 10
1380.0
 20
373.0
  0
LWPOLYLINE
  5
228
330
17
100
AcDbEntity
  8
0_TITLE_BLOCK
100
AcDbPolyline
 90
4
 70
1
 10
1380.0
 20
419.0
 10
1750.0
 20
419.0
 10
1750.0
 20
401.0
 10
1380.0
 20
401.0
  0
TEXT
  5
229
330
17
100
AcDbEntity
  8
TITLE_TEXT
100
AcDbText
 10
1390.0
 20
406.0
 30
0.0
 40
5.0
  1
MCC
 11
1390.0
 21
406.0
 31
0.0
100
AcDbText
  0
TEXT
  5
22A
330
17
100
AcDbEntity
  8
TEXT_MAIN
100
AcDbText
 10
1695.0
 20
406.0
 30
0.0
 40
4.5
  1
237 PTS
 11
1695.0
 21
406.0
 31
0.0
100
AcDbText
  0
TEXT
  5
22B
330
17
100
AcDbEntity
  8
TEXT_MAIN
100
AcDbText
 10
1390.0
 20
390.0
 30
0.0
 40
3.4
  1
Motor Control Center
 11
1390.0
 21
390.0
 31
0.0
100
AcDbText
  0
TEXT
  5
22C
330
17
100
AcDbEntity
  8
TEXT_SUB
100
AcDbText
 10
1390.0
 20
380.0
 30
0.0
 40
3.0
  1
LOC: MCC Room Ground Floor
 11
1390.0
 21
380.0
 31
0.0
100
AcDbText
  0
LWPOLYLINE
  5
22D
330
17
100
AcDbEntity
  8
DEST_FRAME
100
AcDbPolyline
 90
4
 70
1
 10
1380.0
 20
360.0
 10
1750.0
 20
360.0
 10
1750.0
 20
314.0
 10
1380.0
 20
314.0
  0
LWPOLYLINE
  5
22E
330
17
100
AcDbEntity
  8
0_TITLE_BLOCK
100
AcDbPolyline
 90
4
 70
1
 10
1380.0
 20
360.0
 10
1750.0
 20
360.0
 10
1750.0
 20
342.0
 10
1380.0
 20
342.0
  0
TEXT
  5
22F
330
17
100
AcDbEntity
  8
TITLE_TEXT
100
AcDbText
 10
1390.0
 20
347.0
 30
0.0
 40
5.0
  1
IS-JB-603
 11
1390.0
 21
347.0
 31
0.0
100
AcDbText
  0
TEXT
  5
230
330
17
100
AcDbEntity
  8
TEXT_MAIN
100
AcDbText
 10
1695.0
 20
347.0
 30
0.0
 40
4.5
  1
32 PTS
 11
1695.0
 21
347.0
 31
0.0
100
AcDbText
  0
TEXT
  5
231
330
17
100
AcDbEntity
  8
TEXT_MAIN
100
AcDbText
 10
1390.0
 20
331.0
 30
0.0
 40
3.4
  1
IS Chamber Ex JB
 11
1390.0
 21
331.0
 31
0.0
100
AcDbText
  0
TEXT
  5
232
330
17
100
AcDbEntity
  8
TEXT_SUB
100
AcDbText
 10
1390.0
 20
321.0
 30
0.0
 40
3.0
  1
LOC: Spray Dryer 3rd Floor (IS)
 11
1390.0
 21
321.0
 31
0.0
100
AcDbText
  0
LWPOLYLINE
  5
233
330
17
100
AcDbEntity
  8
DEST_FRAME
100
AcDbPolyline
 90
4
 70
1
 10
1380.0
 20
301.0
 10
1750.0
 20
301.0
 10
1750.0
 20
255.0
 10
1380.0
 20
255.0
  0
LWPOLYLINE
  5
234
330
17
100
AcDbEntity
  8
0_TITLE_BLOCK
100
AcDbPolyline
 90
4
 70
1
 10
1380.0
 20
301.0
 10
1750.0
 20
301.0
 10
1750.0
 20
283.0
 10
1380.0
 20
283.0
  0
TEXT
  5
235
330
17
100
AcDbEntity
  8
TITLE_TEXT
100
AcDbText
 10
1390.0
 20
288.0
 30
0.0
 40
5.0
  1
IS-JB-608
 11
1390.0
 21
288.0
 31
0.0
100
AcDbText
  0
TEXT
  5
236
330
17
100
AcDbEntity
  8
TEXT_MAIN
100
AcDbText
 10
1695.0
 20
288.0
 30
0.0
 40
4.5
  1
32 PTS
 11
1695.0
 21
288.0
 31
0.0
100
AcDbText
  0
TEXT
  5
237
330
17
100
AcDbEntity
  8
TEXT_MAIN
100
AcDbText
 10
1390.0
 20
272.0
 30
0.0
 40
3.4
  1
IS Top Level Ex JB
 11
1390.0
 21
272.0
 31
0.0
100
AcDbText
  0
TEXT
  5
238
330
17
100
AcDbEntity
  8
TEXT_SUB
100
AcDbText
 10
1390.0
 20
262.0
 30
0.0
 40
3.0
  1
LOC: Spray Dryer 8th Floor (IS)
 11
1390.0
 21
262.0
 31
0.0
100
AcDbText
  0
LWPOLYLINE
  5
239
330
17
100
AcDbEntity
  8
DEST_FRAME
100
AcDbPolyline
 90
4
 70
1
 10
1380.0
 20
242.0
 10
1750.0
 20
242.0
 10
1750.0
 20
196.0
 10
1380.0
 20
196.0
  0
LWPOLYLINE
  5
23A
330
17
100
AcDbEntity
  8
0_TITLE_BLOCK
100
AcDbPolyline
 90
4
 70
1
 10
1380.0
 20
242.0
 10
1750.0
 20
242.0
 10
1750.0
 20
224.0
 10
1380.0
 20
224.0
  0
TEXT
  5
23B
330
17
100
AcDbEntity
  8
TITLE_TEXT
100
AcDbText
 10
1390.0
 20
229.0
 30
0.0
 40
5.0
  1
IS-JB-612
 11
1390.0
 21
229.0
 31
0.0
100
AcDbText
  0
TEXT
  5
23C
330
17
100
AcDbEntity
  8
TEXT_MAIN
100
AcDbText
 10
1695.0
 20
229.0
 30
0.0
 40
4.5
  1
41 PTS
 11
1695.0
 21
229.0
 31
0.0
100
AcDbText
  0
TEXT
  5
23D
330
17
100
AcDbEntity
  8
TEXT_MAIN
100
AcDbText
 10
1390.0
 20
213.0
 30
0.0
 40
3.4
  1
IS Lower Tower Ex JB
 11
1390.0
 21
213.0
 31
0.0
100
AcDbText
  0
TEXT
  5
23E
330
17
100
AcDbEntity
  8
TEXT_SUB
100
AcDbText
 10
1390.0
 20
203.0
 30
0.0
 40
3.0
  1
LOC: Packing Tower 2nd Fl (IS)
 11
1390.0
 21
203.0
 31
0.0
100
AcDbText
  0
LWPOLYLINE
  5
23F
330
17
100
AcDbEntity
  8
DEST_FRAME
100
AcDbPolyline
 90
4
 70
1
 10
1380.0
 20
183.0
 10
1750.0
 20
183.0
 10
1750.0
 20
137.0
 10
1380.0
 20
137.0
  0
LWPOLYLINE
  5
240
330
17
100
AcDbEntity
  8
0_TITLE_BLOCK
100
AcDbPolyline
 90
4
 70
1
 10
1380.0
 20
183.0
 10
1750.0
 20
183.0
 10
1750.0
 20
165.0
 10
1380.0
 20
165.0
  0
TEXT
  5
241
330
17
100
AcDbEntity
  8
TITLE_TEXT
100
AcDbText
 10
1390.0
 20
170.0
 30
0.0
 40
5.0
  1
IS-JB-618
 11
1390.0
 21
170.0
 31
0.0
100
AcDbText
  0
TEXT
  5
242
330
17
100
AcDbEntity
  8
TEXT_MAIN
100
AcDbText
 10
1695.0
 20
170.0
 30
0.0
 40
4.5
  1
44 PTS
 11
1695.0
 21
170.0
 31
0.0
100
AcDbText
  0
TEXT
  5
243
330
17
100
AcDbEntity
  8
TEXT_MAIN
100
AcDbText
 10
1390.0
 20
154.0
 30
0.0
 40
3.4
  1
IS Upper Tower Ex JB
 11
1390.0
 21
154.0
 31
0.0
100
AcDbText
  0
TEXT
  5
244
330
17
100
AcDbEntity
  8
TEXT_SUB
100
AcDbText
 10
1390.0
 20
144.0
 30
0.0
 40
3.0
  1
LOC: Packing Tower 8th Fl (IS)
 11
1390.0
 21
144.0
 31
0.0
100
AcDbText
  0
LWPOLYLINE
  5
245
330
17
100
AcDbEntity
  8
ROUTING_ETH
100
AcDbPolyline
 90
2
 70
0
 10
416.0
 20
1029.5
 10
870.0
 20
1029.5
  0
CIRCLE
  5
246
330
17
100
AcDbEntity
  8
ROUTING_ETH
100
AcDbCircle
 10
416.0
 20
1029.5
 30
0.0
 40
1.2
  0
LWPOLYLINE
  5
247
330
17
100
AcDbEntity
  8
ROUTING_ETH
100
AcDbPolyline
 90
2
 70
0
 10
416.0
 20
1011.0
 10
870.0
 20
1011.0
  0
CIRCLE
  5
248
330
17
100
AcDbEntity
  8
ROUTING_ETH
100
AcDbCircle
 10
416.0
 20
1011.0
 30
0.0
 40
1.2
  0
LWPOLYLINE
  5
249
330
17
100
AcDbEntity
  8
ROUTING_ETH
100
AcDbPolyline
 90
2
 70
0
 10
416.0
 20
992.5
 10
870.0
 20
992.5
  0
CIRCLE
  5
24A
330
17
100
AcDbEntity
  8
ROUTING_ETH
100
AcDbCircle
 10
416.0
 20
992.5
 30
0.0
 40
1.2
  0
LWPOLYLINE
  5
24B
330
17
100
AcDbEntity
  8
ROUTING_ETH
100
AcDbPolyline
 90
2
 70
0
 10
416.0
 20
974.0
 10
870.0
 20
974.0
  0
CIRCLE
  5
24C
330
17
100
AcDbEntity
  8
ROUTING_ETH
100
AcDbCircle
 10
416.0
 20
974.0
 30
0.0
 40
1.2
  0
LWPOLYLINE
  5
24D
330
17
100
AcDbEntity
  8
ROUTING_ETH
100
AcDbPolyline
 90
2
 70
0
 10
416.0
 20
955.5
 10
870.0
 20
955.5
  0
CIRCLE
  5
24E
330
17
100
AcDbEntity
  8
ROUTING_ETH
100
AcDbCircle
 10
416.0
 20
955.5
 30
0.0
 40
1.2
  0
LWPOLYLINE
  5
24F
330
17
100
AcDbEntity
  8
ROUTING_ETH
100
AcDbPolyline
 90
2
 70
0
 10
416.0
 20
881.5
 10
870.0
 20
881.5
  0
CIRCLE
  5
250
330
17
100
AcDbEntity
  8
ROUTING_ETH
100
AcDbCircle
 10
416.0
 20
881.5
 30
0.0
 40
1.2
  0
LWPOLYLINE
  5
251
330
17
100
AcDbEntity
  8
ROUTING_ETH
100
AcDbPolyline
 90
2
 70
0
 10
870.0
 20
881.5
 10
870.0
 20
1045.0
  0
LWPOLYLINE
  5
252
330
17
100
AcDbEntity
  8
ROUTING_ETH
100
AcDbPolyline
 90
2
 70
0
 10
870.0
 20
1045.0
 10
1380.0
 20
1045.0
  0
CIRCLE
  5
253
330
17
100
AcDbEntity
  8
ROUTING_ETH
100
AcDbCircle
 10
1380.0
 20
1045.0
 30
0.0
 40
1.5
  0
TEXT
  5
254
330
17
100
AcDbEntity
  8
TEXT_ANNOT
100
AcDbText
 10
872.0
 20
1047.5
 30
0.0
 40
2.4
  1
C1 [S:00, 01, 02, 03, 04, 08] -> 36p
 11
872.0
 21
1047.5
 31
0.0
100
AcDbText
  0
LWPOLYLINE
  5
255
330
17
100
AcDbEntity
  8
ROUTING_DI
100
AcDbPolyline
 90
2
 70
0
 10
416.0
 20
955.5
 10
898.2352941176471
 20
955.5
  0
CIRCLE
  5
256
330
17
100
AcDbEntity
  8
ROUTING_DI
100
AcDbCircle
 10
416.0
 20
955.5
 30
0.0
 40
1.2
  0
LWPOLYLINE
  5
257
330
17
100
AcDbEntity
  8
ROUTING_DI
100
AcDbPolyline
 90
2
 70
0
 10
416.0
 20
937.0
 10
898.2352941176471
 20
937.0
  0
CIRCLE
  5
258
330
17
100
AcDbEntity
  8
ROUTING_DI
100
AcDbCircle
 10
416.0
 20
937.0
 30
0.0
 40
1.2
  0
LWPOLYLINE
  5
259
330
17
100
AcDbEntity
  8
ROUTING_DI
100
AcDbPolyline
 90
2
 70
0
 10
416.0
 20
918.5
 10
898.2352941176471
 20
918.5
  0
CIRCLE
  5
25A
330
17
100
AcDbEntity
  8
ROUTING_DI
100
AcDbCircle
 10
416.0
 20
918.5
 30
0.0
 40
1.2
  0
LWPOLYLINE
  5
25B
330
17
100
AcDbEntity
  8
ROUTING_DI
100
AcDbPolyline
 90
2
 70
0
 10
416.0
 20
881.5
 10
898.2352941176471
 20
881.5
  0
CIRCLE
  5
25C
330
17
100
AcDbEntity
  8
ROUTING_DI
100
AcDbCircle
 10
416.0
 20
881.5
 30
0.0
 40
1.2
  0
LWPOLYLINE
  5
25D
330
17
100
AcDbEntity
  8
ROUTING_DI
100
AcDbPolyline
 90
2
 70
0
 10
416.0
 20
863.0
 10
898.2352941176471
 20
863.0
  0
CIRCLE
  5
25E
330
17
100
AcDbEntity
  8
ROUTING_DI
100
AcDbCircle
 10
416.0
 20
863.0
 30
0.0
 40
1.2
  0
LWPOLYLINE
  5
25F
330
17
100
AcDbEntity
  8
ROUTING_DI
100
AcDbPolyline
 90
2
 70
0
 10
416.0
 20
844.5
 10
898.2352941176471
 20
844.5
  0
CIRCLE
  5
260
330
17
100
AcDbEntity
  8
ROUTING_DI
100
AcDbCircle
 10
416.0
 20
844.5
 30
0.0
 40
1.2
  0
LWPOLYLINE
  5
261
330
17
100
AcDbEntity
  8
ROUTING_DI
100
AcDbPolyline
 90
2
 70
0
 10
898.2352941176471
 20
844.5
 10
898.2352941176471
 20
986.0
  0
LWPOLYLINE
  5
262
330
17
100
AcDbEntity
  8
ROUTING_DI
100
AcDbPolyline
 90
2
 70
0
 10
898.2352941176471
 20
986.0
 10
1380.0
 20
986.0
  0
CIRCLE
  5
263
330
17
100
AcDbEntity
  8
ROUTING_DI
100
AcDbCircle
 10
1380.0
 20
986.0
 30
0.0
 40
1.5
  0
TEXT
  5
264
330
17
100
AcDbEntity
  8
TEXT_ANNOT
100
AcDbText
 10
900.2352941176471
 20
988.5
 30
0.0
 40
2.4
  1
C1 [S:04, 05, 06, 08, 09, 10] -> 112p
 11
900.2352941176471
 21
988.5
 31
0.0
100
AcDbText
  0
LWPOLYLINE
  5
265
330
17
100
AcDbEntity
  8
ROUTING_DI
100
AcDbPolyline
 90
2
 70
0
 10
416.0
 20
918.5
 10
954.7058823529412
 20
918.5
  0
CIRCLE
  5
266
330
17
100
AcDbEntity
  8
ROUTING_DI
100
AcDbCircle
 10
416.0
 20
918.5
 30
0.0
 40
1.2
  0
LWPOLYLINE
  5
267
330
17
100
AcDbEntity
  8
ROUTING_DI
100
AcDbPolyline
 90
2
 70
0
 10
416.0
 20
900.0
 10
954.7058823529412
 20
900.0
  0
CIRCLE
  5
268
330
17
100
AcDbEntity
  8
ROUTING_DI
100
AcDbCircle
 10
416.0
 20
900.0
 30
0.0
 40
1.2
  0
LWPOLYLINE
  5
269
330
17
100
AcDbEntity
  8
ROUTING_DI
100
AcDbPolyline
 90
2
 70
0
 10
416.0
 20
863.0
 10
954.7058823529412
 20
863.0
  0
CIRCLE
  5
26A
330
17
100
AcDbEntity
  8
ROUTING_DI
100
AcDbCircle
 10
416.0
 20
863.0
 30
0.0
 40
1.2
  0
LWPOLYLINE
  5
26B
330
17
100
AcDbEntity
  8
ROUTING_DI
100
AcDbPolyline
 90
2
 70
0
 10
416.0
 20
826.0
 10
954.7058823529412
 20
826.0
  0
CIRCLE
  5
26C
330
17
100
AcDbEntity
  8
ROUTING_DI
100
AcDbCircle
 10
416.0
 20
826.0
 30
0.0
 40
1.2
  0
LWPOLYLINE
  5
26D
330
17
100
AcDbEntity
  8
ROUTING_DI
100
AcDbPolyline
 90
2
 70
0
 10
954.7058823529412
 20
826.0
 10
954.7058823529412
 20
918.5
  0
LWPOLYLINE
  5
26E
330
17
100
AcDbEntity
  8
ROUTING_DI
100
AcDbPolyline
 90
2
 70
0
 10
954.7058823529412
 20
868.0
 10
1380.0
 20
868.0
  0
CIRCLE
  5
26F
330
17
100
AcDbEntity
  8
ROUTING_DI
100
AcDbCircle
 10
1380.0
 20
868.0
 30
0.0
 40
1.5
  0
TEXT
  5
270
330
17
100
AcDbEntity
  8
TEXT_ANNOT
100
AcDbText
 10
956.7058823529412
 20
870.5
 30
0.0
 40
2.4
  1
C1 [S:06, 07, 09, 11] -> 80p
 11
956.7058823529412
 21
870.5
 31
0.0
100
AcDbText
  0
LWPOLYLINE
  5
271
330
17
100
AcDbEntity
  8
ROUTING_ETH
100
AcDbPolyline
 90
2
 70
0
 10
806.0
 20
1029.5
 10
870.0
 20
1029.5
  0
CIRCLE
  5
272
330
17
100
AcDbEntity
  8
ROUTING_ETH
100
AcDbCircle
 10
806.0
 20
1029.5
 30
0.0
 40
1.2
  0
LWPOLYLINE
  5
273
330
17
100
AcDbEntity
  8
ROUTING_ETH
100
AcDbPolyline
 90
2
 70
0
 10
870.0
 20
1029.5
 10
870.0
 20
1045.0
  0
LWPOLYLINE
  5
274
330
17
100
AcDbEntity
  8
ROUTING_ETH
100
AcDbPolyline
 90
2
 70
0
 10
870.0
 20
1045.0
 10
1380.0
 20
1045.0
  0
CIRCLE
  5
275
330
17
100
AcDbEntity
  8
ROUTING_ETH
100
AcDbCircle
 10
1380.0
 20
1045.0
 30
0.0
 40
1.5
  0
TEXT
  5
276
330
17
100
AcDbEntity
  8
TEXT_ANNOT
100
AcDbText
 10
872.0
 20
1047.5
 30
0.0
 40
2.4
  1
C2 [S:00] -> 1p
 11
872.0
 21
1047.5
 31
0.0
100
AcDbText
  0
LWPOLYLINE
  5
277
330
17
100
AcDbEntity
  8
ROUTING_DI
100
AcDbPolyline
 90
2
 70
0
 10
806.0
 20
1011.0
 10
926.4705882352941
 20
1011.0
  0
CIRCLE
  5
278
330
17
100
AcDbEntity
  8
ROUTING_DI
100
AcDbCircle
 10
806.0
 20
1011.0
 30
0.0
 40
1.2
  0
LWPOLYLINE
  5
279
330
17
100
AcDbEntity
  8
ROUTING_DI
100
AcDbPolyline
 90
2
 70
0
 10
806.0
 20
918.5
 10
926.4705882352941
 20
918.5
  0
CIRCLE
  5
27A
330
17
100
AcDbEntity
  8
ROUTING_DI
100
AcDbCircle
 10
806.0
 20
918.5
 30
0.0
 40
1.2
  0
LWPOLYLINE
  5
27B
330
17
100
AcDbEntity
  8
ROUTING_DI
100
AcDbPolyline
 90
2
 70
0
 10
806.0
 20
863.0
 10
926.4705882352941
 20
863.0
  0
CIRCLE
  5
27C
330
17
100
AcDbEntity
  8
ROUTING_DI
100
AcDbCircle
 10
806.0
 20
863.0
 30
0.0
 40
1.2
  0
LWPOLYLINE
  5
27D
330
17
100
AcDbEntity
  8
ROUTING_DI
100
AcDbPolyline
 90
2
 70
0
 10
926.4705882352941
 20
863.0
 10
926.4705882352941
 20
1011.0
  0
LWPOLYLINE
  5
27E
330
17
100
AcDbEntity
  8
ROUTING_DI
100
AcDbPolyline
 90
2
 70
0
 10
926.4705882352941
 20
927.0
 10
1380.0
 20
927.0
  0
CIRCLE
  5
27F
330
17
100
AcDbEntity
  8
ROUTING_DI
100
AcDbCircle
 10
1380.0
 20
927.0
 30
0.0
 40
1.5
  0
TEXT
  5
280
330
17
100
AcDbEntity
  8
TEXT_ANNOT
100
AcDbText
 10
928.4705882352941
 20
929.5
 30
0.0
 40
2.4
  1
C2 [S:01, 06, 09] -> 64p
 11
928.4705882352941
 21
929.5
 31
0.0
100
AcDbText
  0
LWPOLYLINE
  5
281
330
17
100
AcDbEntity
  8
ROUTING_DI
100
AcDbPolyline
 90
2
 70
0
 10
806.0
 20
992.5
 10
982.9411764705883
 20
992.5
  0
CIRCLE
  5
282
330
17
100
AcDbEntity
  8
ROUTING_DI
100
AcDbCircle
 10
806.0
 20
992.5
 30
0.0
 40
1.2
  0
LWPOLYLINE
  5
283
330
17
100
AcDbEntity
  8
ROUTING_DI
100
AcDbPolyline
 90
2
 70
0
 10
806.0
 20
918.5
 10
982.9411764705883
 20
918.5
  0
CIRCLE
  5
284
330
17
100
AcDbEntity
  8
ROUTING_DI
100
AcDbCircle
 10
806.0
 20
918.5
 30
0.0
 40
1.2
  0
LWPOLYLINE
  5
285
330
17
100
AcDbEntity
  8
ROUTING_DI
100
AcDbPolyline
 90
2
 70
0
 10
806.0
 20
844.5
 10
982.9411764705883
 20
844.5
  0
CIRCLE
  5
286
330
17
100
AcDbEntity
  8
ROUTING_DI
100
AcDbCircle
 10
806.0
 20
844.5
 30
0.0
 40
1.2
  0
LWPOLYLINE
  5
287
330
17
100
AcDbEntity
  8
ROUTING_DI
100
AcDbPolyline
 90
2
 70
0
 10
982.9411764705883
 20
809.0
 10
982.9411764705883
 20
992.5
  0
LWPOLYLINE
  5
288
330
17
100
AcDbEntity
  8
ROUTING_DI
100
AcDbPolyline
 90
2
 70
0
 10
982.9411764705883
 20
809.0
 10
1380.0
 20
809.0
  0
CIRCLE
  5
289
330
17
100
AcDbEntity
  8
ROUTING_DI
100
AcDbCircle
 10
1380.0
 20
809.0
 30
0.0
 40
1.5
  0
TEXT
  5
28A
330
17
100
AcDbEntity
  8
TEXT_ANNOT
100
AcDbText
 10
984.9411764705883
 20
811.5
 30
0.0
 40
2.4
  1
C2 [S:02, 06, 10] -> 64p
 11
984.9411764705883
 21
811.5
 31
0.0
100
AcDbText
  0
LWPOLYLINE
  5
28B
330
17
100
AcDbEntity
  8
ROUTING_DI
100
AcDbPolyline
 90
2
 70
0
 10
806.0
 20
974.0
 10
1039.4117647058824
 20
974.0
  0
CIRCLE
  5
28C
330
17
100
AcDbEntity
  8
ROUTING_DI
100
AcDbCircle
 10
806.0
 20
974.0
 30
0.0
 40
1.2
  0
LWPOLYLINE
  5
28D
330
17
100
AcDbEntity
  8
ROUTING_DI
100
AcDbPolyline
 90
2
 70
0
 10
806.0
 20
955.5
 10
1039.4117647058824
 20
955.5
  0
CIRCLE
  5
28E
330
17
100
AcDbEntity
  8
ROUTING_DI
100
AcDbCircle
 10
806.0
 20
955.5
 30
0.0
 40
1.2
  0
LWPOLYLINE
  5
28F
330
17
100
AcDbEntity
  8
ROUTING_DI
100
AcDbPolyline
 90
2
 70
0
 10
806.0
 20
937.0
 10
1039.4117647058824
 20
937.0
  0
CIRCLE
  5
290
330
17
100
AcDbEntity
  8
ROUTING_DI
100
AcDbCircle
 10
806.0
 20
937.0
 30
0.0
 40
1.2
  0
LWPOLYLINE
  5
291
330
17
100
AcDbEntity
  8
ROUTING_DI
100
AcDbPolyline
 90
2
 70
0
 10
806.0
 20
900.0
 10
1039.4117647058824
 20
900.0
  0
CIRCLE
  5
292
330
17
100
AcDbEntity
  8
ROUTING_DI
100
AcDbCircle
 10
806.0
 20
900.0
 30
0.0
 40
1.2
  0
LWPOLYLINE
  5
293
330
17
100
AcDbEntity
  8
ROUTING_DI
100
AcDbPolyline
 90
2
 70
0
 10
806.0
 20
881.5
 10
1039.4117647058824
 20
881.5
  0
CIRCLE
  5
294
330
17
100
AcDbEntity
  8
ROUTING_DI
100
AcDbCircle
 10
806.0
 20
881.5
 30
0.0
 40
1.2
  0
LWPOLYLINE
  5
295
330
17
100
AcDbEntity
  8
ROUTING_DI
100
AcDbPolyline
 90
2
 70
0
 10
1039.4117647058824
 20
691.0
 10
1039.4117647058824
 20
974.0
  0
LWPOLYLINE
  5
296
330
17
100
AcDbEntity
  8
ROUTING_DI
100
AcDbPolyline
 90
2
 70
0
 10
1039.4117647058824
 20
691.0
 10
1380.0
 20
691.0
  0
CIRCLE
  5
297
330
17
100
AcDbEntity
  8
ROUTING_DI
100
AcDbCircle
 10
1380.0
 20
691.0
 30
0.0
 40
1.5
  0
TEXT
  5
298
330
17
100
AcDbEntity
  8
TEXT_ANNOT
100
AcDbText
 10
1041.4117647058824
 20
693.5
 30
0.0
 40
2.4
  1
C2 [S:03, 04, 05, 07, 08] -> 157p
 11
1041.4117647058824
 21
693.5
 31
0.0
100
AcDbText
  0
LWPOLYLINE
  5
299
330
17
100
AcDbEntity
  8
ROUTING_ETH
100
AcDbPolyline
 90
2
 70
0
 10
416.0
 20
759.5
 10
870.0
 20
759.5
  0
CIRCLE
  5
29A
330
17
100
AcDbEntity
  8
ROUTING_ETH
100
AcDbCircle
 10
416.0
 20
759.5
 30
0.0
 40
1.2
  0
LWPOLYLINE
  5
29B
330
17
100
AcDbEntity
  8
ROUTING_ETH
100
AcDbPolyline
 90
2
 70
0
 10
870.0
 20
759.5
 10
870.0
 20
1045.0
  0
LWPOLYLINE
  5
29C
330
17
100
AcDbEntity
  8
ROUTING_ETH
100
AcDbPolyline
 90
2
 70
0
 10
870.0
 20
1045.0
 10
1380.0
 20
1045.0
  0
CIRCLE
  5
29D
330
17
100
AcDbEntity
  8
ROUTING_ETH
100
AcDbCircle
 10
1380.0
 20
1045.0
 30
0.0
 40
1.5
  0
TEXT
  5
29E
330
17
100
AcDbEntity
  8
TEXT_ANNOT
100
AcDbText
 10
872.0
 20
1047.5
 30
0.0
 40
2.4
  1
C3 [S:00] -> 1p
 11
872.0
 21
1047.5
 31
0.0
100
AcDbText
  0
LWPOLYLINE
  5
29F
330
17
100
AcDbEntity
  8
ROUTING_DI
100
AcDbPolyline
 90
2
 70
0
 10
416.0
 20
741.0
 10
1124.1176470588234
 20
741.0
  0
CIRCLE
  5
2A0
330
17
100
AcDbEntity
  8
ROUTING_DI
100
AcDbCircle
 10
416.0
 20
741.0
 30
0.0
 40
1.2
  0
LWPOLYLINE
  5
2A1
330
17
100
AcDbEntity
  8
ROUTING_DI
100
AcDbPolyline
 90
2
 70
0
 10
416.0
 20
722.5
 10
1124.1176470588234
 20
722.5
  0
CIRCLE
  5
2A2
330
17
100
AcDbEntity
  8
ROUTING_DI
100
AcDbCircle
 10
416.0
 20
722.5
 30
0.0
 40
1.2
  0
LWPOLYLINE
  5
2A3
330
17
100
AcDbEntity
  8
ROUTING_DI
100
AcDbPolyline
 90
2
 70
0
 10
416.0
 20
704.0
 10
1124.1176470588234
 20
704.0
  0
CIRCLE
  5
2A4
330
17
100
AcDbEntity
  8
ROUTING_DI
100
AcDbCircle
 10
416.0
 20
704.0
 30
0.0
 40
1.2
  0
LWPOLYLINE
  5
2A5
330
17
100
AcDbEntity
  8
ROUTING_DI
100
AcDbPolyline
 90
2
 70
0
 10
416.0
 20
685.5
 10
1124.1176470588234
 20
685.5
  0
CIRCLE
  5
2A6
330
17
100
AcDbEntity
  8
ROUTING_DI
100
AcDbCircle
 10
416.0
 20
685.5
 30
0.0
 40
1.2
  0
LWPOLYLINE
  5
2A7
330
17
100
AcDbEntity
  8
ROUTING_DI
100
AcDbPolyline
 90
2
 70
0
 10
1124.1176470588234
 20
514.0
 10
1124.1176470588234
 20
741.0
  0
LWPOLYLINE
  5
2A8
330
17
100
AcDbEntity
  8
ROUTING_DI
100
AcDbPolyline
 90
2
 70
0
 10
1124.1176470588234
 20
514.0
 10
1380.0
 20
514.0
  0
CIRCLE
  5
2A9
330
17
100
AcDbEntity
  8
ROUTING_DI
100
AcDbCircle
 10
1380.0
 20
514.0
 30
0.0
 40
1.5
  0
TEXT
  5
2AA
330
17
100
AcDbEntity
  8
TEXT_ANNOT
100
AcDbText
 10
1126.1176470588234
 20
516.5
 30
0.0
 40
2.4
  1
C3 [S:01, 02, 03, 05] -> 52p
 11
1126.1176470588234
 21
516.5
 31
0.0
100
AcDbText
  0
LWPOLYLINE
  5
2AB
330
17
100
AcDbEntity
  8
ROUTING_AI
100
AcDbPolyline
 90
2
 70
0
 10
416.0
 20
667.0
 10
982.9411764705883
 20
667.0
  0
CIRCLE
  5
2AC
330
17
100
AcDbEntity
  8
ROUTING_AI
100
AcDbCircle
 10
416.0
 20
667.0
 30
0.0
 40
1.2
  0
LWPOLYLINE
  5
2AD
330
17
100
AcDbEntity
  8
ROUTING_AI
100
AcDbPolyline
 90
2
 70
0
 10
416.0
 20
611.5
 10
982.9411764705883
 20
611.5
  0
CIRCLE
  5
2AE
330
17
100
AcDbEntity
  8
ROUTING_AI
100
AcDbCircle
 10
416.0
 20
611.5
 30
0.0
 40
1.2
  0
LWPOLYLINE
  5
2AF
330
17
100
AcDbEntity
  8
ROUTING_AI
100
AcDbPolyline
 90
2
 70
0
 10
982.9411764705883
 20
611.5
 10
982.9411764705883
 20
809.0
  0
LWPOLYLINE
  5
2B0
330
17
100
AcDbEntity
  8
ROUTING_AI
100
AcDbPolyline
 90
2
 70
0
 10
982.9411764705883
 20
809.0
 10
1380.0
 20
809.0
  0
CIRCLE
  5
2B1
330
17
100
AcDbEntity
  8
ROUTING_AI
100
AcDbCircle
 10
1380.0
 20
809.0
 30
0.0
 40
1.5
  0
TEXT
  5
2B2
330
17
100
AcDbEntity
  8
TEXT_ANNOT
100
AcDbText
 10
984.9411764705883
 20
811.5
 30
0.0
 40
2.4
  1
C3 [S:06, 11] -> 18p
 11
984.9411764705883
 21
811.5
 31
0.0
100
AcDbText
  0
LWPOLYLINE
  5
2B3
330
17
100
AcDbEntity
  8
ROUTING_AI
100
AcDbPolyline
 90
2
 70
0
 10
416.0
 20
648.5
 10
1039.4117647058824
 20
648.5
  0
CIRCLE
  5
2B4
330
17
100
AcDbEntity
  8
ROUTING_AI
100
AcDbCircle
 10
416.0
 20
648.5
 30
0.0
 40
1.2
  0
LWPOLYLINE
  5
2B5
330
17
100
AcDbEntity
  8
ROUTING_AI
100
AcDbPolyline
 90
2
 70
0
 10
416.0
 20
630.0
 10
1039.4117647058824
 20
630.0
  0
CIRCLE
  5
2B6
330
17
100
AcDbEntity
  8
ROUTING_AI
100
AcDbCircle
 10
416.0
 20
630.0
 30
0.0
 40
1.2
  0
LWPOLYLINE
  5
2B7
330
17
100
AcDbEntity
  8
ROUTING_AI
100
AcDbPolyline
 90
2
 70
0
 10
416.0
 20
611.5
 10
1039.4117647058824
 20
611.5
  0
CIRCLE
  5
2B8
330
17
100
AcDbEntity
  8
ROUTING_AI
100
AcDbCircle
 10
416.0
 20
611.5
 30
0.0
 40
1.2
  0
LWPOLYLINE
  5
2B9
330
17
100
AcDbEntity
  8
ROUTING_AI
100
AcDbPolyline
 90
2
 70
0
 10
1039.4117647058824
 20
611.5
 10
1039.4117647058824
 20
691.0
  0
LWPOLYLINE
  5
2BA
330
17
100
AcDbEntity
  8
ROUTING_AI
100
AcDbPolyline
 90
2
 70
0
 10
1039.4117647058824
 20
691.0
 10
1380.0
 20
691.0
  0
CIRCLE
  5
2BB
330
17
100
AcDbEntity
  8
ROUTING_AI
100
AcDbCircle
 10
1380.0
 20
691.0
 30
0.0
 40
1.5
  0
TEXT
  5
2BC
330
17
100
AcDbEntity
  8
TEXT_ANNOT
100
AcDbText
 10
1041.4117647058824
 20
693.5
 30
0.0
 40
2.4
  1
C3 [S:07, 08, 11] -> 37p
 11
1041.4117647058824
 21
693.5
 31
0.0
100
AcDbText
  0
LWPOLYLINE
  5
2BD
330
17
100
AcDbEntity
  8
ROUTING_AO
100
AcDbPolyline
 90
2
 70
0
 10
416.0
 20
611.5
 10
926.4705882352941
 20
611.5
  0
CIRCLE
  5
2BE
330
17
100
AcDbEntity
  8
ROUTING_AO
100
AcDbCircle
 10
416.0
 20
611.5
 30
0.0
 40
1.2
  0
LWPOLYLINE
  5
2BF
330
17
100
AcDbEntity
  8
ROUTING_AO
100
AcDbPolyline
 90
2
 70
0
 10
926.4705882352941
 20
611.5
 10
926.4705882352941
 20
927.0
  0
LWPOLYLINE
  5
2C0
330
17
100
AcDbEntity
  8
ROUTING_AO
100
AcDbPolyline
 90
2
 70
0
 10
926.4705882352941
 20
927.0
 10
1380.0
 20
927.0
  0
CIRCLE
  5
2C1
330
17
100
AcDbEntity
  8
ROUTING_AO
100
AcDbCircle
 10
1380.0
 20
927.0
 30
0.0
 40
1.5
  0
TEXT
  5
2C2
330
17
100
AcDbEntity
  8
TEXT_ANNOT
100
AcDbText
 10
928.4705882352941
 20
929.5
 30
0.0
 40
2.4
  1
C3 [S:11] -> 1p
 11
928.4705882352941
 21
929.5
 31
0.0
100
AcDbText
  0
LWPOLYLINE
  5
2C3
330
17
100
AcDbEntity
  8
ROUTING_ETH
100
AcDbPolyline
 90
2
 70
0
 10
806.0
 20
759.5
 10
870.0
 20
759.5
  0
CIRCLE
  5
2C4
330
17
100
AcDbEntity
  8
ROUTING_ETH
100
AcDbCircle
 10
806.0
 20
759.5
 30
0.0
 40
1.2
  0
LWPOLYLINE
  5
2C5
330
17
100
AcDbEntity
  8
ROUTING_ETH
100
AcDbPolyline
 90
2
 70
0
 10
870.0
 20
759.5
 10
870.0
 20
1045.0
  0
LWPOLYLINE
  5
2C6
330
17
100
AcDbEntity
  8
ROUTING_ETH
100
AcDbPolyline
 90
2
 70
0
 10
870.0
 20
1045.0
 10
1380.0
 20
1045.0
  0
CIRCLE
  5
2C7
330
17
100
AcDbEntity
  8
ROUTING_ETH
100
AcDbCircle
 10
1380.0
 20
1045.0
 30
0.0
 40
1.5
  0
TEXT
  5
2C8
330
17
100
AcDbEntity
  8
TEXT_ANNOT
100
AcDbText
 10
872.0
 20
1047.5
 30
0.0
 40
2.4
  1
C4 [S:00] -> 1p
 11
872.0
 21
1047.5
 31
0.0
100
AcDbText
  0
LWPOLYLINE
  5
2C9
330
17
100
AcDbEntity
  8
ROUTING_DI
100
AcDbPolyline
 90
2
 70
0
 10
806.0
 20
741.0
 10
1011.1764705882354
 20
741.0
  0
CIRCLE
  5
2CA
330
17
100
AcDbEntity
  8
ROUTING_DI
100
AcDbCircle
 10
806.0
 20
741.0
 30
0.0
 40
1.2
  0
LWPOLYLINE
  5
2CB
330
17
100
AcDbEntity
  8
ROUTING_DI
100
AcDbPolyline
 90
2
 70
0
 10
806.0
 20
704.0
 10
1011.1764705882354
 20
704.0
  0
CIRCLE
  5
2CC
330
17
100
AcDbEntity
  8
ROUTING_DI
100
AcDbCircle
 10
806.0
 20
704.0
 30
0.0
 40
1.2
  0
LWPOLYLINE
  5
2CD
330
17
100
AcDbEntity
  8
ROUTING_DI
100
AcDbPolyline
 90
2
 70
0
 10
806.0
 20
685.5
 10
1011.1764705882354
 20
685.5
  0
CIRCLE
  5
2CE
330
17
100
AcDbEntity
  8
ROUTING_DI
100
AcDbCircle
 10
806.0
 20
685.5
 30
0.0
 40
1.2
  0
LWPOLYLINE
  5
2CF
330
17
100
AcDbEntity
  8
ROUTING_DI
100
AcDbPolyline
 90
2
 70
0
 10
1011.1764705882354
 20
685.5
 10
1011.1764705882354
 20
750.0
  0
LWPOLYLINE
  5
2D0
330
17
100
AcDbEntity
  8
ROUTING_DI
100
AcDbPolyline
 90
2
 70
0
 10
1011.1764705882354
 20
750.0
 10
1380.0
 20
750.0
  0
CIRCLE
  5
2D1
330
17
100
AcDbEntity
  8
ROUTING_DI
100
AcDbCircle
 10
1380.0
 20
750.0
 30
0.0
 40
1.5
  0
TEXT
  5
2D2
330
17
100
AcDbEntity
  8
TEXT_ANNOT
100
AcDbText
 10
1013.1764705882354
 20
752.5
 30
0.0
 40
2.4
  1
C4 [S:01, 04, 05] -> 26p
 11
1013.1764705882354
 21
752.5
 31
0.0
100
AcDbText
  0
LWPOLYLINE
  5
2D3
330
17
100
AcDbEntity
  8
ROUTING_DI
100
AcDbPolyline
 90
2
 70
0
 10
806.0
 20
722.5
 10
1095.8823529411766
 20
722.5
  0
CIRCLE
  5
2D4
330
17
100
AcDbEntity
  8
ROUTING_DI
100
AcDbCircle
 10
806.0
 20
722.5
 30
0.0
 40
1.2
  0
LWPOLYLINE
  5
2D5
330
17
100
AcDbEntity
  8
ROUTING_DI
100
AcDbPolyline
 90
2
 70
0
 10
806.0
 20
704.0
 10
1095.8823529411766
 20
704.0
  0
CIRCLE
  5
2D6
330
17
100
AcDbEntity
  8
ROUTING_DI
100
AcDbCircle
 10
806.0
 20
704.0
 30
0.0
 40
1.2
  0
LWPOLYLINE
  5
2D7
330
17
100
AcDbEntity
  8
ROUTING_DI
100
AcDbPolyline
 90
2
 70
0
 10
806.0
 20
685.5
 10
1095.8823529411766
 20
685.5
  0
CIRCLE
  5
2D8
330
17
100
AcDbEntity
  8
ROUTING_DI
100
AcDbCircle
 10
806.0
 20
685.5
 30
0.0
 40
1.2
  0
LWPOLYLINE
  5
2D9
330
17
100
AcDbEntity
  8
ROUTING_DI
100
AcDbPolyline
 90
2
 70
0
 10
1095.8823529411766
 20
573.0
 10
1095.8823529411766
 20
722.5
  0
LWPOLYLINE
  5
2DA
330
17
100
AcDbEntity
  8
ROUTING_DI
100
AcDbPolyline
 90
2
 70
0
 10
1095.8823529411766
 20
573.0
 10
1380.0
 20
573.0
  0
CIRCLE
  5
2DB
330
17
100
AcDbEntity
  8
ROUTING_DI
100
AcDbCircle
 10
1380.0
 20
573.0
 30
0.0
 40
1.5
  0
TEXT
  5
2DC
330
17
100
AcDbEntity
  8
TEXT_ANNOT
100
AcDbText
 10
1097.8823529411766
 20
575.5
 30
0.0
 40
2.4
  1
C4 [S:02, 04, 05] -> 56p
 11
1097.8823529411766
 21
575.5
 31
0.0
100
AcDbText
  0
LWPOLYLINE
  5
2DD
330
17
100
AcDbEntity
  8
ROUTING_AI
100
AcDbPolyline
 90
2
 70
0
 10
806.0
 20
685.5
 10
1067.6470588235293
 20
685.5
  0
CIRCLE
  5
2DE
330
17
100
AcDbEntity
  8
ROUTING_AI
100
AcDbCircle
 10
806.0
 20
685.5
 30
0.0
 40
1.2
  0
LWPOLYLINE
  5
2DF
330
17
100
AcDbEntity
  8
ROUTING_AI
100
AcDbPolyline
 90
2
 70
0
 10
1067.6470588235293
 20
632.0
 10
1067.6470588235293
 20
685.5
  0
LWPOLYLINE
  5
2E0
330
17
100
AcDbEntity
  8
ROUTING_AI
100
AcDbPolyline
 90
2
 70
0
 10
1067.6470588235293
 20
632.0
 10
1380.0
 20
632.0
  0
CIRCLE
  5
2E1
330
17
100
AcDbEntity
  8
ROUTING_AI
100
AcDbCircle
 10
1380.0
 20
632.0
 30
0.0
 40
1.5
  0
TEXT
  5
2E2
330
17
100
AcDbEntity
  8
TEXT_ANNOT
100
AcDbText
 10
1069.6470588235293
 20
634.5
 30
0.0
 40
2.4
  1
C4 [S:05] -> 6p
 11
1069.6470588235293
 21
634.5
 31
0.0
100
AcDbText
  0
LWPOLYLINE
  5
2E3
330
17
100
AcDbEntity
  8
ROUTING_ETH
100
AcDbPolyline
 90
2
 70
0
 10
416.0
 20
489.5
 10
870.0
 20
489.5
  0
CIRCLE
  5
2E4
330
17
100
AcDbEntity
  8
ROUTING_ETH
100
AcDbCircle
 10
416.0
 20
489.5
 30
0.0
 40
1.2
  0
LWPOLYLINE
  5
2E5
330
17
100
AcDbEntity
  8
ROUTING_ETH
100
AcDbPolyline
 90
2
 70
0
 10
870.0
 20
489.5
 10
870.0
 20
1045.0
  0
LWPOLYLINE
  5
2E6
330
17
100
AcDbEntity
  8
ROUTING_ETH
100
AcDbPolyline
 90
2
 70
0
 10
870.0
 20
1045.0
 10
1380.0
 20
1045.0
  0
CIRCLE
  5
2E7
330
17
100
AcDbEntity
  8
ROUTING_ETH
100
AcDbCircle
 10
1380.0
 20
1045.0
 30
0.0
 40
1.5
  0
TEXT
  5
2E8
330
17
100
AcDbEntity
  8
TEXT_ANNOT
100
AcDbText
 10
872.0
 20
1047.5
 30
0.0
 40
2.4
  1
C5 [S:00] -> 1p
 11
872.0
 21
1047.5
 31
0.0
100
AcDbText
  0
LWPOLYLINE
  5
2E9
330
17
100
AcDbEntity
  8
ROUTING_DI
100
AcDbPolyline
 90
2
 70
0
 10
416.0
 20
471.0
 10
1152.3529411764707
 20
471.0
  0
CIRCLE
  5
2EA
330
17
100
AcDbEntity
  8
ROUTING_DI
100
AcDbCircle
 10
416.0
 20
471.0
 30
0.0
 40
1.2
  0
LWPOLYLINE
  5
2EB
330
17
100
AcDbEntity
  8
ROUTING_DI
100
AcDbPolyline
 90
2
 70
0
 10
416.0
 20
452.5
 10
1152.3529411764707
 20
452.5
  0
CIRCLE
  5
2EC
330
17
100
AcDbEntity
  8
ROUTING_DI
100
AcDbCircle
 10
416.0
 20
452.5
 30
0.0
 40
1.2
  0
LWPOLYLINE
  5
2ED
330
17
100
AcDbEntity
  8
ROUTING_DI
100
AcDbPolyline
 90
2
 70
0
 10
416.0
 20
434.0
 10
1152.3529411764707
 20
434.0
  0
CIRCLE
  5
2EE
330
17
100
AcDbEntity
  8
ROUTING_DI
100
AcDbCircle
 10
416.0
 20
434.0
 30
0.0
 40
1.2
  0
LWPOLYLINE
  5
2EF
330
17
100
AcDbEntity
  8
ROUTING_DI
100
AcDbPolyline
 90
2
 70
0
 10
416.0
 20
415.5
 10
1152.3529411764707
 20
415.5
  0
CIRCLE
  5
2F0
330
17
100
AcDbEntity
  8
ROUTING_DI
100
AcDbCircle
 10
416.0
 20
415.5
 30
0.0
 40
1.2
  0
LWPOLYLINE
  5
2F1
330
17
100
AcDbEntity
  8
ROUTING_DI
100
AcDbPolyline
 90
2
 70
0
 10
1152.3529411764707
 20
415.5
 10
1152.3529411764707
 20
471.0
  0
LWPOLYLINE
  5
2F2
330
17
100
AcDbEntity
  8
ROUTING_DI
100
AcDbPolyline
 90
2
 70
0
 10
1152.3529411764707
 20
455.0
 10
1380.0
 20
455.0
  0
CIRCLE
  5
2F3
330
17
100
AcDbEntity
  8
ROUTING_DI
100
AcDbCircle
 10
1380.0
 20
455.0
 30
0.0
 40
1.5
  0
TEXT
  5
2F4
330
17
100
AcDbEntity
  8
TEXT_ANNOT
100
AcDbText
 10
1154.3529411764707
 20
450.5
 30
0.0
 40
2.4
  1
C5 [S:01, 02, 03, 04] -> 112p
 11
1154.3529411764707
 21
450.5
 31
0.0
100
AcDbText
  0
LWPOLYLINE
  5
2F5
330
17
100
AcDbEntity
  8
ROUTING_DO
100
AcDbPolyline
 90
2
 70
0
 10
806.0
 20
489.5
 10
1180.5882352941176
 20
489.5
  0
CIRCLE
  5
2F6
330
17
100
AcDbEntity
  8
ROUTING_DO
100
AcDbCircle
 10
806.0
 20
489.5
 30
0.0
 40
1.2
  0
LWPOLYLINE
  5
2F7
330
17
100
AcDbEntity
  8
ROUTING_DO
100
AcDbPolyline
 90
2
 70
0
 10
806.0
 20
471.0
 10
1180.5882352941176
 20
471.0
  0
CIRCLE
  5
2F8
330
17
100
AcDbEntity
  8
ROUTING_DO
100
AcDbCircle
 10
806.0
 20
471.0
 30
0.0
 40
1.2
  0
LWPOLYLINE
  5
2F9
330
17
100
AcDbEntity
  8
ROUTING_DO
100
AcDbPolyline
 90
2
 70
0
 10
1180.5882352941176
 20
396.0
 10
1180.5882352941176
 20
489.5
  0
LWPOLYLINE
  5
2FA
330
17
100
AcDbEntity
  8
ROUTING_DO
100
AcDbPolyline
 90
2
 70
0
 10
1180.5882352941176
 20
396.0
 10
1380.0
 20
396.0
  0
CIRCLE
  5
2FB
330
17
100
AcDbEntity
  8
ROUTING_DO
100
AcDbCircle
 10
1380.0
 20
396.0
 30
0.0
 40
1.5
  0
TEXT
  5
2FC
330
17
100
AcDbEntity
  8
TEXT_ANNOT
100
AcDbText
 10
1182.5882352941176
 20
391.5
 30
0.0
 40
2.4
  1
C6 [S:05, 06] -> 18p
 11
1182.5882352941176
 21
391.5
 31
0.0
100
AcDbText
  0
LWPOLYLINE
  5
2FD
330
17
100
AcDbEntity
  8
ROUTING_DI
100
AcDbPolyline
 90
2
 70
0
 10
416.0
 20
219.5
 10
954.7058823529412
 20
219.5
  0
CIRCLE
  5
2FE
330
17
100
AcDbEntity
  8
ROUTING_DI
100
AcDbCircle
 10
416.0
 20
219.5
 30
0.0
 40
1.2
  0
LWPOLYLINE
  5
2FF
330
17
100
AcDbEntity
  8
ROUTING_DI
100
AcDbPolyline
 90
2
 70
0
 10
416.0
 20
182.5
 10
954.7058823529412
 20
182.5
  0
CIRCLE
  5
300
330
17
100
AcDbEntity
  8
ROUTING_DI
100
AcDbCircle
 10
416.0
 20
182.5
 30
0.0
 40
1.2
  0
LWPOLYLINE
  5
301
330
17
100
AcDbEntity
  8
ROUTING_DI
100
AcDbPolyline
 90
2
 70
0
 10
416.0
 20
164.0
 10
954.7058823529412
 20
164.0
  0
CIRCLE
  5
302
330
17
100
AcDbEntity
  8
ROUTING_DI
100
AcDbCircle
 10
416.0
 20
164.0
 30
0.0
 40
1.2
  0
LWPOLYLINE
  5
303
330
17
100
AcDbEntity
  8
ROUTING_DI
100
AcDbPolyline
 90
2
 70
0
 10
416.0
 20
108.5
 10
954.7058823529412
 20
108.5
  0
CIRCLE
  5
304
330
17
100
AcDbEntity
  8
ROUTING_DI
100
AcDbCircle
 10
416.0
 20
108.5
 30
0.0
 40
1.2
  0
LWPOLYLINE
  5
305
330
17
100
AcDbEntity
  8
ROUTING_DI
100
AcDbPolyline
 90
2
 70
0
 10
954.7058823529412
 20
108.5
 10
954.7058823529412
 20
868.0
  0
LWPOLYLINE
  5
306
330
17
100
AcDbEntity
  8
ROUTING_DI
100
AcDbPolyline
 90
2
 70
0
 10
954.7058823529412
 20
868.0
 10
1380.0
 20
868.0
  0
CIRCLE
  5
307
330
17
100
AcDbEntity
  8
ROUTING_DI
100
AcDbCircle
 10
1380.0
 20
868.0
 30
0.0
 40
1.5
  0
TEXT
  5
308
330
17
100
AcDbEntity
  8
TEXT_ANNOT
100
AcDbText
 10
956.7058823529412
 20
870.5
 30
0.0
 40
2.4
  1
C7 [S:00, 02, 03, 06] -> 5p
 11
956.7058823529412
 21
870.5
 31
0.0
100
AcDbText
  0
LWPOLYLINE
  5
309
330
17
100
AcDbEntity
  8
ROUTING_BUS
100
AcDbPolyline
 90
2
 70
0
 10
416.0
 20
219.5
 10
1039.4117647058824
 20
219.5
  0
CIRCLE
  5
30A
330
17
100
AcDbEntity
  8
ROUTING_BUS
100
AcDbCircle
 10
416.0
 20
219.5
 30
0.0
 40
1.2
  0
LWPOLYLINE
  5
30B
330
17
100
AcDbEntity
  8
ROUTING_BUS
100
AcDbPolyline
 90
2
 70
0
 10
1039.4117647058824
 20
219.5
 10
1039.4117647058824
 20
691.0
  0
LWPOLYLINE
  5
30C
330
17
100
AcDbEntity
  8
ROUTING_BUS
100
AcDbPolyline
 90
2
 70
0
 10
1039.4117647058824
 20
691.0
 10
1380.0
 20
691.0
  0
CIRCLE
  5
30D
330
17
100
AcDbEntity
  8
ROUTING_BUS
100
AcDbCircle
 10
1380.0
 20
691.0
 30
0.0
 40
1.5
  0
TEXT
  5
30E
330
17
100
AcDbEntity
  8
TEXT_ANNOT
100
AcDbText
 10
1041.4117647058824
 20
693.5
 30
0.0
 40
2.4
  1
C7 [S:00] -> 1p
 11
1041.4117647058824
 21
693.5
 31
0.0
100
AcDbText
  0
LWPOLYLINE
  5
30F
330
17
100
AcDbEntity
  8
ROUTING_BUS
100
AcDbPolyline
 90
2
 70
0
 10
416.0
 20
219.5
 10
1095.8823529411766
 20
219.5
  0
CIRCLE
  5
310
330
17
100
AcDbEntity
  8
ROUTING_BUS
100
AcDbCircle
 10
416.0
 20
219.5
 30
0.0
 40
1.2
  0
LWPOLYLINE
  5
311
330
17
100
AcDbEntity
  8
ROUTING_BUS
100
AcDbPolyline
 90
2
 70
0
 10
1095.8823529411766
 20
219.5
 10
1095.8823529411766
 20
573.0
  0
LWPOLYLINE
  5
312
330
17
100
AcDbEntity
  8
ROUTING_BUS
100
AcDbPolyline
 90
2
 70
0
 10
1095.8823529411766
 20
573.0
 10
1380.0
 20
573.0
  0
CIRCLE
  5
313
330
17
100
AcDbEntity
  8
ROUTING_BUS
100
AcDbCircle
 10
1380.0
 20
573.0
 30
0.0
 40
1.5
  0
TEXT
  5
314
330
17
100
AcDbEntity
  8
TEXT_ANNOT
100
AcDbText
 10
1097.8823529411766
 20
575.5
 30
0.0
 40
2.4
  1
C7 [S:00] -> 1p
 11
1097.8823529411766
 21
575.5
 31
0.0
100
AcDbText
  0
LWPOLYLINE
  5
315
330
17
100
AcDbEntity
  8
ROUTING_DI
100
AcDbPolyline
 90
2
 70
0
 10
416.0
 20
219.5
 10
1180.5882352941176
 20
219.5
  0
CIRCLE
  5
316
330
17
100
AcDbEntity
  8
ROUTING_DI
100
AcDbCircle
 10
416.0
 20
219.5
 30
0.0
 40
1.2
  0
LWPOLYLINE
  5
317
330
17
100
AcDbEntity
  8
ROUTING_DI
100
AcDbPolyline
 90
2
 70
0
 10
416.0
 20
201.0
 10
1180.5882352941176
 20
201.0
  0
CIRCLE
  5
318
330
17
100
AcDbEntity
  8
ROUTING_DI
100
AcDbCircle
 10
416.0
 20
201.0
 30
0.0
 40
1.2
  0
LWPOLYLINE
  5
319
330
17
100
AcDbEntity
  8
ROUTING_DI
100
AcDbPolyline
 90
2
 70
0
 10
416.0
 20
182.5
 10
1180.5882352941176
 20
182.5
  0
CIRCLE
  5
31A
330
17
100
AcDbEntity
  8
ROUTING_DI
100
AcDbCircle
 10
416.0
 20
182.5
 30
0.0
 40
1.2
  0
LWPOLYLINE
  5
31B
330
17
100
AcDbEntity
  8
ROUTING_DI
100
AcDbPolyline
 90
2
 70
0
 10
416.0
 20
164.0
 10
1180.5882352941176
 20
164.0
  0
CIRCLE
  5
31C
330
17
100
AcDbEntity
  8
ROUTING_DI
100
AcDbCircle
 10
416.0
 20
164.0
 30
0.0
 40
1.2
  0
LWPOLYLINE
  5
31D
330
17
100
AcDbEntity
  8
ROUTING_DI
100
AcDbPolyline
 90
2
 70
0
 10
416.0
 20
145.5
 10
1180.5882352941176
 20
145.5
  0
CIRCLE
  5
31E
330
17
100
AcDbEntity
  8
ROUTING_DI
100
AcDbCircle
 10
416.0
 20
145.5
 30
0.0
 40
1.2
  0
LWPOLYLINE
  5
31F
330
17
100
AcDbEntity
  8
ROUTING_DI
100
AcDbPolyline
 90
2
 70
0
 10
416.0
 20
127.0
 10
1180.5882352941176
 20
127.0
  0
CIRCLE
  5
320
330
17
100
AcDbEntity
  8
ROUTING_DI
100
AcDbCircle
 10
416.0
 20
127.0
 30
0.0
 40
1.2
  0
LWPOLYLINE
  5
321
330
17
100
AcDbEntity
  8
ROUTING_DI
100
AcDbPolyline
 90
2
 70
0
 10
416.0
 20
108.5
 10
1180.5882352941176
 20
108.5
  0
CIRCLE
  5
322
330
17
100
AcDbEntity
  8
ROUTING_DI
100
AcDbCircle
 10
416.0
 20
108.5
 30
0.0
 40
1.2
  0
LWPOLYLINE
  5
323
330
17
100
AcDbEntity
  8
ROUTING_DI
100
AcDbPolyline
 90
2
 70
0
 10
416.0
 20
90.0
 10
1180.5882352941176
 20
90.0
  0
CIRCLE
  5
324
330
17
100
AcDbEntity
  8
ROUTING_DI
100
AcDbCircle
 10
416.0
 20
90.0
 30
0.0
 40
1.2
  0
LWPOLYLINE
  5
325
330
17
100
AcDbEntity
  8
ROUTING_DI
100
AcDbPolyline
 90
2
 70
0
 10
1180.5882352941176
 20
90.0
 10
1180.5882352941176
 20
396.0
  0
LWPOLYLINE
  5
326
330
17
100
AcDbEntity
  8
ROUTING_DI
100
AcDbPolyline
 90
2
 70
0
 10
1180.5882352941176
 20
396.0
 10
1380.0
 20
396.0
  0
CIRCLE
  5
327
330
17
100
AcDbEntity
  8
ROUTING_DI
100
AcDbCircle
 10
1380.0
 20
396.0
 30
0.0
 40
1.5
  0
TEXT
  5
328
330
17
100
AcDbEntity
  8
TEXT_ANNOT
100
AcDbText
 10
1182.5882352941176
 20
391.5
 30
0.0
 40
2.4
  1
C7 [S:00, 01, 02, 03, 04, 05, 06, 07] -> 219p
 11
1182.5882352941176
 21
391.5
 31
0.0
100
AcDbText
  0
LWPOLYLINE
  5
329
330
17
100
AcDbEntity
  8
ROUTING_DI
100
AcDbPolyline
 90
2
 70
0
 10
806.0
 20
219.5
 10
1208.8235294117646
 20
219.5
  0
CIRCLE
  5
32A
330
17
100
AcDbEntity
  8
ROUTING_DI
100
AcDbCircle
 10
806.0
 20
219.5
 30
0.0
 40
1.2
  0
LWPOLYLINE
  5
32B
330
17
100
AcDbEntity
  8
ROUTING_DI
100
AcDbPolyline
 90
2
 70
0
 10
806.0
 20
145.5
 10
1208.8235294117646
 20
145.5
  0
CIRCLE
  5
32C
330
17
100
AcDbEntity
  8
ROUTING_DI
100
AcDbCircle
 10
806.0
 20
145.5
 30
0.0
 40
1.2
  0
LWPOLYLINE
  5
32D
330
17
100
AcDbEntity
  8
ROUTING_DI
100
AcDbPolyline
 90
2
 70
0
 10
1208.8235294117646
 20
145.5
 10
1208.8235294117646
 20
337.0
  0
LWPOLYLINE
  5
32E
330
17
100
AcDbEntity
  8
ROUTING_DI
100
AcDbPolyline
 90
2
 70
0
 10
1208.8235294117646
 20
337.0
 10
1380.0
 20
337.0
  0
CIRCLE
  5
32F
330
17
100
AcDbEntity
  8
ROUTING_DI
100
AcDbCircle
 10
1380.0
 20
337.0
 30
0.0
 40
1.5
  0
TEXT
  5
330
330
17
100
AcDbEntity
  8
TEXT_ANNOT
100
AcDbText
 10
1210.8235294117646
 20
332.5
 30
0.0
 40
2.4
  1
C8 [S:01, 05] -> 32p
 11
1210.8235294117646
 21
332.5
 31
0.0
100
AcDbText
  0
LWPOLYLINE
  5
331
330
17
100
AcDbEntity
  8
ROUTING_DI
100
AcDbPolyline
 90
2
 70
0
 10
806.0
 20
219.5
 10
1237.0588235294117
 20
219.5
  0
CIRCLE
  5
332
330
17
100
AcDbEntity
  8
ROUTING_DI
100
AcDbCircle
 10
806.0
 20
219.5
 30
0.0
 40
1.2
  0
LWPOLYLINE
  5
333
330
17
100
AcDbEntity
  8
ROUTING_DI
100
AcDbPolyline
 90
2
 70
0
 10
806.0
 20
164.0
 10
1237.0588235294117
 20
164.0
  0
CIRCLE
  5
334
330
17
100
AcDbEntity
  8
ROUTING_DI
100
AcDbCircle
 10
806.0
 20
164.0
 30
0.0
 40
1.2
  0
LWPOLYLINE
  5
335
330
17
100
AcDbEntity
  8
ROUTING_DI
100
AcDbPolyline
 90
2
 70
0
 10
806.0
 20
127.0
 10
1237.0588235294117
 20
127.0
  0
CIRCLE
  5
336
330
17
100
AcDbEntity
  8
ROUTING_DI
100
AcDbCircle
 10
806.0
 20
127.0
 30
0.0
 40
1.2
  0
LWPOLYLINE
  5
337
330
17
100
AcDbEntity
  8
ROUTING_DI
100
AcDbPolyline
 90
2
 70
0
 10
1237.0588235294117
 20
127.0
 10
1237.0588235294117
 20
278.0
  0
LWPOLYLINE
  5
338
330
17
100
AcDbEntity
  8
ROUTING_DI
100
AcDbPolyline
 90
2
 70
0
 10
1237.0588235294117
 20
278.0
 10
1380.0
 20
278.0
  0
CIRCLE
  5
339
330
17
100
AcDbEntity
  8
ROUTING_DI
100
AcDbCircle
 10
1380.0
 20
278.0
 30
0.0
 40
1.5
  0
TEXT
  5
33A
330
17
100
AcDbEntity
  8
TEXT_ANNOT
100
AcDbText
 10
1239.0588235294117
 20
273.5
 30
0.0
 40
2.4
  1
C8 [S:01, 04, 06] -> 32p
 11
1239.0588235294117
 21
273.5
 31
0.0
100
AcDbText
  0
LWPOLYLINE
  5
33B
330
17
100
AcDbEntity
  8
ROUTING_DI
100
AcDbPolyline
 90
2
 70
0
 10
806.0
 20
201.0
 10
1265.2941176470588
 20
201.0
  0
CIRCLE
  5
33C
330
17
100
AcDbEntity
  8
ROUTING_DI
100
AcDbCircle
 10
806.0
 20
201.0
 30
0.0
 40
1.2
  0
LWPOLYLINE
  5
33D
330
17
100
AcDbEntity
  8
ROUTING_DI
100
AcDbPolyline
 90
2
 70
0
 10
806.0
 20
127.0
 10
1265.2941176470588
 20
127.0
  0
CIRCLE
  5
33E
330
17
100
AcDbEntity
  8
ROUTING_DI
100
AcDbCircle
 10
806.0
 20
127.0
 30
0.0
 40
1.2
  0
LWPOLYLINE
  5
33F
330
17
100
AcDbEntity
  8
ROUTING_DI
100
AcDbPolyline
 90
2
 70
0
 10
1265.2941176470588
 20
127.0
 10
1265.2941176470588
 20
219.0
  0
LWPOLYLINE
  5
340
330
17
100
AcDbEntity
  8
ROUTING_DI
100
AcDbPolyline
 90
2
 70
0
 10
1265.2941176470588
 20
219.0
 10
1380.0
 20
219.0
  0
CIRCLE
  5
341
330
17
100
AcDbEntity
  8
ROUTING_DI
100
AcDbCircle
 10
1380.0
 20
219.0
 30
0.0
 40
1.5
  0
TEXT
  5
342
330
17
100
AcDbEntity
  8
TEXT_ANNOT
100
AcDbText
 10
1267.2941176470588
 20
214.5
 30
0.0
 40
2.4
  1
C8 [S:02, 06] -> 41p
 11
1267.2941176470588
 21
214.5
 31
0.0
100
AcDbText
  0
LWPOLYLINE
  5
343
330
17
100
AcDbEntity
  8
ROUTING_DI
100
AcDbPolyline
 90
2
 70
0
 10
806.0
 20
182.5
 10
1293.5294117647059
 20
182.5
  0
CIRCLE
  5
344
330
17
100
AcDbEntity
  8
ROUTING_DI
100
AcDbCircle
 10
806.0
 20
182.5
 30
0.0
 40
1.2
  0
LWPOLYLINE
  5
345
330
17
100
AcDbEntity
  8
ROUTING_DI
100
AcDbPolyline
 90
2
 70
0
 10
806.0
 20
108.5
 10
1293.5294117647059
 20
108.5
  0
CIRCLE
  5
346
330
17
100
AcDbEntity
  8
ROUTING_DI
100
AcDbCircle
 10
806.0
 20
108.5
 30
0.0
 40
1.2
  0
LWPOLYLINE
  5
347
330
17
100
AcDbEntity
  8
ROUTING_DI
100
AcDbPolyline
 90
2
 70
0
 10
1293.5294117647059
 20
108.5
 10
1293.5294117647059
 20
182.5
  0
LWPOLYLINE
  5
348
330
17
100
AcDbEntity
  8
ROUTING_DI
100
AcDbPolyline
 90
2
 70
0
 10
1293.5294117647059
 20
160.0
 10
1380.0
 20
160.0
  0
CIRCLE
  5
349
330
17
100
AcDbEntity
  8
ROUTING_DI
100
AcDbCircle
 10
1380.0
 20
160.0
 30
0.0
 40
1.5
  0
TEXT
  5
34A
330
17
100
AcDbEntity
  8
TEXT_ANNOT
100
AcDbText
 10
1295.5294117647059
 20
155.5
 30
0.0
 40
2.4
  1
C8 [S:03, 07] -> 44p
 11
1295.5294117647059
 21
155.5
 31
0.0
100
AcDbText
  0
LWPOLYLINE
  5
34B
330
17
100
AcDbEntity
  8
0_BORDER
100
AcDbPolyline
 90
4
 70
1
 10
860.0
 20
125.0
 10
1340.0
 20
125.0
 10
1340.0
 20
50.0
 10
860.0
 20
50.0
  0
TEXT
  5
34C
330
17
100
AcDbEntity
  8
TITLE_TEXT
100
AcDbText
 10
870.0
 20
113.0
 30
0.0
 40
3.8
  1
SIGNAL TYPE & WIRING CONVENTION LEGEND
 11
870.0
 21
113.0
 31
0.0
100
AcDbText
  0
LINE
  5
34D
330
17
100
AcDbEntity
  8
ROUTING_DI
100
AcDbLine
 10
875.0
 20
101.0
 30
0.0
 11
905.0
 21
101.0
 31
0.0
  0
CIRCLE
  5
34E
330
17
100
AcDbEntity
  8
ROUTING_DI
100
AcDbCircle
 10
890.0
 20
101.0
 30
0.0
 40
1.5
  0
TEXT
  5
34F
330
17
100
AcDbEntity
  8
TEXT_MAIN
100
AcDbText
 10
911.0
 20
99.8
 30
0.0
 40
3.0
  1
DI (Discrete Input - 24VDC)
 11
911.0
 21
99.8
 31
0.0
100
AcDbText
  0
LINE
  5
350
330
17
100
AcDbEntity
  8
ROUTING_DO
100
AcDbLine
 10
1105.0
 20
101.0
 30
0.0
 11
1135.0
 21
101.0
 31
0.0
  0
CIRCLE
  5
351
330
17
100
AcDbEntity
  8
ROUTING_DO
100
AcDbCircle
 10
1120.0
 20
101.0
 30
0.0
 40
1.5
  0
TEXT
  5
352
330
17
100
AcDbEntity
  8
TEXT_MAIN
100
AcDbText
 10
1141.0
 20
99.8
 30
0.0
 40
3.0
  1
DO (Discrete Output - 24VDC)
 11
1141.0
 21
99.8
 31
0.0
100
AcDbText
  0
LINE
  5
353
330
17
100
AcDbEntity
  8
ROUTING_AI
100
AcDbLine
 10
875.0
 20
86.0
 30
0.0
 11
905.0
 21
86.0
 31
0.0
  0
CIRCLE
  5
354
330
17
100
AcDbEntity
  8
ROUTING_AI
100
AcDbCircle
 10
890.0
 20
86.0
 30
0.0
 40
1.5
  0
TEXT
  5
355
330
17
100
AcDbEntity
  8
TEXT_MAIN
100
AcDbText
 10
911.0
 20
84.8
 30
0.0
 40
3.0
  1
AI (Analog Input - 4-20mA / RTD)
 11
911.0
 21
84.8
 31
0.0
100
AcDbText
  0
LINE
  5
356
330
17
100
AcDbEntity
  8
ROUTING_AO
100
AcDbLine
 10
1105.0
 20
86.0
 30
0.0
 11
1135.0
 21
86.0
 31
0.0
  0
CIRCLE
  5
357
330
17
100
AcDbEntity
  8
ROUTING_AO
100
AcDbCircle
 10
1120.0
 20
86.0
 30
0.0
 40
1.5
  0
TEXT
  5
358
330
17
100
AcDbEntity
  8
TEXT_MAIN
100
AcDbText
 10
1141.0
 20
84.8
 30
0.0
 40
3.0
  1
AO (Analog Output - 4-20mA)
 11
1141.0
 21
84.8
 31
0.0
100
AcDbText
  0
LINE
  5
359
330
17
100
AcDbEntity
  8
ROUTING_BUS
100
AcDbLine
 10
875.0
 20
71.0
 30
0.0
 11
905.0
 21
71.0
 31
0.0
  0
CIRCLE
  5
35A
330
17
100
AcDbEntity
  8
ROUTING_BUS
100
AcDbCircle
 10
890.0
 20
71.0
 30
0.0
 40
1.5
  0
TEXT
  5
35B
330
17
100
AcDbEntity
  8
TEXT_MAIN
100
AcDbText
 10
911.0
 20
69.8
 30
0.0
 40
3.0
  1
BUS (Fieldbus / VFD Comm)
 11
911.0
 21
69.8
 31
0.0
100
AcDbText
  0
LINE
  5
35C
330
17
100
AcDbEntity
  8
ROUTING_ETH
100
AcDbLine
 10
1105.0
 20
71.0
 30
0.0
 11
1135.0
 21
71.0
 31
0.0
  0
CIRCLE
  5
35D
330
17
100
AcDbEntity
  8
ROUTING_ETH
100
AcDbCircle
 10
1120.0
 20
71.0
 30
0.0
 40
1.5
  0
TEXT
  5
35E
330
17
100
AcDbEntity
  8
TEXT_MAIN
100
AcDbText
 10
1141.0
 20
69.8
 30
0.0
 40
3.0
  1
ETH (EtherNet/IP DLR Links)
 11
1141.0
 21
69.8
 31
0.0
100
AcDbText
  0
LWPOLYLINE
  5
35F
330
17
100
AcDbEntity
  8
0_BORDER
100
AcDbPolyline
 90
4
 70
1
 10
1380.0
 20
125.0
 10
1750.0
 20
125.0
 10
1750.0
 20
50.0
 10
1380.0
 20
50.0
  0
LINE
  5
360
330
17
100
AcDbEntity
  8
0_TITLE_BLOCK
100
AcDbLine
 10
1380.0
 20
100.0
 30
0.0
 11
1750.0
 21
100.0
 31
0.0
  0
LINE
  5
361
330
17
100
AcDbEntity
  8
0_TITLE_BLOCK
100
AcDbLine
 10
1380.0
 20
75.0
 30
0.0
 11
1750.0
 21
75.0
 31
0.0
  0
LINE
  5
362
330
17
100
AcDbEntity
  8
0_TITLE_BLOCK
100
AcDbLine
 10
1600.0
 20
100.0
 30
0.0
 11
1600.0
 21
50.0
 31
0.0
  0
TEXT
  5
363
330
17
100
AcDbEntity
  8
TITLE_TEXT
100
AcDbText
 10
1390.0
 20
115.0
 30
0.0
 40
4.2
  1
KALASIN ENGINEERING xCIP TURNKEY PROJECT
 11
1390.0
 21
115.0
 31
0.0
100
AcDbText
  0
TEXT
  5
364
330
17
100
AcDbEntity
  8
TEXT_SUB
100
AcDbText
 10
1390.0
 20
107.0
 30
0.0
 40
3.0
  1
CLIENT: INGREDION (THAILAND) CO., LTD. / ISHITON
 11
1390.0
 21
107.0
 31
0.0
100
AcDbText
  0
TEXT
  5
365
330
17
100
AcDbEntity
  8
TEXT_ANNOT
100
AcDbText
 10
1390.0
 20
93.0
 30
0.0
 40
2.5
  1
DRAWING TITLE:
 11
1390.0
 21
93.0
 31
0.0
100
AcDbText
  0
TEXT
  5
366
330
17
100
AcDbEntity
  8
TEXT_MAIN
100
AcDbText
 10
1390.0
 20
83.0
 30
0.0
 40
3.4
  1
C1-C8 CHASSIS & SLOT TO DESTINATION JB ARCHITECTURE
 11
1390.0
 21
83.0
 31
0.0
100
AcDbText
  0
TEXT
  5
367
330
17
100
AcDbEntity
  8
TITLE_TEXT
100
AcDbText
 10
1390.0
 20
63.0
 30
0.0
 40
3.6
  1
DWG NO: KAL-SYS-DIA-C1C8-001
 11
1390.0
 21
63.0
 31
0.0
100
AcDbText
  0
TEXT
  5
368
330
17
100
AcDbEntity
  8
TEXT_SUB
100
AcDbText
 10
1390.0
 20
55.0
 30
0.0
 40
3.0
  1
PROJECT REF: x2608003
 11
1390.0
 21
55.0
 31
0.0
100
AcDbText
  0
TEXT
  5
369
330
17
100
AcDbEntity
  8
TITLE_TEXT
100
AcDbText
 10
1610.0
 20
90.0
 30
0.0
 40
3.6
  1
REV: 1.0 (APPROVED)
 11
1610.0
 21
90.0
 31
0.0
100
AcDbText
  0
TEXT
  5
36A
330
17
100
AcDbEntity
  8
TEXT_MAIN
100
AcDbText
 10
1610.0
 20
81.0
 30
0.0
 40
3.0
  1
SCALE: 1:1 mm MODEL
 11
1610.0
 21
81.0
 31
0.0
100
AcDbText
  0
TEXT
  5
36B
330
17
100
AcDbEntity
  8
TEXT_SUB
100
AcDbText
 10
1610.0
 20
63.0
 30
0.0
 40
3.0
  1
DATE: 2026-09-29
 11
1610.0
 21
63.0
 31
0.0
100
AcDbText
  0
ENDSEC
  0
SECTION
  2
OBJECTS
  0
DICTIONARY
  5
A
330
0
100
AcDbDictionary
281
1
  3
ACAD_COLOR
350
B
  3
ACAD_GROUP
350
C
  3
ACAD_LAYOUT
350
D
  3
ACAD_MATERIAL
350
E
  3
ACAD_MLEADERSTYLE
350
F
  3
ACAD_MLINESTYLE
350
10
  3
ACAD_PLOTSETTINGS
350
11
  3
ACAD_PLOTSTYLENAME
350
12
  3
ACAD_SCALELIST
350
14
  3
ACAD_TABLESTYLE
350
15
  3
ACAD_VISUALSTYLE
350
16
  3
EZDXF_META
350
2D
  0
DICTIONARY
  5
B
330
A
100
AcDbDictionary
281
1
  0
DICTIONARY
  5
C
330
A
100
AcDbDictionary
281
1
  0
DICTIONARY
  5
D
330
A
100
AcDbDictionary
281
1
  3
Model
350
1A
  3
Layout1
350
1E
  0
DICTIONARY
  5
E
330
A
100
AcDbDictionary
281
1
  3
ByBlock
350
1F
  3
ByLayer
350
20
  3
Global
350
21
  0
DICTIONARY
  5
F
330
A
100
AcDbDictionary
281
1
  3
Standard
350
2C
  0
DICTIONARY
  5
10
330
A
100
AcDbDictionary
281
1
  3
Standard
350
22
  0
DICTIONARY
  5
11
330
A
100
AcDbDictionary
281
1
  0
ACDBDICTIONARYWDFLT
  5
12
330
A
100
AcDbDictionary
281
1
  3
Normal
350
13
100
AcDbDictionaryWithDefault
340
13
  0
ACDBPLACEHOLDER
  5
13
330
12
  0
DICTIONARY
  5
14
330
A
100
AcDbDictionary
281
1
  0
DICTIONARY
  5
15
330
A
100
AcDbDictionary
281
1
  0
DICTIONARY
  5
16
330
A
100
AcDbDictionary
281
1
  3
2dWireframe
350
5A
  3
Basic
350
5B
  3
Brighten
350
5C
  3
ColorChange
350
5D
  3
Conceptual
350
5E
  3
Dim
350
5F
  3
EdgeColorOff
350
60
  3
Facepattern
350
61
  3
Flat
350
62
  3
FlatWithEdges
350
63
  3
Gouraud
350
64
  3
GouraudWithEdges
350
65
  3
Hidden
350
66
  3
JitterOff
350
67
  3
Linepattern
350
68
  3
Modeling
350
69
  3
OverhangOff
350
6A
  3
Realistic
350
6B
  3
Shaded
350
6C
  3
Shaded with edges
350
6D
  3
Shades of Gray
350
6E
  3
Sketchy
350
6F
  3
Thicken
350
70
  3
Wireframe
350
71
  3
X-Ray
350
72
  0
LAYOUT
  5
1A
330
D
100
AcDbPlotSettings
  1

  4
A3
  6

 40
7.5
 41
20.0
 42
7.5
 43
20.0
 44
420.0
 45
297.0
 46
0.0
 47
0.0
 48
0.0
 49
0.0
140
0.0
141
0.0
142
1.0
143
1.0
 70
1024
 72
1
 73
0
 74
5
  7

 75
16
 76
0
 77
2
 78
300
147
1.0
148
0.0
149
0.0
100
AcDbLayout
  1
Model
 70
1
 71
0
 10
0.0
 20
0.0
 11
420.0
 21
297.0
 12
0.0
 22
0.0
 32
0.0
 14
1e+20
 24
1e+20
 34
1e+20
 15
-1e+20
 25
-1e+20
 35
-1e+20
146
0.0
 13
0.0
 23
0.0
 33
0.0
 16
1.0
 26
0.0
 36
0.0
 17
0.0
 27
1.0
 37
0.0
 76
1
330
17
  0
LAYOUT
  5
1E
330
D
100
AcDbPlotSettings
  1

  4
A3
  6

 40
7.5
 41
20.0
 42
7.5
 43
20.0
 44
420.0
 45
297.0
 46
0.0
 47
0.0
 48
0.0
 49
0.0
140
0.0
141
0.0
142
1.0
143
1.0
 70
0
 72
1
 73
0
 74
5
  7

 75
16
 76
0
 77
2
 78
300
147
1.0
148
0.0
149
0.0
100
AcDbLayout
  1
Layout1
 70
1
 71
1
 10
0.0
 20
0.0
 11
420.0
 21
297.0
 12
0.0
 22
0.0
 32
0.0
 14
1e+20
 24
1e+20
 34
1e+20
 15
-1e+20
 25
-1e+20
 35
-1e+20
146
0.0
 13
0.0
 23
0.0
 33
0.0
 16
1.0
 26
0.0
 36
0.0
 17
0.0
 27
1.0
 37
0.0
 76
1
330
1B
  0
MATERIAL
  5
1F
102
{ACAD_REACTORS
330
E
102
}
330
E
100
AcDbMaterial
  1
ByBlock
  2

 70
0
 40
1.0
 71
1
 41
1.0
 91
-1023410177
 42
1.0
 72
1
  3

 73
1
 74
1
 75
1
 44
0.5
 73
0
 45
1.0
 46
1.0
 77
1
  4

 78
1
 79
1
170
1
 48
1.0
171
1
  6

172
1
173
1
174
1
140
1.0
141
1.0
175
1
  7

176
1
177
1
178
1
143
1.0
179
1
  8

270
1
271
1
272
1
145
1.0
146
1.0
273
1
  9

274
1
275
1
276
1
 42
1.0
 72
1
  3

 73
1
 74
1
 75
1
 94
63
  0
MATERIAL
  5
20
102
{ACAD_REACTORS
330
E
102
}
330
E
100
AcDbMaterial
  1
ByLayer
  2

 70
0
 40
1.0
 71
1
 41
1.0
 91
-1023410177
 42
1.0
 72
1
  3

 73
1
 74
1
 75
1
 44
0.5
 73
0
 45
1.0
 46
1.0
 77
1
  4

 78
1
 79
1
170
1
 48
1.0
171
1
  6

172
1
173
1
174
1
140
1.0
141
1.0
175
1
  7

176
1
177
1
178
1
143
1.0
179
1
  8

270
1
271
1
272
1
145
1.0
146
1.0
273
1
  9

274
1
275
1
276
1
 42
1.0
 72
1
  3

 73
1
 74
1
 75
1
 94
63
  0
MATERIAL
  5
21
102
{ACAD_REACTORS
330
E
102
}
330
E
100
AcDbMaterial
  1
Global
  2

 70
0
 40
1.0
 71
1
 41
1.0
 91
-1023410177
 42
1.0
 72
1
  3

 73
1
 74
1
 75
1
 44
0.5
 73
0
 45
1.0
 46
1.0
 77
1
  4

 78
1
 79
1
170
1
 48
1.0
171
1
  6

172
1
173
1
174
1
140
1.0
141
1.0
175
1
  7

176
1
177
1
178
1
143
1.0
179
1
  8

270
1
271
1
272
1
145
1.0
146
1.0
273
1
  9

274
1
275
1
276
1
 42
1.0
 72
1
  3

 73
1
 74
1
 75
1
 94
63
  0
MLINESTYLE
  5
22
102
{ACAD_REACTORS
330
10
102
}
330
10
100
AcDbMlineStyle
  2
Standard
 70
0
  3

 62
256
 51
90.0
 52
90.0
 71
2
 49
0.5
 62
256
  6
BYLAYER
 49
-0.5
 62
256
  6
BYLAYER
  0
MLEADERSTYLE
  5
2C
102
{ACAD_REACTORS
330
F
102
}
330
F
100
AcDbMLeaderStyle
179
2
170
2
171
1
172
0
 90
2
 40
0.0
 41
0.0
173
1
 91
-1056964608
 92
-2
290
1
 42
2.0
291
1
 43
8.0
  3
Standard
 44
4.0
300

342
29
174
1
175
1
176
0
178
1
 93
-1056964608
 45
4.0
292
0
297
0
 46
4.0
 94
-1056964608
 47
1.0
 49
1.0
140
1.0
294
1
141
0.0
177
0
142
1.0
295
0
296
0
143
3.75
271
0
272
9
273
9
  0
DICTIONARY
  5
2D
330
A
100
AcDbDictionary
280
1
281
1
  3
CREATED_BY_EZDXF
350
2E
  3
WRITTEN_BY_EZDXF
350
36E
  0
DICTIONARYVAR
  5
2E
330
2D
100
DictionaryVariables
280
0
  1
1.4.4 @ 2026-09-29T06:10:44.608034+00:00
  0
VISUALSTYLE
  5
5A
102
{ACAD_REACTORS
330
16
102
}
330
16
100
AcDbVisualStyle
  2
2dWireframe
 70
4
 90
0
 40
0.6
 62
7
290
0
291
0
  0
VISUALSTYLE
  5
5B
102
{ACAD_REACTORS
330
16
102
}
330
16
100
AcDbVisualStyle
  2
Basic
 70
7
 90
1
 40
0.6
 62
7
290
0
291
1
  0
VISUALSTYLE
  5
5C
102
{ACAD_REACTORS
330
16
102
}
330
16
100
AcDbVisualStyle
  2
Brighten
 70
12
 90
2
 40
0.6
 62
7
290
0
291
1
  0
VISUALSTYLE
  5
5D
102
{ACAD_REACTORS
330
16
102
}
330
16
100
AcDbVisualStyle
  2
ColorChange
 70
16
 90
2
 40
0.6
 62
8
290
0
291
1
  0
VISUALSTYLE
  5
5E
102
{ACAD_REACTORS
330
16
102
}
330
16
100
AcDbVisualStyle
  2
Conceptual
 70
9
 90
3
 40
0.6
 62
7
290
0
291
0
  0
VISUALSTYLE
  5
5F
102
{ACAD_REACTORS
330
16
102
}
330
16
100
AcDbVisualStyle
  2
Dim
 70
11
 90
2
 40
0.6
 62
7
290
0
291
1
  0
VISUALSTYLE
  5
60
102
{ACAD_REACTORS
330
16
102
}
330
16
100
AcDbVisualStyle
  2
EdgeColorOff
 70
22
 90
2
 40
0.6
 62
7
290
0
291
1
  0
VISUALSTYLE
  5
61
102
{ACAD_REACTORS
330
16
102
}
330
16
100
AcDbVisualStyle
  2
Facepattern
 70
15
 90
2
 40
0.6
 62
7
290
0
291
1
  0
VISUALSTYLE
  5
62
102
{ACAD_REACTORS
330
16
102
}
330
16
100
AcDbVisualStyle
  2
Flat
 70
0
 90
2
 40
0.6
 62
7
290
0
291
1
  0
VISUALSTYLE
  5
63
102
{ACAD_REACTORS
330
16
102
}
330
16
100
AcDbVisualStyle
  2
FlatWithEdges
 70
1
 90
2
 40
0.6
 62
7
290
0
291
1
  0
VISUALSTYLE
  5
64
102
{ACAD_REACTORS
330
16
102
}
330
16
100
AcDbVisualStyle
  2
Gouraud
 70
2
 90
2
 40
0.6
 62
7
290
0
291
1
  0
VISUALSTYLE
  5
65
102
{ACAD_REACTORS
330
16
102
}
330
16
100
AcDbVisualStyle
  2
GouraudWithEdges
 70
3
 90
2
 40
0.6
 62
7
290
0
291
1
  0
VISUALSTYLE
  5
66
102
{ACAD_REACTORS
330
16
102
}
330
16
100
AcDbVisualStyle
  2
Hidden
 70
6
 90
1
 40
0.6
 62
7
290
0
291
0
  0
VISUALSTYLE
  5
67
102
{ACAD_REACTORS
330
16
102
}
330
16
100
AcDbVisualStyle
  2
JitterOff
 70
20
 90
2
 40
0.6
 62
7
290
0
291
1
  0
VISUALSTYLE
  5
68
102
{ACAD_REACTORS
330
16
102
}
330
16
100
AcDbVisualStyle
  2
Linepattern
 70
14
 90
2
 40
0.6
 62
7
290
0
291
1
  0
VISUALSTYLE
  5
69
102
{ACAD_REACTORS
330
16
102
}
330
16
100
AcDbVisualStyle
  2
Modeling
 70
10
 90
2
 40
0.6
 62
7
290
0
291
0
  0
VISUALSTYLE
  5
6A
102
{ACAD_REACTORS
330
16
102
}
330
16
100
AcDbVisualStyle
  2
OverhangOff
 70
21
 90
2
 40
0.6
 62
7
290
0
291
1
  0
VISUALSTYLE
  5
6B
102
{ACAD_REACTORS
330
16
102
}
330
16
100
AcDbVisualStyle
  2
Realistic
 70
8
 90
2
 40
0.6
 62
7
290
0
291
0
  0
VISUALSTYLE
  5
6C
102
{ACAD_REACTORS
330
16
102
}
330
16
100
AcDbVisualStyle
  2
Shaded
 70
27
 90
2
 40
0.6
 62
7
290
0
291
0
  0
VISUALSTYLE
  5
6D
102
{ACAD_REACTORS
330
16
102
}
330
16
100
AcDbVisualStyle
  2
Shaded with edges
 70
26
 90
2
 40
0.6
 62
7
290
0
291
0
  0
VISUALSTYLE
  5
6E
102
{ACAD_REACTORS
330
16
102
}
330
16
100
AcDbVisualStyle
  2
Shades of Gray
 70
23
 90
2
 40
0.6
 62
7
290
0
291
0
  0
VISUALSTYLE
  5
6F
102
{ACAD_REACTORS
330
16
102
}
330
16
100
AcDbVisualStyle
  2
Sketchy
 70
24
 90
1
 40
0.6
 62
7
290
0
291
0
  0
VISUALSTYLE
  5
70
102
{ACAD_REACTORS
330
16
102
}
330
16
100
AcDbVisualStyle
  2
Thicken
 70
13
 90
2
 40
0.6
 62
7
290
0
291
1
  0
VISUALSTYLE
  5
71
102
{ACAD_REACTORS
330
16
102
}
330
16
100
AcDbVisualStyle
  2
Wireframe
 70
5
 90
0
 40
0.6
 62
7
290
0
291
0
  0
VISUALSTYLE
  5
72
102
{ACAD_REACTORS
330
16
102
}
330
16
100
AcDbVisualStyle
  2
X-Ray
 70
25
 90
2
 40
0.5
 62
7
290
0
291
0
  0
DICTIONARYVAR
  5
36E
330
2D
100
DictionaryVariables
280
0
  1
1.4.4 @ 2026-09-29T06:10:44.623170+00:00
  0
ENDSEC
  0
EOF
