999
"DXF R12 Output" (www.mydxf.blogspot.com)
 0 
SECTION
 2 
HEADER
 9 
$ACADVER
 1 
AC1009
 9 
$EXTMIN
 10 
 0 
 20 
 0 
 9 
$EXTMAX
 10 
 8.5 
 20 
 11 
 0 
ENDSEC
 0 
SECTION
 2 
ENTITIES
0
POLYLINE
8
Layer 1
62
7
70
0
10
0.000000
20
0.000000
66
1
0
VERTEX
8
Layer 1
10
-0.000101
20
10.540437
70
0
0
VERTEX
8
Layer 1
10
31.797871
20
10.540437
70
0
0
VERTEX
8
Layer 1
10
31.797871
20
0.000002
70
0
0
VERTEX
8
Layer 1
10
-0.000101
20
0.000002
70
0
0
VERTEX
8
Layer 1
10
-0.000101
20
10.540437
70
0
0
SEQEND
8
Layer 1
0
POLYLINE
8
Layer 1
62
7
70
0
10
0.000000
20
0.000000
66
1
0
VERTEX
8
Layer 1
10
6.451162
20
5.991009
70
0
0
VERTEX
8
Layer 1
10
8.165440
20
4.519265
70
0
0
VERTEX
8
Layer 1
10
8.628462
20
4.342876
70
0
0
VERTEX
8
Layer 1
10
8.782801
20
3.951513
70
0
0
VERTEX
8
Layer 1
10
8.606412
20
3.543615
70
0
0
VERTEX
8
Layer 1
10
8.027637
20
3.389274
70
0
0
VERTEX
8
Layer 1
10
6.743307
20
3.389274
70
0
0
VERTEX
8
Layer 1
10
6.159020
20
3.543615
70
0
0
VERTEX
8
Layer 1
10
5.988143
20
3.962538
70
0
0
VERTEX
8
Layer 1
10
6.109408
20
4.309803
70
0
0
VERTEX
8
Layer 1
10
6.451162
20
4.519265
70
0
0
VERTEX
8
Layer 1
10
5.607804
20
5.246868
70
0
0
VERTEX
8
Layer 1
10
4.747910
20
4.519265
70
0
0
VERTEX
8
Layer 1
10
5.117223
20
4.315315
70
0
0
VERTEX
8
Layer 1
10
5.232979
20
3.962538
70
0
0
VERTEX
8
Layer 1
10
5.062102
20
3.543615
70
0
0
VERTEX
8
Layer 1
10
4.483327
20
3.389274
70
0
0
VERTEX
8
Layer 1
10
3.210020
20
3.389274
70
0
0
VERTEX
8
Layer 1
10
2.625730
20
3.543615
70
0
0
VERTEX
8
Layer 1
10
2.454856
20
3.957026
70
0
0
VERTEX
8
Layer 1
10
2.609195
20
4.342876
70
0
0
VERTEX
8
Layer 1
10
3.072217
20
4.519265
70
0
0
VERTEX
8
Layer 1
10
4.747910
20
5.996521
70
0
0
VERTEX
8
Layer 1
10
3.265141
20
7.264315
70
0
0
VERTEX
8
Layer 1
10
2.818657
20
7.440704
70
0
0
VERTEX
8
Layer 1
10
2.669827
20
7.832066
70
0
0
VERTEX
8
Layer 1
10
2.840704
20
8.234453
70
0
0
VERTEX
8
Layer 1
10
3.424994
20
8.394305
70
0
0
VERTEX
8
Layer 1
10
4.483327
20
8.394305
70
0
0
VERTEX
8
Layer 1
10
5.062102
20
8.234453
70
0
0
VERTEX
8
Layer 1
10
5.238491
20
7.837578
70
0
0
VERTEX
8
Layer 1
10
5.161321
20
7.542678
70
0
0
VERTEX
8
Layer 1
10
4.929810
20
7.308412
70
0
0
VERTEX
8
Layer 1
10
5.613315
20
6.740661
70
0
0
VERTEX
8
Layer 1
10
6.285797
20
7.319436
70
0
0
VERTEX
8
Layer 1
10
5.982631
20
7.815530
70
0
0
VERTEX
8
Layer 1
10
6.153505
20
8.234453
70
0
0
VERTEX
8
Layer 1
10
6.737795
20
8.394305
70
0
0
VERTEX
8
Layer 1
10
7.785101
20
8.394305
70
0
0
VERTEX
8
Layer 1
10
8.363879
20
8.234453
70
0
0
VERTEX
8
Layer 1
10
8.540268
20
7.826554
70
0
0
VERTEX
8
Layer 1
10
8.385926
20
7.440704
70
0
0
VERTEX
8
Layer 1
10
7.939443
20
7.264315
70
0
0
VERTEX
8
Layer 1
10
6.451162
20
5.991009
70
0
0
SEQEND
8
Layer 1
0
POLYLINE
8
Layer 1
62
7
70
0
10
0.000000
20
0.000000
66
1
0
VERTEX
8
Layer 1
10
9.852157
20
4.519265
70
0
0
VERTEX
8
Layer 1
10
9.852157
20
8.940008
70
0
0
VERTEX
8
Layer 1
10
9.322991
20
9.099860
70
0
0
VERTEX
8
Layer 1
10
9.152114
20
9.507759
70
0
0
VERTEX
8
Layer 1
10
9.322991
20
9.915658
70
0
0
VERTEX
8
Layer 1
10
9.907281
20
10.075510
70
0
0
VERTEX
8
Layer 1
10
12.271991
20
10.069999
70
0
0
VERTEX
8
Layer 1
10
13.346861
20
9.866049
70
0
0
VERTEX
8
Layer 1
10
14.195732
20
9.347907
70
0
0
VERTEX
8
Layer 1
10
14.697336
20
8.697474
70
0
0
VERTEX
8
Layer 1
10
15.094211
20
7.876163
70
0
0
VERTEX
8
Layer 1
10
15.226502
20
6.878465
70
0
0
VERTEX
8
Layer 1
10
15.226502
20
6.338274
70
0
0
VERTEX
8
Layer 1
10
14.983969
20
5.064968
70
0
0
VERTEX
8
Layer 1
10
14.344558
20
4.160976
70
0
0
VERTEX
8
Layer 1
10
13.605930
20
3.648346
70
0
0
VERTEX
8
Layer 1
10
12.973412
20
3.454043
70
0
0
VERTEX
8
Layer 1
10
12.178284
20
3.389275
70
0
0
VERTEX
8
Layer 1
10
9.907281
20
3.389275
70
0
0
VERTEX
8
Layer 1
10
9.322991
20
3.543615
70
0
0
VERTEX
8
Layer 1
10
9.152114
20
3.957026
70
0
0
VERTEX
8
Layer 1
10
9.322991
20
4.364925
70
0
0
VERTEX
8
Layer 1
10
9.852157
20
4.519265
70
0
0
VERTEX
8
Layer 1
10
9.852157
20
4.519265
70
0
0
SEQEND
8
Layer 1
0
POLYLINE
8
Layer 1
62
7
70
0
10
0.000000
20
0.000000
66
1
0
VERTEX
8
Layer 1
10
10.982149
20
4.519265
70
0
0
VERTEX
8
Layer 1
10
12.183796
20
4.519265
70
0
0
VERTEX
8
Layer 1
10
13.198032
20
4.712190
70
0
0
VERTEX
8
Layer 1
10
13.870513
20
5.357111
70
0
0
VERTEX
8
Layer 1
10
14.096514
20
6.371347
70
0
0
VERTEX
8
Layer 1
10
14.096514
20
6.906025
70
0
0
VERTEX
8
Layer 1
10
13.892563
20
7.843090
70
0
0
VERTEX
8
Layer 1
10
13.552188
20
8.372257
70
0
0
VERTEX
8
Layer 1
10
13.170473
20
8.702986
70
0
0
VERTEX
8
Layer 1
10
12.172773
20
8.940008
70
0
0
VERTEX
8
Layer 1
10
10.982149
20
8.940008
70
0
0
VERTEX
8
Layer 1
10
10.982149
20
4.519265
70
0
0
SEQEND
8
Layer 1
0
POLYLINE
8
Layer 1
62
7
70
0
10
0.000000
20
0.000000
66
1
0
VERTEX
8
Layer 1
10
21.989910
20
5.318526
70
0
0
VERTEX
8
Layer 1
10
17.354191
20
5.318526
70
0
0
VERTEX
8
Layer 1
10
17.598104
20
4.920274
70
0
0
VERTEX
8
Layer 1
10
17.977066
20
4.607459
70
0
0
VERTEX
8
Layer 1
10
18.507610
20
4.404888
70
0
0
VERTEX
8
Layer 1
10
19.195249
20
4.337364
70
0
0
VERTEX
8
Layer 1
10
20.865430
20
4.607459
70
0
0
VERTEX
8
Layer 1
10
21.460744
20
4.717702
70
0
0
VERTEX
8
Layer 1
10
21.841080
20
4.557850
70
0
0
VERTEX
8
Layer 1
10
21.995422
20
4.155463
70
0
0
VERTEX
8
Layer 1
10
21.830057
20
3.780637
70
0
0
VERTEX
8
Layer 1
10
20.755189
20
3.389274
70
0
0
VERTEX
8
Layer 1
10
19.112567
20
3.207374
70
0
0
VERTEX
8
Layer 1
10
17.891627
20
3.398921
70
0
0
VERTEX
8
Layer 1
10
16.940781
20
3.973562
70
0
0
VERTEX
8
Layer 1
10
16.333067
20
4.827945
70
0
0
VERTEX
8
Layer 1
10
16.130496
20
5.858717
70
0
0
VERTEX
8
Layer 1
10
16.349604
20
6.937720
70
0
0
VERTEX
8
Layer 1
10
17.006928
20
7.793481
70
0
0
VERTEX
8
Layer 1
10
17.955017
20
8.355720
70
0
0
VERTEX
8
Layer 1
10
19.035399
20
8.543133
70
0
0
VERTEX
8
Layer 1
10
20.297679
20
8.300599
70
0
0
VERTEX
8
Layer 1
10
21.157575
20
7.776945
70
0
0
VERTEX
8
Layer 1
10
21.813521
20
6.768221
70
0
0
VERTEX
8
Layer 1
10
21.989910
20
5.798083
70
0
0
VERTEX
8
Layer 1
10
21.989910
20
5.318526
70
0
0
SEQEND
8
Layer 1
0
POLYLINE
8
Layer 1
62
7
70
0
10
0.000000
20
0.000000
66
1
0
VERTEX
8
Layer 1
10
20.738651
20
6.448517
70
0
0
VERTEX
8
Layer 1
10
20.060657
20
7.170608
70
0
0
VERTEX
8
Layer 1
10
19.062958
20
7.413143
70
0
0
VERTEX
8
Layer 1
10
18.070772
20
7.170608
70
0
0
VERTEX
8
Layer 1
10
17.387264
20
6.448517
70
0
0
VERTEX
8
Layer 1
10
20.738651
20
6.448517
70
0
0
SEQEND
8
Layer 1
0
POLYLINE
8
Layer 1
62
7
70
0
10
0.000000
20
0.000000
66
1
0
VERTEX
8
Layer 1
10
25.936607
20
4.761799
70
0
0
VERTEX
8
Layer 1
10
27.154793
20
7.264315
70
0
0
VERTEX
8
Layer 1
10
26.576018
20
7.341485
70
0
0
VERTEX
8
Layer 1
10
26.369310
20
7.549568
70
0
0
VERTEX
8
Layer 1
10
26.300408
20
7.832066
70
0
0
VERTEX
8
Layer 1
10
26.471285
20
8.234453
70
0
0
VERTEX
8
Layer 1
10
27.055572
20
8.394305
70
0
0
VERTEX
8
Layer 1
10
28.604488
20
8.394305
70
0
0
VERTEX
8
Layer 1
10
29.183263
20
8.234453
70
0
0
VERTEX
8
Layer 1
10
29.359652
20
7.826554
70
0
0
VERTEX
8
Layer 1
10
29.183263
20
7.418655
70
0
0
VERTEX
8
Layer 1
10
28.604488
20
7.264315
70
0
0
VERTEX
8
Layer 1
10
28.417073
20
7.264315
70
0
0
VERTEX
8
Layer 1
10
26.526406
20
3.389274
70
0
0
VERTEX
8
Layer 1
10
25.346808
20
3.389274
70
0
0
VERTEX
8
Layer 1
10
23.456141
20
7.264315
70
0
0
VERTEX
8
Layer 1
10
23.296288
20
7.264315
70
0
0
VERTEX
8
Layer 1
10
22.712001
20
7.418655
70
0
0
VERTEX
8
Layer 1
10
22.541124
20
7.832066
70
0
0
VERTEX
8
Layer 1
10
22.712001
20
8.234453
70
0
0
VERTEX
8
Layer 1
10
23.296288
20
8.394305
70
0
0
VERTEX
8
Layer 1
10
24.812130
20
8.394305
70
0
0
VERTEX
8
Layer 1
10
25.385394
20
8.234453
70
0
0
VERTEX
8
Layer 1
10
25.561782
20
7.826554
70
0
0
VERTEX
8
Layer 1
10
25.495637
20
7.549568
70
0
0
VERTEX
8
Layer 1
10
25.297199
20
7.346997
70
0
0
VERTEX
8
Layer 1
10
24.707398
20
7.264315
70
0
0
VERTEX
8
Layer 1
10
25.936607
20
4.761799
70
0
0
SEQEND
8
Layer 1
0
POLYLINE
8
Layer 1
62
7
70
0
10
0.000000
20
0.000000
66
1
0
VERTEX
8
Layer 1
10
17.611899
20
0.930430
70
0
0
VERTEX
8
Layer 1
10
17.480985
20
0.529421
70
0
0
VERTEX
8
Layer 1
10
17.322511
20
0.529421
70
0
0
VERTEX
8
Layer 1
10
17.238449
20
1.223263
70
0
0
VERTEX
8
Layer 1
10
17.189528
20
1.245313
70
0
0
VERTEX
8
Layer 1
10
17.172990
20
1.292166
70
0
0
VERTEX
8
Layer 1
10
17.194354
20
1.345220
70
0
0
VERTEX
8
Layer 1
10
17.267391
20
1.365202
70
0
0
VERTEX
8
Layer 1
10
17.455494
20
1.364524
70
0
0
VERTEX
8
Layer 1
10
17.527839
20
1.345232
70
0
0
VERTEX
8
Layer 1
10
17.549881
20
1.294244
70
0
0
VERTEX
8
Layer 1
10
17.527839
20
1.242568
70
0
0
VERTEX
8
Layer 1
10
17.455494
20
1.223275
70
0
0
VERTEX
8
Layer 1
10
17.381770
20
1.223275
70
0
0
VERTEX
8
Layer 1
10
17.428621
20
0.828468
70
0
0
VERTEX
8
Layer 1
10
17.539554
20
1.157130
70
0
0
VERTEX
8
Layer 1
10
17.686315
20
1.157130
70
0
0
VERTEX
8
Layer 1
10
17.796557
20
0.828468
70
0
0
VERTEX
8
Layer 1
10
17.843411
20
1.223275
70
0
0
VERTEX
8
Layer 1
10
17.769687
20
1.223275
70
0
0
VERTEX
8
Layer 1
10
17.696650
20
1.242568
70
0
0
VERTEX
8
Layer 1
10
17.675286
20
1.294244
70
0
0
VERTEX
8
Layer 1
10
17.696650
20
1.345232
70
0
0
VERTEX
8
Layer 1
10
17.769687
20
1.365213
70
0
0
VERTEX
8
Layer 1
10
17.957099
20
1.364536
70
0
0
VERTEX
8
Layer 1
10
18.029446
20
1.345243
70
0
0
VERTEX
8
Layer 1
10
18.051488
20
1.294256
70
0
0
VERTEX
8
Layer 1
10
18.034272
20
1.248091
70
0
0
VERTEX
8
Layer 1
10
17.984663
20
1.223287
70
0
0
VERTEX
8
Layer 1
10
17.903358
20
0.529445
70
0
0
VERTEX
8
Layer 1
10
17.747639
20
0.529445
70
0
0
VERTEX
8
Layer 1
10
17.611899
20
0.930430
70
0
0
SEQEND
8
Layer 1
0
POLYLINE
8
Layer 1
62
7
70
0
10
0.000000
20
0.000000
66
1
0
VERTEX
8
Layer 1
10
18.812858
20
0.770577
70
0
0
VERTEX
8
Layer 1
10
18.233391
20
0.770577
70
0
0
VERTEX
8
Layer 1
10
18.311251
20
0.681694
70
0
0
VERTEX
8
Layer 1
10
18.463524
20
0.647932
70
0
0
VERTEX
8
Layer 1
10
18.672297
20
0.681694
70
0
0
VERTEX
8
Layer 1
10
18.746711
20
0.695475
70
0
0
VERTEX
8
Layer 1
10
18.794254
20
0.675494
70
0
0
VERTEX
8
Layer 1
10
18.813558
20
0.625196
70
0
0
VERTEX
8
Layer 1
10
18.792899
20
0.578342
70
0
0
VERTEX
8
Layer 1
10
18.658539
20
0.529422
70
0
0
VERTEX
8
Layer 1
10
18.453211
20
0.506683
70
0
0
VERTEX
8
Layer 1
10
18.181739
20
0.602457
70
0
0
VERTEX
8
Layer 1
10
18.080452
20
0.838101
70
0
0
VERTEX
8
Layer 1
10
18.190008
20
1.079947
70
0
0
VERTEX
8
Layer 1
10
18.443565
20
1.173653
70
0
0
VERTEX
8
Layer 1
10
18.601352
20
1.143336
70
0
0
VERTEX
8
Layer 1
10
18.708837
20
1.077880
70
0
0
VERTEX
8
Layer 1
10
18.790831
20
0.951789
70
0
0
VERTEX
8
Layer 1
10
18.812872
20
0.830522
70
0
0
VERTEX
8
Layer 1
10
18.812858
20
0.770577
70
0
0
SEQEND
8
Layer 1
0
POLYLINE
8
Layer 1
62
7
70
0
10
0.000000
20
0.000000
66
1
0
VERTEX
8
Layer 1
10
18.656451
20
0.911826
70
0
0
VERTEX
8
Layer 1
10
18.571699
20
1.002088
70
0
0
VERTEX
8
Layer 1
10
18.446988
20
1.032405
70
0
0
VERTEX
8
Layer 1
10
18.322966
20
1.002088
70
0
0
VERTEX
8
Layer 1
10
18.237526
20
0.911826
70
0
0
VERTEX
8
Layer 1
10
18.656451
20
0.911826
70
0
0
SEQEND
8
Layer 1
0
POLYLINE
8
Layer 1
62
7
70
0
10
0.000000
20
0.000000
66
1
0
VERTEX
8
Layer 1
10
19.477759
20
0.756797
70
0
0
VERTEX
8
Layer 1
10
19.134628
20
0.756797
70
0
0
VERTEX
8
Layer 1
10
19.100177
20
0.670670
70
0
0
VERTEX
8
Layer 1
10
19.134628
20
0.670670
70
0
0
VERTEX
8
Layer 1
10
19.206975
20
0.650688
70
0
0
VERTEX
8
Layer 1
10
19.229017
20
0.599701
70
0
0
VERTEX
8
Layer 1
10
19.206975
20
0.548714
70
0
0
VERTEX
8
Layer 1
10
19.134628
20
0.529421
70
0
0
VERTEX
8
Layer 1
10
18.944461
20
0.529421
70
0
0
VERTEX
8
Layer 1
10
18.872113
20
0.548714
70
0
0
VERTEX
8
Layer 1
10
18.850072
20
0.600390
70
0
0
VERTEX
8
Layer 1
10
18.872819
20
0.652067
70
0
0
VERTEX
8
Layer 1
10
18.947921
20
0.670671
70
0
0
VERTEX
8
Layer 1
10
19.169787
20
1.223264
70
0
0
VERTEX
8
Layer 1
10
19.077458
20
1.223264
70
0
0
VERTEX
8
Layer 1
10
19.004422
20
1.242556
70
0
0
VERTEX
8
Layer 1
10
18.983058
20
1.294232
70
0
0
VERTEX
8
Layer 1
10
19.004422
20
1.345220
70
0
0
VERTEX
8
Layer 1
10
19.077458
20
1.365201
70
0
0
VERTEX
8
Layer 1
10
19.382692
20
1.364524
70
0
0
VERTEX
8
Layer 1
10
19.663811
20
0.670682
70
0
0
VERTEX
8
Layer 1
10
19.729270
20
0.659658
70
0
0
VERTEX
8
Layer 1
10
19.760963
20
0.599714
70
0
0
VERTEX
8
Layer 1
10
19.739599
20
0.548726
70
0
0
VERTEX
8
Layer 1
10
19.667251
20
0.529434
70
0
0
VERTEX
8
Layer 1
10
19.477082
20
0.529434
70
0
0
VERTEX
8
Layer 1
10
19.404045
20
0.548726
70
0
0
VERTEX
8
Layer 1
10
19.382681
20
0.600403
70
0
0
VERTEX
8
Layer 1
10
19.404045
20
0.650701
70
0
0
VERTEX
8
Layer 1
10
19.477082
20
0.670682
70
0
0
VERTEX
8
Layer 1
10
19.511532
20
0.670682
70
0
0
VERTEX
8
Layer 1
10
19.477759
20
0.756797
70
0
0
SEQEND
8
Layer 1
0
POLYLINE
8
Layer 1
62
7
70
0
10
0.000000
20
0.000000
66
1
0
VERTEX
8
Layer 1
10
19.419192
20
0.898046
70
0
0
VERTEX
8
Layer 1
10
19.305505
20
1.177787
70
0
0
VERTEX
8
Layer 1
10
19.191129
20
0.898046
70
0
0
VERTEX
8
Layer 1
10
19.419192
20
0.898046
70
0
0
SEQEND
8
Layer 1
0
POLYLINE
8
Layer 1
62
7
70
0
10
0.000000
20
0.000000
66
1
0
VERTEX
8
Layer 1
10
20.122681
20
1.155050
70
0
0
VERTEX
8
Layer 1
10
20.122681
20
1.066856
70
0
0
VERTEX
8
Layer 1
10
20.262553
20
1.152294
70
0
0
VERTEX
8
Layer 1
10
20.359014
20
1.173652
70
0
0
VERTEX
8
Layer 1
10
20.492686
20
1.122665
70
0
0
VERTEX
8
Layer 1
10
20.536783
20
1.052385
70
0
0
VERTEX
8
Layer 1
10
20.515419
20
1.000709
70
0
0
VERTEX
8
Layer 1
10
20.465121
20
0.980039
70
0
0
VERTEX
8
Layer 1
10
20.410000
20
1.006220
70
0
0
VERTEX
8
Layer 1
10
20.358323
20
1.032402
70
0
0
VERTEX
8
Layer 1
10
20.269440
20
0.995195
70
0
0
VERTEX
8
Layer 1
10
20.122679
20
0.883574
70
0
0
VERTEX
8
Layer 1
10
20.122679
20
0.670667
70
0
0
VERTEX
8
Layer 1
10
20.323872
20
0.670667
70
0
0
VERTEX
8
Layer 1
10
20.396219
20
0.650686
70
0
0
VERTEX
8
Layer 1
10
20.418261
20
0.599699
70
0
0
VERTEX
8
Layer 1
10
20.396219
20
0.548711
70
0
0
VERTEX
8
Layer 1
10
20.323872
20
0.529418
70
0
0
VERTEX
8
Layer 1
10
19.897369
20
0.529418
70
0
0
VERTEX
8
Layer 1
10
19.824333
20
0.548711
70
0
0
VERTEX
8
Layer 1
10
19.802969
20
0.600387
70
0
0
VERTEX
8
Layer 1
10
19.824333
20
0.650686
70
0
0
VERTEX
8
Layer 1
10
19.897369
20
0.670667
70
0
0
VERTEX
8
Layer 1
10
19.981429
20
0.670667
70
0
0
VERTEX
8
Layer 1
10
19.981429
20
1.013799
70
0
0
VERTEX
8
Layer 1
10
19.930443
20
1.013799
70
0
0
VERTEX
8
Layer 1
10
19.857407
20
1.033091
70
0
0
VERTEX
8
Layer 1
10
19.836043
20
1.084768
70
0
0
VERTEX
8
Layer 1
10
19.857407
20
1.135066
70
0
0
VERTEX
8
Layer 1
10
19.930443
20
1.155047
70
0
0
VERTEX
8
Layer 1
10
20.122681
20
1.155050
70
0
0
SEQEND
8
Layer 1
0
POLYLINE
8
Layer 1
62
7
70
0
10
0.000000
20
0.000000
66
1
0
VERTEX
8
Layer 1
10
21.353268
20
0.770577
70
0
0
VERTEX
8
Layer 1
10
20.773804
20
0.770577
70
0
0
VERTEX
8
Layer 1
10
20.851664
20
0.681694
70
0
0
VERTEX
8
Layer 1
10
21.003937
20
0.647932
70
0
0
VERTEX
8
Layer 1
10
21.212707
20
0.681694
70
0
0
VERTEX
8
Layer 1
10
21.287124
20
0.695475
70
0
0
VERTEX
8
Layer 1
10
21.334664
20
0.675494
70
0
0
VERTEX
8
Layer 1
10
21.353968
20
0.625196
70
0
0
VERTEX
8
Layer 1
10
21.333309
20
0.578342
70
0
0
VERTEX
8
Layer 1
10
21.198952
20
0.529422
70
0
0
VERTEX
8
Layer 1
10
20.993624
20
0.506683
70
0
0
VERTEX
8
Layer 1
10
20.722149
20
0.602457
70
0
0
VERTEX
8
Layer 1
10
20.620865
20
0.838101
70
0
0
VERTEX
8
Layer 1
10
20.730418
20
1.079947
70
0
0
VERTEX
8
Layer 1
10
20.983978
20
1.173653
70
0
0
VERTEX
8
Layer 1
10
21.141762
20
1.143336
70
0
0
VERTEX
8
Layer 1
10
21.249250
20
1.077880
70
0
0
VERTEX
8
Layer 1
10
21.331243
20
0.951789
70
0
0
VERTEX
8
Layer 1
10
21.353285
20
0.830522
70
0
0
VERTEX
8
Layer 1
10
21.353268
20
0.770577
70
0
0
SEQEND
8
Layer 1
0
POLYLINE
8
Layer 1
62
7
70
0
10
0.000000
20
0.000000
66
1
0
VERTEX
8
Layer 1
10
21.196861
20
0.911826
70
0
0
VERTEX
8
Layer 1
10
21.112112
20
1.002088
70
0
0
VERTEX
8
Layer 1
10
20.987398
20
1.032405
70
0
0
VERTEX
8
Layer 1
10
20.863376
20
1.002088
70
0
0
VERTEX
8
Layer 1
10
20.777939
20
0.911826
70
0
0
VERTEX
8
Layer 1
10
21.196861
20
0.911826
70
0
0
SEQEND
8
Layer 1
0
POLYLINE
8
Layer 1
62
7
70
0
10
0.000000
20
0.000000
66
1
0
VERTEX
8
Layer 1
10
21.953405
20
0.600390
70
0
0
VERTEX
8
Layer 1
10
21.925154
20
0.533555
70
0
0
VERTEX
8
Layer 1
10
21.847295
20
0.506682
70
0
0
VERTEX
8
Layer 1
10
21.769435
20
0.533555
70
0
0
VERTEX
8
Layer 1
10
21.741185
20
0.600390
70
0
0
VERTEX
8
Layer 1
10
21.769435
20
0.667225
70
0
0
VERTEX
8
Layer 1
10
21.847295
20
0.694095
70
0
0
VERTEX
8
Layer 1
10
21.925154
20
0.667225
70
0
0
VERTEX
8
Layer 1
10
21.953405
20
0.600390
70
0
0
VERTEX
8
Layer 1
10
21.953405
20
0.600390
70
0
0
SEQEND
8
Layer 1
0
POLYLINE
8
Layer 1
62
7
70
0
10
0.000000
20
0.000000
66
1
0
VERTEX
8
Layer 1
10
22.800206
20
0.600390
70
0
0
VERTEX
8
Layer 1
10
22.771959
20
0.533555
70
0
0
VERTEX
8
Layer 1
10
22.694099
20
0.506682
70
0
0
VERTEX
8
Layer 1
10
22.616240
20
0.533555
70
0
0
VERTEX
8
Layer 1
10
22.587989
20
0.600390
70
0
0
VERTEX
8
Layer 1
10
22.616240
20
0.667225
70
0
0
VERTEX
8
Layer 1
10
22.694099
20
0.694095
70
0
0
VERTEX
8
Layer 1
10
22.771959
20
0.667225
70
0
0
VERTEX
8
Layer 1
10
22.800206
20
0.600390
70
0
0
VERTEX
8
Layer 1
10
22.800206
20
0.600390
70
0
0
SEQEND
8
Layer 1
0
POLYLINE
8
Layer 1
62
7
70
0
10
0.000000
20
0.000000
66
1
0
VERTEX
8
Layer 1
10
23.647010
20
0.600390
70
0
0
VERTEX
8
Layer 1
10
23.618763
20
0.533555
70
0
0
VERTEX
8
Layer 1
10
23.540903
20
0.506682
70
0
0
VERTEX
8
Layer 1
10
23.463044
20
0.533555
70
0
0
VERTEX
8
Layer 1
10
23.434794
20
0.600390
70
0
0
VERTEX
8
Layer 1
10
23.463044
20
0.667225
70
0
0
VERTEX
8
Layer 1
10
23.540903
20
0.694095
70
0
0
VERTEX
8
Layer 1
10
23.618763
20
0.667225
70
0
0
VERTEX
8
Layer 1
10
23.647010
20
0.600390
70
0
0
VERTEX
8
Layer 1
10
23.647010
20
0.600390
70
0
0
SEQEND
8
Layer 1
0
POLYLINE
8
Layer 1
62
7
70
0
10
0.000000
20
0.000000
66
1
0
VERTEX
8
Layer 1
10
24.352565
20
0.719590
70
0
0
VERTEX
8
Layer 1
10
24.541358
20
0.719590
70
0
0
VERTEX
8
Layer 1
10
24.338096
20
0.336496
70
0
0
VERTEX
8
Layer 1
10
24.293310
20
0.302734
70
0
0
VERTEX
8
Layer 1
10
24.262305
20
0.314446
70
0
0
VERTEX
8
Layer 1
10
24.249916
20
0.340628
70
0
0
VERTEX
8
Layer 1
10
24.254742
20
0.368878
70
0
0
VERTEX
8
Layer 1
10
24.352565
20
0.719590
70
0
0
SEQEND
8
Layer 1
0
POLYLINE
8
Layer 1
62
7
70
0
10
0.000000
20
0.000000
66
1
0
VERTEX
8
Layer 1
10
25.233132
20
0.930430
70
0
0
VERTEX
8
Layer 1
10
25.102218
20
0.529421
70
0
0
VERTEX
8
Layer 1
10
24.943744
20
0.529421
70
0
0
VERTEX
8
Layer 1
10
24.859685
20
1.223263
70
0
0
VERTEX
8
Layer 1
10
24.810764
20
1.245313
70
0
0
VERTEX
8
Layer 1
10
24.794226
20
1.292166
70
0
0
VERTEX
8
Layer 1
10
24.815590
20
1.345220
70
0
0
VERTEX
8
Layer 1
10
24.888626
20
1.365202
70
0
0
VERTEX
8
Layer 1
10
25.076727
20
1.364524
70
0
0
VERTEX
8
Layer 1
10
25.149075
20
1.345232
70
0
0
VERTEX
8
Layer 1
10
25.171116
20
1.294244
70
0
0
VERTEX
8
Layer 1
10
25.149075
20
1.242568
70
0
0
VERTEX
8
Layer 1
10
25.076727
20
1.223275
70
0
0
VERTEX
8
Layer 1
10
25.003002
20
1.223275
70
0
0
VERTEX
8
Layer 1
10
25.049857
20
0.828468
70
0
0
VERTEX
8
Layer 1
10
25.160787
20
1.157130
70
0
0
VERTEX
8
Layer 1
10
25.307548
20
1.157130
70
0
0
VERTEX
8
Layer 1
10
25.417793
20
0.828468
70
0
0
VERTEX
8
Layer 1
10
25.464644
20
1.223275
70
0
0
VERTEX
8
Layer 1
10
25.390919
20
1.223275
70
0
0
VERTEX
8
Layer 1
10
25.317883
20
1.242568
70
0
0
VERTEX
8
Layer 1
10
25.296519
20
1.294244
70
0
0
VERTEX
8
Layer 1
10
25.317883
20
1.345232
70
0
0
VERTEX
8
Layer 1
10
25.390919
20
1.365213
70
0
0
VERTEX
8
Layer 1
10
25.578332
20
1.364536
70
0
0
VERTEX
8
Layer 1
10
25.650679
20
1.345243
70
0
0
VERTEX
8
Layer 1
10
25.672721
20
1.294256
70
0
0
VERTEX
8
Layer 1
10
25.655505
20
1.248091
70
0
0
VERTEX
8
Layer 1
10
25.605896
20
1.223287
70
0
0
VERTEX
8
Layer 1
10
25.524594
20
0.529445
70
0
0
VERTEX
8
Layer 1
10
25.368875
20
0.529445
70
0
0
VERTEX
8
Layer 1
10
25.233132
20
0.930430
70
0
0
SEQEND
8
Layer 1
0
POLYLINE
8
Layer 1
62
7
70
0
10
0.000000
20
0.000000
66
1
0
VERTEX
8
Layer 1
10
26.434091
20
0.770577
70
0
0
VERTEX
8
Layer 1
10
25.854627
20
0.770577
70
0
0
VERTEX
8
Layer 1
10
25.932487
20
0.681694
70
0
0
VERTEX
8
Layer 1
10
26.084759
20
0.647932
70
0
0
VERTEX
8
Layer 1
10
26.293530
20
0.681694
70
0
0
VERTEX
8
Layer 1
10
26.367947
20
0.695475
70
0
0
VERTEX
8
Layer 1
10
26.415487
20
0.675494
70
0
0
VERTEX
8
Layer 1
10
26.434791
20
0.625196
70
0
0
VERTEX
8
Layer 1
10
26.414132
20
0.578342
70
0
0
VERTEX
8
Layer 1
10
26.279775
20
0.529422
70
0
0
VERTEX
8
Layer 1
10
26.074447
20
0.506683
70
0
0
VERTEX
8
Layer 1
10
25.802972
20
0.602457
70
0
0
VERTEX
8
Layer 1
10
25.701688
20
0.838101
70
0
0
VERTEX
8
Layer 1
10
25.811241
20
1.079947
70
0
0
VERTEX
8
Layer 1
10
26.064801
20
1.173653
70
0
0
VERTEX
8
Layer 1
10
26.222585
20
1.143336
70
0
0
VERTEX
8
Layer 1
10
26.330072
20
1.077880
70
0
0
VERTEX
8
Layer 1
10
26.412066
20
0.951789
70
0
0
VERTEX
8
Layer 1
10
26.434108
20
0.830522
70
0
0
VERTEX
8
Layer 1
10
26.434091
20
0.770577
70
0
0
SEQEND
8
Layer 1
0
POLYLINE
8
Layer 1
62
7
70
0
10
0.000000
20
0.000000
66
1
0
VERTEX
8
Layer 1
10
26.277684
20
0.911826
70
0
0
VERTEX
8
Layer 1
10
26.192935
20
1.002088
70
0
0
VERTEX
8
Layer 1
10
26.068221
20
1.032405
70
0
0
VERTEX
8
Layer 1
10
25.944199
20
1.002088
70
0
0
VERTEX
8
Layer 1
10
25.858762
20
0.911826
70
0
0
VERTEX
8
Layer 1
10
26.277684
20
0.911826
70
0
0
SEQEND
8
Layer 1
0
POLYLINE
8
Layer 1
62
7
70
0
10
0.000000
20
0.000000
66
1
0
VERTEX
8
Layer 1
10
27.147915
20
1.328682
70
0
0
VERTEX
8
Layer 1
10
27.176166
20
1.355553
70
0
0
VERTEX
8
Layer 1
10
27.209925
20
1.364511
70
0
0
VERTEX
8
Layer 1
10
27.260225
20
1.343152
70
0
0
VERTEX
8
Layer 1
10
27.280207
20
1.270805
70
0
0
VERTEX
8
Layer 1
10
27.280207
20
1.150916
70
0
0
VERTEX
8
Layer 1
10
27.260225
20
1.077880
70
0
0
VERTEX
8
Layer 1
10
27.209925
20
1.056521
70
0
0
VERTEX
8
Layer 1
10
27.164450
20
1.072368
70
0
0
VERTEX
8
Layer 1
10
27.138966
20
1.131624
70
0
0
VERTEX
8
Layer 1
10
27.119662
20
1.176410
70
0
0
VERTEX
8
Layer 1
10
27.040425
20
1.226019
70
0
0
VERTEX
8
Layer 1
10
26.939139
20
1.244624
70
0
0
VERTEX
8
Layer 1
10
26.822694
20
1.217062
70
0
0
VERTEX
8
Layer 1
10
26.728988
20
1.127489
70
0
0
VERTEX
8
Layer 1
10
26.688336
20
0.980039
70
0
0
VERTEX
8
Layer 1
10
26.688336
20
0.888400
70
0
0
VERTEX
8
Layer 1
10
26.762061
20
0.718212
70
0
0
VERTEX
8
Layer 1
10
26.968078
20
0.649999
70
0
0
VERTEX
8
Layer 1
10
27.101058
20
0.671358
70
0
0
VERTEX
8
Layer 1
10
27.168582
20
0.720278
70
0
0
VERTEX
8
Layer 1
10
27.203033
20
0.748528
70
0
0
VERTEX
8
Layer 1
10
27.231283
20
0.755417
70
0
0
VERTEX
8
Layer 1
10
27.280892
20
0.734058
70
0
0
VERTEX
8
Layer 1
10
27.302257
20
0.683760
70
0
0
VERTEX
8
Layer 1
10
27.273318
20
0.621748
70
0
0
VERTEX
8
Layer 1
10
27.165142
20
0.545956
70
0
0
VERTEX
8
Layer 1
10
26.968772
20
0.508749
70
0
0
VERTEX
8
Layer 1
10
26.742774
20
0.560425
70
0
0
VERTEX
8
Layer 1
10
26.604282
20
0.690650
70
0
0
VERTEX
8
Layer 1
10
26.547093
20
0.885642
70
0
0
VERTEX
8
Layer 1
10
26.547093
20
0.981416
70
0
0
VERTEX
8
Layer 1
10
26.598082
20
1.186743
70
0
0
VERTEX
8
Layer 1
10
26.740708
20
1.334193
70
0
0
VERTEX
8
Layer 1
10
26.933632
20
1.385870
70
0
0
VERTEX
8
Layer 1
10
27.048009
20
1.371400
70
0
0
VERTEX
8
Layer 1
10
27.147918
20
1.328681
70
0
0
VERTEX
8
Layer 1
10
27.147915
20
1.328682
70
0
0
SEQEND
8
Layer 1
0
POLYLINE
8
Layer 1
62
7
70
0
10
0.000000
20
0.000000
66
1
0
VERTEX
8
Layer 1
10
27.900322
20
0.529421
70
0
0
VERTEX
8
Layer 1
10
27.900322
20
0.562494
70
0
0
VERTEX
8
Layer 1
10
27.783188
20
0.520464
70
0
0
VERTEX
8
Layer 1
10
27.666746
20
0.505994
70
0
0
VERTEX
8
Layer 1
10
27.482089
20
0.565939
70
0
0
VERTEX
8
Layer 1
10
27.411121
20
0.699609
70
0
0
VERTEX
8
Layer 1
10
27.501381
20
0.864284
70
0
0
VERTEX
8
Layer 1
10
27.752183
20
0.940765
70
0
0
VERTEX
8
Layer 1
10
27.900322
20
0.926984
70
0
0
VERTEX
8
Layer 1
10
27.900322
20
0.960746
70
0
0
VERTEX
8
Layer 1
10
27.872777
20
1.012423
70
0
0
VERTEX
8
Layer 1
10
27.769424
20
1.032404
70
0
0
VERTEX
8
Layer 1
10
27.606814
20
1.007599
70
0
0
VERTEX
8
Layer 1
10
27.548938
20
0.998642
70
0
0
VERTEX
8
Layer 1
10
27.500707
20
1.018623
70
0
0
VERTEX
8
Layer 1
10
27.481403
20
1.070988
70
0
0
VERTEX
8
Layer 1
10
27.488289
20
1.101994
70
0
0
VERTEX
8
Layer 1
10
27.507593
20
1.122664
70
0
0
VERTEX
8
Layer 1
10
27.559271
20
1.141957
70
0
0
VERTEX
8
Layer 1
10
27.666069
20
1.164695
70
0
0
VERTEX
8
Layer 1
10
27.764598
20
1.173653
70
0
0
VERTEX
8
Layer 1
10
27.968546
20
1.116465
70
0
0
VERTEX
8
Layer 1
10
28.041582
20
0.961435
70
0
0
VERTEX
8
Layer 1
10
28.041582
20
0.670669
70
0
0
VERTEX
8
Layer 1
10
28.065684
20
0.670669
70
0
0
VERTEX
8
Layer 1
10
28.138032
20
0.650688
70
0
0
VERTEX
8
Layer 1
10
28.160073
20
0.599701
70
0
0
VERTEX
8
Layer 1
10
28.138032
20
0.548713
70
0
0
VERTEX
8
Layer 1
10
28.065684
20
0.529421
70
0
0
VERTEX
8
Layer 1
10
27.900322
20
0.529421
70
0
0
SEQEND
8
Layer 1
0
POLYLINE
8
Layer 1
62
7
70
0
10
0.000000
20
0.000000
66
1
0
VERTEX
8
Layer 1
10
27.900322
20
0.782291
70
0
0
VERTEX
8
Layer 1
10
27.743914
20
0.798826
70
0
0
VERTEX
8
Layer 1
10
27.595776
20
0.756796
70
0
0
VERTEX
8
Layer 1
10
27.557191
20
0.702364
70
0
0
VERTEX
8
Layer 1
10
27.575789
20
0.669980
70
0
0
VERTEX
8
Layer 1
10
27.670184
20
0.647241
70
0
0
VERTEX
8
Layer 1
10
27.785251
20
0.667222
70
0
0
VERTEX
8
Layer 1
10
27.900316
20
0.721655
70
0
0
VERTEX
8
Layer 1
10
27.900322
20
0.782291
70
0
0
SEQEND
8
Layer 1
0
POLYLINE
8
Layer 1
62
7
70
0
10
0.000000
20
0.000000
66
1
0
VERTEX
8
Layer 1
10
28.477031
20
1.155050
70
0
0
VERTEX
8
Layer 1
10
28.477031
20
1.107508
70
0
0
VERTEX
8
Layer 1
10
28.561780
20
1.157117
70
0
0
VERTEX
8
Layer 1
10
28.663066
20
1.173652
70
0
0
VERTEX
8
Layer 1
10
28.861505
20
1.095793
70
0
0
VERTEX
8
Layer 1
10
28.919380
20
0.933185
70
0
0
VERTEX
8
Layer 1
10
28.919380
20
0.670669
70
0
0
VERTEX
8
Layer 1
10
28.985527
20
0.650687
70
0
0
VERTEX
8
Layer 1
10
29.006892
20
0.599700
70
0
0
VERTEX
8
Layer 1
10
28.984850
20
0.548713
70
0
0
VERTEX
8
Layer 1
10
28.912503
20
0.529420
70
0
0
VERTEX
8
Layer 1
10
28.785034
20
0.529420
70
0
0
VERTEX
8
Layer 1
10
28.711998
20
0.548713
70
0
0
VERTEX
8
Layer 1
10
28.690634
20
0.600389
70
0
0
VERTEX
8
Layer 1
10
28.711998
20
0.650687
70
0
0
VERTEX
8
Layer 1
10
28.778145
20
0.670669
70
0
0
VERTEX
8
Layer 1
10
28.778145
20
0.937319
70
0
0
VERTEX
8
Layer 1
10
28.753338
20
1.004843
70
0
0
VERTEX
8
Layer 1
10
28.656188
20
1.032405
70
0
0
VERTEX
8
Layer 1
10
28.570060
20
1.013112
70
0
0
VERTEX
8
Layer 1
10
28.477042
20
0.933186
70
0
0
VERTEX
8
Layer 1
10
28.477042
20
0.670670
70
0
0
VERTEX
8
Layer 1
10
28.547321
20
0.660335
70
0
0
VERTEX
8
Layer 1
10
28.581084
20
0.599701
70
0
0
VERTEX
8
Layer 1
10
28.559042
20
0.548714
70
0
0
VERTEX
8
Layer 1
10
28.486694
20
0.529421
70
0
0
VERTEX
8
Layer 1
10
28.326152
20
0.529421
70
0
0
VERTEX
8
Layer 1
10
28.253116
20
0.548714
70
0
0
VERTEX
8
Layer 1
10
28.231752
20
0.600390
70
0
0
VERTEX
8
Layer 1
10
28.264826
20
0.660335
70
0
0
VERTEX
8
Layer 1
10
28.335793
20
0.670670
70
0
0
VERTEX
8
Layer 1
10
28.335793
20
1.013801
70
0
0
VERTEX
8
Layer 1
10
28.269649
20
1.033783
70
0
0
VERTEX
8
Layer 1
10
28.248285
20
1.084770
70
0
0
VERTEX
8
Layer 1
10
28.269649
20
1.135068
70
0
0
VERTEX
8
Layer 1
10
28.342685
20
1.155049
70
0
0
VERTEX
8
Layer 1
10
28.477031
20
1.155050
70
0
0
SEQEND
8
Layer 1
0
POLYLINE
8
Layer 1
62
7
70
0
10
0.000000
20
0.000000
66
1
0
VERTEX
8
Layer 1
10
29.571883
20
1.282518
70
0
0
VERTEX
8
Layer 1
10
29.532609
20
0.856705
70
0
0
VERTEX
8
Layer 1
10
29.510568
20
0.805029
70
0
0
VERTEX
8
Layer 1
10
29.462336
20
0.787113
70
0
0
VERTEX
8
Layer 1
10
29.414104
20
0.805029
70
0
0
VERTEX
8
Layer 1
10
29.392063
20
0.856705
70
0
0
VERTEX
8
Layer 1
10
29.352100
20
1.282518
70
0
0
VERTEX
8
Layer 1
10
29.349278
20
1.325237
70
0
0
VERTEX
8
Layer 1
10
29.381663
20
1.411365
70
0
0
VERTEX
8
Layer 1
10
29.462277
20
1.444438
70
0
0
VERTEX
8
Layer 1
10
29.542202
20
1.411365
70
0
0
VERTEX
8
Layer 1
10
29.575275
20
1.327994
70
0
0
VERTEX
8
Layer 1
10
29.571832
20
1.282518
70
0
0
VERTEX
8
Layer 1
10
29.571883
20
1.282518
70
0
0
SEQEND
8
Layer 1
0
POLYLINE
8
Layer 1
62
7
70
0
10
0.000000
20
0.000000
66
1
0
VERTEX
8
Layer 1
10
29.549136
20
0.581098
70
0
0
VERTEX
8
Layer 1
10
29.526389
20
0.529421
70
0
0
VERTEX
8
Layer 1
10
29.463688
20
0.508751
70
0
0
VERTEX
8
Layer 1
10
29.400989
20
0.529421
70
0
0
VERTEX
8
Layer 1
10
29.378242
20
0.581098
70
0
0
VERTEX
8
Layer 1
10
29.400284
20
0.631396
70
0
0
VERTEX
8
Layer 1
10
29.463671
20
0.652754
70
0
0
VERTEX
8
Layer 1
10
29.526372
20
0.632084
70
0
0
VERTEX
8
Layer 1
10
29.549119
20
0.581097
70
0
0
VERTEX
8
Layer 1
10
29.549136
20
0.581098
70
0
0
SEQEND
8
Layer 1
0
POLYLINE
8
Layer 1
62
7
70
0
10
0.000000
20
0.000000
66
1
0
VERTEX
8
Layer 1
10
30.418676
20
1.282518
70
0
0
VERTEX
8
Layer 1
10
30.379402
20
0.856705
70
0
0
VERTEX
8
Layer 1
10
30.357361
20
0.805029
70
0
0
VERTEX
8
Layer 1
10
30.309129
20
0.787113
70
0
0
VERTEX
8
Layer 1
10
30.260897
20
0.805029
70
0
0
VERTEX
8
Layer 1
10
30.238856
20
0.856705
70
0
0
VERTEX
8
Layer 1
10
30.198890
20
1.282518
70
0
0
VERTEX
8
Layer 1
10
30.196068
20
1.325237
70
0
0
VERTEX
8
Layer 1
10
30.228453
20
1.411365
70
0
0
VERTEX
8
Layer 1
10
30.309067
20
1.444438
70
0
0
VERTEX
8
Layer 1
10
30.388992
20
1.411365
70
0
0
VERTEX
8
Layer 1
10
30.422066
20
1.327994
70
0
0
VERTEX
8
Layer 1
10
30.418623
20
1.282518
70
0
0
VERTEX
8
Layer 1
10
30.418676
20
1.282518
70
0
0
SEQEND
8
Layer 1
0
POLYLINE
8
Layer 1
62
7
70
0
10
0.000000
20
0.000000
66
1
0
VERTEX
8
Layer 1
10
30.395929
20
0.581098
70
0
0
VERTEX
8
Layer 1
10
30.373182
20
0.529421
70
0
0
VERTEX
8
Layer 1
10
30.310481
20
0.508751
70
0
0
VERTEX
8
Layer 1
10
30.247779
20
0.529421
70
0
0
VERTEX
8
Layer 1
10
30.225032
20
0.581098
70
0
0
VERTEX
8
Layer 1
10
30.247074
20
0.631396
70
0
0
VERTEX
8
Layer 1
10
30.310464
20
0.652754
70
0
0
VERTEX
8
Layer 1
10
30.373165
20
0.632084
70
0
0
VERTEX
8
Layer 1
10
30.395912
20
0.581097
70
0
0
VERTEX
8
Layer 1
10
30.395929
20
0.581098
70
0
0
SEQEND
8
Layer 1
0
POLYLINE
8
Layer 1
62
7
70
0
10
0.000000
20
0.000000
66
1
0
VERTEX
8
Layer 1
10
31.265469
20
1.282518
70
0
0
VERTEX
8
Layer 1
10
31.226195
20
0.856705
70
0
0
VERTEX
8
Layer 1
10
31.204154
20
0.805029
70
0
0
VERTEX
8
Layer 1
10
31.155922
20
0.787113
70
0
0
VERTEX
8
Layer 1
10
31.107690
20
0.805029
70
0
0
VERTEX
8
Layer 1
10
31.085649
20
0.856705
70
0
0
VERTEX
8
Layer 1
10
31.045686
20
1.282518
70
0
0
VERTEX
8
Layer 1
10
31.042864
20
1.325237
70
0
0
VERTEX
8
Layer 1
10
31.075246
20
1.411365
70
0
0
VERTEX
8
Layer 1
10
31.155863
20
1.444438
70
0
0
VERTEX
8
Layer 1
10
31.235788
20
1.411365
70
0
0
VERTEX
8
Layer 1
10
31.268861
20
1.327994
70
0
0
VERTEX
8
Layer 1
10
31.265418
20
1.282518
70
0
0
VERTEX
8
Layer 1
10
31.265469
20
1.282518
70
0
0
SEQEND
8
Layer 1
0
POLYLINE
8
Layer 1
62
7
70
0
10
0.000000
20
0.000000
66
1
0
VERTEX
8
Layer 1
10
31.242722
20
0.581098
70
0
0
VERTEX
8
Layer 1
10
31.219975
20
0.529421
70
0
0
VERTEX
8
Layer 1
10
31.157274
20
0.508751
70
0
0
VERTEX
8
Layer 1
10
31.094572
20
0.529421
70
0
0
VERTEX
8
Layer 1
10
31.071825
20
0.581098
70
0
0
VERTEX
8
Layer 1
10
31.093867
20
0.631396
70
0
0
VERTEX
8
Layer 1
10
31.157257
20
0.652754
70
0
0
VERTEX
8
Layer 1
10
31.219958
20
0.632084
70
0
0
VERTEX
8
Layer 1
10
31.242705
20
0.581097
70
0
0
VERTEX
8
Layer 1
10
31.242722
20
0.581098
70
0
0
SEQEND
8
Layer 1
0
POLYLINE
8
Layer 1
62
16
70
0
10
0.000000
20
0.000000
66
1
0
VERTEX
8
Layer 1
10
-0.000004
20
2.020624
70
0
0
VERTEX
8
Layer 1
10
31.797968
20
2.020624
70
0
0
SEQEND
8
Layer 1
 0 
ENDSEC
 0 
EOF