999
dxfrw 0.6.3
  0
SECTION
  2
HEADER
  9
$ACADVER
  1
AC1021
  9
$DWGCODEPAGE
  3
ANSI_1252
  9
$INSBASE
 10
0
 20
0
 30
0
  9
$EXTMIN
 10
20
 20
20
 30
0
  9
$EXTMAX
 10
2380
 20
1680
 30
0
  9
$LIMMIN
 10
0
 20
0
  9
$LIMMAX
 10
420
 20
297
  9
$ORTHOMODE
 70
    0
  9
$REGENMODE
 70
    1
  9
$FILLMODE
 70
    1
  9
$QTEXTMODE
 70
    0
  9
$MIRRTEXT
 70
    1
  9
$LTSCALE
 40
1
  9
$ATTMODE
 70
    1
  9
$TEXTSIZE
 40
2.5
  9
$TRACEWID
 40
1
  9
$TEXTSTYLE
  7
OpenSans
  9
$CLAYER
  8
0
  9
$CELTYPE
  6
ByLayer
  9
$CECOLOR
 62
  256
  9
$CELTSCALE
 40
1
  9
$DISPSILH
 70
    0
  9
$DIMSCALE
 40
1
  9
$DIMASZ
 40
0.175
  9
$DIMEXO
 40
0.125
  9
$DIMDLI
 40
3.75
  9
$DIMRND
 40
0
  9
$DIMDLE
 40
0
  9
$DIMEXE
 40
0.375
  9
$DIMTP
 40
0
  9
$DIMTM
 40
0
  9
$DIMTXT
 40
0.25
  9
$DIMCEN
 40
2.5
  9
$DIMTSZ
 40
0
  9
$DIMTOL
 70
    0
  9
$DIMLIM
 70
    0
  9
$DIMTIH
 70
    0
  9
$DIMTOH
 70
    0
  9
$DIMSE1
 70
    0
  9
$DIMSE2
 70
    0
  9
$DIMTAD
 70
    1
  9
$DIMZIN
 70
   12
  9
$DIMBLK
  1
ARCHTICK
  9
$DIMASO
 70
    1
  9
$DIMSHO
 70
    1
  9
$DIMPOST
  1

  9
$DIMAPOST
  1

  9
$DIMALT
 70
    0
  9
$DIMALTD
 70
    3
  9
$DIMALTF
 40
0.03937007874
  9
$DIMLFAC
 40
100
  9
$DIMTOFL
 70
    1
  9
$DIMTVP
 40
0
  9
$DIMTIX
 70
    0
  9
$DIMSOXD
 70
    0
  9
$DIMSAH
 70
    0
  9
$DIMBLK1
  1

  9
$DIMBLK2
  1

  9
$DIMSTYLE
  2
EZDXF
  9
$DIMCLRD
 70
    0
  9
$DIMCLRE
 70
    0
  9
$DIMCLRT
 70
    0
  9
$DIMTFAC
 40
0.5
  9
$DIMGAP
 40
0.1
  9
$DIMJUST
 70
    0
  9
$DIMSD1
 70
    0
  9
$DIMSD2
 70
    0
  9
$DIMTOLJ
 70
    0
  9
$DIMTZIN
 70
    8
  9
$DIMALTZ
 70
    0
  9
$DIMALTTZ
 70
    0
  9
$DIMUPT
 70
    1
  9
$DIMDEC
 70
    2
  9
$DIMTDEC
 70
    2
  9
$DIMALTU
 70
    2
  9
$DIMALTTD
 70
    3
  9
$DIMTXSTY
  7
OpenSansCondensed-Light
  9
$DIMAUNIT
 70
    0
  9
$DIMADEC
 70
    2
  9
$DIMALTRND
 40
0
  9
$DIMAZIN
 70
    3
  9
$DIMDSEP
 70
   46
  9
$DIMATFIT
 70
    3
  9
$DIMFRAC
 70
    0
  9
$DIMLDRBLK
  1

  9
$DIMLUNIT
 70
    2
  9
$DIMLWD
 70
   -2
  9
$DIMLWE
 70
   -2
  9
$DIMTMOVE
 70
    2
  9
$DIMFXL
 40
1
  9
$DIMFXLON
 70
    0
  9
$DIMJOGANG
 40
0.785398163397
  9
$DIMTFILL
 70
    0
  9
$DIMTFILLCLR
 70
    0
  9
$DIMARCSYM
 70
    0
  9
$DIMLTYPE
  6

  9
$DIMLTEX1
  6

  9
$DIMLTEX2
  6

  9
$LUNITS
 70
    2
  9
$LUPREC
 70
    4
  9
$SKETCHINC
 40
1
  9
$FILLETRAD
 40
10
  9
$AUNITS
 70
    0
  9
$AUPREC
 70
    2
  9
$MENU
  1
.
  9
$ELEVATION
 40
0
  9
$PELEVATION
 40
0
  9
$THICKNESS
 40
0
  9
$LIMCHECK
 70
    0
  9
$CHAMFERA
 40
0
  9
$CHAMFERB
 40
0
  9
$CHAMFERC
 40
0
  9
$CHAMFERD
 40
0
  9
$SKPOLY
 70
    0
  9
$USRTIMER
 70
    1
  9
$ANGBASE
 50
0
  9
$ANGDIR
 70
    0
  9
$PDMODE
 70
    0
  9
$PDSIZE
 40
0
  9
$PLINEWID
 40
0
  9
$SPLFRAME
 70
    0
  9
$SPLINETYPE
 70
    6
  9
$SPLINESEGS
 70
    8
  9
$HANDSEED
  5
20000
  9
$SURFTAB1
 70
    6
  9
$SURFTAB2
 70
    6
  9
$SURFTYPE
 70
    6
  9
$SURFU
 70
    6
  9
$SURFV
 70
    6
  9
$UCSBASE
  2

  9
$UCSNAME
  2

  9
$UCSORG
 10
0
 20
0
 30
0
  9
$UCSXDIR
 10
1
 20
0
 30
0
  9
$UCSYDIR
 10
0
 20
1
 30
0
  9
$UCSORTHOREF
  2

  9
$UCSORTHOVIEW
 70
    0
  9
$UCSORGTOP
 10
0
 20
0
 30
0
  9
$UCSORGBOTTOM
 10
0
 20
0
 30
0
  9
$UCSORGLEFT
 10
0
 20
0
 30
0
  9
$UCSORGRIGHT
 10
0
 20
0
 30
0
  9
$UCSORGFRONT
 10
0
 20
0
 30
0
  9
$UCSORGBACK
 10
0
 20
0
 30
0
  9
$PUCSBASE
  2

  9
$PUCSNAME
  2

  9
$PUCSORG
 10
0
 20
0
 30
0
  9
$PUCSXDIR
 10
1
 20
0
 30
0
  9
$PUCSYDIR
 10
0
 20
1
 30
0
  9
$PUCSORTHOREF
  2

  9
$PUCSORTHOVIEW
 70
    0
  9
$PUCSORGTOP
 10
0
 20
0
 30
0
  9
$PUCSORGBOTTOM
 10
0
 20
0
 30
0
  9
$PUCSORGLEFT
 10
0
 20
0
 30
0
  9
$PUCSORGRIGHT
 10
0
 20
0
 30
0
  9
$PUCSORGFRONT
 10
0
 20
0
 30
0
  9
$PUCSORGBACK
 10
0
 20
0
 30
0
  9
$USERI1
 70
    0
  9
$USERI2
 70
    0
  9
$USERI3
 70
    0
  9
$USERI4
 70
    0
  9
$USERI5
 70
    0
  9
$USERR1
 40
0
  9
$USERR2
 40
0
  9
$USERR3
 40
0
  9
$USERR4
 40
0
  9
$USERR5
 40
0
  9
$WORLDVIEW
 70
    1
  9
$SHADEDGE
 70
    3
  9
$SHADEDIF
 70
   70
  9
$TILEMODE
 70
    1
  9
$MAXACTVP
 70
   64
  9
$PINSBASE
 10
0
 20
0
 30
0
  9
$PLIMCHECK
 70
    0
  9
$PEXTMIN
 10
1e+20
 20
1e+20
 30
1e+20
  9
$PEXTMAX
 10
-1e+20
 20
-1e+20
 30
-1e+20
  9
$GRIDMODE
 70
    0
  9
$SNAPSTYLE
 70
    0
  9
$PLIMMIN
 10
0
 20
0
  9
$PLIMMAX
 10
420
 20
297
  9
$UNITMODE
 70
    0
  9
$VISRETAIN
 70
    1
  9
$PLINEGEN
 70
    0
  9
$PSLTSCALE
 70
    1
  9
$TREEDEPTH
 70
 3020
  9
$CMLSTYLE
  2
Standard
  9
$CMLJUST
 70
    0
  9
$CMLSCALE
 40
20
  9
$PROXYGRAPHICS
 70
    1
  9
$MEASUREMENT
 70
    1
  9
$CELWEIGHT
370
   -1
  9
$ENDCAPS
280
    0
  9
$JOINSTYLE
280
    0
  9
$LWDISPLAY
290
    0
  9
$INSUNITS
 70
    6
  9
$HYPERLINKBASE
  1

  9
$STYLESHEET
  1

  9
$XEDIT
290
    1
  9
$CEPSNTYPE
380
    0
  9
$PSTYLEMODE
290
    1
  9
$EXTNAMES
290
    1
  9
$PSVPSCALE
 40
0
  9
$OLESTARTUP
290
    0
  9
$SORTENTS
280
  127
  9
$INDEXCTL
280
    0
  9
$HIDETEXT
280
    1
  9
$XCLIPFRAME
290
    1
  9
$HALOGAP
280
    0
  9
$OBSCOLOR
 70
  257
  9
$OBSLTYPE
280
    0
  9
$INTERSECTIONDISPLAY
280
    0
  9
$INTERSECTIONCOLOR
 70
  257
  9
$DIMASSOC
280
    2
  9
$PROJECTNAME
  1

  9
$CAMERADISPLAY
290
    0
  9
$LENSLENGTH
 40
50
  9
$CAMERAHEIGHT
 40
0
  9
$STEPSPERSEC
 40
24
  9
$STEPSIZE
 40
100
  9
$3DDWFPREC
 40
2
  9
$PSOLWIDTH
 40
0.005
  9
$PSOLHEIGHT
 40
0.08
  9
$LOFTANG1
 40
1.570796326795
  9
$LOFTANG2
 40
1.570796326795
  9
$LOFTMAG1
 40
0
  9
$LOFTMAG2
 40
0
  9
$LOFTPARAM
 70
    7
  9
$LOFTNORMALS
280
    1
  9
$LATITUDE
 40
37.795
  9
$LONGITUDE
 40
-122.394
  9
$NORTHDIRECTION
 40
0
  9
$TIMEZONE
 70
-8000
  9
$LIGHTGLYPHDISPLAY
280
    1
  9
$TILEMODELIGHTSYNCH
280
    1
  9
$SOLIDHIST
280
    0
  9
$SHOWHIST
280
    1
  9
$DWFFRAME
280
    2
  9
$DGNFRAME
280
    2
  9
$REALWORLDSCALE
290
    1
  9
$INTERFERECOLOR
 62
  256
  9
$CSHADOW
280
    0
  9
$SHADOWPLANELOCATION
 40
0
  0
ENDSEC
  0
SECTION
  2
CLASSES
  0
ENDSEC
  0
SECTION
  2
TABLES
  0
TABLE
  2
VPORT
  5
8
330
0
100
AcDbSymbolTable
 70
    1
  0
VPORT
  5
31
330
2
100
AcDbSymbolTableRecord
100
AcDbViewportTableRecord
  2
*ACTIVE
 70
    0
 10
0
 20
0
 11
1
 21
1
 12
569.8575402588759
 22
595.5011295705253
 13
0
 23
0
 14
10
 24
10
 15
10
 25
10
 16
0
 26
0
 36
1
 17
0
 27
0
 37
0
 40
730.231733731731
 41
1.594202898550725
 42
50
 43
0
 44
0
 50
0
 51
0
 71
    0
 72
  100
 73
    1
 74
    3
 75
    0
 76
    0
 77
    0
 78
    0
281
    0
 65
    1
110
0
120
0
130
0
111
1
121
0
131
0
112
0
122
1
132
0
 79
    0
146
0
348
10020
 60
    7
 61
    5
292
1
282
    1
141
0
142
0
 63
  250
421
3358443
  0
ENDTAB
  0
TABLE
  2
LTYPE
  5
5
330
0
100
AcDbSymbolTable
 70
    4
  0
LTYPE
  5
14
330
5
100
AcDbSymbolTableRecord
100
AcDbLinetypeTableRecord
  2
ByBlock
 70
    0
  3

 72
   65
 73
    0
 40
0
  0
LTYPE
  5
15
330
5
100
AcDbSymbolTableRecord
100
AcDbLinetypeTableRecord
  2
ByLayer
 70
    0
  3

 72
   65
 73
    0
 40
0
  0
LTYPE
  5
16
330
5
100
AcDbSymbolTableRecord
100
AcDbLinetypeTableRecord
  2
Continuous
 70
    0
  3
Solid line
 72
   65
 73
    0
 40
0
  0
LTYPE
  5
32
330
5
100
AcDbSymbolTableRecord
100
AcDbLinetypeTableRecord
  2
DOT
 70
    0
  3
Dot . . . . . . . . . . . . . . . . . . . . . .
 72
   65
 73
    2
 40
6.35
 49
0
 74
    0
 49
-6.35
 74
    0
  0
LTYPE
  5
33
330
5
100
AcDbSymbolTableRecord
100
AcDbLinetypeTableRecord
  2
DOTTINY
 70
    0
  3
Dot (.15x) .....................................
 72
   65
 73
    2
 40
0.9525
 49
0
 74
    0
 49
-0.9525
 74
    0
  0
LTYPE
  5
34
330
5
100
AcDbSymbolTableRecord
100
AcDbLinetypeTableRecord
  2
DOT2
 70
    0
  3
Dot (.5x) .....................................
 72
   65
 73
    2
 40
3.175
 49
0
 74
    0
 49
-3.175
 74
    0
  0
LTYPE
  5
35
330
5
100
AcDbSymbolTableRecord
100
AcDbLinetypeTableRecord
  2
DOTX2
 70
    0
  3
Dot (2x) .  .  .  .  .  .  .  .  .  .  .  .  .
 72
   65
 73
    2
 40
12.7
 49
0
 74
    0
 49
-12.7
 74
    0
  0
LTYPE
  5
36
330
5
100
AcDbSymbolTableRecord
100
AcDbLinetypeTableRecord
  2
DASHED
 70
    0
  3
Dashed _ _ _ _ _ _ _ _ _ _ _ _ _ _ _ _ _
 72
   65
 73
    2
 40
19.05
 49
12.7
 74
    0
 49
-6.35
 74
    0
  0
LTYPE
  5
37
330
5
100
AcDbSymbolTableRecord
100
AcDbLinetypeTableRecord
  2
DASHEDTINY
 70
    0
  3
Dashed (.15x) _ _ _ _ _ _ _ _ _ _ _ _ _ _ _ _ _
 72
   65
 73
    2
 40
2.8575
 49
1.905
 74
    0
 49
-0.9525
 74
    0
  0
LTYPE
  5
38
330
5
100
AcDbSymbolTableRecord
100
AcDbLinetypeTableRecord
  2
DASHED2
 70
    0
  3
Dashed (.5x) _ _ _ _ _ _ _ _ _ _ _ _ _ _ _ _ _
 72
   65
 73
    2
 40
9.524999999999999
 49
6.35
 74
    0
 49
-3.175
 74
    0
  0
LTYPE
  5
39
330
5
100
AcDbSymbolTableRecord
100
AcDbLinetypeTableRecord
  2
DASHEDX2
 70
    0
  3
Dashed (2x) ____  ____  ____  ____  ____  ___
 72
   65
 73
    2
 40
38.09999999999999
 49
25.4
 74
    0
 49
-12.7
 74
    0
  0
LTYPE
  5
3A
330
5
100
AcDbSymbolTableRecord
100
AcDbLinetypeTableRecord
  2
DASHDOT
 70
    0
  3
Dash dot __ . __ . __ . __ . __ . __ . __ . __
 72
   65
 73
    4
 40
25.4
 49
12.7
 74
    0
 49
-6.35
 74
    0
 49
0
 74
    0
 49
-6.35
 74
    0
  0
LTYPE
  5
3B
330
5
100
AcDbSymbolTableRecord
100
AcDbLinetypeTableRecord
  2
DASHDOTTINY
 70
    0
  3
Dash dot (.15x) _._._._._._._._._._._._._._._.
 72
   65
 73
    4
 40
3.81
 49
1.905
 74
    0
 49
-0.9525
 74
    0
 49
0
 74
    0
 49
-0.9525
 74
    0
  0
LTYPE
  5
3C
330
5
100
AcDbSymbolTableRecord
100
AcDbLinetypeTableRecord
  2
DASHDOT2
 70
    0
  3
Dash dot (.5x) _._._._._._._._._._._._._._._.
 72
   65
 73
    4
 40
12.7
 49
6.35
 74
    0
 49
-3.175
 74
    0
 49
0
 74
    0
 49
-3.175
 74
    0
  0
LTYPE
  5
3D
330
5
100
AcDbSymbolTableRecord
100
AcDbLinetypeTableRecord
  2
DASHDOTX2
 70
    0
  3
Dash dot (2x) ____  .  ____  .  ____  .  ___
 72
   65
 73
    4
 40
50.8
 49
25.4
 74
    0
 49
-12.7
 74
    0
 49
0
 74
    0
 49
-12.7
 74
    0
  0
LTYPE
  5
3E
330
5
100
AcDbSymbolTableRecord
100
AcDbLinetypeTableRecord
  2
DIVIDE
 70
    0
  3
Divide ____ . . ____ . . ____ . . ____ . . ____
 72
   65
 73
    6
 40
31.75
 49
12.7
 74
    0
 49
-6.35
 74
    0
 49
0
 74
    0
 49
-6.35
 74
    0
 49
0
 74
    0
 49
-6.35
 74
    0
  0
LTYPE
  5
3F
330
5
100
AcDbSymbolTableRecord
100
AcDbLinetypeTableRecord
  2
DIVIDETINY
 70
    0
  3
Divide (.15x) __..__..__..__..__..__..__..__.._
 72
   65
 73
    6
 40
4.7625
 49
1.905
 74
    0
 49
-0.9525
 74
    0
 49
0
 74
    0
 49
-0.9525
 74
    0
 49
0
 74
    0
 49
-0.9525
 74
    0
  0
LTYPE
  5
40
330
5
100
AcDbSymbolTableRecord
100
AcDbLinetypeTableRecord
  2
DIVIDE2
 70
    0
  3
Divide (.5x) __..__..__..__..__..__..__..__.._
 72
   65
 73
    6
 40
15.875
 49
6.35
 74
    0
 49
-3.175
 74
    0
 49
0
 74
    0
 49
-3.175
 74
    0
 49
0
 74
    0
 49
-3.175
 74
    0
  0
LTYPE
  5
41
330
5
100
AcDbSymbolTableRecord
100
AcDbLinetypeTableRecord
  2
DIVIDEX2
 70
    0
  3
Divide (2x) ________  .  .  ________  .  .  _
 72
   65
 73
    6
 40
63.5
 49
25.4
 74
    0
 49
-12.7
 74
    0
 49
0
 74
    0
 49
-12.7
 74
    0
 49
0
 74
    0
 49
-12.7
 74
    0
  0
LTYPE
  5
42
330
5
100
AcDbSymbolTableRecord
100
AcDbLinetypeTableRecord
  2
BORDER
 70
    0
  3
Border __ __ . __ __ . __ __ . __ __ . __ __ .
 72
   65
 73
    6
 40
44.45
 49
12.7
 74
    0
 49
-6.35
 74
    0
 49
12.7
 74
    0
 49
-6.35
 74
    0
 49
0
 74
    0
 49
-6.35
 74
    0
  0
LTYPE
  5
43
330
5
100
AcDbSymbolTableRecord
100
AcDbLinetypeTableRecord
  2
BORDERTINY
 70
    0
  3
Border (.15x) __.__.__.__.__.__.__.__.__.__.__.
 72
   65
 73
    6
 40
6.6675
 49
1.905
 74
    0
 49
-0.9525
 74
    0
 49
1.905
 74
    0
 49
-0.9525
 74
    0
 49
0
 74
    0
 49
-0.9525
 74
    0
  0
LTYPE
  5
44
330
5
100
AcDbSymbolTableRecord
100
AcDbLinetypeTableRecord
  2
BORDER2
 70
    0
  3
Border (.5x) __.__.__.__.__.__.__.__.__.__.__.
 72
   65
 73
    6
 40
22.225
 49
6.35
 74
    0
 49
-3.175
 74
    0
 49
6.35
 74
    0
 49
-3.175
 74
    0
 49
0
 74
    0
 49
-3.175
 74
    0
  0
LTYPE
  5
45
330
5
100
AcDbSymbolTableRecord
100
AcDbLinetypeTableRecord
  2
BORDERX2
 70
    0
  3
Border (2x) ____  ____  .  ____  ____  .  ___
 72
   65
 73
    6
 40
88.89999999999999
 49
25.4
 74
    0
 49
-12.7
 74
    0
 49
25.4
 74
    0
 49
-12.7
 74
    0
 49
0
 74
    0
 49
-12.7
 74
    0
  0
LTYPE
  5
46
330
5
100
AcDbSymbolTableRecord
100
AcDbLinetypeTableRecord
  2
CENTER
 70
    0
  3
Center ____ _ ____ _ ____ _ ____ _ ____ _ ____
 72
   65
 73
    4
 40
50.8
 49
31.75
 74
    0
 49
-6.35
 74
    0
 49
6.35
 74
    0
 49
-6.35
 74
    0
  0
LTYPE
  5
47
330
5
100
AcDbSymbolTableRecord
100
AcDbLinetypeTableRecord
  2
CENTERTINY
 70
    0
  3
Center (.15x) ___ _ ___ _ ___ _ ___ _ ___ _ ___
 72
   65
 73
    4
 40
7.619999999999999
 49
4.7625
 74
    0
 49
-0.9525
 74
    0
 49
0.9525
 74
    0
 49
-0.9525
 74
    0
  0
LTYPE
  5
48
330
5
100
AcDbSymbolTableRecord
100
AcDbLinetypeTableRecord
  2
CENTER2
 70
    0
  3
Center (.5x) ___ _ ___ _ ___ _ ___ _ ___ _ ___
 72
   65
 73
    4
 40
28.575
 49
19.05
 74
    0
 49
-3.175
 74
    0
 49
3.175
 74
    0
 49
-3.175
 74
    0
  0
LTYPE
  5
49
330
5
100
AcDbSymbolTableRecord
100
AcDbLinetypeTableRecord
  2
CENTERX2
 70
    0
  3
Center (2x) ________  __  ________  __  _____
 72
   65
 73
    4
 40
101.6
 49
63.5
 74
    0
 49
-12.7
 74
    0
 49
12.7
 74
    0
 49
-12.7
 74
    0
  0
ENDTAB
  0
TABLE
  2
LAYER
  5
2
330
0
100
AcDbSymbolTable
 70
    1
  0
LAYER
  5
10
330
2
100
AcDbSymbolTableRecord
100
AcDbLayerTableRecord
  2
0
 70
    0
 62
    7
  6
CONTINUOUS
370
   -3
390
F
  0
LAYER
  5
4A
330
2
100
AcDbSymbolTableRecord
100
AcDbLayerTableRecord
  2
BORDER_GRID
 70
    0
 62
    8
  6
CONTINUOUS
370
   -3
390
F
  0
LAYER
  5
4B
330
2
100
AcDbSymbolTableRecord
100
AcDbLayerTableRecord
  2
CBL_CONTROL_LAN
 70
    0
 62
    1
  6
CONTINUOUS
370
   -3
390
F
  0
LAYER
  5
4C
330
2
100
AcDbSymbolTableRecord
100
AcDbLayerTableRecord
  2
CBL_FIBER_OPTIC
 70
    0
 62
    6
  6
DASHED
370
   -3
390
F
  0
LAYER
  5
4D
330
2
100
AcDbSymbolTableRecord
100
AcDbLayerTableRecord
  2
CBL_IO_NETWORK
 70
    0
 62
    3
  6
CONTINUOUS
370
   -3
390
F
  0
LAYER
  5
4E
330
2
100
AcDbSymbolTableRecord
100
AcDbLayerTableRecord
  2
CBL_MCC_NETWORK
 70
    0
 62
    5
  6
CONTINUOUS
370
   -3
390
F
  0
LAYER
  5
4F
330
2
100
AcDbSymbolTableRecord
100
AcDbLayerTableRecord
  2
Defpoints
 70
    0
 62
    7
  6
CONTINUOUS
290
0
370
   -3
390
F
  0
LAYER
  5
50
330
2
100
AcDbSymbolTableRecord
100
AcDbLayerTableRecord
  2
EQUIPMENT_DETAIL
 70
    0
 62
    7
  6
CONTINUOUS
370
   -3
390
F
  0
LAYER
  5
51
330
2
100
AcDbSymbolTableRecord
100
AcDbLayerTableRecord
  2
EQUIPMENT_FRAME
 70
    0
 62
    8
  6
CONTINUOUS
370
   -3
390
F
  0
LAYER
  5
52
330
2
100
AcDbSymbolTableRecord
100
AcDbLayerTableRecord
  2
LEGEND
 70
    0
 62
    7
  6
CONTINUOUS
370
   -3
390
F
  0
LAYER
  5
53
330
2
100
AcDbSymbolTableRecord
100
AcDbLayerTableRecord
  2
PANEL_ENCLOSURE
 70
    0
 62
    7
  6
CONTINUOUS
370
   -3
390
F
  0
LAYER
  5
54
330
2
100
AcDbSymbolTableRecord
100
AcDbLayerTableRecord
  2
PLC_CHASSIS
 70
    0
 62
    5
  6
CONTINUOUS
370
   -3
390
F
  0
LAYER
  5
55
330
2
100
AcDbSymbolTableRecord
100
AcDbLayerTableRecord
  2
PLC_MODULE
 70
    0
 62
    4
  6
CONTINUOUS
370
   -3
390
F
  0
LAYER
  5
56
330
2
100
AcDbSymbolTableRecord
100
AcDbLayerTableRecord
  2
ROOM_BOUNDARY
 70
    0
 62
    4
  6
DASHED
370
   -3
390
F
  0
LAYER
  5
57
330
2
100
AcDbSymbolTableRecord
100
AcDbLayerTableRecord
  2
TEXT_ANNOTATION
 70
    0
 62
    2
  6
CONTINUOUS
370
   -3
390
F
  0
LAYER
  5
58
330
2
100
AcDbSymbolTableRecord
100
AcDbLayerTableRecord
  2
TEXT_EQUIPMENT
 70
    0
 62
    7
  6
CONTINUOUS
370
   -3
390
F
  0
LAYER
  5
59
330
2
100
AcDbSymbolTableRecord
100
AcDbLayerTableRecord
  2
TEXT_IP_TAG
 70
    0
 62
    7
  6
CONTINUOUS
370
   -3
390
F
  0
LAYER
  5
5A
330
2
100
AcDbSymbolTableRecord
100
AcDbLayerTableRecord
  2
TEXT_MODULE
 70
    0
 62
    7
  6
CONTINUOUS
370
   -3
390
F
  0
LAYER
  5
5B
330
2
100
AcDbSymbolTableRecord
100
AcDbLayerTableRecord
  2
TEXT_SUBTITLE
 70
    0
 62
    4
  6
CONTINUOUS
370
   -3
390
F
  0
LAYER
  5
5C
330
2
100
AcDbSymbolTableRecord
100
AcDbLayerTableRecord
  2
TEXT_TAG
 70
    0
 62
    3
  6
CONTINUOUS
370
   -3
390
F
  0
LAYER
  5
5D
330
2
100
AcDbSymbolTableRecord
100
AcDbLayerTableRecord
  2
TEXT_TITLE
 70
    0
 62
    7
  6
CONTINUOUS
370
   -3
390
F
  0
LAYER
  5
5E
330
2
100
AcDbSymbolTableRecord
100
AcDbLayerTableRecord
  2
TITLE_BLOCK
 70
    0
 62
    7
  6
CONTINUOUS
370
   -3
390
F
  0
ENDTAB
  0
TABLE
  2
STYLE
  5
3
330
0
100
AcDbSymbolTable
 70
    3
  0
STYLE
  5
5F
330
2
100
AcDbSymbolTableRecord
100
AcDbTextStyleTableRecord
  2
STANDARD
 70
    0
 40
0
 41
1
 50
0
 71
    0
 42
1
  3
STANDARD
  4

  0
ENDTAB
  0
TABLE
  2
VIEW
  5
6
330
0
100
AcDbSymbolTable
 70
    0
  0
ENDTAB
  0
TABLE
  2
UCS
  5
7
330
0
100
AcDbSymbolTable
 70
    0
  0
ENDTAB
  0
TABLE
  2
APPID
  5
9
330
0
100
AcDbSymbolTable
 70
    1
  0
APPID
  5
12
330
9
100
AcDbSymbolTableRecord
100
AcDbRegAppTableRecord
  2
ACAD
 70
    0
  0
APPID
  5
60
330
9
100
AcDbSymbolTableRecord
100
AcDbRegAppTableRecord
  2
LibreCad
 70
    0
  0
ENDTAB
  0
TABLE
  2
DIMSTYLE
  5
A
330
0
100
AcDbSymbolTable
 70
    1
100
AcDbDimStyleTable
 71
    1
  0
DIMSTYLE
105
61
330
A
100
AcDbSymbolTableRecord
100
AcDbDimStyleTableRecord
  2
Standard
 70
    0
 40
1
 41
0.175
 42
0.125
 43
0.38
 44
0.375
 45
0
 46
0
 47
0
 48
0
 49
1
140
0.25
141
0.09
142
0
143
25.4
144
100
145
0
146
1
147
0.1
148
0
 71
    0
 72
    0
 73
    0
 74
    1
 75
    0
 76
    0
 77
    0
 78
   12
 79
    3
170
    0
171
    2
172
    0
173
    0
174
    0
175
    0
176
    0
177
    0
178
    0
179
    2
271
    2
272
    4
273
    2
274
    2
275
    0
276
    0
277
    2
278
   46
279
    0
280
    0
281
    0
282
    0
283
    1
284
    0
285
    0
286
    0
288
    0
289
    3
340
OpenSansCondensed-Light
341

371
   -2
372
   -2
  0
ENDTAB
  0
TABLE
  2
BLOCK_RECORD
  5
1
330
0
100
AcDbSymbolTable
 70
    2
  0
BLOCK_RECORD
  5
1F
330
1
100
AcDbSymbolTableRecord
100
AcDbBlockTableRecord
  2
*Model_Space
 70
    0
280
    1
281
    0
  0
BLOCK_RECORD
  5
1E
330
1
100
AcDbSymbolTableRecord
100
AcDbBlockTableRecord
  2
*Paper_Space
 70
    0
280
    1
281
    0
  0
BLOCK_RECORD
  5
62
330
1
100
AcDbSymbolTableRecord
100
AcDbBlockTableRecord
  2
_ARCHTICK
 70
    0
280
    1
281
    0
  0
BLOCK_RECORD
  5
65
330
1
100
AcDbSymbolTableRecord
100
AcDbBlockTableRecord
  2
_CLOSEDFILLED
 70
    0
280
    1
281
    0
  0
BLOCK_RECORD
  5
68
330
1
100
AcDbSymbolTableRecord
100
AcDbBlockTableRecord
  2
_CLOSEDBLANK
 70
    0
280
    1
281
    0
  0
ENDTAB
  0
ENDSEC
  0
SECTION
  2
BLOCKS
  0
BLOCK
  5
20
330
1F
100
AcDbEntity
  8
0
100
AcDbBlockBegin
  2
*Model_Space
 70
    0
 10
0
 20
0
 30
0
  3
*Model_Space
  1

  0
ENDBLK
  5
21
330
1F
100
AcDbEntity
  8
0
100
AcDbBlockEnd
  0
BLOCK
  5
1C
330
1B
100
AcDbEntity
  8
0
100
AcDbBlockBegin
  2
*Paper_Space
 70
    0
 10
0
 20
0
 30
0
  3
*Paper_Space
  1

  0
ENDBLK
  5
1D
330
1F
100
AcDbEntity
  8
0
100
AcDbBlockEnd
  0
BLOCK
  5
63
330
62
100
AcDbEntity
  8
0
100
AcDbBlockBegin
  2
_ARCHTICK
 70
    0
 10
0
 20
0
  3
_ARCHTICK
  1

  0
LWPOLYLINE
  5
6B
100
AcDbEntity
  8
0
  6
ByBlock
 62
    0
370
   -1
100
AcDbPolyline
 90
    2
 70
    0
 43
0
 10
-0.5
 20
-0.5
 10
0.5
 20
0.5
  0
ENDBLK
  5
64
330
62
100
AcDbEntity
  8
0
100
AcDbBlockEnd
  0
BLOCK
  5
66
330
65
100
AcDbEntity
  8
0
100
AcDbBlockBegin
  2
_CLOSEDFILLED
 70
    0
 10
0
 20
0
  3
_CLOSEDFILLED
  1

  0
SOLID
  5
6C
100
AcDbEntity
  8
0
  6
ByBlock
 62
    0
370
   -1
100
AcDbTrace
 10
-1
 20
0.1643989837240254
 30
0
 11
0
 21
0
 31
0
 12
-1
 22
-0.1643989837240254
 32
0
 13
-1
 23
-0.1643989837240254
 33
0
  0
ENDBLK
  5
67
330
65
100
AcDbEntity
  8
0
100
AcDbBlockEnd
  0
BLOCK
  5
69
330
68
100
AcDbEntity
  8
0
100
AcDbBlockBegin
  2
_CLOSEDBLANK
 70
    0
 10
0
 20
0
  3
_CLOSEDBLANK
  1

  0
LWPOLYLINE
  5
6D
100
AcDbEntity
  8
0
  6
ByBlock
 62
    0
370
   -1
100
AcDbPolyline
 90
    3
 70
    1
 43
0
 10
-1
 20
0.1643989837240254
 10
0
 20
0
 10
-1
 20
-0.1643989837240254
  0
ENDBLK
  5
6A
330
68
100
AcDbEntity
  8
0
100
AcDbBlockEnd
  0
ENDSEC
  0
SECTION
  2
ENTITIES
  0
LWPOLYLINE
  5
6E
100
AcDbEntity
  8
TITLE_BLOCK
  6
ByLayer
 62
    7
370
   -1
100
AcDbPolyline
 90
    5
 70
    0
 43
0
 10
20
 20
20
 10
2380
 20
20
 10
2380
 20
1680
 10
20
 20
1680
 10
20
 20
20
  0
LWPOLYLINE
  5
6F
100
AcDbEntity
  8
TITLE_BLOCK
  6
ByLayer
 62
    7
370
   -1
100
AcDbPolyline
 90
    5
 70
    0
 43
0
 10
35
 20
35
 10
2365
 20
35
 10
2365
 20
1665
 10
35
 20
1665
 10
35
 20
35
  0
TEXT
  5
70
100
AcDbEntity
  8
BORDER_GRID
  6
ByLayer
 62
  256
370
   -1
100
AcDbText
 10
164.4444444444445
 20
1670
 30
0
 40
8
  1
1
 50
0
 41
1
 51
0
  7
STANDARD
 71
    0
 72
    1
 11
164.4444444444445
 21
1670
 31
0
210
0
220
0
230
1
100
AcDbText
  0
TEXT
  5
71
100
AcDbEntity
  8
BORDER_GRID
  6
ByLayer
 62
  256
370
   -1
100
AcDbText
 10
164.4444444444445
 20
25
 30
0
 40
8
  1
1
 50
0
 41
1
 51
0
  7
STANDARD
 71
    0
 72
    1
 11
164.4444444444445
 21
25
 31
0
210
0
220
0
230
1
100
AcDbText
  0
TEXT
  5
72
100
AcDbEntity
  8
BORDER_GRID
  6
ByLayer
 62
  256
370
   -1
100
AcDbText
 10
423.3333333333334
 20
1670
 30
0
 40
8
  1
2
 50
0
 41
1
 51
0
  7
STANDARD
 71
    0
 72
    1
 11
423.3333333333334
 21
1670
 31
0
210
0
220
0
230
1
100
AcDbText
  0
TEXT
  5
73
100
AcDbEntity
  8
BORDER_GRID
  6
ByLayer
 62
  256
370
   -1
100
AcDbText
 10
423.3333333333334
 20
25
 30
0
 40
8
  1
2
 50
0
 41
1
 51
0
  7
STANDARD
 71
    0
 72
    1
 11
423.3333333333334
 21
25
 31
0
210
0
220
0
230
1
100
AcDbText
  0
TEXT
  5
74
100
AcDbEntity
  8
BORDER_GRID
  6
ByLayer
 62
  256
370
   -1
100
AcDbText
 10
682.2222222222223
 20
1670
 30
0
 40
8
  1
3
 50
0
 41
1
 51
0
  7
STANDARD
 71
    0
 72
    1
 11
682.2222222222223
 21
1670
 31
0
210
0
220
0
230
1
100
AcDbText
  0
TEXT
  5
75
100
AcDbEntity
  8
BORDER_GRID
  6
ByLayer
 62
  256
370
   -1
100
AcDbText
 10
682.2222222222223
 20
25
 30
0
 40
8
  1
3
 50
0
 41
1
 51
0
  7
STANDARD
 71
    0
 72
    1
 11
682.2222222222223
 21
25
 31
0
210
0
220
0
230
1
100
AcDbText
  0
TEXT
  5
76
100
AcDbEntity
  8
BORDER_GRID
  6
ByLayer
 62
  256
370
   -1
100
AcDbText
 10
941.1111111111112
 20
1670
 30
0
 40
8
  1
4
 50
0
 41
1
 51
0
  7
STANDARD
 71
    0
 72
    1
 11
941.1111111111112
 21
1670
 31
0
210
0
220
0
230
1
100
AcDbText
  0
TEXT
  5
77
100
AcDbEntity
  8
BORDER_GRID
  6
ByLayer
 62
  256
370
   -1
100
AcDbText
 10
941.1111111111112
 20
25
 30
0
 40
8
  1
4
 50
0
 41
1
 51
0
  7
STANDARD
 71
    0
 72
    1
 11
941.1111111111112
 21
25
 31
0
210
0
220
0
230
1
100
AcDbText
  0
TEXT
  5
78
100
AcDbEntity
  8
BORDER_GRID
  6
ByLayer
 62
  256
370
   -1
100
AcDbText
 10
1200
 20
1670
 30
0
 40
8
  1
5
 50
0
 41
1
 51
0
  7
STANDARD
 71
    0
 72
    1
 11
1200
 21
1670
 31
0
210
0
220
0
230
1
100
AcDbText
  0
TEXT
  5
79
100
AcDbEntity
  8
BORDER_GRID
  6
ByLayer
 62
  256
370
   -1
100
AcDbText
 10
1200
 20
25
 30
0
 40
8
  1
5
 50
0
 41
1
 51
0
  7
STANDARD
 71
    0
 72
    1
 11
1200
 21
25
 31
0
210
0
220
0
230
1
100
AcDbText
  0
TEXT
  5
7A
100
AcDbEntity
  8
BORDER_GRID
  6
ByLayer
 62
  256
370
   -1
100
AcDbText
 10
1458.888888888889
 20
1670
 30
0
 40
8
  1
6
 50
0
 41
1
 51
0
  7
STANDARD
 71
    0
 72
    1
 11
1458.888888888889
 21
1670
 31
0
210
0
220
0
230
1
100
AcDbText
  0
TEXT
  5
7B
100
AcDbEntity
  8
BORDER_GRID
  6
ByLayer
 62
  256
370
   -1
100
AcDbText
 10
1458.888888888889
 20
25
 30
0
 40
8
  1
6
 50
0
 41
1
 51
0
  7
STANDARD
 71
    0
 72
    1
 11
1458.888888888889
 21
25
 31
0
210
0
220
0
230
1
100
AcDbText
  0
TEXT
  5
7C
100
AcDbEntity
  8
BORDER_GRID
  6
ByLayer
 62
  256
370
   -1
100
AcDbText
 10
1717.777777777778
 20
1670
 30
0
 40
8
  1
7
 50
0
 41
1
 51
0
  7
STANDARD
 71
    0
 72
    1
 11
1717.777777777778
 21
1670
 31
0
210
0
220
0
230
1
100
AcDbText
  0
TEXT
  5
7D
100
AcDbEntity
  8
BORDER_GRID
  6
ByLayer
 62
  256
370
   -1
100
AcDbText
 10
1717.777777777778
 20
25
 30
0
 40
8
  1
7
 50
0
 41
1
 51
0
  7
STANDARD
 71
    0
 72
    1
 11
1717.777777777778
 21
25
 31
0
210
0
220
0
230
1
100
AcDbText
  0
TEXT
  5
7E
100
AcDbEntity
  8
BORDER_GRID
  6
ByLayer
 62
  256
370
   -1
100
AcDbText
 10
1976.666666666667
 20
1670
 30
0
 40
8
  1
8
 50
0
 41
1
 51
0
  7
STANDARD
 71
    0
 72
    1
 11
1976.666666666667
 21
1670
 31
0
210
0
220
0
230
1
100
AcDbText
  0
TEXT
  5
7F
100
AcDbEntity
  8
BORDER_GRID
  6
ByLayer
 62
  256
370
   -1
100
AcDbText
 10
1976.666666666667
 20
25
 30
0
 40
8
  1
8
 50
0
 41
1
 51
0
  7
STANDARD
 71
    0
 72
    1
 11
1976.666666666667
 21
25
 31
0
210
0
220
0
230
1
100
AcDbText
  0
TEXT
  5
80
100
AcDbEntity
  8
BORDER_GRID
  6
ByLayer
 62
  256
370
   -1
100
AcDbText
 10
2235.555555555556
 20
1670
 30
0
 40
8
  1
9
 50
0
 41
1
 51
0
  7
STANDARD
 71
    0
 72
    1
 11
2235.555555555556
 21
1670
 31
0
210
0
220
0
230
1
100
AcDbText
  0
TEXT
  5
81
100
AcDbEntity
  8
BORDER_GRID
  6
ByLayer
 62
  256
370
   -1
100
AcDbText
 10
2235.555555555556
 20
25
 30
0
 40
8
  1
9
 50
0
 41
1
 51
0
  7
STANDARD
 71
    0
 72
    1
 11
2235.555555555556
 21
25
 31
0
210
0
220
0
230
1
100
AcDbText
  0
TEXT
  5
82
100
AcDbEntity
  8
BORDER_GRID
  6
ByLayer
 62
  256
370
   -1
100
AcDbText
 10
27
 20
170.8333333333333
 30
0
 40
8
  1
F
 50
0
 41
1
 51
0
  7
STANDARD
 71
    0
 72
    1
 11
27
 21
170.8333333333333
 31
0
210
0
220
0
230
1
100
AcDbText
  0
TEXT
  5
83
100
AcDbEntity
  8
BORDER_GRID
  6
ByLayer
 62
  256
370
   -1
100
AcDbText
 10
2373
 20
170.8333333333333
 30
0
 40
8
  1
F
 50
0
 41
1
 51
0
  7
STANDARD
 71
    0
 72
    1
 11
2373
 21
170.8333333333333
 31
0
210
0
220
0
230
1
100
AcDbText
  0
TEXT
  5
84
100
AcDbEntity
  8
BORDER_GRID
  6
ByLayer
 62
  256
370
   -1
100
AcDbText
 10
27
 20
442.5
 30
0
 40
8
  1
E
 50
0
 41
1
 51
0
  7
STANDARD
 71
    0
 72
    1
 11
27
 21
442.5
 31
0
210
0
220
0
230
1
100
AcDbText
  0
TEXT
  5
85
100
AcDbEntity
  8
BORDER_GRID
  6
ByLayer
 62
  256
370
   -1
100
AcDbText
 10
2373
 20
442.5
 30
0
 40
8
  1
E
 50
0
 41
1
 51
0
  7
STANDARD
 71
    0
 72
    1
 11
2373
 21
442.5
 31
0
210
0
220
0
230
1
100
AcDbText
  0
TEXT
  5
86
100
AcDbEntity
  8
BORDER_GRID
  6
ByLayer
 62
  256
370
   -1
100
AcDbText
 10
27
 20
714.1666666666667
 30
0
 40
8
  1
D
 50
0
 41
1
 51
0
  7
STANDARD
 71
    0
 72
    1
 11
27
 21
714.1666666666667
 31
0
210
0
220
0
230
1
100
AcDbText
  0
TEXT
  5
87
100
AcDbEntity
  8
BORDER_GRID
  6
ByLayer
 62
  256
370
   -1
100
AcDbText
 10
2373
 20
714.1666666666667
 30
0
 40
8
  1
D
 50
0
 41
1
 51
0
  7
STANDARD
 71
    0
 72
    1
 11
2373
 21
714.1666666666667
 31
0
210
0
220
0
230
1
100
AcDbText
  0
TEXT
  5
88
100
AcDbEntity
  8
BORDER_GRID
  6
ByLayer
 62
  256
370
   -1
100
AcDbText
 10
27
 20
985.8333333333334
 30
0
 40
8
  1
C
 50
0
 41
1
 51
0
  7
STANDARD
 71
    0
 72
    1
 11
27
 21
985.8333333333334
 31
0
210
0
220
0
230
1
100
AcDbText
  0
TEXT
  5
89
100
AcDbEntity
  8
BORDER_GRID
  6
ByLayer
 62
  256
370
   -1
100
AcDbText
 10
2373
 20
985.8333333333334
 30
0
 40
8
  1
C
 50
0
 41
1
 51
0
  7
STANDARD
 71
    0
 72
    1
 11
2373
 21
985.8333333333334
 31
0
210
0
220
0
230
1
100
AcDbText
  0
TEXT
  5
8A
100
AcDbEntity
  8
BORDER_GRID
  6
ByLayer
 62
  256
370
   -1
100
AcDbText
 10
27
 20
1257.5
 30
0
 40
8
  1
B
 50
0
 41
1
 51
0
  7
STANDARD
 71
    0
 72
    1
 11
27
 21
1257.5
 31
0
210
0
220
0
230
1
100
AcDbText
  0
TEXT
  5
8B
100
AcDbEntity
  8
BORDER_GRID
  6
ByLayer
 62
  256
370
   -1
100
AcDbText
 10
2373
 20
1257.5
 30
0
 40
8
  1
B
 50
0
 41
1
 51
0
  7
STANDARD
 71
    0
 72
    1
 11
2373
 21
1257.5
 31
0
210
0
220
0
230
1
100
AcDbText
  0
TEXT
  5
8C
100
AcDbEntity
  8
BORDER_GRID
  6
ByLayer
 62
  256
370
   -1
100
AcDbText
 10
27
 20
1529.166666666667
 30
0
 40
8
  1
A
 50
0
 41
1
 51
0
  7
STANDARD
 71
    0
 72
    1
 11
27
 21
1529.166666666667
 31
0
210
0
220
0
230
1
100
AcDbText
  0
TEXT
  5
8D
100
AcDbEntity
  8
BORDER_GRID
  6
ByLayer
 62
  256
370
   -1
100
AcDbText
 10
2373
 20
1529.166666666667
 30
0
 40
8
  1
A
 50
0
 41
1
 51
0
  7
STANDARD
 71
    0
 72
    1
 11
2373
 21
1529.166666666667
 31
0
210
0
220
0
230
1
100
AcDbText
  0
LWPOLYLINE
  5
8E
100
AcDbEntity
  8
TITLE_BLOCK
  6
ByLayer
 62
  256
370
   -1
100
AcDbPolyline
 90
    5
 70
    0
 43
0
 10
35
 20
35
 10
2365
 20
35
 10
2365
 20
110
 10
35
 20
110
 10
35
 20
35
  0
LINE
  5
8F
100
AcDbEntity
  8
TITLE_BLOCK
  6
ByLayer
 62
  256
370
   -1
100
AcDbLine
 10
435
 20
35
 11
435
 21
110
  0
LINE
  5
90
100
AcDbEntity
  8
TITLE_BLOCK
  6
ByLayer
 62
  256
370
   -1
100
AcDbLine
 10
935
 20
35
 11
935
 21
110
  0
LINE
  5
91
100
AcDbEntity
  8
TITLE_BLOCK
  6
ByLayer
 62
  256
370
   -1
100
AcDbLine
 10
1235
 20
35
 11
1235
 21
110
  0
LINE
  5
92
100
AcDbEntity
  8
TITLE_BLOCK
  6
ByLayer
 62
  256
370
   -1
100
AcDbLine
 10
1785
 20
35
 11
1785
 21
110
  0
LINE
  5
93
100
AcDbEntity
  8
TITLE_BLOCK
  6
ByLayer
 62
  256
370
   -1
100
AcDbLine
 10
35
 20
85
 11
435
 21
85
  0
LINE
  5
94
100
AcDbEntity
  8
TITLE_BLOCK
  6
ByLayer
 62
  256
370
   -1
100
AcDbLine
 10
35
 20
60
 11
435
 21
60
  0
LINE
  5
95
100
AcDbEntity
  8
TITLE_BLOCK
  6
ByLayer
 62
  256
370
   -1
100
AcDbLine
 10
135
 20
35
 11
135
 21
85
  0
LINE
  5
96
100
AcDbEntity
  8
TITLE_BLOCK
  6
ByLayer
 62
  256
370
   -1
100
AcDbLine
 10
235
 20
35
 11
235
 21
85
  0
LINE
  5
97
100
AcDbEntity
  8
TITLE_BLOCK
  6
ByLayer
 62
  256
370
   -1
100
AcDbLine
 10
335
 20
35
 11
335
 21
85
  0
TEXT
  5
98
100
AcDbEntity
  8
TEXT_TITLE
  6
ByLayer
 62
  256
370
   -1
100
AcDbText
 10
45
 20
93
 30
0
 40
7
  1
Name: THUMWH
 50
0
 41
1
 51
0
  7
STANDARD
 71
    0
210
0
220
0
230
1
100
AcDbText
  0
TEXT
  5
99
100
AcDbEntity
  8
TEXT_TITLE
  6
ByLayer
 62
  256
370
   -1
100
AcDbText
 10
145
 20
93
 30
0
 40
7
  1
Date: 09/10/26
 50
0
 41
1
 51
0
  7
STANDARD
 71
    0
210
0
220
0
230
1
100
AcDbText
  0
TEXT
  5
9A
100
AcDbEntity
  8
TEXT_TITLE
  6
ByLayer
 62
  256
370
   -1
100
AcDbText
 10
245
 20
93
 30
0
 40
7
  1
Ed.: THUMWH
 50
0
 41
1
 51
0
  7
STANDARD
 71
    0
210
0
220
0
230
1
100
AcDbText
  0
TEXT
  5
9B
100
AcDbEntity
  8
TEXT_TITLE
  6
ByLayer
 62
  256
370
   -1
100
AcDbText
 10
345
 20
93
 30
0
 40
7
  1
Appr.: Original
 50
0
 41
1
 51
0
  7
STANDARD
 71
    0
210
0
220
0
230
1
100
AcDbText
  0
TEXT
  5
9C
100
AcDbEntity
  8
TEXT_TITLE
  6
ByLayer
 62
  256
370
   -1
100
AcDbText
 10
45
 20
70
 30
0
 40
6
  1
Replacement of:
 50
0
 41
1
 51
0
  7
STANDARD
 71
    0
210
0
220
0
230
1
100
AcDbText
  0
TEXT
  5
9D
100
AcDbEntity
  8
TEXT_TITLE
  6
ByLayer
 62
  256
370
   -1
100
AcDbText
 10
245
 20
70
 30
0
 40
6
  1
Replaced by:
 50
0
 41
1
 51
0
  7
STANDARD
 71
    0
210
0
220
0
230
1
100
AcDbText
  0
TEXT
  5
9E
100
AcDbEntity
  8
TEXT_TITLE
  6
ByLayer
 62
  256
370
   -1
100
AcDbText
 10
45
 20
45
 30
0
 40
10
  1
THUM
 50
0
 41
1
 51
0
  7
STANDARD
 71
    0
210
0
220
0
230
1
100
AcDbText
  0
TEXT
  5
9F
100
AcDbEntity
  8
TEXT_TITLE
  6
ByLayer
 62
  256
370
   -1
100
AcDbText
 10
455
 20
80
 30
0
 40
14
  1
SPRINT 18K Panel Layout
 50
0
 41
1
 51
0
  7
STANDARD
 71
    0
210
0
220
0
230
1
100
AcDbText
  0
TEXT
  5
A0
100
AcDbEntity
  8
TEXT_SUBTITLE
  6
ByLayer
 62
  256
370
   -1
100
AcDbText
 10
455
 20
55
 30
0
 40
9
  1
Rockwell ControlLogix 5580 & DLR Architecture
 50
0
 41
1
 51
0
  7
STANDARD
 71
    0
210
0
220
0
230
1
100
AcDbText
  0
TEXT
  5
A1
100
AcDbEntity
  8
TEXT_TITLE
  6
ByLayer
 62
  256
370
   -1
100
AcDbText
 10
955
 20
80
 30
0
 40
14
  1
Ecomax
 50
0
 41
1
 51
0
  7
STANDARD
 71
    0
210
0
220
0
230
1
100
AcDbText
  0
TEXT
  5
A2
100
AcDbEntity
  8
TEXT_TITLE
  6
ByLayer
 62
  256
370
   -1
100
AcDbText
 10
955
 20
55
 30
0
 40
8
  1
Engineering & Automation
 50
0
 41
1
 51
0
  7
STANDARD
 71
    0
210
0
220
0
230
1
100
AcDbText
  0
TEXT
  5
A3
100
AcDbEntity
  8
TEXT_TITLE
  6
ByLayer
 62
  256
370
   -1
100
AcDbText
 10
1255
 20
80
 30
0
 40
14
  1
System architecture
 50
0
 41
1
 51
0
  7
STANDARD
 71
    0
210
0
220
0
230
1
100
AcDbText
  0
TEXT
  5
A4
100
AcDbEntity
  8
TEXT_TITLE
  6
ByLayer
 62
  256
370
   -1
100
AcDbText
 10
1255
 20
55
 30
0
 40
8
  1
Plant-wide Automation Network
 50
0
 41
1
 51
0
  7
STANDARD
 71
    0
210
0
220
0
230
1
100
AcDbText
  0
TEXT
  5
A5
100
AcDbEntity
  8
TEXT_TITLE
  6
ByLayer
 62
  256
370
   -1
100
AcDbText
 10
1805
 20
85
 30
0
 40
9
  1
Client: Ingredion_001
 50
0
 41
1
 51
0
  7
STANDARD
 71
    0
210
0
220
0
230
1
100
AcDbText
  0
TEXT
  5
A6
100
AcDbEntity
  8
TEXT_TITLE
  6
ByLayer
 62
    3
370
   -1
100
AcDbText
 10
1805
 20
65
 30
0
 40
11
  1
Drawing No: 600-600-001
 50
0
 41
1
 51
0
  7
STANDARD
 71
    0
210
0
220
0
230
1
100
AcDbText
  0
TEXT
  5
A7
100
AcDbEntity
  8
TEXT_TITLE
  6
ByLayer
 62
  256
370
   -1
100
AcDbText
 10
1805
 20
47
 30
0
 40
7
  1
Rev: B01 | Sheet: 1 of 1
 50
0
 41
1
 51
0
  7
STANDARD
 71
    0
210
0
220
0
230
1
100
AcDbText
  0
LWPOLYLINE
  5
A8
100
AcDbEntity
  8
LEGEND
  6
ByLayer
 62
  256
370
   -1
100
AcDbPolyline
 90
    5
 70
    0
 43
0
 10
1820
 20
120
 10
2335
 20
120
 10
2335
 20
220
 10
1820
 20
220
 10
1820
 20
120
  0
TEXT
  5
A9
100
AcDbEntity
  8
LEGEND
  6
ByLayer
 62
    7
370
   -1
100
AcDbText
 10
1835
 20
202
 30
0
 40
8
  1
CABLE LEGEND & NETWORK SPECIFICATION
 50
0
 41
1
 51
0
  7
STANDARD
 71
    0
210
0
220
0
230
1
100
AcDbText
  0
LINE
  5
AA
100
AcDbEntity
  8
CBL_CONTROL_LAN
  6
ByLayer
 62
    1
370
   -1
100
AcDbLine
 10
1835
 20
185
 11
1895
 21
185
  0
TEXT
  5
AB
100
AcDbEntity
  8
LEGEND
  6
ByLayer
 62
    1
370
   -1
100
AcDbText
 10
1910
 20
182
 30
0
 40
7
  1
ETHERNET LAN CABLE FOR CONTROL (Cat6A)
 50
0
 41
1
 51
0
  7
STANDARD
 71
    0
210
0
220
0
230
1
100
AcDbText
  0
LINE
  5
AC
100
AcDbEntity
  8
CBL_IO_NETWORK
  6
ByLayer
 62
    3
370
   -1
100
AcDbLine
 10
1835
 20
165
 11
1895
 21
165
  0
TEXT
  5
AD
100
AcDbEntity
  8
LEGEND
  6
ByLayer
 62
    3
370
   -1
100
AcDbText
 10
1910
 20
162
 30
0
 40
7
  1
ETHERNET FOR I/O NETWORK (DLR RING)
 50
0
 41
1
 51
0
  7
STANDARD
 71
    0
210
0
220
0
230
1
100
AcDbText
  0
LINE
  5
AE
100
AcDbEntity
  8
CBL_MCC_NETWORK
  6
ByLayer
 62
    5
370
   -1
100
AcDbLine
 10
1835
 20
145
 11
1895
 21
145
  0
TEXT
  5
AF
100
AcDbEntity
  8
LEGEND
  6
ByLayer
 62
    5
370
   -1
100
AcDbText
 10
1910
 20
142
 30
0
 40
7
  1
ETHERNET FOR MCC NETWORK (PowerFlex VFDs)
 50
0
 41
1
 51
0
  7
STANDARD
 71
    0
210
0
220
0
230
1
100
AcDbText
  0
LINE
  5
B0
100
AcDbEntity
  8
CBL_FIBER_OPTIC
  6
DASHED
 62
    6
370
   -1
100
AcDbLine
 10
1835
 20
130
 11
1895
 21
130
  0
TEXT
  5
B1
100
AcDbEntity
  8
LEGEND
  6
ByLayer
 62
    6
370
   -1
100
AcDbText
 10
1910
 20
127
 30
0
 40
7
  1
FIBER OPTIC BACKBONE (OM3/OS2 Armored)
 50
0
 41
1
 51
0
  7
STANDARD
 71
    0
210
0
220
0
230
1
100
AcDbText
  0
LWPOLYLINE
  5
B2
100
AcDbEntity
  8
ROOM_BOUNDARY
  6
DASHED
 62
  256
370
   -1
100
AcDbPolyline
 90
    5
 70
    0
 43
0
 10
55
 20
1060
 10
475
 20
1060
 10
475
 20
1610
 10
55
 20
1610
 10
55
 20
1060
  0
TEXT
  5
B3
100
AcDbEntity
  8
TEXT_TITLE
  6
ByLayer
 62
  256
370
   -1
100
AcDbText
 10
75
 20
1585
 30
0
 40
11
  1
EXISTING SERVER ROOM
 50
0
 41
1
 51
0
  7
STANDARD
 71
    0
210
0
220
0
230
1
100
AcDbText
  0
LWPOLYLINE
  5
B4
100
AcDbEntity
  8
EQUIPMENT_FRAME
  6
ByLayer
 62
  256
370
   -1
100
AcDbPolyline
 90
    5
 70
    0
 43
0
 10
105
 20
1110
 10
275
 20
1110
 10
275
 20
1530
 10
105
 20
1530
 10
105
 20
1110
  0
LWPOLYLINE
  5
B5
100
AcDbEntity
  8
EQUIPMENT_FRAME
  6
ByLayer
 62
  256
370
   -1
100
AcDbPolyline
 90
    5
 70
    0
 43
0
 10
115
 20
1120
 10
265
 20
1120
 10
265
 20
1520
 10
115
 20
1520
 10
115
 20
1120
  0
TEXT
  5
B6
100
AcDbEntity
  8
TEXT_EQUIPMENT
  6
ByLayer
 62
  256
370
   -1
100
AcDbText
 10
190
 20
1508
 30
0
 40
8
  1
SERVER RACK (42U)
 50
0
 41
1
 51
0
  7
STANDARD
 71
    0
 72
    1
 11
190
 21
1508
 31
0
210
0
220
0
230
1
100
AcDbText
  0
LWPOLYLINE
  5
B7
100
AcDbEntity
  8
EQUIPMENT_DETAIL
  6
ByLayer
 62
  256
370
   -1
100
AcDbPolyline
 90
    5
 70
    0
 43
0
 10
120
 20
1470
 10
260
 20
1470
 10
260
 20
1512
 10
120
 20
1512
 10
120
 20
1470
  0
TEXT
  5
B8
100
AcDbEntity
  8
TEXT_EQUIPMENT
  6
ByLayer
 62
  256
370
   -1
100
AcDbText
 10
190
 20
1488
 30
0
 40
7
  1
Patch Panel 1 & 2
 50
0
 41
1
 51
0
  7
STANDARD
 71
    0
 72
    1
 11
190
 21
1488
 31
0
210
0
220
0
230
1
100
AcDbText
  0
LWPOLYLINE
  5
B9
100
AcDbEntity
  8
EQUIPMENT_DETAIL
  6
ByLayer
 62
  256
370
   -1
100
AcDbPolyline
 90
    5
 70
    0
 43
0
 10
120
 20
1415
 10
260
 20
1415
 10
260
 20
1457
 10
120
 20
1457
 10
120
 20
1415
  0
TEXT
  5
BA
100
AcDbEntity
  8
TEXT_EQUIPMENT
  6
ByLayer
 62
  256
370
   -1
100
AcDbText
 10
190
 20
1433
 30
0
 40
7
  1
Core Switch (Stratix)
 50
0
 41
1
 51
0
  7
STANDARD
 71
    0
 72
    1
 11
190
 21
1433
 31
0
210
0
220
0
230
1
100
AcDbText
  0
LWPOLYLINE
  5
BB
100
AcDbEntity
  8
EQUIPMENT_DETAIL
  6
ByLayer
 62
  256
370
   -1
100
AcDbPolyline
 90
    5
 70
    0
 43
0
 10
120
 20
1360
 10
260
 20
1360
 10
260
 20
1402
 10
120
 20
1402
 10
120
 20
1360
  0
TEXT
  5
BC
100
AcDbEntity
  8
TEXT_EQUIPMENT
  6
ByLayer
 62
  256
370
   -1
100
AcDbText
 10
190
 20
1378
 30
0
 40
7
  1
FT View SE Server
 50
0
 41
1
 51
0
  7
STANDARD
 71
    0
 72
    1
 11
190
 21
1378
 31
0
210
0
220
0
230
1
100
AcDbText
  0
LWPOLYLINE
  5
BD
100
AcDbEntity
  8
EQUIPMENT_DETAIL
  6
ByLayer
 62
  256
370
   -1
100
AcDbPolyline
 90
    5
 70
    0
 43
0
 10
120
 20
1305
 10
260
 20
1305
 10
260
 20
1347
 10
120
 20
1347
 10
120
 20
1305
  0
TEXT
  5
BE
100
AcDbEntity
  8
TEXT_EQUIPMENT
  6
ByLayer
 62
  256
370
   -1
100
AcDbText
 10
190
 20
1323
 30
0
 40
7
  1
FT Historian Server
 50
0
 41
1
 51
0
  7
STANDARD
 71
    0
 72
    1
 11
190
 21
1323
 31
0
210
0
220
0
230
1
100
AcDbText
  0
LWPOLYLINE
  5
BF
100
AcDbEntity
  8
EQUIPMENT_DETAIL
  6
ByLayer
 62
  256
370
   -1
100
AcDbPolyline
 90
    5
 70
    0
 43
0
 10
120
 20
1250
 10
260
 20
1250
 10
260
 20
1292
 10
120
 20
1292
 10
120
 20
1250
  0
TEXT
  5
C0
100
AcDbEntity
  8
TEXT_EQUIPMENT
  6
ByLayer
 62
  256
370
   -1
100
AcDbText
 10
190
 20
1268
 30
0
 40
7
  1
Domain / Batch Server
 50
0
 41
1
 51
0
  7
STANDARD
 71
    0
 72
    1
 11
190
 21
1268
 31
0
210
0
220
0
230
1
100
AcDbText
  0
LWPOLYLINE
  5
C1
100
AcDbEntity
  8
EQUIPMENT_DETAIL
  6
ByLayer
 62
  256
370
   -1
100
AcDbPolyline
 90
    5
 70
    0
 43
0
 10
120
 20
1195
 10
260
 20
1195
 10
260
 20
1237
 10
120
 20
1237
 10
120
 20
1195
  0
TEXT
  5
C2
100
AcDbEntity
  8
TEXT_EQUIPMENT
  6
ByLayer
 62
  256
370
   -1
100
AcDbText
 10
190
 20
1213
 30
0
 40
7
  1
Online UPS Unit (5kVA)
 50
0
 41
1
 51
0
  7
STANDARD
 71
    0
 72
    1
 11
190
 21
1213
 31
0
210
0
220
0
230
1
100
AcDbText
  0
LWPOLYLINE
  5
C3
100
AcDbEntity
  8
EQUIPMENT_DETAIL
  6
ByLayer
 62
  256
370
   -1
100
AcDbPolyline
 90
    5
 70
    0
 43
0
 10
315
 20
1280
 10
395
 20
1280
 10
395
 20
1340
 10
315
 20
1340
 10
315
 20
1280
  0
LWPOLYLINE
  5
C4
100
AcDbEntity
  8
EQUIPMENT_DETAIL
  6
ByLayer
 62
  256
370
   -1
100
AcDbPolyline
 90
    5
 70
    0
 43
0
 10
320
 20
1285
 10
390
 20
1285
 10
390
 20
1335
 10
320
 20
1335
 10
320
 20
1285
  0
LINE
  5
C5
100
AcDbEntity
  8
EQUIPMENT_DETAIL
  6
ByLayer
 62
  256
370
   -1
100
AcDbLine
 10
350
 20
1280
 11
350
 21
1265
  0
LINE
  5
C6
100
AcDbEntity
  8
EQUIPMENT_DETAIL
  6
ByLayer
 62
  256
370
   -1
100
AcDbLine
 10
340
 20
1265
 11
370
 21
1265
  0
LWPOLYLINE
  5
C7
100
AcDbEntity
  8
EQUIPMENT_DETAIL
  6
ByLayer
 62
  256
370
   -1
100
AcDbPolyline
 90
    5
 70
    0
 43
0
 10
330
 20
1245
 10
380
 20
1245
 10
380
 20
1260
 10
330
 20
1260
 10
330
 20
1245
  0
LWPOLYLINE
  5
C8
100
AcDbEntity
  8
EQUIPMENT_DETAIL
  6
ByLayer
 62
  256
370
   -1
100
AcDbPolyline
 90
    5
 70
    0
 43
0
 10
410
 20
1245
 10
440
 20
1245
 10
440
 20
1340
 10
410
 20
1340
 10
410
 20
1245
  0
TEXT
  5
C9
100
AcDbEntity
  8
TEXT_EQUIPMENT
  6
ByLayer
 62
  256
370
   -1
100
AcDbText
 10
355
 20
1355
 30
0
 40
7
  1
SERVER CONSOLE
 50
0
 41
1
 51
0
  7
STANDARD
 71
    0
 72
    1
 11
355
 21
1355
 31
0
210
0
220
0
230
1
100
AcDbText
  0
LWPOLYLINE
  5
CA
100
AcDbEntity
  8
ROOM_BOUNDARY
  6
DASHED
 62
  256
370
   -1
100
AcDbPolyline
 90
    5
 70
    0
 43
0
 10
510
 20
1060
 10
1690
 20
1060
 10
1690
 20
1610
 10
510
 20
1610
 10
510
 20
1060
  0
TEXT
  5
CB
100
AcDbEntity
  8
TEXT_TITLE
  6
ByLayer
 62
  256
370
   -1
100
AcDbText
 10
530
 20
1585
 30
0
 40
11
  1
OPERATION 1 ROOM (MAIN CONTROL ROOM)
 50
0
 41
1
 51
0
  7
STANDARD
 71
    0
210
0
220
0
230
1
100
AcDbText
  0
LWPOLYLINE
  5
CC
100
AcDbEntity
  8
EQUIPMENT_FRAME
  6
ByLayer
 62
  256
370
   -1
100
AcDbPolyline
 90
    5
 70
    0
 43
0
 10
550
 20
1110
 10
740
 20
1110
 10
740
 20
1530
 10
550
 20
1530
 10
550
 20
1110
  0
LWPOLYLINE
  5
CD
100
AcDbEntity
  8
EQUIPMENT_FRAME
  6
ByLayer
 62
  256
370
   -1
100
AcDbPolyline
 90
    5
 70
    0
 43
0
 10
560
 20
1120
 10
730
 20
1120
 10
730
 20
1520
 10
560
 20
1520
 10
560
 20
1120
  0
TEXT
  5
CE
100
AcDbEntity
  8
TEXT_EQUIPMENT
  6
ByLayer
 62
  256
370
   -1
100
AcDbText
 10
645
 20
1508
 30
0
 40
8
  1
NETWORK CABINET
 50
0
 41
1
 51
0
  7
STANDARD
 71
    0
 72
    1
 11
645
 21
1508
 31
0
210
0
220
0
230
1
100
AcDbText
  0
LWPOLYLINE
  5
CF
100
AcDbEntity
  8
EQUIPMENT_DETAIL
  6
ByLayer
 62
  256
370
   -1
100
AcDbPolyline
 90
    5
 70
    0
 43
0
 10
565
 20
1410
 10
725
 20
1410
 10
725
 20
1450
 10
565
 20
1450
 10
565
 20
1410
  0
TEXT
  5
D0
100
AcDbEntity
  8
TEXT_IP_TAG
  6
ByLayer
 62
    4
370
   -1
100
AcDbText
 10
645
 20
1426
 30
0
 40
7
  1
Switch 1: 192.168.10.x
 50
0
 41
1
 51
0
  7
STANDARD
 71
    0
 72
    1
 11
645
 21
1426
 31
0
210
0
220
0
230
1
100
AcDbText
  0
LWPOLYLINE
  5
D1
100
AcDbEntity
  8
EQUIPMENT_DETAIL
  6
ByLayer
 62
  256
370
   -1
100
AcDbPolyline
 90
    5
 70
    0
 43
0
 10
565
 20
1350
 10
725
 20
1350
 10
725
 20
1390
 10
565
 20
1390
 10
565
 20
1350
  0
TEXT
  5
D2
100
AcDbEntity
  8
TEXT_IP_TAG
  6
ByLayer
 62
    4
370
   -1
100
AcDbText
 10
645
 20
1366
 30
0
 40
7
  1
Switch 2: 192.168.20.x
 50
0
 41
1
 51
0
  7
STANDARD
 71
    0
 72
    1
 11
645
 21
1366
 31
0
210
0
220
0
230
1
100
AcDbText
  0
LWPOLYLINE
  5
D3
100
AcDbEntity
  8
EQUIPMENT_DETAIL
  6
ByLayer
 62
  256
370
   -1
100
AcDbPolyline
 90
    5
 70
    0
 43
0
 10
565
 20
1290
 10
725
 20
1290
 10
725
 20
1330
 10
565
 20
1330
 10
565
 20
1290
  0
TEXT
  5
D4
100
AcDbEntity
  8
TEXT_EQUIPMENT
  6
ByLayer
 62
  256
370
   -1
100
AcDbText
 10
645
 20
1306
 30
0
 40
7
  1
Cat6A Patch Panel 48P
 50
0
 41
1
 51
0
  7
STANDARD
 71
    0
 72
    1
 11
645
 21
1306
 31
0
210
0
220
0
230
1
100
AcDbText
  0
LWPOLYLINE
  5
D5
100
AcDbEntity
  8
EQUIPMENT_DETAIL
  6
ByLayer
 62
  256
370
   -1
100
AcDbPolyline
 90
    5
 70
    0
 43
0
 10
565
 20
1230
 10
725
 20
1230
 10
725
 20
1270
 10
565
 20
1270
 10
565
 20
1230
  0
TEXT
  5
D6
100
AcDbEntity
  8
TEXT_EQUIPMENT
  6
ByLayer
 62
    6
370
   -1
100
AcDbText
 10
645
 20
1246
 30
0
 40
7
  1
Fiber Patch Panel (FDF)
 50
0
 41
1
 51
0
  7
STANDARD
 71
    0
 72
    1
 11
645
 21
1246
 31
0
210
0
220
0
230
1
100
AcDbText
  0
LWPOLYLINE
  5
D7
100
AcDbEntity
  8
EQUIPMENT_DETAIL
  6
ByLayer
 62
  256
370
   -1
100
AcDbPolyline
 90
    5
 70
    0
 43
0
 10
565
 20
1160
 10
725
 20
1160
 10
725
 20
1210
 10
565
 20
1210
 10
565
 20
1160
  0
TEXT
  5
D8
100
AcDbEntity
  8
TEXT_EQUIPMENT
  6
ByLayer
 62
  256
370
   -1
100
AcDbText
 10
645
 20
1182
 30
0
 40
7
  1
Control Room UPS 3kVA
 50
0
 41
1
 51
0
  7
STANDARD
 71
    0
 72
    1
 11
645
 21
1182
 31
0
210
0
220
0
230
1
100
AcDbText
  0
LWPOLYLINE
  5
D9
100
AcDbEntity
  8
EQUIPMENT_FRAME
  6
ByLayer
 62
    8
370
   -1
100
AcDbPolyline
 90
    5
 70
    0
 43
0
 10
780
 20
1135
 10
950
 20
1135
 10
950
 20
1245
 10
780
 20
1245
 10
780
 20
1135
  0
LWPOLYLINE
  5
DA
100
AcDbEntity
  8
EQUIPMENT_DETAIL
  6
ByLayer
 62
  256
370
   -1
100
AcDbPolyline
 90
    5
 70
    0
 43
0
 10
810
 20
1175
 10
900
 20
1175
 10
900
 20
1235
 10
810
 20
1235
 10
810
 20
1175
  0
LWPOLYLINE
  5
DB
100
AcDbEntity
  8
EQUIPMENT_DETAIL
  6
ByLayer
 62
  256
370
   -1
100
AcDbPolyline
 90
    5
 70
    0
 43
0
 10
815
 20
1180
 10
895
 20
1180
 10
895
 20
1230
 10
815
 20
1230
 10
815
 20
1180
  0
LINE
  5
DC
100
AcDbEntity
  8
EQUIPMENT_DETAIL
  6
ByLayer
 62
  256
370
   -1
100
AcDbLine
 10
855
 20
1175
 11
855
 21
1160
  0
LINE
  5
DD
100
AcDbEntity
  8
EQUIPMENT_DETAIL
  6
ByLayer
 62
  256
370
   -1
100
AcDbLine
 10
840
 20
1160
 11
870
 21
1160
  0
LWPOLYLINE
  5
DE
100
AcDbEntity
  8
EQUIPMENT_DETAIL
  6
ByLayer
 62
  256
370
   -1
100
AcDbPolyline
 90
    5
 70
    0
 43
0
 10
820
 20
1145
 10
875
 20
1145
 10
875
 20
1157
 10
820
 20
1157
 10
820
 20
1145
  0
LWPOLYLINE
  5
DF
100
AcDbEntity
  8
EQUIPMENT_DETAIL
  6
ByLayer
 62
  256
370
   -1
100
AcDbPolyline
 90
    5
 70
    0
 43
0
 10
882
 20
1145
 10
892
 20
1145
 10
892
 20
1157
 10
882
 20
1157
 10
882
 20
1145
  0
LWPOLYLINE
  5
E0
100
AcDbEntity
  8
EQUIPMENT_DETAIL
  6
ByLayer
 62
  256
370
   -1
100
AcDbPolyline
 90
    5
 70
    0
 43
0
 10
910
 20
1150
 10
940
 20
1150
 10
940
 20
1235
 10
910
 20
1235
 10
910
 20
1150
  0
CIRCLE
  5
E1
100
AcDbEntity
  8
EQUIPMENT_DETAIL
  6
ByLayer
 62
  256
370
   -1
100
AcDbCircle
 10
925
 20
1215
 40
4
  0
TEXT
  5
E2
100
AcDbEntity
  8
TEXT_EQUIPMENT
  6
ByLayer
 62
  256
370
   -1
100
AcDbText
 10
855
 20
1255
 30
0
 40
8
  1
ENGINEERING WORKSTATION
 50
0
 41
1
 51
0
  7
STANDARD
 71
    0
 72
    1
 11
855
 21
1255
 31
0
210
0
220
0
230
1
100
AcDbText
  0
TEXT
  5
E3
100
AcDbEntity
  8
TEXT_IP_TAG
  6
ByLayer
 62
    4
370
   -1
100
AcDbText
 10
855
 20
1124
 30
0
 40
7
  1
IP: 192.168.10.150
 50
0
 41
1
 51
0
  7
STANDARD
 71
    0
 72
    1
 11
855
 21
1124
 31
0
210
0
220
0
230
1
100
AcDbText
  0
LWPOLYLINE
  5
E4
100
AcDbEntity
  8
EQUIPMENT_FRAME
  6
ByLayer
 62
    8
370
   -1
100
AcDbPolyline
 90
    5
 70
    0
 43
0
 10
990
 20
1135
 10
1160
 20
1135
 10
1160
 20
1245
 10
990
 20
1245
 10
990
 20
1135
  0
LWPOLYLINE
  5
E5
100
AcDbEntity
  8
EQUIPMENT_DETAIL
  6
ByLayer
 62
  256
370
   -1
100
AcDbPolyline
 90
    5
 70
    0
 43
0
 10
1020
 20
1175
 10
1110
 20
1175
 10
1110
 20
1235
 10
1020
 20
1235
 10
1020
 20
1175
  0
LWPOLYLINE
  5
E6
100
AcDbEntity
  8
EQUIPMENT_DETAIL
  6
ByLayer
 62
  256
370
   -1
100
AcDbPolyline
 90
    5
 70
    0
 43
0
 10
1025
 20
1180
 10
1105
 20
1180
 10
1105
 20
1230
 10
1025
 20
1230
 10
1025
 20
1180
  0
LINE
  5
E7
100
AcDbEntity
  8
EQUIPMENT_DETAIL
  6
ByLayer
 62
  256
370
   -1
100
AcDbLine
 10
1065
 20
1175
 11
1065
 21
1160
  0
LINE
  5
E8
100
AcDbEntity
  8
EQUIPMENT_DETAIL
  6
ByLayer
 62
  256
370
   -1
100
AcDbLine
 10
1050
 20
1160
 11
1080
 21
1160
  0
LWPOLYLINE
  5
E9
100
AcDbEntity
  8
EQUIPMENT_DETAIL
  6
ByLayer
 62
  256
370
   -1
100
AcDbPolyline
 90
    5
 70
    0
 43
0
 10
1030
 20
1145
 10
1085
 20
1145
 10
1085
 20
1157
 10
1030
 20
1157
 10
1030
 20
1145
  0
LWPOLYLINE
  5
EA
100
AcDbEntity
  8
EQUIPMENT_DETAIL
  6
ByLayer
 62
  256
370
   -1
100
AcDbPolyline
 90
    5
 70
    0
 43
0
 10
1092
 20
1145
 10
1102
 20
1145
 10
1102
 20
1157
 10
1092
 20
1157
 10
1092
 20
1145
  0
LWPOLYLINE
  5
EB
100
AcDbEntity
  8
EQUIPMENT_DETAIL
  6
ByLayer
 62
  256
370
   -1
100
AcDbPolyline
 90
    5
 70
    0
 43
0
 10
1120
 20
1150
 10
1150
 20
1150
 10
1150
 20
1235
 10
1120
 20
1235
 10
1120
 20
1150
  0
CIRCLE
  5
EC
100
AcDbEntity
  8
EQUIPMENT_DETAIL
  6
ByLayer
 62
  256
370
   -1
100
AcDbCircle
 10
1135
 20
1215
 40
4
  0
TEXT
  5
ED
100
AcDbEntity
  8
TEXT_EQUIPMENT
  6
ByLayer
 62
  256
370
   -1
100
AcDbText
 10
1065
 20
1255
 30
0
 40
8
  1
OPERATOR 1
 50
0
 41
1
 51
0
  7
STANDARD
 71
    0
 72
    1
 11
1065
 21
1255
 31
0
210
0
220
0
230
1
100
AcDbText
  0
TEXT
  5
EE
100
AcDbEntity
  8
TEXT_IP_TAG
  6
ByLayer
 62
    4
370
   -1
100
AcDbText
 10
1065
 20
1124
 30
0
 40
7
  1
IP: 192.168.20.101
 50
0
 41
1
 51
0
  7
STANDARD
 71
    0
 72
    1
 11
1065
 21
1124
 31
0
210
0
220
0
230
1
100
AcDbText
  0
LWPOLYLINE
  5
EF
100
AcDbEntity
  8
EQUIPMENT_FRAME
  6
ByLayer
 62
    8
370
   -1
100
AcDbPolyline
 90
    5
 70
    0
 43
0
 10
1200
 20
1135
 10
1370
 20
1135
 10
1370
 20
1245
 10
1200
 20
1245
 10
1200
 20
1135
  0
LWPOLYLINE
  5
F0
100
AcDbEntity
  8
EQUIPMENT_DETAIL
  6
ByLayer
 62
  256
370
   -1
100
AcDbPolyline
 90
    5
 70
    0
 43
0
 10
1230
 20
1175
 10
1320
 20
1175
 10
1320
 20
1235
 10
1230
 20
1235
 10
1230
 20
1175
  0
LWPOLYLINE
  5
F1
100
AcDbEntity
  8
EQUIPMENT_DETAIL
  6
ByLayer
 62
  256
370
   -1
100
AcDbPolyline
 90
    5
 70
    0
 43
0
 10
1235
 20
1180
 10
1315
 20
1180
 10
1315
 20
1230
 10
1235
 20
1230
 10
1235
 20
1180
  0
LINE
  5
F2
100
AcDbEntity
  8
EQUIPMENT_DETAIL
  6
ByLayer
 62
  256
370
   -1
100
AcDbLine
 10
1275
 20
1175
 11
1275
 21
1160
  0
LINE
  5
F3
100
AcDbEntity
  8
EQUIPMENT_DETAIL
  6
ByLayer
 62
  256
370
   -1
100
AcDbLine
 10
1260
 20
1160
 11
1290
 21
1160
  0
LWPOLYLINE
  5
F4
100
AcDbEntity
  8
EQUIPMENT_DETAIL
  6
ByLayer
 62
  256
370
   -1
100
AcDbPolyline
 90
    5
 70
    0
 43
0
 10
1240
 20
1145
 10
1295
 20
1145
 10
1295
 20
1157
 10
1240
 20
1157
 10
1240
 20
1145
  0
LWPOLYLINE
  5
F5
100
AcDbEntity
  8
EQUIPMENT_DETAIL
  6
ByLayer
 62
  256
370
   -1
100
AcDbPolyline
 90
    5
 70
    0
 43
0
 10
1302
 20
1145
 10
1312
 20
1145
 10
1312
 20
1157
 10
1302
 20
1157
 10
1302
 20
1145
  0
LWPOLYLINE
  5
F6
100
AcDbEntity
  8
EQUIPMENT_DETAIL
  6
ByLayer
 62
  256
370
   -1
100
AcDbPolyline
 90
    5
 70
    0
 43
0
 10
1330
 20
1150
 10
1360
 20
1150
 10
1360
 20
1235
 10
1330
 20
1235
 10
1330
 20
1150
  0
CIRCLE
  5
F7
100
AcDbEntity
  8
EQUIPMENT_DETAIL
  6
ByLayer
 62
  256
370
   -1
100
AcDbCircle
 10
1345
 20
1215
 40
4
  0
TEXT
  5
F8
100
AcDbEntity
  8
TEXT_EQUIPMENT
  6
ByLayer
 62
  256
370
   -1
100
AcDbText
 10
1275
 20
1255
 30
0
 40
8
  1
OPERATOR 2
 50
0
 41
1
 51
0
  7
STANDARD
 71
    0
 72
    1
 11
1275
 21
1255
 31
0
210
0
220
0
230
1
100
AcDbText
  0
TEXT
  5
F9
100
AcDbEntity
  8
TEXT_IP_TAG
  6
ByLayer
 62
    4
370
   -1
100
AcDbText
 10
1275
 20
1124
 30
0
 40
7
  1
IP: 192.168.20.102
 50
0
 41
1
 51
0
  7
STANDARD
 71
    0
 72
    1
 11
1275
 21
1124
 31
0
210
0
220
0
230
1
100
AcDbText
  0
LWPOLYLINE
  5
FA
100
AcDbEntity
  8
EQUIPMENT_FRAME
  6
ByLayer
 62
  256
370
   -1
100
AcDbPolyline
 90
    5
 70
    0
 43
0
 10
910
 20
1320
 10
1130
 20
1320
 10
1130
 20
1450
 10
910
 20
1450
 10
910
 20
1320
  0
LWPOLYLINE
  5
FB
100
AcDbEntity
  8
EQUIPMENT_DETAIL
  6
ByLayer
 62
  256
370
   -1
100
AcDbPolyline
 90
    5
 70
    0
 43
0
 10
920
 20
1330
 10
1120
 20
1330
 10
1120
 20
1440
 10
920
 20
1440
 10
920
 20
1330
  0
TEXT
  5
FC
100
AcDbEntity
  8
TEXT_EQUIPMENT
  6
ByLayer
 62
  256
370
   -1
100
AcDbText
 10
1020
 20
1395
 30
0
 40
9
  1
55" Display Monitor
 50
0
 41
1
 51
0
  7
STANDARD
 71
    0
 72
    1
 11
1020
 21
1395
 31
0
210
0
220
0
230
1
100
AcDbText
  0
TEXT
  5
FD
100
AcDbEntity
  8
TEXT_SUBTITLE
  6
ByLayer
 62
    4
370
   -1
100
AcDbText
 10
1020
 20
1370
 30
0
 40
8
  1
Display Process Overview
 50
0
 41
1
 51
0
  7
STANDARD
 71
    0
 72
    1
 11
1020
 21
1370
 31
0
210
0
220
0
230
1
100
AcDbText
  0
LWPOLYLINE
  5
FE
100
AcDbEntity
  8
EQUIPMENT_FRAME
  6
ByLayer
 62
  256
370
   -1
100
AcDbPolyline
 90
    5
 70
    0
 43
0
 10
1170
 20
1320
 10
1390
 20
1320
 10
1390
 20
1450
 10
1170
 20
1450
 10
1170
 20
1320
  0
LWPOLYLINE
  5
FF
100
AcDbEntity
  8
EQUIPMENT_DETAIL
  6
ByLayer
 62
  256
370
   -1
100
AcDbPolyline
 90
    5
 70
    0
 43
0
 10
1180
 20
1330
 10
1380
 20
1330
 10
1380
 20
1440
 10
1180
 20
1440
 10
1180
 20
1330
  0
TEXT
  5
100
100
AcDbEntity
  8
TEXT_EQUIPMENT
  6
ByLayer
 62
  256
370
   -1
100
AcDbText
 10
1280
 20
1395
 30
0
 40
9
  1
55" Display Monitor
 50
0
 41
1
 51
0
  7
STANDARD
 71
    0
 72
    1
 11
1280
 21
1395
 31
0
210
0
220
0
230
1
100
AcDbText
  0
TEXT
  5
101
100
AcDbEntity
  8
TEXT_SUBTITLE
  6
ByLayer
 62
    4
370
   -1
100
AcDbText
 10
1280
 20
1370
 30
0
 40
8
  1
Display Trending
 50
0
 41
1
 51
0
  7
STANDARD
 71
    0
 72
    1
 11
1280
 21
1370
 31
0
210
0
220
0
230
1
100
AcDbText
  0
LWPOLYLINE
  5
102
100
AcDbEntity
  8
EQUIPMENT_FRAME
  6
ByLayer
 62
  256
370
   -1
100
AcDbPolyline
 90
    5
 70
    0
 43
0
 10
1490
 20
1150
 10
1600
 20
1150
 10
1600
 20
1235
 10
1490
 20
1235
 10
1490
 20
1150
  0
LWPOLYLINE
  5
103
100
AcDbEntity
  8
EQUIPMENT_DETAIL
  6
ByLayer
 62
  256
370
   -1
100
AcDbPolyline
 90
    5
 70
    0
 43
0
 10
1505
 20
1185
 10
1585
 20
1185
 10
1585
 20
1225
 10
1505
 20
1225
 10
1505
 20
1185
  0
LWPOLYLINE
  5
104
100
AcDbEntity
  8
EQUIPMENT_DETAIL
  6
ByLayer
 62
  256
370
   -1
100
AcDbPolyline
 90
    5
 70
    0
 43
0
 10
1515
 20
1165
 10
1575
 20
1165
 10
1575
 20
1180
 10
1515
 20
1180
 10
1515
 20
1165
  0
TEXT
  5
105
100
AcDbEntity
  8
TEXT_EQUIPMENT
  6
ByLayer
 62
  256
370
   -1
100
AcDbText
 10
1545
 20
1252
 30
0
 40
7
  1
Printer for
 50
0
 41
1
 51
0
  7
STANDARD
 71
    0
 72
    1
 11
1545
 21
1252
 31
0
210
0
220
0
230
1
100
AcDbText
  0
TEXT
  5
106
100
AcDbEntity
  8
TEXT_EQUIPMENT
  6
ByLayer
 62
  256
370
   -1
100
AcDbText
 10
1545
 20
1240
 30
0
 40
6
  1
Logging & Alarm Report
 50
0
 41
1
 51
0
  7
STANDARD
 71
    0
 72
    1
 11
1545
 21
1240
 31
0
210
0
220
0
230
1
100
AcDbText
  0
TEXT
  5
107
100
AcDbEntity
  8
TEXT_IP_TAG
  6
ByLayer
 62
    4
370
   -1
100
AcDbText
 10
1545
 20
1138
 30
0
 40
6
  1
IP: 192.168.20.200
 50
0
 41
1
 51
0
  7
STANDARD
 71
    0
 72
    1
 11
1545
 21
1138
 31
0
210
0
220
0
230
1
100
AcDbText
  0
LWPOLYLINE
  5
108
100
AcDbEntity
  8
ROOM_BOUNDARY
  6
DASHED
 62
  256
370
   -1
100
AcDbPolyline
 90
    5
 70
    0
 43
0
 10
1730
 20
1060
 10
2335
 20
1060
 10
2335
 20
1610
 10
1730
 20
1610
 10
1730
 20
1060
  0
TEXT
  5
109
100
AcDbEntity
  8
TEXT_TITLE
  6
ByLayer
 62
  256
370
   -1
100
AcDbText
 10
1750
 20
1585
 30
0
 40
11
  1
OPERATION STATION 2 PANEL (REMOTE CONTROL)
 50
0
 41
1
 51
0
  7
STANDARD
 71
    0
210
0
220
0
230
1
100
AcDbText
  0
LWPOLYLINE
  5
10A
100
AcDbEntity
  8
EQUIPMENT_FRAME
  6
ByLayer
 62
    8
370
   -1
100
AcDbPolyline
 90
    5
 70
    0
 43
0
 10
1900
 20
1235
 10
2070
 20
1235
 10
2070
 20
1345
 10
1900
 20
1345
 10
1900
 20
1235
  0
LWPOLYLINE
  5
10B
100
AcDbEntity
  8
EQUIPMENT_DETAIL
  6
ByLayer
 62
  256
370
   -1
100
AcDbPolyline
 90
    5
 70
    0
 43
0
 10
1930
 20
1275
 10
2020
 20
1275
 10
2020
 20
1335
 10
1930
 20
1335
 10
1930
 20
1275
  0
LWPOLYLINE
  5
10C
100
AcDbEntity
  8
EQUIPMENT_DETAIL
  6
ByLayer
 62
  256
370
   -1
100
AcDbPolyline
 90
    5
 70
    0
 43
0
 10
1935
 20
1280
 10
2015
 20
1280
 10
2015
 20
1330
 10
1935
 20
1330
 10
1935
 20
1280
  0
LINE
  5
10D
100
AcDbEntity
  8
EQUIPMENT_DETAIL
  6
ByLayer
 62
  256
370
   -1
100
AcDbLine
 10
1975
 20
1275
 11
1975
 21
1260
  0
LINE
  5
10E
100
AcDbEntity
  8
EQUIPMENT_DETAIL
  6
ByLayer
 62
  256
370
   -1
100
AcDbLine
 10
1960
 20
1260
 11
1990
 21
1260
  0
LWPOLYLINE
  5
10F
100
AcDbEntity
  8
EQUIPMENT_DETAIL
  6
ByLayer
 62
  256
370
   -1
100
AcDbPolyline
 90
    5
 70
    0
 43
0
 10
1940
 20
1245
 10
1995
 20
1245
 10
1995
 20
1257
 10
1940
 20
1257
 10
1940
 20
1245
  0
LWPOLYLINE
  5
110
100
AcDbEntity
  8
EQUIPMENT_DETAIL
  6
ByLayer
 62
  256
370
   -1
100
AcDbPolyline
 90
    5
 70
    0
 43
0
 10
2002
 20
1245
 10
2012
 20
1245
 10
2012
 20
1257
 10
2002
 20
1257
 10
2002
 20
1245
  0
LWPOLYLINE
  5
111
100
AcDbEntity
  8
EQUIPMENT_DETAIL
  6
ByLayer
 62
  256
370
   -1
100
AcDbPolyline
 90
    5
 70
    0
 43
0
 10
2030
 20
1250
 10
2060
 20
1250
 10
2060
 20
1335
 10
2030
 20
1335
 10
2030
 20
1250
  0
CIRCLE
  5
112
100
AcDbEntity
  8
EQUIPMENT_DETAIL
  6
ByLayer
 62
  256
370
   -1
100
AcDbCircle
 10
2045
 20
1315
 40
4
  0
TEXT
  5
113
100
AcDbEntity
  8
TEXT_EQUIPMENT
  6
ByLayer
 62
  256
370
   -1
100
AcDbText
 10
1975
 20
1355
 30
0
 40
8
  1
OPERATOR STATION 2
 50
0
 41
1
 51
0
  7
STANDARD
 71
    0
 72
    1
 11
1975
 21
1355
 31
0
210
0
220
0
230
1
100
AcDbText
  0
TEXT
  5
114
100
AcDbEntity
  8
TEXT_IP_TAG
  6
ByLayer
 62
    4
370
   -1
100
AcDbText
 10
1975
 20
1224
 30
0
 40
7
  1
IP: 192.168.20.103
 50
0
 41
1
 51
0
  7
STANDARD
 71
    0
 72
    1
 11
1975
 21
1224
 31
0
210
0
220
0
230
1
100
AcDbText
  0
LWPOLYLINE
  5
115
100
AcDbEntity
  8
EQUIPMENT_FRAME
  6
DASHED
 62
  256
370
   -1
100
AcDbPolyline
 90
    5
 70
    0
 43
0
 10
720
 20
870
 10
910
 20
870
 10
910
 20
950
 10
720
 20
950
 10
720
 20
870
  0
TEXT
  5
116
100
AcDbEntity
  8
TEXT_EQUIPMENT
  6
ByLayer
 62
  256
370
   -1
100
AcDbText
 10
815
 20
928
 30
0
 40
8
  1
Dedert Package
 50
0
 41
1
 51
0
  7
STANDARD
 71
    0
 72
    1
 11
815
 21
928
 31
0
210
0
220
0
230
1
100
AcDbText
  0
TEXT
  5
117
100
AcDbEntity
  8
TEXT_SUBTITLE
  6
ByLayer
 62
    4
370
   -1
100
AcDbText
 10
815
 20
910
 30
0
 40
7
  1
Burner (10.81.x.x)
 50
0
 41
1
 51
0
  7
STANDARD
 71
    0
 72
    1
 11
815
 21
910
 31
0
210
0
220
0
230
1
100
AcDbText
  0
TEXT
  5
118
100
AcDbEntity
  8
TEXT_ANNOTATION
  6
ByLayer
 62
    2
370
   -1
100
AcDbText
 10
815
 20
885
 30
0
 40
6
  1
Burner BMS PLC
 50
0
 41
1
 51
0
  7
STANDARD
 71
    0
 72
    1
 11
815
 21
885
 31
0
210
0
220
0
230
1
100
AcDbText
  0
LWPOLYLINE
  5
119
100
AcDbEntity
  8
EQUIPMENT_FRAME
  6
DASHED
 62
  256
370
   -1
100
AcDbPolyline
 90
    5
 70
    0
 43
0
 10
950
 20
870
 10
1130
 20
870
 10
1130
 20
950
 10
950
 20
950
 10
950
 20
870
  0
TEXT
  5
11A
100
AcDbEntity
  8
TEXT_EQUIPMENT
  6
ByLayer
 62
  256
370
   -1
100
AcDbText
 10
1040
 20
928
 30
0
 40
8
  1
B+B Packer
 50
0
 41
1
 51
0
  7
STANDARD
 71
    0
 72
    1
 11
1040
 21
928
 31
0
210
0
220
0
230
1
100
AcDbText
  0
TEXT
  5
11B
100
AcDbEntity
  8
TEXT_SUBTITLE
  6
ByLayer
 62
    4
370
   -1
100
AcDbText
 10
1040
 20
910
 30
0
 40
7
  1
Bagging System
 50
0
 41
1
 51
0
  7
STANDARD
 71
    0
 72
    1
 11
1040
 21
910
 31
0
210
0
220
0
230
1
100
AcDbText
  0
TEXT
  5
11C
100
AcDbEntity
  8
TEXT_ANNOTATION
  6
ByLayer
 62
    2
370
   -1
100
AcDbText
 10
1040
 20
885
 30
0
 40
6
  1
Bag Packing PLC
 50
0
 41
1
 51
0
  7
STANDARD
 71
    0
 72
    1
 11
1040
 21
885
 31
0
210
0
220
0
230
1
100
AcDbText
  0
LWPOLYLINE
  5
11D
100
AcDbEntity
  8
EQUIPMENT_FRAME
  6
DASHED
 62
  256
370
   -1
100
AcDbPolyline
 90
    5
 70
    0
 43
0
 10
1170
 20
870
 10
1350
 20
870
 10
1350
 20
950
 10
1170
 20
950
 10
1170
 20
870
  0
TEXT
  5
11E
100
AcDbEntity
  8
TEXT_EQUIPMENT
  6
ByLayer
 62
  256
370
   -1
100
AcDbText
 10
1260
 20
928
 30
0
 40
8
  1
Palletizer
 50
0
 41
1
 51
0
  7
STANDARD
 71
    0
 72
    1
 11
1260
 21
928
 31
0
210
0
220
0
230
1
100
AcDbText
  0
TEXT
  5
11F
100
AcDbEntity
  8
TEXT_SUBTITLE
  6
ByLayer
 62
    4
370
   -1
100
AcDbText
 10
1260
 20
910
 30
0
 40
7
  1
Bag Palletizer Robot
 50
0
 41
1
 51
0
  7
STANDARD
 71
    0
 72
    1
 11
1260
 21
910
 31
0
210
0
220
0
230
1
100
AcDbText
  0
TEXT
  5
120
100
AcDbEntity
  8
TEXT_ANNOTATION
  6
ByLayer
 62
    2
370
   -1
100
AcDbText
 10
1260
 20
885
 30
0
 40
6
  1
Palletizer Controller
 50
0
 41
1
 51
0
  7
STANDARD
 71
    0
 72
    1
 11
1260
 21
885
 31
0
210
0
220
0
230
1
100
AcDbText
  0
LWPOLYLINE
  5
121
100
AcDbEntity
  8
EQUIPMENT_FRAME
  6
DASHED
 62
  256
370
   -1
100
AcDbPolyline
 90
    5
 70
    0
 43
0
 10
1390
 20
870
 10
1570
 20
870
 10
1570
 20
950
 10
1390
 20
950
 10
1390
 20
870
  0
TEXT
  5
122
100
AcDbEntity
  8
TEXT_EQUIPMENT
  6
ByLayer
 62
  256
370
   -1
100
AcDbText
 10
1480
 20
928
 30
0
 40
8
  1
Rework
 50
0
 41
1
 51
0
  7
STANDARD
 71
    0
 72
    1
 11
1480
 21
928
 31
0
210
0
220
0
230
1
100
AcDbText
  0
TEXT
  5
123
100
AcDbEntity
  8
TEXT_SUBTITLE
  6
ByLayer
 62
    4
370
   -1
100
AcDbText
 10
1480
 20
910
 30
0
 40
7
  1
Starch Rework Skid
 50
0
 41
1
 51
0
  7
STANDARD
 71
    0
 72
    1
 11
1480
 21
910
 31
0
210
0
220
0
230
1
100
AcDbText
  0
TEXT
  5
124
100
AcDbEntity
  8
TEXT_ANNOTATION
  6
ByLayer
 62
    2
370
   -1
100
AcDbText
 10
1480
 20
885
 30
0
 40
6
  1
Rework Skid I/O
 50
0
 41
1
 51
0
  7
STANDARD
 71
    0
 72
    1
 11
1480
 21
885
 31
0
210
0
220
0
230
1
100
AcDbText
  0
LWPOLYLINE
  5
125
100
AcDbEntity
  8
EQUIPMENT_FRAME
  6
DASHED
 62
  256
370
   -1
100
AcDbPolyline
 90
    5
 70
    0
 43
0
 10
1610
 20
870
 10
1790
 20
870
 10
1790
 20
950
 10
1610
 20
950
 10
1610
 20
870
  0
TEXT
  5
126
100
AcDbEntity
  8
TEXT_EQUIPMENT
  6
ByLayer
 62
  256
370
   -1
100
AcDbText
 10
1700
 20
928
 30
0
 40
8
  1
Boiler
 50
0
 41
1
 51
0
  7
STANDARD
 71
    0
 72
    1
 11
1700
 21
928
 31
0
210
0
220
0
230
1
100
AcDbText
  0
TEXT
  5
127
100
AcDbEntity
  8
TEXT_SUBTITLE
  6
ByLayer
 62
    4
370
   -1
100
AcDbText
 10
1700
 20
910
 30
0
 40
7
  1
Steam Boiler Package
 50
0
 41
1
 51
0
  7
STANDARD
 71
    0
 72
    1
 11
1700
 21
910
 31
0
210
0
220
0
230
1
100
AcDbText
  0
TEXT
  5
128
100
AcDbEntity
  8
TEXT_ANNOTATION
  6
ByLayer
 62
    2
370
   -1
100
AcDbText
 10
1700
 20
885
 30
0
 40
6
  1
Boiler Control Panel
 50
0
 41
1
 51
0
  7
STANDARD
 71
    0
 72
    1
 11
1700
 21
885
 31
0
210
0
220
0
230
1
100
AcDbText
  0
LWPOLYLINE
  5
129
100
AcDbEntity
  8
PANEL_ENCLOSURE
  6
ByLayer
 62
  256
370
   -1
100
AcDbPolyline
 90
    5
 70
    0
 43
0
 10
55
 20
120
 10
835
 20
120
 10
835
 20
1010
 10
55
 20
1010
 10
55
 20
120
  0
TEXT
  5
12A
100
AcDbEntity
  8
TEXT_TITLE
  6
ByLayer
 62
  256
370
   -1
100
AcDbText
 10
75
 20
985
 30
0
 40
10
  1
MAIN CONTROL PANEL (MCP-01) — AREA 602 DRYER BUILDING
 50
0
 41
1
 51
0
  7
STANDARD
 71
    0
210
0
220
0
230
1
100
AcDbText
  0
LWPOLYLINE
  5
12B
100
AcDbEntity
  8
EQUIPMENT_FRAME
  6
ByLayer
 62
  256
370
   -1
100
AcDbPolyline
 90
    5
 70
    0
 43
0
 10
75
 20
880
 10
815
 20
880
 10
815
 20
970
 10
75
 20
970
 10
75
 20
880
  0
TEXT
  5
12C
100
AcDbEntity
  8
TEXT_EQUIPMENT
  6
ByLayer
 62
  256
370
   -1
100
AcDbText
 10
85
 20
955
 30
0
 40
8
  1
POWER DISTRIBUTION & UTILITY ZONE
 50
0
 41
1
 51
0
  7
STANDARD
 71
    0
210
0
220
0
230
1
100
AcDbText
  0
LWPOLYLINE
  5
12D
100
AcDbEntity
  8
EQUIPMENT_DETAIL
  6
ByLayer
 62
  256
370
   -1
100
AcDbPolyline
 90
    5
 70
    0
 43
0
 10
95
 20
890
 10
195
 20
890
 10
195
 20
940
 10
95
 20
940
 10
95
 20
890
  0
TEXT
  5
12E
100
AcDbEntity
  8
TEXT_EQUIPMENT
  6
ByLayer
 62
  256
370
   -1
100
AcDbText
 10
145
 20
920
 30
0
 40
6
  1
24VDC 20A PSU 1
 50
0
 41
1
 51
0
  7
STANDARD
 71
    0
 72
    1
 11
145
 21
920
 31
0
210
0
220
0
230
1
100
AcDbText
  0
LWPOLYLINE
  5
12F
100
AcDbEntity
  8
EQUIPMENT_DETAIL
  6
ByLayer
 62
  256
370
   -1
100
AcDbPolyline
 90
    5
 70
    0
 43
0
 10
215
 20
890
 10
315
 20
890
 10
315
 20
940
 10
215
 20
940
 10
215
 20
890
  0
TEXT
  5
130
100
AcDbEntity
  8
TEXT_EQUIPMENT
  6
ByLayer
 62
  256
370
   -1
100
AcDbText
 10
265
 20
920
 30
0
 40
6
  1
24VDC 20A PSU 2
 50
0
 41
1
 51
0
  7
STANDARD
 71
    0
 72
    1
 11
265
 21
920
 31
0
210
0
220
0
230
1
100
AcDbText
  0
LWPOLYLINE
  5
131
100
AcDbEntity
  8
EQUIPMENT_DETAIL
  6
ByLayer
 62
  256
370
   -1
100
AcDbPolyline
 90
    5
 70
    0
 43
0
 10
355
 20
890
 10
515
 20
890
 10
515
 20
940
 10
355
 20
940
 10
355
 20
890
  0
TEXT
  5
132
100
AcDbEntity
  8
TEXT_EQUIPMENT
  6
ByLayer
 62
    3
370
   -1
100
AcDbText
 10
435
 20
925
 30
0
 40
7
  1
1783-ETAP2F / MC-01
 50
0
 41
1
 51
0
  7
STANDARD
 71
    0
 72
    1
 11
435
 21
925
 31
0
210
0
220
0
230
1
100
AcDbText
  0
TEXT
  5
133
100
AcDbEntity
  8
TEXT_SUBTITLE
  6
ByLayer
 62
    6
370
   -1
100
AcDbText
 10
435
 20
908
 30
0
 40
6
  1
DLR Fiber Tap (MCP side)
 50
0
 41
1
 51
0
  7
STANDARD
 71
    0
 72
    1
 11
435
 21
908
 31
0
210
0
220
0
230
1
100
AcDbText
  0
LWPOLYLINE
  5
134
100
AcDbEntity
  8
PLC_CHASSIS
  6
ByLayer
 62
    5
370
   -1
100
AcDbPolyline
 90
    5
 70
    0
 43
0
 10
75
 20
690
 10
815
 20
690
 10
815
 20
820
 10
75
 20
820
 10
75
 20
690
  0
TEXT
  5
135
100
AcDbEntity
  8
TEXT_EQUIPMENT
  6
ByLayer
 62
    7
370
   -1
100
AcDbText
 10
90
 20
802
 30
0
 40
8
  1
RACK 1 (CS1) — 1756-L950TPSXT Master Controller & DLR Supervisor
 50
0
 41
1
 51
0
  7
STANDARD
 71
    0
210
0
220
0
230
1
100
AcDbText
  0
LWPOLYLINE
  5
136
100
AcDbEntity
  8
PLC_MODULE
  6
ByLayer
 62
    8
370
   -1
100
AcDbPolyline
 90
    5
 70
    0
 43
0
 10
85
 20
698
 10
120
 20
698
 10
120
 20
796
 10
85
 20
796
 10
85
 20
698
  0
TEXT
  5
137
100
AcDbEntity
  8
TEXT_EQUIPMENT
  6
ByLayer
 62
  256
370
   -1
100
AcDbText
 10
102
 20
755
 30
0
 40
6
  1
PWR
 50
0
 41
1
 51
0
  7
STANDARD
 71
    0
 72
    1
 11
102
 21
755
 31
0
210
0
220
0
230
1
100
AcDbText
  0
LWPOLYLINE
  5
138
100
AcDbEntity
  8
PLC_MODULE
  6
ByLayer
 62
    4
370
   -1
100
AcDbPolyline
 90
    5
 70
    0
 43
0
 10
127
 20
698
 10
175.9230769230769
 20
698
 10
175.9230769230769
 20
796
 10
127
 20
796
 10
127
 20
698
  0
TEXT
  5
139
100
AcDbEntity
  8
TEXT_EQUIPMENT
  6
ByLayer
 62
  256
370
   -1
100
AcDbText
 10
151.4615384615385
 20
786
 30
0
 40
5
  1
00
 50
0
 41
1
 51
0
  7
STANDARD
 71
    0
 72
    1
 11
151.4615384615385
 21
786
 31
0
210
0
220
0
230
1
100
AcDbText
  0
TEXT
  5
13A
100
AcDbEntity
  8
TEXT_MODULE
  6
ByLayer
 62
    3
370
   -1
100
AcDbText
 10
151.4615384615385
 20
713
 30
0
 40
5
  1
CPU
 50
0
 41
1
 51
0
  7
STANDARD
 71
    0
 72
    1
 11
151.4615384615385
 21
713
 31
0
210
0
220
0
230
1
100
AcDbText
  0
LWPOLYLINE
  5
13B
100
AcDbEntity
  8
PLC_MODULE
  6
ByLayer
 62
    4
370
   -1
100
AcDbPolyline
 90
    5
 70
    0
 43
0
 10
178.9230769230769
 20
698
 10
227.8461538461538
 20
698
 10
227.8461538461538
 20
796
 10
178.9230769230769
 20
796
 10
178.9230769230769
 20
698
  0
TEXT
  5
13C
100
AcDbEntity
  8
TEXT_EQUIPMENT
  6
ByLayer
 62
  256
370
   -1
100
AcDbText
 10
203.3846153846154
 20
786
 30
0
 40
5
  1
01
 50
0
 41
1
 51
0
  7
STANDARD
 71
    0
 72
    1
 11
203.3846153846154
 21
786
 31
0
210
0
220
0
230
1
100
AcDbText
  0
TEXT
  5
13D
100
AcDbEntity
  8
TEXT_MODULE
  6
ByLayer
 62
    3
370
   -1
100
AcDbText
 10
203.3846153846154
 20
713
 30
0
 40
5
  1
EN4T
 50
0
 41
1
 51
0
  7
STANDARD
 71
    0
 72
    1
 11
203.3846153846154
 21
713
 31
0
210
0
220
0
230
1
100
AcDbText
  0
LWPOLYLINE
  5
13E
100
AcDbEntity
  8
PLC_MODULE
  6
ByLayer
 62
    4
370
   -1
100
AcDbPolyline
 90
    5
 70
    0
 43
0
 10
230.8461538461538
 20
698
 10
279.7692307692308
 20
698
 10
279.7692307692308
 20
796
 10
230.8461538461538
 20
796
 10
230.8461538461538
 20
698
  0
TEXT
  5
13F
100
AcDbEntity
  8
TEXT_EQUIPMENT
  6
ByLayer
 62
  256
370
   -1
100
AcDbText
 10
255.3076923076923
 20
786
 30
0
 40
5
  1
02
 50
0
 41
1
 51
0
  7
STANDARD
 71
    0
 72
    1
 11
255.3076923076923
 21
786
 31
0
210
0
220
0
230
1
100
AcDbText
  0
TEXT
  5
140
100
AcDbEntity
  8
TEXT_MODULE
  6
ByLayer
 62
    3
370
   -1
100
AcDbText
 10
255.3076923076923
 20
713
 30
0
 40
5
  1
EN4T
 50
0
 41
1
 51
0
  7
STANDARD
 71
    0
 72
    1
 11
255.3076923076923
 21
713
 31
0
210
0
220
0
230
1
100
AcDbText
  0
LWPOLYLINE
  5
141
100
AcDbEntity
  8
PLC_MODULE
  6
ByLayer
 62
    4
370
   -1
100
AcDbPolyline
 90
    5
 70
    0
 43
0
 10
282.7692307692308
 20
698
 10
331.6923076923077
 20
698
 10
331.6923076923077
 20
796
 10
282.7692307692308
 20
796
 10
282.7692307692308
 20
698
  0
TEXT
  5
142
100
AcDbEntity
  8
TEXT_EQUIPMENT
  6
ByLayer
 62
  256
370
   -1
100
AcDbText
 10
307.2307692307692
 20
786
 30
0
 40
5
  1
03
 50
0
 41
1
 51
0
  7
STANDARD
 71
    0
 72
    1
 11
307.2307692307692
 21
786
 31
0
210
0
220
0
230
1
100
AcDbText
  0
TEXT
  5
143
100
AcDbEntity
  8
TEXT_MODULE
  6
ByLayer
 62
    7
370
   -1
100
AcDbText
 10
307.2307692307692
 20
713
 30
0
 40
5
  1
32DI
 50
0
 41
1
 51
0
  7
STANDARD
 71
    0
 72
    1
 11
307.2307692307692
 21
713
 31
0
210
0
220
0
230
1
100
AcDbText
  0
LWPOLYLINE
  5
144
100
AcDbEntity
  8
PLC_MODULE
  6
ByLayer
 62
    4
370
   -1
100
AcDbPolyline
 90
    5
 70
    0
 43
0
 10
334.6923076923077
 20
698
 10
383.6153846153846
 20
698
 10
383.6153846153846
 20
796
 10
334.6923076923077
 20
796
 10
334.6923076923077
 20
698
  0
TEXT
  5
145
100
AcDbEntity
  8
TEXT_EQUIPMENT
  6
ByLayer
 62
  256
370
   -1
100
AcDbText
 10
359.1538461538461
 20
786
 30
0
 40
5
  1
04
 50
0
 41
1
 51
0
  7
STANDARD
 71
    0
 72
    1
 11
359.1538461538461
 21
786
 31
0
210
0
220
0
230
1
100
AcDbText
  0
TEXT
  5
146
100
AcDbEntity
  8
TEXT_MODULE
  6
ByLayer
 62
    7
370
   -1
100
AcDbText
 10
359.1538461538461
 20
713
 30
0
 40
5
  1
32DI
 50
0
 41
1
 51
0
  7
STANDARD
 71
    0
 72
    1
 11
359.1538461538461
 21
713
 31
0
210
0
220
0
230
1
100
AcDbText
  0
LWPOLYLINE
  5
147
100
AcDbEntity
  8
PLC_MODULE
  6
ByLayer
 62
    4
370
   -1
100
AcDbPolyline
 90
    5
 70
    0
 43
0
 10
386.6153846153846
 20
698
 10
435.5384615384615
 20
698
 10
435.5384615384615
 20
796
 10
386.6153846153846
 20
796
 10
386.6153846153846
 20
698
  0
TEXT
  5
148
100
AcDbEntity
  8
TEXT_EQUIPMENT
  6
ByLayer
 62
  256
370
   -1
100
AcDbText
 10
411.076923076923
 20
786
 30
0
 40
5
  1
05
 50
0
 41
1
 51
0
  7
STANDARD
 71
    0
 72
    1
 11
411.076923076923
 21
786
 31
0
210
0
220
0
230
1
100
AcDbText
  0
TEXT
  5
149
100
AcDbEntity
  8
TEXT_MODULE
  6
ByLayer
 62
    7
370
   -1
100
AcDbText
 10
411.076923076923
 20
713
 30
0
 40
5
  1
32DI
 50
0
 41
1
 51
0
  7
STANDARD
 71
    0
 72
    1
 11
411.076923076923
 21
713
 31
0
210
0
220
0
230
1
100
AcDbText
  0
LWPOLYLINE
  5
14A
100
AcDbEntity
  8
PLC_MODULE
  6
ByLayer
 62
    4
370
   -1
100
AcDbPolyline
 90
    5
 70
    0
 43
0
 10
438.5384615384615
 20
698
 10
487.4615384615385
 20
698
 10
487.4615384615385
 20
796
 10
438.5384615384615
 20
796
 10
438.5384615384615
 20
698
  0
TEXT
  5
14B
100
AcDbEntity
  8
TEXT_EQUIPMENT
  6
ByLayer
 62
  256
370
   -1
100
AcDbText
 10
463
 20
786
 30
0
 40
5
  1
06
 50
0
 41
1
 51
0
  7
STANDARD
 71
    0
 72
    1
 11
463
 21
786
 31
0
210
0
220
0
230
1
100
AcDbText
  0
TEXT
  5
14C
100
AcDbEntity
  8
TEXT_MODULE
  6
ByLayer
 62
    7
370
   -1
100
AcDbText
 10
463
 20
713
 30
0
 40
5
  1
32DI
 50
0
 41
1
 51
0
  7
STANDARD
 71
    0
 72
    1
 11
463
 21
713
 31
0
210
0
220
0
230
1
100
AcDbText
  0
LWPOLYLINE
  5
14D
100
AcDbEntity
  8
PLC_MODULE
  6
ByLayer
 62
    4
370
   -1
100
AcDbPolyline
 90
    5
 70
    0
 43
0
 10
490.4615384615385
 20
698
 10
539.3846153846154
 20
698
 10
539.3846153846154
 20
796
 10
490.4615384615385
 20
796
 10
490.4615384615385
 20
698
  0
TEXT
  5
14E
100
AcDbEntity
  8
TEXT_EQUIPMENT
  6
ByLayer
 62
  256
370
   -1
100
AcDbText
 10
514.9230769230769
 20
786
 30
0
 40
5
  1
07
 50
0
 41
1
 51
0
  7
STANDARD
 71
    0
 72
    1
 11
514.9230769230769
 21
786
 31
0
210
0
220
0
230
1
100
AcDbText
  0
TEXT
  5
14F
100
AcDbEntity
  8
TEXT_MODULE
  6
ByLayer
 62
    7
370
   -1
100
AcDbText
 10
514.9230769230769
 20
713
 30
0
 40
5
  1
32DO
 50
0
 41
1
 51
0
  7
STANDARD
 71
    0
 72
    1
 11
514.9230769230769
 21
713
 31
0
210
0
220
0
230
1
100
AcDbText
  0
LWPOLYLINE
  5
150
100
AcDbEntity
  8
PLC_MODULE
  6
ByLayer
 62
    4
370
   -1
100
AcDbPolyline
 90
    5
 70
    0
 43
0
 10
542.3846153846154
 20
698
 10
591.3076923076923
 20
698
 10
591.3076923076923
 20
796
 10
542.3846153846154
 20
796
 10
542.3846153846154
 20
698
  0
TEXT
  5
151
100
AcDbEntity
  8
TEXT_EQUIPMENT
  6
ByLayer
 62
  256
370
   -1
100
AcDbText
 10
566.8461538461538
 20
786
 30
0
 40
5
  1
08
 50
0
 41
1
 51
0
  7
STANDARD
 71
    0
 72
    1
 11
566.8461538461538
 21
786
 31
0
210
0
220
0
230
1
100
AcDbText
  0
TEXT
  5
152
100
AcDbEntity
  8
TEXT_MODULE
  6
ByLayer
 62
    7
370
   -1
100
AcDbText
 10
566.8461538461538
 20
713
 30
0
 40
5
  1
32DO
 50
0
 41
1
 51
0
  7
STANDARD
 71
    0
 72
    1
 11
566.8461538461538
 21
713
 31
0
210
0
220
0
230
1
100
AcDbText
  0
LWPOLYLINE
  5
153
100
AcDbEntity
  8
PLC_MODULE
  6
ByLayer
 62
    4
370
   -1
100
AcDbPolyline
 90
    5
 70
    0
 43
0
 10
594.3076923076923
 20
698
 10
643.2307692307692
 20
698
 10
643.2307692307692
 20
796
 10
594.3076923076923
 20
796
 10
594.3076923076923
 20
698
  0
TEXT
  5
154
100
AcDbEntity
  8
TEXT_EQUIPMENT
  6
ByLayer
 62
  256
370
   -1
100
AcDbText
 10
618.7692307692307
 20
786
 30
0
 40
5
  1
09
 50
0
 41
1
 51
0
  7
STANDARD
 71
    0
 72
    1
 11
618.7692307692307
 21
786
 31
0
210
0
220
0
230
1
100
AcDbText
  0
TEXT
  5
155
100
AcDbEntity
  8
TEXT_MODULE
  6
ByLayer
 62
    7
370
   -1
100
AcDbText
 10
618.7692307692307
 20
713
 30
0
 40
5
  1
16AI
 50
0
 41
1
 51
0
  7
STANDARD
 71
    0
 72
    1
 11
618.7692307692307
 21
713
 31
0
210
0
220
0
230
1
100
AcDbText
  0
LWPOLYLINE
  5
156
100
AcDbEntity
  8
PLC_MODULE
  6
ByLayer
 62
    4
370
   -1
100
AcDbPolyline
 90
    5
 70
    0
 43
0
 10
646.2307692307692
 20
698
 10
695.1538461538461
 20
698
 10
695.1538461538461
 20
796
 10
646.2307692307692
 20
796
 10
646.2307692307692
 20
698
  0
TEXT
  5
157
100
AcDbEntity
  8
TEXT_EQUIPMENT
  6
ByLayer
 62
  256
370
   -1
100
AcDbText
 10
670.6923076923076
 20
786
 30
0
 40
5
  1
10
 50
0
 41
1
 51
0
  7
STANDARD
 71
    0
 72
    1
 11
670.6923076923076
 21
786
 31
0
210
0
220
0
230
1
100
AcDbText
  0
TEXT
  5
158
100
AcDbEntity
  8
TEXT_MODULE
  6
ByLayer
 62
    7
370
   -1
100
AcDbText
 10
670.6923076923076
 20
713
 30
0
 40
5
  1
16AI
 50
0
 41
1
 51
0
  7
STANDARD
 71
    0
 72
    1
 11
670.6923076923076
 21
713
 31
0
210
0
220
0
230
1
100
AcDbText
  0
LWPOLYLINE
  5
159
100
AcDbEntity
  8
PLC_MODULE
  6
ByLayer
 62
    4
370
   -1
100
AcDbPolyline
 90
    5
 70
    0
 43
0
 10
698.1538461538461
 20
698
 10
747.076923076923
 20
698
 10
747.076923076923
 20
796
 10
698.1538461538461
 20
796
 10
698.1538461538461
 20
698
  0
TEXT
  5
15A
100
AcDbEntity
  8
TEXT_EQUIPMENT
  6
ByLayer
 62
  256
370
   -1
100
AcDbText
 10
722.6153846153845
 20
786
 30
0
 40
5
  1
11
 50
0
 41
1
 51
0
  7
STANDARD
 71
    0
 72
    1
 11
722.6153846153845
 21
786
 31
0
210
0
220
0
230
1
100
AcDbText
  0
TEXT
  5
15B
100
AcDbEntity
  8
TEXT_MODULE
  6
ByLayer
 62
    7
370
   -1
100
AcDbText
 10
722.6153846153845
 20
713
 30
0
 40
5
  1
8AO
 50
0
 41
1
 51
0
  7
STANDARD
 71
    0
 72
    1
 11
722.6153846153845
 21
713
 31
0
210
0
220
0
230
1
100
AcDbText
  0
LWPOLYLINE
  5
15C
100
AcDbEntity
  8
PLC_MODULE
  6
ByLayer
 62
    4
370
   -1
100
AcDbPolyline
 90
    5
 70
    0
 43
0
 10
750.0769230769231
 20
698
 10
799
 20
698
 10
799
 20
796
 10
750.0769230769231
 20
796
 10
750.0769230769231
 20
698
  0
TEXT
  5
15D
100
AcDbEntity
  8
TEXT_EQUIPMENT
  6
ByLayer
 62
  256
370
   -1
100
AcDbText
 10
774.5384615384615
 20
786
 30
0
 40
5
  1
12
 50
0
 41
1
 51
0
  7
STANDARD
 71
    0
 72
    1
 11
774.5384615384615
 21
786
 31
0
210
0
220
0
230
1
100
AcDbText
  0
TEXT
  5
15E
100
AcDbEntity
  8
TEXT_MODULE
  6
ByLayer
 62
    7
370
   -1
100
AcDbText
 10
774.5384615384615
 20
713
 30
0
 40
5
  1
8AO
 50
0
 41
1
 51
0
  7
STANDARD
 71
    0
 72
    1
 11
774.5384615384615
 21
713
 31
0
210
0
220
0
230
1
100
AcDbText
  0
LWPOLYLINE
  5
15F
100
AcDbEntity
  8
PLC_CHASSIS
  6
ByLayer
 62
    5
370
   -1
100
AcDbPolyline
 90
    5
 70
    0
 43
0
 10
75
 20
520
 10
815
 20
520
 10
815
 20
650
 10
75
 20
650
 10
75
 20
520
  0
TEXT
  5
160
100
AcDbEntity
  8
TEXT_EQUIPMENT
  6
ByLayer
 62
    7
370
   -1
100
AcDbText
 10
90
 20
632
 30
0
 40
8
  1
RACK 2 (CS2) — Expansion Rack 1 (1756-EN4TR in Slot 00)
 50
0
 41
1
 51
0
  7
STANDARD
 71
    0
210
0
220
0
230
1
100
AcDbText
  0
LWPOLYLINE
  5
161
100
AcDbEntity
  8
PLC_MODULE
  6
ByLayer
 62
    8
370
   -1
100
AcDbPolyline
 90
    5
 70
    0
 43
0
 10
85
 20
528
 10
120
 20
528
 10
120
 20
626
 10
85
 20
626
 10
85
 20
528
  0
TEXT
  5
162
100
AcDbEntity
  8
TEXT_EQUIPMENT
  6
ByLayer
 62
  256
370
   -1
100
AcDbText
 10
102
 20
585
 30
0
 40
6
  1
PWR
 50
0
 41
1
 51
0
  7
STANDARD
 71
    0
 72
    1
 11
102
 21
585
 31
0
210
0
220
0
230
1
100
AcDbText
  0
LWPOLYLINE
  5
163
100
AcDbEntity
  8
PLC_MODULE
  6
ByLayer
 62
    4
370
   -1
100
AcDbPolyline
 90
    5
 70
    0
 43
0
 10
127
 20
528
 10
175.9230769230769
 20
528
 10
175.9230769230769
 20
626
 10
127
 20
626
 10
127
 20
528
  0
TEXT
  5
164
100
AcDbEntity
  8
TEXT_EQUIPMENT
  6
ByLayer
 62
  256
370
   -1
100
AcDbText
 10
151.4615384615385
 20
616
 30
0
 40
5
  1
00
 50
0
 41
1
 51
0
  7
STANDARD
 71
    0
 72
    1
 11
151.4615384615385
 21
616
 31
0
210
0
220
0
230
1
100
AcDbText
  0
TEXT
  5
165
100
AcDbEntity
  8
TEXT_MODULE
  6
ByLayer
 62
    3
370
   -1
100
AcDbText
 10
151.4615384615385
 20
543
 30
0
 40
5
  1
EN4T
 50
0
 41
1
 51
0
  7
STANDARD
 71
    0
 72
    1
 11
151.4615384615385
 21
543
 31
0
210
0
220
0
230
1
100
AcDbText
  0
LWPOLYLINE
  5
166
100
AcDbEntity
  8
PLC_MODULE
  6
ByLayer
 62
    4
370
   -1
100
AcDbPolyline
 90
    5
 70
    0
 43
0
 10
178.9230769230769
 20
528
 10
227.8461538461538
 20
528
 10
227.8461538461538
 20
626
 10
178.9230769230769
 20
626
 10
178.9230769230769
 20
528
  0
TEXT
  5
167
100
AcDbEntity
  8
TEXT_EQUIPMENT
  6
ByLayer
 62
  256
370
   -1
100
AcDbText
 10
203.3846153846154
 20
616
 30
0
 40
5
  1
01
 50
0
 41
1
 51
0
  7
STANDARD
 71
    0
 72
    1
 11
203.3846153846154
 21
616
 31
0
210
0
220
0
230
1
100
AcDbText
  0
TEXT
  5
168
100
AcDbEntity
  8
TEXT_MODULE
  6
ByLayer
 62
    7
370
   -1
100
AcDbText
 10
203.3846153846154
 20
543
 30
0
 40
5
  1
32DI
 50
0
 41
1
 51
0
  7
STANDARD
 71
    0
 72
    1
 11
203.3846153846154
 21
543
 31
0
210
0
220
0
230
1
100
AcDbText
  0
LWPOLYLINE
  5
169
100
AcDbEntity
  8
PLC_MODULE
  6
ByLayer
 62
    4
370
   -1
100
AcDbPolyline
 90
    5
 70
    0
 43
0
 10
230.8461538461538
 20
528
 10
279.7692307692308
 20
528
 10
279.7692307692308
 20
626
 10
230.8461538461538
 20
626
 10
230.8461538461538
 20
528
  0
TEXT
  5
16A
100
AcDbEntity
  8
TEXT_EQUIPMENT
  6
ByLayer
 62
  256
370
   -1
100
AcDbText
 10
255.3076923076923
 20
616
 30
0
 40
5
  1
02
 50
0
 41
1
 51
0
  7
STANDARD
 71
    0
 72
    1
 11
255.3076923076923
 21
616
 31
0
210
0
220
0
230
1
100
AcDbText
  0
TEXT
  5
16B
100
AcDbEntity
  8
TEXT_MODULE
  6
ByLayer
 62
    7
370
   -1
100
AcDbText
 10
255.3076923076923
 20
543
 30
0
 40
5
  1
32DI
 50
0
 41
1
 51
0
  7
STANDARD
 71
    0
 72
    1
 11
255.3076923076923
 21
543
 31
0
210
0
220
0
230
1
100
AcDbText
  0
LWPOLYLINE
  5
16C
100
AcDbEntity
  8
PLC_MODULE
  6
ByLayer
 62
    4
370
   -1
100
AcDbPolyline
 90
    5
 70
    0
 43
0
 10
282.7692307692308
 20
528
 10
331.6923076923077
 20
528
 10
331.6923076923077
 20
626
 10
282.7692307692308
 20
626
 10
282.7692307692308
 20
528
  0
TEXT
  5
16D
100
AcDbEntity
  8
TEXT_EQUIPMENT
  6
ByLayer
 62
  256
370
   -1
100
AcDbText
 10
307.2307692307692
 20
616
 30
0
 40
5
  1
03
 50
0
 41
1
 51
0
  7
STANDARD
 71
    0
 72
    1
 11
307.2307692307692
 21
616
 31
0
210
0
220
0
230
1
100
AcDbText
  0
TEXT
  5
16E
100
AcDbEntity
  8
TEXT_MODULE
  6
ByLayer
 62
    7
370
   -1
100
AcDbText
 10
307.2307692307692
 20
543
 30
0
 40
5
  1
32DI
 50
0
 41
1
 51
0
  7
STANDARD
 71
    0
 72
    1
 11
307.2307692307692
 21
543
 31
0
210
0
220
0
230
1
100
AcDbText
  0
LWPOLYLINE
  5
16F
100
AcDbEntity
  8
PLC_MODULE
  6
ByLayer
 62
    4
370
   -1
100
AcDbPolyline
 90
    5
 70
    0
 43
0
 10
334.6923076923077
 20
528
 10
383.6153846153846
 20
528
 10
383.6153846153846
 20
626
 10
334.6923076923077
 20
626
 10
334.6923076923077
 20
528
  0
TEXT
  5
170
100
AcDbEntity
  8
TEXT_EQUIPMENT
  6
ByLayer
 62
  256
370
   -1
100
AcDbText
 10
359.1538461538461
 20
616
 30
0
 40
5
  1
04
 50
0
 41
1
 51
0
  7
STANDARD
 71
    0
 72
    1
 11
359.1538461538461
 21
616
 31
0
210
0
220
0
230
1
100
AcDbText
  0
TEXT
  5
171
100
AcDbEntity
  8
TEXT_MODULE
  6
ByLayer
 62
    7
370
   -1
100
AcDbText
 10
359.1538461538461
 20
543
 30
0
 40
5
  1
32DI
 50
0
 41
1
 51
0
  7
STANDARD
 71
    0
 72
    1
 11
359.1538461538461
 21
543
 31
0
210
0
220
0
230
1
100
AcDbText
  0
LWPOLYLINE
  5
172
100
AcDbEntity
  8
PLC_MODULE
  6
ByLayer
 62
    4
370
   -1
100
AcDbPolyline
 90
    5
 70
    0
 43
0
 10
386.6153846153846
 20
528
 10
435.5384615384615
 20
528
 10
435.5384615384615
 20
626
 10
386.6153846153846
 20
626
 10
386.6153846153846
 20
528
  0
TEXT
  5
173
100
AcDbEntity
  8
TEXT_EQUIPMENT
  6
ByLayer
 62
  256
370
   -1
100
AcDbText
 10
411.076923076923
 20
616
 30
0
 40
5
  1
05
 50
0
 41
1
 51
0
  7
STANDARD
 71
    0
 72
    1
 11
411.076923076923
 21
616
 31
0
210
0
220
0
230
1
100
AcDbText
  0
TEXT
  5
174
100
AcDbEntity
  8
TEXT_MODULE
  6
ByLayer
 62
    7
370
   -1
100
AcDbText
 10
411.076923076923
 20
543
 30
0
 40
5
  1
32DO
 50
0
 41
1
 51
0
  7
STANDARD
 71
    0
 72
    1
 11
411.076923076923
 21
543
 31
0
210
0
220
0
230
1
100
AcDbText
  0
LWPOLYLINE
  5
175
100
AcDbEntity
  8
PLC_MODULE
  6
ByLayer
 62
    4
370
   -1
100
AcDbPolyline
 90
    5
 70
    0
 43
0
 10
438.5384615384615
 20
528
 10
487.4615384615385
 20
528
 10
487.4615384615385
 20
626
 10
438.5384615384615
 20
626
 10
438.5384615384615
 20
528
  0
TEXT
  5
176
100
AcDbEntity
  8
TEXT_EQUIPMENT
  6
ByLayer
 62
  256
370
   -1
100
AcDbText
 10
463
 20
616
 30
0
 40
5
  1
06
 50
0
 41
1
 51
0
  7
STANDARD
 71
    0
 72
    1
 11
463
 21
616
 31
0
210
0
220
0
230
1
100
AcDbText
  0
TEXT
  5
177
100
AcDbEntity
  8
TEXT_MODULE
  6
ByLayer
 62
    7
370
   -1
100
AcDbText
 10
463
 20
543
 30
0
 40
5
  1
32DO
 50
0
 41
1
 51
0
  7
STANDARD
 71
    0
 72
    1
 11
463
 21
543
 31
0
210
0
220
0
230
1
100
AcDbText
  0
LWPOLYLINE
  5
178
100
AcDbEntity
  8
PLC_MODULE
  6
ByLayer
 62
    4
370
   -1
100
AcDbPolyline
 90
    5
 70
    0
 43
0
 10
490.4615384615385
 20
528
 10
539.3846153846154
 20
528
 10
539.3846153846154
 20
626
 10
490.4615384615385
 20
626
 10
490.4615384615385
 20
528
  0
TEXT
  5
179
100
AcDbEntity
  8
TEXT_EQUIPMENT
  6
ByLayer
 62
  256
370
   -1
100
AcDbText
 10
514.9230769230769
 20
616
 30
0
 40
5
  1
07
 50
0
 41
1
 51
0
  7
STANDARD
 71
    0
 72
    1
 11
514.9230769230769
 21
616
 31
0
210
0
220
0
230
1
100
AcDbText
  0
TEXT
  5
17A
100
AcDbEntity
  8
TEXT_MODULE
  6
ByLayer
 62
    7
370
   -1
100
AcDbText
 10
514.9230769230769
 20
543
 30
0
 40
5
  1
16AI
 50
0
 41
1
 51
0
  7
STANDARD
 71
    0
 72
    1
 11
514.9230769230769
 21
543
 31
0
210
0
220
0
230
1
100
AcDbText
  0
LWPOLYLINE
  5
17B
100
AcDbEntity
  8
PLC_MODULE
  6
ByLayer
 62
    4
370
   -1
100
AcDbPolyline
 90
    5
 70
    0
 43
0
 10
542.3846153846154
 20
528
 10
591.3076923076923
 20
528
 10
591.3076923076923
 20
626
 10
542.3846153846154
 20
626
 10
542.3846153846154
 20
528
  0
TEXT
  5
17C
100
AcDbEntity
  8
TEXT_EQUIPMENT
  6
ByLayer
 62
  256
370
   -1
100
AcDbText
 10
566.8461538461538
 20
616
 30
0
 40
5
  1
08
 50
0
 41
1
 51
0
  7
STANDARD
 71
    0
 72
    1
 11
566.8461538461538
 21
616
 31
0
210
0
220
0
230
1
100
AcDbText
  0
TEXT
  5
17D
100
AcDbEntity
  8
TEXT_MODULE
  6
ByLayer
 62
    7
370
   -1
100
AcDbText
 10
566.8461538461538
 20
543
 30
0
 40
5
  1
16AI
 50
0
 41
1
 51
0
  7
STANDARD
 71
    0
 72
    1
 11
566.8461538461538
 21
543
 31
0
210
0
220
0
230
1
100
AcDbText
  0
LWPOLYLINE
  5
17E
100
AcDbEntity
  8
PLC_MODULE
  6
ByLayer
 62
    4
370
   -1
100
AcDbPolyline
 90
    5
 70
    0
 43
0
 10
594.3076923076923
 20
528
 10
643.2307692307692
 20
528
 10
643.2307692307692
 20
626
 10
594.3076923076923
 20
626
 10
594.3076923076923
 20
528
  0
TEXT
  5
17F
100
AcDbEntity
  8
TEXT_EQUIPMENT
  6
ByLayer
 62
  256
370
   -1
100
AcDbText
 10
618.7692307692307
 20
616
 30
0
 40
5
  1
09
 50
0
 41
1
 51
0
  7
STANDARD
 71
    0
 72
    1
 11
618.7692307692307
 21
616
 31
0
210
0
220
0
230
1
100
AcDbText
  0
TEXT
  5
180
100
AcDbEntity
  8
TEXT_MODULE
  6
ByLayer
 62
    7
370
   -1
100
AcDbText
 10
618.7692307692307
 20
543
 30
0
 40
5
  1
8AO
 50
0
 41
1
 51
0
  7
STANDARD
 71
    0
 72
    1
 11
618.7692307692307
 21
543
 31
0
210
0
220
0
230
1
100
AcDbText
  0
LWPOLYLINE
  5
181
100
AcDbEntity
  8
PLC_MODULE
  6
ByLayer
 62
    4
370
   -1
100
AcDbPolyline
 90
    5
 70
    0
 43
0
 10
646.2307692307692
 20
528
 10
695.1538461538461
 20
528
 10
695.1538461538461
 20
626
 10
646.2307692307692
 20
626
 10
646.2307692307692
 20
528
  0
TEXT
  5
182
100
AcDbEntity
  8
TEXT_EQUIPMENT
  6
ByLayer
 62
  256
370
   -1
100
AcDbText
 10
670.6923076923076
 20
616
 30
0
 40
5
  1
10
 50
0
 41
1
 51
0
  7
STANDARD
 71
    0
 72
    1
 11
670.6923076923076
 21
616
 31
0
210
0
220
0
230
1
100
AcDbText
  0
TEXT
  5
183
100
AcDbEntity
  8
TEXT_MODULE
  6
ByLayer
 62
    7
370
   -1
100
AcDbText
 10
670.6923076923076
 20
543
 30
0
 40
5
  1
8AO
 50
0
 41
1
 51
0
  7
STANDARD
 71
    0
 72
    1
 11
670.6923076923076
 21
543
 31
0
210
0
220
0
230
1
100
AcDbText
  0
LWPOLYLINE
  5
184
100
AcDbEntity
  8
PLC_MODULE
  6
ByLayer
 62
    4
370
   -1
100
AcDbPolyline
 90
    5
 70
    0
 43
0
 10
698.1538461538461
 20
528
 10
747.076923076923
 20
528
 10
747.076923076923
 20
626
 10
698.1538461538461
 20
626
 10
698.1538461538461
 20
528
  0
TEXT
  5
185
100
AcDbEntity
  8
TEXT_EQUIPMENT
  6
ByLayer
 62
  256
370
   -1
100
AcDbText
 10
722.6153846153845
 20
616
 30
0
 40
5
  1
11
 50
0
 41
1
 51
0
  7
STANDARD
 71
    0
 72
    1
 11
722.6153846153845
 21
616
 31
0
210
0
220
0
230
1
100
AcDbText
  0
TEXT
  5
186
100
AcDbEntity
  8
TEXT_MODULE
  6
ByLayer
 62
    7
370
   -1
100
AcDbText
 10
722.6153846153845
 20
543
 30
0
 40
5
  1
N2
 50
0
 41
1
 51
0
  7
STANDARD
 71
    0
 72
    1
 11
722.6153846153845
 21
543
 31
0
210
0
220
0
230
1
100
AcDbText
  0
LWPOLYLINE
  5
187
100
AcDbEntity
  8
PLC_MODULE
  6
ByLayer
 62
    4
370
   -1
100
AcDbPolyline
 90
    5
 70
    0
 43
0
 10
750.0769230769231
 20
528
 10
799
 20
528
 10
799
 20
626
 10
750.0769230769231
 20
626
 10
750.0769230769231
 20
528
  0
TEXT
  5
188
100
AcDbEntity
  8
TEXT_EQUIPMENT
  6
ByLayer
 62
  256
370
   -1
100
AcDbText
 10
774.5384615384615
 20
616
 30
0
 40
5
  1
12
 50
0
 41
1
 51
0
  7
STANDARD
 71
    0
 72
    1
 11
774.5384615384615
 21
616
 31
0
210
0
220
0
230
1
100
AcDbText
  0
TEXT
  5
189
100
AcDbEntity
  8
TEXT_MODULE
  6
ByLayer
 62
    7
370
   -1
100
AcDbText
 10
774.5384615384615
 20
543
 30
0
 40
5
  1
N2
 50
0
 41
1
 51
0
  7
STANDARD
 71
    0
 72
    1
 11
774.5384615384615
 21
543
 31
0
210
0
220
0
230
1
100
AcDbText
  0
LWPOLYLINE
  5
18A
100
AcDbEntity
  8
PLC_CHASSIS
  6
ByLayer
 62
    5
370
   -1
100
AcDbPolyline
 90
    5
 70
    0
 43
0
 10
75
 20
350
 10
815
 20
350
 10
815
 20
480
 10
75
 20
480
 10
75
 20
350
  0
TEXT
  5
18B
100
AcDbEntity
  8
TEXT_EQUIPMENT
  6
ByLayer
 62
    7
370
   -1
100
AcDbText
 10
90
 20
462
 30
0
 40
8
  1
RACK 3 (CS3) — Expansion Rack 2 (1756-EN4TR in Slot 00)
 50
0
 41
1
 51
0
  7
STANDARD
 71
    0
210
0
220
0
230
1
100
AcDbText
  0
LWPOLYLINE
  5
18C
100
AcDbEntity
  8
PLC_MODULE
  6
ByLayer
 62
    8
370
   -1
100
AcDbPolyline
 90
    5
 70
    0
 43
0
 10
85
 20
358
 10
120
 20
358
 10
120
 20
456
 10
85
 20
456
 10
85
 20
358
  0
TEXT
  5
18D
100
AcDbEntity
  8
TEXT_EQUIPMENT
  6
ByLayer
 62
  256
370
   -1
100
AcDbText
 10
102
 20
415
 30
0
 40
6
  1
PWR
 50
0
 41
1
 51
0
  7
STANDARD
 71
    0
 72
    1
 11
102
 21
415
 31
0
210
0
220
0
230
1
100
AcDbText
  0
LWPOLYLINE
  5
18E
100
AcDbEntity
  8
PLC_MODULE
  6
ByLayer
 62
    4
370
   -1
100
AcDbPolyline
 90
    5
 70
    0
 43
0
 10
127
 20
358
 10
175.9230769230769
 20
358
 10
175.9230769230769
 20
456
 10
127
 20
456
 10
127
 20
358
  0
TEXT
  5
18F
100
AcDbEntity
  8
TEXT_EQUIPMENT
  6
ByLayer
 62
  256
370
   -1
100
AcDbText
 10
151.4615384615385
 20
446
 30
0
 40
5
  1
00
 50
0
 41
1
 51
0
  7
STANDARD
 71
    0
 72
    1
 11
151.4615384615385
 21
446
 31
0
210
0
220
0
230
1
100
AcDbText
  0
TEXT
  5
190
100
AcDbEntity
  8
TEXT_MODULE
  6
ByLayer
 62
    3
370
   -1
100
AcDbText
 10
151.4615384615385
 20
373
 30
0
 40
5
  1
EN4T
 50
0
 41
1
 51
0
  7
STANDARD
 71
    0
 72
    1
 11
151.4615384615385
 21
373
 31
0
210
0
220
0
230
1
100
AcDbText
  0
LWPOLYLINE
  5
191
100
AcDbEntity
  8
PLC_MODULE
  6
ByLayer
 62
    4
370
   -1
100
AcDbPolyline
 90
    5
 70
    0
 43
0
 10
178.9230769230769
 20
358
 10
227.8461538461538
 20
358
 10
227.8461538461538
 20
456
 10
178.9230769230769
 20
456
 10
178.9230769230769
 20
358
  0
TEXT
  5
192
100
AcDbEntity
  8
TEXT_EQUIPMENT
  6
ByLayer
 62
  256
370
   -1
100
AcDbText
 10
203.3846153846154
 20
446
 30
0
 40
5
  1
01
 50
0
 41
1
 51
0
  7
STANDARD
 71
    0
 72
    1
 11
203.3846153846154
 21
446
 31
0
210
0
220
0
230
1
100
AcDbText
  0
TEXT
  5
193
100
AcDbEntity
  8
TEXT_MODULE
  6
ByLayer
 62
    7
370
   -1
100
AcDbText
 10
203.3846153846154
 20
373
 30
0
 40
5
  1
32DI
 50
0
 41
1
 51
0
  7
STANDARD
 71
    0
 72
    1
 11
203.3846153846154
 21
373
 31
0
210
0
220
0
230
1
100
AcDbText
  0
LWPOLYLINE
  5
194
100
AcDbEntity
  8
PLC_MODULE
  6
ByLayer
 62
    4
370
   -1
100
AcDbPolyline
 90
    5
 70
    0
 43
0
 10
230.8461538461538
 20
358
 10
279.7692307692308
 20
358
 10
279.7692307692308
 20
456
 10
230.8461538461538
 20
456
 10
230.8461538461538
 20
358
  0
TEXT
  5
195
100
AcDbEntity
  8
TEXT_EQUIPMENT
  6
ByLayer
 62
  256
370
   -1
100
AcDbText
 10
255.3076923076923
 20
446
 30
0
 40
5
  1
02
 50
0
 41
1
 51
0
  7
STANDARD
 71
    0
 72
    1
 11
255.3076923076923
 21
446
 31
0
210
0
220
0
230
1
100
AcDbText
  0
TEXT
  5
196
100
AcDbEntity
  8
TEXT_MODULE
  6
ByLayer
 62
    7
370
   -1
100
AcDbText
 10
255.3076923076923
 20
373
 30
0
 40
5
  1
32DI
 50
0
 41
1
 51
0
  7
STANDARD
 71
    0
 72
    1
 11
255.3076923076923
 21
373
 31
0
210
0
220
0
230
1
100
AcDbText
  0
LWPOLYLINE
  5
197
100
AcDbEntity
  8
PLC_MODULE
  6
ByLayer
 62
    4
370
   -1
100
AcDbPolyline
 90
    5
 70
    0
 43
0
 10
282.7692307692308
 20
358
 10
331.6923076923077
 20
358
 10
331.6923076923077
 20
456
 10
282.7692307692308
 20
456
 10
282.7692307692308
 20
358
  0
TEXT
  5
198
100
AcDbEntity
  8
TEXT_EQUIPMENT
  6
ByLayer
 62
  256
370
   -1
100
AcDbText
 10
307.2307692307692
 20
446
 30
0
 40
5
  1
03
 50
0
 41
1
 51
0
  7
STANDARD
 71
    0
 72
    1
 11
307.2307692307692
 21
446
 31
0
210
0
220
0
230
1
100
AcDbText
  0
TEXT
  5
199
100
AcDbEntity
  8
TEXT_MODULE
  6
ByLayer
 62
    7
370
   -1
100
AcDbText
 10
307.2307692307692
 20
373
 30
0
 40
5
  1
32DI
 50
0
 41
1
 51
0
  7
STANDARD
 71
    0
 72
    1
 11
307.2307692307692
 21
373
 31
0
210
0
220
0
230
1
100
AcDbText
  0
LWPOLYLINE
  5
19A
100
AcDbEntity
  8
PLC_MODULE
  6
ByLayer
 62
    4
370
   -1
100
AcDbPolyline
 90
    5
 70
    0
 43
0
 10
334.6923076923077
 20
358
 10
383.6153846153846
 20
358
 10
383.6153846153846
 20
456
 10
334.6923076923077
 20
456
 10
334.6923076923077
 20
358
  0
TEXT
  5
19B
100
AcDbEntity
  8
TEXT_EQUIPMENT
  6
ByLayer
 62
  256
370
   -1
100
AcDbText
 10
359.1538461538461
 20
446
 30
0
 40
5
  1
04
 50
0
 41
1
 51
0
  7
STANDARD
 71
    0
 72
    1
 11
359.1538461538461
 21
446
 31
0
210
0
220
0
230
1
100
AcDbText
  0
TEXT
  5
19C
100
AcDbEntity
  8
TEXT_MODULE
  6
ByLayer
 62
    7
370
   -1
100
AcDbText
 10
359.1538461538461
 20
373
 30
0
 40
5
  1
32DI
 50
0
 41
1
 51
0
  7
STANDARD
 71
    0
 72
    1
 11
359.1538461538461
 21
373
 31
0
210
0
220
0
230
1
100
AcDbText
  0
LWPOLYLINE
  5
19D
100
AcDbEntity
  8
PLC_MODULE
  6
ByLayer
 62
    4
370
   -1
100
AcDbPolyline
 90
    5
 70
    0
 43
0
 10
386.6153846153846
 20
358
 10
435.5384615384615
 20
358
 10
435.5384615384615
 20
456
 10
386.6153846153846
 20
456
 10
386.6153846153846
 20
358
  0
TEXT
  5
19E
100
AcDbEntity
  8
TEXT_EQUIPMENT
  6
ByLayer
 62
  256
370
   -1
100
AcDbText
 10
411.076923076923
 20
446
 30
0
 40
5
  1
05
 50
0
 41
1
 51
0
  7
STANDARD
 71
    0
 72
    1
 11
411.076923076923
 21
446
 31
0
210
0
220
0
230
1
100
AcDbText
  0
TEXT
  5
19F
100
AcDbEntity
  8
TEXT_MODULE
  6
ByLayer
 62
    7
370
   -1
100
AcDbText
 10
411.076923076923
 20
373
 30
0
 40
5
  1
32DO
 50
0
 41
1
 51
0
  7
STANDARD
 71
    0
 72
    1
 11
411.076923076923
 21
373
 31
0
210
0
220
0
230
1
100
AcDbText
  0
LWPOLYLINE
  5
1A0
100
AcDbEntity
  8
PLC_MODULE
  6
ByLayer
 62
    4
370
   -1
100
AcDbPolyline
 90
    5
 70
    0
 43
0
 10
438.5384615384615
 20
358
 10
487.4615384615385
 20
358
 10
487.4615384615385
 20
456
 10
438.5384615384615
 20
456
 10
438.5384615384615
 20
358
  0
TEXT
  5
1A1
100
AcDbEntity
  8
TEXT_EQUIPMENT
  6
ByLayer
 62
  256
370
   -1
100
AcDbText
 10
463
 20
446
 30
0
 40
5
  1
06
 50
0
 41
1
 51
0
  7
STANDARD
 71
    0
 72
    1
 11
463
 21
446
 31
0
210
0
220
0
230
1
100
AcDbText
  0
TEXT
  5
1A2
100
AcDbEntity
  8
TEXT_MODULE
  6
ByLayer
 62
    7
370
   -1
100
AcDbText
 10
463
 20
373
 30
0
 40
5
  1
32DO
 50
0
 41
1
 51
0
  7
STANDARD
 71
    0
 72
    1
 11
463
 21
373
 31
0
210
0
220
0
230
1
100
AcDbText
  0
LWPOLYLINE
  5
1A3
100
AcDbEntity
  8
PLC_MODULE
  6
ByLayer
 62
    4
370
   -1
100
AcDbPolyline
 90
    5
 70
    0
 43
0
 10
490.4615384615385
 20
358
 10
539.3846153846154
 20
358
 10
539.3846153846154
 20
456
 10
490.4615384615385
 20
456
 10
490.4615384615385
 20
358
  0
TEXT
  5
1A4
100
AcDbEntity
  8
TEXT_EQUIPMENT
  6
ByLayer
 62
  256
370
   -1
100
AcDbText
 10
514.9230769230769
 20
446
 30
0
 40
5
  1
07
 50
0
 41
1
 51
0
  7
STANDARD
 71
    0
 72
    1
 11
514.9230769230769
 21
446
 31
0
210
0
220
0
230
1
100
AcDbText
  0
TEXT
  5
1A5
100
AcDbEntity
  8
TEXT_MODULE
  6
ByLayer
 62
    7
370
   -1
100
AcDbText
 10
514.9230769230769
 20
373
 30
0
 40
5
  1
16AI
 50
0
 41
1
 51
0
  7
STANDARD
 71
    0
 72
    1
 11
514.9230769230769
 21
373
 31
0
210
0
220
0
230
1
100
AcDbText
  0
LWPOLYLINE
  5
1A6
100
AcDbEntity
  8
PLC_MODULE
  6
ByLayer
 62
    4
370
   -1
100
AcDbPolyline
 90
    5
 70
    0
 43
0
 10
542.3846153846154
 20
358
 10
591.3076923076923
 20
358
 10
591.3076923076923
 20
456
 10
542.3846153846154
 20
456
 10
542.3846153846154
 20
358
  0
TEXT
  5
1A7
100
AcDbEntity
  8
TEXT_EQUIPMENT
  6
ByLayer
 62
  256
370
   -1
100
AcDbText
 10
566.8461538461538
 20
446
 30
0
 40
5
  1
08
 50
0
 41
1
 51
0
  7
STANDARD
 71
    0
 72
    1
 11
566.8461538461538
 21
446
 31
0
210
0
220
0
230
1
100
AcDbText
  0
TEXT
  5
1A8
100
AcDbEntity
  8
TEXT_MODULE
  6
ByLayer
 62
    7
370
   -1
100
AcDbText
 10
566.8461538461538
 20
373
 30
0
 40
5
  1
16AI
 50
0
 41
1
 51
0
  7
STANDARD
 71
    0
 72
    1
 11
566.8461538461538
 21
373
 31
0
210
0
220
0
230
1
100
AcDbText
  0
LWPOLYLINE
  5
1A9
100
AcDbEntity
  8
PLC_MODULE
  6
ByLayer
 62
    4
370
   -1
100
AcDbPolyline
 90
    5
 70
    0
 43
0
 10
594.3076923076923
 20
358
 10
643.2307692307692
 20
358
 10
643.2307692307692
 20
456
 10
594.3076923076923
 20
456
 10
594.3076923076923
 20
358
  0
TEXT
  5
1AA
100
AcDbEntity
  8
TEXT_EQUIPMENT
  6
ByLayer
 62
  256
370
   -1
100
AcDbText
 10
618.7692307692307
 20
446
 30
0
 40
5
  1
09
 50
0
 41
1
 51
0
  7
STANDARD
 71
    0
 72
    1
 11
618.7692307692307
 21
446
 31
0
210
0
220
0
230
1
100
AcDbText
  0
TEXT
  5
1AB
100
AcDbEntity
  8
TEXT_MODULE
  6
ByLayer
 62
    7
370
   -1
100
AcDbText
 10
618.7692307692307
 20
373
 30
0
 40
5
  1
8AO
 50
0
 41
1
 51
0
  7
STANDARD
 71
    0
 72
    1
 11
618.7692307692307
 21
373
 31
0
210
0
220
0
230
1
100
AcDbText
  0
LWPOLYLINE
  5
1AC
100
AcDbEntity
  8
PLC_MODULE
  6
ByLayer
 62
    4
370
   -1
100
AcDbPolyline
 90
    5
 70
    0
 43
0
 10
646.2307692307692
 20
358
 10
695.1538461538461
 20
358
 10
695.1538461538461
 20
456
 10
646.2307692307692
 20
456
 10
646.2307692307692
 20
358
  0
TEXT
  5
1AD
100
AcDbEntity
  8
TEXT_EQUIPMENT
  6
ByLayer
 62
  256
370
   -1
100
AcDbText
 10
670.6923076923076
 20
446
 30
0
 40
5
  1
10
 50
0
 41
1
 51
0
  7
STANDARD
 71
    0
 72
    1
 11
670.6923076923076
 21
446
 31
0
210
0
220
0
230
1
100
AcDbText
  0
TEXT
  5
1AE
100
AcDbEntity
  8
TEXT_MODULE
  6
ByLayer
 62
    7
370
   -1
100
AcDbText
 10
670.6923076923076
 20
373
 30
0
 40
5
  1
8AO
 50
0
 41
1
 51
0
  7
STANDARD
 71
    0
 72
    1
 11
670.6923076923076
 21
373
 31
0
210
0
220
0
230
1
100
AcDbText
  0
LWPOLYLINE
  5
1AF
100
AcDbEntity
  8
PLC_MODULE
  6
ByLayer
 62
    4
370
   -1
100
AcDbPolyline
 90
    5
 70
    0
 43
0
 10
698.1538461538461
 20
358
 10
747.076923076923
 20
358
 10
747.076923076923
 20
456
 10
698.1538461538461
 20
456
 10
698.1538461538461
 20
358
  0
TEXT
  5
1B0
100
AcDbEntity
  8
TEXT_EQUIPMENT
  6
ByLayer
 62
  256
370
   -1
100
AcDbText
 10
722.6153846153845
 20
446
 30
0
 40
5
  1
11
 50
0
 41
1
 51
0
  7
STANDARD
 71
    0
 72
    1
 11
722.6153846153845
 21
446
 31
0
210
0
220
0
230
1
100
AcDbText
  0
TEXT
  5
1B1
100
AcDbEntity
  8
TEXT_MODULE
  6
ByLayer
 62
    7
370
   -1
100
AcDbText
 10
722.6153846153845
 20
373
 30
0
 40
5
  1
N2
 50
0
 41
1
 51
0
  7
STANDARD
 71
    0
 72
    1
 11
722.6153846153845
 21
373
 31
0
210
0
220
0
230
1
100
AcDbText
  0
LWPOLYLINE
  5
1B2
100
AcDbEntity
  8
PLC_MODULE
  6
ByLayer
 62
    4
370
   -1
100
AcDbPolyline
 90
    5
 70
    0
 43
0
 10
750.0769230769231
 20
358
 10
799
 20
358
 10
799
 20
456
 10
750.0769230769231
 20
456
 10
750.0769230769231
 20
358
  0
TEXT
  5
1B3
100
AcDbEntity
  8
TEXT_EQUIPMENT
  6
ByLayer
 62
  256
370
   -1
100
AcDbText
 10
774.5384615384615
 20
446
 30
0
 40
5
  1
12
 50
0
 41
1
 51
0
  7
STANDARD
 71
    0
 72
    1
 11
774.5384615384615
 21
446
 31
0
210
0
220
0
230
1
100
AcDbText
  0
TEXT
  5
1B4
100
AcDbEntity
  8
TEXT_MODULE
  6
ByLayer
 62
    7
370
   -1
100
AcDbText
 10
774.5384615384615
 20
373
 30
0
 40
5
  1
N2
 50
0
 41
1
 51
0
  7
STANDARD
 71
    0
 72
    1
 11
774.5384615384615
 21
373
 31
0
210
0
220
0
230
1
100
AcDbText
  0
LWPOLYLINE
  5
1B5
100
AcDbEntity
  8
PLC_CHASSIS
  6
ByLayer
 62
    5
370
   -1
100
AcDbPolyline
 90
    5
 70
    0
 43
0
 10
75
 20
180
 10
815
 20
180
 10
815
 20
310
 10
75
 20
310
 10
75
 20
180
  0
TEXT
  5
1B6
100
AcDbEntity
  8
TEXT_EQUIPMENT
  6
ByLayer
 62
    7
370
   -1
100
AcDbText
 10
90
 20
292
 30
0
 40
8
  1
RACK 4 (CS4) — Expansion Rack 3 (1756-EN4TR in Slot 00)
 50
0
 41
1
 51
0
  7
STANDARD
 71
    0
210
0
220
0
230
1
100
AcDbText
  0
LWPOLYLINE
  5
1B7
100
AcDbEntity
  8
PLC_MODULE
  6
ByLayer
 62
    8
370
   -1
100
AcDbPolyline
 90
    5
 70
    0
 43
0
 10
85
 20
188
 10
120
 20
188
 10
120
 20
286
 10
85
 20
286
 10
85
 20
188
  0
TEXT
  5
1B8
100
AcDbEntity
  8
TEXT_EQUIPMENT
  6
ByLayer
 62
  256
370
   -1
100
AcDbText
 10
102
 20
245
 30
0
 40
6
  1
PWR
 50
0
 41
1
 51
0
  7
STANDARD
 71
    0
 72
    1
 11
102
 21
245
 31
0
210
0
220
0
230
1
100
AcDbText
  0
LWPOLYLINE
  5
1B9
100
AcDbEntity
  8
PLC_MODULE
  6
ByLayer
 62
    4
370
   -1
100
AcDbPolyline
 90
    5
 70
    0
 43
0
 10
127
 20
188
 10
175.9230769230769
 20
188
 10
175.9230769230769
 20
286
 10
127
 20
286
 10
127
 20
188
  0
TEXT
  5
1BA
100
AcDbEntity
  8
TEXT_EQUIPMENT
  6
ByLayer
 62
  256
370
   -1
100
AcDbText
 10
151.4615384615385
 20
276
 30
0
 40
5
  1
00
 50
0
 41
1
 51
0
  7
STANDARD
 71
    0
 72
    1
 11
151.4615384615385
 21
276
 31
0
210
0
220
0
230
1
100
AcDbText
  0
TEXT
  5
1BB
100
AcDbEntity
  8
TEXT_MODULE
  6
ByLayer
 62
    3
370
   -1
100
AcDbText
 10
151.4615384615385
 20
203
 30
0
 40
5
  1
EN4T
 50
0
 41
1
 51
0
  7
STANDARD
 71
    0
 72
    1
 11
151.4615384615385
 21
203
 31
0
210
0
220
0
230
1
100
AcDbText
  0
LWPOLYLINE
  5
1BC
100
AcDbEntity
  8
PLC_MODULE
  6
ByLayer
 62
    4
370
   -1
100
AcDbPolyline
 90
    5
 70
    0
 43
0
 10
178.9230769230769
 20
188
 10
227.8461538461538
 20
188
 10
227.8461538461538
 20
286
 10
178.9230769230769
 20
286
 10
178.9230769230769
 20
188
  0
TEXT
  5
1BD
100
AcDbEntity
  8
TEXT_EQUIPMENT
  6
ByLayer
 62
  256
370
   -1
100
AcDbText
 10
203.3846153846154
 20
276
 30
0
 40
5
  1
01
 50
0
 41
1
 51
0
  7
STANDARD
 71
    0
 72
    1
 11
203.3846153846154
 21
276
 31
0
210
0
220
0
230
1
100
AcDbText
  0
TEXT
  5
1BE
100
AcDbEntity
  8
TEXT_MODULE
  6
ByLayer
 62
    7
370
   -1
100
AcDbText
 10
203.3846153846154
 20
203
 30
0
 40
5
  1
32DI
 50
0
 41
1
 51
0
  7
STANDARD
 71
    0
 72
    1
 11
203.3846153846154
 21
203
 31
0
210
0
220
0
230
1
100
AcDbText
  0
LWPOLYLINE
  5
1BF
100
AcDbEntity
  8
PLC_MODULE
  6
ByLayer
 62
    4
370
   -1
100
AcDbPolyline
 90
    5
 70
    0
 43
0
 10
230.8461538461538
 20
188
 10
279.7692307692308
 20
188
 10
279.7692307692308
 20
286
 10
230.8461538461538
 20
286
 10
230.8461538461538
 20
188
  0
TEXT
  5
1C0
100
AcDbEntity
  8
TEXT_EQUIPMENT
  6
ByLayer
 62
  256
370
   -1
100
AcDbText
 10
255.3076923076923
 20
276
 30
0
 40
5
  1
02
 50
0
 41
1
 51
0
  7
STANDARD
 71
    0
 72
    1
 11
255.3076923076923
 21
276
 31
0
210
0
220
0
230
1
100
AcDbText
  0
TEXT
  5
1C1
100
AcDbEntity
  8
TEXT_MODULE
  6
ByLayer
 62
    7
370
   -1
100
AcDbText
 10
255.3076923076923
 20
203
 30
0
 40
5
  1
32DI
 50
0
 41
1
 51
0
  7
STANDARD
 71
    0
 72
    1
 11
255.3076923076923
 21
203
 31
0
210
0
220
0
230
1
100
AcDbText
  0
LWPOLYLINE
  5
1C2
100
AcDbEntity
  8
PLC_MODULE
  6
ByLayer
 62
    4
370
   -1
100
AcDbPolyline
 90
    5
 70
    0
 43
0
 10
282.7692307692308
 20
188
 10
331.6923076923077
 20
188
 10
331.6923076923077
 20
286
 10
282.7692307692308
 20
286
 10
282.7692307692308
 20
188
  0
TEXT
  5
1C3
100
AcDbEntity
  8
TEXT_EQUIPMENT
  6
ByLayer
 62
  256
370
   -1
100
AcDbText
 10
307.2307692307692
 20
276
 30
0
 40
5
  1
03
 50
0
 41
1
 51
0
  7
STANDARD
 71
    0
 72
    1
 11
307.2307692307692
 21
276
 31
0
210
0
220
0
230
1
100
AcDbText
  0
TEXT
  5
1C4
100
AcDbEntity
  8
TEXT_MODULE
  6
ByLayer
 62
    7
370
   -1
100
AcDbText
 10
307.2307692307692
 20
203
 30
0
 40
5
  1
32DI
 50
0
 41
1
 51
0
  7
STANDARD
 71
    0
 72
    1
 11
307.2307692307692
 21
203
 31
0
210
0
220
0
230
1
100
AcDbText
  0
LWPOLYLINE
  5
1C5
100
AcDbEntity
  8
PLC_MODULE
  6
ByLayer
 62
    4
370
   -1
100
AcDbPolyline
 90
    5
 70
    0
 43
0
 10
334.6923076923077
 20
188
 10
383.6153846153846
 20
188
 10
383.6153846153846
 20
286
 10
334.6923076923077
 20
286
 10
334.6923076923077
 20
188
  0
TEXT
  5
1C6
100
AcDbEntity
  8
TEXT_EQUIPMENT
  6
ByLayer
 62
  256
370
   -1
100
AcDbText
 10
359.1538461538461
 20
276
 30
0
 40
5
  1
04
 50
0
 41
1
 51
0
  7
STANDARD
 71
    0
 72
    1
 11
359.1538461538461
 21
276
 31
0
210
0
220
0
230
1
100
AcDbText
  0
TEXT
  5
1C7
100
AcDbEntity
  8
TEXT_MODULE
  6
ByLayer
 62
    7
370
   -1
100
AcDbText
 10
359.1538461538461
 20
203
 30
0
 40
5
  1
32DI
 50
0
 41
1
 51
0
  7
STANDARD
 71
    0
 72
    1
 11
359.1538461538461
 21
203
 31
0
210
0
220
0
230
1
100
AcDbText
  0
LWPOLYLINE
  5
1C8
100
AcDbEntity
  8
PLC_MODULE
  6
ByLayer
 62
    4
370
   -1
100
AcDbPolyline
 90
    5
 70
    0
 43
0
 10
386.6153846153846
 20
188
 10
435.5384615384615
 20
188
 10
435.5384615384615
 20
286
 10
386.6153846153846
 20
286
 10
386.6153846153846
 20
188
  0
TEXT
  5
1C9
100
AcDbEntity
  8
TEXT_EQUIPMENT
  6
ByLayer
 62
  256
370
   -1
100
AcDbText
 10
411.076923076923
 20
276
 30
0
 40
5
  1
05
 50
0
 41
1
 51
0
  7
STANDARD
 71
    0
 72
    1
 11
411.076923076923
 21
276
 31
0
210
0
220
0
230
1
100
AcDbText
  0
TEXT
  5
1CA
100
AcDbEntity
  8
TEXT_MODULE
  6
ByLayer
 62
    7
370
   -1
100
AcDbText
 10
411.076923076923
 20
203
 30
0
 40
5
  1
32DO
 50
0
 41
1
 51
0
  7
STANDARD
 71
    0
 72
    1
 11
411.076923076923
 21
203
 31
0
210
0
220
0
230
1
100
AcDbText
  0
LWPOLYLINE
  5
1CB
100
AcDbEntity
  8
PLC_MODULE
  6
ByLayer
 62
    4
370
   -1
100
AcDbPolyline
 90
    5
 70
    0
 43
0
 10
438.5384615384615
 20
188
 10
487.4615384615385
 20
188
 10
487.4615384615385
 20
286
 10
438.5384615384615
 20
286
 10
438.5384615384615
 20
188
  0
TEXT
  5
1CC
100
AcDbEntity
  8
TEXT_EQUIPMENT
  6
ByLayer
 62
  256
370
   -1
100
AcDbText
 10
463
 20
276
 30
0
 40
5
  1
06
 50
0
 41
1
 51
0
  7
STANDARD
 71
    0
 72
    1
 11
463
 21
276
 31
0
210
0
220
0
230
1
100
AcDbText
  0
TEXT
  5
1CD
100
AcDbEntity
  8
TEXT_MODULE
  6
ByLayer
 62
    7
370
   -1
100
AcDbText
 10
463
 20
203
 30
0
 40
5
  1
32DO
 50
0
 41
1
 51
0
  7
STANDARD
 71
    0
 72
    1
 11
463
 21
203
 31
0
210
0
220
0
230
1
100
AcDbText
  0
LWPOLYLINE
  5
1CE
100
AcDbEntity
  8
PLC_MODULE
  6
ByLayer
 62
    4
370
   -1
100
AcDbPolyline
 90
    5
 70
    0
 43
0
 10
490.4615384615385
 20
188
 10
539.3846153846154
 20
188
 10
539.3846153846154
 20
286
 10
490.4615384615385
 20
286
 10
490.4615384615385
 20
188
  0
TEXT
  5
1CF
100
AcDbEntity
  8
TEXT_EQUIPMENT
  6
ByLayer
 62
  256
370
   -1
100
AcDbText
 10
514.9230769230769
 20
276
 30
0
 40
5
  1
07
 50
0
 41
1
 51
0
  7
STANDARD
 71
    0
 72
    1
 11
514.9230769230769
 21
276
 31
0
210
0
220
0
230
1
100
AcDbText
  0
TEXT
  5
1D0
100
AcDbEntity
  8
TEXT_MODULE
  6
ByLayer
 62
    7
370
   -1
100
AcDbText
 10
514.9230769230769
 20
203
 30
0
 40
5
  1
16AI
 50
0
 41
1
 51
0
  7
STANDARD
 71
    0
 72
    1
 11
514.9230769230769
 21
203
 31
0
210
0
220
0
230
1
100
AcDbText
  0
LWPOLYLINE
  5
1D1
100
AcDbEntity
  8
PLC_MODULE
  6
ByLayer
 62
    4
370
   -1
100
AcDbPolyline
 90
    5
 70
    0
 43
0
 10
542.3846153846154
 20
188
 10
591.3076923076923
 20
188
 10
591.3076923076923
 20
286
 10
542.3846153846154
 20
286
 10
542.3846153846154
 20
188
  0
TEXT
  5
1D2
100
AcDbEntity
  8
TEXT_EQUIPMENT
  6
ByLayer
 62
  256
370
   -1
100
AcDbText
 10
566.8461538461538
 20
276
 30
0
 40
5
  1
08
 50
0
 41
1
 51
0
  7
STANDARD
 71
    0
 72
    1
 11
566.8461538461538
 21
276
 31
0
210
0
220
0
230
1
100
AcDbText
  0
TEXT
  5
1D3
100
AcDbEntity
  8
TEXT_MODULE
  6
ByLayer
 62
    7
370
   -1
100
AcDbText
 10
566.8461538461538
 20
203
 30
0
 40
5
  1
16AI
 50
0
 41
1
 51
0
  7
STANDARD
 71
    0
 72
    1
 11
566.8461538461538
 21
203
 31
0
210
0
220
0
230
1
100
AcDbText
  0
LWPOLYLINE
  5
1D4
100
AcDbEntity
  8
PLC_MODULE
  6
ByLayer
 62
    4
370
   -1
100
AcDbPolyline
 90
    5
 70
    0
 43
0
 10
594.3076923076923
 20
188
 10
643.2307692307692
 20
188
 10
643.2307692307692
 20
286
 10
594.3076923076923
 20
286
 10
594.3076923076923
 20
188
  0
TEXT
  5
1D5
100
AcDbEntity
  8
TEXT_EQUIPMENT
  6
ByLayer
 62
  256
370
   -1
100
AcDbText
 10
618.7692307692307
 20
276
 30
0
 40
5
  1
09
 50
0
 41
1
 51
0
  7
STANDARD
 71
    0
 72
    1
 11
618.7692307692307
 21
276
 31
0
210
0
220
0
230
1
100
AcDbText
  0
TEXT
  5
1D6
100
AcDbEntity
  8
TEXT_MODULE
  6
ByLayer
 62
    7
370
   -1
100
AcDbText
 10
618.7692307692307
 20
203
 30
0
 40
5
  1
8AO
 50
0
 41
1
 51
0
  7
STANDARD
 71
    0
 72
    1
 11
618.7692307692307
 21
203
 31
0
210
0
220
0
230
1
100
AcDbText
  0
LWPOLYLINE
  5
1D7
100
AcDbEntity
  8
PLC_MODULE
  6
ByLayer
 62
    4
370
   -1
100
AcDbPolyline
 90
    5
 70
    0
 43
0
 10
646.2307692307692
 20
188
 10
695.1538461538461
 20
188
 10
695.1538461538461
 20
286
 10
646.2307692307692
 20
286
 10
646.2307692307692
 20
188
  0
TEXT
  5
1D8
100
AcDbEntity
  8
TEXT_EQUIPMENT
  6
ByLayer
 62
  256
370
   -1
100
AcDbText
 10
670.6923076923076
 20
276
 30
0
 40
5
  1
10
 50
0
 41
1
 51
0
  7
STANDARD
 71
    0
 72
    1
 11
670.6923076923076
 21
276
 31
0
210
0
220
0
230
1
100
AcDbText
  0
TEXT
  5
1D9
100
AcDbEntity
  8
TEXT_MODULE
  6
ByLayer
 62
    7
370
   -1
100
AcDbText
 10
670.6923076923076
 20
203
 30
0
 40
5
  1
8AO
 50
0
 41
1
 51
0
  7
STANDARD
 71
    0
 72
    1
 11
670.6923076923076
 21
203
 31
0
210
0
220
0
230
1
100
AcDbText
  0
LWPOLYLINE
  5
1DA
100
AcDbEntity
  8
PLC_MODULE
  6
ByLayer
 62
    4
370
   -1
100
AcDbPolyline
 90
    5
 70
    0
 43
0
 10
698.1538461538461
 20
188
 10
747.076923076923
 20
188
 10
747.076923076923
 20
286
 10
698.1538461538461
 20
286
 10
698.1538461538461
 20
188
  0
TEXT
  5
1DB
100
AcDbEntity
  8
TEXT_EQUIPMENT
  6
ByLayer
 62
  256
370
   -1
100
AcDbText
 10
722.6153846153845
 20
276
 30
0
 40
5
  1
11
 50
0
 41
1
 51
0
  7
STANDARD
 71
    0
 72
    1
 11
722.6153846153845
 21
276
 31
0
210
0
220
0
230
1
100
AcDbText
  0
TEXT
  5
1DC
100
AcDbEntity
  8
TEXT_MODULE
  6
ByLayer
 62
    7
370
   -1
100
AcDbText
 10
722.6153846153845
 20
203
 30
0
 40
5
  1
N2
 50
0
 41
1
 51
0
  7
STANDARD
 71
    0
 72
    1
 11
722.6153846153845
 21
203
 31
0
210
0
220
0
230
1
100
AcDbText
  0
LWPOLYLINE
  5
1DD
100
AcDbEntity
  8
PLC_MODULE
  6
ByLayer
 62
    4
370
   -1
100
AcDbPolyline
 90
    5
 70
    0
 43
0
 10
750.0769230769231
 20
188
 10
799
 20
188
 10
799
 20
286
 10
750.0769230769231
 20
286
 10
750.0769230769231
 20
188
  0
TEXT
  5
1DE
100
AcDbEntity
  8
TEXT_EQUIPMENT
  6
ByLayer
 62
  256
370
   -1
100
AcDbText
 10
774.5384615384615
 20
276
 30
0
 40
5
  1
12
 50
0
 41
1
 51
0
  7
STANDARD
 71
    0
 72
    1
 11
774.5384615384615
 21
276
 31
0
210
0
220
0
230
1
100
AcDbText
  0
TEXT
  5
1DF
100
AcDbEntity
  8
TEXT_MODULE
  6
ByLayer
 62
    7
370
   -1
100
AcDbText
 10
774.5384615384615
 20
203
 30
0
 40
5
  1
N2
 50
0
 41
1
 51
0
  7
STANDARD
 71
    0
 72
    1
 11
774.5384615384615
 21
203
 31
0
210
0
220
0
230
1
100
AcDbText
  0
LWPOLYLINE
  5
1E0
100
AcDbEntity
  8
PANEL_ENCLOSURE
  6
ByLayer
 62
  256
370
   -1
100
AcDbPolyline
 90
    5
 70
    0
 43
0
 10
880
 20
380
 10
1420
 20
380
 10
1420
 20
740
 10
880
 20
740
 10
880
 20
380
  0
TEXT
  5
1E1
100
AcDbEntity
  8
TEXT_TITLE
  6
ByLayer
 62
  256
370
   -1
100
AcDbText
 10
900
 20
715
 30
0
 40
10
  1
RIO Area-200 (PRE-SLURRY EXPANSION PANEL)
 50
0
 41
1
 51
0
  7
STANDARD
 71
    0
210
0
220
0
230
1
100
AcDbText
  0
LWPOLYLINE
  5
1E2
100
AcDbEntity
  8
EQUIPMENT_DETAIL
  6
ByLayer
 62
  256
370
   -1
100
AcDbPolyline
 90
    5
 70
    0
 43
0
 10
910
 20
630
 10
1090
 20
630
 10
1090
 20
680
 10
910
 20
680
 10
910
 20
630
  0
TEXT
  5
1E3
100
AcDbEntity
  8
TEXT_EQUIPMENT
  6
ByLayer
 62
    3
370
   -1
100
AcDbText
 10
1000
 20
662
 30
0
 40
7
  1
1783-ETAP2F / MC-02
 50
0
 41
1
 51
0
  7
STANDARD
 71
    0
 72
    1
 11
1000
 21
662
 31
0
210
0
220
0
230
1
100
AcDbText
  0
TEXT
  5
1E4
100
AcDbEntity
  8
TEXT_SUBTITLE
  6
ByLayer
 62
    6
370
   -1
100
AcDbText
 10
1000
 20
645
 30
0
 40
6
  1
DLR Fiber Tap (RIO side)
 50
0
 41
1
 51
0
  7
STANDARD
 71
    0
 72
    1
 11
1000
 21
645
 31
0
210
0
220
0
230
1
100
AcDbText
  0
LWPOLYLINE
  5
1E5
100
AcDbEntity
  8
PLC_CHASSIS
  6
ByLayer
 62
    5
370
   -1
100
AcDbPolyline
 90
    5
 70
    0
 43
0
 10
900
 20
450
 10
1400
 20
450
 10
1400
 20
590
 10
900
 20
590
 10
900
 20
450
  0
TEXT
  5
1E6
100
AcDbEntity
  8
TEXT_EQUIPMENT
  6
ByLayer
 62
    7
370
   -1
100
AcDbText
 10
915
 20
572
 30
0
 40
8
  1
RACK 5 (CS5) — Remote I/O Chassis via Fiber Optic
 50
0
 41
1
 51
0
  7
STANDARD
 71
    0
210
0
220
0
230
1
100
AcDbText
  0
LWPOLYLINE
  5
1E7
100
AcDbEntity
  8
PLC_MODULE
  6
ByLayer
 62
    8
370
   -1
100
AcDbPolyline
 90
    5
 70
    0
 43
0
 10
910
 20
458
 10
945
 20
458
 10
945
 20
566
 10
910
 20
566
 10
910
 20
458
  0
TEXT
  5
1E8
100
AcDbEntity
  8
TEXT_EQUIPMENT
  6
ByLayer
 62
  256
370
   -1
100
AcDbText
 10
927
 20
520
 30
0
 40
6
  1
PWR
 50
0
 41
1
 51
0
  7
STANDARD
 71
    0
 72
    1
 11
927
 21
520
 31
0
210
0
220
0
230
1
100
AcDbText
  0
LWPOLYLINE
  5
1E9
100
AcDbEntity
  8
PLC_MODULE
  6
ByLayer
 62
    4
370
   -1
100
AcDbPolyline
 90
    5
 70
    0
 43
0
 10
952
 20
458
 10
982.4615384615385
 20
458
 10
982.4615384615385
 20
566
 10
952
 20
566
 10
952
 20
458
  0
TEXT
  5
1EA
100
AcDbEntity
  8
TEXT_EQUIPMENT
  6
ByLayer
 62
  256
370
   -1
100
AcDbText
 10
967.2307692307693
 20
556
 30
0
 40
5
  1
00
 50
0
 41
1
 51
0
  7
STANDARD
 71
    0
 72
    1
 11
967.2307692307693
 21
556
 31
0
210
0
220
0
230
1
100
AcDbText
  0
TEXT
  5
1EB
100
AcDbEntity
  8
TEXT_MODULE
  6
ByLayer
 62
    3
370
   -1
100
AcDbText
 10
967.2307692307693
 20
473
 30
0
 40
5
  1
EN4T
 50
0
 41
1
 51
0
  7
STANDARD
 71
    0
 72
    1
 11
967.2307692307693
 21
473
 31
0
210
0
220
0
230
1
100
AcDbText
  0
LWPOLYLINE
  5
1EC
100
AcDbEntity
  8
PLC_MODULE
  6
ByLayer
 62
    4
370
   -1
100
AcDbPolyline
 90
    5
 70
    0
 43
0
 10
985.4615384615385
 20
458
 10
1015.923076923077
 20
458
 10
1015.923076923077
 20
566
 10
985.4615384615385
 20
566
 10
985.4615384615385
 20
458
  0
TEXT
  5
1ED
100
AcDbEntity
  8
TEXT_EQUIPMENT
  6
ByLayer
 62
  256
370
   -1
100
AcDbText
 10
1000.692307692308
 20
556
 30
0
 40
5
  1
01
 50
0
 41
1
 51
0
  7
STANDARD
 71
    0
 72
    1
 11
1000.692307692308
 21
556
 31
0
210
0
220
0
230
1
100
AcDbText
  0
TEXT
  5
1EE
100
AcDbEntity
  8
TEXT_MODULE
  6
ByLayer
 62
    7
370
   -1
100
AcDbText
 10
1000.692307692308
 20
473
 30
0
 40
5
  1
32DI
 50
0
 41
1
 51
0
  7
STANDARD
 71
    0
 72
    1
 11
1000.692307692308
 21
473
 31
0
210
0
220
0
230
1
100
AcDbText
  0
LWPOLYLINE
  5
1EF
100
AcDbEntity
  8
PLC_MODULE
  6
ByLayer
 62
    4
370
   -1
100
AcDbPolyline
 90
    5
 70
    0
 43
0
 10
1018.923076923077
 20
458
 10
1049.384615384615
 20
458
 10
1049.384615384615
 20
566
 10
1018.923076923077
 20
566
 10
1018.923076923077
 20
458
  0
TEXT
  5
1F0
100
AcDbEntity
  8
TEXT_EQUIPMENT
  6
ByLayer
 62
  256
370
   -1
100
AcDbText
 10
1034.153846153846
 20
556
 30
0
 40
5
  1
02
 50
0
 41
1
 51
0
  7
STANDARD
 71
    0
 72
    1
 11
1034.153846153846
 21
556
 31
0
210
0
220
0
230
1
100
AcDbText
  0
TEXT
  5
1F1
100
AcDbEntity
  8
TEXT_MODULE
  6
ByLayer
 62
    7
370
   -1
100
AcDbText
 10
1034.153846153846
 20
473
 30
0
 40
5
  1
32DI
 50
0
 41
1
 51
0
  7
STANDARD
 71
    0
 72
    1
 11
1034.153846153846
 21
473
 31
0
210
0
220
0
230
1
100
AcDbText
  0
LWPOLYLINE
  5
1F2
100
AcDbEntity
  8
PLC_MODULE
  6
ByLayer
 62
    4
370
   -1
100
AcDbPolyline
 90
    5
 70
    0
 43
0
 10
1052.384615384615
 20
458
 10
1082.846153846154
 20
458
 10
1082.846153846154
 20
566
 10
1052.384615384615
 20
566
 10
1052.384615384615
 20
458
  0
TEXT
  5
1F3
100
AcDbEntity
  8
TEXT_EQUIPMENT
  6
ByLayer
 62
  256
370
   -1
100
AcDbText
 10
1067.615384615385
 20
556
 30
0
 40
5
  1
03
 50
0
 41
1
 51
0
  7
STANDARD
 71
    0
 72
    1
 11
1067.615384615385
 21
556
 31
0
210
0
220
0
230
1
100
AcDbText
  0
TEXT
  5
1F4
100
AcDbEntity
  8
TEXT_MODULE
  6
ByLayer
 62
    7
370
   -1
100
AcDbText
 10
1067.615384615385
 20
473
 30
0
 40
5
  1
32DI
 50
0
 41
1
 51
0
  7
STANDARD
 71
    0
 72
    1
 11
1067.615384615385
 21
473
 31
0
210
0
220
0
230
1
100
AcDbText
  0
LWPOLYLINE
  5
1F5
100
AcDbEntity
  8
PLC_MODULE
  6
ByLayer
 62
    4
370
   -1
100
AcDbPolyline
 90
    5
 70
    0
 43
0
 10
1085.846153846154
 20
458
 10
1116.307692307692
 20
458
 10
1116.307692307692
 20
566
 10
1085.846153846154
 20
566
 10
1085.846153846154
 20
458
  0
TEXT
  5
1F6
100
AcDbEntity
  8
TEXT_EQUIPMENT
  6
ByLayer
 62
  256
370
   -1
100
AcDbText
 10
1101.076923076923
 20
556
 30
0
 40
5
  1
04
 50
0
 41
1
 51
0
  7
STANDARD
 71
    0
 72
    1
 11
1101.076923076923
 21
556
 31
0
210
0
220
0
230
1
100
AcDbText
  0
TEXT
  5
1F7
100
AcDbEntity
  8
TEXT_MODULE
  6
ByLayer
 62
    7
370
   -1
100
AcDbText
 10
1101.076923076923
 20
473
 30
0
 40
5
  1
32DI
 50
0
 41
1
 51
0
  7
STANDARD
 71
    0
 72
    1
 11
1101.076923076923
 21
473
 31
0
210
0
220
0
230
1
100
AcDbText
  0
LWPOLYLINE
  5
1F8
100
AcDbEntity
  8
PLC_MODULE
  6
ByLayer
 62
    4
370
   -1
100
AcDbPolyline
 90
    5
 70
    0
 43
0
 10
1119.307692307692
 20
458
 10
1149.769230769231
 20
458
 10
1149.769230769231
 20
566
 10
1119.307692307692
 20
566
 10
1119.307692307692
 20
458
  0
TEXT
  5
1F9
100
AcDbEntity
  8
TEXT_EQUIPMENT
  6
ByLayer
 62
  256
370
   -1
100
AcDbText
 10
1134.538461538462
 20
556
 30
0
 40
5
  1
05
 50
0
 41
1
 51
0
  7
STANDARD
 71
    0
 72
    1
 11
1134.538461538462
 21
556
 31
0
210
0
220
0
230
1
100
AcDbText
  0
TEXT
  5
1FA
100
AcDbEntity
  8
TEXT_MODULE
  6
ByLayer
 62
    7
370
   -1
100
AcDbText
 10
1134.538461538462
 20
473
 30
0
 40
5
  1
32DO
 50
0
 41
1
 51
0
  7
STANDARD
 71
    0
 72
    1
 11
1134.538461538462
 21
473
 31
0
210
0
220
0
230
1
100
AcDbText
  0
LWPOLYLINE
  5
1FB
100
AcDbEntity
  8
PLC_MODULE
  6
ByLayer
 62
    4
370
   -1
100
AcDbPolyline
 90
    5
 70
    0
 43
0
 10
1152.769230769231
 20
458
 10
1183.230769230769
 20
458
 10
1183.230769230769
 20
566
 10
1152.769230769231
 20
566
 10
1152.769230769231
 20
458
  0
TEXT
  5
1FC
100
AcDbEntity
  8
TEXT_EQUIPMENT
  6
ByLayer
 62
  256
370
   -1
100
AcDbText
 10
1168
 20
556
 30
0
 40
5
  1
06
 50
0
 41
1
 51
0
  7
STANDARD
 71
    0
 72
    1
 11
1168
 21
556
 31
0
210
0
220
0
230
1
100
AcDbText
  0
TEXT
  5
1FD
100
AcDbEntity
  8
TEXT_MODULE
  6
ByLayer
 62
    7
370
   -1
100
AcDbText
 10
1168
 20
473
 30
0
 40
5
  1
32DO
 50
0
 41
1
 51
0
  7
STANDARD
 71
    0
 72
    1
 11
1168
 21
473
 31
0
210
0
220
0
230
1
100
AcDbText
  0
LWPOLYLINE
  5
1FE
100
AcDbEntity
  8
PLC_MODULE
  6
ByLayer
 62
    4
370
   -1
100
AcDbPolyline
 90
    5
 70
    0
 43
0
 10
1186.230769230769
 20
458
 10
1216.692307692308
 20
458
 10
1216.692307692308
 20
566
 10
1186.230769230769
 20
566
 10
1186.230769230769
 20
458
  0
TEXT
  5
1FF
100
AcDbEntity
  8
TEXT_EQUIPMENT
  6
ByLayer
 62
  256
370
   -1
100
AcDbText
 10
1201.461538461539
 20
556
 30
0
 40
5
  1
07
 50
0
 41
1
 51
0
  7
STANDARD
 71
    0
 72
    1
 11
1201.461538461539
 21
556
 31
0
210
0
220
0
230
1
100
AcDbText
  0
TEXT
  5
200
100
AcDbEntity
  8
TEXT_MODULE
  6
ByLayer
 62
    7
370
   -1
100
AcDbText
 10
1201.461538461539
 20
473
 30
0
 40
5
  1
16AI
 50
0
 41
1
 51
0
  7
STANDARD
 71
    0
 72
    1
 11
1201.461538461539
 21
473
 31
0
210
0
220
0
230
1
100
AcDbText
  0
LWPOLYLINE
  5
201
100
AcDbEntity
  8
PLC_MODULE
  6
ByLayer
 62
    4
370
   -1
100
AcDbPolyline
 90
    5
 70
    0
 43
0
 10
1219.692307692308
 20
458
 10
1250.153846153846
 20
458
 10
1250.153846153846
 20
566
 10
1219.692307692308
 20
566
 10
1219.692307692308
 20
458
  0
TEXT
  5
202
100
AcDbEntity
  8
TEXT_EQUIPMENT
  6
ByLayer
 62
  256
370
   -1
100
AcDbText
 10
1234.923076923077
 20
556
 30
0
 40
5
  1
08
 50
0
 41
1
 51
0
  7
STANDARD
 71
    0
 72
    1
 11
1234.923076923077
 21
556
 31
0
210
0
220
0
230
1
100
AcDbText
  0
TEXT
  5
203
100
AcDbEntity
  8
TEXT_MODULE
  6
ByLayer
 62
    7
370
   -1
100
AcDbText
 10
1234.923076923077
 20
473
 30
0
 40
5
  1
16AI
 50
0
 41
1
 51
0
  7
STANDARD
 71
    0
 72
    1
 11
1234.923076923077
 21
473
 31
0
210
0
220
0
230
1
100
AcDbText
  0
LWPOLYLINE
  5
204
100
AcDbEntity
  8
PLC_MODULE
  6
ByLayer
 62
    4
370
   -1
100
AcDbPolyline
 90
    5
 70
    0
 43
0
 10
1253.153846153846
 20
458
 10
1283.615384615385
 20
458
 10
1283.615384615385
 20
566
 10
1253.153846153846
 20
566
 10
1253.153846153846
 20
458
  0
TEXT
  5
205
100
AcDbEntity
  8
TEXT_EQUIPMENT
  6
ByLayer
 62
  256
370
   -1
100
AcDbText
 10
1268.384615384615
 20
556
 30
0
 40
5
  1
09
 50
0
 41
1
 51
0
  7
STANDARD
 71
    0
 72
    1
 11
1268.384615384615
 21
556
 31
0
210
0
220
0
230
1
100
AcDbText
  0
TEXT
  5
206
100
AcDbEntity
  8
TEXT_MODULE
  6
ByLayer
 62
    7
370
   -1
100
AcDbText
 10
1268.384615384615
 20
473
 30
0
 40
5
  1
8AO
 50
0
 41
1
 51
0
  7
STANDARD
 71
    0
 72
    1
 11
1268.384615384615
 21
473
 31
0
210
0
220
0
230
1
100
AcDbText
  0
LWPOLYLINE
  5
207
100
AcDbEntity
  8
PLC_MODULE
  6
ByLayer
 62
    4
370
   -1
100
AcDbPolyline
 90
    5
 70
    0
 43
0
 10
1286.615384615385
 20
458
 10
1317.076923076923
 20
458
 10
1317.076923076923
 20
566
 10
1286.615384615385
 20
566
 10
1286.615384615385
 20
458
  0
TEXT
  5
208
100
AcDbEntity
  8
TEXT_EQUIPMENT
  6
ByLayer
 62
  256
370
   -1
100
AcDbText
 10
1301.846153846154
 20
556
 30
0
 40
5
  1
10
 50
0
 41
1
 51
0
  7
STANDARD
 71
    0
 72
    1
 11
1301.846153846154
 21
556
 31
0
210
0
220
0
230
1
100
AcDbText
  0
TEXT
  5
209
100
AcDbEntity
  8
TEXT_MODULE
  6
ByLayer
 62
    7
370
   -1
100
AcDbText
 10
1301.846153846154
 20
473
 30
0
 40
5
  1
8AO
 50
0
 41
1
 51
0
  7
STANDARD
 71
    0
 72
    1
 11
1301.846153846154
 21
473
 31
0
210
0
220
0
230
1
100
AcDbText
  0
LWPOLYLINE
  5
20A
100
AcDbEntity
  8
PLC_MODULE
  6
ByLayer
 62
    4
370
   -1
100
AcDbPolyline
 90
    5
 70
    0
 43
0
 10
1320.076923076923
 20
458
 10
1350.538461538462
 20
458
 10
1350.538461538462
 20
566
 10
1320.076923076923
 20
566
 10
1320.076923076923
 20
458
  0
TEXT
  5
20B
100
AcDbEntity
  8
TEXT_EQUIPMENT
  6
ByLayer
 62
  256
370
   -1
100
AcDbText
 10
1335.307692307692
 20
556
 30
0
 40
5
  1
11
 50
0
 41
1
 51
0
  7
STANDARD
 71
    0
 72
    1
 11
1335.307692307692
 21
556
 31
0
210
0
220
0
230
1
100
AcDbText
  0
TEXT
  5
20C
100
AcDbEntity
  8
TEXT_MODULE
  6
ByLayer
 62
    7
370
   -1
100
AcDbText
 10
1335.307692307692
 20
473
 30
0
 40
5
  1
N2
 50
0
 41
1
 51
0
  7
STANDARD
 71
    0
 72
    1
 11
1335.307692307692
 21
473
 31
0
210
0
220
0
230
1
100
AcDbText
  0
LWPOLYLINE
  5
20D
100
AcDbEntity
  8
PLC_MODULE
  6
ByLayer
 62
    4
370
   -1
100
AcDbPolyline
 90
    5
 70
    0
 43
0
 10
1353.538461538461
 20
458
 10
1384
 20
458
 10
1384
 20
566
 10
1353.538461538461
 20
566
 10
1353.538461538461
 20
458
  0
TEXT
  5
20E
100
AcDbEntity
  8
TEXT_EQUIPMENT
  6
ByLayer
 62
  256
370
   -1
100
AcDbText
 10
1368.769230769231
 20
556
 30
0
 40
5
  1
12
 50
0
 41
1
 51
0
  7
STANDARD
 71
    0
 72
    1
 11
1368.769230769231
 21
556
 31
0
210
0
220
0
230
1
100
AcDbText
  0
TEXT
  5
20F
100
AcDbEntity
  8
TEXT_MODULE
  6
ByLayer
 62
    7
370
   -1
100
AcDbText
 10
1368.769230769231
 20
473
 30
0
 40
5
  1
N2
 50
0
 41
1
 51
0
  7
STANDARD
 71
    0
 72
    1
 11
1368.769230769231
 21
473
 31
0
210
0
220
0
230
1
100
AcDbText
  0
LWPOLYLINE
  5
210
100
AcDbEntity
  8
PANEL_ENCLOSURE
  6
DASHED
 62
  256
370
   -1
100
AcDbPolyline
 90
    5
 70
    0
 43
0
 10
1460
 20
240
 10
2335
 20
240
 10
2335
 20
740
 10
1460
 20
740
 10
1460
 20
240
  0
TEXT
  5
211
100
AcDbEntity
  8
TEXT_TITLE
  6
ByLayer
 62
  256
370
   -1
100
AcDbText
 10
1480
 20
715
 30
0
 40
10
  1
MCC Panel (MOTOR CONTROL CENTER) — POWER & DRIVES
 50
0
 41
1
 51
0
  7
STANDARD
 71
    0
210
0
220
0
230
1
100
AcDbText
  0
LWPOLYLINE
  5
212
100
AcDbEntity
  8
EQUIPMENT_FRAME
  6
ByLayer
 62
  256
370
   -1
100
AcDbPolyline
 90
    5
 70
    0
 43
0
 10
1480
 20
270
 10
1683.75
 20
270
 10
1683.75
 20
700
 10
1480
 20
700
 10
1480
 20
270
  0
TEXT
  5
213
100
AcDbEntity
  8
TEXT_EQUIPMENT
  6
ByLayer
 62
  256
370
   -1
100
AcDbText
 10
1581.875
 20
685
 30
0
 40
7
  1
CUBICLE 1
 50
0
 41
1
 51
0
  7
STANDARD
 71
    0
 72
    1
 11
1581.875
 21
685
 31
0
210
0
220
0
230
1
100
AcDbText
  0
LWPOLYLINE
  5
214
100
AcDbEntity
  8
EQUIPMENT_FRAME
  6
ByLayer
 62
  256
370
   -1
100
AcDbPolyline
 90
    5
 70
    0
 43
0
 10
1688.75
 20
270
 10
1892.5
 20
270
 10
1892.5
 20
700
 10
1688.75
 20
700
 10
1688.75
 20
270
  0
TEXT
  5
215
100
AcDbEntity
  8
TEXT_EQUIPMENT
  6
ByLayer
 62
  256
370
   -1
100
AcDbText
 10
1790.625
 20
685
 30
0
 40
7
  1
CUBICLE 2
 50
0
 41
1
 51
0
  7
STANDARD
 71
    0
 72
    1
 11
1790.625
 21
685
 31
0
210
0
220
0
230
1
100
AcDbText
  0
LWPOLYLINE
  5
216
100
AcDbEntity
  8
EQUIPMENT_FRAME
  6
ByLayer
 62
  256
370
   -1
100
AcDbPolyline
 90
    5
 70
    0
 43
0
 10
1897.5
 20
270
 10
2101.25
 20
270
 10
2101.25
 20
700
 10
1897.5
 20
700
 10
1897.5
 20
270
  0
TEXT
  5
217
100
AcDbEntity
  8
TEXT_EQUIPMENT
  6
ByLayer
 62
  256
370
   -1
100
AcDbText
 10
1999.375
 20
685
 30
0
 40
7
  1
CUBICLE 3
 50
0
 41
1
 51
0
  7
STANDARD
 71
    0
 72
    1
 11
1999.375
 21
685
 31
0
210
0
220
0
230
1
100
AcDbText
  0
LWPOLYLINE
  5
218
100
AcDbEntity
  8
EQUIPMENT_FRAME
  6
ByLayer
 62
  256
370
   -1
100
AcDbPolyline
 90
    5
 70
    0
 43
0
 10
2106.25
 20
270
 10
2310
 20
270
 10
2310
 20
700
 10
2106.25
 20
700
 10
2106.25
 20
270
  0
TEXT
  5
219
100
AcDbEntity
  8
TEXT_EQUIPMENT
  6
ByLayer
 62
  256
370
   -1
100
AcDbText
 10
2208.125
 20
685
 30
0
 40
7
  1
CUBICLE 4
 50
0
 41
1
 51
0
  7
STANDARD
 71
    0
 72
    1
 11
2208.125
 21
685
 31
0
210
0
220
0
230
1
100
AcDbText
  0
LWPOLYLINE
  5
21A
100
AcDbEntity
  8
EQUIPMENT_DETAIL
  6
ByLayer
 62
  256
370
   -1
100
AcDbPolyline
 90
    5
 70
    0
 43
0
 10
1490
 20
480
 10
1673.75
 20
480
 10
1673.75
 20
620
 10
1490
 20
620
 10
1490
 20
480
  0
TEXT
  5
21B
100
AcDbEntity
  8
TEXT_EQUIPMENT
  6
ByLayer
 62
  256
370
   -1
100
AcDbText
 10
1584.375
 20
590
 30
0
 40
8
  1
MAIN INCOMING ACB
 50
0
 41
1
 51
0
  7
STANDARD
 71
    0
 72
    1
 11
1584.375
 21
590
 31
0
210
0
220
0
230
1
100
AcDbText
  0
TEXT
  5
21C
100
AcDbEntity
  8
TEXT_EQUIPMENT
  6
ByLayer
 62
  256
370
   -1
100
AcDbText
 10
1584.375
 20
570
 30
0
 40
7
  1
1600A 400V 50Hz 50kA
 50
0
 41
1
 51
0
  7
STANDARD
 71
    0
 72
    1
 11
1584.375
 21
570
 31
0
210
0
220
0
230
1
100
AcDbText
  0
TEXT
  5
21D
100
AcDbEntity
  8
TEXT_IP_TAG
  6
ByLayer
 62
    4
370
   -1
100
AcDbText
 10
1584.375
 20
550
 30
0
 40
7
  1
Power Meter 1408-BC3A
 50
0
 41
1
 51
0
  7
STANDARD
 71
    0
 72
    1
 11
1584.375
 21
550
 31
0
210
0
220
0
230
1
100
AcDbText
  0
LINE
  5
21E
100
AcDbEntity
  8
EQUIPMENT_DETAIL
  6
ByLayer
 62
    2
370
   -1
100
AcDbLine
 10
1500
 20
450
 11
2295
 21
450
  0
TEXT
  5
21F
100
AcDbEntity
  8
TEXT_ANNOTATION
  6
ByLayer
 62
    2
370
   -1
100
AcDbText
 10
1710
 20
456
 30
0
 40
6
  1
400VAC MAIN BUSBAR (COPPER)
 50
0
 41
1
 51
0
  7
STANDARD
 71
    0
210
0
220
0
230
1
100
AcDbText
  0
LWPOLYLINE
  5
220
100
AcDbEntity
  8
EQUIPMENT_DETAIL
  6
ByLayer
 62
  256
370
   -1
100
AcDbPolyline
 90
    5
 70
    0
 43
0
 10
1698.75
 20
480
 10
1877.5
 20
480
 10
1877.5
 20
620
 10
1698.75
 20
620
 10
1698.75
 20
480
  0
TEXT
  5
221
100
AcDbEntity
  8
TEXT_EQUIPMENT
  6
ByLayer
 62
  256
370
   -1
100
AcDbText
 10
1793.125
 20
585
 30
0
 40
7
  1
PowerFlex 755 (110kW)
 50
0
 41
1
 51
0
  7
STANDARD
 71
    0
 72
    1
 11
1793.125
 21
585
 31
0
210
0
220
0
230
1
100
AcDbText
  0
TEXT
  5
222
100
AcDbEntity
  8
TEXT_SUBTITLE
  6
ByLayer
 62
  256
370
   -1
100
AcDbText
 10
1793.125
 20
565
 30
0
 40
6
  1
Main Supply Air Fan FN-60201
 50
0
 41
1
 51
0
  7
STANDARD
 71
    0
 72
    1
 11
1793.125
 21
565
 31
0
210
0
220
0
230
1
100
AcDbText
  0
TEXT
  5
223
100
AcDbEntity
  8
TEXT_IP_TAG
  6
ByLayer
 62
    4
370
   -1
100
AcDbText
 10
1793.125
 20
545
 30
0
 40
6
  1
IP: 192.168.60.21
 50
0
 41
1
 51
0
  7
STANDARD
 71
    0
 72
    1
 11
1793.125
 21
545
 31
0
210
0
220
0
230
1
100
AcDbText
  0
LWPOLYLINE
  5
224
100
AcDbEntity
  8
EQUIPMENT_DETAIL
  6
ByLayer
 62
  256
370
   -1
100
AcDbPolyline
 90
    5
 70
    0
 43
0
 10
1698.75
 20
300
 10
1877.5
 20
300
 10
1877.5
 20
430
 10
1698.75
 20
430
 10
1698.75
 20
300
  0
TEXT
  5
225
100
AcDbEntity
  8
TEXT_EQUIPMENT
  6
ByLayer
 62
  256
370
   -1
100
AcDbText
 10
1793.125
 20
400
 30
0
 40
7
  1
PowerFlex 755 (132kW)
 50
0
 41
1
 51
0
  7
STANDARD
 71
    0
 72
    1
 11
1793.125
 21
400
 31
0
210
0
220
0
230
1
100
AcDbText
  0
TEXT
  5
226
100
AcDbEntity
  8
TEXT_SUBTITLE
  6
ByLayer
 62
  256
370
   -1
100
AcDbText
 10
1793.125
 20
380
 30
0
 40
6
  1
Exhaust Air Fan FN-60202
 50
0
 41
1
 51
0
  7
STANDARD
 71
    0
 72
    1
 11
1793.125
 21
380
 31
0
210
0
220
0
230
1
100
AcDbText
  0
TEXT
  5
227
100
AcDbEntity
  8
TEXT_IP_TAG
  6
ByLayer
 62
    4
370
   -1
100
AcDbText
 10
1793.125
 20
360
 30
0
 40
6
  1
IP: 192.168.60.22
 50
0
 41
1
 51
0
  7
STANDARD
 71
    0
 72
    1
 11
1793.125
 21
360
 31
0
210
0
220
0
230
1
100
AcDbText
  0
LWPOLYLINE
  5
228
100
AcDbEntity
  8
EQUIPMENT_DETAIL
  6
ByLayer
 62
  256
370
   -1
100
AcDbPolyline
 90
    5
 70
    0
 43
0
 10
1907.5
 20
480
 10
2086.25
 20
480
 10
2086.25
 20
620
 10
1907.5
 20
620
 10
1907.5
 20
480
  0
TEXT
  5
229
100
AcDbEntity
  8
TEXT_EQUIPMENT
  6
ByLayer
 62
  256
370
   -1
100
AcDbText
 10
2001.875
 20
585
 30
0
 40
7
  1
PowerFlex 525 (18.5kW)
 50
0
 41
1
 51
0
  7
STANDARD
 71
    0
 72
    1
 11
2001.875
 21
585
 31
0
210
0
220
0
230
1
100
AcDbText
  0
TEXT
  5
22A
100
AcDbEntity
  8
TEXT_SUBTITLE
  6
ByLayer
 62
  256
370
   -1
100
AcDbText
 10
2001.875
 20
565
 30
0
 40
6
  1
Slurry Transfer Pump PC-20201
 50
0
 41
1
 51
0
  7
STANDARD
 71
    0
 72
    1
 11
2001.875
 21
565
 31
0
210
0
220
0
230
1
100
AcDbText
  0
TEXT
  5
22B
100
AcDbEntity
  8
TEXT_IP_TAG
  6
ByLayer
 62
    4
370
   -1
100
AcDbText
 10
2001.875
 20
545
 30
0
 40
6
  1
IP: 192.168.40.21
 50
0
 41
1
 51
0
  7
STANDARD
 71
    0
 72
    1
 11
2001.875
 21
545
 31
0
210
0
220
0
230
1
100
AcDbText
  0
LWPOLYLINE
  5
22C
100
AcDbEntity
  8
EQUIPMENT_DETAIL
  6
ByLayer
 62
  256
370
   -1
100
AcDbPolyline
 90
    5
 70
    0
 43
0
 10
1907.5
 20
300
 10
2086.25
 20
300
 10
2086.25
 20
430
 10
1907.5
 20
430
 10
1907.5
 20
300
  0
TEXT
  5
22D
100
AcDbEntity
  8
TEXT_EQUIPMENT
  6
ByLayer
 62
  256
370
   -1
100
AcDbText
 10
2001.875
 20
400
 30
0
 40
7
  1
PowerFlex 525 (18.5kW)
 50
0
 41
1
 51
0
  7
STANDARD
 71
    0
 72
    1
 11
2001.875
 21
400
 31
0
210
0
220
0
230
1
100
AcDbText
  0
TEXT
  5
22E
100
AcDbEntity
  8
TEXT_SUBTITLE
  6
ByLayer
 62
  256
370
   -1
100
AcDbText
 10
2001.875
 20
380
 30
0
 40
6
  1
Slurry Transfer Pump PC-20211
 50
0
 41
1
 51
0
  7
STANDARD
 71
    0
 72
    1
 11
2001.875
 21
380
 31
0
210
0
220
0
230
1
100
AcDbText
  0
TEXT
  5
22F
100
AcDbEntity
  8
TEXT_IP_TAG
  6
ByLayer
 62
    4
370
   -1
100
AcDbText
 10
2001.875
 20
360
 30
0
 40
6
  1
IP: 192.168.40.22
 50
0
 41
1
 51
0
  7
STANDARD
 71
    0
 72
    1
 11
2001.875
 21
360
 31
0
210
0
220
0
230
1
100
AcDbText
  0
LWPOLYLINE
  5
230
100
AcDbEntity
  8
EQUIPMENT_DETAIL
  6
ByLayer
 62
  256
370
   -1
100
AcDbPolyline
 90
    5
 70
    0
 43
0
 10
2116.25
 20
480
 10
2295
 20
480
 10
2295
 20
620
 10
2116.25
 20
620
 10
2116.25
 20
480
  0
TEXT
  5
231
100
AcDbEntity
  8
TEXT_EQUIPMENT
  6
ByLayer
 62
  256
370
   -1
100
AcDbText
 10
2210.625
 20
585
 30
0
 40
7
  1
Agitator Starters
 50
0
 41
1
 51
0
  7
STANDARD
 71
    0
 72
    1
 11
2210.625
 21
585
 31
0
210
0
220
0
230
1
100
AcDbText
  0
TEXT
  5
232
100
AcDbEntity
  8
TEXT_SUBTITLE
  6
ByLayer
 62
  256
370
   -1
100
AcDbText
 10
2210.625
 20
565
 30
0
 40
6
  1
ME-20201 / ME-20211
 50
0
 41
1
 51
0
  7
STANDARD
 71
    0
 72
    1
 11
2210.625
 21
565
 31
0
210
0
220
0
230
1
100
AcDbText
  0
TEXT
  5
233
100
AcDbEntity
  8
TEXT_ANNOTATION
  6
ByLayer
 62
    2
370
   -1
100
AcDbText
 10
2210.625
 20
400
 30
0
 40
8
  1
1st SPD Plant Feeder
 50
0
 41
1
 51
0
  7
STANDARD
 71
    0
 72
    1
 11
2210.625
 21
400
 31
0
210
0
220
0
230
1
100
AcDbText
  0
TEXT
  5
234
100
AcDbEntity
  8
TEXT_ANNOTATION
  6
ByLayer
 62
    2
370
   -1
100
AcDbText
 10
2210.625
 20
380
 30
0
 40
8
  1
4th Floor Distribution
 50
0
 41
1
 51
0
  7
STANDARD
 71
    0
 72
    1
 11
2210.625
 21
380
 31
0
210
0
220
0
230
1
100
AcDbText
  0
TEXT
  5
235
100
AcDbEntity
  8
TEXT_ANNOTATION
  6
ByLayer
 62
    2
370
   -1
100
AcDbText
 10
2210.625
 20
360
 30
0
 40
8
  1
Boiler Support Power
 50
0
 41
1
 51
0
  7
STANDARD
 71
    0
 72
    1
 11
2210.625
 21
360
 31
0
210
0
220
0
230
1
100
AcDbText
  0
LWPOLYLINE
  5
236
100
AcDbEntity
  8
CBL_CONTROL_LAN
  6
ByLayer
 62
    1
370
   -1
100
AcDbPolyline
 90
    2
 70
    0
 43
0
 10
275
 20
1470
 10
550
 20
1470
  0
TEXT
  5
237
100
AcDbEntity
  8
TEXT_ANNOTATION
  6
ByLayer
 62
    2
370
   -1
100
AcDbText
 10
412.5
 20
1482
 30
0
 40
7
  1
Fiber optic (Control LAN)
 50
0
 41
1
 51
0
  7
STANDARD
 71
    0
 72
    1
 11
412.5
 21
1482
 31
0
210
0
220
0
230
1
100
AcDbText
  0
LWPOLYLINE
  5
238
100
AcDbEntity
  8
CBL_CONTROL_LAN
  6
ByLayer
 62
    1
370
   -1
100
AcDbPolyline
 90
    3
 70
    0
 43
0
 10
740
 20
1430
 10
860
 20
1430
 10
860
 20
1250
  0
LWPOLYLINE
  5
239
100
AcDbEntity
  8
CBL_CONTROL_LAN
  6
ByLayer
 62
    1
370
   -1
100
AcDbPolyline
 90
    3
 70
    0
 43
0
 10
740
 20
1430
 10
1070
 20
1430
 10
1070
 20
1250
  0
LWPOLYLINE
  5
23A
100
AcDbEntity
  8
CBL_CONTROL_LAN
  6
ByLayer
 62
    1
370
   -1
100
AcDbPolyline
 90
    3
 70
    0
 43
0
 10
740
 20
1430
 10
1280
 20
1430
 10
1280
 20
1250
  0
LWPOLYLINE
  5
23B
100
AcDbEntity
  8
CBL_CONTROL_LAN
  6
ByLayer
 62
    1
370
   -1
100
AcDbPolyline
 90
    3
 70
    0
 43
0
 10
740
 20
1430
 10
1020
 20
1430
 10
1020
 20
1320
  0
LWPOLYLINE
  5
23C
100
AcDbEntity
  8
CBL_CONTROL_LAN
  6
ByLayer
 62
    1
370
   -1
100
AcDbPolyline
 90
    3
 70
    0
 43
0
 10
740
 20
1430
 10
1280
 20
1430
 10
1280
 20
1320
  0
LWPOLYLINE
  5
23D
100
AcDbEntity
  8
CBL_CONTROL_LAN
  6
ByLayer
 62
    1
370
   -1
100
AcDbPolyline
 90
    3
 70
    0
 43
0
 10
740
 20
1430
 10
1545
 20
1430
 10
1545
 20
1235
  0
LWPOLYLINE
  5
23E
100
AcDbEntity
  8
CBL_CONTROL_LAN
  6
ByLayer
 62
    1
370
   -1
100
AcDbPolyline
 90
    4
 70
    0
 43
0
 10
740
 20
1410
 10
1830
 20
1410
 10
1830
 20
1310
 10
1950
 20
1310
  0
LWPOLYLINE
  5
23F
100
AcDbEntity
  8
CBL_CONTROL_LAN
  6
ByLayer
 62
    1
370
   -1
100
AcDbPolyline
 90
    3
 70
    0
 43
0
 10
650
 20
1110
 10
650
 20
1005
 10
1700
 20
1005
  0
TEXT
  5
240
100
AcDbEntity
  8
TEXT_ANNOTATION
  6
ByLayer
 62
    2
370
   -1
100
AcDbText
 10
720
 20
1017
 30
0
 40
7
  1
Ethernet (10.81.x.x)
 50
0
 41
1
 51
0
  7
STANDARD
 71
    0
210
0
220
0
230
1
100
AcDbText
  0
LINE
  5
241
100
AcDbEntity
  8
CBL_CONTROL_LAN
  6
ByLayer
 62
    1
370
   -1
100
AcDbLine
 10
815
 20
1005
 11
815
 21
950
  0
LINE
  5
242
100
AcDbEntity
  8
CBL_CONTROL_LAN
  6
ByLayer
 62
    1
370
   -1
100
AcDbLine
 10
1040
 20
1005
 11
1040
 21
950
  0
LINE
  5
243
100
AcDbEntity
  8
CBL_CONTROL_LAN
  6
ByLayer
 62
    1
370
   -1
100
AcDbLine
 10
1260
 20
1005
 11
1260
 21
950
  0
LINE
  5
244
100
AcDbEntity
  8
CBL_CONTROL_LAN
  6
ByLayer
 62
    1
370
   -1
100
AcDbLine
 10
1480
 20
1005
 11
1480
 21
950
  0
LINE
  5
245
100
AcDbEntity
  8
CBL_CONTROL_LAN
  6
ByLayer
 62
    1
370
   -1
100
AcDbLine
 10
1700
 20
1005
 11
1700
 21
950
  0
TEXT
  5
246
100
AcDbEntity
  8
TEXT_ANNOTATION
  6
ByLayer
 62
    6
370
   -1
100
AcDbText
 10
1550
 20
1017
 30
0
 40
7
  1
Fiber optic (Remote Skids)
 50
0
 41
1
 51
0
  7
STANDARD
 71
    0
210
0
220
0
230
1
100
AcDbText
  0
LWPOLYLINE
  5
247
100
AcDbEntity
  8
CBL_CONTROL_LAN
  6
ByLayer
 62
    1
370
   -1
100
AcDbPolyline
 90
    4
 70
    0
 43
0
 10
610
 20
1110
 10
610
 20
855
 10
265
 20
855
 10
265
 20
820
  0
TEXT
  5
248
100
AcDbEntity
  8
TEXT_ANNOTATION
  6
ByLayer
 62
    1
370
   -1
100
AcDbText
 10
540
 20
800
 30
0
 40
7
  1
CBL-UPL-01 (To SCADA)
 50
0
 41
1
 51
0
  7
STANDARD
 71
    0
210
0
220
0
230
1
100
AcDbText
  0
LWPOLYLINE
  5
249
100
AcDbEntity
  8
CBL_IO_NETWORK
  6
ByLayer
 62
    3
370
   -1
100
AcDbPolyline
 90
    4
 70
    0
 43
0
 10
185
 20
690
 10
70
 20
690
 10
70
 20
650
 10
185
 20
650
  0
TEXT
  5
24A
100
AcDbEntity
  8
TEXT_TAG
  6
ByLayer
 62
    3
370
   -1
100
AcDbText
 10
45
 20
670
 30
0
 40
6
  1
CBL-DLR-01
 50
0
 41
1
 51
0
  7
STANDARD
 71
    0
210
0
220
0
230
1
100
AcDbText
  0
LWPOLYLINE
  5
24B
100
AcDbEntity
  8
CBL_IO_NETWORK
  6
ByLayer
 62
    3
370
   -1
100
AcDbPolyline
 90
    4
 70
    0
 43
0
 10
185
 20
520
 10
70
 20
520
 10
70
 20
480
 10
185
 20
480
  0
TEXT
  5
24C
100
AcDbEntity
  8
TEXT_TAG
  6
ByLayer
 62
    3
370
   -1
100
AcDbText
 10
45
 20
500
 30
0
 40
6
  1
CBL-DLR-02
 50
0
 41
1
 51
0
  7
STANDARD
 71
    0
210
0
220
0
230
1
100
AcDbText
  0
LWPOLYLINE
  5
24D
100
AcDbEntity
  8
CBL_IO_NETWORK
  6
ByLayer
 62
    3
370
   -1
100
AcDbPolyline
 90
    4
 70
    0
 43
0
 10
185
 20
350
 10
70
 20
350
 10
70
 20
310
 10
185
 20
310
  0
TEXT
  5
24E
100
AcDbEntity
  8
TEXT_TAG
  6
ByLayer
 62
    3
370
   -1
100
AcDbText
 10
45
 20
330
 30
0
 40
6
  1
CBL-DLR-03
 50
0
 41
1
 51
0
  7
STANDARD
 71
    0
210
0
220
0
230
1
100
AcDbText
  0
LWPOLYLINE
  5
24F
100
AcDbEntity
  8
CBL_IO_NETWORK
  6
ByLayer
 62
    3
370
   -1
100
AcDbPolyline
 90
    5
 70
    0
 43
0
 10
185
 20
180
 10
60
 20
180
 10
60
 20
865
 10
405
 20
865
 10
405
 20
890
  0
TEXT
  5
250
100
AcDbEntity
  8
TEXT_TAG
  6
ByLayer
 62
    3
370
   -1
100
AcDbText
 10
35
 20
300
 30
0
 40
6
  1
CBL-DLR-04
 50
0
 41
1
 51
0
  7
STANDARD
 71
    0
210
0
220
0
230
1
100
AcDbText
  0
LWPOLYLINE
  5
251
100
AcDbEntity
  8
CBL_FIBER_OPTIC
  6
DASHED
 62
    6
370
   -1
100
AcDbPolyline
 90
    7
 70
    0
 43
0
 10
515
 20
915
 10
555
 20
915
 10
555
 20
810
 10
940
 20
810
 10
940
 20
655
 10
980
 20
655
 10
980
 20
630
  0
TEXT
  5
252
100
AcDbEntity
  8
TEXT_ANNOTATION
  6
ByLayer
 62
    6
370
   -1
100
AcDbText
 10
650
 20
820
 30
0
 40
7
  1
Fiber optic (FOB-RIO-01 Outbound)
 50
0
 41
1
 51
0
  7
STANDARD
 71
    0
210
0
220
0
230
1
100
AcDbText
  0
LWPOLYLINE
  5
253
100
AcDbEntity
  8
CBL_IO_NETWORK
  6
ByLayer
 62
    3
370
   -1
100
AcDbPolyline
 90
    3
 70
    0
 43
0
 10
1020
 20
630
 10
1020
 20
590
 10
965
 20
590
  0
TEXT
  5
254
100
AcDbEntity
  8
TEXT_TAG
  6
ByLayer
 62
    3
370
   -1
100
AcDbText
 10
1028
 20
605
 30
0
 40
6
  1
CBL-DLR-05
 50
0
 41
1
 51
0
  7
STANDARD
 71
    0
210
0
220
0
230
1
100
AcDbText
  0
LWPOLYLINE
  5
255
100
AcDbEntity
  8
CBL_IO_NETWORK
  6
ByLayer
 62
    3
370
   -1
100
AcDbPolyline
 90
    6
 70
    0
 43
0
 10
995
 20
450
 10
995
 20
420
 10
1130
 20
420
 10
1130
 20
655
 10
1040
 20
655
 10
1040
 20
630
  0
TEXT
  5
256
100
AcDbEntity
  8
TEXT_TAG
  6
ByLayer
 62
    3
370
   -1
100
AcDbText
 10
1020
 20
428
 30
0
 40
6
  1
CBL-DLR-06
 50
0
 41
1
 51
0
  7
STANDARD
 71
    0
210
0
220
0
230
1
100
AcDbText
  0
LWPOLYLINE
  5
257
100
AcDbEntity
  8
CBL_FIBER_OPTIC
  6
DASHED
 62
    6
370
   -1
100
AcDbPolyline
 90
    5
 70
    0
 43
0
 10
1000
 20
630
 10
1000
 20
320
 10
775
 20
320
 10
775
 20
900
 10
475
 20
900
  0
TEXT
  5
258
100
AcDbEntity
  8
TEXT_ANNOTATION
  6
ByLayer
 62
    6
370
   -1
100
AcDbText
 10
680
 20
328
 30
0
 40
7
  1
Fiber optic (FOB-RIO-02 Return)
 50
0
 41
1
 51
0
  7
STANDARD
 71
    0
210
0
220
0
230
1
100
AcDbText
  0
LWPOLYLINE
  5
259
100
AcDbEntity
  8
CBL_IO_NETWORK
  6
ByLayer
 62
    3
370
   -1
100
AcDbPolyline
 90
    4
 70
    0
 43
0
 10
375
 20
890
 10
375
 20
835
 10
215
 20
835
 10
215
 20
820
  0
TEXT
  5
25A
100
AcDbEntity
  8
TEXT_TAG
  6
ByLayer
 62
    3
370
   -1
100
AcDbText
 10
230
 20
842
 30
0
 40
6
  1
CBL-DLR-07 (Ring Close to P2 Beacon)
 50
0
 41
1
 51
0
  7
STANDARD
 71
    0
210
0
220
0
230
1
100
AcDbText
  0
LWPOLYLINE
  5
25B
100
AcDbEntity
  8
CBL_MCC_NETWORK
  6
ByLayer
 62
    5
370
   -1
100
AcDbPolyline
 90
    5
 70
    0
 43
0
 10
835
 20
520
 10
865
 20
520
 10
865
 20
170
 10
1490
 20
170
 10
1490
 20
360
  0
TEXT
  5
25C
100
AcDbEntity
  8
TEXT_TAG
  6
ByLayer
 62
    5
370
   -1
100
AcDbText
 10
1050
 20
178
 30
0
 40
7
  1
ETHERNET FOR MCC NETWORK (Blue)
 50
0
 41
1
 51
0
  7
STANDARD
 71
    0
210
0
220
0
230
1
100
AcDbText
  0
ENDSEC
  0
SECTION
  2
OBJECTS
  0
DICTIONARY
  5
C
330
0
100
AcDbDictionary
281
    1
  3
ACAD_GROUP
350
D
  0
DICTIONARY
  5
D
330
C
100
AcDbDictionary
281
    1
  0
PLOTSETTINGS
  5
25D
100
AcDbPlotSettings
  6
1x1
 40
0
 41
0
 42
0
 43
0
  0
ENDSEC
  0
EOF
