  0
SECTION
  2
HEADER
  9
$ACADVER
  1
AC1024
  9
$ACADMAINTVER
 70
6
  9
$DWGCODEPAGE
  3
ANSI_1252
  9
$LASTSAVEDBY
  1
ezdxf
  9
$INSBASE
 10
0.0
 20
0.0
 30
0.0
  9
$EXTMIN
 10
1e+20
 20
1e+20
 30
1e+20
  9
$EXTMAX
 10
-1e+20
 20
-1e+20
 30
-1e+20
  9
$LIMMIN
 10
0.0
 20
0.0
  9
$LIMMAX
 10
420.0
 20
297.0
  9
$ORTHOMODE
 70
0
  9
$REGENMODE
 70
1
  9
$FILLMODE
 70
1
  9
$QTEXTMODE
 70
0
  9
$MIRRTEXT
 70
1
  9
$LTSCALE
 40
1.0
  9
$ATTMODE
 70
1
  9
$TEXTSIZE
 40
2.5
  9
$TRACEWID
 40
1.0
  9
$TEXTSTYLE
  7
OpenSans
  9
$CLAYER
  8
0
  9
$CELTYPE
  6
ByLayer
  9
$CECOLOR
 62
256
  9
$CELTSCALE
 40
1.0
  9
$DISPSILH
 70
0
  9
$DIMSCALE
 40
1.0
  9
$DIMASZ
 40
0.175
  9
$DIMEXO
 40
0.125
  9
$DIMDLI
 40
3.75
  9
$DIMRND
 40
0.0
  9
$DIMDLE
 40
0.0
  9
$DIMEXE
 40
0.375
  9
$DIMTP
 40
0.0
  9
$DIMTM
 40
0.0
  9
$DIMTXT
 40
0.25
  9
$DIMCEN
 40
2.5
  9
$DIMTSZ
 40
0.0
  9
$DIMTOL
 70
0
  9
$DIMLIM
 70
0
  9
$DIMTIH
 70
0
  9
$DIMTOH
 70
0
  9
$DIMSE1
 70
0
  9
$DIMSE2
 70
0
  9
$DIMTAD
 70
1
  9
$DIMZIN
 70
12
  9
$DIMBLK
  1
ARCHTICK
  9
$DIMASO
 70
1
  9
$DIMSHO
 70
1
  9
$DIMPOST
  1

  9
$DIMAPOST
  1

  9
$DIMALT
 70
0
  9
$DIMALTD
 70
3
  9
$DIMALTF
 40
0.03937007874
  9
$DIMLFAC
 40
100.0
  9
$DIMTOFL
 70
1
  9
$DIMTVP
 40
0.0
  9
$DIMTIX
 70
0
  9
$DIMSOXD
 70
0
  9
$DIMSAH
 70
0
  9
$DIMBLK1
  1

  9
$DIMBLK2
  1

  9
$DIMSTYLE
  2
EZDXF
  9
$DIMCLRD
 70
0
  9
$DIMCLRE
 70
0
  9
$DIMCLRT
 70
0
  9
$DIMTFAC
 40
0.5
  9
$DIMGAP
 40
0.1
  9
$DIMJUST
 70
0
  9
$DIMSD1
 70
0
  9
$DIMSD2
 70
0
  9
$DIMTOLJ
 70
0
  9
$DIMTZIN
 70
8
  9
$DIMALTZ
 70
0
  9
$DIMALTTZ
 70
0
  9
$DIMUPT
 70
1
  9
$DIMDEC
 70
2
  9
$DIMTDEC
 70
2
  9
$DIMALTU
 70
2
  9
$DIMALTTD
 70
3
  9
$DIMTXSTY
  7
OpenSansCondensed-Light
  9
$DIMAUNIT
 70
0
  9
$DIMADEC
 70
2
  9
$DIMALTRND
 40
0.0
  9
$DIMAZIN
 70
3
  9
$DIMDSEP
 70
46
  9
$DIMATFIT
 70
3
  9
$DIMFRAC
 70
0
  9
$DIMLDRBLK
  1

  9
$DIMLUNIT
 70
2
  9
$DIMLWD
 70
-2
  9
$DIMLWE
 70
-2
  9
$DIMTMOVE
 70
2
  9
$DIMFXL
 40
1.0
  9
$DIMFXLON
 70
0
  9
$DIMJOGANG
 40
0.785398163397
  9
$DIMTFILL
 70
0
  9
$DIMTFILLCLR
 70
0
  9
$DIMARCSYM
 70
0
  9
$DIMLTYPE
  6

  9
$DIMLTEX1
  6

  9
$DIMLTEX2
  6

  9
$DIMTXTDIRECTION
 70
0
  9
$LUNITS
 70
2
  9
$LUPREC
 70
4
  9
$SKETCHINC
 40
1.0
  9
$FILLETRAD
 40
10.0
  9
$AUNITS
 70
0
  9
$AUPREC
 70
2
  9
$MENU
  1
.
  9
$ELEVATION
 40
0.0
  9
$PELEVATION
 40
0.0
  9
$THICKNESS
 40
0.0
  9
$LIMCHECK
 70
0
  9
$CHAMFERA
 40
0.0
  9
$CHAMFERB
 40
0.0
  9
$CHAMFERC
 40
0.0
  9
$CHAMFERD
 40
0.0
  9
$SKPOLY
 70
0
  9
$TDCREATE
 40
2461300.4605092593
  9
$TDUCREATE
 40
2458532.153996898
  9
$TDUPDATE
 40
2461300.4605092593
  9
$TDUUPDATE
 40
2458532.1544311
  9
$TDINDWG
 40
0.0
  9
$TDUSRTIMER
 40
0.0
  9
$USRTIMER
 70
1
  9
$ANGBASE
 50
0.0
  9
$ANGDIR
 70
0
  9
$PDMODE
 70
0
  9
$PDSIZE
 40
0.0
  9
$PLINEWID
 40
0.0
  9
$SPLFRAME
 70
0
  9
$SPLINETYPE
 70
6
  9
$SPLINESEGS
 70
8
  9
$HANDSEED
  5
28E
  9
$SURFTAB1
 70
6
  9
$SURFTAB2
 70
6
  9
$SURFTYPE
 70
6
  9
$SURFU
 70
6
  9
$SURFV
 70
6
  9
$UCSBASE
  2

  9
$UCSNAME
  2

  9
$UCSORG
 10
0.0
 20
0.0
 30
0.0
  9
$UCSXDIR
 10
1.0
 20
0.0
 30
0.0
  9
$UCSYDIR
 10
0.0
 20
1.0
 30
0.0
  9
$UCSORTHOREF
  2

  9
$UCSORTHOVIEW
 70
0
  9
$UCSORGTOP
 10
0.0
 20
0.0
 30
0.0
  9
$UCSORGBOTTOM
 10
0.0
 20
0.0
 30
0.0
  9
$UCSORGLEFT
 10
0.0
 20
0.0
 30
0.0
  9
$UCSORGRIGHT
 10
0.0
 20
0.0
 30
0.0
  9
$UCSORGFRONT
 10
0.0
 20
0.0
 30
0.0
  9
$UCSORGBACK
 10
0.0
 20
0.0
 30
0.0
  9
$PUCSBASE
  2

  9
$PUCSNAME
  2

  9
$PUCSORG
 10
0.0
 20
0.0
 30
0.0
  9
$PUCSXDIR
 10
1.0
 20
0.0
 30
0.0
  9
$PUCSYDIR
 10
0.0
 20
1.0
 30
0.0
  9
$PUCSORTHOREF
  2

  9
$PUCSORTHOVIEW
 70
0
  9
$PUCSORGTOP
 10
0.0
 20
0.0
 30
0.0
  9
$PUCSORGBOTTOM
 10
0.0
 20
0.0
 30
0.0
  9
$PUCSORGLEFT
 10
0.0
 20
0.0
 30
0.0
  9
$PUCSORGRIGHT
 10
0.0
 20
0.0
 30
0.0
  9
$PUCSORGFRONT
 10
0.0
 20
0.0
 30
0.0
  9
$PUCSORGBACK
 10
0.0
 20
0.0
 30
0.0
  9
$USERI1
 70
0
  9
$USERI2
 70
0
  9
$USERI3
 70
0
  9
$USERI4
 70
0
  9
$USERI5
 70
0
  9
$USERR1
 40
0.0
  9
$USERR2
 40
0.0
  9
$USERR3
 40
0.0
  9
$USERR4
 40
0.0
  9
$USERR5
 40
0.0
  9
$WORLDVIEW
 70
1
  9
$SHADEDGE
 70
3
  9
$SHADEDIF
 70
70
  9
$TILEMODE
 70
1
  9
$MAXACTVP
 70
64
  9
$PINSBASE
 10
0.0
 20
0.0
 30
0.0
  9
$PLIMCHECK
 70
0
  9
$PEXTMIN
 10
1e+20
 20
1e+20
 30
1e+20
  9
$PEXTMAX
 10
-1e+20
 20
-1e+20
 30
-1e+20
  9
$PLIMMIN
 10
0.0
 20
0.0
  9
$PLIMMAX
 10
420.0
 20
297.0
  9
$UNITMODE
 70
0
  9
$VISRETAIN
 70
1
  9
$PLINEGEN
 70
0
  9
$PSLTSCALE
 70
1
  9
$TREEDEPTH
 70
3020
  9
$CMLSTYLE
  2
Standard
  9
$CMLJUST
 70
0
  9
$CMLSCALE
 40
20.0
  9
$PROXYGRAPHICS
 70
1
  9
$MEASUREMENT
 70
1
  9
$CELWEIGHT
370
-1
  9
$ENDCAPS
280
0
  9
$JOINSTYLE
280
0
  9
$LWDISPLAY
290
0
  9
$INSUNITS
 70
6
  9
$HYPERLINKBASE
  1

  9
$STYLESHEET
  1

  9
$XEDIT
290
1
  9
$CEPSNTYPE
380
0
  9
$PSTYLEMODE
290
1
  9
$FINGERPRINTGUID
  2
{AFC0F111-8235-4667-B9F5-73DD2B9E6EB0}
  9
$VERSIONGUID
  2
{1F51DCFD-656E-47A3-AA4E-61382170063E}
  9
$EXTNAMES
290
1
  9
$PSVPSCALE
 40
0.0
  9
$OLESTARTUP
290
0
  9
$SORTENTS
280
127
  9
$INDEXCTL
280
0
  9
$HIDETEXT
280
1
  9
$XCLIPFRAME
280
1
  9
$HALOGAP
280
0
  9
$OBSCOLOR
 70
257
  9
$OBSLTYPE
280
0
  9
$INTERSECTIONDISPLAY
280
0
  9
$INTERSECTIONCOLOR
 70
257
  9
$DIMASSOC
280
2
  9
$PROJECTNAME
  1

  9
$CAMERADISPLAY
290
0
  9
$LENSLENGTH
 40
50.0
  9
$CAMERAHEIGHT
 40
0.0
  9
$STEPSPERSEC
 40
24.0
  9
$STEPSIZE
 40
100.0
  9
$3DDWFPREC
 40
2.0
  9
$PSOLWIDTH
 40
0.005
  9
$PSOLHEIGHT
 40
0.08
  9
$LOFTANG1
 40
1.570796326795
  9
$LOFTANG2
 40
1.570796326795
  9
$LOFTMAG1
 40
0.0
  9
$LOFTMAG2
 40
0.0
  9
$LOFTPARAM
 70
7
  9
$LOFTNORMALS
280
1
  9
$LATITUDE
 40
37.795
  9
$LONGITUDE
 40
-122.394
  9
$NORTHDIRECTION
 40
0.0
  9
$TIMEZONE
 70
-8000
  9
$LIGHTGLYPHDISPLAY
280
1
  9
$TILEMODELIGHTSYNCH
280
1
  9
$CMATERIAL
347
20
  9
$SOLIDHIST
280
0
  9
$SHOWHIST
280
1
  9
$DWFFRAME
280
2
  9
$DGNFRAME
280
2
  9
$REALWORLDSCALE
290
1
  9
$INTERFERECOLOR
 62
256
  9
$CSHADOW
280
0
  9
$SHADOWPLANELOCATION
 40
0.0
  0
ENDSEC
  0
SECTION
  2
CLASSES
  0
CLASS
  1
ACDBDICTIONARYWDFLT
  2
AcDbDictionaryWithDefault
  3
ObjectDBX Classes
 90
0
 91
0
280
0
281
0
  0
CLASS
  1
SUN
  2
AcDbSun
  3
SCENEOE
 90
1153
 91
0
280
0
281
0
  0
CLASS
  1
VISUALSTYLE
  2
AcDbVisualStyle
  3
ObjectDBX Classes
 90
4095
 91
0
280
0
281
0
  0
CLASS
  1
MATERIAL
  2
AcDbMaterial
  3
ObjectDBX Classes
 90
1153
 91
0
280
0
281
0
  0
CLASS
  1
SCALE
  2
AcDbScale
  3
ObjectDBX Classes
 90
1153
 91
0
280
0
281
0
  0
CLASS
  1
TABLESTYLE
  2
AcDbTableStyle
  3
ObjectDBX Classes
 90
4095
 91
0
280
0
281
0
  0
CLASS
  1
MLEADERSTYLE
  2
AcDbMLeaderStyle
  3
ACDB_MLEADERSTYLE_CLASS
 90
4095
 91
0
280
0
281
0
  0
CLASS
  1
DICTIONARYVAR
  2
AcDbDictionaryVar
  3
ObjectDBX Classes
 90
0
 91
0
280
0
281
0
  0
CLASS
  1
CELLSTYLEMAP
  2
AcDbCellStyleMap
  3
ObjectDBX Classes
 90
1152
 91
0
280
0
281
0
  0
CLASS
  1
MENTALRAYRENDERSETTINGS
  2
AcDbMentalRayRenderSettings
  3
SCENEOE
 90
1024
 91
0
280
0
281
0
  0
CLASS
  1
ACDBDETAILVIEWSTYLE
  2
AcDbDetailViewStyle
  3
ObjectDBX Classes
 90
1025
 91
0
280
0
281
0
  0
CLASS
  1
ACDBSECTIONVIEWSTYLE
  2
AcDbSectionViewStyle
  3
ObjectDBX Classes
 90
1025
 91
0
280
0
281
0
  0
CLASS
  1
RASTERVARIABLES
  2
AcDbRasterVariables
  3
ISM
 90
0
 91
0
280
0
281
0
  0
CLASS
  1
LAYOUT
  2
AcDbLayout
  3
ObjectDBX Classes
 90
0
 91
0
280
0
281
0
  0
CLASS
  1
ACDBPLACEHOLDER
  2
AcDbPlaceHolder
  3
ObjectDBX Classes
 90
0
 91
0
280
0
281
0
  0
ENDSEC
  0
SECTION
  2
TABLES
  0
TABLE
  2
VPORT
  5
8
330
0
100
AcDbSymbolTable
 70
1
  0
VPORT
  5
23
330
8
100
AcDbSymbolTableRecord
100
AcDbViewportTableRecord
  2
*Active
 70
0
 10
0.0
 20
0.0
 11
1.0
 21
1.0
 12
0.0
 22
0.0
 13
0.0
 23
0.0
 14
0.5
 24
0.5
 15
0.5
 25
0.5
 16
0.0
 26
0.0
 36
1.0
 17
0.0
 27
0.0
 37
0.0
 40
1000.0
 41
1.34
 42
50.0
 43
0.0
 44
0.0
 50
0.0
 51
0.0
 71
0
 72
1000
 73
1
 74
3
 75
0
 76
0
 77
0
 78
0
281
0
 65
0
146
0.0
  0
ENDTAB
  0
TABLE
  2
LTYPE
  5
2
330
0
100
AcDbSymbolTable
 70
21
  0
LTYPE
  5
24
330
2
100
AcDbSymbolTableRecord
100
AcDbLinetypeTableRecord
  2
ByBlock
 70
0
  3

 72
65
 73
0
 40
0.0
  0
LTYPE
  5
25
330
2
100
AcDbSymbolTableRecord
100
AcDbLinetypeTableRecord
  2
ByLayer
 70
0
  3

 72
65
 73
0
 40
0.0
  0
LTYPE
  5
26
330
2
100
AcDbSymbolTableRecord
100
AcDbLinetypeTableRecord
  2
Continuous
 70
0
  3

 72
65
 73
0
 40
0.0
  0
LTYPE
  5
2F
330
2
100
AcDbSymbolTableRecord
100
AcDbLinetypeTableRecord
  2
CENTER
 70
0
  3
Center ____ _ ____ _ ____ _ ____ _ ____ _ ____
 72
65
 73
4
 40
5.08
 49
3.175
 74
0
 49
-0.635
 74
0
 49
0.635
 74
0
 49
-0.635
 74
0
  0
LTYPE
  5
30
330
2
100
AcDbSymbolTableRecord
100
AcDbLinetypeTableRecord
  2
CENTERX2
 70
0
  3
Center (2x) ________  __  ________  __  ________
 72
65
 73
4
 40
8.89
 49
6.35
 74
0
 49
-0.635
 74
0
 49
1.27
 74
0
 49
-0.635
 74
0
  0
LTYPE
  5
31
330
2
100
AcDbSymbolTableRecord
100
AcDbLinetypeTableRecord
  2
CENTER2
 70
0
  3
Center (.5x) ____ _ ____ _ ____ _ ____ _ ____
 72
65
 73
4
 40
2.54
 49
1.587
 74
0
 49
-0.318
 74
0
 49
0.318
 74
0
 49
-0.318
 74
0
  0
LTYPE
  5
32
330
2
100
AcDbSymbolTableRecord
100
AcDbLinetypeTableRecord
  2
DASHED
 70
0
  3
Dashed __ __ __ __ __ __ __ __ __ __ __ __ __ _
 72
65
 73
2
 40
1.524
 49
1.27
 74
0
 49
-0.254
 74
0
  0
LTYPE
  5
33
330
2
100
AcDbSymbolTableRecord
100
AcDbLinetypeTableRecord
  2
DASHEDX2
 70
0
  3
Dashed (2x) ____  ____  ____  ____  ____  ____
 72
65
 73
2
 40
3.048
 49
2.54
 74
0
 49
-0.508
 74
0
  0
LTYPE
  5
34
330
2
100
AcDbSymbolTableRecord
100
AcDbLinetypeTableRecord
  2
DASHED2
 70
0
  3
Dashed (.5x) _ _ _ _ _ _ _ _ _ _ _ _ _ _
 72
65
 73
2
 40
0.762
 49
0.635
 74
0
 49
-0.127
 74
0
  0
LTYPE
  5
35
330
2
100
AcDbSymbolTableRecord
100
AcDbLinetypeTableRecord
  2
PHANTOM
 70
0
  3
Phantom ______  __  __  ______  __  __  ______
 72
65
 73
6
 40
6.35
 49
3.175
 74
0
 49
-0.635
 74
0
 49
0.635
 74
0
 49
-0.635
 74
0
 49
0.635
 74
0
 49
-0.635
 74
0
  0
LTYPE
  5
36
330
2
100
AcDbSymbolTableRecord
100
AcDbLinetypeTableRecord
  2
PHANTOMX2
 70
0
  3
Phantom (2x)____________    ____    ____    ____________
 72
65
 73
6
 40
10.795
 49
6.35
 74
0
 49
-0.635
 74
0
 49
1.27
 74
0
 49
-0.635
 74
0
 49
1.27
 74
0
 49
-0.635
 74
0
  0
LTYPE
  5
37
330
2
100
AcDbSymbolTableRecord
100
AcDbLinetypeTableRecord
  2
PHANTOM2
 70
0
  3
Phantom (.5x) ___ _ _ ___ _ _ ___ _ _ ___ _ _ ___
 72
65
 73
6
 40
3.175
 49
1.587
 74
0
 49
-0.318
 74
0
 49
0.318
 74
0
 49
-0.318
 74
0
 49
0.318
 74
0
 49
-0.318
 74
0
  0
LTYPE
  5
38
330
2
100
AcDbSymbolTableRecord
100
AcDbLinetypeTableRecord
  2
DASHDOT
 70
0
  3
Dash dot __ . __ . __ . __ . __ . __ . __ . __
 72
65
 73
4
 40
3.556
 49
2.54
 74
0
 49
-0.508
 74
0
 49
0.0
 74
0
 49
-0.508
 74
0
  0
LTYPE
  5
39
330
2
100
AcDbSymbolTableRecord
100
AcDbLinetypeTableRecord
  2
DASHDOTX2
 70
0
  3
Dash dot (2x) ____  .  ____  .  ____  .  ____
 72
65
 73
4
 40
6.096
 49
5.08
 74
0
 49
-0.508
 74
0
 49
0.0
 74
0
 49
-0.508
 74
0
  0
LTYPE
  5
3A
330
2
100
AcDbSymbolTableRecord
100
AcDbLinetypeTableRecord
  2
DASHDOT2
 70
0
  3
Dash dot (.5x) _ . _ . _ . _ . _ . _ . _ . _
 72
65
 73
4
 40
1.778
 49
1.27
 74
0
 49
-0.254
 74
0
 49
0.0
 74
0
 49
-0.254
 74
0
  0
LTYPE
  5
3B
330
2
100
AcDbSymbolTableRecord
100
AcDbLinetypeTableRecord
  2
DOT
 70
0
  3
Dot .  .  .  .  .  .  .  .  .  .  .  .  .  .  .  .
 72
65
 73
2
 40
0.508
 49
0.0
 74
0
 49
-0.508
 74
0
  0
LTYPE
  5
3C
330
2
100
AcDbSymbolTableRecord
100
AcDbLinetypeTableRecord
  2
DOTX2
 70
0
  3
Dot (2x) .    .    .    .    .    .    .    . 
 72
65
 73
2
 40
1.016
 49
0.0
 74
0
 49
-1.016
 74
0
  0
LTYPE
  5
3D
330
2
100
AcDbSymbolTableRecord
100
AcDbLinetypeTableRecord
  2
DOT2
 70
0
  3
Dot (.5) . . . . . . . . . . . . . . . . . . . 
 72
65
 73
2
 40
0.254
 49
0.0
 74
0
 49
-0.254
 74
0
  0
LTYPE
  5
3E
330
2
100
AcDbSymbolTableRecord
100
AcDbLinetypeTableRecord
  2
DIVIDE
 70
0
  3
Divide __ . . __ . . __ . . __ . . __ . . __
 72
65
 73
6
 40
4.064
 49
2.54
 74
0
 49
-0.508
 74
0
 49
0.0
 74
0
 49
-0.508
 74
0
 49
0.0
 74
0
 49
-0.508
 74
0
  0
LTYPE
  5
3F
330
2
100
AcDbSymbolTableRecord
100
AcDbLinetypeTableRecord
  2
DIVIDEX2
 70
0
  3
Divide (2x) ____  . .  ____  . .  ____  . .  ____
 72
65
 73
6
 40
6.604
 49
5.08
 74
0
 49
-0.508
 74
0
 49
0.0
 74
0
 49
-0.508
 74
0
 49
0.0
 74
0
 49
-0.508
 74
0
  0
LTYPE
  5
40
330
2
100
AcDbSymbolTableRecord
100
AcDbLinetypeTableRecord
  2
DIVIDE2
 70
0
  3
Divide(.5x) _ . _ . _ . _ . _ . _ . _ . _
 72
65
 73
6
 40
2.032
 49
1.27
 74
0
 49
-0.254
 74
0
 49
0.0
 74
0
 49
-0.254
 74
0
 49
0.0
 74
0
 49
-0.254
 74
0
  0
ENDTAB
  0
TABLE
  2
LAYER
  5
1
330
0
100
AcDbSymbolTable
 70
20
  0
LAYER
  5
27
330
1
100
AcDbSymbolTableRecord
100
AcDbLayerTableRecord
  2
0
 70
0
 62
7
  6
Continuous
370
-3
390
13
347
21
  0
LAYER
  5
28
330
1
100
AcDbSymbolTableRecord
100
AcDbLayerTableRecord
  2
Defpoints
 70
0
 62
7
  6
Continuous
290
0
370
-3
390
13
347
21
  0
LAYER
  5
8A
330
1
100
AcDbSymbolTableRecord
100
AcDbLayerTableRecord
  2
TITLE_BLOCK
 70
0
 62
7
  6
Continuous
370
-3
390
13
347
21
  0
LAYER
  5
8B
330
1
100
AcDbSymbolTableRecord
100
AcDbLayerTableRecord
  2
BORDER_GRID
 70
0
 62
8
  6
Continuous
370
-3
390
13
347
21
  0
LAYER
  5
8C
330
1
100
AcDbSymbolTableRecord
100
AcDbLayerTableRecord
  2
ROOM_BOUNDARY
 70
0
 62
4
  6
DASHED
370
-3
390
13
347
21
  0
LAYER
  5
8D
330
1
100
AcDbSymbolTableRecord
100
AcDbLayerTableRecord
  2
PANEL_ENCLOSURE
 70
0
 62
7
  6
Continuous
370
-3
390
13
347
21
  0
LAYER
  5
8E
330
1
100
AcDbSymbolTableRecord
100
AcDbLayerTableRecord
  2
EQUIPMENT_FRAME
 70
0
 62
8
  6
Continuous
370
-3
390
13
347
21
  0
LAYER
  5
8F
330
1
100
AcDbSymbolTableRecord
100
AcDbLayerTableRecord
  2
EQUIPMENT_DETAIL
 70
0
 62
7
  6
Continuous
370
-3
390
13
347
21
  0
LAYER
  5
90
330
1
100
AcDbSymbolTableRecord
100
AcDbLayerTableRecord
  2
PLC_CHASSIS
 70
0
 62
5
  6
Continuous
370
-3
390
13
347
21
  0
LAYER
  5
91
330
1
100
AcDbSymbolTableRecord
100
AcDbLayerTableRecord
  2
PLC_MODULE
 70
0
 62
4
  6
Continuous
370
-3
390
13
347
21
  0
LAYER
  5
92
330
1
100
AcDbSymbolTableRecord
100
AcDbLayerTableRecord
  2
CBL_CONTROL_LAN
 70
0
 62
1
  6
Continuous
370
-3
390
13
347
21
  0
LAYER
  5
93
330
1
100
AcDbSymbolTableRecord
100
AcDbLayerTableRecord
  2
CBL_IO_NETWORK
 70
0
 62
3
  6
Continuous
370
-3
390
13
347
21
  0
LAYER
  5
94
330
1
100
AcDbSymbolTableRecord
100
AcDbLayerTableRecord
  2
CBL_MCC_NETWORK
 70
0
 62
5
  6
Continuous
370
-3
390
13
347
21
  0
LAYER
  5
95
330
1
100
AcDbSymbolTableRecord
100
AcDbLayerTableRecord
  2
CBL_FIBER_OPTIC
 70
0
 62
6
  6
DASHED
370
-3
390
13
347
21
  0
LAYER
  5
96
330
1
100
AcDbSymbolTableRecord
100
AcDbLayerTableRecord
  2
TEXT_TITLE
 70
0
 62
7
  6
Continuous
370
-3
390
13
347
21
  0
LAYER
  5
97
330
1
100
AcDbSymbolTableRecord
100
AcDbLayerTableRecord
  2
TEXT_SUBTITLE
 70
0
 62
4
  6
Continuous
370
-3
390
13
347
21
  0
LAYER
  5
98
330
1
100
AcDbSymbolTableRecord
100
AcDbLayerTableRecord
  2
TEXT_EQUIPMENT
 70
0
 62
7
  6
Continuous
370
-3
390
13
347
21
  0
LAYER
  5
99
330
1
100
AcDbSymbolTableRecord
100
AcDbLayerTableRecord
  2
TEXT_TAG
 70
0
 62
3
  6
Continuous
370
-3
390
13
347
21
  0
LAYER
  5
9A
330
1
100
AcDbSymbolTableRecord
100
AcDbLayerTableRecord
  2
TEXT_ANNOTATION
 70
0
 62
2
  6
Continuous
370
-3
390
13
347
21
  0
LAYER
  5
9B
330
1
100
AcDbSymbolTableRecord
100
AcDbLayerTableRecord
  2
LEGEND
 70
0
 62
7
  6
Continuous
370
-3
390
13
347
21
  0
ENDTAB
  0
TABLE
  2
STYLE
  5
5
330
0
100
AcDbSymbolTable
 70
26
  0
STYLE
  5
29
330
5
100
AcDbSymbolTableRecord
100
AcDbTextStyleTableRecord
  2
Standard
 70
0
 40
0.0
 41
1.0
 50
0.0
 71
0
 42
2.5
  3
txt
  4

  0
STYLE
  5
41
330
5
100
AcDbSymbolTableRecord
100
AcDbTextStyleTableRecord
  2
OpenSans-Light
 70
0
 40
0.0
 41
1.0
 50
0.0
 71
0
 42
2.5
  3
OpenSans-Light.ttf
  4

  0
STYLE
  5
42
330
5
100
AcDbSymbolTableRecord
100
AcDbTextStyleTableRecord
  2
OpenSans-Light-Italic
 70
0
 40
0.0
 41
1.0
 50
0.0
 71
0
 42
2.5
  3
OpenSans-LightItalic.ttf
  4

  0
STYLE
  5
43
330
5
100
AcDbSymbolTableRecord
100
AcDbTextStyleTableRecord
  2
OpenSans
 70
0
 40
0.0
 41
1.0
 50
0.0
 71
0
 42
2.5
  3
OpenSans-Regular.ttf
  4

  0
STYLE
  5
44
330
5
100
AcDbSymbolTableRecord
100
AcDbTextStyleTableRecord
  2
OpenSans-Italic
 70
0
 40
0.0
 41
1.0
 50
0.0
 71
0
 42
2.5
  3
OpenSans-Italic.ttf
  4

  0
STYLE
  5
45
330
5
100
AcDbSymbolTableRecord
100
AcDbTextStyleTableRecord
  2
OpenSans-SemiBold
 70
0
 40
0.0
 41
1.0
 50
0.0
 71
0
 42
2.5
  3
OpenSans-SemiBold.ttf
  4

  0
STYLE
  5
46
330
5
100
AcDbSymbolTableRecord
100
AcDbTextStyleTableRecord
  2
OpenSans-SemiBoldItalic
 70
0
 40
0.0
 41
1.0
 50
0.0
 71
0
 42
2.5
  3
OpenSans-SemiBoldItalic.ttf
  4

  0
STYLE
  5
47
330
5
100
AcDbSymbolTableRecord
100
AcDbTextStyleTableRecord
  2
OpenSans-Bold
 70
0
 40
0.0
 41
1.0
 50
0.0
 71
0
 42
2.5
  3
OpenSans-Bold.ttf
  4

  0
STYLE
  5
48
330
5
100
AcDbSymbolTableRecord
100
AcDbTextStyleTableRecord
  2
OpenSans-BoldItalic
 70
0
 40
0.0
 41
1.0
 50
0.0
 71
0
 42
2.5
  3
OpenSans-BoldItalic.ttf
  4

  0
STYLE
  5
49
330
5
100
AcDbSymbolTableRecord
100
AcDbTextStyleTableRecord
  2
OpenSans-ExtraBold
 70
0
 40
0.0
 41
1.0
 50
0.0
 71
0
 42
2.5
  3
OpenSans-ExtraBold.ttf
  4

  0
STYLE
  5
4A
330
5
100
AcDbSymbolTableRecord
100
AcDbTextStyleTableRecord
  2
OpenSans-ExtraBoldItalic
 70
0
 40
0.0
 41
1.0
 50
0.0
 71
0
 42
2.5
  3
OpenSans-ExtraBoldItalic.ttf
  4

  0
STYLE
  5
4B
330
5
100
AcDbSymbolTableRecord
100
AcDbTextStyleTableRecord
  2
OpenSansCondensed-Bold
 70
0
 40
0.0
 41
1.0
 50
0.0
 71
0
 42
2.5
  3
OpenSansCondensed-Bold.ttf
  4

  0
STYLE
  5
4C
330
5
100
AcDbSymbolTableRecord
100
AcDbTextStyleTableRecord
  2
OpenSansCondensed-Light
 70
0
 40
0.0
 41
1.0
 50
0.0
 71
0
 42
2.5
  3
OpenSansCondensed-Light.ttf
  4

  0
STYLE
  5
4D
330
5
100
AcDbSymbolTableRecord
100
AcDbTextStyleTableRecord
  2
OpenSansCondensed-Italic
 70
0
 40
0.0
 41
1.0
 50
0.0
 71
0
 42
2.5
  3
OpenSansCondensed-LightItalic.ttf
  4

  0
STYLE
  5
4E
330
5
100
AcDbSymbolTableRecord
100
AcDbTextStyleTableRecord
  2
LiberationSans
 70
0
 40
0.0
 41
1.0
 50
0.0
 71
0
 42
2.5
  3
LiberationSans-Regular.ttf
  4

  0
STYLE
  5
4F
330
5
100
AcDbSymbolTableRecord
100
AcDbTextStyleTableRecord
  2
LiberationSans-Bold
 70
0
 40
0.0
 41
1.0
 50
0.0
 71
0
 42
2.5
  3
LiberationSans-Bold.ttf
  4

  0
STYLE
  5
50
330
5
100
AcDbSymbolTableRecord
100
AcDbTextStyleTableRecord
  2
LiberationSans-BoldItalic
 70
0
 40
0.0
 41
1.0
 50
0.0
 71
0
 42
2.5
  3
LiberationSans-BoldItalic.ttf
  4

  0
STYLE
  5
51
330
5
100
AcDbSymbolTableRecord
100
AcDbTextStyleTableRecord
  2
LiberationSans-Italic
 70
0
 40
0.0
 41
1.0
 50
0.0
 71
0
 42
2.5
  3
LiberationSans-Italic.ttf
  4

  0
STYLE
  5
52
330
5
100
AcDbSymbolTableRecord
100
AcDbTextStyleTableRecord
  2
LiberationSerif
 70
0
 40
0.0
 41
1.0
 50
0.0
 71
0
 42
2.5
  3
LiberationSerif-Regular.ttf
  4

  0
STYLE
  5
53
330
5
100
AcDbSymbolTableRecord
100
AcDbTextStyleTableRecord
  2
LiberationSerif-Bold
 70
0
 40
0.0
 41
1.0
 50
0.0
 71
0
 42
2.5
  3
LiberationSerif-Bold.ttf
  4

  0
STYLE
  5
54
330
5
100
AcDbSymbolTableRecord
100
AcDbTextStyleTableRecord
  2
LiberationSerif-BoldItalic
 70
0
 40
0.0
 41
1.0
 50
0.0
 71
0
 42
2.5
  3
LiberationSerif-BoldItalic.ttf
  4

  0
STYLE
  5
55
330
5
100
AcDbSymbolTableRecord
100
AcDbTextStyleTableRecord
  2
LiberationSerif-Italic
 70
0
 40
0.0
 41
1.0
 50
0.0
 71
0
 42
2.5
  3
LiberationSerif-Italic.ttf
  4

  0
STYLE
  5
56
330
5
100
AcDbSymbolTableRecord
100
AcDbTextStyleTableRecord
  2
LiberationMono
 70
0
 40
0.0
 41
1.0
 50
0.0
 71
0
 42
2.5
  3
LiberationMono-Regular.ttf
  4

  0
STYLE
  5
57
330
5
100
AcDbSymbolTableRecord
100
AcDbTextStyleTableRecord
  2
LiberationMono-Bold
 70
0
 40
0.0
 41
1.0
 50
0.0
 71
0
 42
2.5
  3
LiberationMono-Bold.ttf
  4

  0
STYLE
  5
58
330
5
100
AcDbSymbolTableRecord
100
AcDbTextStyleTableRecord
  2
LiberationMono-BoldItalic
 70
0
 40
0.0
 41
1.0
 50
0.0
 71
0
 42
2.5
  3
LiberationMono-BoldItalic.ttf
  4

  0
STYLE
  5
59
330
5
100
AcDbSymbolTableRecord
100
AcDbTextStyleTableRecord
  2
LiberationMono-Italic
 70
0
 40
0.0
 41
1.0
 50
0.0
 71
0
 42
2.5
  3
LiberationMono-Italic.ttf
  4

  0
ENDTAB
  0
TABLE
  2
VIEW
  5
7
330
0
100
AcDbSymbolTable
 70
0
  0
ENDTAB
  0
TABLE
  2
UCS
  5
6
330
0
100
AcDbSymbolTable
 70
0
  0
ENDTAB
  0
TABLE
  2
APPID
  5
3
330
0
100
AcDbSymbolTable
 70
3
  0
APPID
  5
2A
330
3
100
AcDbSymbolTableRecord
100
AcDbRegAppTableRecord
  2
ACAD
 70
0
  0
APPID
  5
28B
330
3
100
AcDbSymbolTableRecord
100
AcDbRegAppTableRecord
  2
HATCHBACKGROUNDCOLOR
 70
0
  0
APPID
  5
28C
330
3
100
AcDbSymbolTableRecord
100
AcDbRegAppTableRecord
  2
EZDXF
 70
0
  0
ENDTAB
  0
TABLE
  2
DIMSTYLE
  5
4
330
0
100
AcDbSymbolTable
 70
12
100
AcDbDimStyleTable
  0
DIMSTYLE
105
2B
330
4
100
AcDbSymbolTableRecord
100
AcDbDimStyleTableRecord
  2
Standard
 70
0
 40
1.0
 41
2.5
 42
0.625
 43
3.75
 44
1.25
 45
0.0
 46
0.0
 47
0.0
 48
0.0
 49
2.5
140
2.5
141
2.5
142
0.0
143
0.03937007874
144
1.0
145
0.0
146
1.0
147
0.625
148
0.0
 69
0
 70
0
 71
0
 72
0
 73
0
 74
0
 75
0
 76
0
 77
1
 78
8
 79
3
170
0
171
3
172
1
173
0
174
0
175
0
176
0
177
0
178
0
179
2
271
2
272
2
273
2
274
3
275
0
276
0
277
2
278
44
279
0
280
0
281
0
282
0
283
0
284
8
285
0
286
0
288
0
289
3
290
0
371
-2
372
-2
  0
DIMSTYLE
105
73
330
4
100
AcDbSymbolTableRecord
100
AcDbDimStyleTableRecord
  2
EZDXF
 70
0
 40
1.0
 41
0.175
 42
0.125
 43
3.75
 44
0.375
 45
0.0
 46
0.0
 47
0.0
 48
0.0
 49
2.5
140
0.25
141
2.5
142
0.0
143
0.03937007874
144
100.0
145
0.0
146
0.5
147
0.1
148
0.0
 69
0
 70
0
 71
0
 72
0
 73
0
 74
0
 75
0
 76
0
 77
1
 78
12
 79
3
170
0
171
3
172
1
173
0
174
0
175
0
176
0
177
0
178
0
179
2
271
2
272
2
273
2
274
3
275
0
276
0
277
2
278
46
279
2
280
0
281
0
282
0
283
0
284
8
285
0
286
0
288
1
289
3
290
0
340
4C
342
74
371
-2
372
-2
  0
DIMSTYLE
105
7C
330
4
100
AcDbSymbolTableRecord
100
AcDbDimStyleTableRecord
  2
EZ_M_100_H25_CM
 70
0
 40
1.0
 41
0.25
 42
0.125
 43
3.75
 44
0.375
 45
0.0
 46
0.0
 47
0.0
 48
0.0
 49
2.5
140
0.25
141
2.5
142
0.125
143
0.03937007874
144
100.0
145
0.0
146
0.5
147
0.1
148
0.0
 69
0
 70
0
 71
0
 72
0
 73
0
 74
0
 75
0
 76
0
 77
1
 78
12
 79
3
170
0
171
3
172
1
173
0
174
0
175
0
176
0
177
0
178
0
179
2
271
2
272
2
273
2
274
3
275
0
276
0
277
2
278
46
279
2
280
0
281
0
282
0
283
0
284
8
285
0
286
0
288
1
289
3
290
0
340
4C
371
-2
372
-2
  0
DIMSTYLE
105
7D
330
4
100
AcDbSymbolTableRecord
100
AcDbDimStyleTableRecord
  2
EZ_M_50_H25_CM
 70
0
 40
1.0
 41
0.125
 42
0.0625
 43
3.75
 44
0.1875
 45
0.0
 46
0.0
 47
0.0
 48
0.0
 49
2.5
140
0.125
141
2.5
142
0.0625
143
0.03937007874
144
100.0
145
0.0
146
0.5
147
0.05
148
0.0
 69
0
 70
0
 71
0
 72
0
 73
0
 74
0
 75
0
 76
0
 77
1
 78
12
 79
3
170
0
171
3
172
1
173
0
174
0
175
0
176
0
177
0
178
0
179
2
271
2
272
2
273
2
274
3
275
0
276
0
277
2
278
46
279
2
280
0
281
0
282
0
283
0
284
8
285
0
286
0
288
1
289
3
290
0
340
4C
371
-2
372
-2
  0
DIMSTYLE
105
7E
330
4
100
AcDbSymbolTableRecord
100
AcDbDimStyleTableRecord
  2
EZ_M_25_H25_CM
 70
0
 40
1.0
 41
0.0625
 42
0.03125
 43
3.75
 44
0.09375
 45
0.0
 46
0.0
 47
0.0
 48
0.0
 49
2.5
140
0.0625
141
2.5
142
0.03125
143
0.03937007874
144
100.0
145
0.0
146
0.5
147
0.025
148
0.0
 69
0
 70
0
 71
0
 72
0
 73
0
 74
0
 75
0
 76
0
 77
1
 78
12
 79
3
170
0
171
3
172
1
173
0
174
0
175
0
176
0
177
0
178
0
179
2
271
2
272
2
273
2
274
3
275
0
276
0
277
2
278
46
279
2
280
0
281
0
282
0
283
0
284
8
285
0
286
0
288
1
289
3
290
0
340
4C
371
-2
372
-2
  0
DIMSTYLE
105
7F
330
4
100
AcDbSymbolTableRecord
100
AcDbDimStyleTableRecord
  2
EZ_M_20_H25_CM
 70
0
 40
1.0
 41
0.05
 42
0.025
 43
3.75
 44
0.07500000000000001
 45
0.0
 46
0.0
 47
0.0
 48
0.0
 49
2.5
140
0.05
141
2.5
142
0.025
143
0.03937007874
144
100.0
145
0.0
146
0.5
147
0.020000000000000004
148
0.0
 69
0
 70
0
 71
0
 72
0
 73
0
 74
0
 75
0
 76
0
 77
1
 78
12
 79
3
170
0
171
3
172
1
173
0
174
0
175
0
176
0
177
0
178
0
179
2
271
2
272
2
273
2
274
3
275
0
276
0
277
2
278
46
279
2
280
0
281
0
282
0
283
0
284
8
285
0
286
0
288
1
289
3
290
0
340
4C
371
-2
372
-2
  0
DIMSTYLE
105
80
330
4
100
AcDbSymbolTableRecord
100
AcDbDimStyleTableRecord
  2
EZ_M_10_H25_CM
 70
0
 40
1.0
 41
0.025
 42
0.0125
 43
3.75
 44
0.037500000000000006
 45
0.0
 46
0.0
 47
0.0
 48
0.0
 49
2.5
140
0.025
141
2.5
142
0.0125
143
0.03937007874
144
100.0
145
0.0
146
0.5
147
0.010000000000000002
148
0.0
 69
0
 70
0
 71
0
 72
0
 73
0
 74
0
 75
0
 76
0
 77
1
 78
12
 79
3
170
0
171
3
172
1
173
0
174
0
175
0
176
0
177
0
178
0
179
2
271
2
272
2
273
2
274
3
275
0
276
0
277
2
278
46
279
2
280
0
281
0
282
0
283
0
284
8
285
0
286
0
288
1
289
3
290
0
340
4C
371
-2
372
-2
  0
DIMSTYLE
105
81
330
4
100
AcDbSymbolTableRecord
100
AcDbDimStyleTableRecord
  2
EZ_M_5_H25_CM
 70
0
 40
1.0
 41
0.0125
 42
0.00625
 43
3.75
 44
0.018750000000000003
 45
0.0
 46
0.0
 47
0.0
 48
0.0
 49
2.5
140
0.0125
141
2.5
142
0.00625
143
0.03937007874
144
100.0
145
0.0
146
0.5
147
0.005000000000000001
148
0.0
 69
0
 70
0
 71
0
 72
0
 73
0
 74
0
 75
0
 76
0
 77
1
 78
12
 79
3
170
0
171
3
172
1
173
0
174
0
175
0
176
0
177
0
178
0
179
2
271
2
272
2
273
2
274
3
275
0
276
0
277
2
278
46
279
2
280
0
281
0
282
0
283
0
284
8
285
0
286
0
288
1
289
3
290
0
340
4C
371
-2
372
-2
  0
DIMSTYLE
105
82
330
4
100
AcDbSymbolTableRecord
100
AcDbDimStyleTableRecord
  2
EZ_M_1_H25_CM
 70
0
 40
1.0
 41
0.0025
 42
0.00125
 43
3.75
 44
0.00375
 45
0.0
 46
0.0
 47
0.0
 48
0.0
 49
2.5
140
0.0025
141
2.5
142
0.00125
143
0.03937007874
144
100.0
145
0.0
146
0.5
147
0.001
148
0.0
 69
0
 70
0
 71
0
 72
0
 73
0
 74
0
 75
0
 76
0
 77
1
 78
12
 79
3
170
0
171
3
172
1
173
0
174
0
175
0
176
0
177
0
178
0
179
2
271
2
272
2
273
2
274
3
275
0
276
0
277
2
278
46
279
2
280
0
281
0
282
0
283
0
284
8
285
0
286
0
288
1
289
3
290
0
340
4C
371
-2
372
-2
  0
DIMSTYLE
105
83
330
4
100
AcDbSymbolTableRecord
100
AcDbDimStyleTableRecord
  2
EZ_RADIUS
 70
0
 40
1.0
 41
0.25
 42
0.125
 43
3.75
 44
0.375
 45
0.0
 46
0.0
 47
0.0
 48
0.0
 49
2.5
140
0.25
141
0.0
142
0.0
143
0.03937007874
144
100.0
145
0.0
146
0.5
147
0.1
148
0.0
 69
0
 70
0
 71
0
 72
0
 73
0
 74
0
 75
0
 76
0
 77
1
 78
12
 79
3
170
0
171
3
172
0
173
0
174
0
175
0
176
0
177
0
178
0
179
2
271
2
272
2
273
2
274
3
275
0
276
0
277
2
278
46
279
1
280
0
281
0
282
0
283
0
284
8
285
0
286
0
288
1
289
3
290
0
340
4C
342
84
371
-2
372
-2
  0
DIMSTYLE
105
88
330
4
100
AcDbSymbolTableRecord
100
AcDbDimStyleTableRecord
  2
EZ_RADIUS_INSIDE
 70
0
 40
1.0
 41
0.25
 42
0.125
 43
3.75
 44
0.375
 45
0.0
 46
0.0
 47
0.0
 48
0.0
 49
2.5
140
0.25
141
0.0
142
0.0
143
0.03937007874
144
100.0
145
0.0
146
0.5
147
0.1
148
0.0
 69
0
 70
0
 71
0
 72
0
 73
0
 74
0
 75
0
 76
0
 77
0
 78
12
 79
3
170
0
171
3
172
0
173
0
174
1
175
0
176
0
177
0
178
0
179
2
271
2
272
2
273
2
274
3
275
0
276
0
277
2
278
46
279
0
280
0
281
0
282
0
283
0
284
8
285
0
286
0
288
1
289
0
290
0
340
4C
342
84
371
-2
372
-2
  0
DIMSTYLE
105
89
330
4
100
AcDbSymbolTableRecord
100
AcDbDimStyleTableRecord
  2
EZ_CURVED
 70
0
 40
1.0
 41
0.25
 42
0.125
 43
3.75
 44
0.375
 45
0.0
 46
0.0
 47
0.0
 48
0.0
 49
2.5
140
0.25
141
2.5
142
0.0
143
0.03937007874
144
100.0
145
0.0
146
0.5
147
0.1
148
0.0
 69
0
 70
0
 71
0
 72
0
 73
0
 74
0
 75
0
 76
0
 77
1
 78
12
 79
2
 90
2
170
0
171
3
172
1
173
0
174
0
175
0
176
0
177
0
178
0
179
2
271
2
272
2
273
2
274
3
275
0
276
0
277
2
278
46
279
2
280
0
281
0
282
0
283
0
284
8
285
0
286
0
288
1
289
3
290
0
340
4C
371
-2
372
-2
  0
ENDTAB
  0
TABLE
  2
BLOCK_RECORD
  5
9
330
0
100
AcDbSymbolTable
 70
5
  0
BLOCK_RECORD
  5
17
330
9
100
AcDbSymbolTableRecord
100
AcDbBlockTableRecord
  2
*Model_Space
340
1A
 70
0
280
1
281
0
  0
BLOCK_RECORD
  5
1B
330
9
100
AcDbSymbolTableRecord
100
AcDbBlockTableRecord
  2
*Paper_Space
340
1E
 70
0
280
1
281
0
  0
BLOCK_RECORD
  5
74
330
9
100
AcDbSymbolTableRecord
100
AcDbBlockTableRecord
  2
_ARCHTICK
340
0
 70
0
280
1
281
0
  0
BLOCK_RECORD
  5
78
330
9
100
AcDbSymbolTableRecord
100
AcDbBlockTableRecord
  2
_CLOSEDFILLED
340
0
 70
0
280
1
281
0
  0
BLOCK_RECORD
  5
84
330
9
100
AcDbSymbolTableRecord
100
AcDbBlockTableRecord
  2
_CLOSEDBLANK
340
0
 70
0
280
1
281
0
  0
ENDTAB
  0
ENDSEC
  0
SECTION
  2
BLOCKS
  0
BLOCK
  5
18
330
17
100
AcDbEntity
  8
0
100
AcDbBlockBegin
  2
*Model_Space
 70
0
 10
0.0
 20
0.0
 30
0.0
  3
*Model_Space
  1

  0
ENDBLK
  5
19
330
17
100
AcDbEntity
  8
0
100
AcDbBlockEnd
  0
BLOCK
  5
1C
330
1B
100
AcDbEntity
  8
0
100
AcDbBlockBegin
  2
*Paper_Space
 70
0
 10
0.0
 20
0.0
 30
0.0
  3
*Paper_Space
  1

  0
ENDBLK
  5
1D
330
1B
100
AcDbEntity
  8
0
100
AcDbBlockEnd
  0
BLOCK
  5
75
330
74
100
AcDbEntity
  8
0
100
AcDbBlockBegin
  2
_ARCHTICK
 70
0
 10
0.0
 20
0.0
 30
0.0
  3
_ARCHTICK
  1

  0
LWPOLYLINE
  5
77
330
74
100
AcDbEntity
  8
0
  6
BYBLOCK
 62
0
100
AcDbPolyline
 90
2
 70
0
 43
0.15
 10
-0.5
 20
-0.5
 10
0.5
 20
0.5
  0
ENDBLK
  5
76
330
74
100
AcDbEntity
  8
0
100
AcDbBlockEnd
  0
BLOCK
  5
79
330
78
100
AcDbEntity
  8
0
100
AcDbBlockBegin
  2
_CLOSEDFILLED
 70
0
 10
0.0
 20
0.0
 30
0.0
  3
_CLOSEDFILLED
  1

  0
SOLID
  5
7B
330
78
100
AcDbEntity
  8
0
  6
BYBLOCK
 62
0
100
AcDbTrace
 10
-1.0
 20
0.16439898372402537
 30
0.0
 11
0.0
 21
0.0
 31
0.0
 12
-1.0
 22
-0.16439898372402537
 32
0.0
 13
-1.0
 23
-0.16439898372402537
 33
0.0
  0
ENDBLK
  5
7A
330
78
100
AcDbEntity
  8
0
100
AcDbBlockEnd
  0
BLOCK
  5
85
330
84
100
AcDbEntity
  8
0
100
AcDbBlockBegin
  2
_CLOSEDBLANK
 70
0
 10
0.0
 20
0.0
 30
0.0
  3
_CLOSEDBLANK
  1

  0
LWPOLYLINE
  5
87
330
84
100
AcDbEntity
  8
0
  6
BYBLOCK
 62
0
100
AcDbPolyline
 90
3
 70
1
 10
-1.0
 20
0.16439898372402537
 10
0.0
 20
0.0
 10
-1.0
 20
-0.16439898372402537
  0
ENDBLK
  5
86
330
84
100
AcDbEntity
  8
0
100
AcDbBlockEnd
  0
ENDSEC
  0
SECTION
  2
ENTITIES
  0
LWPOLYLINE
  5
9C
330
17
100
AcDbEntity
  8
TITLE_BLOCK
  6
ByLayer
 62
7
100
AcDbPolyline
 90
5
 70
0
 10
20.0
 20
20.0
 10
2380.0
 20
20.0
 10
2380.0
 20
1680.0
 10
20.0
 20
1680.0
 10
20.0
 20
20.0
  0
LWPOLYLINE
  5
9D
330
17
100
AcDbEntity
  8
TITLE_BLOCK
  6
ByLayer
 62
7
100
AcDbPolyline
 90
5
 70
0
 10
35.0
 20
35.0
 10
2365.0
 20
35.0
 10
2365.0
 20
1665.0
 10
35.0
 20
1665.0
 10
35.0
 20
35.0
  0
TEXT
  5
9E
330
17
100
AcDbEntity
  8
BORDER_GRID
100
AcDbText
 10
164.44444444444446
 20
1670.0
 30
0.0
 40
8.0
  1
1
 72
1
 11
164.44444444444446
 21
1670.0
 31
0.0
100
AcDbText
  0
TEXT
  5
9F
330
17
100
AcDbEntity
  8
BORDER_GRID
100
AcDbText
 10
164.44444444444446
 20
25.0
 30
0.0
 40
8.0
  1
1
 72
1
 11
164.44444444444446
 21
25.0
 31
0.0
100
AcDbText
  0
TEXT
  5
A0
330
17
100
AcDbEntity
  8
BORDER_GRID
100
AcDbText
 10
423.33333333333337
 20
1670.0
 30
0.0
 40
8.0
  1
2
 72
1
 11
423.33333333333337
 21
1670.0
 31
0.0
100
AcDbText
  0
TEXT
  5
A1
330
17
100
AcDbEntity
  8
BORDER_GRID
100
AcDbText
 10
423.33333333333337
 20
25.0
 30
0.0
 40
8.0
  1
2
 72
1
 11
423.33333333333337
 21
25.0
 31
0.0
100
AcDbText
  0
TEXT
  5
A2
330
17
100
AcDbEntity
  8
BORDER_GRID
100
AcDbText
 10
682.2222222222223
 20
1670.0
 30
0.0
 40
8.0
  1
3
 72
1
 11
682.2222222222223
 21
1670.0
 31
0.0
100
AcDbText
  0
TEXT
  5
A3
330
17
100
AcDbEntity
  8
BORDER_GRID
100
AcDbText
 10
682.2222222222223
 20
25.0
 30
0.0
 40
8.0
  1
3
 72
1
 11
682.2222222222223
 21
25.0
 31
0.0
100
AcDbText
  0
TEXT
  5
A4
330
17
100
AcDbEntity
  8
BORDER_GRID
100
AcDbText
 10
941.1111111111112
 20
1670.0
 30
0.0
 40
8.0
  1
4
 72
1
 11
941.1111111111112
 21
1670.0
 31
0.0
100
AcDbText
  0
TEXT
  5
A5
330
17
100
AcDbEntity
  8
BORDER_GRID
100
AcDbText
 10
941.1111111111112
 20
25.0
 30
0.0
 40
8.0
  1
4
 72
1
 11
941.1111111111112
 21
25.0
 31
0.0
100
AcDbText
  0
TEXT
  5
A6
330
17
100
AcDbEntity
  8
BORDER_GRID
100
AcDbText
 10
1200.0
 20
1670.0
 30
0.0
 40
8.0
  1
5
 72
1
 11
1200.0
 21
1670.0
 31
0.0
100
AcDbText
  0
TEXT
  5
A7
330
17
100
AcDbEntity
  8
BORDER_GRID
100
AcDbText
 10
1200.0
 20
25.0
 30
0.0
 40
8.0
  1
5
 72
1
 11
1200.0
 21
25.0
 31
0.0
100
AcDbText
  0
TEXT
  5
A8
330
17
100
AcDbEntity
  8
BORDER_GRID
100
AcDbText
 10
1458.8888888888891
 20
1670.0
 30
0.0
 40
8.0
  1
6
 72
1
 11
1458.8888888888891
 21
1670.0
 31
0.0
100
AcDbText
  0
TEXT
  5
A9
330
17
100
AcDbEntity
  8
BORDER_GRID
100
AcDbText
 10
1458.8888888888891
 20
25.0
 30
0.0
 40
8.0
  1
6
 72
1
 11
1458.8888888888891
 21
25.0
 31
0.0
100
AcDbText
  0
TEXT
  5
AA
330
17
100
AcDbEntity
  8
BORDER_GRID
100
AcDbText
 10
1717.7777777777778
 20
1670.0
 30
0.0
 40
8.0
  1
7
 72
1
 11
1717.7777777777778
 21
1670.0
 31
0.0
100
AcDbText
  0
TEXT
  5
AB
330
17
100
AcDbEntity
  8
BORDER_GRID
100
AcDbText
 10
1717.7777777777778
 20
25.0
 30
0.0
 40
8.0
  1
7
 72
1
 11
1717.7777777777778
 21
25.0
 31
0.0
100
AcDbText
  0
TEXT
  5
AC
330
17
100
AcDbEntity
  8
BORDER_GRID
100
AcDbText
 10
1976.666666666667
 20
1670.0
 30
0.0
 40
8.0
  1
8
 72
1
 11
1976.666666666667
 21
1670.0
 31
0.0
100
AcDbText
  0
TEXT
  5
AD
330
17
100
AcDbEntity
  8
BORDER_GRID
100
AcDbText
 10
1976.666666666667
 20
25.0
 30
0.0
 40
8.0
  1
8
 72
1
 11
1976.666666666667
 21
25.0
 31
0.0
100
AcDbText
  0
TEXT
  5
AE
330
17
100
AcDbEntity
  8
BORDER_GRID
100
AcDbText
 10
2235.5555555555557
 20
1670.0
 30
0.0
 40
8.0
  1
9
 72
1
 11
2235.5555555555557
 21
1670.0
 31
0.0
100
AcDbText
  0
TEXT
  5
AF
330
17
100
AcDbEntity
  8
BORDER_GRID
100
AcDbText
 10
2235.5555555555557
 20
25.0
 30
0.0
 40
8.0
  1
9
 72
1
 11
2235.5555555555557
 21
25.0
 31
0.0
100
AcDbText
  0
TEXT
  5
B0
330
17
100
AcDbEntity
  8
BORDER_GRID
100
AcDbText
 10
27.0
 20
170.83333333333334
 30
0.0
 40
8.0
  1
F
 72
1
 11
27.0
 21
170.83333333333334
 31
0.0
100
AcDbText
  0
TEXT
  5
B1
330
17
100
AcDbEntity
  8
BORDER_GRID
100
AcDbText
 10
2373.0
 20
170.83333333333334
 30
0.0
 40
8.0
  1
F
 72
1
 11
2373.0
 21
170.83333333333334
 31
0.0
100
AcDbText
  0
TEXT
  5
B2
330
17
100
AcDbEntity
  8
BORDER_GRID
100
AcDbText
 10
27.0
 20
442.5
 30
0.0
 40
8.0
  1
E
 72
1
 11
27.0
 21
442.5
 31
0.0
100
AcDbText
  0
TEXT
  5
B3
330
17
100
AcDbEntity
  8
BORDER_GRID
100
AcDbText
 10
2373.0
 20
442.5
 30
0.0
 40
8.0
  1
E
 72
1
 11
2373.0
 21
442.5
 31
0.0
100
AcDbText
  0
TEXT
  5
B4
330
17
100
AcDbEntity
  8
BORDER_GRID
100
AcDbText
 10
27.0
 20
714.1666666666667
 30
0.0
 40
8.0
  1
D
 72
1
 11
27.0
 21
714.1666666666667
 31
0.0
100
AcDbText
  0
TEXT
  5
B5
330
17
100
AcDbEntity
  8
BORDER_GRID
100
AcDbText
 10
2373.0
 20
714.1666666666667
 30
0.0
 40
8.0
  1
D
 72
1
 11
2373.0
 21
714.1666666666667
 31
0.0
100
AcDbText
  0
TEXT
  5
B6
330
17
100
AcDbEntity
  8
BORDER_GRID
100
AcDbText
 10
27.0
 20
985.8333333333334
 30
0.0
 40
8.0
  1
C
 72
1
 11
27.0
 21
985.8333333333334
 31
0.0
100
AcDbText
  0
TEXT
  5
B7
330
17
100
AcDbEntity
  8
BORDER_GRID
100
AcDbText
 10
2373.0
 20
985.8333333333334
 30
0.0
 40
8.0
  1
C
 72
1
 11
2373.0
 21
985.8333333333334
 31
0.0
100
AcDbText
  0
TEXT
  5
B8
330
17
100
AcDbEntity
  8
BORDER_GRID
100
AcDbText
 10
27.0
 20
1257.5
 30
0.0
 40
8.0
  1
B
 72
1
 11
27.0
 21
1257.5
 31
0.0
100
AcDbText
  0
TEXT
  5
B9
330
17
100
AcDbEntity
  8
BORDER_GRID
100
AcDbText
 10
2373.0
 20
1257.5
 30
0.0
 40
8.0
  1
B
 72
1
 11
2373.0
 21
1257.5
 31
0.0
100
AcDbText
  0
TEXT
  5
BA
330
17
100
AcDbEntity
  8
BORDER_GRID
100
AcDbText
 10
27.0
 20
1529.1666666666667
 30
0.0
 40
8.0
  1
A
 72
1
 11
27.0
 21
1529.1666666666667
 31
0.0
100
AcDbText
  0
TEXT
  5
BB
330
17
100
AcDbEntity
  8
BORDER_GRID
100
AcDbText
 10
2373.0
 20
1529.1666666666667
 30
0.0
 40
8.0
  1
A
 72
1
 11
2373.0
 21
1529.1666666666667
 31
0.0
100
AcDbText
  0
LWPOLYLINE
  5
BC
330
17
100
AcDbEntity
  8
TITLE_BLOCK
  6
ByLayer
100
AcDbPolyline
 90
5
 70
0
 10
35.0
 20
35.0
 10
2365.0
 20
35.0
 10
2365.0
 20
110.0
 10
35.0
 20
110.0
 10
35.0
 20
35.0
  0
LINE
  5
BD
330
17
100
AcDbEntity
  8
TITLE_BLOCK
  6
ByLayer
100
AcDbLine
 10
435.0
 20
35.0
 30
0.0
 11
435.0
 21
110.0
 31
0.0
  0
LINE
  5
BE
330
17
100
AcDbEntity
  8
TITLE_BLOCK
  6
ByLayer
100
AcDbLine
 10
935.0
 20
35.0
 30
0.0
 11
935.0
 21
110.0
 31
0.0
  0
LINE
  5
BF
330
17
100
AcDbEntity
  8
TITLE_BLOCK
  6
ByLayer
100
AcDbLine
 10
1235.0
 20
35.0
 30
0.0
 11
1235.0
 21
110.0
 31
0.0
  0
LINE
  5
C0
330
17
100
AcDbEntity
  8
TITLE_BLOCK
  6
ByLayer
100
AcDbLine
 10
1785.0
 20
35.0
 30
0.0
 11
1785.0
 21
110.0
 31
0.0
  0
LINE
  5
C1
330
17
100
AcDbEntity
  8
TITLE_BLOCK
  6
ByLayer
100
AcDbLine
 10
35.0
 20
85.0
 30
0.0
 11
435.0
 21
85.0
 31
0.0
  0
LINE
  5
C2
330
17
100
AcDbEntity
  8
TITLE_BLOCK
  6
ByLayer
100
AcDbLine
 10
35.0
 20
60.0
 30
0.0
 11
435.0
 21
60.0
 31
0.0
  0
LINE
  5
C3
330
17
100
AcDbEntity
  8
TITLE_BLOCK
  6
ByLayer
100
AcDbLine
 10
135.0
 20
35.0
 30
0.0
 11
135.0
 21
85.0
 31
0.0
  0
LINE
  5
C4
330
17
100
AcDbEntity
  8
TITLE_BLOCK
  6
ByLayer
100
AcDbLine
 10
235.0
 20
35.0
 30
0.0
 11
235.0
 21
85.0
 31
0.0
  0
LINE
  5
C5
330
17
100
AcDbEntity
  8
TITLE_BLOCK
  6
ByLayer
100
AcDbLine
 10
335.0
 20
35.0
 30
0.0
 11
335.0
 21
85.0
 31
0.0
  0
TEXT
  5
C6
330
17
100
AcDbEntity
  8
TEXT_TITLE
100
AcDbText
 10
45.0
 20
93.0
 30
0.0
 40
7.0
  1
Name: THUMWH
 11
45.0
 21
93.0
 31
0.0
100
AcDbText
  0
TEXT
  5
C7
330
17
100
AcDbEntity
  8
TEXT_TITLE
100
AcDbText
 10
145.0
 20
93.0
 30
0.0
 40
7.0
  1
Date: 09/10/26
 11
145.0
 21
93.0
 31
0.0
100
AcDbText
  0
TEXT
  5
C8
330
17
100
AcDbEntity
  8
TEXT_TITLE
100
AcDbText
 10
245.0
 20
93.0
 30
0.0
 40
7.0
  1
Ed.: THUMWH
 11
245.0
 21
93.0
 31
0.0
100
AcDbText
  0
TEXT
  5
C9
330
17
100
AcDbEntity
  8
TEXT_TITLE
100
AcDbText
 10
345.0
 20
93.0
 30
0.0
 40
7.0
  1
Appr.: Original
 11
345.0
 21
93.0
 31
0.0
100
AcDbText
  0
TEXT
  5
CA
330
17
100
AcDbEntity
  8
TEXT_TITLE
100
AcDbText
 10
45.0
 20
70.0
 30
0.0
 40
6.0
  1
Replacement of:
 11
45.0
 21
70.0
 31
0.0
100
AcDbText
  0
TEXT
  5
CB
330
17
100
AcDbEntity
  8
TEXT_TITLE
100
AcDbText
 10
245.0
 20
70.0
 30
0.0
 40
6.0
  1
Replaced by:
 11
245.0
 21
70.0
 31
0.0
100
AcDbText
  0
TEXT
  5
CC
330
17
100
AcDbEntity
  8
TEXT_TITLE
100
AcDbText
 10
45.0
 20
45.0
 30
0.0
 40
10.0
  1
THUM
 11
45.0
 21
45.0
 31
0.0
100
AcDbText
  0
TEXT
  5
CD
330
17
100
AcDbEntity
  8
TEXT_TITLE
100
AcDbText
 10
455.0
 20
80.0
 30
0.0
 40
14.0
  1
SPRINT 18K Panel Layout
 11
455.0
 21
80.0
 31
0.0
100
AcDbText
  0
TEXT
  5
CE
330
17
100
AcDbEntity
  8
TEXT_SUBTITLE
100
AcDbText
 10
455.0
 20
55.0
 30
0.0
 40
9.0
  1
Rockwell ControlLogix 5580 & DLR Architecture
 11
455.0
 21
55.0
 31
0.0
100
AcDbText
  0
TEXT
  5
CF
330
17
100
AcDbEntity
  8
TEXT_TITLE
100
AcDbText
 10
955.0
 20
80.0
 30
0.0
 40
14.0
  1
Ecomax
 11
955.0
 21
80.0
 31
0.0
100
AcDbText
  0
TEXT
  5
D0
330
17
100
AcDbEntity
  8
TEXT_TITLE
100
AcDbText
 10
955.0
 20
55.0
 30
0.0
 40
8.0
  1
Engineering & Automation
 11
955.0
 21
55.0
 31
0.0
100
AcDbText
  0
TEXT
  5
D1
330
17
100
AcDbEntity
  8
TEXT_TITLE
100
AcDbText
 10
1255.0
 20
80.0
 30
0.0
 40
14.0
  1
System architecture
 11
1255.0
 21
80.0
 31
0.0
100
AcDbText
  0
TEXT
  5
D2
330
17
100
AcDbEntity
  8
TEXT_TITLE
100
AcDbText
 10
1255.0
 20
55.0
 30
0.0
 40
8.0
  1
Plant-wide Automation Network
 11
1255.0
 21
55.0
 31
0.0
100
AcDbText
  0
TEXT
  5
D3
330
17
100
AcDbEntity
  8
TEXT_TITLE
100
AcDbText
 10
1805.0
 20
85.0
 30
0.0
 40
9.0
  1
Client: Ingredion_001
 11
1805.0
 21
85.0
 31
0.0
100
AcDbText
  0
TEXT
  5
D4
330
17
100
AcDbEntity
  8
TEXT_TITLE
 62
3
100
AcDbText
 10
1805.0
 20
65.0
 30
0.0
 40
11.0
  1
Drawing No: 600-600-001
 11
1805.0
 21
65.0
 31
0.0
100
AcDbText
  0
TEXT
  5
D5
330
17
100
AcDbEntity
  8
TEXT_TITLE
100
AcDbText
 10
1805.0
 20
47.0
 30
0.0
 40
7.0
  1
Rev: B01 | Sheet: 1 of 1
 11
1805.0
 21
47.0
 31
0.0
100
AcDbText
  0
LWPOLYLINE
  5
D6
330
17
100
AcDbEntity
  8
LEGEND
  6
ByLayer
100
AcDbPolyline
 90
5
 70
0
 10
1820.0
 20
120.0
 10
2335.0
 20
120.0
 10
2335.0
 20
220.0
 10
1820.0
 20
220.0
 10
1820.0
 20
120.0
  0
TEXT
  5
D7
330
17
100
AcDbEntity
  8
LEGEND
 62
7
100
AcDbText
 10
1835.0
 20
202.0
 30
0.0
 40
8.0
  1
CABLE LEGEND & NETWORK SPECIFICATION
 11
1835.0
 21
202.0
 31
0.0
100
AcDbText
  0
LINE
  5
D8
330
17
100
AcDbEntity
  8
CBL_CONTROL_LAN
  6
ByLayer
 62
1
100
AcDbLine
 10
1835.0
 20
185.0
 30
0.0
 11
1895.0
 21
185.0
 31
0.0
  0
TEXT
  5
D9
330
17
100
AcDbEntity
  8
LEGEND
 62
1
100
AcDbText
 10
1910.0
 20
182.0
 30
0.0
 40
7.0
  1
ETHERNET LAN CABLE FOR CONTROL (Cat6A)
 11
1910.0
 21
182.0
 31
0.0
100
AcDbText
  0
LINE
  5
DA
330
17
100
AcDbEntity
  8
CBL_IO_NETWORK
  6
ByLayer
 62
3
100
AcDbLine
 10
1835.0
 20
165.0
 30
0.0
 11
1895.0
 21
165.0
 31
0.0
  0
TEXT
  5
DB
330
17
100
AcDbEntity
  8
LEGEND
 62
3
100
AcDbText
 10
1910.0
 20
162.0
 30
0.0
 40
7.0
  1
ETHERNET FOR I/O NETWORK (DLR RING)
 11
1910.0
 21
162.0
 31
0.0
100
AcDbText
  0
LINE
  5
DC
330
17
100
AcDbEntity
  8
CBL_MCC_NETWORK
  6
ByLayer
 62
5
100
AcDbLine
 10
1835.0
 20
145.0
 30
0.0
 11
1895.0
 21
145.0
 31
0.0
  0
TEXT
  5
DD
330
17
100
AcDbEntity
  8
LEGEND
 62
5
100
AcDbText
 10
1910.0
 20
142.0
 30
0.0
 40
7.0
  1
ETHERNET FOR MCC NETWORK (PowerFlex VFDs)
 11
1910.0
 21
142.0
 31
0.0
100
AcDbText
  0
LINE
  5
DE
330
17
100
AcDbEntity
  8
CBL_FIBER_OPTIC
  6
DASHED
 62
6
100
AcDbLine
 10
1835.0
 20
130.0
 30
0.0
 11
1895.0
 21
130.0
 31
0.0
  0
TEXT
  5
DF
330
17
100
AcDbEntity
  8
LEGEND
 62
6
100
AcDbText
 10
1910.0
 20
127.0
 30
0.0
 40
7.0
  1
FIBER OPTIC BACKBONE (OM3/OS2 Armored)
 11
1910.0
 21
127.0
 31
0.0
100
AcDbText
  0
LWPOLYLINE
  5
E0
330
17
100
AcDbEntity
  8
ROOM_BOUNDARY
  6
DASHED
100
AcDbPolyline
 90
5
 70
0
 10
55.0
 20
1060.0
 10
475.0
 20
1060.0
 10
475.0
 20
1610.0
 10
55.0
 20
1610.0
 10
55.0
 20
1060.0
  0
TEXT
  5
E1
330
17
100
AcDbEntity
  8
TEXT_TITLE
100
AcDbText
 10
75.0
 20
1585.0
 30
0.0
 40
11.0
  1
EXISTING SERVER ROOM
 11
75.0
 21
1585.0
 31
0.0
100
AcDbText
  0
LWPOLYLINE
  5
E2
330
17
100
AcDbEntity
  8
EQUIPMENT_FRAME
  6
ByLayer
100
AcDbPolyline
 90
5
 70
0
 10
105.0
 20
1110.0
 10
275.0
 20
1110.0
 10
275.0
 20
1530.0
 10
105.0
 20
1530.0
 10
105.0
 20
1110.0
  0
LWPOLYLINE
  5
E3
330
17
100
AcDbEntity
  8
EQUIPMENT_FRAME
  6
ByLayer
100
AcDbPolyline
 90
5
 70
0
 10
115.0
 20
1120.0
 10
265.0
 20
1120.0
 10
265.0
 20
1520.0
 10
115.0
 20
1520.0
 10
115.0
 20
1120.0
  0
TEXT
  5
E4
330
17
100
AcDbEntity
  8
TEXT_EQUIPMENT
100
AcDbText
 10
190.0
 20
1508.0
 30
0.0
 40
8.0
  1
SERVER RACK (42U)
 72
1
 11
190.0
 21
1508.0
 31
0.0
100
AcDbText
  0
LWPOLYLINE
  5
E5
330
17
100
AcDbEntity
  8
EQUIPMENT_DETAIL
  6
ByLayer
100
AcDbPolyline
 90
5
 70
0
 10
120.0
 20
1470.0
 10
260.0
 20
1470.0
 10
260.0
 20
1512.0
 10
120.0
 20
1512.0
 10
120.0
 20
1470.0
  0
TEXT
  5
E6
330
17
100
AcDbEntity
  8
TEXT_EQUIPMENT
100
AcDbText
 10
190.0
 20
1488.0
 30
0.0
 40
7.0
  1
Patch Panel 1 & 2
 72
1
 11
190.0
 21
1488.0
 31
0.0
100
AcDbText
  0
LWPOLYLINE
  5
E7
330
17
100
AcDbEntity
  8
EQUIPMENT_DETAIL
  6
ByLayer
100
AcDbPolyline
 90
5
 70
0
 10
120.0
 20
1415.0
 10
260.0
 20
1415.0
 10
260.0
 20
1457.0
 10
120.0
 20
1457.0
 10
120.0
 20
1415.0
  0
TEXT
  5
E8
330
17
100
AcDbEntity
  8
TEXT_EQUIPMENT
100
AcDbText
 10
190.0
 20
1433.0
 30
0.0
 40
7.0
  1
Core Switch (Stratix)
 72
1
 11
190.0
 21
1433.0
 31
0.0
100
AcDbText
  0
LWPOLYLINE
  5
E9
330
17
100
AcDbEntity
  8
EQUIPMENT_DETAIL
  6
ByLayer
100
AcDbPolyline
 90
5
 70
0
 10
120.0
 20
1360.0
 10
260.0
 20
1360.0
 10
260.0
 20
1402.0
 10
120.0
 20
1402.0
 10
120.0
 20
1360.0
  0
TEXT
  5
EA
330
17
100
AcDbEntity
  8
TEXT_EQUIPMENT
100
AcDbText
 10
190.0
 20
1378.0
 30
0.0
 40
7.0
  1
FT View SE Server
 72
1
 11
190.0
 21
1378.0
 31
0.0
100
AcDbText
  0
LWPOLYLINE
  5
EB
330
17
100
AcDbEntity
  8
EQUIPMENT_DETAIL
  6
ByLayer
100
AcDbPolyline
 90
5
 70
0
 10
120.0
 20
1305.0
 10
260.0
 20
1305.0
 10
260.0
 20
1347.0
 10
120.0
 20
1347.0
 10
120.0
 20
1305.0
  0
TEXT
  5
EC
330
17
100
AcDbEntity
  8
TEXT_EQUIPMENT
100
AcDbText
 10
190.0
 20
1323.0
 30
0.0
 40
7.0
  1
FT Historian Server
 72
1
 11
190.0
 21
1323.0
 31
0.0
100
AcDbText
  0
LWPOLYLINE
  5
ED
330
17
100
AcDbEntity
  8
EQUIPMENT_DETAIL
  6
ByLayer
100
AcDbPolyline
 90
5
 70
0
 10
120.0
 20
1250.0
 10
260.0
 20
1250.0
 10
260.0
 20
1292.0
 10
120.0
 20
1292.0
 10
120.0
 20
1250.0
  0
TEXT
  5
EE
330
17
100
AcDbEntity
  8
TEXT_EQUIPMENT
100
AcDbText
 10
190.0
 20
1268.0
 30
0.0
 40
7.0
  1
Domain / Batch Server
 72
1
 11
190.0
 21
1268.0
 31
0.0
100
AcDbText
  0
LWPOLYLINE
  5
EF
330
17
100
AcDbEntity
  8
EQUIPMENT_DETAIL
  6
ByLayer
100
AcDbPolyline
 90
5
 70
0
 10
120.0
 20
1195.0
 10
260.0
 20
1195.0
 10
260.0
 20
1237.0
 10
120.0
 20
1237.0
 10
120.0
 20
1195.0
  0
TEXT
  5
F0
330
17
100
AcDbEntity
  8
TEXT_EQUIPMENT
100
AcDbText
 10
190.0
 20
1213.0
 30
0.0
 40
7.0
  1
Online UPS Unit (5kVA)
 72
1
 11
190.0
 21
1213.0
 31
0.0
100
AcDbText
  0
LWPOLYLINE
  5
F1
330
17
100
AcDbEntity
  8
EQUIPMENT_DETAIL
  6
ByLayer
100
AcDbPolyline
 90
5
 70
0
 10
315.0
 20
1280.0
 10
395.0
 20
1280.0
 10
395.0
 20
1340.0
 10
315.0
 20
1340.0
 10
315.0
 20
1280.0
  0
LWPOLYLINE
  5
F2
330
17
100
AcDbEntity
  8
EQUIPMENT_DETAIL
  6
ByLayer
100
AcDbPolyline
 90
5
 70
0
 10
320.0
 20
1285.0
 10
390.0
 20
1285.0
 10
390.0
 20
1335.0
 10
320.0
 20
1335.0
 10
320.0
 20
1285.0
  0
LINE
  5
F3
330
17
100
AcDbEntity
  8
EQUIPMENT_DETAIL
  6
ByLayer
100
AcDbLine
 10
350.0
 20
1280.0
 30
0.0
 11
350.0
 21
1265.0
 31
0.0
  0
LINE
  5
F4
330
17
100
AcDbEntity
  8
EQUIPMENT_DETAIL
  6
ByLayer
100
AcDbLine
 10
340.0
 20
1265.0
 30
0.0
 11
370.0
 21
1265.0
 31
0.0
  0
LWPOLYLINE
  5
F5
330
17
100
AcDbEntity
  8
EQUIPMENT_DETAIL
  6
ByLayer
100
AcDbPolyline
 90
5
 70
0
 10
330.0
 20
1245.0
 10
380.0
 20
1245.0
 10
380.0
 20
1260.0
 10
330.0
 20
1260.0
 10
330.0
 20
1245.0
  0
LWPOLYLINE
  5
F6
330
17
100
AcDbEntity
  8
EQUIPMENT_DETAIL
  6
ByLayer
100
AcDbPolyline
 90
5
 70
0
 10
410.0
 20
1245.0
 10
440.0
 20
1245.0
 10
440.0
 20
1340.0
 10
410.0
 20
1340.0
 10
410.0
 20
1245.0
  0
TEXT
  5
F7
330
17
100
AcDbEntity
  8
TEXT_EQUIPMENT
100
AcDbText
 10
355.0
 20
1355.0
 30
0.0
 40
7.0
  1
SERVER CONSOLE
 72
1
 11
355.0
 21
1355.0
 31
0.0
100
AcDbText
  0
LWPOLYLINE
  5
F8
330
17
100
AcDbEntity
  8
ROOM_BOUNDARY
  6
DASHED
100
AcDbPolyline
 90
5
 70
0
 10
510.0
 20
1060.0
 10
1690.0
 20
1060.0
 10
1690.0
 20
1610.0
 10
510.0
 20
1610.0
 10
510.0
 20
1060.0
  0
TEXT
  5
F9
330
17
100
AcDbEntity
  8
TEXT_TITLE
100
AcDbText
 10
530.0
 20
1585.0
 30
0.0
 40
11.0
  1
OPERATION 1 ROOM (MAIN CONTROL ROOM)
 11
530.0
 21
1585.0
 31
0.0
100
AcDbText
  0
LWPOLYLINE
  5
FA
330
17
100
AcDbEntity
  8
EQUIPMENT_FRAME
  6
ByLayer
100
AcDbPolyline
 90
5
 70
0
 10
550.0
 20
1110.0
 10
740.0
 20
1110.0
 10
740.0
 20
1530.0
 10
550.0
 20
1530.0
 10
550.0
 20
1110.0
  0
LWPOLYLINE
  5
FB
330
17
100
AcDbEntity
  8
EQUIPMENT_FRAME
  6
ByLayer
100
AcDbPolyline
 90
5
 70
0
 10
560.0
 20
1120.0
 10
730.0
 20
1120.0
 10
730.0
 20
1520.0
 10
560.0
 20
1520.0
 10
560.0
 20
1120.0
  0
TEXT
  5
FC
330
17
100
AcDbEntity
  8
TEXT_EQUIPMENT
100
AcDbText
 10
645.0
 20
1508.0
 30
0.0
 40
8.0
  1
NETWORK CABINET
 72
1
 11
645.0
 21
1508.0
 31
0.0
100
AcDbText
  0
LWPOLYLINE
  5
FD
330
17
100
AcDbEntity
  8
EQUIPMENT_DETAIL
  6
ByLayer
100
AcDbPolyline
 90
5
 70
0
 10
565.0
 20
1410.0
 10
725.0
 20
1410.0
 10
725.0
 20
1450.0
 10
565.0
 20
1450.0
 10
565.0
 20
1410.0
  0
TEXT
  5
FE
330
17
100
AcDbEntity
  8
TEXT_IP_TAG
 62
4
100
AcDbText
 10
645.0
 20
1426.0
 30
0.0
 40
7.0
  1
Switch 1: 192.168.10.x
 72
1
 11
645.0
 21
1426.0
 31
0.0
100
AcDbText
  0
LWPOLYLINE
  5
FF
330
17
100
AcDbEntity
  8
EQUIPMENT_DETAIL
  6
ByLayer
100
AcDbPolyline
 90
5
 70
0
 10
565.0
 20
1350.0
 10
725.0
 20
1350.0
 10
725.0
 20
1390.0
 10
565.0
 20
1390.0
 10
565.0
 20
1350.0
  0
TEXT
  5
100
330
17
100
AcDbEntity
  8
TEXT_IP_TAG
 62
4
100
AcDbText
 10
645.0
 20
1366.0
 30
0.0
 40
7.0
  1
Switch 2: 192.168.20.x
 72
1
 11
645.0
 21
1366.0
 31
0.0
100
AcDbText
  0
LWPOLYLINE
  5
101
330
17
100
AcDbEntity
  8
EQUIPMENT_DETAIL
  6
ByLayer
100
AcDbPolyline
 90
5
 70
0
 10
565.0
 20
1290.0
 10
725.0
 20
1290.0
 10
725.0
 20
1330.0
 10
565.0
 20
1330.0
 10
565.0
 20
1290.0
  0
TEXT
  5
102
330
17
100
AcDbEntity
  8
TEXT_EQUIPMENT
100
AcDbText
 10
645.0
 20
1306.0
 30
0.0
 40
7.0
  1
Cat6A Patch Panel 48P
 72
1
 11
645.0
 21
1306.0
 31
0.0
100
AcDbText
  0
LWPOLYLINE
  5
103
330
17
100
AcDbEntity
  8
EQUIPMENT_DETAIL
  6
ByLayer
100
AcDbPolyline
 90
5
 70
0
 10
565.0
 20
1230.0
 10
725.0
 20
1230.0
 10
725.0
 20
1270.0
 10
565.0
 20
1270.0
 10
565.0
 20
1230.0
  0
TEXT
  5
104
330
17
100
AcDbEntity
  8
TEXT_EQUIPMENT
 62
6
100
AcDbText
 10
645.0
 20
1246.0
 30
0.0
 40
7.0
  1
Fiber Patch Panel (FDF)
 72
1
 11
645.0
 21
1246.0
 31
0.0
100
AcDbText
  0
LWPOLYLINE
  5
105
330
17
100
AcDbEntity
  8
EQUIPMENT_DETAIL
  6
ByLayer
100
AcDbPolyline
 90
5
 70
0
 10
565.0
 20
1160.0
 10
725.0
 20
1160.0
 10
725.0
 20
1210.0
 10
565.0
 20
1210.0
 10
565.0
 20
1160.0
  0
TEXT
  5
106
330
17
100
AcDbEntity
  8
TEXT_EQUIPMENT
100
AcDbText
 10
645.0
 20
1182.0
 30
0.0
 40
7.0
  1
Control Room UPS 3kVA
 72
1
 11
645.0
 21
1182.0
 31
0.0
100
AcDbText
  0
LWPOLYLINE
  5
107
330
17
100
AcDbEntity
  8
EQUIPMENT_FRAME
  6
ByLayer
 62
8
100
AcDbPolyline
 90
5
 70
0
 10
780.0
 20
1135.0
 10
950.0
 20
1135.0
 10
950.0
 20
1245.0
 10
780.0
 20
1245.0
 10
780.0
 20
1135.0
  0
LWPOLYLINE
  5
108
330
17
100
AcDbEntity
  8
EQUIPMENT_DETAIL
  6
ByLayer
100
AcDbPolyline
 90
5
 70
0
 10
810.0
 20
1175.0
 10
900.0
 20
1175.0
 10
900.0
 20
1235.0
 10
810.0
 20
1235.0
 10
810.0
 20
1175.0
  0
LWPOLYLINE
  5
109
330
17
100
AcDbEntity
  8
EQUIPMENT_DETAIL
  6
ByLayer
100
AcDbPolyline
 90
5
 70
0
 10
815.0
 20
1180.0
 10
895.0
 20
1180.0
 10
895.0
 20
1230.0
 10
815.0
 20
1230.0
 10
815.0
 20
1180.0
  0
LINE
  5
10A
330
17
100
AcDbEntity
  8
EQUIPMENT_DETAIL
  6
ByLayer
100
AcDbLine
 10
855.0
 20
1175.0
 30
0.0
 11
855.0
 21
1160.0
 31
0.0
  0
LINE
  5
10B
330
17
100
AcDbEntity
  8
EQUIPMENT_DETAIL
  6
ByLayer
100
AcDbLine
 10
840.0
 20
1160.0
 30
0.0
 11
870.0
 21
1160.0
 31
0.0
  0
LWPOLYLINE
  5
10C
330
17
100
AcDbEntity
  8
EQUIPMENT_DETAIL
  6
ByLayer
100
AcDbPolyline
 90
5
 70
0
 10
820.0
 20
1145.0
 10
875.0
 20
1145.0
 10
875.0
 20
1157.0
 10
820.0
 20
1157.0
 10
820.0
 20
1145.0
  0
LWPOLYLINE
  5
10D
330
17
100
AcDbEntity
  8
EQUIPMENT_DETAIL
  6
ByLayer
100
AcDbPolyline
 90
5
 70
0
 10
882.0
 20
1145.0
 10
892.0
 20
1145.0
 10
892.0
 20
1157.0
 10
882.0
 20
1157.0
 10
882.0
 20
1145.0
  0
LWPOLYLINE
  5
10E
330
17
100
AcDbEntity
  8
EQUIPMENT_DETAIL
  6
ByLayer
100
AcDbPolyline
 90
5
 70
0
 10
910.0
 20
1150.0
 10
940.0
 20
1150.0
 10
940.0
 20
1235.0
 10
910.0
 20
1235.0
 10
910.0
 20
1150.0
  0
CIRCLE
  5
10F
330
17
100
AcDbEntity
  8
EQUIPMENT_DETAIL
100
AcDbCircle
 10
925.0
 20
1215.0
 30
0.0
 40
4.0
  0
TEXT
  5
110
330
17
100
AcDbEntity
  8
TEXT_EQUIPMENT
100
AcDbText
 10
855.0
 20
1255.0
 30
0.0
 40
8.0
  1
ENGINEERING WORKSTATION
 72
1
 11
855.0
 21
1255.0
 31
0.0
100
AcDbText
  0
TEXT
  5
111
330
17
100
AcDbEntity
  8
TEXT_IP_TAG
 62
4
100
AcDbText
 10
855.0
 20
1124.0
 30
0.0
 40
7.0
  1
IP: 192.168.10.150
 72
1
 11
855.0
 21
1124.0
 31
0.0
100
AcDbText
  0
LWPOLYLINE
  5
112
330
17
100
AcDbEntity
  8
EQUIPMENT_FRAME
  6
ByLayer
 62
8
100
AcDbPolyline
 90
5
 70
0
 10
990.0
 20
1135.0
 10
1160.0
 20
1135.0
 10
1160.0
 20
1245.0
 10
990.0
 20
1245.0
 10
990.0
 20
1135.0
  0
LWPOLYLINE
  5
113
330
17
100
AcDbEntity
  8
EQUIPMENT_DETAIL
  6
ByLayer
100
AcDbPolyline
 90
5
 70
0
 10
1020.0
 20
1175.0
 10
1110.0
 20
1175.0
 10
1110.0
 20
1235.0
 10
1020.0
 20
1235.0
 10
1020.0
 20
1175.0
  0
LWPOLYLINE
  5
114
330
17
100
AcDbEntity
  8
EQUIPMENT_DETAIL
  6
ByLayer
100
AcDbPolyline
 90
5
 70
0
 10
1025.0
 20
1180.0
 10
1105.0
 20
1180.0
 10
1105.0
 20
1230.0
 10
1025.0
 20
1230.0
 10
1025.0
 20
1180.0
  0
LINE
  5
115
330
17
100
AcDbEntity
  8
EQUIPMENT_DETAIL
  6
ByLayer
100
AcDbLine
 10
1065.0
 20
1175.0
 30
0.0
 11
1065.0
 21
1160.0
 31
0.0
  0
LINE
  5
116
330
17
100
AcDbEntity
  8
EQUIPMENT_DETAIL
  6
ByLayer
100
AcDbLine
 10
1050.0
 20
1160.0
 30
0.0
 11
1080.0
 21
1160.0
 31
0.0
  0
LWPOLYLINE
  5
117
330
17
100
AcDbEntity
  8
EQUIPMENT_DETAIL
  6
ByLayer
100
AcDbPolyline
 90
5
 70
0
 10
1030.0
 20
1145.0
 10
1085.0
 20
1145.0
 10
1085.0
 20
1157.0
 10
1030.0
 20
1157.0
 10
1030.0
 20
1145.0
  0
LWPOLYLINE
  5
118
330
17
100
AcDbEntity
  8
EQUIPMENT_DETAIL
  6
ByLayer
100
AcDbPolyline
 90
5
 70
0
 10
1092.0
 20
1145.0
 10
1102.0
 20
1145.0
 10
1102.0
 20
1157.0
 10
1092.0
 20
1157.0
 10
1092.0
 20
1145.0
  0
LWPOLYLINE
  5
119
330
17
100
AcDbEntity
  8
EQUIPMENT_DETAIL
  6
ByLayer
100
AcDbPolyline
 90
5
 70
0
 10
1120.0
 20
1150.0
 10
1150.0
 20
1150.0
 10
1150.0
 20
1235.0
 10
1120.0
 20
1235.0
 10
1120.0
 20
1150.0
  0
CIRCLE
  5
11A
330
17
100
AcDbEntity
  8
EQUIPMENT_DETAIL
100
AcDbCircle
 10
1135.0
 20
1215.0
 30
0.0
 40
4.0
  0
TEXT
  5
11B
330
17
100
AcDbEntity
  8
TEXT_EQUIPMENT
100
AcDbText
 10
1065.0
 20
1255.0
 30
0.0
 40
8.0
  1
OPERATOR 1
 72
1
 11
1065.0
 21
1255.0
 31
0.0
100
AcDbText
  0
TEXT
  5
11C
330
17
100
AcDbEntity
  8
TEXT_IP_TAG
 62
4
100
AcDbText
 10
1065.0
 20
1124.0
 30
0.0
 40
7.0
  1
IP: 192.168.20.101
 72
1
 11
1065.0
 21
1124.0
 31
0.0
100
AcDbText
  0
LWPOLYLINE
  5
11D
330
17
100
AcDbEntity
  8
EQUIPMENT_FRAME
  6
ByLayer
 62
8
100
AcDbPolyline
 90
5
 70
0
 10
1200.0
 20
1135.0
 10
1370.0
 20
1135.0
 10
1370.0
 20
1245.0
 10
1200.0
 20
1245.0
 10
1200.0
 20
1135.0
  0
LWPOLYLINE
  5
11E
330
17
100
AcDbEntity
  8
EQUIPMENT_DETAIL
  6
ByLayer
100
AcDbPolyline
 90
5
 70
0
 10
1230.0
 20
1175.0
 10
1320.0
 20
1175.0
 10
1320.0
 20
1235.0
 10
1230.0
 20
1235.0
 10
1230.0
 20
1175.0
  0
LWPOLYLINE
  5
11F
330
17
100
AcDbEntity
  8
EQUIPMENT_DETAIL
  6
ByLayer
100
AcDbPolyline
 90
5
 70
0
 10
1235.0
 20
1180.0
 10
1315.0
 20
1180.0
 10
1315.0
 20
1230.0
 10
1235.0
 20
1230.0
 10
1235.0
 20
1180.0
  0
LINE
  5
120
330
17
100
AcDbEntity
  8
EQUIPMENT_DETAIL
  6
ByLayer
100
AcDbLine
 10
1275.0
 20
1175.0
 30
0.0
 11
1275.0
 21
1160.0
 31
0.0
  0
LINE
  5
121
330
17
100
AcDbEntity
  8
EQUIPMENT_DETAIL
  6
ByLayer
100
AcDbLine
 10
1260.0
 20
1160.0
 30
0.0
 11
1290.0
 21
1160.0
 31
0.0
  0
LWPOLYLINE
  5
122
330
17
100
AcDbEntity
  8
EQUIPMENT_DETAIL
  6
ByLayer
100
AcDbPolyline
 90
5
 70
0
 10
1240.0
 20
1145.0
 10
1295.0
 20
1145.0
 10
1295.0
 20
1157.0
 10
1240.0
 20
1157.0
 10
1240.0
 20
1145.0
  0
LWPOLYLINE
  5
123
330
17
100
AcDbEntity
  8
EQUIPMENT_DETAIL
  6
ByLayer
100
AcDbPolyline
 90
5
 70
0
 10
1302.0
 20
1145.0
 10
1312.0
 20
1145.0
 10
1312.0
 20
1157.0
 10
1302.0
 20
1157.0
 10
1302.0
 20
1145.0
  0
LWPOLYLINE
  5
124
330
17
100
AcDbEntity
  8
EQUIPMENT_DETAIL
  6
ByLayer
100
AcDbPolyline
 90
5
 70
0
 10
1330.0
 20
1150.0
 10
1360.0
 20
1150.0
 10
1360.0
 20
1235.0
 10
1330.0
 20
1235.0
 10
1330.0
 20
1150.0
  0
CIRCLE
  5
125
330
17
100
AcDbEntity
  8
EQUIPMENT_DETAIL
100
AcDbCircle
 10
1345.0
 20
1215.0
 30
0.0
 40
4.0
  0
TEXT
  5
126
330
17
100
AcDbEntity
  8
TEXT_EQUIPMENT
100
AcDbText
 10
1275.0
 20
1255.0
 30
0.0
 40
8.0
  1
OPERATOR 2
 72
1
 11
1275.0
 21
1255.0
 31
0.0
100
AcDbText
  0
TEXT
  5
127
330
17
100
AcDbEntity
  8
TEXT_IP_TAG
 62
4
100
AcDbText
 10
1275.0
 20
1124.0
 30
0.0
 40
7.0
  1
IP: 192.168.20.102
 72
1
 11
1275.0
 21
1124.0
 31
0.0
100
AcDbText
  0
LWPOLYLINE
  5
128
330
17
100
AcDbEntity
  8
EQUIPMENT_FRAME
  6
ByLayer
100
AcDbPolyline
 90
5
 70
0
 10
910.0
 20
1320.0
 10
1130.0
 20
1320.0
 10
1130.0
 20
1450.0
 10
910.0
 20
1450.0
 10
910.0
 20
1320.0
  0
LWPOLYLINE
  5
129
330
17
100
AcDbEntity
  8
EQUIPMENT_DETAIL
  6
ByLayer
100
AcDbPolyline
 90
5
 70
0
 10
920.0
 20
1330.0
 10
1120.0
 20
1330.0
 10
1120.0
 20
1440.0
 10
920.0
 20
1440.0
 10
920.0
 20
1330.0
  0
TEXT
  5
12A
330
17
100
AcDbEntity
  8
TEXT_EQUIPMENT
100
AcDbText
 10
1020.0
 20
1395.0
 30
0.0
 40
9.0
  1
55" Display Monitor
 72
1
 11
1020.0
 21
1395.0
 31
0.0
100
AcDbText
  0
TEXT
  5
12B
330
17
100
AcDbEntity
  8
TEXT_SUBTITLE
 62
4
100
AcDbText
 10
1020.0
 20
1370.0
 30
0.0
 40
8.0
  1
Display Process Overview
 72
1
 11
1020.0
 21
1370.0
 31
0.0
100
AcDbText
  0
LWPOLYLINE
  5
12C
330
17
100
AcDbEntity
  8
EQUIPMENT_FRAME
  6
ByLayer
100
AcDbPolyline
 90
5
 70
0
 10
1170.0
 20
1320.0
 10
1390.0
 20
1320.0
 10
1390.0
 20
1450.0
 10
1170.0
 20
1450.0
 10
1170.0
 20
1320.0
  0
LWPOLYLINE
  5
12D
330
17
100
AcDbEntity
  8
EQUIPMENT_DETAIL
  6
ByLayer
100
AcDbPolyline
 90
5
 70
0
 10
1180.0
 20
1330.0
 10
1380.0
 20
1330.0
 10
1380.0
 20
1440.0
 10
1180.0
 20
1440.0
 10
1180.0
 20
1330.0
  0
TEXT
  5
12E
330
17
100
AcDbEntity
  8
TEXT_EQUIPMENT
100
AcDbText
 10
1280.0
 20
1395.0
 30
0.0
 40
9.0
  1
55" Display Monitor
 72
1
 11
1280.0
 21
1395.0
 31
0.0
100
AcDbText
  0
TEXT
  5
12F
330
17
100
AcDbEntity
  8
TEXT_SUBTITLE
 62
4
100
AcDbText
 10
1280.0
 20
1370.0
 30
0.0
 40
8.0
  1
Display Trending
 72
1
 11
1280.0
 21
1370.0
 31
0.0
100
AcDbText
  0
LWPOLYLINE
  5
130
330
17
100
AcDbEntity
  8
EQUIPMENT_FRAME
  6
ByLayer
100
AcDbPolyline
 90
5
 70
0
 10
1490.0
 20
1150.0
 10
1600.0
 20
1150.0
 10
1600.0
 20
1235.0
 10
1490.0
 20
1235.0
 10
1490.0
 20
1150.0
  0
LWPOLYLINE
  5
131
330
17
100
AcDbEntity
  8
EQUIPMENT_DETAIL
  6
ByLayer
100
AcDbPolyline
 90
5
 70
0
 10
1505.0
 20
1185.0
 10
1585.0
 20
1185.0
 10
1585.0
 20
1225.0
 10
1505.0
 20
1225.0
 10
1505.0
 20
1185.0
  0
LWPOLYLINE
  5
132
330
17
100
AcDbEntity
  8
EQUIPMENT_DETAIL
  6
ByLayer
100
AcDbPolyline
 90
5
 70
0
 10
1515.0
 20
1165.0
 10
1575.0
 20
1165.0
 10
1575.0
 20
1180.0
 10
1515.0
 20
1180.0
 10
1515.0
 20
1165.0
  0
TEXT
  5
133
330
17
100
AcDbEntity
  8
TEXT_EQUIPMENT
100
AcDbText
 10
1545.0
 20
1252.0
 30
0.0
 40
7.0
  1
Printer for
 72
1
 11
1545.0
 21
1252.0
 31
0.0
100
AcDbText
  0
TEXT
  5
134
330
17
100
AcDbEntity
  8
TEXT_EQUIPMENT
100
AcDbText
 10
1545.0
 20
1240.0
 30
0.0
 40
6.0
  1
Logging & Alarm Report
 72
1
 11
1545.0
 21
1240.0
 31
0.0
100
AcDbText
  0
TEXT
  5
135
330
17
100
AcDbEntity
  8
TEXT_IP_TAG
 62
4
100
AcDbText
 10
1545.0
 20
1138.0
 30
0.0
 40
6.0
  1
IP: 192.168.20.200
 72
1
 11
1545.0
 21
1138.0
 31
0.0
100
AcDbText
  0
LWPOLYLINE
  5
136
330
17
100
AcDbEntity
  8
ROOM_BOUNDARY
  6
DASHED
100
AcDbPolyline
 90
5
 70
0
 10
1730.0
 20
1060.0
 10
2335.0
 20
1060.0
 10
2335.0
 20
1610.0
 10
1730.0
 20
1610.0
 10
1730.0
 20
1060.0
  0
TEXT
  5
137
330
17
100
AcDbEntity
  8
TEXT_TITLE
100
AcDbText
 10
1750.0
 20
1585.0
 30
0.0
 40
11.0
  1
OPERATION STATION 2 PANEL (REMOTE CONTROL)
 11
1750.0
 21
1585.0
 31
0.0
100
AcDbText
  0
LWPOLYLINE
  5
138
330
17
100
AcDbEntity
  8
EQUIPMENT_FRAME
  6
ByLayer
 62
8
100
AcDbPolyline
 90
5
 70
0
 10
1900.0
 20
1235.0
 10
2070.0
 20
1235.0
 10
2070.0
 20
1345.0
 10
1900.0
 20
1345.0
 10
1900.0
 20
1235.0
  0
LWPOLYLINE
  5
139
330
17
100
AcDbEntity
  8
EQUIPMENT_DETAIL
  6
ByLayer
100
AcDbPolyline
 90
5
 70
0
 10
1930.0
 20
1275.0
 10
2020.0
 20
1275.0
 10
2020.0
 20
1335.0
 10
1930.0
 20
1335.0
 10
1930.0
 20
1275.0
  0
LWPOLYLINE
  5
13A
330
17
100
AcDbEntity
  8
EQUIPMENT_DETAIL
  6
ByLayer
100
AcDbPolyline
 90
5
 70
0
 10
1935.0
 20
1280.0
 10
2015.0
 20
1280.0
 10
2015.0
 20
1330.0
 10
1935.0
 20
1330.0
 10
1935.0
 20
1280.0
  0
LINE
  5
13B
330
17
100
AcDbEntity
  8
EQUIPMENT_DETAIL
  6
ByLayer
100
AcDbLine
 10
1975.0
 20
1275.0
 30
0.0
 11
1975.0
 21
1260.0
 31
0.0
  0
LINE
  5
13C
330
17
100
AcDbEntity
  8
EQUIPMENT_DETAIL
  6
ByLayer
100
AcDbLine
 10
1960.0
 20
1260.0
 30
0.0
 11
1990.0
 21
1260.0
 31
0.0
  0
LWPOLYLINE
  5
13D
330
17
100
AcDbEntity
  8
EQUIPMENT_DETAIL
  6
ByLayer
100
AcDbPolyline
 90
5
 70
0
 10
1940.0
 20
1245.0
 10
1995.0
 20
1245.0
 10
1995.0
 20
1257.0
 10
1940.0
 20
1257.0
 10
1940.0
 20
1245.0
  0
LWPOLYLINE
  5
13E
330
17
100
AcDbEntity
  8
EQUIPMENT_DETAIL
  6
ByLayer
100
AcDbPolyline
 90
5
 70
0
 10
2002.0
 20
1245.0
 10
2012.0
 20
1245.0
 10
2012.0
 20
1257.0
 10
2002.0
 20
1257.0
 10
2002.0
 20
1245.0
  0
LWPOLYLINE
  5
13F
330
17
100
AcDbEntity
  8
EQUIPMENT_DETAIL
  6
ByLayer
100
AcDbPolyline
 90
5
 70
0
 10
2030.0
 20
1250.0
 10
2060.0
 20
1250.0
 10
2060.0
 20
1335.0
 10
2030.0
 20
1335.0
 10
2030.0
 20
1250.0
  0
CIRCLE
  5
140
330
17
100
AcDbEntity
  8
EQUIPMENT_DETAIL
100
AcDbCircle
 10
2045.0
 20
1315.0
 30
0.0
 40
4.0
  0
TEXT
  5
141
330
17
100
AcDbEntity
  8
TEXT_EQUIPMENT
100
AcDbText
 10
1975.0
 20
1355.0
 30
0.0
 40
8.0
  1
OPERATOR STATION 2
 72
1
 11
1975.0
 21
1355.0
 31
0.0
100
AcDbText
  0
TEXT
  5
142
330
17
100
AcDbEntity
  8
TEXT_IP_TAG
 62
4
100
AcDbText
 10
1975.0
 20
1224.0
 30
0.0
 40
7.0
  1
IP: 192.168.20.103
 72
1
 11
1975.0
 21
1224.0
 31
0.0
100
AcDbText
  0
LWPOLYLINE
  5
143
330
17
100
AcDbEntity
  8
EQUIPMENT_FRAME
  6
DASHED
100
AcDbPolyline
 90
5
 70
0
 10
720.0
 20
870.0
 10
910.0
 20
870.0
 10
910.0
 20
950.0
 10
720.0
 20
950.0
 10
720.0
 20
870.0
  0
TEXT
  5
144
330
17
100
AcDbEntity
  8
TEXT_EQUIPMENT
100
AcDbText
 10
815.0
 20
928.0
 30
0.0
 40
8.0
  1
Dedert Package
 72
1
 11
815.0
 21
928.0
 31
0.0
100
AcDbText
  0
TEXT
  5
145
330
17
100
AcDbEntity
  8
TEXT_SUBTITLE
 62
4
100
AcDbText
 10
815.0
 20
910.0
 30
0.0
 40
7.0
  1
Burner (10.81.x.x)
 72
1
 11
815.0
 21
910.0
 31
0.0
100
AcDbText
  0
TEXT
  5
146
330
17
100
AcDbEntity
  8
TEXT_ANNOTATION
 62
2
100
AcDbText
 10
815.0
 20
885.0
 30
0.0
 40
6.0
  1
Burner BMS PLC
 72
1
 11
815.0
 21
885.0
 31
0.0
100
AcDbText
  0
LWPOLYLINE
  5
147
330
17
100
AcDbEntity
  8
EQUIPMENT_FRAME
  6
DASHED
100
AcDbPolyline
 90
5
 70
0
 10
950.0
 20
870.0
 10
1130.0
 20
870.0
 10
1130.0
 20
950.0
 10
950.0
 20
950.0
 10
950.0
 20
870.0
  0
TEXT
  5
148
330
17
100
AcDbEntity
  8
TEXT_EQUIPMENT
100
AcDbText
 10
1040.0
 20
928.0
 30
0.0
 40
8.0
  1
B+B Packer
 72
1
 11
1040.0
 21
928.0
 31
0.0
100
AcDbText
  0
TEXT
  5
149
330
17
100
AcDbEntity
  8
TEXT_SUBTITLE
 62
4
100
AcDbText
 10
1040.0
 20
910.0
 30
0.0
 40
7.0
  1
Bagging System
 72
1
 11
1040.0
 21
910.0
 31
0.0
100
AcDbText
  0
TEXT
  5
14A
330
17
100
AcDbEntity
  8
TEXT_ANNOTATION
 62
2
100
AcDbText
 10
1040.0
 20
885.0
 30
0.0
 40
6.0
  1
Bag Packing PLC
 72
1
 11
1040.0
 21
885.0
 31
0.0
100
AcDbText
  0
LWPOLYLINE
  5
14B
330
17
100
AcDbEntity
  8
EQUIPMENT_FRAME
  6
DASHED
100
AcDbPolyline
 90
5
 70
0
 10
1170.0
 20
870.0
 10
1350.0
 20
870.0
 10
1350.0
 20
950.0
 10
1170.0
 20
950.0
 10
1170.0
 20
870.0
  0
TEXT
  5
14C
330
17
100
AcDbEntity
  8
TEXT_EQUIPMENT
100
AcDbText
 10
1260.0
 20
928.0
 30
0.0
 40
8.0
  1
Palletizer
 72
1
 11
1260.0
 21
928.0
 31
0.0
100
AcDbText
  0
TEXT
  5
14D
330
17
100
AcDbEntity
  8
TEXT_SUBTITLE
 62
4
100
AcDbText
 10
1260.0
 20
910.0
 30
0.0
 40
7.0
  1
Bag Palletizer Robot
 72
1
 11
1260.0
 21
910.0
 31
0.0
100
AcDbText
  0
TEXT
  5
14E
330
17
100
AcDbEntity
  8
TEXT_ANNOTATION
 62
2
100
AcDbText
 10
1260.0
 20
885.0
 30
0.0
 40
6.0
  1
Palletizer Controller
 72
1
 11
1260.0
 21
885.0
 31
0.0
100
AcDbText
  0
LWPOLYLINE
  5
14F
330
17
100
AcDbEntity
  8
EQUIPMENT_FRAME
  6
DASHED
100
AcDbPolyline
 90
5
 70
0
 10
1390.0
 20
870.0
 10
1570.0
 20
870.0
 10
1570.0
 20
950.0
 10
1390.0
 20
950.0
 10
1390.0
 20
870.0
  0
TEXT
  5
150
330
17
100
AcDbEntity
  8
TEXT_EQUIPMENT
100
AcDbText
 10
1480.0
 20
928.0
 30
0.0
 40
8.0
  1
Rework
 72
1
 11
1480.0
 21
928.0
 31
0.0
100
AcDbText
  0
TEXT
  5
151
330
17
100
AcDbEntity
  8
TEXT_SUBTITLE
 62
4
100
AcDbText
 10
1480.0
 20
910.0
 30
0.0
 40
7.0
  1
Starch Rework Skid
 72
1
 11
1480.0
 21
910.0
 31
0.0
100
AcDbText
  0
TEXT
  5
152
330
17
100
AcDbEntity
  8
TEXT_ANNOTATION
 62
2
100
AcDbText
 10
1480.0
 20
885.0
 30
0.0
 40
6.0
  1
Rework Skid I/O
 72
1
 11
1480.0
 21
885.0
 31
0.0
100
AcDbText
  0
LWPOLYLINE
  5
153
330
17
100
AcDbEntity
  8
EQUIPMENT_FRAME
  6
DASHED
100
AcDbPolyline
 90
5
 70
0
 10
1610.0
 20
870.0
 10
1790.0
 20
870.0
 10
1790.0
 20
950.0
 10
1610.0
 20
950.0
 10
1610.0
 20
870.0
  0
TEXT
  5
154
330
17
100
AcDbEntity
  8
TEXT_EQUIPMENT
100
AcDbText
 10
1700.0
 20
928.0
 30
0.0
 40
8.0
  1
Boiler
 72
1
 11
1700.0
 21
928.0
 31
0.0
100
AcDbText
  0
TEXT
  5
155
330
17
100
AcDbEntity
  8
TEXT_SUBTITLE
 62
4
100
AcDbText
 10
1700.0
 20
910.0
 30
0.0
 40
7.0
  1
Steam Boiler Package
 72
1
 11
1700.0
 21
910.0
 31
0.0
100
AcDbText
  0
TEXT
  5
156
330
17
100
AcDbEntity
  8
TEXT_ANNOTATION
 62
2
100
AcDbText
 10
1700.0
 20
885.0
 30
0.0
 40
6.0
  1
Boiler Control Panel
 72
1
 11
1700.0
 21
885.0
 31
0.0
100
AcDbText
  0
LWPOLYLINE
  5
157
330
17
100
AcDbEntity
  8
PANEL_ENCLOSURE
  6
ByLayer
100
AcDbPolyline
 90
5
 70
0
 10
55.0
 20
120.0
 10
835.0
 20
120.0
 10
835.0
 20
1010.0
 10
55.0
 20
1010.0
 10
55.0
 20
120.0
  0
TEXT
  5
158
330
17
100
AcDbEntity
  8
TEXT_TITLE
100
AcDbText
 10
75.0
 20
985.0
 30
0.0
 40
10.0
  1
MAIN CONTROL PANEL (MCP-01) — AREA 602 DRYER BUILDING
 11
75.0
 21
985.0
 31
0.0
100
AcDbText
  0
LWPOLYLINE
  5
159
330
17
100
AcDbEntity
  8
EQUIPMENT_FRAME
  6
ByLayer
100
AcDbPolyline
 90
5
 70
0
 10
75.0
 20
880.0
 10
815.0
 20
880.0
 10
815.0
 20
970.0
 10
75.0
 20
970.0
 10
75.0
 20
880.0
  0
TEXT
  5
15A
330
17
100
AcDbEntity
  8
TEXT_EQUIPMENT
100
AcDbText
 10
85.0
 20
955.0
 30
0.0
 40
8.0
  1
POWER DISTRIBUTION & UTILITY ZONE
 11
85.0
 21
955.0
 31
0.0
100
AcDbText
  0
LWPOLYLINE
  5
15B
330
17
100
AcDbEntity
  8
EQUIPMENT_DETAIL
  6
ByLayer
100
AcDbPolyline
 90
5
 70
0
 10
95.0
 20
890.0
 10
195.0
 20
890.0
 10
195.0
 20
940.0
 10
95.0
 20
940.0
 10
95.0
 20
890.0
  0
TEXT
  5
15C
330
17
100
AcDbEntity
  8
TEXT_EQUIPMENT
100
AcDbText
 10
145.0
 20
920.0
 30
0.0
 40
6.0
  1
24VDC 20A PSU 1
 72
1
 11
145.0
 21
920.0
 31
0.0
100
AcDbText
  0
LWPOLYLINE
  5
15D
330
17
100
AcDbEntity
  8
EQUIPMENT_DETAIL
  6
ByLayer
100
AcDbPolyline
 90
5
 70
0
 10
215.0
 20
890.0
 10
315.0
 20
890.0
 10
315.0
 20
940.0
 10
215.0
 20
940.0
 10
215.0
 20
890.0
  0
TEXT
  5
15E
330
17
100
AcDbEntity
  8
TEXT_EQUIPMENT
100
AcDbText
 10
265.0
 20
920.0
 30
0.0
 40
6.0
  1
24VDC 20A PSU 2
 72
1
 11
265.0
 21
920.0
 31
0.0
100
AcDbText
  0
LWPOLYLINE
  5
15F
330
17
100
AcDbEntity
  8
EQUIPMENT_DETAIL
  6
ByLayer
100
AcDbPolyline
 90
5
 70
0
 10
355.0
 20
890.0
 10
515.0
 20
890.0
 10
515.0
 20
940.0
 10
355.0
 20
940.0
 10
355.0
 20
890.0
  0
TEXT
  5
160
330
17
100
AcDbEntity
  8
TEXT_EQUIPMENT
 62
3
100
AcDbText
 10
435.0
 20
925.0
 30
0.0
 40
7.0
  1
1783-ETAP2F / MC-01
 72
1
 11
435.0
 21
925.0
 31
0.0
100
AcDbText
  0
TEXT
  5
161
330
17
100
AcDbEntity
  8
TEXT_SUBTITLE
 62
6
100
AcDbText
 10
435.0
 20
908.0
 30
0.0
 40
6.0
  1
DLR Fiber Tap (MCP side)
 72
1
 11
435.0
 21
908.0
 31
0.0
100
AcDbText
  0
LWPOLYLINE
  5
162
330
17
100
AcDbEntity
  8
PLC_CHASSIS
  6
ByLayer
 62
5
100
AcDbPolyline
 90
5
 70
0
 10
75.0
 20
690.0
 10
815.0
 20
690.0
 10
815.0
 20
820.0
 10
75.0
 20
820.0
 10
75.0
 20
690.0
  0
TEXT
  5
163
330
17
100
AcDbEntity
  8
TEXT_EQUIPMENT
 62
7
100
AcDbText
 10
90.0
 20
802.0
 30
0.0
 40
8.0
  1
RACK 1 (CS1) — 1756-L950TPSXT Master Controller & DLR Supervisor
 11
90.0
 21
802.0
 31
0.0
100
AcDbText
  0
LWPOLYLINE
  5
164
330
17
100
AcDbEntity
  8
PLC_MODULE
  6
ByLayer
 62
8
100
AcDbPolyline
 90
5
 70
0
 10
85.0
 20
698.0
 10
120.0
 20
698.0
 10
120.0
 20
796.0
 10
85.0
 20
796.0
 10
85.0
 20
698.0
  0
TEXT
  5
165
330
17
100
AcDbEntity
  8
TEXT_EQUIPMENT
100
AcDbText
 10
102.0
 20
755.0
 30
0.0
 40
6.0
  1
PWR
 72
1
 11
102.0
 21
755.0
 31
0.0
100
AcDbText
  0
LWPOLYLINE
  5
166
330
17
100
AcDbEntity
  8
PLC_MODULE
  6
ByLayer
 62
4
100
AcDbPolyline
 90
5
 70
0
 10
127.0
 20
698.0
 10
175.9230769230769
 20
698.0
 10
175.9230769230769
 20
796.0
 10
127.0
 20
796.0
 10
127.0
 20
698.0
  0
TEXT
  5
167
330
17
100
AcDbEntity
  8
TEXT_EQUIPMENT
100
AcDbText
 10
151.46153846153845
 20
786.0
 30
0.0
 40
5.0
  1
00
 72
1
 11
151.46153846153845
 21
786.0
 31
0.0
100
AcDbText
  0
TEXT
  5
168
330
17
100
AcDbEntity
  8
TEXT_MODULE
 62
3
100
AcDbText
 10
151.46153846153845
 20
713.0
 30
0.0
 40
5.0
  1
CPU
 72
1
 11
151.46153846153845
 21
713.0
 31
0.0
100
AcDbText
  0
LWPOLYLINE
  5
169
330
17
100
AcDbEntity
  8
PLC_MODULE
  6
ByLayer
 62
4
100
AcDbPolyline
 90
5
 70
0
 10
178.9230769230769
 20
698.0
 10
227.8461538461538
 20
698.0
 10
227.8461538461538
 20
796.0
 10
178.9230769230769
 20
796.0
 10
178.9230769230769
 20
698.0
  0
TEXT
  5
16A
330
17
100
AcDbEntity
  8
TEXT_EQUIPMENT
100
AcDbText
 10
203.38461538461536
 20
786.0
 30
0.0
 40
5.0
  1
01
 72
1
 11
203.38461538461536
 21
786.0
 31
0.0
100
AcDbText
  0
TEXT
  5
16B
330
17
100
AcDbEntity
  8
TEXT_MODULE
 62
3
100
AcDbText
 10
203.38461538461536
 20
713.0
 30
0.0
 40
5.0
  1
EN4T
 72
1
 11
203.38461538461536
 21
713.0
 31
0.0
100
AcDbText
  0
LWPOLYLINE
  5
16C
330
17
100
AcDbEntity
  8
PLC_MODULE
  6
ByLayer
 62
4
100
AcDbPolyline
 90
5
 70
0
 10
230.84615384615384
 20
698.0
 10
279.7692307692308
 20
698.0
 10
279.7692307692308
 20
796.0
 10
230.84615384615384
 20
796.0
 10
230.84615384615384
 20
698.0
  0
TEXT
  5
16D
330
17
100
AcDbEntity
  8
TEXT_EQUIPMENT
100
AcDbText
 10
255.30769230769232
 20
786.0
 30
0.0
 40
5.0
  1
02
 72
1
 11
255.30769230769232
 21
786.0
 31
0.0
100
AcDbText
  0
TEXT
  5
16E
330
17
100
AcDbEntity
  8
TEXT_MODULE
 62
3
100
AcDbText
 10
255.30769230769232
 20
713.0
 30
0.0
 40
5.0
  1
EN4T
 72
1
 11
255.30769230769232
 21
713.0
 31
0.0
100
AcDbText
  0
LWPOLYLINE
  5
16F
330
17
100
AcDbEntity
  8
PLC_MODULE
  6
ByLayer
 62
4
100
AcDbPolyline
 90
5
 70
0
 10
282.7692307692308
 20
698.0
 10
331.6923076923077
 20
698.0
 10
331.6923076923077
 20
796.0
 10
282.7692307692308
 20
796.0
 10
282.7692307692308
 20
698.0
  0
TEXT
  5
170
330
17
100
AcDbEntity
  8
TEXT_EQUIPMENT
100
AcDbText
 10
307.2307692307692
 20
786.0
 30
0.0
 40
5.0
  1
03
 72
1
 11
307.2307692307692
 21
786.0
 31
0.0
100
AcDbText
  0
TEXT
  5
171
330
17
100
AcDbEntity
  8
TEXT_MODULE
 62
7
100
AcDbText
 10
307.2307692307692
 20
713.0
 30
0.0
 40
5.0
  1
32DI
 72
1
 11
307.2307692307692
 21
713.0
 31
0.0
100
AcDbText
  0
LWPOLYLINE
  5
172
330
17
100
AcDbEntity
  8
PLC_MODULE
  6
ByLayer
 62
4
100
AcDbPolyline
 90
5
 70
0
 10
334.6923076923077
 20
698.0
 10
383.6153846153846
 20
698.0
 10
383.6153846153846
 20
796.0
 10
334.6923076923077
 20
796.0
 10
334.6923076923077
 20
698.0
  0
TEXT
  5
173
330
17
100
AcDbEntity
  8
TEXT_EQUIPMENT
100
AcDbText
 10
359.15384615384613
 20
786.0
 30
0.0
 40
5.0
  1
04
 72
1
 11
359.15384615384613
 21
786.0
 31
0.0
100
AcDbText
  0
TEXT
  5
174
330
17
100
AcDbEntity
  8
TEXT_MODULE
 62
7
100
AcDbText
 10
359.15384615384613
 20
713.0
 30
0.0
 40
5.0
  1
32DI
 72
1
 11
359.15384615384613
 21
713.0
 31
0.0
100
AcDbText
  0
LWPOLYLINE
  5
175
330
17
100
AcDbEntity
  8
PLC_MODULE
  6
ByLayer
 62
4
100
AcDbPolyline
 90
5
 70
0
 10
386.6153846153846
 20
698.0
 10
435.5384615384615
 20
698.0
 10
435.5384615384615
 20
796.0
 10
386.6153846153846
 20
796.0
 10
386.6153846153846
 20
698.0
  0
TEXT
  5
176
330
17
100
AcDbEntity
  8
TEXT_EQUIPMENT
100
AcDbText
 10
411.07692307692304
 20
786.0
 30
0.0
 40
5.0
  1
05
 72
1
 11
411.07692307692304
 21
786.0
 31
0.0
100
AcDbText
  0
TEXT
  5
177
330
17
100
AcDbEntity
  8
TEXT_MODULE
 62
7
100
AcDbText
 10
411.07692307692304
 20
713.0
 30
0.0
 40
5.0
  1
32DI
 72
1
 11
411.07692307692304
 21
713.0
 31
0.0
100
AcDbText
  0
LWPOLYLINE
  5
178
330
17
100
AcDbEntity
  8
PLC_MODULE
  6
ByLayer
 62
4
100
AcDbPolyline
 90
5
 70
0
 10
438.53846153846155
 20
698.0
 10
487.46153846153845
 20
698.0
 10
487.46153846153845
 20
796.0
 10
438.53846153846155
 20
796.0
 10
438.53846153846155
 20
698.0
  0
TEXT
  5
179
330
17
100
AcDbEntity
  8
TEXT_EQUIPMENT
100
AcDbText
 10
463.0
 20
786.0
 30
0.0
 40
5.0
  1
06
 72
1
 11
463.0
 21
786.0
 31
0.0
100
AcDbText
  0
TEXT
  5
17A
330
17
100
AcDbEntity
  8
TEXT_MODULE
 62
7
100
AcDbText
 10
463.0
 20
713.0
 30
0.0
 40
5.0
  1
32DI
 72
1
 11
463.0
 21
713.0
 31
0.0
100
AcDbText
  0
LWPOLYLINE
  5
17B
330
17
100
AcDbEntity
  8
PLC_MODULE
  6
ByLayer
 62
4
100
AcDbPolyline
 90
5
 70
0
 10
490.46153846153845
 20
698.0
 10
539.3846153846154
 20
698.0
 10
539.3846153846154
 20
796.0
 10
490.46153846153845
 20
796.0
 10
490.46153846153845
 20
698.0
  0
TEXT
  5
17C
330
17
100
AcDbEntity
  8
TEXT_EQUIPMENT
100
AcDbText
 10
514.9230769230769
 20
786.0
 30
0.0
 40
5.0
  1
07
 72
1
 11
514.9230769230769
 21
786.0
 31
0.0
100
AcDbText
  0
TEXT
  5
17D
330
17
100
AcDbEntity
  8
TEXT_MODULE
 62
7
100
AcDbText
 10
514.9230769230769
 20
713.0
 30
0.0
 40
5.0
  1
32DO
 72
1
 11
514.9230769230769
 21
713.0
 31
0.0
100
AcDbText
  0
LWPOLYLINE
  5
17E
330
17
100
AcDbEntity
  8
PLC_MODULE
  6
ByLayer
 62
4
100
AcDbPolyline
 90
5
 70
0
 10
542.3846153846154
 20
698.0
 10
591.3076923076923
 20
698.0
 10
591.3076923076923
 20
796.0
 10
542.3846153846154
 20
796.0
 10
542.3846153846154
 20
698.0
  0
TEXT
  5
17F
330
17
100
AcDbEntity
  8
TEXT_EQUIPMENT
100
AcDbText
 10
566.8461538461538
 20
786.0
 30
0.0
 40
5.0
  1
08
 72
1
 11
566.8461538461538
 21
786.0
 31
0.0
100
AcDbText
  0
TEXT
  5
180
330
17
100
AcDbEntity
  8
TEXT_MODULE
 62
7
100
AcDbText
 10
566.8461538461538
 20
713.0
 30
0.0
 40
5.0
  1
32DO
 72
1
 11
566.8461538461538
 21
713.0
 31
0.0
100
AcDbText
  0
LWPOLYLINE
  5
181
330
17
100
AcDbEntity
  8
PLC_MODULE
  6
ByLayer
 62
4
100
AcDbPolyline
 90
5
 70
0
 10
594.3076923076923
 20
698.0
 10
643.2307692307692
 20
698.0
 10
643.2307692307692
 20
796.0
 10
594.3076923076923
 20
796.0
 10
594.3076923076923
 20
698.0
  0
TEXT
  5
182
330
17
100
AcDbEntity
  8
TEXT_EQUIPMENT
100
AcDbText
 10
618.7692307692307
 20
786.0
 30
0.0
 40
5.0
  1
09
 72
1
 11
618.7692307692307
 21
786.0
 31
0.0
100
AcDbText
  0
TEXT
  5
183
330
17
100
AcDbEntity
  8
TEXT_MODULE
 62
7
100
AcDbText
 10
618.7692307692307
 20
713.0
 30
0.0
 40
5.0
  1
16AI
 72
1
 11
618.7692307692307
 21
713.0
 31
0.0
100
AcDbText
  0
LWPOLYLINE
  5
184
330
17
100
AcDbEntity
  8
PLC_MODULE
  6
ByLayer
 62
4
100
AcDbPolyline
 90
5
 70
0
 10
646.2307692307692
 20
698.0
 10
695.1538461538461
 20
698.0
 10
695.1538461538461
 20
796.0
 10
646.2307692307692
 20
796.0
 10
646.2307692307692
 20
698.0
  0
TEXT
  5
185
330
17
100
AcDbEntity
  8
TEXT_EQUIPMENT
100
AcDbText
 10
670.6923076923076
 20
786.0
 30
0.0
 40
5.0
  1
10
 72
1
 11
670.6923076923076
 21
786.0
 31
0.0
100
AcDbText
  0
TEXT
  5
186
330
17
100
AcDbEntity
  8
TEXT_MODULE
 62
7
100
AcDbText
 10
670.6923076923076
 20
713.0
 30
0.0
 40
5.0
  1
16AI
 72
1
 11
670.6923076923076
 21
713.0
 31
0.0
100
AcDbText
  0
LWPOLYLINE
  5
187
330
17
100
AcDbEntity
  8
PLC_MODULE
  6
ByLayer
 62
4
100
AcDbPolyline
 90
5
 70
0
 10
698.1538461538461
 20
698.0
 10
747.076923076923
 20
698.0
 10
747.076923076923
 20
796.0
 10
698.1538461538461
 20
796.0
 10
698.1538461538461
 20
698.0
  0
TEXT
  5
188
330
17
100
AcDbEntity
  8
TEXT_EQUIPMENT
100
AcDbText
 10
722.6153846153845
 20
786.0
 30
0.0
 40
5.0
  1
11
 72
1
 11
722.6153846153845
 21
786.0
 31
0.0
100
AcDbText
  0
TEXT
  5
189
330
17
100
AcDbEntity
  8
TEXT_MODULE
 62
7
100
AcDbText
 10
722.6153846153845
 20
713.0
 30
0.0
 40
5.0
  1
8AO
 72
1
 11
722.6153846153845
 21
713.0
 31
0.0
100
AcDbText
  0
LWPOLYLINE
  5
18A
330
17
100
AcDbEntity
  8
PLC_MODULE
  6
ByLayer
 62
4
100
AcDbPolyline
 90
5
 70
0
 10
750.0769230769231
 20
698.0
 10
799.0
 20
698.0
 10
799.0
 20
796.0
 10
750.0769230769231
 20
796.0
 10
750.0769230769231
 20
698.0
  0
TEXT
  5
18B
330
17
100
AcDbEntity
  8
TEXT_EQUIPMENT
100
AcDbText
 10
774.5384615384615
 20
786.0
 30
0.0
 40
5.0
  1
12
 72
1
 11
774.5384615384615
 21
786.0
 31
0.0
100
AcDbText
  0
TEXT
  5
18C
330
17
100
AcDbEntity
  8
TEXT_MODULE
 62
7
100
AcDbText
 10
774.5384615384615
 20
713.0
 30
0.0
 40
5.0
  1
8AO
 72
1
 11
774.5384615384615
 21
713.0
 31
0.0
100
AcDbText
  0
LWPOLYLINE
  5
18D
330
17
100
AcDbEntity
  8
PLC_CHASSIS
  6
ByLayer
 62
5
100
AcDbPolyline
 90
5
 70
0
 10
75.0
 20
520.0
 10
815.0
 20
520.0
 10
815.0
 20
650.0
 10
75.0
 20
650.0
 10
75.0
 20
520.0
  0
TEXT
  5
18E
330
17
100
AcDbEntity
  8
TEXT_EQUIPMENT
 62
7
100
AcDbText
 10
90.0
 20
632.0
 30
0.0
 40
8.0
  1
RACK 2 (CS2) — Expansion Rack 1 (1756-EN4TR in Slot 00)
 11
90.0
 21
632.0
 31
0.0
100
AcDbText
  0
LWPOLYLINE
  5
18F
330
17
100
AcDbEntity
  8
PLC_MODULE
  6
ByLayer
 62
8
100
AcDbPolyline
 90
5
 70
0
 10
85.0
 20
528.0
 10
120.0
 20
528.0
 10
120.0
 20
626.0
 10
85.0
 20
626.0
 10
85.0
 20
528.0
  0
TEXT
  5
190
330
17
100
AcDbEntity
  8
TEXT_EQUIPMENT
100
AcDbText
 10
102.0
 20
585.0
 30
0.0
 40
6.0
  1
PWR
 72
1
 11
102.0
 21
585.0
 31
0.0
100
AcDbText
  0
LWPOLYLINE
  5
191
330
17
100
AcDbEntity
  8
PLC_MODULE
  6
ByLayer
 62
4
100
AcDbPolyline
 90
5
 70
0
 10
127.0
 20
528.0
 10
175.9230769230769
 20
528.0
 10
175.9230769230769
 20
626.0
 10
127.0
 20
626.0
 10
127.0
 20
528.0
  0
TEXT
  5
192
330
17
100
AcDbEntity
  8
TEXT_EQUIPMENT
100
AcDbText
 10
151.46153846153845
 20
616.0
 30
0.0
 40
5.0
  1
00
 72
1
 11
151.46153846153845
 21
616.0
 31
0.0
100
AcDbText
  0
TEXT
  5
193
330
17
100
AcDbEntity
  8
TEXT_MODULE
 62
3
100
AcDbText
 10
151.46153846153845
 20
543.0
 30
0.0
 40
5.0
  1
EN4T
 72
1
 11
151.46153846153845
 21
543.0
 31
0.0
100
AcDbText
  0
LWPOLYLINE
  5
194
330
17
100
AcDbEntity
  8
PLC_MODULE
  6
ByLayer
 62
4
100
AcDbPolyline
 90
5
 70
0
 10
178.9230769230769
 20
528.0
 10
227.8461538461538
 20
528.0
 10
227.8461538461538
 20
626.0
 10
178.9230769230769
 20
626.0
 10
178.9230769230769
 20
528.0
  0
TEXT
  5
195
330
17
100
AcDbEntity
  8
TEXT_EQUIPMENT
100
AcDbText
 10
203.38461538461536
 20
616.0
 30
0.0
 40
5.0
  1
01
 72
1
 11
203.38461538461536
 21
616.0
 31
0.0
100
AcDbText
  0
TEXT
  5
196
330
17
100
AcDbEntity
  8
TEXT_MODULE
 62
7
100
AcDbText
 10
203.38461538461536
 20
543.0
 30
0.0
 40
5.0
  1
32DI
 72
1
 11
203.38461538461536
 21
543.0
 31
0.0
100
AcDbText
  0
LWPOLYLINE
  5
197
330
17
100
AcDbEntity
  8
PLC_MODULE
  6
ByLayer
 62
4
100
AcDbPolyline
 90
5
 70
0
 10
230.84615384615384
 20
528.0
 10
279.7692307692308
 20
528.0
 10
279.7692307692308
 20
626.0
 10
230.84615384615384
 20
626.0
 10
230.84615384615384
 20
528.0
  0
TEXT
  5
198
330
17
100
AcDbEntity
  8
TEXT_EQUIPMENT
100
AcDbText
 10
255.30769230769232
 20
616.0
 30
0.0
 40
5.0
  1
02
 72
1
 11
255.30769230769232
 21
616.0
 31
0.0
100
AcDbText
  0
TEXT
  5
199
330
17
100
AcDbEntity
  8
TEXT_MODULE
 62
7
100
AcDbText
 10
255.30769230769232
 20
543.0
 30
0.0
 40
5.0
  1
32DI
 72
1
 11
255.30769230769232
 21
543.0
 31
0.0
100
AcDbText
  0
LWPOLYLINE
  5
19A
330
17
100
AcDbEntity
  8
PLC_MODULE
  6
ByLayer
 62
4
100
AcDbPolyline
 90
5
 70
0
 10
282.7692307692308
 20
528.0
 10
331.6923076923077
 20
528.0
 10
331.6923076923077
 20
626.0
 10
282.7692307692308
 20
626.0
 10
282.7692307692308
 20
528.0
  0
TEXT
  5
19B
330
17
100
AcDbEntity
  8
TEXT_EQUIPMENT
100
AcDbText
 10
307.2307692307692
 20
616.0
 30
0.0
 40
5.0
  1
03
 72
1
 11
307.2307692307692
 21
616.0
 31
0.0
100
AcDbText
  0
TEXT
  5
19C
330
17
100
AcDbEntity
  8
TEXT_MODULE
 62
7
100
AcDbText
 10
307.2307692307692
 20
543.0
 30
0.0
 40
5.0
  1
32DI
 72
1
 11
307.2307692307692
 21
543.0
 31
0.0
100
AcDbText
  0
LWPOLYLINE
  5
19D
330
17
100
AcDbEntity
  8
PLC_MODULE
  6
ByLayer
 62
4
100
AcDbPolyline
 90
5
 70
0
 10
334.6923076923077
 20
528.0
 10
383.6153846153846
 20
528.0
 10
383.6153846153846
 20
626.0
 10
334.6923076923077
 20
626.0
 10
334.6923076923077
 20
528.0
  0
TEXT
  5
19E
330
17
100
AcDbEntity
  8
TEXT_EQUIPMENT
100
AcDbText
 10
359.15384615384613
 20
616.0
 30
0.0
 40
5.0
  1
04
 72
1
 11
359.15384615384613
 21
616.0
 31
0.0
100
AcDbText
  0
TEXT
  5
19F
330
17
100
AcDbEntity
  8
TEXT_MODULE
 62
7
100
AcDbText
 10
359.15384615384613
 20
543.0
 30
0.0
 40
5.0
  1
32DI
 72
1
 11
359.15384615384613
 21
543.0
 31
0.0
100
AcDbText
  0
LWPOLYLINE
  5
1A0
330
17
100
AcDbEntity
  8
PLC_MODULE
  6
ByLayer
 62
4
100
AcDbPolyline
 90
5
 70
0
 10
386.6153846153846
 20
528.0
 10
435.5384615384615
 20
528.0
 10
435.5384615384615
 20
626.0
 10
386.6153846153846
 20
626.0
 10
386.6153846153846
 20
528.0
  0
TEXT
  5
1A1
330
17
100
AcDbEntity
  8
TEXT_EQUIPMENT
100
AcDbText
 10
411.07692307692304
 20
616.0
 30
0.0
 40
5.0
  1
05
 72
1
 11
411.07692307692304
 21
616.0
 31
0.0
100
AcDbText
  0
TEXT
  5
1A2
330
17
100
AcDbEntity
  8
TEXT_MODULE
 62
7
100
AcDbText
 10
411.07692307692304
 20
543.0
 30
0.0
 40
5.0
  1
32DO
 72
1
 11
411.07692307692304
 21
543.0
 31
0.0
100
AcDbText
  0
LWPOLYLINE
  5
1A3
330
17
100
AcDbEntity
  8
PLC_MODULE
  6
ByLayer
 62
4
100
AcDbPolyline
 90
5
 70
0
 10
438.53846153846155
 20
528.0
 10
487.46153846153845
 20
528.0
 10
487.46153846153845
 20
626.0
 10
438.53846153846155
 20
626.0
 10
438.53846153846155
 20
528.0
  0
TEXT
  5
1A4
330
17
100
AcDbEntity
  8
TEXT_EQUIPMENT
100
AcDbText
 10
463.0
 20
616.0
 30
0.0
 40
5.0
  1
06
 72
1
 11
463.0
 21
616.0
 31
0.0
100
AcDbText
  0
TEXT
  5
1A5
330
17
100
AcDbEntity
  8
TEXT_MODULE
 62
7
100
AcDbText
 10
463.0
 20
543.0
 30
0.0
 40
5.0
  1
32DO
 72
1
 11
463.0
 21
543.0
 31
0.0
100
AcDbText
  0
LWPOLYLINE
  5
1A6
330
17
100
AcDbEntity
  8
PLC_MODULE
  6
ByLayer
 62
4
100
AcDbPolyline
 90
5
 70
0
 10
490.46153846153845
 20
528.0
 10
539.3846153846154
 20
528.0
 10
539.3846153846154
 20
626.0
 10
490.46153846153845
 20
626.0
 10
490.46153846153845
 20
528.0
  0
TEXT
  5
1A7
330
17
100
AcDbEntity
  8
TEXT_EQUIPMENT
100
AcDbText
 10
514.9230769230769
 20
616.0
 30
0.0
 40
5.0
  1
07
 72
1
 11
514.9230769230769
 21
616.0
 31
0.0
100
AcDbText
  0
TEXT
  5
1A8
330
17
100
AcDbEntity
  8
TEXT_MODULE
 62
7
100
AcDbText
 10
514.9230769230769
 20
543.0
 30
0.0
 40
5.0
  1
16AI
 72
1
 11
514.9230769230769
 21
543.0
 31
0.0
100
AcDbText
  0
LWPOLYLINE
  5
1A9
330
17
100
AcDbEntity
  8
PLC_MODULE
  6
ByLayer
 62
4
100
AcDbPolyline
 90
5
 70
0
 10
542.3846153846154
 20
528.0
 10
591.3076923076923
 20
528.0
 10
591.3076923076923
 20
626.0
 10
542.3846153846154
 20
626.0
 10
542.3846153846154
 20
528.0
  0
TEXT
  5
1AA
330
17
100
AcDbEntity
  8
TEXT_EQUIPMENT
100
AcDbText
 10
566.8461538461538
 20
616.0
 30
0.0
 40
5.0
  1
08
 72
1
 11
566.8461538461538
 21
616.0
 31
0.0
100
AcDbText
  0
TEXT
  5
1AB
330
17
100
AcDbEntity
  8
TEXT_MODULE
 62
7
100
AcDbText
 10
566.8461538461538
 20
543.0
 30
0.0
 40
5.0
  1
16AI
 72
1
 11
566.8461538461538
 21
543.0
 31
0.0
100
AcDbText
  0
LWPOLYLINE
  5
1AC
330
17
100
AcDbEntity
  8
PLC_MODULE
  6
ByLayer
 62
4
100
AcDbPolyline
 90
5
 70
0
 10
594.3076923076923
 20
528.0
 10
643.2307692307692
 20
528.0
 10
643.2307692307692
 20
626.0
 10
594.3076923076923
 20
626.0
 10
594.3076923076923
 20
528.0
  0
TEXT
  5
1AD
330
17
100
AcDbEntity
  8
TEXT_EQUIPMENT
100
AcDbText
 10
618.7692307692307
 20
616.0
 30
0.0
 40
5.0
  1
09
 72
1
 11
618.7692307692307
 21
616.0
 31
0.0
100
AcDbText
  0
TEXT
  5
1AE
330
17
100
AcDbEntity
  8
TEXT_MODULE
 62
7
100
AcDbText
 10
618.7692307692307
 20
543.0
 30
0.0
 40
5.0
  1
8AO
 72
1
 11
618.7692307692307
 21
543.0
 31
0.0
100
AcDbText
  0
LWPOLYLINE
  5
1AF
330
17
100
AcDbEntity
  8
PLC_MODULE
  6
ByLayer
 62
4
100
AcDbPolyline
 90
5
 70
0
 10
646.2307692307692
 20
528.0
 10
695.1538461538461
 20
528.0
 10
695.1538461538461
 20
626.0
 10
646.2307692307692
 20
626.0
 10
646.2307692307692
 20
528.0
  0
TEXT
  5
1B0
330
17
100
AcDbEntity
  8
TEXT_EQUIPMENT
100
AcDbText
 10
670.6923076923076
 20
616.0
 30
0.0
 40
5.0
  1
10
 72
1
 11
670.6923076923076
 21
616.0
 31
0.0
100
AcDbText
  0
TEXT
  5
1B1
330
17
100
AcDbEntity
  8
TEXT_MODULE
 62
7
100
AcDbText
 10
670.6923076923076
 20
543.0
 30
0.0
 40
5.0
  1
8AO
 72
1
 11
670.6923076923076
 21
543.0
 31
0.0
100
AcDbText
  0
LWPOLYLINE
  5
1B2
330
17
100
AcDbEntity
  8
PLC_MODULE
  6
ByLayer
 62
4
100
AcDbPolyline
 90
5
 70
0
 10
698.1538461538461
 20
528.0
 10
747.076923076923
 20
528.0
 10
747.076923076923
 20
626.0
 10
698.1538461538461
 20
626.0
 10
698.1538461538461
 20
528.0
  0
TEXT
  5
1B3
330
17
100
AcDbEntity
  8
TEXT_EQUIPMENT
100
AcDbText
 10
722.6153846153845
 20
616.0
 30
0.0
 40
5.0
  1
11
 72
1
 11
722.6153846153845
 21
616.0
 31
0.0
100
AcDbText
  0
TEXT
  5
1B4
330
17
100
AcDbEntity
  8
TEXT_MODULE
 62
7
100
AcDbText
 10
722.6153846153845
 20
543.0
 30
0.0
 40
5.0
  1
N2
 72
1
 11
722.6153846153845
 21
543.0
 31
0.0
100
AcDbText
  0
LWPOLYLINE
  5
1B5
330
17
100
AcDbEntity
  8
PLC_MODULE
  6
ByLayer
 62
4
100
AcDbPolyline
 90
5
 70
0
 10
750.0769230769231
 20
528.0
 10
799.0
 20
528.0
 10
799.0
 20
626.0
 10
750.0769230769231
 20
626.0
 10
750.0769230769231
 20
528.0
  0
TEXT
  5
1B6
330
17
100
AcDbEntity
  8
TEXT_EQUIPMENT
100
AcDbText
 10
774.5384615384615
 20
616.0
 30
0.0
 40
5.0
  1
12
 72
1
 11
774.5384615384615
 21
616.0
 31
0.0
100
AcDbText
  0
TEXT
  5
1B7
330
17
100
AcDbEntity
  8
TEXT_MODULE
 62
7
100
AcDbText
 10
774.5384615384615
 20
543.0
 30
0.0
 40
5.0
  1
N2
 72
1
 11
774.5384615384615
 21
543.0
 31
0.0
100
AcDbText
  0
LWPOLYLINE
  5
1B8
330
17
100
AcDbEntity
  8
PLC_CHASSIS
  6
ByLayer
 62
5
100
AcDbPolyline
 90
5
 70
0
 10
75.0
 20
350.0
 10
815.0
 20
350.0
 10
815.0
 20
480.0
 10
75.0
 20
480.0
 10
75.0
 20
350.0
  0
TEXT
  5
1B9
330
17
100
AcDbEntity
  8
TEXT_EQUIPMENT
 62
7
100
AcDbText
 10
90.0
 20
462.0
 30
0.0
 40
8.0
  1
RACK 3 (CS3) — Expansion Rack 2 (1756-EN4TR in Slot 00)
 11
90.0
 21
462.0
 31
0.0
100
AcDbText
  0
LWPOLYLINE
  5
1BA
330
17
100
AcDbEntity
  8
PLC_MODULE
  6
ByLayer
 62
8
100
AcDbPolyline
 90
5
 70
0
 10
85.0
 20
358.0
 10
120.0
 20
358.0
 10
120.0
 20
456.0
 10
85.0
 20
456.0
 10
85.0
 20
358.0
  0
TEXT
  5
1BB
330
17
100
AcDbEntity
  8
TEXT_EQUIPMENT
100
AcDbText
 10
102.0
 20
415.0
 30
0.0
 40
6.0
  1
PWR
 72
1
 11
102.0
 21
415.0
 31
0.0
100
AcDbText
  0
LWPOLYLINE
  5
1BC
330
17
100
AcDbEntity
  8
PLC_MODULE
  6
ByLayer
 62
4
100
AcDbPolyline
 90
5
 70
0
 10
127.0
 20
358.0
 10
175.9230769230769
 20
358.0
 10
175.9230769230769
 20
456.0
 10
127.0
 20
456.0
 10
127.0
 20
358.0
  0
TEXT
  5
1BD
330
17
100
AcDbEntity
  8
TEXT_EQUIPMENT
100
AcDbText
 10
151.46153846153845
 20
446.0
 30
0.0
 40
5.0
  1
00
 72
1
 11
151.46153846153845
 21
446.0
 31
0.0
100
AcDbText
  0
TEXT
  5
1BE
330
17
100
AcDbEntity
  8
TEXT_MODULE
 62
3
100
AcDbText
 10
151.46153846153845
 20
373.0
 30
0.0
 40
5.0
  1
EN4T
 72
1
 11
151.46153846153845
 21
373.0
 31
0.0
100
AcDbText
  0
LWPOLYLINE
  5
1BF
330
17
100
AcDbEntity
  8
PLC_MODULE
  6
ByLayer
 62
4
100
AcDbPolyline
 90
5
 70
0
 10
178.9230769230769
 20
358.0
 10
227.8461538461538
 20
358.0
 10
227.8461538461538
 20
456.0
 10
178.9230769230769
 20
456.0
 10
178.9230769230769
 20
358.0
  0
TEXT
  5
1C0
330
17
100
AcDbEntity
  8
TEXT_EQUIPMENT
100
AcDbText
 10
203.38461538461536
 20
446.0
 30
0.0
 40
5.0
  1
01
 72
1
 11
203.38461538461536
 21
446.0
 31
0.0
100
AcDbText
  0
TEXT
  5
1C1
330
17
100
AcDbEntity
  8
TEXT_MODULE
 62
7
100
AcDbText
 10
203.38461538461536
 20
373.0
 30
0.0
 40
5.0
  1
32DI
 72
1
 11
203.38461538461536
 21
373.0
 31
0.0
100
AcDbText
  0
LWPOLYLINE
  5
1C2
330
17
100
AcDbEntity
  8
PLC_MODULE
  6
ByLayer
 62
4
100
AcDbPolyline
 90
5
 70
0
 10
230.84615384615384
 20
358.0
 10
279.7692307692308
 20
358.0
 10
279.7692307692308
 20
456.0
 10
230.84615384615384
 20
456.0
 10
230.84615384615384
 20
358.0
  0
TEXT
  5
1C3
330
17
100
AcDbEntity
  8
TEXT_EQUIPMENT
100
AcDbText
 10
255.30769230769232
 20
446.0
 30
0.0
 40
5.0
  1
02
 72
1
 11
255.30769230769232
 21
446.0
 31
0.0
100
AcDbText
  0
TEXT
  5
1C4
330
17
100
AcDbEntity
  8
TEXT_MODULE
 62
7
100
AcDbText
 10
255.30769230769232
 20
373.0
 30
0.0
 40
5.0
  1
32DI
 72
1
 11
255.30769230769232
 21
373.0
 31
0.0
100
AcDbText
  0
LWPOLYLINE
  5
1C5
330
17
100
AcDbEntity
  8
PLC_MODULE
  6
ByLayer
 62
4
100
AcDbPolyline
 90
5
 70
0
 10
282.7692307692308
 20
358.0
 10
331.6923076923077
 20
358.0
 10
331.6923076923077
 20
456.0
 10
282.7692307692308
 20
456.0
 10
282.7692307692308
 20
358.0
  0
TEXT
  5
1C6
330
17
100
AcDbEntity
  8
TEXT_EQUIPMENT
100
AcDbText
 10
307.2307692307692
 20
446.0
 30
0.0
 40
5.0
  1
03
 72
1
 11
307.2307692307692
 21
446.0
 31
0.0
100
AcDbText
  0
TEXT
  5
1C7
330
17
100
AcDbEntity
  8
TEXT_MODULE
 62
7
100
AcDbText
 10
307.2307692307692
 20
373.0
 30
0.0
 40
5.0
  1
32DI
 72
1
 11
307.2307692307692
 21
373.0
 31
0.0
100
AcDbText
  0
LWPOLYLINE
  5
1C8
330
17
100
AcDbEntity
  8
PLC_MODULE
  6
ByLayer
 62
4
100
AcDbPolyline
 90
5
 70
0
 10
334.6923076923077
 20
358.0
 10
383.6153846153846
 20
358.0
 10
383.6153846153846
 20
456.0
 10
334.6923076923077
 20
456.0
 10
334.6923076923077
 20
358.0
  0
TEXT
  5
1C9
330
17
100
AcDbEntity
  8
TEXT_EQUIPMENT
100
AcDbText
 10
359.15384615384613
 20
446.0
 30
0.0
 40
5.0
  1
04
 72
1
 11
359.15384615384613
 21
446.0
 31
0.0
100
AcDbText
  0
TEXT
  5
1CA
330
17
100
AcDbEntity
  8
TEXT_MODULE
 62
7
100
AcDbText
 10
359.15384615384613
 20
373.0
 30
0.0
 40
5.0
  1
32DI
 72
1
 11
359.15384615384613
 21
373.0
 31
0.0
100
AcDbText
  0
LWPOLYLINE
  5
1CB
330
17
100
AcDbEntity
  8
PLC_MODULE
  6
ByLayer
 62
4
100
AcDbPolyline
 90
5
 70
0
 10
386.6153846153846
 20
358.0
 10
435.5384615384615
 20
358.0
 10
435.5384615384615
 20
456.0
 10
386.6153846153846
 20
456.0
 10
386.6153846153846
 20
358.0
  0
TEXT
  5
1CC
330
17
100
AcDbEntity
  8
TEXT_EQUIPMENT
100
AcDbText
 10
411.07692307692304
 20
446.0
 30
0.0
 40
5.0
  1
05
 72
1
 11
411.07692307692304
 21
446.0
 31
0.0
100
AcDbText
  0
TEXT
  5
1CD
330
17
100
AcDbEntity
  8
TEXT_MODULE
 62
7
100
AcDbText
 10
411.07692307692304
 20
373.0
 30
0.0
 40
5.0
  1
32DO
 72
1
 11
411.07692307692304
 21
373.0
 31
0.0
100
AcDbText
  0
LWPOLYLINE
  5
1CE
330
17
100
AcDbEntity
  8
PLC_MODULE
  6
ByLayer
 62
4
100
AcDbPolyline
 90
5
 70
0
 10
438.53846153846155
 20
358.0
 10
487.46153846153845
 20
358.0
 10
487.46153846153845
 20
456.0
 10
438.53846153846155
 20
456.0
 10
438.53846153846155
 20
358.0
  0
TEXT
  5
1CF
330
17
100
AcDbEntity
  8
TEXT_EQUIPMENT
100
AcDbText
 10
463.0
 20
446.0
 30
0.0
 40
5.0
  1
06
 72
1
 11
463.0
 21
446.0
 31
0.0
100
AcDbText
  0
TEXT
  5
1D0
330
17
100
AcDbEntity
  8
TEXT_MODULE
 62
7
100
AcDbText
 10
463.0
 20
373.0
 30
0.0
 40
5.0
  1
32DO
 72
1
 11
463.0
 21
373.0
 31
0.0
100
AcDbText
  0
LWPOLYLINE
  5
1D1
330
17
100
AcDbEntity
  8
PLC_MODULE
  6
ByLayer
 62
4
100
AcDbPolyline
 90
5
 70
0
 10
490.46153846153845
 20
358.0
 10
539.3846153846154
 20
358.0
 10
539.3846153846154
 20
456.0
 10
490.46153846153845
 20
456.0
 10
490.46153846153845
 20
358.0
  0
TEXT
  5
1D2
330
17
100
AcDbEntity
  8
TEXT_EQUIPMENT
100
AcDbText
 10
514.9230769230769
 20
446.0
 30
0.0
 40
5.0
  1
07
 72
1
 11
514.9230769230769
 21
446.0
 31
0.0
100
AcDbText
  0
TEXT
  5
1D3
330
17
100
AcDbEntity
  8
TEXT_MODULE
 62
7
100
AcDbText
 10
514.9230769230769
 20
373.0
 30
0.0
 40
5.0
  1
16AI
 72
1
 11
514.9230769230769
 21
373.0
 31
0.0
100
AcDbText
  0
LWPOLYLINE
  5
1D4
330
17
100
AcDbEntity
  8
PLC_MODULE
  6
ByLayer
 62
4
100
AcDbPolyline
 90
5
 70
0
 10
542.3846153846154
 20
358.0
 10
591.3076923076923
 20
358.0
 10
591.3076923076923
 20
456.0
 10
542.3846153846154
 20
456.0
 10
542.3846153846154
 20
358.0
  0
TEXT
  5
1D5
330
17
100
AcDbEntity
  8
TEXT_EQUIPMENT
100
AcDbText
 10
566.8461538461538
 20
446.0
 30
0.0
 40
5.0
  1
08
 72
1
 11
566.8461538461538
 21
446.0
 31
0.0
100
AcDbText
  0
TEXT
  5
1D6
330
17
100
AcDbEntity
  8
TEXT_MODULE
 62
7
100
AcDbText
 10
566.8461538461538
 20
373.0
 30
0.0
 40
5.0
  1
16AI
 72
1
 11
566.8461538461538
 21
373.0
 31
0.0
100
AcDbText
  0
LWPOLYLINE
  5
1D7
330
17
100
AcDbEntity
  8
PLC_MODULE
  6
ByLayer
 62
4
100
AcDbPolyline
 90
5
 70
0
 10
594.3076923076923
 20
358.0
 10
643.2307692307692
 20
358.0
 10
643.2307692307692
 20
456.0
 10
594.3076923076923
 20
456.0
 10
594.3076923076923
 20
358.0
  0
TEXT
  5
1D8
330
17
100
AcDbEntity
  8
TEXT_EQUIPMENT
100
AcDbText
 10
618.7692307692307
 20
446.0
 30
0.0
 40
5.0
  1
09
 72
1
 11
618.7692307692307
 21
446.0
 31
0.0
100
AcDbText
  0
TEXT
  5
1D9
330
17
100
AcDbEntity
  8
TEXT_MODULE
 62
7
100
AcDbText
 10
618.7692307692307
 20
373.0
 30
0.0
 40
5.0
  1
8AO
 72
1
 11
618.7692307692307
 21
373.0
 31
0.0
100
AcDbText
  0
LWPOLYLINE
  5
1DA
330
17
100
AcDbEntity
  8
PLC_MODULE
  6
ByLayer
 62
4
100
AcDbPolyline
 90
5
 70
0
 10
646.2307692307692
 20
358.0
 10
695.1538461538461
 20
358.0
 10
695.1538461538461
 20
456.0
 10
646.2307692307692
 20
456.0
 10
646.2307692307692
 20
358.0
  0
TEXT
  5
1DB
330
17
100
AcDbEntity
  8
TEXT_EQUIPMENT
100
AcDbText
 10
670.6923076923076
 20
446.0
 30
0.0
 40
5.0
  1
10
 72
1
 11
670.6923076923076
 21
446.0
 31
0.0
100
AcDbText
  0
TEXT
  5
1DC
330
17
100
AcDbEntity
  8
TEXT_MODULE
 62
7
100
AcDbText
 10
670.6923076923076
 20
373.0
 30
0.0
 40
5.0
  1
8AO
 72
1
 11
670.6923076923076
 21
373.0
 31
0.0
100
AcDbText
  0
LWPOLYLINE
  5
1DD
330
17
100
AcDbEntity
  8
PLC_MODULE
  6
ByLayer
 62
4
100
AcDbPolyline
 90
5
 70
0
 10
698.1538461538461
 20
358.0
 10
747.076923076923
 20
358.0
 10
747.076923076923
 20
456.0
 10
698.1538461538461
 20
456.0
 10
698.1538461538461
 20
358.0
  0
TEXT
  5
1DE
330
17
100
AcDbEntity
  8
TEXT_EQUIPMENT
100
AcDbText
 10
722.6153846153845
 20
446.0
 30
0.0
 40
5.0
  1
11
 72
1
 11
722.6153846153845
 21
446.0
 31
0.0
100
AcDbText
  0
TEXT
  5
1DF
330
17
100
AcDbEntity
  8
TEXT_MODULE
 62
7
100
AcDbText
 10
722.6153846153845
 20
373.0
 30
0.0
 40
5.0
  1
N2
 72
1
 11
722.6153846153845
 21
373.0
 31
0.0
100
AcDbText
  0
LWPOLYLINE
  5
1E0
330
17
100
AcDbEntity
  8
PLC_MODULE
  6
ByLayer
 62
4
100
AcDbPolyline
 90
5
 70
0
 10
750.0769230769231
 20
358.0
 10
799.0
 20
358.0
 10
799.0
 20
456.0
 10
750.0769230769231
 20
456.0
 10
750.0769230769231
 20
358.0
  0
TEXT
  5
1E1
330
17
100
AcDbEntity
  8
TEXT_EQUIPMENT
100
AcDbText
 10
774.5384615384615
 20
446.0
 30
0.0
 40
5.0
  1
12
 72
1
 11
774.5384615384615
 21
446.0
 31
0.0
100
AcDbText
  0
TEXT
  5
1E2
330
17
100
AcDbEntity
  8
TEXT_MODULE
 62
7
100
AcDbText
 10
774.5384615384615
 20
373.0
 30
0.0
 40
5.0
  1
N2
 72
1
 11
774.5384615384615
 21
373.0
 31
0.0
100
AcDbText
  0
LWPOLYLINE
  5
1E3
330
17
100
AcDbEntity
  8
PLC_CHASSIS
  6
ByLayer
 62
5
100
AcDbPolyline
 90
5
 70
0
 10
75.0
 20
180.0
 10
815.0
 20
180.0
 10
815.0
 20
310.0
 10
75.0
 20
310.0
 10
75.0
 20
180.0
  0
TEXT
  5
1E4
330
17
100
AcDbEntity
  8
TEXT_EQUIPMENT
 62
7
100
AcDbText
 10
90.0
 20
292.0
 30
0.0
 40
8.0
  1
RACK 4 (CS4) — Expansion Rack 3 (1756-EN4TR in Slot 00)
 11
90.0
 21
292.0
 31
0.0
100
AcDbText
  0
LWPOLYLINE
  5
1E5
330
17
100
AcDbEntity
  8
PLC_MODULE
  6
ByLayer
 62
8
100
AcDbPolyline
 90
5
 70
0
 10
85.0
 20
188.0
 10
120.0
 20
188.0
 10
120.0
 20
286.0
 10
85.0
 20
286.0
 10
85.0
 20
188.0
  0
TEXT
  5
1E6
330
17
100
AcDbEntity
  8
TEXT_EQUIPMENT
100
AcDbText
 10
102.0
 20
245.0
 30
0.0
 40
6.0
  1
PWR
 72
1
 11
102.0
 21
245.0
 31
0.0
100
AcDbText
  0
LWPOLYLINE
  5
1E7
330
17
100
AcDbEntity
  8
PLC_MODULE
  6
ByLayer
 62
4
100
AcDbPolyline
 90
5
 70
0
 10
127.0
 20
188.0
 10
175.9230769230769
 20
188.0
 10
175.9230769230769
 20
286.0
 10
127.0
 20
286.0
 10
127.0
 20
188.0
  0
TEXT
  5
1E8
330
17
100
AcDbEntity
  8
TEXT_EQUIPMENT
100
AcDbText
 10
151.46153846153845
 20
276.0
 30
0.0
 40
5.0
  1
00
 72
1
 11
151.46153846153845
 21
276.0
 31
0.0
100
AcDbText
  0
TEXT
  5
1E9
330
17
100
AcDbEntity
  8
TEXT_MODULE
 62
3
100
AcDbText
 10
151.46153846153845
 20
203.0
 30
0.0
 40
5.0
  1
EN4T
 72
1
 11
151.46153846153845
 21
203.0
 31
0.0
100
AcDbText
  0
LWPOLYLINE
  5
1EA
330
17
100
AcDbEntity
  8
PLC_MODULE
  6
ByLayer
 62
4
100
AcDbPolyline
 90
5
 70
0
 10
178.9230769230769
 20
188.0
 10
227.8461538461538
 20
188.0
 10
227.8461538461538
 20
286.0
 10
178.9230769230769
 20
286.0
 10
178.9230769230769
 20
188.0
  0
TEXT
  5
1EB
330
17
100
AcDbEntity
  8
TEXT_EQUIPMENT
100
AcDbText
 10
203.38461538461536
 20
276.0
 30
0.0
 40
5.0
  1
01
 72
1
 11
203.38461538461536
 21
276.0
 31
0.0
100
AcDbText
  0
TEXT
  5
1EC
330
17
100
AcDbEntity
  8
TEXT_MODULE
 62
7
100
AcDbText
 10
203.38461538461536
 20
203.0
 30
0.0
 40
5.0
  1
32DI
 72
1
 11
203.38461538461536
 21
203.0
 31
0.0
100
AcDbText
  0
LWPOLYLINE
  5
1ED
330
17
100
AcDbEntity
  8
PLC_MODULE
  6
ByLayer
 62
4
100
AcDbPolyline
 90
5
 70
0
 10
230.84615384615384
 20
188.0
 10
279.7692307692308
 20
188.0
 10
279.7692307692308
 20
286.0
 10
230.84615384615384
 20
286.0
 10
230.84615384615384
 20
188.0
  0
TEXT
  5
1EE
330
17
100
AcDbEntity
  8
TEXT_EQUIPMENT
100
AcDbText
 10
255.30769230769232
 20
276.0
 30
0.0
 40
5.0
  1
02
 72
1
 11
255.30769230769232
 21
276.0
 31
0.0
100
AcDbText
  0
TEXT
  5
1EF
330
17
100
AcDbEntity
  8
TEXT_MODULE
 62
7
100
AcDbText
 10
255.30769230769232
 20
203.0
 30
0.0
 40
5.0
  1
32DI
 72
1
 11
255.30769230769232
 21
203.0
 31
0.0
100
AcDbText
  0
LWPOLYLINE
  5
1F0
330
17
100
AcDbEntity
  8
PLC_MODULE
  6
ByLayer
 62
4
100
AcDbPolyline
 90
5
 70
0
 10
282.7692307692308
 20
188.0
 10
331.6923076923077
 20
188.0
 10
331.6923076923077
 20
286.0
 10
282.7692307692308
 20
286.0
 10
282.7692307692308
 20
188.0
  0
TEXT
  5
1F1
330
17
100
AcDbEntity
  8
TEXT_EQUIPMENT
100
AcDbText
 10
307.2307692307692
 20
276.0
 30
0.0
 40
5.0
  1
03
 72
1
 11
307.2307692307692
 21
276.0
 31
0.0
100
AcDbText
  0
TEXT
  5
1F2
330
17
100
AcDbEntity
  8
TEXT_MODULE
 62
7
100
AcDbText
 10
307.2307692307692
 20
203.0
 30
0.0
 40
5.0
  1
32DI
 72
1
 11
307.2307692307692
 21
203.0
 31
0.0
100
AcDbText
  0
LWPOLYLINE
  5
1F3
330
17
100
AcDbEntity
  8
PLC_MODULE
  6
ByLayer
 62
4
100
AcDbPolyline
 90
5
 70
0
 10
334.6923076923077
 20
188.0
 10
383.6153846153846
 20
188.0
 10
383.6153846153846
 20
286.0
 10
334.6923076923077
 20
286.0
 10
334.6923076923077
 20
188.0
  0
TEXT
  5
1F4
330
17
100
AcDbEntity
  8
TEXT_EQUIPMENT
100
AcDbText
 10
359.15384615384613
 20
276.0
 30
0.0
 40
5.0
  1
04
 72
1
 11
359.15384615384613
 21
276.0
 31
0.0
100
AcDbText
  0
TEXT
  5
1F5
330
17
100
AcDbEntity
  8
TEXT_MODULE
 62
7
100
AcDbText
 10
359.15384615384613
 20
203.0
 30
0.0
 40
5.0
  1
32DI
 72
1
 11
359.15384615384613
 21
203.0
 31
0.0
100
AcDbText
  0
LWPOLYLINE
  5
1F6
330
17
100
AcDbEntity
  8
PLC_MODULE
  6
ByLayer
 62
4
100
AcDbPolyline
 90
5
 70
0
 10
386.6153846153846
 20
188.0
 10
435.5384615384615
 20
188.0
 10
435.5384615384615
 20
286.0
 10
386.6153846153846
 20
286.0
 10
386.6153846153846
 20
188.0
  0
TEXT
  5
1F7
330
17
100
AcDbEntity
  8
TEXT_EQUIPMENT
100
AcDbText
 10
411.07692307692304
 20
276.0
 30
0.0
 40
5.0
  1
05
 72
1
 11
411.07692307692304
 21
276.0
 31
0.0
100
AcDbText
  0
TEXT
  5
1F8
330
17
100
AcDbEntity
  8
TEXT_MODULE
 62
7
100
AcDbText
 10
411.07692307692304
 20
203.0
 30
0.0
 40
5.0
  1
32DO
 72
1
 11
411.07692307692304
 21
203.0
 31
0.0
100
AcDbText
  0
LWPOLYLINE
  5
1F9
330
17
100
AcDbEntity
  8
PLC_MODULE
  6
ByLayer
 62
4
100
AcDbPolyline
 90
5
 70
0
 10
438.53846153846155
 20
188.0
 10
487.46153846153845
 20
188.0
 10
487.46153846153845
 20
286.0
 10
438.53846153846155
 20
286.0
 10
438.53846153846155
 20
188.0
  0
TEXT
  5
1FA
330
17
100
AcDbEntity
  8
TEXT_EQUIPMENT
100
AcDbText
 10
463.0
 20
276.0
 30
0.0
 40
5.0
  1
06
 72
1
 11
463.0
 21
276.0
 31
0.0
100
AcDbText
  0
TEXT
  5
1FB
330
17
100
AcDbEntity
  8
TEXT_MODULE
 62
7
100
AcDbText
 10
463.0
 20
203.0
 30
0.0
 40
5.0
  1
32DO
 72
1
 11
463.0
 21
203.0
 31
0.0
100
AcDbText
  0
LWPOLYLINE
  5
1FC
330
17
100
AcDbEntity
  8
PLC_MODULE
  6
ByLayer
 62
4
100
AcDbPolyline
 90
5
 70
0
 10
490.46153846153845
 20
188.0
 10
539.3846153846154
 20
188.0
 10
539.3846153846154
 20
286.0
 10
490.46153846153845
 20
286.0
 10
490.46153846153845
 20
188.0
  0
TEXT
  5
1FD
330
17
100
AcDbEntity
  8
TEXT_EQUIPMENT
100
AcDbText
 10
514.9230769230769
 20
276.0
 30
0.0
 40
5.0
  1
07
 72
1
 11
514.9230769230769
 21
276.0
 31
0.0
100
AcDbText
  0
TEXT
  5
1FE
330
17
100
AcDbEntity
  8
TEXT_MODULE
 62
7
100
AcDbText
 10
514.9230769230769
 20
203.0
 30
0.0
 40
5.0
  1
16AI
 72
1
 11
514.9230769230769
 21
203.0
 31
0.0
100
AcDbText
  0
LWPOLYLINE
  5
1FF
330
17
100
AcDbEntity
  8
PLC_MODULE
  6
ByLayer
 62
4
100
AcDbPolyline
 90
5
 70
0
 10
542.3846153846154
 20
188.0
 10
591.3076923076923
 20
188.0
 10
591.3076923076923
 20
286.0
 10
542.3846153846154
 20
286.0
 10
542.3846153846154
 20
188.0
  0
TEXT
  5
200
330
17
100
AcDbEntity
  8
TEXT_EQUIPMENT
100
AcDbText
 10
566.8461538461538
 20
276.0
 30
0.0
 40
5.0
  1
08
 72
1
 11
566.8461538461538
 21
276.0
 31
0.0
100
AcDbText
  0
TEXT
  5
201
330
17
100
AcDbEntity
  8
TEXT_MODULE
 62
7
100
AcDbText
 10
566.8461538461538
 20
203.0
 30
0.0
 40
5.0
  1
16AI
 72
1
 11
566.8461538461538
 21
203.0
 31
0.0
100
AcDbText
  0
LWPOLYLINE
  5
202
330
17
100
AcDbEntity
  8
PLC_MODULE
  6
ByLayer
 62
4
100
AcDbPolyline
 90
5
 70
0
 10
594.3076923076923
 20
188.0
 10
643.2307692307692
 20
188.0
 10
643.2307692307692
 20
286.0
 10
594.3076923076923
 20
286.0
 10
594.3076923076923
 20
188.0
  0
TEXT
  5
203
330
17
100
AcDbEntity
  8
TEXT_EQUIPMENT
100
AcDbText
 10
618.7692307692307
 20
276.0
 30
0.0
 40
5.0
  1
09
 72
1
 11
618.7692307692307
 21
276.0
 31
0.0
100
AcDbText
  0
TEXT
  5
204
330
17
100
AcDbEntity
  8
TEXT_MODULE
 62
7
100
AcDbText
 10
618.7692307692307
 20
203.0
 30
0.0
 40
5.0
  1
8AO
 72
1
 11
618.7692307692307
 21
203.0
 31
0.0
100
AcDbText
  0
LWPOLYLINE
  5
205
330
17
100
AcDbEntity
  8
PLC_MODULE
  6
ByLayer
 62
4
100
AcDbPolyline
 90
5
 70
0
 10
646.2307692307692
 20
188.0
 10
695.1538461538461
 20
188.0
 10
695.1538461538461
 20
286.0
 10
646.2307692307692
 20
286.0
 10
646.2307692307692
 20
188.0
  0
TEXT
  5
206
330
17
100
AcDbEntity
  8
TEXT_EQUIPMENT
100
AcDbText
 10
670.6923076923076
 20
276.0
 30
0.0
 40
5.0
  1
10
 72
1
 11
670.6923076923076
 21
276.0
 31
0.0
100
AcDbText
  0
TEXT
  5
207
330
17
100
AcDbEntity
  8
TEXT_MODULE
 62
7
100
AcDbText
 10
670.6923076923076
 20
203.0
 30
0.0
 40
5.0
  1
8AO
 72
1
 11
670.6923076923076
 21
203.0
 31
0.0
100
AcDbText
  0
LWPOLYLINE
  5
208
330
17
100
AcDbEntity
  8
PLC_MODULE
  6
ByLayer
 62
4
100
AcDbPolyline
 90
5
 70
0
 10
698.1538461538461
 20
188.0
 10
747.076923076923
 20
188.0
 10
747.076923076923
 20
286.0
 10
698.1538461538461
 20
286.0
 10
698.1538461538461
 20
188.0
  0
TEXT
  5
209
330
17
100
AcDbEntity
  8
TEXT_EQUIPMENT
100
AcDbText
 10
722.6153846153845
 20
276.0
 30
0.0
 40
5.0
  1
11
 72
1
 11
722.6153846153845
 21
276.0
 31
0.0
100
AcDbText
  0
TEXT
  5
20A
330
17
100
AcDbEntity
  8
TEXT_MODULE
 62
7
100
AcDbText
 10
722.6153846153845
 20
203.0
 30
0.0
 40
5.0
  1
N2
 72
1
 11
722.6153846153845
 21
203.0
 31
0.0
100
AcDbText
  0
LWPOLYLINE
  5
20B
330
17
100
AcDbEntity
  8
PLC_MODULE
  6
ByLayer
 62
4
100
AcDbPolyline
 90
5
 70
0
 10
750.0769230769231
 20
188.0
 10
799.0
 20
188.0
 10
799.0
 20
286.0
 10
750.0769230769231
 20
286.0
 10
750.0769230769231
 20
188.0
  0
TEXT
  5
20C
330
17
100
AcDbEntity
  8
TEXT_EQUIPMENT
100
AcDbText
 10
774.5384615384615
 20
276.0
 30
0.0
 40
5.0
  1
12
 72
1
 11
774.5384615384615
 21
276.0
 31
0.0
100
AcDbText
  0
TEXT
  5
20D
330
17
100
AcDbEntity
  8
TEXT_MODULE
 62
7
100
AcDbText
 10
774.5384615384615
 20
203.0
 30
0.0
 40
5.0
  1
N2
 72
1
 11
774.5384615384615
 21
203.0
 31
0.0
100
AcDbText
  0
LWPOLYLINE
  5
20E
330
17
100
AcDbEntity
  8
PANEL_ENCLOSURE
  6
ByLayer
100
AcDbPolyline
 90
5
 70
0
 10
880.0
 20
380.0
 10
1420.0
 20
380.0
 10
1420.0
 20
740.0
 10
880.0
 20
740.0
 10
880.0
 20
380.0
  0
TEXT
  5
20F
330
17
100
AcDbEntity
  8
TEXT_TITLE
100
AcDbText
 10
900.0
 20
715.0
 30
0.0
 40
10.0
  1
RIO Area-200 (PRE-SLURRY EXPANSION PANEL)
 11
900.0
 21
715.0
 31
0.0
100
AcDbText
  0
LWPOLYLINE
  5
210
330
17
100
AcDbEntity
  8
EQUIPMENT_DETAIL
  6
ByLayer
100
AcDbPolyline
 90
5
 70
0
 10
910.0
 20
630.0
 10
1090.0
 20
630.0
 10
1090.0
 20
680.0
 10
910.0
 20
680.0
 10
910.0
 20
630.0
  0
TEXT
  5
211
330
17
100
AcDbEntity
  8
TEXT_EQUIPMENT
 62
3
100
AcDbText
 10
1000.0
 20
662.0
 30
0.0
 40
7.0
  1
1783-ETAP2F / MC-02
 72
1
 11
1000.0
 21
662.0
 31
0.0
100
AcDbText
  0
TEXT
  5
212
330
17
100
AcDbEntity
  8
TEXT_SUBTITLE
 62
6
100
AcDbText
 10
1000.0
 20
645.0
 30
0.0
 40
6.0
  1
DLR Fiber Tap (RIO side)
 72
1
 11
1000.0
 21
645.0
 31
0.0
100
AcDbText
  0
LWPOLYLINE
  5
213
330
17
100
AcDbEntity
  8
PLC_CHASSIS
  6
ByLayer
 62
5
100
AcDbPolyline
 90
5
 70
0
 10
900.0
 20
450.0
 10
1400.0
 20
450.0
 10
1400.0
 20
590.0
 10
900.0
 20
590.0
 10
900.0
 20
450.0
  0
TEXT
  5
214
330
17
100
AcDbEntity
  8
TEXT_EQUIPMENT
 62
7
100
AcDbText
 10
915.0
 20
572.0
 30
0.0
 40
8.0
  1
RACK 5 (CS5) — Remote I/O Chassis via Fiber Optic
 11
915.0
 21
572.0
 31
0.0
100
AcDbText
  0
LWPOLYLINE
  5
215
330
17
100
AcDbEntity
  8
PLC_MODULE
  6
ByLayer
 62
8
100
AcDbPolyline
 90
5
 70
0
 10
910.0
 20
458.0
 10
945.0
 20
458.0
 10
945.0
 20
566.0
 10
910.0
 20
566.0
 10
910.0
 20
458.0
  0
TEXT
  5
216
330
17
100
AcDbEntity
  8
TEXT_EQUIPMENT
100
AcDbText
 10
927.0
 20
520.0
 30
0.0
 40
6.0
  1
PWR
 72
1
 11
927.0
 21
520.0
 31
0.0
100
AcDbText
  0
LWPOLYLINE
  5
217
330
17
100
AcDbEntity
  8
PLC_MODULE
  6
ByLayer
 62
4
100
AcDbPolyline
 90
5
 70
0
 10
952.0
 20
458.0
 10
982.4615384615385
 20
458.0
 10
982.4615384615385
 20
566.0
 10
952.0
 20
566.0
 10
952.0
 20
458.0
  0
TEXT
  5
218
330
17
100
AcDbEntity
  8
TEXT_EQUIPMENT
100
AcDbText
 10
967.2307692307693
 20
556.0
 30
0.0
 40
5.0
  1
00
 72
1
 11
967.2307692307693
 21
556.0
 31
0.0
100
AcDbText
  0
TEXT
  5
219
330
17
100
AcDbEntity
  8
TEXT_MODULE
 62
3
100
AcDbText
 10
967.2307692307693
 20
473.0
 30
0.0
 40
5.0
  1
EN4T
 72
1
 11
967.2307692307693
 21
473.0
 31
0.0
100
AcDbText
  0
LWPOLYLINE
  5
21A
330
17
100
AcDbEntity
  8
PLC_MODULE
  6
ByLayer
 62
4
100
AcDbPolyline
 90
5
 70
0
 10
985.4615384615385
 20
458.0
 10
1015.9230769230769
 20
458.0
 10
1015.9230769230769
 20
566.0
 10
985.4615384615385
 20
566.0
 10
985.4615384615385
 20
458.0
  0
TEXT
  5
21B
330
17
100
AcDbEntity
  8
TEXT_EQUIPMENT
100
AcDbText
 10
1000.6923076923077
 20
556.0
 30
0.0
 40
5.0
  1
01
 72
1
 11
1000.6923076923077
 21
556.0
 31
0.0
100
AcDbText
  0
TEXT
  5
21C
330
17
100
AcDbEntity
  8
TEXT_MODULE
 62
7
100
AcDbText
 10
1000.6923076923077
 20
473.0
 30
0.0
 40
5.0
  1
32DI
 72
1
 11
1000.6923076923077
 21
473.0
 31
0.0
100
AcDbText
  0
LWPOLYLINE
  5
21D
330
17
100
AcDbEntity
  8
PLC_MODULE
  6
ByLayer
 62
4
100
AcDbPolyline
 90
5
 70
0
 10
1018.9230769230769
 20
458.0
 10
1049.3846153846155
 20
458.0
 10
1049.3846153846155
 20
566.0
 10
1018.9230769230769
 20
566.0
 10
1018.9230769230769
 20
458.0
  0
TEXT
  5
21E
330
17
100
AcDbEntity
  8
TEXT_EQUIPMENT
100
AcDbText
 10
1034.1538461538462
 20
556.0
 30
0.0
 40
5.0
  1
02
 72
1
 11
1034.1538461538462
 21
556.0
 31
0.0
100
AcDbText
  0
TEXT
  5
21F
330
17
100
AcDbEntity
  8
TEXT_MODULE
 62
7
100
AcDbText
 10
1034.1538461538462
 20
473.0
 30
0.0
 40
5.0
  1
32DI
 72
1
 11
1034.1538461538462
 21
473.0
 31
0.0
100
AcDbText
  0
LWPOLYLINE
  5
220
330
17
100
AcDbEntity
  8
PLC_MODULE
  6
ByLayer
 62
4
100
AcDbPolyline
 90
5
 70
0
 10
1052.3846153846155
 20
458.0
 10
1082.846153846154
 20
458.0
 10
1082.846153846154
 20
566.0
 10
1052.3846153846155
 20
566.0
 10
1052.3846153846155
 20
458.0
  0
TEXT
  5
221
330
17
100
AcDbEntity
  8
TEXT_EQUIPMENT
100
AcDbText
 10
1067.6153846153848
 20
556.0
 30
0.0
 40
5.0
  1
03
 72
1
 11
1067.6153846153848
 21
556.0
 31
0.0
100
AcDbText
  0
TEXT
  5
222
330
17
100
AcDbEntity
  8
TEXT_MODULE
 62
7
100
AcDbText
 10
1067.6153846153848
 20
473.0
 30
0.0
 40
5.0
  1
32DI
 72
1
 11
1067.6153846153848
 21
473.0
 31
0.0
100
AcDbText
  0
LWPOLYLINE
  5
223
330
17
100
AcDbEntity
  8
PLC_MODULE
  6
ByLayer
 62
4
100
AcDbPolyline
 90
5
 70
0
 10
1085.8461538461538
 20
458.0
 10
1116.3076923076924
 20
458.0
 10
1116.3076923076924
 20
566.0
 10
1085.8461538461538
 20
566.0
 10
1085.8461538461538
 20
458.0
  0
TEXT
  5
224
330
17
100
AcDbEntity
  8
TEXT_EQUIPMENT
100
AcDbText
 10
1101.076923076923
 20
556.0
 30
0.0
 40
5.0
  1
04
 72
1
 11
1101.076923076923
 21
556.0
 31
0.0
100
AcDbText
  0
TEXT
  5
225
330
17
100
AcDbEntity
  8
TEXT_MODULE
 62
7
100
AcDbText
 10
1101.076923076923
 20
473.0
 30
0.0
 40
5.0
  1
32DI
 72
1
 11
1101.076923076923
 21
473.0
 31
0.0
100
AcDbText
  0
LWPOLYLINE
  5
226
330
17
100
AcDbEntity
  8
PLC_MODULE
  6
ByLayer
 62
4
100
AcDbPolyline
 90
5
 70
0
 10
1119.3076923076924
 20
458.0
 10
1149.769230769231
 20
458.0
 10
1149.769230769231
 20
566.0
 10
1119.3076923076924
 20
566.0
 10
1119.3076923076924
 20
458.0
  0
TEXT
  5
227
330
17
100
AcDbEntity
  8
TEXT_EQUIPMENT
100
AcDbText
 10
1134.5384615384617
 20
556.0
 30
0.0
 40
5.0
  1
05
 72
1
 11
1134.5384615384617
 21
556.0
 31
0.0
100
AcDbText
  0
TEXT
  5
228
330
17
100
AcDbEntity
  8
TEXT_MODULE
 62
7
100
AcDbText
 10
1134.5384615384617
 20
473.0
 30
0.0
 40
5.0
  1
32DO
 72
1
 11
1134.5384615384617
 21
473.0
 31
0.0
100
AcDbText
  0
LWPOLYLINE
  5
229
330
17
100
AcDbEntity
  8
PLC_MODULE
  6
ByLayer
 62
4
100
AcDbPolyline
 90
5
 70
0
 10
1152.7692307692307
 20
458.0
 10
1183.2307692307693
 20
458.0
 10
1183.2307692307693
 20
566.0
 10
1152.7692307692307
 20
566.0
 10
1152.7692307692307
 20
458.0
  0
TEXT
  5
22A
330
17
100
AcDbEntity
  8
TEXT_EQUIPMENT
100
AcDbText
 10
1168.0
 20
556.0
 30
0.0
 40
5.0
  1
06
 72
1
 11
1168.0
 21
556.0
 31
0.0
100
AcDbText
  0
TEXT
  5
22B
330
17
100
AcDbEntity
  8
TEXT_MODULE
 62
7
100
AcDbText
 10
1168.0
 20
473.0
 30
0.0
 40
5.0
  1
32DO
 72
1
 11
1168.0
 21
473.0
 31
0.0
100
AcDbText
  0
LWPOLYLINE
  5
22C
330
17
100
AcDbEntity
  8
PLC_MODULE
  6
ByLayer
 62
4
100
AcDbPolyline
 90
5
 70
0
 10
1186.2307692307693
 20
458.0
 10
1216.6923076923078
 20
458.0
 10
1216.6923076923078
 20
566.0
 10
1186.2307692307693
 20
566.0
 10
1186.2307692307693
 20
458.0
  0
TEXT
  5
22D
330
17
100
AcDbEntity
  8
TEXT_EQUIPMENT
100
AcDbText
 10
1201.4615384615386
 20
556.0
 30
0.0
 40
5.0
  1
07
 72
1
 11
1201.4615384615386
 21
556.0
 31
0.0
100
AcDbText
  0
TEXT
  5
22E
330
17
100
AcDbEntity
  8
TEXT_MODULE
 62
7
100
AcDbText
 10
1201.4615384615386
 20
473.0
 30
0.0
 40
5.0
  1
16AI
 72
1
 11
1201.4615384615386
 21
473.0
 31
0.0
100
AcDbText
  0
LWPOLYLINE
  5
22F
330
17
100
AcDbEntity
  8
PLC_MODULE
  6
ByLayer
 62
4
100
AcDbPolyline
 90
5
 70
0
 10
1219.6923076923076
 20
458.0
 10
1250.1538461538462
 20
458.0
 10
1250.1538461538462
 20
566.0
 10
1219.6923076923076
 20
566.0
 10
1219.6923076923076
 20
458.0
  0
TEXT
  5
230
330
17
100
AcDbEntity
  8
TEXT_EQUIPMENT
100
AcDbText
 10
1234.923076923077
 20
556.0
 30
0.0
 40
5.0
  1
08
 72
1
 11
1234.923076923077
 21
556.0
 31
0.0
100
AcDbText
  0
TEXT
  5
231
330
17
100
AcDbEntity
  8
TEXT_MODULE
 62
7
100
AcDbText
 10
1234.923076923077
 20
473.0
 30
0.0
 40
5.0
  1
16AI
 72
1
 11
1234.923076923077
 21
473.0
 31
0.0
100
AcDbText
  0
LWPOLYLINE
  5
232
330
17
100
AcDbEntity
  8
PLC_MODULE
  6
ByLayer
 62
4
100
AcDbPolyline
 90
5
 70
0
 10
1253.1538461538462
 20
458.0
 10
1283.6153846153848
 20
458.0
 10
1283.6153846153848
 20
566.0
 10
1253.1538461538462
 20
566.0
 10
1253.1538461538462
 20
458.0
  0
TEXT
  5
233
330
17
100
AcDbEntity
  8
TEXT_EQUIPMENT
100
AcDbText
 10
1268.3846153846155
 20
556.0
 30
0.0
 40
5.0
  1
09
 72
1
 11
1268.3846153846155
 21
556.0
 31
0.0
100
AcDbText
  0
TEXT
  5
234
330
17
100
AcDbEntity
  8
TEXT_MODULE
 62
7
100
AcDbText
 10
1268.3846153846155
 20
473.0
 30
0.0
 40
5.0
  1
8AO
 72
1
 11
1268.3846153846155
 21
473.0
 31
0.0
100
AcDbText
  0
LWPOLYLINE
  5
235
330
17
100
AcDbEntity
  8
PLC_MODULE
  6
ByLayer
 62
4
100
AcDbPolyline
 90
5
 70
0
 10
1286.6153846153845
 20
458.0
 10
1317.076923076923
 20
458.0
 10
1317.076923076923
 20
566.0
 10
1286.6153846153845
 20
566.0
 10
1286.6153846153845
 20
458.0
  0
TEXT
  5
236
330
17
100
AcDbEntity
  8
TEXT_EQUIPMENT
100
AcDbText
 10
1301.8461538461538
 20
556.0
 30
0.0
 40
5.0
  1
10
 72
1
 11
1301.8461538461538
 21
556.0
 31
0.0
100
AcDbText
  0
TEXT
  5
237
330
17
100
AcDbEntity
  8
TEXT_MODULE
 62
7
100
AcDbText
 10
1301.8461538461538
 20
473.0
 30
0.0
 40
5.0
  1
8AO
 72
1
 11
1301.8461538461538
 21
473.0
 31
0.0
100
AcDbText
  0
LWPOLYLINE
  5
238
330
17
100
AcDbEntity
  8
PLC_MODULE
  6
ByLayer
 62
4
100
AcDbPolyline
 90
5
 70
0
 10
1320.076923076923
 20
458.0
 10
1350.5384615384617
 20
458.0
 10
1350.5384615384617
 20
566.0
 10
1320.076923076923
 20
566.0
 10
1320.076923076923
 20
458.0
  0
TEXT
  5
239
330
17
100
AcDbEntity
  8
TEXT_EQUIPMENT
100
AcDbText
 10
1335.3076923076924
 20
556.0
 30
0.0
 40
5.0
  1
11
 72
1
 11
1335.3076923076924
 21
556.0
 31
0.0
100
AcDbText
  0
TEXT
  5
23A
330
17
100
AcDbEntity
  8
TEXT_MODULE
 62
7
100
AcDbText
 10
1335.3076923076924
 20
473.0
 30
0.0
 40
5.0
  1
N2
 72
1
 11
1335.3076923076924
 21
473.0
 31
0.0
100
AcDbText
  0
LWPOLYLINE
  5
23B
330
17
100
AcDbEntity
  8
PLC_MODULE
  6
ByLayer
 62
4
100
AcDbPolyline
 90
5
 70
0
 10
1353.5384615384614
 20
458.0
 10
1384.0
 20
458.0
 10
1384.0
 20
566.0
 10
1353.5384615384614
 20
566.0
 10
1353.5384615384614
 20
458.0
  0
TEXT
  5
23C
330
17
100
AcDbEntity
  8
TEXT_EQUIPMENT
100
AcDbText
 10
1368.7692307692307
 20
556.0
 30
0.0
 40
5.0
  1
12
 72
1
 11
1368.7692307692307
 21
556.0
 31
0.0
100
AcDbText
  0
TEXT
  5
23D
330
17
100
AcDbEntity
  8
TEXT_MODULE
 62
7
100
AcDbText
 10
1368.7692307692307
 20
473.0
 30
0.0
 40
5.0
  1
N2
 72
1
 11
1368.7692307692307
 21
473.0
 31
0.0
100
AcDbText
  0
LWPOLYLINE
  5
23E
330
17
100
AcDbEntity
  8
PANEL_ENCLOSURE
  6
DASHED
100
AcDbPolyline
 90
5
 70
0
 10
1460.0
 20
240.0
 10
2335.0
 20
240.0
 10
2335.0
 20
740.0
 10
1460.0
 20
740.0
 10
1460.0
 20
240.0
  0
TEXT
  5
23F
330
17
100
AcDbEntity
  8
TEXT_TITLE
100
AcDbText
 10
1480.0
 20
715.0
 30
0.0
 40
10.0
  1
MCC Panel (MOTOR CONTROL CENTER) — POWER & DRIVES
 11
1480.0
 21
715.0
 31
0.0
100
AcDbText
  0
LWPOLYLINE
  5
240
330
17
100
AcDbEntity
  8
EQUIPMENT_FRAME
  6
ByLayer
100
AcDbPolyline
 90
5
 70
0
 10
1480.0
 20
270.0
 10
1683.75
 20
270.0
 10
1683.75
 20
700.0
 10
1480.0
 20
700.0
 10
1480.0
 20
270.0
  0
TEXT
  5
241
330
17
100
AcDbEntity
  8
TEXT_EQUIPMENT
100
AcDbText
 10
1581.875
 20
685.0
 30
0.0
 40
7.0
  1
CUBICLE 1
 72
1
 11
1581.875
 21
685.0
 31
0.0
100
AcDbText
  0
LWPOLYLINE
  5
242
330
17
100
AcDbEntity
  8
EQUIPMENT_FRAME
  6
ByLayer
100
AcDbPolyline
 90
5
 70
0
 10
1688.75
 20
270.0
 10
1892.5
 20
270.0
 10
1892.5
 20
700.0
 10
1688.75
 20
700.0
 10
1688.75
 20
270.0
  0
TEXT
  5
243
330
17
100
AcDbEntity
  8
TEXT_EQUIPMENT
100
AcDbText
 10
1790.625
 20
685.0
 30
0.0
 40
7.0
  1
CUBICLE 2
 72
1
 11
1790.625
 21
685.0
 31
0.0
100
AcDbText
  0
LWPOLYLINE
  5
244
330
17
100
AcDbEntity
  8
EQUIPMENT_FRAME
  6
ByLayer
100
AcDbPolyline
 90
5
 70
0
 10
1897.5
 20
270.0
 10
2101.25
 20
270.0
 10
2101.25
 20
700.0
 10
1897.5
 20
700.0
 10
1897.5
 20
270.0
  0
TEXT
  5
245
330
17
100
AcDbEntity
  8
TEXT_EQUIPMENT
100
AcDbText
 10
1999.375
 20
685.0
 30
0.0
 40
7.0
  1
CUBICLE 3
 72
1
 11
1999.375
 21
685.0
 31
0.0
100
AcDbText
  0
LWPOLYLINE
  5
246
330
17
100
AcDbEntity
  8
EQUIPMENT_FRAME
  6
ByLayer
100
AcDbPolyline
 90
5
 70
0
 10
2106.25
 20
270.0
 10
2310.0
 20
270.0
 10
2310.0
 20
700.0
 10
2106.25
 20
700.0
 10
2106.25
 20
270.0
  0
TEXT
  5
247
330
17
100
AcDbEntity
  8
TEXT_EQUIPMENT
100
AcDbText
 10
2208.125
 20
685.0
 30
0.0
 40
7.0
  1
CUBICLE 4
 72
1
 11
2208.125
 21
685.0
 31
0.0
100
AcDbText
  0
LWPOLYLINE
  5
248
330
17
100
AcDbEntity
  8
EQUIPMENT_DETAIL
  6
ByLayer
100
AcDbPolyline
 90
5
 70
0
 10
1490.0
 20
480.0
 10
1673.75
 20
480.0
 10
1673.75
 20
620.0
 10
1490.0
 20
620.0
 10
1490.0
 20
480.0
  0
TEXT
  5
249
330
17
100
AcDbEntity
  8
TEXT_EQUIPMENT
100
AcDbText
 10
1584.375
 20
590.0
 30
0.0
 40
8.0
  1
MAIN INCOMING ACB
 72
1
 11
1584.375
 21
590.0
 31
0.0
100
AcDbText
  0
TEXT
  5
24A
330
17
100
AcDbEntity
  8
TEXT_EQUIPMENT
100
AcDbText
 10
1584.375
 20
570.0
 30
0.0
 40
7.0
  1
1600A 400V 50Hz 50kA
 72
1
 11
1584.375
 21
570.0
 31
0.0
100
AcDbText
  0
TEXT
  5
24B
330
17
100
AcDbEntity
  8
TEXT_IP_TAG
 62
4
100
AcDbText
 10
1584.375
 20
550.0
 30
0.0
 40
7.0
  1
Power Meter 1408-BC3A
 72
1
 11
1584.375
 21
550.0
 31
0.0
100
AcDbText
  0
LINE
  5
24C
330
17
100
AcDbEntity
  8
EQUIPMENT_DETAIL
  6
ByLayer
 62
2
100
AcDbLine
 10
1500.0
 20
450.0
 30
0.0
 11
2295.0
 21
450.0
 31
0.0
  0
TEXT
  5
24D
330
17
100
AcDbEntity
  8
TEXT_ANNOTATION
 62
2
100
AcDbText
 10
1710.0
 20
456.0
 30
0.0
 40
6.0
  1
400VAC MAIN BUSBAR (COPPER)
 11
1710.0
 21
456.0
 31
0.0
100
AcDbText
  0
LWPOLYLINE
  5
24E
330
17
100
AcDbEntity
  8
EQUIPMENT_DETAIL
  6
ByLayer
100
AcDbPolyline
 90
5
 70
0
 10
1698.75
 20
480.0
 10
1877.5
 20
480.0
 10
1877.5
 20
620.0
 10
1698.75
 20
620.0
 10
1698.75
 20
480.0
  0
TEXT
  5
24F
330
17
100
AcDbEntity
  8
TEXT_EQUIPMENT
100
AcDbText
 10
1793.125
 20
585.0
 30
0.0
 40
7.0
  1
PowerFlex 755 (110kW)
 72
1
 11
1793.125
 21
585.0
 31
0.0
100
AcDbText
  0
TEXT
  5
250
330
17
100
AcDbEntity
  8
TEXT_SUBTITLE
100
AcDbText
 10
1793.125
 20
565.0
 30
0.0
 40
6.0
  1
Main Supply Air Fan FN-60201
 72
1
 11
1793.125
 21
565.0
 31
0.0
100
AcDbText
  0
TEXT
  5
251
330
17
100
AcDbEntity
  8
TEXT_IP_TAG
 62
4
100
AcDbText
 10
1793.125
 20
545.0
 30
0.0
 40
6.0
  1
IP: 192.168.60.21
 72
1
 11
1793.125
 21
545.0
 31
0.0
100
AcDbText
  0
LWPOLYLINE
  5
252
330
17
100
AcDbEntity
  8
EQUIPMENT_DETAIL
  6
ByLayer
100
AcDbPolyline
 90
5
 70
0
 10
1698.75
 20
300.0
 10
1877.5
 20
300.0
 10
1877.5
 20
430.0
 10
1698.75
 20
430.0
 10
1698.75
 20
300.0
  0
TEXT
  5
253
330
17
100
AcDbEntity
  8
TEXT_EQUIPMENT
100
AcDbText
 10
1793.125
 20
400.0
 30
0.0
 40
7.0
  1
PowerFlex 755 (132kW)
 72
1
 11
1793.125
 21
400.0
 31
0.0
100
AcDbText
  0
TEXT
  5
254
330
17
100
AcDbEntity
  8
TEXT_SUBTITLE
100
AcDbText
 10
1793.125
 20
380.0
 30
0.0
 40
6.0
  1
Exhaust Air Fan FN-60202
 72
1
 11
1793.125
 21
380.0
 31
0.0
100
AcDbText
  0
TEXT
  5
255
330
17
100
AcDbEntity
  8
TEXT_IP_TAG
 62
4
100
AcDbText
 10
1793.125
 20
360.0
 30
0.0
 40
6.0
  1
IP: 192.168.60.22
 72
1
 11
1793.125
 21
360.0
 31
0.0
100
AcDbText
  0
LWPOLYLINE
  5
256
330
17
100
AcDbEntity
  8
EQUIPMENT_DETAIL
  6
ByLayer
100
AcDbPolyline
 90
5
 70
0
 10
1907.5
 20
480.0
 10
2086.25
 20
480.0
 10
2086.25
 20
620.0
 10
1907.5
 20
620.0
 10
1907.5
 20
480.0
  0
TEXT
  5
257
330
17
100
AcDbEntity
  8
TEXT_EQUIPMENT
100
AcDbText
 10
2001.875
 20
585.0
 30
0.0
 40
7.0
  1
PowerFlex 525 (18.5kW)
 72
1
 11
2001.875
 21
585.0
 31
0.0
100
AcDbText
  0
TEXT
  5
258
330
17
100
AcDbEntity
  8
TEXT_SUBTITLE
100
AcDbText
 10
2001.875
 20
565.0
 30
0.0
 40
6.0
  1
Slurry Transfer Pump PC-20201
 72
1
 11
2001.875
 21
565.0
 31
0.0
100
AcDbText
  0
TEXT
  5
259
330
17
100
AcDbEntity
  8
TEXT_IP_TAG
 62
4
100
AcDbText
 10
2001.875
 20
545.0
 30
0.0
 40
6.0
  1
IP: 192.168.40.21
 72
1
 11
2001.875
 21
545.0
 31
0.0
100
AcDbText
  0
LWPOLYLINE
  5
25A
330
17
100
AcDbEntity
  8
EQUIPMENT_DETAIL
  6
ByLayer
100
AcDbPolyline
 90
5
 70
0
 10
1907.5
 20
300.0
 10
2086.25
 20
300.0
 10
2086.25
 20
430.0
 10
1907.5
 20
430.0
 10
1907.5
 20
300.0
  0
TEXT
  5
25B
330
17
100
AcDbEntity
  8
TEXT_EQUIPMENT
100
AcDbText
 10
2001.875
 20
400.0
 30
0.0
 40
7.0
  1
PowerFlex 525 (18.5kW)
 72
1
 11
2001.875
 21
400.0
 31
0.0
100
AcDbText
  0
TEXT
  5
25C
330
17
100
AcDbEntity
  8
TEXT_SUBTITLE
100
AcDbText
 10
2001.875
 20
380.0
 30
0.0
 40
6.0
  1
Slurry Transfer Pump PC-20211
 72
1
 11
2001.875
 21
380.0
 31
0.0
100
AcDbText
  0
TEXT
  5
25D
330
17
100
AcDbEntity
  8
TEXT_IP_TAG
 62
4
100
AcDbText
 10
2001.875
 20
360.0
 30
0.0
 40
6.0
  1
IP: 192.168.40.22
 72
1
 11
2001.875
 21
360.0
 31
0.0
100
AcDbText
  0
LWPOLYLINE
  5
25E
330
17
100
AcDbEntity
  8
EQUIPMENT_DETAIL
  6
ByLayer
100
AcDbPolyline
 90
5
 70
0
 10
2116.25
 20
480.0
 10
2295.0
 20
480.0
 10
2295.0
 20
620.0
 10
2116.25
 20
620.0
 10
2116.25
 20
480.0
  0
TEXT
  5
25F
330
17
100
AcDbEntity
  8
TEXT_EQUIPMENT
100
AcDbText
 10
2210.625
 20
585.0
 30
0.0
 40
7.0
  1
Agitator Starters
 72
1
 11
2210.625
 21
585.0
 31
0.0
100
AcDbText
  0
TEXT
  5
260
330
17
100
AcDbEntity
  8
TEXT_SUBTITLE
100
AcDbText
 10
2210.625
 20
565.0
 30
0.0
 40
6.0
  1
ME-20201 / ME-20211
 72
1
 11
2210.625
 21
565.0
 31
0.0
100
AcDbText
  0
TEXT
  5
261
330
17
100
AcDbEntity
  8
TEXT_ANNOTATION
 62
2
100
AcDbText
 10
2210.625
 20
400.0
 30
0.0
 40
8.0
  1
1st SPD Plant Feeder
 72
1
 11
2210.625
 21
400.0
 31
0.0
100
AcDbText
  0
TEXT
  5
262
330
17
100
AcDbEntity
  8
TEXT_ANNOTATION
 62
2
100
AcDbText
 10
2210.625
 20
380.0
 30
0.0
 40
8.0
  1
4th Floor Distribution
 72
1
 11
2210.625
 21
380.0
 31
0.0
100
AcDbText
  0
TEXT
  5
263
330
17
100
AcDbEntity
  8
TEXT_ANNOTATION
 62
2
100
AcDbText
 10
2210.625
 20
360.0
 30
0.0
 40
8.0
  1
Boiler Support Power
 72
1
 11
2210.625
 21
360.0
 31
0.0
100
AcDbText
  0
LWPOLYLINE
  5
264
330
17
100
AcDbEntity
  8
CBL_CONTROL_LAN
  6
ByLayer
 62
1
100
AcDbPolyline
 90
2
 70
0
 10
275.0
 20
1470.0
 10
550.0
 20
1470.0
  0
TEXT
  5
265
330
17
100
AcDbEntity
  8
TEXT_ANNOTATION
 62
2
100
AcDbText
 10
412.5
 20
1482.0
 30
0.0
 40
7.0
  1
Fiber optic (Control LAN)
 72
1
 11
412.5
 21
1482.0
 31
0.0
100
AcDbText
  0
LWPOLYLINE
  5
266
330
17
100
AcDbEntity
  8
CBL_CONTROL_LAN
  6
ByLayer
 62
1
100
AcDbPolyline
 90
3
 70
0
 10
740.0
 20
1430.0
 10
860.0
 20
1430.0
 10
860.0
 20
1250.0
  0
LWPOLYLINE
  5
267
330
17
100
AcDbEntity
  8
CBL_CONTROL_LAN
  6
ByLayer
 62
1
100
AcDbPolyline
 90
3
 70
0
 10
740.0
 20
1430.0
 10
1070.0
 20
1430.0
 10
1070.0
 20
1250.0
  0
LWPOLYLINE
  5
268
330
17
100
AcDbEntity
  8
CBL_CONTROL_LAN
  6
ByLayer
 62
1
100
AcDbPolyline
 90
3
 70
0
 10
740.0
 20
1430.0
 10
1280.0
 20
1430.0
 10
1280.0
 20
1250.0
  0
LWPOLYLINE
  5
269
330
17
100
AcDbEntity
  8
CBL_CONTROL_LAN
  6
ByLayer
 62
1
100
AcDbPolyline
 90
3
 70
0
 10
740.0
 20
1430.0
 10
1020.0
 20
1430.0
 10
1020.0
 20
1320.0
  0
LWPOLYLINE
  5
26A
330
17
100
AcDbEntity
  8
CBL_CONTROL_LAN
  6
ByLayer
 62
1
100
AcDbPolyline
 90
3
 70
0
 10
740.0
 20
1430.0
 10
1280.0
 20
1430.0
 10
1280.0
 20
1320.0
  0
LWPOLYLINE
  5
26B
330
17
100
AcDbEntity
  8
CBL_CONTROL_LAN
  6
ByLayer
 62
1
100
AcDbPolyline
 90
3
 70
0
 10
740.0
 20
1430.0
 10
1545.0
 20
1430.0
 10
1545.0
 20
1235.0
  0
LWPOLYLINE
  5
26C
330
17
100
AcDbEntity
  8
CBL_CONTROL_LAN
  6
ByLayer
 62
1
100
AcDbPolyline
 90
4
 70
0
 10
740.0
 20
1410.0
 10
1830.0
 20
1410.0
 10
1830.0
 20
1310.0
 10
1950.0
 20
1310.0
  0
LWPOLYLINE
  5
26D
330
17
100
AcDbEntity
  8
CBL_CONTROL_LAN
  6
ByLayer
 62
1
100
AcDbPolyline
 90
3
 70
0
 10
650.0
 20
1110.0
 10
650.0
 20
1005.0
 10
1700.0
 20
1005.0
  0
TEXT
  5
26E
330
17
100
AcDbEntity
  8
TEXT_ANNOTATION
 62
2
100
AcDbText
 10
720.0
 20
1017.0
 30
0.0
 40
7.0
  1
Ethernet (10.81.x.x)
 11
720.0
 21
1017.0
 31
0.0
100
AcDbText
  0
LINE
  5
26F
330
17
100
AcDbEntity
  8
CBL_CONTROL_LAN
  6
ByLayer
 62
1
100
AcDbLine
 10
815.0
 20
1005.0
 30
0.0
 11
815.0
 21
950.0
 31
0.0
  0
LINE
  5
270
330
17
100
AcDbEntity
  8
CBL_CONTROL_LAN
  6
ByLayer
 62
1
100
AcDbLine
 10
1040.0
 20
1005.0
 30
0.0
 11
1040.0
 21
950.0
 31
0.0
  0
LINE
  5
271
330
17
100
AcDbEntity
  8
CBL_CONTROL_LAN
  6
ByLayer
 62
1
100
AcDbLine
 10
1260.0
 20
1005.0
 30
0.0
 11
1260.0
 21
950.0
 31
0.0
  0
LINE
  5
272
330
17
100
AcDbEntity
  8
CBL_CONTROL_LAN
  6
ByLayer
 62
1
100
AcDbLine
 10
1480.0
 20
1005.0
 30
0.0
 11
1480.0
 21
950.0
 31
0.0
  0
LINE
  5
273
330
17
100
AcDbEntity
  8
CBL_CONTROL_LAN
  6
ByLayer
 62
1
100
AcDbLine
 10
1700.0
 20
1005.0
 30
0.0
 11
1700.0
 21
950.0
 31
0.0
  0
TEXT
  5
274
330
17
100
AcDbEntity
  8
TEXT_ANNOTATION
 62
6
100
AcDbText
 10
1550.0
 20
1017.0
 30
0.0
 40
7.0
  1
Fiber optic (Remote Skids)
 11
1550.0
 21
1017.0
 31
0.0
100
AcDbText
  0
LWPOLYLINE
  5
275
330
17
100
AcDbEntity
  8
CBL_CONTROL_LAN
  6
ByLayer
 62
1
100
AcDbPolyline
 90
4
 70
0
 10
610.0
 20
1110.0
 10
610.0
 20
855.0
 10
265.0
 20
855.0
 10
265.0
 20
820.0
  0
TEXT
  5
276
330
17
100
AcDbEntity
  8
TEXT_ANNOTATION
 62
1
100
AcDbText
 10
540.0
 20
800.0
 30
0.0
 40
7.0
  1
CBL-UPL-01 (To SCADA)
 11
540.0
 21
800.0
 31
0.0
100
AcDbText
  0
LWPOLYLINE
  5
277
330
17
100
AcDbEntity
  8
CBL_IO_NETWORK
  6
ByLayer
 62
3
100
AcDbPolyline
 90
4
 70
0
 10
185.0
 20
690.0
 10
70.0
 20
690.0
 10
70.0
 20
650.0
 10
185.0
 20
650.0
  0
TEXT
  5
278
330
17
100
AcDbEntity
  8
TEXT_TAG
 62
3
100
AcDbText
 10
45.0
 20
670.0
 30
0.0
 40
6.0
  1
CBL-DLR-01
 11
45.0
 21
670.0
 31
0.0
100
AcDbText
  0
LWPOLYLINE
  5
279
330
17
100
AcDbEntity
  8
CBL_IO_NETWORK
  6
ByLayer
 62
3
100
AcDbPolyline
 90
4
 70
0
 10
185.0
 20
520.0
 10
70.0
 20
520.0
 10
70.0
 20
480.0
 10
185.0
 20
480.0
  0
TEXT
  5
27A
330
17
100
AcDbEntity
  8
TEXT_TAG
 62
3
100
AcDbText
 10
45.0
 20
500.0
 30
0.0
 40
6.0
  1
CBL-DLR-02
 11
45.0
 21
500.0
 31
0.0
100
AcDbText
  0
LWPOLYLINE
  5
27B
330
17
100
AcDbEntity
  8
CBL_IO_NETWORK
  6
ByLayer
 62
3
100
AcDbPolyline
 90
4
 70
0
 10
185.0
 20
350.0
 10
70.0
 20
350.0
 10
70.0
 20
310.0
 10
185.0
 20
310.0
  0
TEXT
  5
27C
330
17
100
AcDbEntity
  8
TEXT_TAG
 62
3
100
AcDbText
 10
45.0
 20
330.0
 30
0.0
 40
6.0
  1
CBL-DLR-03
 11
45.0
 21
330.0
 31
0.0
100
AcDbText
  0
LWPOLYLINE
  5
27D
330
17
100
AcDbEntity
  8
CBL_IO_NETWORK
  6
ByLayer
 62
3
100
AcDbPolyline
 90
5
 70
0
 10
185.0
 20
180.0
 10
60.0
 20
180.0
 10
60.0
 20
865.0
 10
405.0
 20
865.0
 10
405.0
 20
890.0
  0
TEXT
  5
27E
330
17
100
AcDbEntity
  8
TEXT_TAG
 62
3
100
AcDbText
 10
35.0
 20
300.0
 30
0.0
 40
6.0
  1
CBL-DLR-04
 11
35.0
 21
300.0
 31
0.0
100
AcDbText
  0
LWPOLYLINE
  5
27F
330
17
100
AcDbEntity
  8
CBL_FIBER_OPTIC
  6
DASHED
 62
6
100
AcDbPolyline
 90
7
 70
0
 10
515.0
 20
915.0
 10
555.0
 20
915.0
 10
555.0
 20
810.0
 10
940.0
 20
810.0
 10
940.0
 20
655.0
 10
980.0
 20
655.0
 10
980.0
 20
630.0
  0
TEXT
  5
280
330
17
100
AcDbEntity
  8
TEXT_ANNOTATION
 62
6
100
AcDbText
 10
650.0
 20
820.0
 30
0.0
 40
7.0
  1
Fiber optic (FOB-RIO-01 Outbound)
 11
650.0
 21
820.0
 31
0.0
100
AcDbText
  0
LWPOLYLINE
  5
281
330
17
100
AcDbEntity
  8
CBL_IO_NETWORK
  6
ByLayer
 62
3
100
AcDbPolyline
 90
3
 70
0
 10
1020.0
 20
630.0
 10
1020.0
 20
590.0
 10
965.0
 20
590.0
  0
TEXT
  5
282
330
17
100
AcDbEntity
  8
TEXT_TAG
 62
3
100
AcDbText
 10
1028.0
 20
605.0
 30
0.0
 40
6.0
  1
CBL-DLR-05
 11
1028.0
 21
605.0
 31
0.0
100
AcDbText
  0
LWPOLYLINE
  5
283
330
17
100
AcDbEntity
  8
CBL_IO_NETWORK
  6
ByLayer
 62
3
100
AcDbPolyline
 90
6
 70
0
 10
995.0
 20
450.0
 10
995.0
 20
420.0
 10
1130.0
 20
420.0
 10
1130.0
 20
655.0
 10
1040.0
 20
655.0
 10
1040.0
 20
630.0
  0
TEXT
  5
284
330
17
100
AcDbEntity
  8
TEXT_TAG
 62
3
100
AcDbText
 10
1020.0
 20
428.0
 30
0.0
 40
6.0
  1
CBL-DLR-06
 11
1020.0
 21
428.0
 31
0.0
100
AcDbText
  0
LWPOLYLINE
  5
285
330
17
100
AcDbEntity
  8
CBL_FIBER_OPTIC
  6
DASHED
 62
6
100
AcDbPolyline
 90
5
 70
0
 10
1000.0
 20
630.0
 10
1000.0
 20
320.0
 10
775.0
 20
320.0
 10
775.0
 20
900.0
 10
475.0
 20
900.0
  0
TEXT
  5
286
330
17
100
AcDbEntity
  8
TEXT_ANNOTATION
 62
6
100
AcDbText
 10
680.0
 20
328.0
 30
0.0
 40
7.0
  1
Fiber optic (FOB-RIO-02 Return)
 11
680.0
 21
328.0
 31
0.0
100
AcDbText
  0
LWPOLYLINE
  5
287
330
17
100
AcDbEntity
  8
CBL_IO_NETWORK
  6
ByLayer
 62
3
100
AcDbPolyline
 90
4
 70
0
 10
375.0
 20
890.0
 10
375.0
 20
835.0
 10
215.0
 20
835.0
 10
215.0
 20
820.0
  0
TEXT
  5
288
330
17
100
AcDbEntity
  8
TEXT_TAG
 62
3
100
AcDbText
 10
230.0
 20
842.0
 30
0.0
 40
6.0
  1
CBL-DLR-07 (Ring Close to P2 Beacon)
 11
230.0
 21
842.0
 31
0.0
100
AcDbText
  0
LWPOLYLINE
  5
289
330
17
100
AcDbEntity
  8
CBL_MCC_NETWORK
  6
ByLayer
 62
5
100
AcDbPolyline
 90
5
 70
0
 10
835.0
 20
520.0
 10
865.0
 20
520.0
 10
865.0
 20
170.0
 10
1490.0
 20
170.0
 10
1490.0
 20
360.0
  0
TEXT
  5
28A
330
17
100
AcDbEntity
  8
TEXT_TAG
 62
5
100
AcDbText
 10
1050.0
 20
178.0
 30
0.0
 40
7.0
  1
ETHERNET FOR MCC NETWORK (Blue)
 11
1050.0
 21
178.0
 31
0.0
100
AcDbText
  0
ENDSEC
  0
SECTION
  2
OBJECTS
  0
DICTIONARY
  5
A
330
0
100
AcDbDictionary
281
1
  3
ACAD_COLOR
350
B
  3
ACAD_GROUP
350
C
  3
ACAD_LAYOUT
350
D
  3
ACAD_MATERIAL
350
E
  3
ACAD_MLEADERSTYLE
350
F
  3
ACAD_MLINESTYLE
350
10
  3
ACAD_PLOTSETTINGS
350
11
  3
ACAD_PLOTSTYLENAME
350
12
  3
ACAD_SCALELIST
350
14
  3
ACAD_TABLESTYLE
350
15
  3
ACAD_VISUALSTYLE
350
16
  3
EZDXF_META
350
2D
  0
DICTIONARY
  5
B
330
A
100
AcDbDictionary
281
1
  0
DICTIONARY
  5
C
330
A
100
AcDbDictionary
281
1
  0
DICTIONARY
  5
D
330
A
100
AcDbDictionary
281
1
  3
Model
350
1A
  3
Layout1
350
1E
  0
DICTIONARY
  5
E
330
A
100
AcDbDictionary
281
1
  3
ByBlock
350
1F
  3
ByLayer
350
20
  3
Global
350
21
  0
DICTIONARY
  5
F
330
A
100
AcDbDictionary
281
1
  3
Standard
350
2C
  0
DICTIONARY
  5
10
330
A
100
AcDbDictionary
281
1
  3
Standard
350
22
  0
DICTIONARY
  5
11
330
A
100
AcDbDictionary
281
1
  0
ACDBDICTIONARYWDFLT
  5
12
330
A
100
AcDbDictionary
281
1
  3
Normal
350
13
100
AcDbDictionaryWithDefault
340
13
  0
ACDBPLACEHOLDER
  5
13
330
12
  0
DICTIONARY
  5
14
330
A
100
AcDbDictionary
281
1
  0
DICTIONARY
  5
15
330
A
100
AcDbDictionary
281
1
  0
DICTIONARY
  5
16
330
A
100
AcDbDictionary
281
1
  3
2dWireframe
350
5A
  3
Basic
350
5B
  3
Brighten
350
5C
  3
ColorChange
350
5D
  3
Conceptual
350
5E
  3
Dim
350
5F
  3
EdgeColorOff
350
60
  3
Facepattern
350
61
  3
Flat
350
62
  3
FlatWithEdges
350
63
  3
Gouraud
350
64
  3
GouraudWithEdges
350
65
  3
Hidden
350
66
  3
JitterOff
350
67
  3
Linepattern
350
68
  3
Modeling
350
69
  3
OverhangOff
350
6A
  3
Realistic
350
6B
  3
Shaded
350
6C
  3
Shaded with edges
350
6D
  3
Shades of Gray
350
6E
  3
Sketchy
350
6F
  3
Thicken
350
70
  3
Wireframe
350
71
  3
X-Ray
350
72
  0
LAYOUT
  5
1A
330
D
100
AcDbPlotSettings
  1

  4
A3
  6

 40
7.5
 41
20.0
 42
7.5
 43
20.0
 44
420.0
 45
297.0
 46
0.0
 47
0.0
 48
0.0
 49
0.0
140
0.0
141
0.0
142
1.0
143
1.0
 70
1024
 72
1
 73
0
 74
5
  7

 75
16
 76
0
 77
2
 78
300
147
1.0
148
0.0
149
0.0
100
AcDbLayout
  1
Model
 70
1
 71
0
 10
0.0
 20
0.0
 11
420.0
 21
297.0
 12
0.0
 22
0.0
 32
0.0
 14
1e+20
 24
1e+20
 34
1e+20
 15
-1e+20
 25
-1e+20
 35
-1e+20
146
0.0
 13
0.0
 23
0.0
 33
0.0
 16
1.0
 26
0.0
 36
0.0
 17
0.0
 27
1.0
 37
0.0
 76
1
330
17
  0
LAYOUT
  5
1E
330
D
100
AcDbPlotSettings
  1

  4
A3
  6

 40
7.5
 41
20.0
 42
7.5
 43
20.0
 44
420.0
 45
297.0
 46
0.0
 47
0.0
 48
0.0
 49
0.0
140
0.0
141
0.0
142
1.0
143
1.0
 70
0
 72
1
 73
0
 74
5
  7

 75
16
 76
0
 77
2
 78
300
147
1.0
148
0.0
149
0.0
100
AcDbLayout
  1
Layout1
 70
1
 71
1
 10
0.0
 20
0.0
 11
420.0
 21
297.0
 12
0.0
 22
0.0
 32
0.0
 14
1e+20
 24
1e+20
 34
1e+20
 15
-1e+20
 25
-1e+20
 35
-1e+20
146
0.0
 13
0.0
 23
0.0
 33
0.0
 16
1.0
 26
0.0
 36
0.0
 17
0.0
 27
1.0
 37
0.0
 76
1
330
1B
  0
MATERIAL
  5
1F
102
{ACAD_REACTORS
330
E
102
}
330
E
100
AcDbMaterial
  1
ByBlock
  2

 70
0
 40
1.0
 71
1
 41
1.0
 91
-1023410177
 42
1.0
 72
1
  3

 73
1
 74
1
 75
1
 44
0.5
 73
0
 45
1.0
 46
1.0
 77
1
  4

 78
1
 79
1
170
1
 48
1.0
171
1
  6

172
1
173
1
174
1
140
1.0
141
1.0
175
1
  7

176
1
177
1
178
1
143
1.0
179
1
  8

270
1
271
1
272
1
145
1.0
146
1.0
273
1
  9

274
1
275
1
276
1
 42
1.0
 72
1
  3

 73
1
 74
1
 75
1
 94
63
  0
MATERIAL
  5
20
102
{ACAD_REACTORS
330
E
102
}
330
E
100
AcDbMaterial
  1
ByLayer
  2

 70
0
 40
1.0
 71
1
 41
1.0
 91
-1023410177
 42
1.0
 72
1
  3

 73
1
 74
1
 75
1
 44
0.5
 73
0
 45
1.0
 46
1.0
 77
1
  4

 78
1
 79
1
170
1
 48
1.0
171
1
  6

172
1
173
1
174
1
140
1.0
141
1.0
175
1
  7

176
1
177
1
178
1
143
1.0
179
1
  8

270
1
271
1
272
1
145
1.0
146
1.0
273
1
  9

274
1
275
1
276
1
 42
1.0
 72
1
  3

 73
1
 74
1
 75
1
 94
63
  0
MATERIAL
  5
21
102
{ACAD_REACTORS
330
E
102
}
330
E
100
AcDbMaterial
  1
Global
  2

 70
0
 40
1.0
 71
1
 41
1.0
 91
-1023410177
 42
1.0
 72
1
  3

 73
1
 74
1
 75
1
 44
0.5
 73
0
 45
1.0
 46
1.0
 77
1
  4

 78
1
 79
1
170
1
 48
1.0
171
1
  6

172
1
173
1
174
1
140
1.0
141
1.0
175
1
  7

176
1
177
1
178
1
143
1.0
179
1
  8

270
1
271
1
272
1
145
1.0
146
1.0
273
1
  9

274
1
275
1
276
1
 42
1.0
 72
1
  3

 73
1
 74
1
 75
1
 94
63
  0
MLINESTYLE
  5
22
102
{ACAD_REACTORS
330
10
102
}
330
10
100
AcDbMlineStyle
  2
Standard
 70
0
  3

 62
256
 51
90.0
 52
90.0
 71
2
 49
0.5
 62
256
  6
BYLAYER
 49
-0.5
 62
256
  6
BYLAYER
  0
MLEADERSTYLE
  5
2C
102
{ACAD_REACTORS
330
F
102
}
330
F
100
AcDbMLeaderStyle
179
2
170
2
171
1
172
0
 90
2
 40
0.0
 41
0.0
173
1
 91
-1056964608
 92
-2
290
1
 42
2.0
291
1
 43
8.0
  3
Standard
 44
4.0
300

342
29
174
1
175
1
176
0
178
1
 93
-1056964608
 45
4.0
292
0
297
0
 46
4.0
 94
-1056964608
 47
1.0
 49
1.0
140
1.0
294
1
141
0.0
177
0
142
1.0
295
0
296
0
143
3.75
271
0
272
9
273
9
  0
DICTIONARY
  5
2D
330
A
100
AcDbDictionary
280
1
281
1
  3
CREATED_BY_EZDXF
350
2E
  3
WRITTEN_BY_EZDXF
350
28D
  0
DICTIONARYVAR
  5
2E
330
2D
100
DictionaryVariables
280
0
  1
1.4.4 @ 2026-09-16T04:03:08.074015+00:00
  0
VISUALSTYLE
  5
5A
102
{ACAD_REACTORS
330
16
102
}
330
16
100
AcDbVisualStyle
  2
2dWireframe
 70
4
 90
0
 40
0.6
 62
7
290
0
291
0
  0
VISUALSTYLE
  5
5B
102
{ACAD_REACTORS
330
16
102
}
330
16
100
AcDbVisualStyle
  2
Basic
 70
7
 90
1
 40
0.6
 62
7
290
0
291
1
  0
VISUALSTYLE
  5
5C
102
{ACAD_REACTORS
330
16
102
}
330
16
100
AcDbVisualStyle
  2
Brighten
 70
12
 90
2
 40
0.6
 62
7
290
0
291
1
  0
VISUALSTYLE
  5
5D
102
{ACAD_REACTORS
330
16
102
}
330
16
100
AcDbVisualStyle
  2
ColorChange
 70
16
 90
2
 40
0.6
 62
8
290
0
291
1
  0
VISUALSTYLE
  5
5E
102
{ACAD_REACTORS
330
16
102
}
330
16
100
AcDbVisualStyle
  2
Conceptual
 70
9
 90
3
 40
0.6
 62
7
290
0
291
0
  0
VISUALSTYLE
  5
5F
102
{ACAD_REACTORS
330
16
102
}
330
16
100
AcDbVisualStyle
  2
Dim
 70
11
 90
2
 40
0.6
 62
7
290
0
291
1
  0
VISUALSTYLE
  5
60
102
{ACAD_REACTORS
330
16
102
}
330
16
100
AcDbVisualStyle
  2
EdgeColorOff
 70
22
 90
2
 40
0.6
 62
7
290
0
291
1
  0
VISUALSTYLE
  5
61
102
{ACAD_REACTORS
330
16
102
}
330
16
100
AcDbVisualStyle
  2
Facepattern
 70
15
 90
2
 40
0.6
 62
7
290
0
291
1
  0
VISUALSTYLE
  5
62
102
{ACAD_REACTORS
330
16
102
}
330
16
100
AcDbVisualStyle
  2
Flat
 70
0
 90
2
 40
0.6
 62
7
290
0
291
1
  0
VISUALSTYLE
  5
63
102
{ACAD_REACTORS
330
16
102
}
330
16
100
AcDbVisualStyle
  2
FlatWithEdges
 70
1
 90
2
 40
0.6
 62
7
290
0
291
1
  0
VISUALSTYLE
  5
64
102
{ACAD_REACTORS
330
16
102
}
330
16
100
AcDbVisualStyle
  2
Gouraud
 70
2
 90
2
 40
0.6
 62
7
290
0
291
1
  0
VISUALSTYLE
  5
65
102
{ACAD_REACTORS
330
16
102
}
330
16
100
AcDbVisualStyle
  2
GouraudWithEdges
 70
3
 90
2
 40
0.6
 62
7
290
0
291
1
  0
VISUALSTYLE
  5
66
102
{ACAD_REACTORS
330
16
102
}
330
16
100
AcDbVisualStyle
  2
Hidden
 70
6
 90
1
 40
0.6
 62
7
290
0
291
0
  0
VISUALSTYLE
  5
67
102
{ACAD_REACTORS
330
16
102
}
330
16
100
AcDbVisualStyle
  2
JitterOff
 70
20
 90
2
 40
0.6
 62
7
290
0
291
1
  0
VISUALSTYLE
  5
68
102
{ACAD_REACTORS
330
16
102
}
330
16
100
AcDbVisualStyle
  2
Linepattern
 70
14
 90
2
 40
0.6
 62
7
290
0
291
1
  0
VISUALSTYLE
  5
69
102
{ACAD_REACTORS
330
16
102
}
330
16
100
AcDbVisualStyle
  2
Modeling
 70
10
 90
2
 40
0.6
 62
7
290
0
291
0
  0
VISUALSTYLE
  5
6A
102
{ACAD_REACTORS
330
16
102
}
330
16
100
AcDbVisualStyle
  2
OverhangOff
 70
21
 90
2
 40
0.6
 62
7
290
0
291
1
  0
VISUALSTYLE
  5
6B
102
{ACAD_REACTORS
330
16
102
}
330
16
100
AcDbVisualStyle
  2
Realistic
 70
8
 90
2
 40
0.6
 62
7
290
0
291
0
  0
VISUALSTYLE
  5
6C
102
{ACAD_REACTORS
330
16
102
}
330
16
100
AcDbVisualStyle
  2
Shaded
 70
27
 90
2
 40
0.6
 62
7
290
0
291
0
  0
VISUALSTYLE
  5
6D
102
{ACAD_REACTORS
330
16
102
}
330
16
100
AcDbVisualStyle
  2
Shaded with edges
 70
26
 90
2
 40
0.6
 62
7
290
0
291
0
  0
VISUALSTYLE
  5
6E
102
{ACAD_REACTORS
330
16
102
}
330
16
100
AcDbVisualStyle
  2
Shades of Gray
 70
23
 90
2
 40
0.6
 62
7
290
0
291
0
  0
VISUALSTYLE
  5
6F
102
{ACAD_REACTORS
330
16
102
}
330
16
100
AcDbVisualStyle
  2
Sketchy
 70
24
 90
1
 40
0.6
 62
7
290
0
291
0
  0
VISUALSTYLE
  5
70
102
{ACAD_REACTORS
330
16
102
}
330
16
100
AcDbVisualStyle
  2
Thicken
 70
13
 90
2
 40
0.6
 62
7
290
0
291
1
  0
VISUALSTYLE
  5
71
102
{ACAD_REACTORS
330
16
102
}
330
16
100
AcDbVisualStyle
  2
Wireframe
 70
5
 90
0
 40
0.6
 62
7
290
0
291
0
  0
VISUALSTYLE
  5
72
102
{ACAD_REACTORS
330
16
102
}
330
16
100
AcDbVisualStyle
  2
X-Ray
 70
25
 90
2
 40
0.5
 62
7
290
0
291
0
  0
DICTIONARYVAR
  5
28D
330
2D
100
DictionaryVariables
280
0
  1
1.4.4 @ 2026-09-16T04:03:08.087396+00:00
  0
ENDSEC
  0
EOF
