  0
SECTION
  2
HEADER
  9
$ACADVER
  1
AC1027
  9
$ACADMAINTVER
 70
105
  9
$DWGCODEPAGE
  3
ANSI_1252
  9
$LASTSAVEDBY
  1
ezdxf
  9
$REQUIREDVERSIONS
160
0
  9
$INSBASE
 10
0.0
 20
0.0
 30
0.0
  9
$EXTMIN
 10
1e+20
 20
1e+20
 30
1e+20
  9
$EXTMAX
 10
-1e+20
 20
-1e+20
 30
-1e+20
  9
$LIMMIN
 10
0.0
 20
0.0
  9
$LIMMAX
 10
420.0
 20
297.0
  9
$ORTHOMODE
 70
0
  9
$REGENMODE
 70
1
  9
$FILLMODE
 70
1
  9
$QTEXTMODE
 70
0
  9
$MIRRTEXT
 70
1
  9
$LTSCALE
 40
1.0
  9
$ATTMODE
 70
1
  9
$TEXTSIZE
 40
2.5
  9
$TRACEWID
 40
1.0
  9
$TEXTSTYLE
  7
OpenSans
  9
$CLAYER
  8
0
  9
$CELTYPE
  6
ByLayer
  9
$CECOLOR
 62
256
  9
$CELTSCALE
 40
1.0
  9
$DISPSILH
 70
0
  9
$DIMSCALE
 40
1.0
  9
$DIMASZ
 40
0.175
  9
$DIMEXO
 40
0.125
  9
$DIMDLI
 40
3.75
  9
$DIMRND
 40
0.0
  9
$DIMDLE
 40
0.0
  9
$DIMEXE
 40
0.375
  9
$DIMTP
 40
0.0
  9
$DIMTM
 40
0.0
  9
$DIMTXT
 40
0.25
  9
$DIMCEN
 40
2.5
  9
$DIMTSZ
 40
0.0
  9
$DIMTOL
 70
0
  9
$DIMLIM
 70
0
  9
$DIMTIH
 70
0
  9
$DIMTOH
 70
0
  9
$DIMSE1
 70
0
  9
$DIMSE2
 70
0
  9
$DIMTAD
 70
1
  9
$DIMZIN
 70
12
  9
$DIMBLK
  1
ARCHTICK
  9
$DIMASO
 70
1
  9
$DIMSHO
 70
1
  9
$DIMPOST
  1

  9
$DIMAPOST
  1

  9
$DIMALT
 70
0
  9
$DIMALTD
 70
3
  9
$DIMALTF
 40
0.03937007874
  9
$DIMLFAC
 40
100.0
  9
$DIMTOFL
 70
1
  9
$DIMTVP
 40
0.0
  9
$DIMTIX
 70
0
  9
$DIMSOXD
 70
0
  9
$DIMSAH
 70
0
  9
$DIMBLK1
  1

  9
$DIMBLK2
  1

  9
$DIMSTYLE
  2
EZDXF
  9
$DIMCLRD
 70
0
  9
$DIMCLRE
 70
0
  9
$DIMCLRT
 70
0
  9
$DIMTFAC
 40
0.5
  9
$DIMGAP
 40
0.1
  9
$DIMJUST
 70
0
  9
$DIMSD1
 70
0
  9
$DIMSD2
 70
0
  9
$DIMTOLJ
 70
0
  9
$DIMTZIN
 70
8
  9
$DIMALTZ
 70
0
  9
$DIMALTTZ
 70
0
  9
$DIMUPT
 70
1
  9
$DIMDEC
 70
2
  9
$DIMTDEC
 70
2
  9
$DIMALTU
 70
2
  9
$DIMALTTD
 70
3
  9
$DIMTXSTY
  7
OpenSansCondensed-Light
  9
$DIMAUNIT
 70
0
  9
$DIMADEC
 70
2
  9
$DIMALTRND
 40
0.0
  9
$DIMAZIN
 70
3
  9
$DIMDSEP
 70
46
  9
$DIMATFIT
 70
3
  9
$DIMFRAC
 70
0
  9
$DIMLDRBLK
  1

  9
$DIMLUNIT
 70
2
  9
$DIMLWD
 70
-2
  9
$DIMLWE
 70
-2
  9
$DIMTMOVE
 70
2
  9
$DIMFXL
 40
1.0
  9
$DIMFXLON
 70
0
  9
$DIMJOGANG
 40
0.785398163397
  9
$DIMTFILL
 70
0
  9
$DIMTFILLCLR
 70
0
  9
$DIMARCSYM
 70
0
  9
$DIMLTYPE
  6

  9
$DIMLTEX1
  6

  9
$DIMLTEX2
  6

  9
$DIMTXTDIRECTION
 70
0
  9
$LUNITS
 70
2
  9
$LUPREC
 70
4
  9
$SKETCHINC
 40
1.0
  9
$FILLETRAD
 40
10.0
  9
$AUNITS
 70
0
  9
$AUPREC
 70
2
  9
$MENU
  1
.
  9
$ELEVATION
 40
0.0
  9
$PELEVATION
 40
0.0
  9
$THICKNESS
 40
0.0
  9
$LIMCHECK
 70
0
  9
$CHAMFERA
 40
0.0
  9
$CHAMFERB
 40
0.0
  9
$CHAMFERC
 40
0.0
  9
$CHAMFERD
 40
0.0
  9
$SKPOLY
 70
0
  9
$TDCREATE
 40
2461323.9150925926
  9
$TDUCREATE
 40
2458532.153996898
  9
$TDUPDATE
 40
2461323.9150925926
  9
$TDUUPDATE
 40
2458532.1544311
  9
$TDINDWG
 40
0.0
  9
$TDUSRTIMER
 40
0.0
  9
$USRTIMER
 70
1
  9
$ANGBASE
 50
0.0
  9
$ANGDIR
 70
0
  9
$PDMODE
 70
0
  9
$PDSIZE
 40
0.0
  9
$PLINEWID
 40
0.0
  9
$SPLFRAME
 70
0
  9
$SPLINETYPE
 70
6
  9
$SPLINESEGS
 70
8
  9
$HANDSEED
  5
390
  9
$SURFTAB1
 70
6
  9
$SURFTAB2
 70
6
  9
$SURFTYPE
 70
6
  9
$SURFU
 70
6
  9
$SURFV
 70
6
  9
$UCSBASE
  2

  9
$UCSNAME
  2

  9
$UCSORG
 10
0.0
 20
0.0
 30
0.0
  9
$UCSXDIR
 10
1.0
 20
0.0
 30
0.0
  9
$UCSYDIR
 10
0.0
 20
1.0
 30
0.0
  9
$UCSORTHOREF
  2

  9
$UCSORTHOVIEW
 70
0
  9
$UCSORGTOP
 10
0.0
 20
0.0
 30
0.0
  9
$UCSORGBOTTOM
 10
0.0
 20
0.0
 30
0.0
  9
$UCSORGLEFT
 10
0.0
 20
0.0
 30
0.0
  9
$UCSORGRIGHT
 10
0.0
 20
0.0
 30
0.0
  9
$UCSORGFRONT
 10
0.0
 20
0.0
 30
0.0
  9
$UCSORGBACK
 10
0.0
 20
0.0
 30
0.0
  9
$PUCSBASE
  2

  9
$PUCSNAME
  2

  9
$PUCSORG
 10
0.0
 20
0.0
 30
0.0
  9
$PUCSXDIR
 10
1.0
 20
0.0
 30
0.0
  9
$PUCSYDIR
 10
0.0
 20
1.0
 30
0.0
  9
$PUCSORTHOREF
  2

  9
$PUCSORTHOVIEW
 70
0
  9
$PUCSORGTOP
 10
0.0
 20
0.0
 30
0.0
  9
$PUCSORGBOTTOM
 10
0.0
 20
0.0
 30
0.0
  9
$PUCSORGLEFT
 10
0.0
 20
0.0
 30
0.0
  9
$PUCSORGRIGHT
 10
0.0
 20
0.0
 30
0.0
  9
$PUCSORGFRONT
 10
0.0
 20
0.0
 30
0.0
  9
$PUCSORGBACK
 10
0.0
 20
0.0
 30
0.0
  9
$USERI1
 70
0
  9
$USERI2
 70
0
  9
$USERI3
 70
0
  9
$USERI4
 70
0
  9
$USERI5
 70
0
  9
$USERR1
 40
0.0
  9
$USERR2
 40
0.0
  9
$USERR3
 40
0.0
  9
$USERR4
 40
0.0
  9
$USERR5
 40
0.0
  9
$WORLDVIEW
 70
1
  9
$SHADEDGE
 70
3
  9
$SHADEDIF
 70
70
  9
$TILEMODE
 70
1
  9
$MAXACTVP
 70
64
  9
$PINSBASE
 10
0.0
 20
0.0
 30
0.0
  9
$PLIMCHECK
 70
0
  9
$PEXTMIN
 10
1e+20
 20
1e+20
 30
1e+20
  9
$PEXTMAX
 10
-1e+20
 20
-1e+20
 30
-1e+20
  9
$PLIMMIN
 10
0.0
 20
0.0
  9
$PLIMMAX
 10
420.0
 20
297.0
  9
$UNITMODE
 70
0
  9
$VISRETAIN
 70
1
  9
$PLINEGEN
 70
0
  9
$PSLTSCALE
 70
1
  9
$TREEDEPTH
 70
3020
  9
$CMLSTYLE
  2
Standard
  9
$CMLJUST
 70
0
  9
$CMLSCALE
 40
20.0
  9
$PROXYGRAPHICS
 70
1
  9
$MEASUREMENT
 70
1
  9
$CELWEIGHT
370
-1
  9
$ENDCAPS
280
0
  9
$JOINSTYLE
280
0
  9
$LWDISPLAY
290
0
  9
$INSUNITS
 70
6
  9
$HYPERLINKBASE
  1

  9
$STYLESHEET
  1

  9
$XEDIT
290
1
  9
$CEPSNTYPE
380
0
  9
$PSTYLEMODE
290
1
  9
$FINGERPRINTGUID
  2
{F9323523-33BB-4E14-95C8-3EC534AA65FB}
  9
$VERSIONGUID
  2
{E756FCA5-53B1-4C23-8E06-99B172051C43}
  9
$EXTNAMES
290
1
  9
$PSVPSCALE
 40
0.0
  9
$OLESTARTUP
290
0
  9
$SORTENTS
280
127
  9
$INDEXCTL
280
0
  9
$HIDETEXT
280
1
  9
$XCLIPFRAME
280
2
  9
$HALOGAP
280
0
  9
$OBSCOLOR
 70
257
  9
$OBSLTYPE
280
0
  9
$INTERSECTIONDISPLAY
280
0
  9
$INTERSECTIONCOLOR
 70
257
  9
$DIMASSOC
280
2
  9
$PROJECTNAME
  1

  9
$CAMERADISPLAY
290
0
  9
$LENSLENGTH
 40
50.0
  9
$CAMERAHEIGHT
 40
0.0
  9
$STEPSPERSEC
 40
24.0
  9
$STEPSIZE
 40
100.0
  9
$3DDWFPREC
 40
2.0
  9
$PSOLWIDTH
 40
0.005
  9
$PSOLHEIGHT
 40
0.08
  9
$LOFTANG1
 40
1.570796326795
  9
$LOFTANG2
 40
1.570796326795
  9
$LOFTMAG1
 40
0.0
  9
$LOFTMAG2
 40
0.0
  9
$LOFTPARAM
 70
7
  9
$LOFTNORMALS
280
1
  9
$LATITUDE
 40
37.795
  9
$LONGITUDE
 40
-122.394
  9
$NORTHDIRECTION
 40
0.0
  9
$TIMEZONE
 70
-8000
  9
$LIGHTGLYPHDISPLAY
280
1
  9
$TILEMODELIGHTSYNCH
280
1
  9
$CMATERIAL
347
20
  9
$SOLIDHIST
280
0
  9
$SHOWHIST
280
1
  9
$DWFFRAME
280
2
  9
$DGNFRAME
280
2
  9
$REALWORLDSCALE
290
1
  9
$INTERFERECOLOR
 62
256
  9
$CSHADOW
280
0
  9
$SHADOWPLANELOCATION
 40
0.0
  0
ENDSEC
  0
SECTION
  2
CLASSES
  0
CLASS
  1
ACDBDICTIONARYWDFLT
  2
AcDbDictionaryWithDefault
  3
ObjectDBX Classes
 90
0
 91
0
280
0
281
0
  0
CLASS
  1
SUN
  2
AcDbSun
  3
SCENEOE
 90
1153
 91
0
280
0
281
0
  0
CLASS
  1
VISUALSTYLE
  2
AcDbVisualStyle
  3
ObjectDBX Classes
 90
4095
 91
0
280
0
281
0
  0
CLASS
  1
MATERIAL
  2
AcDbMaterial
  3
ObjectDBX Classes
 90
1153
 91
0
280
0
281
0
  0
CLASS
  1
SCALE
  2
AcDbScale
  3
ObjectDBX Classes
 90
1153
 91
0
280
0
281
0
  0
CLASS
  1
TABLESTYLE
  2
AcDbTableStyle
  3
ObjectDBX Classes
 90
4095
 91
0
280
0
281
0
  0
CLASS
  1
MLEADERSTYLE
  2
AcDbMLeaderStyle
  3
ACDB_MLEADERSTYLE_CLASS
 90
4095
 91
0
280
0
281
0
  0
CLASS
  1
DICTIONARYVAR
  2
AcDbDictionaryVar
  3
ObjectDBX Classes
 90
0
 91
0
280
0
281
0
  0
CLASS
  1
CELLSTYLEMAP
  2
AcDbCellStyleMap
  3
ObjectDBX Classes
 90
1152
 91
0
280
0
281
0
  0
CLASS
  1
MENTALRAYRENDERSETTINGS
  2
AcDbMentalRayRenderSettings
  3
SCENEOE
 90
1024
 91
0
280
0
281
0
  0
CLASS
  1
ACDBDETAILVIEWSTYLE
  2
AcDbDetailViewStyle
  3
ObjectDBX Classes
 90
1025
 91
0
280
0
281
0
  0
CLASS
  1
ACDBSECTIONVIEWSTYLE
  2
AcDbSectionViewStyle
  3
ObjectDBX Classes
 90
1025
 91
0
280
0
281
0
  0
CLASS
  1
RASTERVARIABLES
  2
AcDbRasterVariables
  3
ISM
 90
0
 91
0
280
0
281
0
  0
CLASS
  1
LAYOUT
  2
AcDbLayout
  3
ObjectDBX Classes
 90
0
 91
0
280
0
281
0
  0
CLASS
  1
ACDBPLACEHOLDER
  2
AcDbPlaceHolder
  3
ObjectDBX Classes
 90
0
 91
0
280
0
281
0
  0
ENDSEC
  0
SECTION
  2
TABLES
  0
TABLE
  2
VPORT
  5
8
330
0
100
AcDbSymbolTable
 70
1
  0
VPORT
  5
23
330
8
100
AcDbSymbolTableRecord
100
AcDbViewportTableRecord
  2
*Active
 70
0
 10
0.0
 20
0.0
 11
1.0
 21
1.0
 12
0.0
 22
0.0
 13
0.0
 23
0.0
 14
0.5
 24
0.5
 15
0.5
 25
0.5
 16
0.0
 26
0.0
 36
1.0
 17
0.0
 27
0.0
 37
0.0
 40
1000.0
 41
1.34
 42
50.0
 43
0.0
 44
0.0
 50
0.0
 51
0.0
 71
0
 72
1000
 73
1
 74
3
 75
0
 76
0
 77
0
 78
0
281
0
 65
0
146
0.0
  0
ENDTAB
  0
TABLE
  2
LTYPE
  5
2
330
0
100
AcDbSymbolTable
 70
22
  0
LTYPE
  5
24
330
2
100
AcDbSymbolTableRecord
100
AcDbLinetypeTableRecord
  2
ByBlock
 70
0
  3

 72
65
 73
0
 40
0.0
  0
LTYPE
  5
25
330
2
100
AcDbSymbolTableRecord
100
AcDbLinetypeTableRecord
  2
ByLayer
 70
0
  3

 72
65
 73
0
 40
0.0
  0
LTYPE
  5
26
330
2
100
AcDbSymbolTableRecord
100
AcDbLinetypeTableRecord
  2
Continuous
 70
0
  3

 72
65
 73
0
 40
0.0
  0
LTYPE
  5
2F
330
2
100
AcDbSymbolTableRecord
100
AcDbLinetypeTableRecord
  2
CENTER
 70
0
  3
Center ____ _ ____ _ ____ _ ____ _ ____ _ ____
 72
65
 73
4
 40
5.08
 49
3.175
 74
0
 49
-0.635
 74
0
 49
0.635
 74
0
 49
-0.635
 74
0
  0
LTYPE
  5
30
330
2
100
AcDbSymbolTableRecord
100
AcDbLinetypeTableRecord
  2
CENTERX2
 70
0
  3
Center (2x) ________  __  ________  __  ________
 72
65
 73
4
 40
8.89
 49
6.35
 74
0
 49
-0.635
 74
0
 49
1.27
 74
0
 49
-0.635
 74
0
  0
LTYPE
  5
31
330
2
100
AcDbSymbolTableRecord
100
AcDbLinetypeTableRecord
  2
CENTER2
 70
0
  3
Center (.5x) ____ _ ____ _ ____ _ ____ _ ____
 72
65
 73
4
 40
2.54
 49
1.587
 74
0
 49
-0.318
 74
0
 49
0.318
 74
0
 49
-0.318
 74
0
  0
LTYPE
  5
32
330
2
100
AcDbSymbolTableRecord
100
AcDbLinetypeTableRecord
  2
DASHED
 70
0
  3
Dashed __ __ __ __ __ __ __ __ __ __ __ __ __ _
 72
65
 73
2
 40
1.524
 49
1.27
 74
0
 49
-0.254
 74
0
  0
LTYPE
  5
33
330
2
100
AcDbSymbolTableRecord
100
AcDbLinetypeTableRecord
  2
DASHEDX2
 70
0
  3
Dashed (2x) ____  ____  ____  ____  ____  ____
 72
65
 73
2
 40
3.048
 49
2.54
 74
0
 49
-0.508
 74
0
  0
LTYPE
  5
34
330
2
100
AcDbSymbolTableRecord
100
AcDbLinetypeTableRecord
  2
DASHED2
 70
0
  3
Dashed (.5x) _ _ _ _ _ _ _ _ _ _ _ _ _ _
 72
65
 73
2
 40
0.762
 49
0.635
 74
0
 49
-0.127
 74
0
  0
LTYPE
  5
35
330
2
100
AcDbSymbolTableRecord
100
AcDbLinetypeTableRecord
  2
PHANTOM
 70
0
  3
Phantom ______  __  __  ______  __  __  ______
 72
65
 73
6
 40
6.35
 49
3.175
 74
0
 49
-0.635
 74
0
 49
0.635
 74
0
 49
-0.635
 74
0
 49
0.635
 74
0
 49
-0.635
 74
0
  0
LTYPE
  5
36
330
2
100
AcDbSymbolTableRecord
100
AcDbLinetypeTableRecord
  2
PHANTOMX2
 70
0
  3
Phantom (2x)____________    ____    ____    ____________
 72
65
 73
6
 40
10.795
 49
6.35
 74
0
 49
-0.635
 74
0
 49
1.27
 74
0
 49
-0.635
 74
0
 49
1.27
 74
0
 49
-0.635
 74
0
  0
LTYPE
  5
37
330
2
100
AcDbSymbolTableRecord
100
AcDbLinetypeTableRecord
  2
PHANTOM2
 70
0
  3
Phantom (.5x) ___ _ _ ___ _ _ ___ _ _ ___ _ _ ___
 72
65
 73
6
 40
3.175
 49
1.587
 74
0
 49
-0.318
 74
0
 49
0.318
 74
0
 49
-0.318
 74
0
 49
0.318
 74
0
 49
-0.318
 74
0
  0
LTYPE
  5
38
330
2
100
AcDbSymbolTableRecord
100
AcDbLinetypeTableRecord
  2
DASHDOT
 70
0
  3
Dash dot __ . __ . __ . __ . __ . __ . __ . __
 72
65
 73
4
 40
3.556
 49
2.54
 74
0
 49
-0.508
 74
0
 49
0.0
 74
0
 49
-0.508
 74
0
  0
LTYPE
  5
39
330
2
100
AcDbSymbolTableRecord
100
AcDbLinetypeTableRecord
  2
DASHDOTX2
 70
0
  3
Dash dot (2x) ____  .  ____  .  ____  .  ____
 72
65
 73
4
 40
6.096
 49
5.08
 74
0
 49
-0.508
 74
0
 49
0.0
 74
0
 49
-0.508
 74
0
  0
LTYPE
  5
3A
330
2
100
AcDbSymbolTableRecord
100
AcDbLinetypeTableRecord
  2
DASHDOT2
 70
0
  3
Dash dot (.5x) _ . _ . _ . _ . _ . _ . _ . _
 72
65
 73
4
 40
1.778
 49
1.27
 74
0
 49
-0.254
 74
0
 49
0.0
 74
0
 49
-0.254
 74
0
  0
LTYPE
  5
3B
330
2
100
AcDbSymbolTableRecord
100
AcDbLinetypeTableRecord
  2
DOT
 70
0
  3
Dot .  .  .  .  .  .  .  .  .  .  .  .  .  .  .  .
 72
65
 73
2
 40
0.508
 49
0.0
 74
0
 49
-0.508
 74
0
  0
LTYPE
  5
3C
330
2
100
AcDbSymbolTableRecord
100
AcDbLinetypeTableRecord
  2
DOTX2
 70
0
  3
Dot (2x) .    .    .    .    .    .    .    . 
 72
65
 73
2
 40
1.016
 49
0.0
 74
0
 49
-1.016
 74
0
  0
LTYPE
  5
3D
330
2
100
AcDbSymbolTableRecord
100
AcDbLinetypeTableRecord
  2
DOT2
 70
0
  3
Dot (.5) . . . . . . . . . . . . . . . . . . . 
 72
65
 73
2
 40
0.254
 49
0.0
 74
0
 49
-0.254
 74
0
  0
LTYPE
  5
3E
330
2
100
AcDbSymbolTableRecord
100
AcDbLinetypeTableRecord
  2
DIVIDE
 70
0
  3
Divide __ . . __ . . __ . . __ . . __ . . __
 72
65
 73
6
 40
4.064
 49
2.54
 74
0
 49
-0.508
 74
0
 49
0.0
 74
0
 49
-0.508
 74
0
 49
0.0
 74
0
 49
-0.508
 74
0
  0
LTYPE
  5
3F
330
2
100
AcDbSymbolTableRecord
100
AcDbLinetypeTableRecord
  2
DIVIDEX2
 70
0
  3
Divide (2x) ____  . .  ____  . .  ____  . .  ____
 72
65
 73
6
 40
6.604
 49
5.08
 74
0
 49
-0.508
 74
0
 49
0.0
 74
0
 49
-0.508
 74
0
 49
0.0
 74
0
 49
-0.508
 74
0
  0
LTYPE
  5
40
330
2
100
AcDbSymbolTableRecord
100
AcDbLinetypeTableRecord
  2
DIVIDE2
 70
0
  3
Divide(.5x) _ . _ . _ . _ . _ . _ . _ . _
 72
65
 73
6
 40
2.032
 49
1.27
 74
0
 49
-0.254
 74
0
 49
0.0
 74
0
 49
-0.254
 74
0
 49
0.0
 74
0
 49
-0.254
 74
0
  0
LTYPE
  5
369
330
2
100
AcDbSymbolTableRecord
100
AcDbLinetypeTableRecord
  2
BORDERX2
 70
0
  3
Border (2x) ____  ____  .  ____  ____  .  ___ .
 72
65
 73
6
 40
88.89999999999999
 49
25.4
 74
0
 49
-12.7
 74
0
 49
25.4
 74
0
 49
-12.7
 74
0
 49
0.0
 74
0
 49
-12.7
 74
0
  0
ENDTAB
  0
TABLE
  2
LAYER
  5
1
330
0
100
AcDbSymbolTable
 70
7
  0
LAYER
  5
27
330
1
100
AcDbSymbolTableRecord
100
AcDbLayerTableRecord
  2
0
 70
0
 62
7
  6
Continuous
370
-3
390
13
347
21
  0
LAYER
  5
28
330
1
100
AcDbSymbolTableRecord
100
AcDbLayerTableRecord
  2
Defpoints
 70
0
 62
7
  6
Continuous
290
0
370
-3
390
13
347
21
  0
LAYER
  5
364
330
1
100
AcDbSymbolTableRecord
100
AcDbLayerTableRecord
  2
GT_1
 70
0
 62
9
  6
Continuous
370
-3
390
13
347
21
348
0
  0
LAYER
  5
365
330
1
100
AcDbSymbolTableRecord
100
AcDbLayerTableRecord
  2
MEMBER
 70
0
 62
7
  6
Continuous
370
-3
390
13
347
21
348
0
  0
LAYER
  5
366
330
1
100
AcDbSymbolTableRecord
100
AcDbLayerTableRecord
  2
x01001-FrameArea
 70
0
 62
2
  6
BORDERX2
370
-3
390
13
347
21
348
0
  0
LAYER
  5
367
330
1
100
AcDbSymbolTableRecord
100
AcDbLayerTableRecord
  2
IE-WIRE
 70
0
 62
7
  6
Continuous
370
25
390
13
347
21
348
0
  0
LAYER
  5
368
330
1
100
AcDbSymbolTableRecord
100
AcDbLayerTableRecord
  2
HELPPOINT
 70
0
 62
7
  6
Continuous
370
-3
390
13
347
21
348
0
  0
ENDTAB
  0
TABLE
  2
STYLE
  5
5
330
0
100
AcDbSymbolTable
 70
29
  0
STYLE
  5
29
330
5
100
AcDbSymbolTableRecord
100
AcDbTextStyleTableRecord
  2
Standard
 70
0
 40
0.0
 41
1.0
 50
0.0
 71
0
 42
2.5
  3
txt
  4

  0
STYLE
  5
41
330
5
100
AcDbSymbolTableRecord
100
AcDbTextStyleTableRecord
  2
OpenSans-Light
 70
0
 40
0.0
 41
1.0
 50
0.0
 71
0
 42
2.5
  3
OpenSans-Light.ttf
  4

  0
STYLE
  5
42
330
5
100
AcDbSymbolTableRecord
100
AcDbTextStyleTableRecord
  2
OpenSans-Light-Italic
 70
0
 40
0.0
 41
1.0
 50
0.0
 71
0
 42
2.5
  3
OpenSans-LightItalic.ttf
  4

  0
STYLE
  5
43
330
5
100
AcDbSymbolTableRecord
100
AcDbTextStyleTableRecord
  2
OpenSans
 70
0
 40
0.0
 41
1.0
 50
0.0
 71
0
 42
2.5
  3
OpenSans-Regular.ttf
  4

  0
STYLE
  5
44
330
5
100
AcDbSymbolTableRecord
100
AcDbTextStyleTableRecord
  2
OpenSans-Italic
 70
0
 40
0.0
 41
1.0
 50
0.0
 71
0
 42
2.5
  3
OpenSans-Italic.ttf
  4

  0
STYLE
  5
45
330
5
100
AcDbSymbolTableRecord
100
AcDbTextStyleTableRecord
  2
OpenSans-SemiBold
 70
0
 40
0.0
 41
1.0
 50
0.0
 71
0
 42
2.5
  3
OpenSans-SemiBold.ttf
  4

  0
STYLE
  5
46
330
5
100
AcDbSymbolTableRecord
100
AcDbTextStyleTableRecord
  2
OpenSans-SemiBoldItalic
 70
0
 40
0.0
 41
1.0
 50
0.0
 71
0
 42
2.5
  3
OpenSans-SemiBoldItalic.ttf
  4

  0
STYLE
  5
47
330
5
100
AcDbSymbolTableRecord
100
AcDbTextStyleTableRecord
  2
OpenSans-Bold
 70
0
 40
0.0
 41
1.0
 50
0.0
 71
0
 42
2.5
  3
OpenSans-Bold.ttf
  4

  0
STYLE
  5
48
330
5
100
AcDbSymbolTableRecord
100
AcDbTextStyleTableRecord
  2
OpenSans-BoldItalic
 70
0
 40
0.0
 41
1.0
 50
0.0
 71
0
 42
2.5
  3
OpenSans-BoldItalic.ttf
  4

  0
STYLE
  5
49
330
5
100
AcDbSymbolTableRecord
100
AcDbTextStyleTableRecord
  2
OpenSans-ExtraBold
 70
0
 40
0.0
 41
1.0
 50
0.0
 71
0
 42
2.5
  3
OpenSans-ExtraBold.ttf
  4

  0
STYLE
  5
4A
330
5
100
AcDbSymbolTableRecord
100
AcDbTextStyleTableRecord
  2
OpenSans-ExtraBoldItalic
 70
0
 40
0.0
 41
1.0
 50
0.0
 71
0
 42
2.5
  3
OpenSans-ExtraBoldItalic.ttf
  4

  0
STYLE
  5
4B
330
5
100
AcDbSymbolTableRecord
100
AcDbTextStyleTableRecord
  2
OpenSansCondensed-Bold
 70
0
 40
0.0
 41
1.0
 50
0.0
 71
0
 42
2.5
  3
OpenSansCondensed-Bold.ttf
  4

  0
STYLE
  5
4C
330
5
100
AcDbSymbolTableRecord
100
AcDbTextStyleTableRecord
  2
OpenSansCondensed-Light
 70
0
 40
0.0
 41
1.0
 50
0.0
 71
0
 42
2.5
  3
OpenSansCondensed-Light.ttf
  4

  0
STYLE
  5
4D
330
5
100
AcDbSymbolTableRecord
100
AcDbTextStyleTableRecord
  2
OpenSansCondensed-Italic
 70
0
 40
0.0
 41
1.0
 50
0.0
 71
0
 42
2.5
  3
OpenSansCondensed-LightItalic.ttf
  4

  0
STYLE
  5
4E
330
5
100
AcDbSymbolTableRecord
100
AcDbTextStyleTableRecord
  2
LiberationSans
 70
0
 40
0.0
 41
1.0
 50
0.0
 71
0
 42
2.5
  3
LiberationSans-Regular.ttf
  4

  0
STYLE
  5
4F
330
5
100
AcDbSymbolTableRecord
100
AcDbTextStyleTableRecord
  2
LiberationSans-Bold
 70
0
 40
0.0
 41
1.0
 50
0.0
 71
0
 42
2.5
  3
LiberationSans-Bold.ttf
  4

  0
STYLE
  5
50
330
5
100
AcDbSymbolTableRecord
100
AcDbTextStyleTableRecord
  2
LiberationSans-BoldItalic
 70
0
 40
0.0
 41
1.0
 50
0.0
 71
0
 42
2.5
  3
LiberationSans-BoldItalic.ttf
  4

  0
STYLE
  5
51
330
5
100
AcDbSymbolTableRecord
100
AcDbTextStyleTableRecord
  2
LiberationSans-Italic
 70
0
 40
0.0
 41
1.0
 50
0.0
 71
0
 42
2.5
  3
LiberationSans-Italic.ttf
  4

  0
STYLE
  5
52
330
5
100
AcDbSymbolTableRecord
100
AcDbTextStyleTableRecord
  2
LiberationSerif
 70
0
 40
0.0
 41
1.0
 50
0.0
 71
0
 42
2.5
  3
LiberationSerif-Regular.ttf
  4

  0
STYLE
  5
53
330
5
100
AcDbSymbolTableRecord
100
AcDbTextStyleTableRecord
  2
LiberationSerif-Bold
 70
0
 40
0.0
 41
1.0
 50
0.0
 71
0
 42
2.5
  3
LiberationSerif-Bold.ttf
  4

  0
STYLE
  5
54
330
5
100
AcDbSymbolTableRecord
100
AcDbTextStyleTableRecord
  2
LiberationSerif-BoldItalic
 70
0
 40
0.0
 41
1.0
 50
0.0
 71
0
 42
2.5
  3
LiberationSerif-BoldItalic.ttf
  4

  0
STYLE
  5
55
330
5
100
AcDbSymbolTableRecord
100
AcDbTextStyleTableRecord
  2
LiberationSerif-Italic
 70
0
 40
0.0
 41
1.0
 50
0.0
 71
0
 42
2.5
  3
LiberationSerif-Italic.ttf
  4

  0
STYLE
  5
56
330
5
100
AcDbSymbolTableRecord
100
AcDbTextStyleTableRecord
  2
LiberationMono
 70
0
 40
0.0
 41
1.0
 50
0.0
 71
0
 42
2.5
  3
LiberationMono-Regular.ttf
  4

  0
STYLE
  5
57
330
5
100
AcDbSymbolTableRecord
100
AcDbTextStyleTableRecord
  2
LiberationMono-Bold
 70
0
 40
0.0
 41
1.0
 50
0.0
 71
0
 42
2.5
  3
LiberationMono-Bold.ttf
  4

  0
STYLE
  5
58
330
5
100
AcDbSymbolTableRecord
100
AcDbTextStyleTableRecord
  2
LiberationMono-BoldItalic
 70
0
 40
0.0
 41
1.0
 50
0.0
 71
0
 42
2.5
  3
LiberationMono-BoldItalic.ttf
  4

  0
STYLE
  5
59
330
5
100
AcDbSymbolTableRecord
100
AcDbTextStyleTableRecord
  2
LiberationMono-Italic
 70
0
 40
0.0
 41
1.0
 50
0.0
 71
0
 42
2.5
  3
LiberationMono-Italic.ttf
  4

  0
STYLE
  5
36A
330
5
100
AcDbSymbolTableRecord
100
AcDbTextStyleTableRecord
  2
ROMANS
 70
0
 40
25.0
 41
0.85
 50
0.0
 71
0
 42
2.5
  3
romans.shx
  4

  0
STYLE
  5
36B
330
5
100
AcDbSymbolTableRecord
100
AcDbTextStyleTableRecord
  2
Tahoma
 70
0
 40
0.0
 41
1.0
 50
0.0
 71
0
 42
2.5
  3

  4

  0
STYLE
  5
36C
330
5
100
AcDbSymbolTableRecord
100
AcDbTextStyleTableRecord
  2
HTX11
 70
0
 40
0.0
 41
1.0
 50
0.0
 71
0
 42
2.5
  3
O8111901
  4

  0
ENDTAB
  0
TABLE
  2
VIEW
  5
7
330
0
100
AcDbSymbolTable
 70
0
  0
ENDTAB
  0
TABLE
  2
UCS
  5
6
330
0
100
AcDbSymbolTable
 70
0
  0
ENDTAB
  0
TABLE
  2
APPID
  5
3
330
0
100
AcDbSymbolTable
 70
3
  0
APPID
  5
2A
330
3
100
AcDbSymbolTableRecord
100
AcDbRegAppTableRecord
  2
ACAD
 70
0
  0
APPID
  5
36D
330
3
100
AcDbSymbolTableRecord
100
AcDbRegAppTableRecord
  2
HATCHBACKGROUNDCOLOR
 70
0
  0
APPID
  5
36E
330
3
100
AcDbSymbolTableRecord
100
AcDbRegAppTableRecord
  2
EZDXF
 70
0
  0
ENDTAB
  0
TABLE
  2
DIMSTYLE
  5
4
330
0
100
AcDbSymbolTable
 70
12
100
AcDbDimStyleTable
  0
DIMSTYLE
105
2B
330
4
100
AcDbSymbolTableRecord
100
AcDbDimStyleTableRecord
  2
Standard
 70
0
 40
1.0
 41
2.5
 42
0.625
 43
3.75
 44
1.25
 45
0.0
 46
0.0
 47
0.0
 48
0.0
 49
2.5
140
2.5
141
2.5
142
0.0
143
0.03937007874
144
1.0
145
0.0
146
1.0
147
0.625
148
0.0
 69
0
 70
0
 71
0
 72
0
 73
0
 74
0
 75
0
 76
0
 77
1
 78
8
 79
3
170
0
171
3
172
1
173
0
174
0
175
0
176
0
177
0
178
0
179
2
271
2
272
2
273
2
274
3
275
0
276
0
277
2
278
44
279
0
280
0
281
0
282
0
283
0
284
8
285
0
286
0
288
0
289
3
290
0
371
-2
372
-2
  0
DIMSTYLE
105
73
330
4
100
AcDbSymbolTableRecord
100
AcDbDimStyleTableRecord
  2
EZDXF
 70
0
 40
1.0
 41
0.175
 42
0.125
 43
3.75
 44
0.375
 45
0.0
 46
0.0
 47
0.0
 48
0.0
 49
2.5
140
0.25
141
2.5
142
0.0
143
0.03937007874
144
100.0
145
0.0
146
0.5
147
0.1
148
0.0
 69
0
 70
0
 71
0
 72
0
 73
0
 74
0
 75
0
 76
0
 77
1
 78
12
 79
3
170
0
171
3
172
1
173
0
174
0
175
0
176
0
177
0
178
0
179
2
271
2
272
2
273
2
274
3
275
0
276
0
277
2
278
46
279
2
280
0
281
0
282
0
283
0
284
8
285
0
286
0
288
1
289
3
290
0
340
4C
342
74
371
-2
372
-2
  0
DIMSTYLE
105
7C
330
4
100
AcDbSymbolTableRecord
100
AcDbDimStyleTableRecord
  2
EZ_M_100_H25_CM
 70
0
 40
1.0
 41
0.25
 42
0.125
 43
3.75
 44
0.375
 45
0.0
 46
0.0
 47
0.0
 48
0.0
 49
2.5
140
0.25
141
2.5
142
0.125
143
0.03937007874
144
100.0
145
0.0
146
0.5
147
0.1
148
0.0
 69
0
 70
0
 71
0
 72
0
 73
0
 74
0
 75
0
 76
0
 77
1
 78
12
 79
3
170
0
171
3
172
1
173
0
174
0
175
0
176
0
177
0
178
0
179
2
271
2
272
2
273
2
274
3
275
0
276
0
277
2
278
46
279
2
280
0
281
0
282
0
283
0
284
8
285
0
286
0
288
1
289
3
290
0
340
4C
371
-2
372
-2
  0
DIMSTYLE
105
7D
330
4
100
AcDbSymbolTableRecord
100
AcDbDimStyleTableRecord
  2
EZ_M_50_H25_CM
 70
0
 40
1.0
 41
0.125
 42
0.0625
 43
3.75
 44
0.1875
 45
0.0
 46
0.0
 47
0.0
 48
0.0
 49
2.5
140
0.125
141
2.5
142
0.0625
143
0.03937007874
144
100.0
145
0.0
146
0.5
147
0.05
148
0.0
 69
0
 70
0
 71
0
 72
0
 73
0
 74
0
 75
0
 76
0
 77
1
 78
12
 79
3
170
0
171
3
172
1
173
0
174
0
175
0
176
0
177
0
178
0
179
2
271
2
272
2
273
2
274
3
275
0
276
0
277
2
278
46
279
2
280
0
281
0
282
0
283
0
284
8
285
0
286
0
288
1
289
3
290
0
340
4C
371
-2
372
-2
  0
DIMSTYLE
105
7E
330
4
100
AcDbSymbolTableRecord
100
AcDbDimStyleTableRecord
  2
EZ_M_25_H25_CM
 70
0
 40
1.0
 41
0.0625
 42
0.03125
 43
3.75
 44
0.09375
 45
0.0
 46
0.0
 47
0.0
 48
0.0
 49
2.5
140
0.0625
141
2.5
142
0.03125
143
0.03937007874
144
100.0
145
0.0
146
0.5
147
0.025
148
0.0
 69
0
 70
0
 71
0
 72
0
 73
0
 74
0
 75
0
 76
0
 77
1
 78
12
 79
3
170
0
171
3
172
1
173
0
174
0
175
0
176
0
177
0
178
0
179
2
271
2
272
2
273
2
274
3
275
0
276
0
277
2
278
46
279
2
280
0
281
0
282
0
283
0
284
8
285
0
286
0
288
1
289
3
290
0
340
4C
371
-2
372
-2
  0
DIMSTYLE
105
7F
330
4
100
AcDbSymbolTableRecord
100
AcDbDimStyleTableRecord
  2
EZ_M_20_H25_CM
 70
0
 40
1.0
 41
0.05
 42
0.025
 43
3.75
 44
0.07500000000000001
 45
0.0
 46
0.0
 47
0.0
 48
0.0
 49
2.5
140
0.05
141
2.5
142
0.025
143
0.03937007874
144
100.0
145
0.0
146
0.5
147
0.020000000000000004
148
0.0
 69
0
 70
0
 71
0
 72
0
 73
0
 74
0
 75
0
 76
0
 77
1
 78
12
 79
3
170
0
171
3
172
1
173
0
174
0
175
0
176
0
177
0
178
0
179
2
271
2
272
2
273
2
274
3
275
0
276
0
277
2
278
46
279
2
280
0
281
0
282
0
283
0
284
8
285
0
286
0
288
1
289
3
290
0
340
4C
371
-2
372
-2
  0
DIMSTYLE
105
80
330
4
100
AcDbSymbolTableRecord
100
AcDbDimStyleTableRecord
  2
EZ_M_10_H25_CM
 70
0
 40
1.0
 41
0.025
 42
0.0125
 43
3.75
 44
0.037500000000000006
 45
0.0
 46
0.0
 47
0.0
 48
0.0
 49
2.5
140
0.025
141
2.5
142
0.0125
143
0.03937007874
144
100.0
145
0.0
146
0.5
147
0.010000000000000002
148
0.0
 69
0
 70
0
 71
0
 72
0
 73
0
 74
0
 75
0
 76
0
 77
1
 78
12
 79
3
170
0
171
3
172
1
173
0
174
0
175
0
176
0
177
0
178
0
179
2
271
2
272
2
273
2
274
3
275
0
276
0
277
2
278
46
279
2
280
0
281
0
282
0
283
0
284
8
285
0
286
0
288
1
289
3
290
0
340
4C
371
-2
372
-2
  0
DIMSTYLE
105
81
330
4
100
AcDbSymbolTableRecord
100
AcDbDimStyleTableRecord
  2
EZ_M_5_H25_CM
 70
0
 40
1.0
 41
0.0125
 42
0.00625
 43
3.75
 44
0.018750000000000003
 45
0.0
 46
0.0
 47
0.0
 48
0.0
 49
2.5
140
0.0125
141
2.5
142
0.00625
143
0.03937007874
144
100.0
145
0.0
146
0.5
147
0.005000000000000001
148
0.0
 69
0
 70
0
 71
0
 72
0
 73
0
 74
0
 75
0
 76
0
 77
1
 78
12
 79
3
170
0
171
3
172
1
173
0
174
0
175
0
176
0
177
0
178
0
179
2
271
2
272
2
273
2
274
3
275
0
276
0
277
2
278
46
279
2
280
0
281
0
282
0
283
0
284
8
285
0
286
0
288
1
289
3
290
0
340
4C
371
-2
372
-2
  0
DIMSTYLE
105
82
330
4
100
AcDbSymbolTableRecord
100
AcDbDimStyleTableRecord
  2
EZ_M_1_H25_CM
 70
0
 40
1.0
 41
0.0025
 42
0.00125
 43
3.75
 44
0.00375
 45
0.0
 46
0.0
 47
0.0
 48
0.0
 49
2.5
140
0.0025
141
2.5
142
0.00125
143
0.03937007874
144
100.0
145
0.0
146
0.5
147
0.001
148
0.0
 69
0
 70
0
 71
0
 72
0
 73
0
 74
0
 75
0
 76
0
 77
1
 78
12
 79
3
170
0
171
3
172
1
173
0
174
0
175
0
176
0
177
0
178
0
179
2
271
2
272
2
273
2
274
3
275
0
276
0
277
2
278
46
279
2
280
0
281
0
282
0
283
0
284
8
285
0
286
0
288
1
289
3
290
0
340
4C
371
-2
372
-2
  0
DIMSTYLE
105
83
330
4
100
AcDbSymbolTableRecord
100
AcDbDimStyleTableRecord
  2
EZ_RADIUS
 70
0
 40
1.0
 41
0.25
 42
0.125
 43
3.75
 44
0.375
 45
0.0
 46
0.0
 47
0.0
 48
0.0
 49
2.5
140
0.25
141
0.0
142
0.0
143
0.03937007874
144
100.0
145
0.0
146
0.5
147
0.1
148
0.0
 69
0
 70
0
 71
0
 72
0
 73
0
 74
0
 75
0
 76
0
 77
1
 78
12
 79
3
170
0
171
3
172
0
173
0
174
0
175
0
176
0
177
0
178
0
179
2
271
2
272
2
273
2
274
3
275
0
276
0
277
2
278
46
279
1
280
0
281
0
282
0
283
0
284
8
285
0
286
0
288
1
289
3
290
0
340
4C
342
84
371
-2
372
-2
  0
DIMSTYLE
105
88
330
4
100
AcDbSymbolTableRecord
100
AcDbDimStyleTableRecord
  2
EZ_RADIUS_INSIDE
 70
0
 40
1.0
 41
0.25
 42
0.125
 43
3.75
 44
0.375
 45
0.0
 46
0.0
 47
0.0
 48
0.0
 49
2.5
140
0.25
141
0.0
142
0.0
143
0.03937007874
144
100.0
145
0.0
146
0.5
147
0.1
148
0.0
 69
0
 70
0
 71
0
 72
0
 73
0
 74
0
 75
0
 76
0
 77
0
 78
12
 79
3
170
0
171
3
172
0
173
0
174
1
175
0
176
0
177
0
178
0
179
2
271
2
272
2
273
2
274
3
275
0
276
0
277
2
278
46
279
0
280
0
281
0
282
0
283
0
284
8
285
0
286
0
288
1
289
0
290
0
340
4C
342
84
371
-2
372
-2
  0
DIMSTYLE
105
89
330
4
100
AcDbSymbolTableRecord
100
AcDbDimStyleTableRecord
  2
EZ_CURVED
 70
0
 40
1.0
 41
0.25
 42
0.125
 43
3.75
 44
0.375
 45
0.0
 46
0.0
 47
0.0
 48
0.0
 49
2.5
140
0.25
141
2.5
142
0.0
143
0.03937007874
144
100.0
145
0.0
146
0.5
147
0.1
148
0.0
 69
0
 70
0
 71
0
 72
0
 73
0
 74
0
 75
0
 76
0
 77
1
 78
12
 79
2
 90
2
170
0
171
3
172
1
173
0
174
0
175
0
176
0
177
0
178
0
179
2
271
2
272
2
273
2
274
3
275
0
276
0
277
2
278
46
279
2
280
0
281
0
282
0
283
0
284
8
285
0
286
0
288
1
289
3
290
0
340
4C
371
-2
372
-2
  0
ENDTAB
  0
TABLE
  2
BLOCK_RECORD
  5
9
330
0
100
AcDbSymbolTable
 70
6
  0
BLOCK_RECORD
  5
17
330
9
100
AcDbSymbolTableRecord
100
AcDbBlockTableRecord
  2
*Model_Space
340
1A
 70
0
280
1
281
0
  0
BLOCK_RECORD
  5
1B
330
9
100
AcDbSymbolTableRecord
100
AcDbBlockTableRecord
  2
*Paper_Space
340
1E
 70
0
280
1
281
0
  0
BLOCK_RECORD
  5
74
330
9
100
AcDbSymbolTableRecord
100
AcDbBlockTableRecord
  2
_ARCHTICK
340
0
 70
0
280
1
281
0
  0
BLOCK_RECORD
  5
78
330
9
100
AcDbSymbolTableRecord
100
AcDbBlockTableRecord
  2
_CLOSEDFILLED
340
0
 70
0
280
1
281
0
  0
BLOCK_RECORD
  5
84
330
9
100
AcDbSymbolTableRecord
100
AcDbBlockTableRecord
  2
_CLOSEDBLANK
340
0
 70
0
280
1
281
0
  0
BLOCK_RECORD
  5
35B
330
9
100
AcDbSymbolTableRecord
100
AcDbBlockTableRecord
  2
xTermSingleLayer33
340
0
 70
0
280
1
281
0
  0
ENDTAB
  0
ENDSEC
  0
SECTION
  2
BLOCKS
  0
BLOCK
  5
18
330
17
100
AcDbEntity
  8
0
100
AcDbBlockBegin
  2
*Model_Space
 70
2
 10
0.0
 20
0.0
 30
0.0
  3
*Model_Space
  1

  0
ENDBLK
  5
19
330
17
100
AcDbEntity
  8
0
100
AcDbBlockEnd
  0
BLOCK
  5
1C
330
1B
100
AcDbEntity
  8
0
100
AcDbBlockBegin
  2
*Paper_Space
 70
0
 10
0.0
 20
0.0
 30
0.0
  3
*Paper_Space
  1

  0
ENDBLK
  5
1D
330
1B
100
AcDbEntity
  8
0
100
AcDbBlockEnd
  0
BLOCK
  5
75
330
74
100
AcDbEntity
  8
0
100
AcDbBlockBegin
  2
_ARCHTICK
 70
0
 10
0.0
 20
0.0
 30
0.0
  3
_ARCHTICK
  1

  0
LWPOLYLINE
  5
77
330
74
100
AcDbEntity
  8
0
  6
BYBLOCK
 62
0
100
AcDbPolyline
 90
2
 70
0
 43
0.15
 10
-0.5
 20
-0.5
 10
0.5
 20
0.5
  0
ENDBLK
  5
76
330
74
100
AcDbEntity
  8
0
100
AcDbBlockEnd
  0
BLOCK
  5
79
330
78
100
AcDbEntity
  8
0
100
AcDbBlockBegin
  2
_CLOSEDFILLED
 70
0
 10
0.0
 20
0.0
 30
0.0
  3
_CLOSEDFILLED
  1

  0
SOLID
  5
7B
330
78
100
AcDbEntity
  8
0
  6
BYBLOCK
 62
0
100
AcDbTrace
 10
-1.0
 20
0.16439898372402537
 30
0.0
 11
0.0
 21
0.0
 31
0.0
 12
-1.0
 22
-0.16439898372402537
 32
0.0
 13
-1.0
 23
-0.16439898372402537
 33
0.0
  0
ENDBLK
  5
7A
330
78
100
AcDbEntity
  8
0
100
AcDbBlockEnd
  0
BLOCK
  5
85
330
84
100
AcDbEntity
  8
0
100
AcDbBlockBegin
  2
_CLOSEDBLANK
 70
0
 10
0.0
 20
0.0
 30
0.0
  3
_CLOSEDBLANK
  1

  0
LWPOLYLINE
  5
87
330
84
100
AcDbEntity
  8
0
  6
BYBLOCK
 62
0
100
AcDbPolyline
 90
3
 70
1
 10
-1.0
 20
0.16439898372402537
 10
0.0
 20
0.0
 10
-1.0
 20
-0.16439898372402537
  0
ENDBLK
  5
86
330
84
100
AcDbEntity
  8
0
100
AcDbBlockEnd
  0
BLOCK
  5
35C
330
35B
100
AcDbEntity
  8
0
100
AcDbBlockBegin
  2
xTermSingleLayer33
 70
2
 10
0.0
 20
0.0
 30
0.0
  3
xTermSingleLayer33
  1

  0
LWPOLYLINE
  5
35E
330
35B
100
AcDbEntity
  8
0
 62
7
 48
25.39999961853027
100
AcDbPolyline
 90
4
 70
1
 10
536.8309130924754
 20
-536.7653006816254
 10
3378.117506571667
 20
-536.7653006816254
 10
3378.117506571667
 20
0.0
 10
536.8309130924754
 20
0.0
  0
LWPOLYLINE
  5
35F
330
35B
100
AcDbEntity
  8
0
 62
7
 48
25.39999961853027
100
AcDbPolyline
 90
4
 70
1
 10
3378.117506571667
 20
-536.7653006816254
 10
3914.948419661072
 20
-536.7653006816254
 10
3914.948419661072
 20
0.0
 10
3378.117506571667
 20
0.0
  0
CIRCLE
  5
360
330
35B
100
AcDbEntity
  8
0
 62
7
 48
25.39999961853027
100
AcDbCircle
 10
3646.532963115533
 20
-268.3826503408054
 30
0.0
 40
141.2466056886129
  0
LWPOLYLINE
  5
361
330
35B
100
AcDbEntity
  8
0
 62
7
 48
25.39999961853027
100
AcDbPolyline
 90
4
 70
1
 10
0.0
 20
-536.7653006816254
 10
536.8309130907874
 20
-536.7653006816254
 10
536.8309130907874
 20
0.0
 10
0.0
 20
0.0
  0
CIRCLE
  5
362
330
35B
100
AcDbEntity
  8
0
 62
7
 48
25.39999961853027
100
AcDbCircle
 10
268.4154565469362
 20
-268.3826503408054
 30
0.0
 40
141.2466056886129
  0
ATTDEF
  5
363
330
35B
100
AcDbEntity
  8
0
100
AcDbText
 10
661.4916110486956
 20
-386.8292539856193
 30
0.0
 40
212.5
  1
xB
100
AcDbAttributeDefinition
  3
Terminal_B
  2
TERMINAL_B
 70
0
280
1
  0
ENDBLK
  5
35D
330
35B
100
AcDbEntity
  8
0
100
AcDbBlockEnd
  0
ENDSEC
  0
SECTION
  2
ENTITIES
  0
TEXT
  5
8A
330
17
100
AcDbEntity
  8
0
 62
7
100
AcDbText
 10
403.0
 20
922.0218749999991
 30
0.0
 40
5.5
  1

100
AcDbText
  0
TEXT
  5
8B
330
17
100
AcDbEntity
  8
0
 62
7
100
AcDbText
 10
403.0
 20
903.143749999999
 30
0.0
 40
5.5
  1

100
AcDbText
  0
TEXT
  5
8C
330
17
100
AcDbEntity
  8
0
 62
7
100
AcDbText
 10
403.0
 20
884.2656249999991
 30
0.0
 40
5.5
  1

100
AcDbText
  0
TEXT
  5
8D
330
17
100
AcDbEntity
  8
0
 62
7
100
AcDbText
 10
403.0
 20
865.3874999999991
 30
0.0
 40
5.5
  1

100
AcDbText
  0
TEXT
  5
8E
330
17
100
AcDbEntity
  8
0
 62
7
100
AcDbText
 10
403.0
 20
846.5093749999991
 30
0.0
 40
5.5
  1

100
AcDbText
  0
TEXT
  5
8F
330
17
100
AcDbEntity
  8
0
 62
7
100
AcDbText
 10
403.0
 20
827.6312499999991
 30
0.0
 40
5.5
  1

100
AcDbText
  0
TEXT
  5
90
330
17
100
AcDbEntity
  8
0
 62
7
100
AcDbText
 10
403.0
 20
808.753124999999
 30
0.0
 40
5.5
  1

100
AcDbText
  0
TEXT
  5
91
330
17
100
AcDbEntity
  8
0
 62
7
100
AcDbText
 10
403.0
 20
789.8749999999991
 30
0.0
 40
5.5
  1

100
AcDbText
  0
TEXT
  5
92
330
17
100
AcDbEntity
  8
0
 62
7
100
AcDbText
 10
403.0
 20
770.9968749999991
 30
0.0
 40
5.5
  1

100
AcDbText
  0
TEXT
  5
93
330
17
100
AcDbEntity
  8
0
 62
7
100
AcDbText
 10
403.0
 20
752.1187499999991
 30
0.0
 40
5.5
  1

100
AcDbText
  0
TEXT
  5
94
330
17
100
AcDbEntity
  8
0
 62
7
100
AcDbText
 10
403.0
 20
733.2406249999991
 30
0.0
 40
5.5
  1

100
AcDbText
  0
TEXT
  5
95
330
17
100
AcDbEntity
  8
0
 62
7
100
AcDbText
 10
403.0
 20
714.362499999999
 30
0.0
 40
5.5
  1

100
AcDbText
  0
TEXT
  5
96
330
17
100
AcDbEntity
  8
0
 62
7
100
AcDbText
 10
403.0
 20
695.4843749999991
 30
0.0
 40
5.5
  1

100
AcDbText
  0
TEXT
  5
97
330
17
100
AcDbEntity
  8
0
 62
7
100
AcDbText
 10
403.0
 20
676.6062499999991
 30
0.0
 40
5.5
  1

100
AcDbText
  0
TEXT
  5
98
330
17
100
AcDbEntity
  8
0
 62
7
100
AcDbText
 10
403.0
 20
657.7281249999992
 30
0.0
 40
5.5
  1

100
AcDbText
  0
TEXT
  5
99
330
17
100
AcDbEntity
  8
0
 62
7
100
AcDbText
 10
403.0
 20
638.8499999999991
 30
0.0
 40
5.5
  1

100
AcDbText
  0
TEXT
  5
9A
330
17
100
AcDbEntity
  8
0
 62
2
100
AcDbText
 10
749.9510904779709
 20
2430.6321190672543
 30
0.0
 40
11.4409728
  1
1756-IF16
  7
Tahoma
 72
1
 11
785.6186497376111
 21
2436.3526054672543
 31
0.0
100
AcDbText
 73
2
  0
TEXT
  5
9B
330
17
100
AcDbEntity
  8
0
 62
2
100
AcDbText
 10
690.3364013929131
 20
2402.062502078482
 30
0.0
 40
11.4409728
  1
ANALOG INPUT MODULE
  7
Tahoma
 72
1
 11
777.3692414906909
 21
2407.782988478482
 31
0.0
100
AcDbText
 73
2
  0
TEXT
  5
9C
330
17
100
AcDbEntity
  8
0
 62
2
100
AcDbText
 10
626.3519204056029
 20
1998.4534611239842
 30
0.0
 40
11.4409728
  1
16
  7
Tahoma
 72
1
 11
634.942254583173
 21
2004.173947523984
 31
0.0
100
AcDbText
 73
2
  0
TEXT
  5
9D
330
17
100
AcDbEntity
  8
0
 62
2
100
AcDbText
 10
626.3519204056029
 20
2048.08628956338
 30
0.0
 40
11.4409728
  1
14
  7
Tahoma
 72
1
 11
634.942254583173
 21
2053.80677596338
 31
0.0
100
AcDbText
 73
2
  0
TEXT
  5
9E
330
17
100
AcDbEntity
  8
0
 62
2
100
AcDbText
 10
626.3519204056029
 20
2097.719118002843
 30
0.0
 40
11.4409728
  1
12
  7
Tahoma
 72
1
 11
634.942254583173
 21
2103.439604402843
 31
0.0
100
AcDbText
 73
2
  0
TEXT
  5
9F
330
17
100
AcDbEntity
  8
0
 62
2
100
AcDbText
 10
626.3519204056029
 20
2147.3519464423052
 30
0.0
 40
11.4409728
  1
10
  7
Tahoma
 72
1
 11
634.942254583173
 21
2153.0724328423053
 31
0.0
100
AcDbText
 73
2
  0
TEXT
  5
A0
330
17
100
AcDbEntity
  8
0
 62
2
100
AcDbText
 10
630.6470874943807
 20
2196.984774881702
 30
0.0
 40
11.4409728
  1
8
  7
Tahoma
 72
1
 11
634.942254583173
 21
2202.705261281702
 31
0.0
100
AcDbText
 73
2
  0
TEXT
  5
A1
330
17
100
AcDbEntity
  8
0
 62
2
100
AcDbText
 10
630.6470874943807
 20
2246.617603321165
 30
0.0
 40
11.4409728
  1
6
  7
Tahoma
 72
1
 11
634.942254583173
 21
2252.338089721166
 31
0.0
100
AcDbText
 73
2
  0
TEXT
  5
A2
330
17
100
AcDbEntity
  8
0
 62
2
100
AcDbText
 10
630.6470874943807
 20
2296.250431760628
 30
0.0
 40
11.4409728
  1
4
  7
Tahoma
 72
1
 11
634.942254583173
 21
2301.970918160628
 31
0.0
100
AcDbText
 73
2
  0
TEXT
  5
A3
330
17
100
AcDbEntity
  8
0
 62
2
100
AcDbText
 10
630.6470874943807
 20
2345.883260200086
 30
0.0
 40
11.4409728
  1
2
  7
Tahoma
 72
1
 11
634.942254583173
 21
2351.603746600086
 31
0.0
100
AcDbText
 73
2
  0
TEXT
  5
A4
330
17
100
AcDbEntity
  8
0
 62
2
100
AcDbText
 10
626.3519204056029
 20
1899.1878042450592
 30
0.0
 40
11.4409728
  1
20
  7
Tahoma
 72
1
 11
634.942254583173
 21
1904.9082906450592
 31
0.0
100
AcDbText
 73
2
  0
TEXT
  5
A5
330
17
100
AcDbEntity
  8
0
 62
2
100
AcDbText
 10
626.3519204056029
 20
1948.82063268452
 30
0.0
 40
11.4409728
  1
18
  7
Tahoma
 72
1
 11
634.942254583173
 21
1954.54111908452
 31
0.0
100
AcDbText
 73
2
  0
TEXT
  5
A6
330
17
100
AcDbEntity
  8
0
 62
2
100
AcDbText
 10
910.7599842654308
 20
1998.4534611239842
 30
0.0
 40
11.4409728
  1
15
  7
Tahoma
 72
1
 11
919.350318443001
 21
2004.173947523984
 31
0.0
100
AcDbText
 73
2
  0
TEXT
  5
A7
330
17
100
AcDbEntity
  8
0
 62
2
100
AcDbText
 10
910.7599842654308
 20
2048.08628956338
 30
0.0
 40
11.4409728
  1
13
  7
Tahoma
 72
1
 11
919.350318443001
 21
2053.80677596338
 31
0.0
100
AcDbText
 73
2
  0
TEXT
  5
A8
330
17
100
AcDbEntity
  8
0
 62
2
100
AcDbText
 10
910.7599842654308
 20
2097.719118002843
 30
0.0
 40
11.4409728
  1
11
  7
Tahoma
 72
1
 11
919.350318443001
 21
2103.439604402843
 31
0.0
100
AcDbText
 73
2
  0
TEXT
  5
A9
330
17
100
AcDbEntity
  8
0
 62
2
100
AcDbText
 10
915.0551513542232
 20
2147.3519464423052
 30
0.0
 40
11.4409728
  1
9
  7
Tahoma
 72
1
 11
919.350318443001
 21
2153.0724328423053
 31
0.0
100
AcDbText
 73
2
  0
TEXT
  5
AA
330
17
100
AcDbEntity
  8
0
 62
2
100
AcDbText
 10
915.0551513542232
 20
2196.984774881702
 30
0.0
 40
11.4409728
  1
7
  7
Tahoma
 72
1
 11
919.350318443001
 21
2202.705261281702
 31
0.0
100
AcDbText
 73
2
  0
TEXT
  5
AB
330
17
100
AcDbEntity
  8
0
 62
2
100
AcDbText
 10
915.0551513542232
 20
2246.617603321165
 30
0.0
 40
11.4409728
  1
5
  7
Tahoma
 72
1
 11
919.350318443001
 21
2252.338089721166
 31
0.0
100
AcDbText
 73
2
  0
TEXT
  5
AC
330
17
100
AcDbEntity
  8
0
 62
2
100
AcDbText
 10
915.0551513542232
 20
2296.250431760628
 30
0.0
 40
11.4409728
  1
3
  7
Tahoma
 72
1
 11
919.350318443001
 21
2301.970918160628
 31
0.0
100
AcDbText
 73
2
  0
TEXT
  5
AD
330
17
100
AcDbEntity
  8
0
 62
2
100
AcDbText
 10
915.0551513542232
 20
2345.883260200086
 30
0.0
 40
11.4409728
  1
1
  7
Tahoma
 72
1
 11
919.350318443001
 21
2351.603746600086
 31
0.0
100
AcDbText
 73
2
  0
TEXT
  5
AE
330
17
100
AcDbEntity
  8
0
 62
2
100
AcDbText
 10
910.7599842654308
 20
1899.1878042450592
 30
0.0
 40
11.4409728
  1
19
  7
Tahoma
 72
1
 11
919.350318443001
 21
1904.9082906450592
 31
0.0
100
AcDbText
 73
2
  0
TEXT
  5
AF
330
17
100
AcDbEntity
  8
0
 62
2
100
AcDbText
 10
910.7599842654308
 20
1948.82063268452
 30
0.0
 40
11.4409728
  1
17
  7
Tahoma
 72
1
 11
919.350318443001
 21
1954.54111908452
 31
0.0
100
AcDbText
 73
2
  0
TEXT
  5
B0
330
17
100
AcDbEntity
  8
0
100
AcDbText
 10
1048.267930147791
 20
2110.871885105159
 30
0.0
 40
9.948672000000002
  1
C5S4-11/P5-TBAI1-5(B)
  7
Tahoma
100
AcDbText
  0
TEXT
  5
B1
330
17
100
AcDbEntity
  8
0
 62
2
100
AcDbText
 10
716.1853560279815
 20
2468.0593128929
 30
0.0
 40
11.4409728
  1
CHASSIS C5 SLOT 4
  7
Tahoma
 72
1
 11
786.1796755186515
 21
2473.7797992929
 31
0.0
100
AcDbText
 73
2
  0
TEXT
  5
B2
330
17
100
AcDbEntity
  8
0
 62
2
100
AcDbText
 10
704.2450233647796
 20
2345.883260200086
 30
0.0
 40
11.4409728
  1
IN-0
  7
Tahoma
 72
1
 11
719.585454657732
 21
2351.603746600086
 31
0.0
100
AcDbText
 73
2
  0
TEXT
  5
B3
330
17
100
AcDbEntity
  8
0
 62
2
100
AcDbText
 10
704.2450233647796
 20
2296.250431760628
 30
0.0
 40
11.4409728
  1
IN-1
  7
Tahoma
 72
1
 11
719.585454657732
 21
2301.970918160628
 31
0.0
100
AcDbText
 73
2
  0
TEXT
  5
B4
330
17
100
AcDbEntity
  8
0
 62
2
100
AcDbText
 10
704.2450233647796
 20
2246.6176033212273
 30
0.0
 40
11.4409728
  1
IN-2
  7
Tahoma
 72
1
 11
719.585454657732
 21
2252.338089721227
 31
0.0
100
AcDbText
 73
2
  0
TEXT
  5
B5
330
17
100
AcDbEntity
  8
0
 62
2
100
AcDbText
 10
704.2450233647796
 20
2196.984774881702
 30
0.0
 40
11.4409728
  1
IN-3
  7
Tahoma
 72
1
 11
719.585454657732
 21
2202.705261281702
 31
0.0
100
AcDbText
 73
2
  0
TEXT
  5
B6
330
17
100
AcDbEntity
  8
0
 62
2
100
AcDbText
 10
704.8558744981601
 20
2147.3519464423052
 30
0.0
 40
11.4409728
  1
RTN
  7
Tahoma
 72
1
 11
719.585454657732
 21
2153.0724328423053
 31
0.0
100
AcDbText
 73
2
  0
TEXT
  5
B7
330
17
100
AcDbEntity
  8
0
 62
2
100
AcDbText
 10
704.2450233648415
 20
2097.719118002843
 30
0.0
 40
11.4409728
  1
IN-4
  7
Tahoma
 72
1
 11
719.5854546577903
 21
2103.439604402843
 31
0.0
100
AcDbText
 73
2
  0
TEXT
  5
B8
330
17
100
AcDbEntity
  8
0
 62
2
100
AcDbText
 10
704.2450233648415
 20
2048.08628956338
 30
0.0
 40
11.4409728
  1
IN-5
  7
Tahoma
 72
1
 11
719.5854546577903
 21
2053.80677596338
 31
0.0
100
AcDbText
 73
2
  0
TEXT
  5
B9
330
17
100
AcDbEntity
  8
0
 62
2
100
AcDbText
 10
704.2450233647796
 20
1899.1878042450592
 30
0.0
 40
11.4409728
  1
IN-8
  7
Tahoma
 72
1
 11
719.585454657732
 21
1904.9082906450592
 31
0.0
100
AcDbText
 73
2
  0
TEXT
  5
BA
330
17
100
AcDbEntity
  8
0
 62
2
100
AcDbText
 10
704.2450233647796
 20
1948.82063268452
 30
0.0
 40
11.4409728
  1
IN-7
  7
Tahoma
 72
1
 11
719.585454657732
 21
1954.54111908452
 31
0.0
100
AcDbText
 73
2
  0
TEXT
  5
BB
330
17
100
AcDbEntity
  8
0
 62
2
100
AcDbText
 10
808.9527868682708
 20
2296.250431760628
 30
0.0
 40
11.4409728
  1
i RTN-1
  7
Tahoma
 72
1
 11
835.0926051796232
 21
2301.970918160628
 31
0.0
100
AcDbText
 73
2
  0
TEXT
  5
BC
330
17
100
AcDbEntity
  8
0
 62
2
100
AcDbText
 10
808.9527868682708
 20
2246.6176033212273
 30
0.0
 40
11.4409728
  1
i RTN-2
  7
Tahoma
 72
1
 11
835.0926051796232
 21
2252.338089721227
 31
0.0
100
AcDbText
 73
2
  0
TEXT
  5
BD
330
17
100
AcDbEntity
  8
0
 62
2
100
AcDbText
 10
808.9527868682708
 20
2196.984774881702
 30
0.0
 40
11.4409728
  1
i RTN-3
  7
Tahoma
 72
1
 11
835.0926051796232
 21
2202.705261281702
 31
0.0
100
AcDbText
 73
2
  0
TEXT
  5
BE
330
17
100
AcDbEntity
  8
0
 62
2
100
AcDbText
 10
820.3630250200513
 20
2147.3519464423052
 30
0.0
 40
11.4409728
  1
RTN
  7
Tahoma
 72
1
 11
835.0926051796232
 21
2153.0724328423053
 31
0.0
100
AcDbText
 73
2
  0
TEXT
  5
BF
330
17
100
AcDbEntity
  8
0
 62
2
100
AcDbText
 10
808.9527868683908
 20
2097.719118002843
 30
0.0
 40
11.4409728
  1
i RTN-4
  7
Tahoma
 72
1
 11
835.0926051797396
 21
2103.439604402843
 31
0.0
100
AcDbText
 73
2
  0
TEXT
  5
C0
330
17
100
AcDbEntity
  8
0
 62
2
100
AcDbText
 10
808.9527868683908
 20
2048.08628956338
 30
0.0
 40
11.4409728
  1
i RTN-5
  7
Tahoma
 72
1
 11
835.0926051797396
 21
2053.80677596338
 31
0.0
100
AcDbText
 73
2
  0
TEXT
  5
C1
330
17
100
AcDbEntity
  8
0
 62
2
100
AcDbText
 10
808.9527868682708
 20
1948.82063268452
 30
0.0
 40
11.4409728
  1
i RTN-7
  7
Tahoma
 72
1
 11
835.0926051796232
 21
1954.54111908452
 31
0.0
100
AcDbText
 73
2
  0
TEXT
  5
C2
330
17
100
AcDbEntity
  8
0
 62
2
100
AcDbText
 10
808.9527868682708
 20
1899.1878042450592
 30
0.0
 40
11.4409728
  1
i RTN-8
  7
Tahoma
 72
1
 11
835.0926051796232
 21
1904.9082906450592
 31
0.0
100
AcDbText
 73
2
  0
TEXT
  5
C3
330
17
100
AcDbEntity
  8
0
 62
2
100
AcDbText
 10
808.9527868682708
 20
2345.883260200086
 30
0.0
 40
11.4409728
  1
i RTN-0
  7
Tahoma
 72
1
 11
835.0926051796232
 21
2351.603746600086
 31
0.0
100
AcDbText
 73
2
  0
LINE
  5
C4
330
17
100
AcDbEntity
  8
IE-WIRE
 62
4
 48
25.39999961853027
100
AcDbLine
 10
348.14868212410147
 20
2352.747843880024
 30
0.0
 11
593.4300439792605
 21
2352.7478438800863
 31
0.0
  0
LINE
  5
C5
330
17
100
AcDbEntity
  8
IE-WIRE
 62
4
 48
25.39999961853027
100
AcDbLine
 10
348.14868212410147
 20
2303.115015440565
 30
0.0
 11
593.4300439792605
 21
2303.115015440565
 31
0.0
  0
LINE
  5
C6
330
17
100
AcDbEntity
  8
IE-WIRE
 62
4
 48
25.39999961853027
100
AcDbLine
 10
338.9737934142431
 20
2343.572955170162
 30
0.0
 11
338.9737934142431
 21
1346.1501543611641
 31
0.0
  0
TEXT
  5
C7
330
17
100
AcDbEntity
  8
0
 62
4
100
AcDbText
 10
365.7975785348499
 20
2358.7044335377823
 30
0.0
 40
9.948672000000002
  1
C5S4-2/P5-TBAI1-1(A)
  7
Tahoma
100
AcDbText
  0
TEXT
  5
C8
330
17
100
AcDbEntity
  8
0
 62
4
100
AcDbText
 10
365.7975785348499
 20
2308.740010416704
 30
0.0
 40
9.948672000000002
  1
C5S4-4/P5-TBAI1-2(A)
  7
Tahoma
100
AcDbText
  0
TEXT
  5
C9
330
17
100
AcDbEntity
  8
0
 62
2
100
AcDbText
 10
626.3519204056029
 20
1700.656490487336
 30
0.0
 40
11.4409728
  1
28
  7
Tahoma
 72
1
 11
634.942254583173
 21
1706.376976887336
 31
0.0
100
AcDbText
 73
2
  0
TEXT
  5
CA
330
17
100
AcDbEntity
  8
0
 62
2
100
AcDbText
 10
626.3519204056029
 20
1750.2893189267982
 30
0.0
 40
11.4409728
  1
26
  7
Tahoma
 72
1
 11
634.942254583173
 21
1756.0098053267982
 31
0.0
100
AcDbText
 73
2
  0
TEXT
  5
CB
330
17
100
AcDbEntity
  8
0
 62
2
100
AcDbText
 10
626.3519204056029
 20
1799.9221473661992
 30
0.0
 40
11.4409728
  1
24
  7
Tahoma
 72
1
 11
634.942254583173
 21
1805.6426337661992
 31
0.0
100
AcDbText
 73
2
  0
TEXT
  5
CC
330
17
100
AcDbEntity
  8
0
 62
2
100
AcDbText
 10
626.3519204056029
 20
1849.554975805657
 30
0.0
 40
11.4409728
  1
22
  7
Tahoma
 72
1
 11
634.942254583173
 21
1855.275462205657
 31
0.0
100
AcDbText
 73
2
  0
TEXT
  5
CD
330
17
100
AcDbEntity
  8
0
 62
2
100
AcDbText
 10
626.3519204056029
 20
1601.390833608476
 30
0.0
 40
11.4409728
  1
32
  7
Tahoma
 72
1
 11
634.942254583173
 21
1607.111320008476
 31
0.0
100
AcDbText
 73
2
  0
TEXT
  5
CE
330
17
100
AcDbEntity
  8
0
 62
2
100
AcDbText
 10
626.3519204056029
 20
1651.023662047876
 30
0.0
 40
11.4409728
  1
30
  7
Tahoma
 72
1
 11
634.942254583173
 21
1656.7441484478761
 31
0.0
100
AcDbText
 73
2
  0
TEXT
  5
CF
330
17
100
AcDbEntity
  8
0
 62
2
100
AcDbText
 10
910.7599842654308
 20
1700.656490487336
 30
0.0
 40
11.4409728
  1
27
  7
Tahoma
 72
1
 11
919.350318443001
 21
1706.376976887336
 31
0.0
100
AcDbText
 73
2
  0
TEXT
  5
D0
330
17
100
AcDbEntity
  8
0
 62
2
100
AcDbText
 10
910.7599842654308
 20
1750.2893189267982
 30
0.0
 40
11.4409728
  1
25
  7
Tahoma
 72
1
 11
919.350318443001
 21
1756.0098053267982
 31
0.0
100
AcDbText
 73
2
  0
TEXT
  5
D1
330
17
100
AcDbEntity
  8
0
 62
2
100
AcDbText
 10
910.7599842654308
 20
1799.9221473661992
 30
0.0
 40
11.4409728
  1
23
  7
Tahoma
 72
1
 11
919.350318443001
 21
1805.6426337661992
 31
0.0
100
AcDbText
 73
2
  0
TEXT
  5
D2
330
17
100
AcDbEntity
  8
0
 62
2
100
AcDbText
 10
910.7599842654308
 20
1849.554975805657
 30
0.0
 40
11.4409728
  1
21
  7
Tahoma
 72
1
 11
919.350318443001
 21
1855.275462205657
 31
0.0
100
AcDbText
 73
2
  0
TEXT
  5
D3
330
17
100
AcDbEntity
  8
0
 62
2
100
AcDbText
 10
910.7599842654308
 20
1601.390833608476
 30
0.0
 40
11.4409728
  1
31
  7
Tahoma
 72
1
 11
919.350318443001
 21
1607.111320008476
 31
0.0
100
AcDbText
 73
2
  0
TEXT
  5
D4
330
17
100
AcDbEntity
  8
0
 62
2
100
AcDbText
 10
910.7599842654308
 20
1651.023662047876
 30
0.0
 40
11.4409728
  1
29
  7
Tahoma
 72
1
 11
919.350318443001
 21
1656.7441484478761
 31
0.0
100
AcDbText
 73
2
  0
TEXT
  5
D5
330
17
100
AcDbEntity
  8
0
 62
2
100
AcDbText
 10
704.2450233647796
 20
1849.554975805657
 30
0.0
 40
11.4409728
  1
IN-9
  7
Tahoma
 72
1
 11
719.585454657732
 21
1855.275462205657
 31
0.0
100
AcDbText
 73
2
  0
TEXT
  5
D6
330
17
100
AcDbEntity
  8
0
 62
2
100
AcDbText
 10
699.9498562760018
 20
1799.9221473661992
 30
0.0
 40
11.4409728
  1
IN-10
  7
Tahoma
 72
1
 11
719.585454657732
 21
1805.6426337661992
 31
0.0
100
AcDbText
 73
2
  0
TEXT
  5
D7
330
17
100
AcDbEntity
  8
0
 62
2
100
AcDbText
 10
699.9498562760018
 20
1750.2893189267982
 30
0.0
 40
11.4409728
  1
IN-11
  7
Tahoma
 72
1
 11
719.585454657732
 21
1756.0098053267982
 31
0.0
100
AcDbText
 73
2
  0
TEXT
  5
D8
330
17
100
AcDbEntity
  8
0
 62
2
100
AcDbText
 10
704.8558744981601
 20
1700.656490487336
 30
0.0
 40
11.4409728
  1
RTN
  7
Tahoma
 72
1
 11
719.585454657732
 21
1706.376976887336
 31
0.0
100
AcDbText
 73
2
  0
TEXT
  5
D9
330
17
100
AcDbEntity
  8
0
 62
2
100
AcDbText
 10
699.9498562760018
 20
1601.390833608476
 30
0.0
 40
11.4409728
  1
IN-13
  7
Tahoma
 72
1
 11
719.585454657732
 21
1607.111320008476
 31
0.0
100
AcDbText
 73
2
  0
TEXT
  5
DA
330
17
100
AcDbEntity
  8
0
 62
2
100
AcDbText
 10
699.9498562760018
 20
1651.023662047876
 30
0.0
 40
11.4409728
  1
IN-12
  7
Tahoma
 72
1
 11
719.585454657732
 21
1656.7441484478761
 31
0.0
100
AcDbText
 73
2
  0
TEXT
  5
DB
330
17
100
AcDbEntity
  8
0
 62
2
100
AcDbText
 10
808.9527868682708
 20
1849.554975805657
 30
0.0
 40
11.4409728
  1
i RTN-9
  7
Tahoma
 72
1
 11
835.0926051796232
 21
1855.275462205657
 31
0.0
100
AcDbText
 73
2
  0
TEXT
  5
DC
330
17
100
AcDbEntity
  8
0
 62
2
100
AcDbText
 10
804.657619779493
 20
1799.9221473661992
 30
0.0
 40
11.4409728
  1
i RTN-10
  7
Tahoma
 72
1
 11
835.0926051796232
 21
1805.6426337661992
 31
0.0
100
AcDbText
 73
2
  0
TEXT
  5
DD
330
17
100
AcDbEntity
  8
0
 62
2
100
AcDbText
 10
804.657619779493
 20
1750.2893189267982
 30
0.0
 40
11.4409728
  1
i RTN-11
  7
Tahoma
 72
1
 11
835.0926051796232
 21
1756.0098053267982
 31
0.0
100
AcDbText
 73
2
  0
TEXT
  5
DE
330
17
100
AcDbEntity
  8
0
 62
2
100
AcDbText
 10
820.3630250200513
 20
1700.6564904872762
 30
0.0
 40
11.4409728
  1
RTN
  7
Tahoma
 72
1
 11
835.0926051796232
 21
1706.376976887276
 31
0.0
100
AcDbText
 73
2
  0
TEXT
  5
DF
330
17
100
AcDbEntity
  8
0
 62
2
100
AcDbText
 10
804.657619779493
 20
1651.023662047876
 30
0.0
 40
11.4409728
  1
i RTN-12
  7
Tahoma
 72
1
 11
835.0926051796232
 21
1656.7441484478761
 31
0.0
100
AcDbText
 73
2
  0
TEXT
  5
E0
330
17
100
AcDbEntity
  8
0
 62
2
100
AcDbText
 10
804.657619779493
 20
1601.3908336084141
 30
0.0
 40
11.4409728
  1
i RTN-13
  7
Tahoma
 72
1
 11
835.0926051796232
 21
1607.1113200084142
 31
0.0
100
AcDbText
 73
2
  0
TEXT
  5
E1
330
17
100
AcDbEntity
  8
0
 62
2
100
AcDbText
 10
626.3519204056029
 20
1502.1251767296171
 30
0.0
 40
11.4409728
  1
36
  7
Tahoma
 72
1
 11
634.942254583173
 21
1507.8456631296172
 31
0.0
100
AcDbText
 73
2
  0
TEXT
  5
E2
330
17
100
AcDbEntity
  8
0
 62
2
100
AcDbText
 10
626.3519204056029
 20
1551.7580051690131
 30
0.0
 40
11.4409728
  1
34
  7
Tahoma
 72
1
 11
634.942254583173
 21
1557.4784915690132
 31
0.0
100
AcDbText
 73
2
  0
TEXT
  5
E3
330
17
100
AcDbEntity
  8
0
 62
2
100
AcDbText
 10
910.7599842654308
 20
1502.1251767296171
 30
0.0
 40
11.4409728
  1
35
  7
Tahoma
 72
1
 11
919.350318443001
 21
1507.8456631296172
 31
0.0
100
AcDbText
 73
2
  0
TEXT
  5
E4
330
17
100
AcDbEntity
  8
0
 62
2
100
AcDbText
 10
910.7599842654308
 20
1551.7580051690131
 30
0.0
 40
11.4409728
  1
33
  7
Tahoma
 72
1
 11
919.350318443001
 21
1557.4784915690132
 31
0.0
100
AcDbText
 73
2
  0
TEXT
  5
E5
330
17
100
AcDbEntity
  8
0
 62
2
100
AcDbText
 10
699.9498562760018
 20
1502.1251767296171
 30
0.0
 40
11.4409728
  1
IN-15
  7
Tahoma
 72
1
 11
719.585454657732
 21
1507.8456631296172
 31
0.0
100
AcDbText
 73
2
  0
TEXT
  5
E6
330
17
100
AcDbEntity
  8
0
 62
2
100
AcDbText
 10
699.9498562760018
 20
1551.7580051690131
 30
0.0
 40
11.4409728
  1
IN-14
  7
Tahoma
 72
1
 11
719.585454657732
 21
1557.4784915690132
 31
0.0
100
AcDbText
 73
2
  0
TEXT
  5
E7
330
17
100
AcDbEntity
  8
0
 62
2
100
AcDbText
 10
804.657619779493
 20
1551.7580051690131
 30
0.0
 40
11.4409728
  1
i RTN-14
  7
Tahoma
 72
1
 11
835.0926051796232
 21
1557.4784915690132
 31
0.0
100
AcDbText
 73
2
  0
TEXT
  5
E8
330
17
100
AcDbEntity
  8
0
 62
2
100
AcDbText
 10
804.657619779493
 20
1502.125176729555
 30
0.0
 40
11.4409728
  1
i RTN-15
  7
Tahoma
 72
1
 11
835.0926051796232
 21
1507.845663129555
 31
0.0
100
AcDbText
 73
2
  0
TEXT
  5
E9
330
17
100
AcDbEntity
  8
0
 62
2
100
AcDbText
 10
704.2450233648415
 20
1998.4534611239842
 30
0.0
 40
11.4409728
  1
IN-6
  7
Tahoma
 72
1
 11
719.5854546577903
 21
2004.173947523984
 31
0.0
100
AcDbText
 73
2
  0
TEXT
  5
EA
330
17
100
AcDbEntity
  8
0
 62
2
100
AcDbText
 10
808.9527868683908
 20
1998.4534611239842
 30
0.0
 40
11.4409728
  1
i RTN-6
  7
Tahoma
 72
1
 11
835.0926051797396
 21
2004.173947523984
 31
0.0
100
AcDbText
 73
2
  0
TEXT
  5
EB
330
17
100
AcDbEntity
  8
0
100
AcDbText
 10
1048.267930147791
 20
2160.504713544618
 30
0.0
 40
9.948672000000002
  1
0VDC
  7
Tahoma
100
AcDbText
  0
TEXT
  5
EC
330
17
100
AcDbEntity
  8
0
 62
4
100
AcDbText
 10
565.8521242630704
 20
2358.0013119002433
 30
0.0
 40
9.948672000000002
  1
WH
  7
Tahoma
100
AcDbText
  0
TEXT
  5
ED
330
17
100
AcDbEntity
  8
0
 62
4
100
AcDbText
 10
565.8521242630704
 20
2308.368483460846
 30
0.0
 40
9.948672000000002
  1
WH
  7
Tahoma
100
AcDbText
  0
TEXT
  5
EE
330
17
100
AcDbEntity
  8
0
100
AcDbText
 10
985.3489088676106
 20
2159.469998142519
 30
0.0
 40
9.948672000000002
  1
BK
  7
Tahoma
100
AcDbText
  0
TEXT
  5
EF
330
17
100
AcDbEntity
  8
0
100
AcDbText
 10
985.3489088676106
 20
2109.837169703061
 30
0.0
 40
9.948672000000002
  1
BK
  7
Tahoma
100
AcDbText
  0
LINE
  5
F0
330
17
100
AcDbEntity
  8
IE-WIRE
 62
4
 48
25.39999961853027
100
AcDbLine
 10
348.14868212410147
 20
2253.4821870011033
 30
0.0
 11
593.4300439792605
 21
2253.4821870011033
 31
0.0
  0
TEXT
  5
F1
330
17
100
AcDbEntity
  8
0
 62
4
100
AcDbText
 10
365.7975785348499
 20
2259.107181977182
 30
0.0
 40
9.948672000000002
  1
C5S4-6/P5-TBAI1-3(A)
  7
Tahoma
100
AcDbText
  0
TEXT
  5
F2
330
17
100
AcDbEntity
  8
0
 62
4
100
AcDbText
 10
565.8521242630704
 20
2258.73565502132
 30
0.0
 40
9.948672000000002
  1
WH
  7
Tahoma
100
AcDbText
  0
TEXT
  5
F3
330
17
100
AcDbEntity
  8
0
 62
4
100
AcDbText
 10
365.7975785348499
 20
2209.474353537781
 30
0.0
 40
9.948672000000002
  1
C5S4-8/P5-TBAI1-4(A)
  7
Tahoma
100
AcDbText
  0
TEXT
  5
F4
330
17
100
AcDbEntity
  8
0
 62
4
100
AcDbText
 10
565.8521242630704
 20
2209.10282658192
 30
0.0
 40
9.948672000000002
  1
WH
  7
Tahoma
100
AcDbText
  0
LINE
  5
F5
330
17
100
AcDbEntity
  8
0
 48
25.39999961853027
100
AcDbLine
 10
322.89212583619155
 20
2154.216530122242
 30
0.0
 11
593.4300439792605
 21
2154.216530122242
 31
0.0
  0
TEXT
  5
F6
330
17
100
AcDbEntity
  8
0
100
AcDbText
 10
365.7975785348499
 20
2159.841525098323
 30
0.0
 40
9.948672000000002
  1
0VDC
  7
Tahoma
100
AcDbText
  0
TEXT
  5
F7
330
17
100
AcDbEntity
  8
0
100
AcDbText
 10
565.8521242630704
 20
2159.469998142459
 30
0.0
 40
9.948672000000002
  1
BK
  7
Tahoma
100
AcDbText
  0
TEXT
  5
F8
330
17
100
AcDbEntity
  8
0
100
AcDbText
 10
1048.267930147791
 20
2061.239056665759
 30
0.0
 40
9.948672000000002
  1
C5S4-13/P5-TBAI1-6(B)
  7
Tahoma
100
AcDbText
  0
TEXT
  5
F9
330
17
100
AcDbEntity
  8
0
100
AcDbText
 10
985.3489088676106
 20
2060.204341263599
 30
0.0
 40
9.948672000000002
  1
BK
  7
Tahoma
100
AcDbText
  0
TEXT
  5
FA
330
17
100
AcDbEntity
  8
0
100
AcDbText
 10
1048.267930147791
 20
2011.6062282262972
 30
0.0
 40
9.948672000000002
  1
C5S4-15/P5-TBAI1-7(B)
  7
Tahoma
100
AcDbText
  0
TEXT
  5
FB
330
17
100
AcDbEntity
  8
0
100
AcDbText
 10
985.3489088676106
 20
2010.5715128241961
 30
0.0
 40
9.948672000000002
  1
BK
  7
Tahoma
100
AcDbText
  0
LINE
  5
FC
330
17
100
AcDbEntity
  8
IE-WIRE
 62
4
 48
25.39999961853027
100
AcDbLine
 10
348.14868212410147
 20
1906.052387925059
 30
0.0
 11
593.4300439792605
 21
1906.052387925059
 31
0.0
  0
TEXT
  5
FD
330
17
100
AcDbEntity
  8
0
 62
4
100
AcDbText
 10
365.7975785348499
 20
1911.677382901139
 30
0.0
 40
9.948672000000002
  1
C5S4-20/P5-TBAI1-9(A)
  7
Tahoma
100
AcDbText
  0
TEXT
  5
FE
330
17
100
AcDbEntity
  8
0
 62
4
100
AcDbText
 10
565.8521242630704
 20
1911.305855945276
 30
0.0
 40
9.948672000000002
  1
WH
  7
Tahoma
100
AcDbText
  0
TEXT
  5
FF
330
17
100
AcDbEntity
  8
0
100
AcDbText
 10
1048.267930147791
 20
1912.340571347436
 30
0.0
 40
9.948672000000002
  1
C5S4-19/P5-TBAI1-9(B)
  7
Tahoma
100
AcDbText
  0
TEXT
  5
100
330
17
100
AcDbEntity
  8
0
100
AcDbText
 10
985.3489088676106
 20
1911.3058559453382
 30
0.0
 40
9.948672000000002
  1
BK
  7
Tahoma
100
AcDbText
  0
LINE
  5
101
330
17
100
AcDbEntity
  8
IE-WIRE
 62
4
 48
25.39999961853027
100
AcDbLine
 10
348.14868212410147
 20
1856.419559485598
 30
0.0
 11
593.4300439792605
 21
1856.419559485598
 31
0.0
  0
TEXT
  5
102
330
17
100
AcDbEntity
  8
0
 62
4
100
AcDbText
 10
365.7975785348499
 20
1862.0445544616791
 30
0.0
 40
9.948672000000002
  1
C5S4-22/P5-TBAI1-10(A)
  7
Tahoma
100
AcDbText
  0
TEXT
  5
103
330
17
100
AcDbEntity
  8
0
 62
4
100
AcDbText
 10
565.8521242630704
 20
1861.673027505815
 30
0.0
 40
9.948672000000002
  1
WH
  7
Tahoma
100
AcDbText
  0
TEXT
  5
104
330
17
100
AcDbEntity
  8
0
100
AcDbText
 10
1048.267930147791
 20
1862.707742907974
 30
0.0
 40
9.948672000000002
  1
C5S4-21/P5-TBAI1-10(B)
  7
Tahoma
100
AcDbText
  0
TEXT
  5
105
330
17
100
AcDbEntity
  8
0
100
AcDbText
 10
985.3489088676106
 20
1861.6730275058742
 30
0.0
 40
9.948672000000002
  1
BK
  7
Tahoma
100
AcDbText
  0
LINE
  5
106
330
17
100
AcDbEntity
  8
IE-WIRE
 62
4
 48
25.39999961853027
100
AcDbLine
 10
348.14868212410147
 20
1806.786731046136
 30
0.0
 11
593.4300439792605
 21
1806.786731046136
 31
0.0
  0
TEXT
  5
107
330
17
100
AcDbEntity
  8
0
 62
4
100
AcDbText
 10
365.7975785348499
 20
1812.411726022277
 30
0.0
 40
9.948672000000002
  1
C5S4-24/P5-TBAI1-11(A)
  7
Tahoma
100
AcDbText
  0
TEXT
  5
108
330
17
100
AcDbEntity
  8
0
 62
4
100
AcDbText
 10
565.8521242630704
 20
1812.0401990664152
 30
0.0
 40
9.948672000000002
  1
WH
  7
Tahoma
100
AcDbText
  0
TEXT
  5
109
330
17
100
AcDbEntity
  8
0
100
AcDbText
 10
1048.267930147791
 20
1813.074914468573
 30
0.0
 40
9.948672000000002
  1
C5S4-23/P5-TBAI1-11(B)
  7
Tahoma
100
AcDbText
  0
TEXT
  5
10A
330
17
100
AcDbEntity
  8
0
100
AcDbText
 10
985.3489088676106
 20
1812.0401990664152
 30
0.0
 40
9.948672000000002
  1
BK
  7
Tahoma
100
AcDbText
  0
LINE
  5
10B
330
17
100
AcDbEntity
  8
IE-WIRE
 62
4
 48
25.39999961853027
100
AcDbLine
 10
348.14868212410147
 20
1757.153902606736
 30
0.0
 11
593.4300439792605
 21
1757.153902606736
 31
0.0
  0
TEXT
  5
10C
330
17
100
AcDbEntity
  8
0
 62
4
100
AcDbText
 10
365.7975785348499
 20
1762.7788975828141
 30
0.0
 40
9.948672000000002
  1
C5S4-26/P5-TBAI1-12(A)
  7
Tahoma
100
AcDbText
  0
TEXT
  5
10D
330
17
100
AcDbEntity
  8
0
 62
4
100
AcDbText
 10
565.8521242630704
 20
1762.407370626953
 30
0.0
 40
9.948672000000002
  1
WH
  7
Tahoma
100
AcDbText
  0
TEXT
  5
10E
330
17
100
AcDbEntity
  8
0
100
AcDbText
 10
1048.267930147791
 20
1763.442086029115
 30
0.0
 40
9.948672000000002
  1
C5S4-25/P5-TBAI1-12(B)
  7
Tahoma
100
AcDbText
  0
TEXT
  5
10F
330
17
100
AcDbEntity
  8
0
100
AcDbText
 10
985.3489088676106
 20
1762.407370627015
 30
0.0
 40
9.948672000000002
  1
BK
  7
Tahoma
100
AcDbText
  0
LINE
  5
110
330
17
100
AcDbEntity
  8
0
 48
25.39999961853027
100
AcDbLine
 10
322.8921258362898
 20
1707.521074167277
 30
0.0
 11
593.4300439792605
 21
1707.521074167277
 31
0.0
  0
TEXT
  5
111
330
17
100
AcDbEntity
  8
0
100
AcDbText
 10
365.7975785348499
 20
1713.146069143356
 30
0.0
 40
9.948672000000002
  1
0VDC
  7
Tahoma
100
AcDbText
  0
TEXT
  5
112
330
17
100
AcDbEntity
  8
0
100
AcDbText
 10
565.8521242630704
 20
1712.774542187494
 30
0.0
 40
9.948672000000002
  1
BK
  7
Tahoma
100
AcDbText
  0
TEXT
  5
113
330
17
100
AcDbEntity
  8
0
100
AcDbText
 10
1048.267930147791
 20
1713.809257589653
 30
0.0
 40
9.948672000000002
  1
0VDC
  7
Tahoma
100
AcDbText
  0
TEXT
  5
114
330
17
100
AcDbEntity
  8
0
100
AcDbText
 10
985.3489088676106
 20
1712.7745421875532
 30
0.0
 40
9.948672000000002
  1
BK
  7
Tahoma
100
AcDbText
  0
TEXT
  5
115
330
17
100
AcDbEntity
  8
0
100
AcDbText
 10
1048.267930147791
 20
2309.403198862942
 30
0.0
 40
9.948672000000002
  1
C5S4-3/P5-TBAI1-2(B)
  7
Tahoma
100
AcDbText
  0
TEXT
  5
116
330
17
100
AcDbEntity
  8
0
100
AcDbText
 10
1048.267930147791
 20
2359.036027302341
 30
0.0
 40
9.948672000000002
  1
C5S4-1/P5-TBAI1-1(B)
  7
Tahoma
100
AcDbText
  0
TEXT
  5
117
330
17
100
AcDbEntity
  8
0
100
AcDbText
 10
985.3489088676106
 20
2358.0013119002433
 30
0.0
 40
9.948672000000002
  1
BK
  7
Tahoma
100
AcDbText
  0
TEXT
  5
118
330
17
100
AcDbEntity
  8
0
100
AcDbText
 10
985.3489088676106
 20
2308.368483460846
 30
0.0
 40
9.948672000000002
  1
BK
  7
Tahoma
100
AcDbText
  0
TEXT
  5
119
330
17
100
AcDbEntity
  8
0
100
AcDbText
 10
1048.267930147791
 20
2259.77037042348
 30
0.0
 40
9.948672000000002
  1
C5S4-5/P5-TBAI1-3(B)
  7
Tahoma
100
AcDbText
  0
TEXT
  5
11A
330
17
100
AcDbEntity
  8
0
100
AcDbText
 10
985.3489088676106
 20
2258.735655021382
 30
0.0
 40
9.948672000000002
  1
BK
  7
Tahoma
100
AcDbText
  0
TEXT
  5
11B
330
17
100
AcDbEntity
  8
0
100
AcDbText
 10
1048.267930147791
 20
2210.13754198402
 30
0.0
 40
9.948672000000002
  1
C5S4-7/P5-TBAI1-4(B)
  7
Tahoma
100
AcDbText
  0
TEXT
  5
11C
330
17
100
AcDbEntity
  8
0
100
AcDbText
 10
985.3489088676106
 20
2209.10282658192
 30
0.0
 40
9.948672000000002
  1
BK
  7
Tahoma
100
AcDbText
  0
TEXT
  5
11D
330
17
100
AcDbEntity
  8
0
 62
4
100
AcDbText
 10
365.7975785348499
 20
2110.20869665886
 30
0.0
 40
9.948672000000002
  1
C5S4-12/P5-TBAI1-5(A)
  7
Tahoma
100
AcDbText
  0
TEXT
  5
11E
330
17
100
AcDbEntity
  8
0
 62
4
100
AcDbText
 10
565.8521242630704
 20
2109.8371697029393
 30
0.0
 40
9.948672000000002
  1
WH
  7
Tahoma
100
AcDbText
  0
LINE
  5
11F
330
17
100
AcDbEntity
  8
IE-WIRE
 62
4
 48
25.39999961853027
100
AcDbLine
 10
348.14868212410147
 20
2054.950873243321
 30
0.0
 11
593.4300439792605
 21
2054.950873243321
 31
0.0
  0
TEXT
  5
120
330
17
100
AcDbEntity
  8
0
 62
4
100
AcDbText
 10
365.7975785348499
 20
2060.5758682194023
 30
0.0
 40
9.948672000000002
  1
C5S4-14/P5-TBAI1-6(A)
  7
Tahoma
100
AcDbText
  0
TEXT
  5
121
330
17
100
AcDbEntity
  8
0
 62
4
100
AcDbText
 10
565.8521242630704
 20
2060.204341263539
 30
0.0
 40
9.948672000000002
  1
WH
  7
Tahoma
100
AcDbText
  0
LINE
  5
122
330
17
100
AcDbEntity
  8
IE-WIRE
 62
4
 48
25.39999961853027
100
AcDbLine
 10
348.14868212410147
 20
2005.318044803857
 30
0.0
 11
593.4300439792605
 21
2005.318044803857
 31
0.0
  0
TEXT
  5
123
330
17
100
AcDbEntity
  8
0
 62
4
100
AcDbText
 10
365.7975785348499
 20
2010.943039779938
 30
0.0
 40
9.948672000000002
  1
C5S4-16/P5-TBAI1-7(A)
  7
Tahoma
100
AcDbText
  0
TEXT
  5
124
330
17
100
AcDbEntity
  8
0
 62
4
100
AcDbText
 10
565.8521242630704
 20
2010.5715128240752
 30
0.0
 40
9.948672000000002
  1
WH
  7
Tahoma
100
AcDbText
  0
LINE
  5
125
330
17
100
AcDbEntity
  8
IE-WIRE
 62
4
 48
25.39999961853027
100
AcDbLine
 10
348.14868212410147
 20
1657.8882457278771
 30
0.0
 11
593.4300439792605
 21
1657.8882457278771
 31
0.0
  0
TEXT
  5
126
330
17
100
AcDbEntity
  8
0
 62
4
100
AcDbText
 10
365.7975785348499
 20
1663.5132407040162
 30
0.0
 40
9.948672000000002
  1
C5S4-30/P5-TBAI1-13(A)
  7
Tahoma
100
AcDbText
  0
TEXT
  5
127
330
17
100
AcDbEntity
  8
0
 62
4
100
AcDbText
 10
565.8521242630704
 20
1663.141713748156
 30
0.0
 40
9.948672000000002
  1
WH
  7
Tahoma
100
AcDbText
  0
TEXT
  5
128
330
17
100
AcDbEntity
  8
0
100
AcDbText
 10
1048.267930147791
 20
1664.17642915025
 30
0.0
 40
9.948672000000002
  1
C5S4-29/P5-TBAI1-13(B)
  7
Tahoma
100
AcDbText
  0
TEXT
  5
129
330
17
100
AcDbEntity
  8
0
100
AcDbText
 10
985.3489088676106
 20
1663.141713748156
 30
0.0
 40
9.948672000000002
  1
BK
  7
Tahoma
100
AcDbText
  0
LINE
  5
12A
330
17
100
AcDbEntity
  8
IE-WIRE
 62
4
 48
25.39999961853027
100
AcDbLine
 10
348.14868212410147
 20
1608.2554172884152
 30
0.0
 11
593.4300439792605
 21
1608.2554172884152
 31
0.0
  0
TEXT
  5
12B
330
17
100
AcDbEntity
  8
0
 62
4
100
AcDbText
 10
365.7975785348499
 20
1613.880412264493
 30
0.0
 40
9.948672000000002
  1
C5S4-32/P5-TBAI1-14(A)
  7
Tahoma
100
AcDbText
  0
TEXT
  5
12C
330
17
100
AcDbEntity
  8
0
 62
4
100
AcDbText
 10
565.8521242630704
 20
1613.508885308632
 30
0.0
 40
9.948672000000002
  1
WH
  7
Tahoma
100
AcDbText
  0
TEXT
  5
12D
330
17
100
AcDbEntity
  8
0
100
AcDbText
 10
1048.267930147791
 20
1614.5436007107921
 30
0.0
 40
9.948672000000002
  1
C5S4-31/P5-TBAI1-14(B)
  7
Tahoma
100
AcDbText
  0
TEXT
  5
12E
330
17
100
AcDbEntity
  8
0
100
AcDbText
 10
985.3489088676106
 20
1613.508885308694
 30
0.0
 40
9.948672000000002
  1
BK
  7
Tahoma
100
AcDbText
  0
LINE
  5
12F
330
17
100
AcDbEntity
  8
IE-WIRE
 62
4
 48
25.39999961853027
100
AcDbLine
 10
348.14868212410147
 20
1558.622588849013
 30
0.0
 11
593.4300439792605
 21
1558.622588849013
 31
0.0
  0
TEXT
  5
130
330
17
100
AcDbEntity
  8
0
 62
4
100
AcDbText
 10
365.7975785348499
 20
1564.247583825093
 30
0.0
 40
9.948672000000002
  1
C5S4-34/P5-TBAI1-15(A)
  7
Tahoma
100
AcDbText
  0
TEXT
  5
131
330
17
100
AcDbEntity
  8
0
 62
4
100
AcDbText
 10
565.8521242630704
 20
1563.876056869231
 30
0.0
 40
9.948672000000002
  1
WH
  7
Tahoma
100
AcDbText
  0
TEXT
  5
132
330
17
100
AcDbEntity
  8
0
100
AcDbText
 10
1048.267930147791
 20
1564.910772271392
 30
0.0
 40
9.948672000000002
  1
C5S4-33/P5-TBAI1-15(B)
  7
Tahoma
100
AcDbText
  0
TEXT
  5
133
330
17
100
AcDbEntity
  8
0
100
AcDbText
 10
985.3489088676106
 20
1563.876056869293
 30
0.0
 40
9.948672000000002
  1
BK
  7
Tahoma
100
AcDbText
  0
TEXT
  5
134
330
17
100
AcDbEntity
  8
0
 62
4
100
AcDbText
 10
365.7975785348499
 20
1515.277944748991
 30
0.0
 40
9.948672000000002
  1
C5S4-36/P5-TBAI1-16(A)
  7
Tahoma
100
AcDbText
  0
LINE
  5
135
330
17
100
AcDbEntity
  8
IE-WIRE
 62
4
 48
25.39999961853027
100
AcDbLine
 10
593.4300439792605
 20
1508.989760409554
 30
0.0
 11
348.14868212410147
 21
1508.989760409554
 31
0.0
  0
LINE
  5
136
330
17
100
AcDbEntity
  8
IE-WIRE
 62
7
 48
25.39999961853027
100
AcDbLine
 10
314.89212583619155
 20
2146.21653012224
 30
0.0
 11
314.8921258363807
 21
1270.9301764880681
 31
0.0
  0
TEXT
  5
137
330
17
100
AcDbEntity
  8
0
 62
4
100
AcDbText
 10
568.912760385163
 20
1514.243228429771
 30
0.0
 40
9.948672000000002
  1
WH
  7
Tahoma
100
AcDbText
  0
LINE
  5
138
330
17
100
AcDbEntity
  8
0
 48
25.39999961853027
100
AcDbLine
 10
1208.1481565799404
 20
2352.747843880024
 30
0.0
 11
962.8667947247814
 21
2352.7478438800863
 31
0.0
  0
LINE
  5
139
330
17
100
AcDbEntity
  8
0
 48
25.39999961853027
100
AcDbLine
 10
1208.1481565799404
 20
2303.115015440565
 30
0.0
 11
962.8667947247814
 21
2303.115015440565
 31
0.0
  0
LINE
  5
13A
330
17
100
AcDbEntity
  8
IE-WIRE
 62
4
 48
25.39999961853027
100
AcDbLine
 10
1217.3230452898097
 20
2343.572955170162
 30
0.0
 11
1217.3230452898097
 21
1346.1501543611641
 31
0.0
  0
LINE
  5
13B
330
17
100
AcDbEntity
  8
0
 48
25.39999961853027
100
AcDbLine
 10
1208.1481565799404
 20
2253.4821870011033
 30
0.0
 11
962.8667947247814
 21
2253.4821870011033
 31
0.0
  0
LINE
  5
13C
330
17
100
AcDbEntity
  8
0
 48
25.39999961853027
100
AcDbLine
 10
1208.1481565799404
 20
2203.849358561643
 30
0.0
 11
962.8667947247814
 21
2203.849358561643
 31
0.0
  0
LINE
  5
13D
330
17
100
AcDbEntity
  8
0
 48
25.39999961853027
100
AcDbLine
 10
1208.1481565799404
 20
2154.216530122242
 30
0.0
 11
962.8667947247814
 21
2154.216530122242
 31
0.0
  0
LINE
  5
13E
330
17
100
AcDbEntity
  8
0
 48
25.39999961853027
100
AcDbLine
 10
1208.1481565799404
 20
1906.052387925059
 30
0.0
 11
962.8667947247814
 21
1906.052387925059
 31
0.0
  0
LINE
  5
13F
330
17
100
AcDbEntity
  8
0
 48
25.39999961853027
100
AcDbLine
 10
1208.1481565799404
 20
1856.419559485598
 30
0.0
 11
962.8667947247814
 21
1856.419559485598
 31
0.0
  0
LINE
  5
140
330
17
100
AcDbEntity
  8
0
 48
25.39999961853027
100
AcDbLine
 10
1208.1481565799404
 20
1806.786731046136
 30
0.0
 11
962.8667947247814
 21
1806.786731046136
 31
0.0
  0
LINE
  5
141
330
17
100
AcDbEntity
  8
0
 48
25.39999961853027
100
AcDbLine
 10
1208.1481565799404
 20
1757.153902606736
 30
0.0
 11
962.8667947247814
 21
1757.153902606736
 31
0.0
  0
LINE
  5
142
330
17
100
AcDbEntity
  8
0
 48
25.39999961853027
100
AcDbLine
 10
1233.404712867752
 20
1707.521074167277
 30
0.0
 11
962.8667947247814
 21
1707.521074167277
 31
0.0
  0
LINE
  5
143
330
17
100
AcDbEntity
  8
0
 48
25.39999961853027
100
AcDbLine
 10
1208.1481565799404
 20
2104.583701682722
 30
0.0
 11
962.8667947247814
 21
2104.583701682722
 31
0.0
  0
LINE
  5
144
330
17
100
AcDbEntity
  8
0
 48
25.39999961853027
100
AcDbLine
 10
1208.1481565799404
 20
2054.950873243321
 30
0.0
 11
962.8667947247814
 21
2054.950873243321
 31
0.0
  0
LINE
  5
145
330
17
100
AcDbEntity
  8
0
 48
25.39999961853027
100
AcDbLine
 10
1208.1481565799404
 20
2005.318044803857
 30
0.0
 11
962.8667947247814
 21
2005.318044803857
 31
0.0
  0
LINE
  5
146
330
17
100
AcDbEntity
  8
0
 48
25.39999961853027
100
AcDbLine
 10
1208.1481565799404
 20
1657.8882457278771
 30
0.0
 11
962.8667947247814
 21
1657.8882457278771
 31
0.0
  0
LINE
  5
147
330
17
100
AcDbEntity
  8
0
 48
25.39999961853027
100
AcDbLine
 10
1208.1481565799404
 20
1608.2554172884152
 30
0.0
 11
962.8667947247814
 21
1608.2554172884152
 31
0.0
  0
LINE
  5
148
330
17
100
AcDbEntity
  8
0
 48
25.39999961853027
100
AcDbLine
 10
1208.1481565799404
 20
1558.622588849013
 30
0.0
 11
962.8667947247814
 21
1558.622588849013
 31
0.0
  0
LINE
  5
149
330
17
100
AcDbEntity
  8
0
 48
25.39999961853027
100
AcDbLine
 10
962.8667947247814
 20
1508.989760409554
 30
0.0
 11
1208.1481565799404
 21
1508.989760409554
 31
0.0
  0
LINE
  5
14A
330
17
100
AcDbEntity
  8
IE-WIRE
 62
7
 48
25.39999961853027
100
AcDbLine
 10
1241.4047128678103
 20
1947.6852163645192
 30
0.0
 11
1241.4047128676611
 21
1270.9301764880652
 31
0.0
  0
LINE
  5
14B
330
17
100
AcDbEntity
  8
0
 48
25.39999961853027
100
AcDbLine
 10
962.8667947247814
 20
1955.685216364521
 30
0.0
 11
1233.4047128678103
 21
1955.685216364521
 31
0.0
  0
TEXT
  5
14C
330
17
100
AcDbEntity
  8
0
100
AcDbText
 10
988.757194154281
 20
1514.243228429771
 30
0.0
 40
9.948672000000002
  1
BK
  7
Tahoma
100
AcDbText
  0
TEXT
  5
14D
330
17
100
AcDbEntity
  8
0
100
AcDbText
 10
988.757194154281
 20
1960.938684384738
 30
0.0
 40
9.948672000000002
  1
BK
  7
Tahoma
100
AcDbText
  0
TEXT
  5
14E
330
17
100
AcDbEntity
  8
0
100
AcDbText
 10
1049.3992545105102
 20
1515.7613811106212
 30
0.0
 40
9.948672000000002
  1
C5S4-35/P5-TBAI1-16(B)
  7
Tahoma
100
AcDbText
  0
TEXT
  5
14F
330
17
100
AcDbEntity
  8
0
100
AcDbText
 10
1049.3992545105102
 20
1962.4568370655882
 30
0.0
 40
9.948672000000002
  1
C5S4-17/P5-TBAI1-8(B)
  7
Tahoma
100
AcDbText
  0
LINE
  5
150
330
17
100
AcDbEntity
  8
IE-WIRE
 62
4
 48
25.39999961853027
100
AcDbLine
 10
1398.5806811065631
 20
2414.551767971057
 30
0.0
 11
1398.5806811065631
 21
986.15
 31
0.0
  0
LINE
  5
151
330
17
100
AcDbEntity
  8
IE-WIRE
 62
4
100
AcDbLine
 10
348.1129934142409
 20
1337.010954361164
 30
0.0
 11
1389.4414811065726
 21
1337.010954361164
 31
0.0
  0
INSERT
  5
152
330
17
100
AcDbEntity
  8
0
100
AcDbBlockReference
 66
1
  2
xTermSingleLayer33
 10
1623.0897698024928
 20
2433.996861744198
 30
0.0
 41
0.0384
 42
0.0384
 43
0.0384
  0
ATTRIB
  5
153
330
152
100
AcDbEntity
  8
0
100
AcDbText
 10
1648.49104766675
 20
2419.1426183911512
 30
0.0
 40
8.160000000000002
  1
1A
100
AcDbAttribute
  2
TERMINAL_B
 70
0
280
1
  0
SEQEND
  5
154
330
17
100
AcDbEntity
  8
0
  0
INSERT
  5
155
330
17
100
AcDbEntity
  8
0
100
AcDbBlockReference
 66
1
  2
xTermSingleLayer33
 10
1623.0897698024928
 20
2413.385074198023
 30
0.0
 41
0.0384
 42
0.0384
 43
0.0384
  0
ATTRIB
  5
156
330
155
100
AcDbEntity
  8
0
100
AcDbText
 10
1648.49104766675
 20
2398.530830844978
 30
0.0
 40
8.160000000000002
  1
1B
100
AcDbAttribute
  2
TERMINAL_B
 70
0
280
1
  0
SEQEND
  5
157
330
17
100
AcDbEntity
  8
0
  0
INSERT
  5
158
330
17
100
AcDbEntity
  8
0
100
AcDbBlockReference
 66
1
  2
xTermSingleLayer33
 10
1623.0897698024928
 20
2392.773286651848
 30
0.0
 41
0.0384
 42
0.0384
 43
0.0384
  0
ATTRIB
  5
159
330
158
100
AcDbEntity
  8
0
100
AcDbText
 10
1648.49104766675
 20
2377.9190432988053
 30
0.0
 40
8.160000000000002
  1
2A
100
AcDbAttribute
  2
TERMINAL_B
 70
0
280
1
  0
SEQEND
  5
15A
330
17
100
AcDbEntity
  8
0
  0
INSERT
  5
15B
330
17
100
AcDbEntity
  8
0
100
AcDbBlockReference
 66
1
  2
xTermSingleLayer33
 10
1623.0897698024928
 20
2372.161499105677
 30
0.0
 41
0.0384
 42
0.0384
 43
0.0384
  0
ATTRIB
  5
15C
330
15B
100
AcDbEntity
  8
0
100
AcDbText
 10
1648.49104766675
 20
2357.307255752628
 30
0.0
 40
8.160000000000002
  1
2B
100
AcDbAttribute
  2
TERMINAL_B
 70
0
280
1
  0
SEQEND
  5
15D
330
17
100
AcDbEntity
  8
0
  0
INSERT
  5
15E
330
17
100
AcDbEntity
  8
0
100
AcDbBlockReference
 66
1
  2
xTermSingleLayer33
 10
1623.0897698024928
 20
2351.549711559502
 30
0.0
 41
0.0384
 42
0.0384
 43
0.0384
  0
ATTRIB
  5
15F
330
15E
100
AcDbEntity
  8
0
100
AcDbText
 10
1648.49104766675
 20
2336.6954682064543
 30
0.0
 40
8.160000000000002
  1
3A
100
AcDbAttribute
  2
TERMINAL_B
 70
0
280
1
  0
SEQEND
  5
160
330
17
100
AcDbEntity
  8
0
  0
INSERT
  5
161
330
17
100
AcDbEntity
  8
0
100
AcDbBlockReference
 66
1
  2
xTermSingleLayer33
 10
1623.0897698024928
 20
2330.937924013327
 30
0.0
 41
0.0384
 42
0.0384
 43
0.0384
  0
ATTRIB
  5
162
330
161
100
AcDbEntity
  8
0
100
AcDbText
 10
1648.49104766675
 20
2316.0836806602792
 30
0.0
 40
8.160000000000002
  1
3B
100
AcDbAttribute
  2
TERMINAL_B
 70
0
280
1
  0
SEQEND
  5
163
330
17
100
AcDbEntity
  8
0
  0
INSERT
  5
164
330
17
100
AcDbEntity
  8
0
100
AcDbBlockReference
 66
1
  2
xTermSingleLayer33
 10
1623.0897698024928
 20
2310.326136467152
 30
0.0
 41
0.0384
 42
0.0384
 43
0.0384
  0
ATTRIB
  5
165
330
164
100
AcDbEntity
  8
0
100
AcDbText
 10
1648.49104766675
 20
2295.471893114104
 30
0.0
 40
8.160000000000002
  1
4A
100
AcDbAttribute
  2
TERMINAL_B
 70
0
280
1
  0
SEQEND
  5
166
330
17
100
AcDbEntity
  8
0
  0
INSERT
  5
167
330
17
100
AcDbEntity
  8
0
100
AcDbBlockReference
 66
1
  2
xTermSingleLayer33
 10
1623.0897698024928
 20
2289.714348920977
 30
0.0
 41
0.0384
 42
0.0384
 43
0.0384
  0
ATTRIB
  5
168
330
167
100
AcDbEntity
  8
0
100
AcDbText
 10
1648.49104766675
 20
2274.860105567929
 30
0.0
 40
8.160000000000002
  1
4B
100
AcDbAttribute
  2
TERMINAL_B
 70
0
280
1
  0
SEQEND
  5
169
330
17
100
AcDbEntity
  8
0
  0
INSERT
  5
16A
330
17
100
AcDbEntity
  8
0
100
AcDbBlockReference
 66
1
  2
xTermSingleLayer33
 10
1623.0897698024928
 20
2269.102561374805
 30
0.0
 41
0.0384
 42
0.0384
 43
0.0384
  0
ATTRIB
  5
16B
330
16A
100
AcDbEntity
  8
0
100
AcDbText
 10
1648.49104766675
 20
2254.248318021756
 30
0.0
 40
8.160000000000002
  1
5A
100
AcDbAttribute
  2
TERMINAL_B
 70
0
280
1
  0
SEQEND
  5
16C
330
17
100
AcDbEntity
  8
0
  0
INSERT
  5
16D
330
17
100
AcDbEntity
  8
0
100
AcDbBlockReference
 66
1
  2
xTermSingleLayer33
 10
1623.0897698024928
 20
2248.49077382863
 30
0.0
 41
0.0384
 42
0.0384
 43
0.0384
  0
ATTRIB
  5
16E
330
16D
100
AcDbEntity
  8
0
100
AcDbText
 10
1648.49104766675
 20
2233.636530475581
 30
0.0
 40
8.160000000000002
  1
5B
100
AcDbAttribute
  2
TERMINAL_B
 70
0
280
1
  0
SEQEND
  5
16F
330
17
100
AcDbEntity
  8
0
  0
INSERT
  5
170
330
17
100
AcDbEntity
  8
0
100
AcDbBlockReference
 66
1
  2
xTermSingleLayer33
 10
1623.0897698024928
 20
2227.878986282455
 30
0.0
 41
0.0384
 42
0.0384
 43
0.0384
  0
ATTRIB
  5
171
330
170
100
AcDbEntity
  8
0
100
AcDbText
 10
1648.49104766675
 20
2213.024742929408
 30
0.0
 40
8.160000000000002
  1
6A
100
AcDbAttribute
  2
TERMINAL_B
 70
0
280
1
  0
SEQEND
  5
172
330
17
100
AcDbEntity
  8
0
  0
INSERT
  5
173
330
17
100
AcDbEntity
  8
0
100
AcDbBlockReference
 66
1
  2
xTermSingleLayer33
 10
1623.0897698024928
 20
2207.26719873628
 30
0.0
 41
0.0384
 42
0.0384
 43
0.0384
  0
ATTRIB
  5
174
330
173
100
AcDbEntity
  8
0
100
AcDbText
 10
1648.49104766675
 20
2192.412955383233
 30
0.0
 40
8.160000000000002
  1
6B
100
AcDbAttribute
  2
TERMINAL_B
 70
0
280
1
  0
SEQEND
  5
175
330
17
100
AcDbEntity
  8
0
  0
INSERT
  5
176
330
17
100
AcDbEntity
  8
0
100
AcDbBlockReference
 66
1
  2
xTermSingleLayer33
 10
1623.0897698024928
 20
2186.655411190105
 30
0.0
 41
0.0384
 42
0.0384
 43
0.0384
  0
ATTRIB
  5
177
330
176
100
AcDbEntity
  8
0
100
AcDbText
 10
1648.49104766675
 20
2171.801167837058
 30
0.0
 40
8.160000000000002
  1
7A
100
AcDbAttribute
  2
TERMINAL_B
 70
0
280
1
  0
SEQEND
  5
178
330
17
100
AcDbEntity
  8
0
  0
INSERT
  5
179
330
17
100
AcDbEntity
  8
0
100
AcDbBlockReference
 66
1
  2
xTermSingleLayer33
 10
1623.0897698024928
 20
2166.04362364393
 30
0.0
 41
0.0384
 42
0.0384
 43
0.0384
  0
ATTRIB
  5
17A
330
179
100
AcDbEntity
  8
0
100
AcDbText
 10
1648.49104766675
 20
2151.189380290884
 30
0.0
 40
8.160000000000002
  1
7B
100
AcDbAttribute
  2
TERMINAL_B
 70
0
280
1
  0
SEQEND
  5
17B
330
17
100
AcDbEntity
  8
0
  0
INSERT
  5
17C
330
17
100
AcDbEntity
  8
0
100
AcDbBlockReference
 66
1
  2
xTermSingleLayer33
 10
1623.0897698024928
 20
2145.4318360977572
 30
0.0
 41
0.0384
 42
0.0384
 43
0.0384
  0
ATTRIB
  5
17D
330
17C
100
AcDbEntity
  8
0
100
AcDbText
 10
1648.49104766675
 20
2130.577592744709
 30
0.0
 40
8.160000000000002
  1
8A
100
AcDbAttribute
  2
TERMINAL_B
 70
0
280
1
  0
SEQEND
  5
17E
330
17
100
AcDbEntity
  8
0
  0
INSERT
  5
17F
330
17
100
AcDbEntity
  8
0
100
AcDbBlockReference
 66
1
  2
xTermSingleLayer33
 10
1623.0897698024928
 20
2124.820048551584
 30
0.0
 41
0.0384
 42
0.0384
 43
0.0384
  0
ATTRIB
  5
180
330
17F
100
AcDbEntity
  8
0
100
AcDbText
 10
1648.49104766675
 20
2109.965805198534
 30
0.0
 40
8.160000000000002
  1
8B
100
AcDbAttribute
  2
TERMINAL_B
 70
0
280
1
  0
SEQEND
  5
181
330
17
100
AcDbEntity
  8
0
  0
INSERT
  5
182
330
17
100
AcDbEntity
  8
0
100
AcDbBlockReference
 66
1
  2
xTermSingleLayer33
 10
1623.0897698024928
 20
2104.208261005407
 30
0.0
 41
0.0384
 42
0.0384
 43
0.0384
  0
ATTRIB
  5
183
330
182
100
AcDbEntity
  8
0
100
AcDbText
 10
1648.49104766675
 20
2089.3540176523593
 30
0.0
 40
8.160000000000002
  1
9A
100
AcDbAttribute
  2
TERMINAL_B
 70
0
280
1
  0
SEQEND
  5
184
330
17
100
AcDbEntity
  8
0
  0
INSERT
  5
185
330
17
100
AcDbEntity
  8
0
100
AcDbBlockReference
 66
1
  2
xTermSingleLayer33
 10
1623.0897698024928
 20
2083.596473459234
 30
0.0
 41
0.0384
 42
0.0384
 43
0.0384
  0
ATTRIB
  5
186
330
185
100
AcDbEntity
  8
0
100
AcDbText
 10
1648.49104766675
 20
2068.7422301061843
 30
0.0
 40
8.160000000000002
  1
9B
100
AcDbAttribute
  2
TERMINAL_B
 70
0
280
1
  0
SEQEND
  5
187
330
17
100
AcDbEntity
  8
0
  0
INSERT
  5
188
330
17
100
AcDbEntity
  8
0
100
AcDbBlockReference
 66
1
  2
xTermSingleLayer33
 10
1623.0897698024928
 20
2062.984685913058
 30
0.0
 41
0.0384
 42
0.0384
 43
0.0384
  0
ATTRIB
  5
189
330
188
100
AcDbEntity
  8
0
100
AcDbText
 10
1648.49104766675
 20
2048.1304425600133
 30
0.0
 40
8.160000000000002
  1
10A
100
AcDbAttribute
  2
TERMINAL_B
 70
0
280
1
  0
SEQEND
  5
18A
330
17
100
AcDbEntity
  8
0
  0
INSERT
  5
18B
330
17
100
AcDbEntity
  8
0
100
AcDbBlockReference
 66
1
  2
xTermSingleLayer33
 10
1623.0897698024928
 20
2042.3728983668832
 30
0.0
 41
0.0384
 42
0.0384
 43
0.0384
  0
ATTRIB
  5
18C
330
18B
100
AcDbEntity
  8
0
100
AcDbText
 10
1648.49104766675
 20
2027.518655013838
 30
0.0
 40
8.160000000000002
  1
10B
100
AcDbAttribute
  2
TERMINAL_B
 70
0
280
1
  0
SEQEND
  5
18D
330
17
100
AcDbEntity
  8
0
  0
INSERT
  5
18E
330
17
100
AcDbEntity
  8
0
100
AcDbBlockReference
 66
1
  2
xTermSingleLayer33
 10
1623.0897698024928
 20
2021.7611108207102
 30
0.0
 41
0.0384
 42
0.0384
 43
0.0384
  0
ATTRIB
  5
18F
330
18E
100
AcDbEntity
  8
0
100
AcDbText
 10
1648.49104766675
 20
2006.906867467663
 30
0.0
 40
8.160000000000002
  1
11A
100
AcDbAttribute
  2
TERMINAL_B
 70
0
280
1
  0
SEQEND
  5
190
330
17
100
AcDbEntity
  8
0
  0
INSERT
  5
191
330
17
100
AcDbEntity
  8
0
100
AcDbBlockReference
 66
1
  2
xTermSingleLayer33
 10
1623.0897698024928
 20
2001.149323274537
 30
0.0
 41
0.0384
 42
0.0384
 43
0.0384
  0
ATTRIB
  5
192
330
191
100
AcDbEntity
  8
0
100
AcDbText
 10
1648.49104766675
 20
1986.2950799214882
 30
0.0
 40
8.160000000000002
  1
11B
100
AcDbAttribute
  2
TERMINAL_B
 70
0
280
1
  0
SEQEND
  5
193
330
17
100
AcDbEntity
  8
0
  0
INSERT
  5
194
330
17
100
AcDbEntity
  8
0
100
AcDbBlockReference
 66
1
  2
xTermSingleLayer33
 10
1623.0897698024928
 20
1980.5375357283622
 30
0.0
 41
0.0384
 42
0.0384
 43
0.0384
  0
ATTRIB
  5
195
330
194
100
AcDbEntity
  8
0
100
AcDbText
 10
1648.49104766675
 20
1965.6832923753132
 30
0.0
 40
8.160000000000002
  1
12A
100
AcDbAttribute
  2
TERMINAL_B
 70
0
280
1
  0
SEQEND
  5
196
330
17
100
AcDbEntity
  8
0
  0
INSERT
  5
197
330
17
100
AcDbEntity
  8
0
100
AcDbBlockReference
 66
1
  2
xTermSingleLayer33
 10
1623.0897698024928
 20
1959.9257481821871
 30
0.0
 41
0.0384
 42
0.0384
 43
0.0384
  0
ATTRIB
  5
198
330
197
100
AcDbEntity
  8
0
100
AcDbText
 10
1648.49104766675
 20
1945.0715048291402
 30
0.0
 40
8.160000000000002
  1
12B
100
AcDbAttribute
  2
TERMINAL_B
 70
0
280
1
  0
SEQEND
  5
199
330
17
100
AcDbEntity
  8
0
  0
INSERT
  5
19A
330
17
100
AcDbEntity
  8
0
100
AcDbBlockReference
 66
1
  2
xTermSingleLayer33
 10
1623.0897698024928
 20
1939.313960636012
 30
0.0
 41
0.0384
 42
0.0384
 43
0.0384
  0
ATTRIB
  5
19B
330
19A
100
AcDbEntity
  8
0
100
AcDbText
 10
1648.49104766675
 20
1924.459717282964
 30
0.0
 40
8.160000000000002
  1
13A
100
AcDbAttribute
  2
TERMINAL_B
 70
0
280
1
  0
SEQEND
  5
19C
330
17
100
AcDbEntity
  8
0
  0
INSERT
  5
19D
330
17
100
AcDbEntity
  8
0
100
AcDbBlockReference
 66
1
  2
xTermSingleLayer33
 10
1623.0897698024928
 20
1918.702173089839
 30
0.0
 41
0.0384
 42
0.0384
 43
0.0384
  0
ATTRIB
  5
19E
330
19D
100
AcDbEntity
  8
0
100
AcDbText
 10
1648.49104766675
 20
1903.8479297367892
 30
0.0
 40
8.160000000000002
  1
13B
100
AcDbAttribute
  2
TERMINAL_B
 70
0
280
1
  0
SEQEND
  5
19F
330
17
100
AcDbEntity
  8
0
  0
INSERT
  5
1A0
330
17
100
AcDbEntity
  8
0
100
AcDbBlockReference
 66
1
  2
xTermSingleLayer33
 10
1623.0897698024928
 20
1898.090385543664
 30
0.0
 41
0.0384
 42
0.0384
 43
0.0384
  0
ATTRIB
  5
1A1
330
1A0
100
AcDbEntity
  8
0
100
AcDbText
 10
1648.49104766675
 20
1883.2361421906162
 30
0.0
 40
8.160000000000002
  1
14A
100
AcDbAttribute
  2
TERMINAL_B
 70
0
280
1
  0
SEQEND
  5
1A2
330
17
100
AcDbEntity
  8
0
  0
INSERT
  5
1A3
330
17
100
AcDbEntity
  8
0
100
AcDbBlockReference
 66
1
  2
xTermSingleLayer33
 10
1623.0897698024928
 20
1877.478597997489
 30
0.0
 41
0.0384
 42
0.0384
 43
0.0384
  0
ATTRIB
  5
1A4
330
1A3
100
AcDbEntity
  8
0
100
AcDbText
 10
1648.49104766675
 20
1862.6243546444412
 30
0.0
 40
8.160000000000002
  1
14B
100
AcDbAttribute
  2
TERMINAL_B
 70
0
280
1
  0
SEQEND
  5
1A5
330
17
100
AcDbEntity
  8
0
  0
INSERT
  5
1A6
330
17
100
AcDbEntity
  8
0
100
AcDbBlockReference
 66
1
  2
xTermSingleLayer33
 10
1623.0897698024928
 20
1856.866810451314
 30
0.0
 41
0.0384
 42
0.0384
 43
0.0384
  0
ATTRIB
  5
1A7
330
1A6
100
AcDbEntity
  8
0
100
AcDbText
 10
1648.49104766675
 20
1842.0125670982661
 30
0.0
 40
8.160000000000002
  1
15A
100
AcDbAttribute
  2
TERMINAL_B
 70
0
280
1
  0
SEQEND
  5
1A8
330
17
100
AcDbEntity
  8
0
  0
INSERT
  5
1A9
330
17
100
AcDbEntity
  8
0
100
AcDbBlockReference
 66
1
  2
xTermSingleLayer33
 10
1623.0897698024928
 20
1836.25502290514
 30
0.0
 41
0.0384
 42
0.0384
 43
0.0384
  0
ATTRIB
  5
1AA
330
1A9
100
AcDbEntity
  8
0
100
AcDbText
 10
1648.49104766675
 20
1821.4007795520931
 30
0.0
 40
8.160000000000002
  1
15B
100
AcDbAttribute
  2
TERMINAL_B
 70
0
280
1
  0
SEQEND
  5
1AB
330
17
100
AcDbEntity
  8
0
  0
INSERT
  5
1AC
330
17
100
AcDbEntity
  8
0
100
AcDbBlockReference
 66
1
  2
xTermSingleLayer33
 10
1623.0897698024928
 20
1815.643235358965
 30
0.0
 41
0.0384
 42
0.0384
 43
0.0384
  0
ATTRIB
  5
1AD
330
1AC
100
AcDbEntity
  8
0
100
AcDbText
 10
1648.49104766675
 20
1800.788992005918
 30
0.0
 40
8.160000000000002
  1
16A
100
AcDbAttribute
  2
TERMINAL_B
 70
0
280
1
  0
SEQEND
  5
1AE
330
17
100
AcDbEntity
  8
0
  0
INSERT
  5
1AF
330
17
100
AcDbEntity
  8
0
100
AcDbBlockReference
 66
1
  2
xTermSingleLayer33
 10
1623.0897698024928
 20
1795.03144781279
 30
0.0
 41
0.0384
 42
0.0384
 43
0.0384
  0
ATTRIB
  5
1B0
330
1AF
100
AcDbEntity
  8
0
100
AcDbText
 10
1648.49104766675
 20
1780.177204459745
 30
0.0
 40
8.160000000000002
  1
16B
100
AcDbAttribute
  2
TERMINAL_B
 70
0
280
1
  0
SEQEND
  5
1B1
330
17
100
AcDbEntity
  8
0
  0
LINE
  5
1B2
330
17
100
AcDbEntity
  8
IE-WIRE
 62
7
 48
25.39999961853027
100
AcDbLine
 10
1232.444712867662
 20
1261.970176488066
 30
0.0
 11
203.42516553412133
 21
1261.970176488066
 31
0.0
  0
LINE
  5
1B3
330
17
100
AcDbEntity
  8
x01001-FrameArea
100
AcDbLine
 10
2118.160772331401
 20
2561.5313463750713
 30
0.0
 11
2118.160772331401
 21
475.0207171529046
 31
0.0
  0
TEXT
  5
1B4
330
17
100
AcDbEntity
  8
0
 62
2
100
AcDbText
 10
1001.5250683640406
 20
2500.802931473335
 30
0.0
 40
32.0
  1
=CA5+MCP-M5-P4
  7
Tahoma
 72
1
 11
1183.3813477461808
 21
2516.802931473335
 31
0.0
100
AcDbText
 73
2
  0
LINE
  5
1B5
330
17
100
AcDbEntity
  8
IE-WIRE
 62
4
 48
25.39999961853027
100
AcDbLine
 10
1407.719881106561
 20
2423.690967971058
 30
0.0
 11
1623.0897698024928
 21
2423.690967971113
 31
0.0
  0
TEXT
  5
1B6
330
17
100
AcDbEntity
  8
0
 62
4
100
AcDbText
 10
1595.5118500863027
 20
2428.944435991268
 30
0.0
 40
9.948672000000002
  1
WH
  7
Tahoma
100
AcDbText
  0
LINE
  5
1B7
330
17
100
AcDbEntity
  8
0
 48
25.39999961853027
100
AcDbLine
 10
1407.719881106561
 20
2403.0791804248793
 30
0.0
 11
1623.0897698024928
 21
2403.0791804249343
 31
0.0
  0
TEXT
  5
1B8
330
17
100
AcDbEntity
  8
0
100
AcDbText
 10
1595.5118500863027
 20
2408.332648445087
 30
0.0
 40
9.948672000000002
  1
BK
  7
Tahoma
100
AcDbText
  0
TEXT
  5
1B9
330
17
100
AcDbEntity
  8
0
 62
4
100
AcDbText
 10
1422.204097463953
 20
2429.979151393435
 30
0.0
 40
9.948672000000002
  1
C5S4-2/P5-TBAI1-1(A)
  7
Tahoma
100
AcDbText
  0
TEXT
  5
1BA
330
17
100
AcDbEntity
  8
0
100
AcDbText
 10
1422.204097463953
 20
2409.367363847257
 30
0.0
 40
9.948672000000002
  1
C5S4-1/P5-TBAI1-1(B)
  7
Tahoma
100
AcDbText
  0
TEXT
  5
1BB
330
17
100
AcDbEntity
  8
0
 62
4
100
AcDbText
 10
1669.8472741920705
 20
2441.099944589705
 30
0.0
 40
9.948672000000002
  1
P5-TBAI1
  7
Tahoma
 72
1
 11
1698.25677946004
 21
2446.0742805897053
 31
0.0
100
AcDbText
 73
2
  0
LINE
  5
1BC
330
17
100
AcDbEntity
  8
IE-WIRE
 62
4
 48
25.39999961853027
100
AcDbLine
 10
348.14868212410147
 20
1955.6852163645192
 30
0.0
 11
593.4300439792605
 21
1955.6852163645192
 31
0.0
  0
TEXT
  5
1BD
330
17
100
AcDbEntity
  8
0
 62
4
100
AcDbText
 10
365.7975785348499
 20
1961.310211340598
 30
0.0
 40
9.948672000000002
  1
C5S4-18/P5-TBAI1-8(A)
  7
Tahoma
100
AcDbText
  0
TEXT
  5
1BE
330
17
100
AcDbEntity
  8
0
 62
4
100
AcDbText
 10
565.8521242630704
 20
1960.9386843847342
 30
0.0
 40
9.948672000000002
  1
WH
  7
Tahoma
100
AcDbText
  0
LINE
  5
1BF
330
17
100
AcDbEntity
  8
IE-WIRE
 62
4
 48
25.39999961853027
100
AcDbLine
 10
348.14868212410147
 20
2104.583701682722
 30
0.0
 11
593.4300439792605
 21
2104.583701682722
 31
0.0
  0
LINE
  5
1C0
330
17
100
AcDbEntity
  8
IE-WIRE
 62
4
 48
25.39999961853027
100
AcDbLine
 10
348.14868212410147
 20
2203.849358561643
 30
0.0
 11
593.4300439792605
 21
2203.849358561643
 31
0.0
  0
LINE
  5
1C1
330
17
100
AcDbEntity
  8
IE-WIRE
 62
4
 48
25.39999961853027
100
AcDbLine
 10
1407.7198811065027
 20
2382.467392878708
 30
0.0
 11
1623.08976980242
 21
2382.4673928787643
 31
0.0
  0
TEXT
  5
1C2
330
17
100
AcDbEntity
  8
0
 62
4
100
AcDbText
 10
1595.51185008623
 20
2387.72086089892
 30
0.0
 40
9.948672000000002
  1
WH
  7
Tahoma
100
AcDbText
  0
LINE
  5
1C3
330
17
100
AcDbEntity
  8
0
 48
25.39999961853027
100
AcDbLine
 10
1407.7198811065027
 20
2361.855605332531
 30
0.0
 11
1623.08976980242
 21
2361.855605332586
 31
0.0
  0
TEXT
  5
1C4
330
17
100
AcDbEntity
  8
0
100
AcDbText
 10
1595.51185008623
 20
2367.109073352739
 30
0.0
 40
9.948672000000002
  1
BK
  7
Tahoma
100
AcDbText
  0
TEXT
  5
1C5
330
17
100
AcDbEntity
  8
0
 62
4
100
AcDbText
 10
1422.2040974638912
 20
2388.755576301087
 30
0.0
 40
9.948672000000002
  1
C5S4-4/P5-TBAI1-2(A)
  7
Tahoma
100
AcDbText
  0
TEXT
  5
1C6
330
17
100
AcDbEntity
  8
0
100
AcDbText
 10
1422.2040974638912
 20
2368.1437887549073
 30
0.0
 40
9.948672000000002
  1
C5S4-3/P5-TBAI1-2(B)
  7
Tahoma
100
AcDbText
  0
LINE
  5
1C7
330
17
100
AcDbEntity
  8
IE-WIRE
 62
4
 48
25.39999961853027
100
AcDbLine
 10
1407.7198811065027
 20
2341.24381778636
 30
0.0
 11
1623.08976980242
 21
2341.243817786416
 31
0.0
  0
TEXT
  5
1C8
330
17
100
AcDbEntity
  8
0
 62
4
100
AcDbText
 10
1595.51185008623
 20
2346.4972858065703
 30
0.0
 40
9.948672000000002
  1
WH
  7
Tahoma
100
AcDbText
  0
LINE
  5
1C9
330
17
100
AcDbEntity
  8
0
 48
25.39999961853027
100
AcDbLine
 10
1407.7198811065027
 20
2320.632030240183
 30
0.0
 11
1623.08976980242
 21
2320.632030240237
 31
0.0
  0
TEXT
  5
1CA
330
17
100
AcDbEntity
  8
0
100
AcDbText
 10
1595.51185008623
 20
2325.885498260391
 30
0.0
 40
9.948672000000002
  1
BK
  7
Tahoma
100
AcDbText
  0
TEXT
  5
1CB
330
17
100
AcDbEntity
  8
0
 62
4
100
AcDbText
 10
1422.2040974638912
 20
2347.532001208739
 30
0.0
 40
9.948672000000002
  1
C5S4-6/P5-TBAI1-3(A)
  7
Tahoma
100
AcDbText
  0
TEXT
  5
1CC
330
17
100
AcDbEntity
  8
0
100
AcDbText
 10
1422.2040974638912
 20
2326.92021366256
 30
0.0
 40
9.948672000000002
  1
C5S4-5/P5-TBAI1-3(B)
  7
Tahoma
100
AcDbText
  0
LINE
  5
1CD
330
17
100
AcDbEntity
  8
IE-WIRE
 62
4
 48
25.39999961853027
100
AcDbLine
 10
1407.7198811065027
 20
2300.0202426940123
 30
0.0
 11
1623.08976980242
 21
2300.020242694066
 31
0.0
  0
TEXT
  5
1CE
330
17
100
AcDbEntity
  8
0
 62
4
100
AcDbText
 10
1595.51185008623
 20
2305.273710714221
 30
0.0
 40
9.948672000000002
  1
WH
  7
Tahoma
100
AcDbText
  0
LINE
  5
1CF
330
17
100
AcDbEntity
  8
0
 48
25.39999961853027
100
AcDbLine
 10
1407.7198811065027
 20
2279.408455147833
 30
0.0
 11
1623.08976980242
 21
2279.4084551478873
 31
0.0
  0
TEXT
  5
1D0
330
17
100
AcDbEntity
  8
0
100
AcDbText
 10
1595.51185008623
 20
2284.661923168041
 30
0.0
 40
9.948672000000002
  1
BK
  7
Tahoma
100
AcDbText
  0
TEXT
  5
1D1
330
17
100
AcDbEntity
  8
0
 62
4
100
AcDbText
 10
1422.2040974638912
 20
2306.308426116389
 30
0.0
 40
9.948672000000002
  1
C5S4-8/P5-TBAI1-4(A)
  7
Tahoma
100
AcDbText
  0
TEXT
  5
1D2
330
17
100
AcDbEntity
  8
0
100
AcDbText
 10
1422.2040974638912
 20
2285.69663857021
 30
0.0
 40
9.948672000000002
  1
C5S4-7/P5-TBAI1-4(B)
  7
Tahoma
100
AcDbText
  0
LINE
  5
1D3
330
17
100
AcDbEntity
  8
IE-WIRE
 62
4
 48
25.39999961853027
100
AcDbLine
 10
1407.7198811065027
 20
2258.796667601663
 30
0.0
 11
1623.08976980242
 21
2258.796667601718
 31
0.0
  0
TEXT
  5
1D4
330
17
100
AcDbEntity
  8
0
 62
4
100
AcDbText
 10
1595.51185008623
 20
2264.050135621873
 30
0.0
 40
9.948672000000002
  1
WH
  7
Tahoma
100
AcDbText
  0
LINE
  5
1D5
330
17
100
AcDbEntity
  8
0
 48
25.39999961853027
100
AcDbLine
 10
1407.7198811065027
 20
2238.184880055484
 30
0.0
 11
1623.08976980242
 21
2238.1848800555413
 31
0.0
  0
TEXT
  5
1D6
330
17
100
AcDbEntity
  8
0
100
AcDbText
 10
1595.51185008623
 20
2243.438348075694
 30
0.0
 40
9.948672000000002
  1
BK
  7
Tahoma
100
AcDbText
  0
TEXT
  5
1D7
330
17
100
AcDbEntity
  8
0
 62
4
100
AcDbText
 10
1422.2040974638912
 20
2265.084851024042
 30
0.0
 40
9.948672000000002
  1
C5S4-12/P5-TBAI1-5(A)
  7
Tahoma
100
AcDbText
  0
TEXT
  5
1D8
330
17
100
AcDbEntity
  8
0
100
AcDbText
 10
1422.2040974638912
 20
2244.473063477862
 30
0.0
 40
9.948672000000002
  1
C5S4-11/P5-TBAI1-5(B)
  7
Tahoma
100
AcDbText
  0
LINE
  5
1D9
330
17
100
AcDbEntity
  8
IE-WIRE
 62
4
 48
25.39999961853027
100
AcDbLine
 10
1407.7198811065027
 20
2217.5730925093153
 30
0.0
 11
1623.08976980242
 21
2217.573092509369
 31
0.0
  0
TEXT
  5
1DA
330
17
100
AcDbEntity
  8
0
 62
4
100
AcDbText
 10
1595.51185008623
 20
2222.826560529525
 30
0.0
 40
9.948672000000002
  1
WH
  7
Tahoma
100
AcDbText
  0
LINE
  5
1DB
330
17
100
AcDbEntity
  8
0
 48
25.39999961853027
100
AcDbLine
 10
1407.7198811065027
 20
2196.961304963136
 30
0.0
 11
1623.08976980242
 21
2196.961304963191
 31
0.0
  0
TEXT
  5
1DC
330
17
100
AcDbEntity
  8
0
100
AcDbText
 10
1595.51185008623
 20
2202.214772983344
 30
0.0
 40
9.948672000000002
  1
BK
  7
Tahoma
100
AcDbText
  0
TEXT
  5
1DD
330
17
100
AcDbEntity
  8
0
 62
4
100
AcDbText
 10
1422.2040974638912
 20
2223.861275931692
 30
0.0
 40
9.948672000000002
  1
C5S4-14/P5-TBAI1-6(A)
  7
Tahoma
100
AcDbText
  0
TEXT
  5
1DE
330
17
100
AcDbEntity
  8
0
100
AcDbText
 10
1422.2040974638912
 20
2203.249488385512
 30
0.0
 40
9.948672000000002
  1
C5S4-13/P5-TBAI1-6(B)
  7
Tahoma
100
AcDbText
  0
LINE
  5
1DF
330
17
100
AcDbEntity
  8
IE-WIRE
 62
4
 48
25.39999961853027
100
AcDbLine
 10
1407.7198811065027
 20
2176.349517416965
 30
0.0
 11
1623.08976980242
 21
2176.349517417019
 31
0.0
  0
TEXT
  5
1E0
330
17
100
AcDbEntity
  8
0
 62
4
100
AcDbText
 10
1595.51185008623
 20
2181.602985437175
 30
0.0
 40
9.948672000000002
  1
WH
  7
Tahoma
100
AcDbText
  0
LINE
  5
1E1
330
17
100
AcDbEntity
  8
0
 48
25.39999961853027
100
AcDbLine
 10
1407.7198811065027
 20
2155.737729870786
 30
0.0
 11
1623.08976980242
 21
2155.737729870843
 31
0.0
  0
TEXT
  5
1E2
330
17
100
AcDbEntity
  8
0
100
AcDbText
 10
1595.51185008623
 20
2160.991197890994
 30
0.0
 40
9.948672000000002
  1
BK
  7
Tahoma
100
AcDbText
  0
TEXT
  5
1E3
330
17
100
AcDbEntity
  8
0
 62
4
100
AcDbText
 10
1422.2040974638912
 20
2182.637700839342
 30
0.0
 40
9.948672000000002
  1
C5S4-16/P5-TBAI1-7(A)
  7
Tahoma
100
AcDbText
  0
TEXT
  5
1E4
330
17
100
AcDbEntity
  8
0
100
AcDbText
 10
1422.2040974638912
 20
2162.0259132931633
 30
0.0
 40
9.948672000000002
  1
C5S4-15/P5-TBAI1-7(B)
  7
Tahoma
100
AcDbText
  0
LINE
  5
1E5
330
17
100
AcDbEntity
  8
IE-WIRE
 62
4
 48
25.39999961853027
100
AcDbLine
 10
1407.7198811065027
 20
2135.125942324617
 30
0.0
 11
1623.08976980242
 21
2135.125942324671
 31
0.0
  0
TEXT
  5
1E6
330
17
100
AcDbEntity
  8
0
 62
4
100
AcDbText
 10
1595.51185008623
 20
2140.3794103448263
 30
0.0
 40
9.948672000000002
  1
WH
  7
Tahoma
100
AcDbText
  0
LINE
  5
1E7
330
17
100
AcDbEntity
  8
0
 48
25.39999961853027
100
AcDbLine
 10
1407.7198811065027
 20
2114.5141547784383
 30
0.0
 11
1623.08976980242
 21
2114.514154778492
 31
0.0
  0
TEXT
  5
1E8
330
17
100
AcDbEntity
  8
0
100
AcDbText
 10
1595.51185008623
 20
2119.7676227986462
 30
0.0
 40
9.948672000000002
  1
BK
  7
Tahoma
100
AcDbText
  0
TEXT
  5
1E9
330
17
100
AcDbEntity
  8
0
 62
4
100
AcDbText
 10
1422.2040974638912
 20
2141.414125746994
 30
0.0
 40
9.948672000000002
  1
C5S4-18/P5-TBAI1-8(A)
  7
Tahoma
100
AcDbText
  0
TEXT
  5
1EA
330
17
100
AcDbEntity
  8
0
100
AcDbText
 10
1422.2040974638912
 20
2120.802338200815
 30
0.0
 40
9.948672000000002
  1
C5S4-17/P5-TBAI1-8(B)
  7
Tahoma
100
AcDbText
  0
LINE
  5
1EB
330
17
100
AcDbEntity
  8
IE-WIRE
 62
4
 48
25.39999961853027
100
AcDbLine
 10
1407.7198811065027
 20
2093.902367232266
 30
0.0
 11
1623.08976980242
 21
2093.902367232321
 31
0.0
  0
TEXT
  5
1EC
330
17
100
AcDbEntity
  8
0
 62
4
100
AcDbText
 10
1595.51185008623
 20
2099.155835252476
 30
0.0
 40
9.948672000000002
  1
WH
  7
Tahoma
100
AcDbText
  0
LINE
  5
1ED
330
17
100
AcDbEntity
  8
0
 48
25.39999961853027
100
AcDbLine
 10
1407.7198811065027
 20
2073.290579686088
 30
0.0
 11
1623.08976980242
 21
2073.290579686144
 31
0.0
  0
TEXT
  5
1EE
330
17
100
AcDbEntity
  8
0
100
AcDbText
 10
1595.51185008623
 20
2078.544047706296
 30
0.0
 40
9.948672000000002
  1
BK
  7
Tahoma
100
AcDbText
  0
TEXT
  5
1EF
330
17
100
AcDbEntity
  8
0
 62
4
100
AcDbText
 10
1422.2040974638912
 20
2100.190550654644
 30
0.0
 40
9.948672000000002
  1
C5S4-20/P5-TBAI1-9(A)
  7
Tahoma
100
AcDbText
  0
TEXT
  5
1F0
330
17
100
AcDbEntity
  8
0
100
AcDbText
 10
1422.2040974638912
 20
2079.578763108465
 30
0.0
 40
9.948672000000002
  1
C5S4-19/P5-TBAI1-9(B)
  7
Tahoma
100
AcDbText
  0
LINE
  5
1F1
330
17
100
AcDbEntity
  8
IE-WIRE
 62
4
 48
25.39999961853027
100
AcDbLine
 10
1407.7198811065027
 20
2052.678792139918
 30
0.0
 11
1623.08976980242
 21
2052.678792139973
 31
0.0
  0
TEXT
  5
1F2
330
17
100
AcDbEntity
  8
0
 62
4
100
AcDbText
 10
1595.51185008623
 20
2057.932260160128
 30
0.0
 40
9.948672000000002
  1
WH
  7
Tahoma
100
AcDbText
  0
LINE
  5
1F3
330
17
100
AcDbEntity
  8
0
 48
25.39999961853027
100
AcDbLine
 10
1407.7198811065027
 20
2032.0670045937402
 30
0.0
 11
1623.08976980242
 21
2032.067004593794
 31
0.0
  0
TEXT
  5
1F4
330
17
100
AcDbEntity
  8
0
100
AcDbText
 10
1595.51185008623
 20
2037.320472613947
 30
0.0
 40
9.948672000000002
  1
BK
  7
Tahoma
100
AcDbText
  0
TEXT
  5
1F5
330
17
100
AcDbEntity
  8
0
 62
4
100
AcDbText
 10
1422.2040974638912
 20
2058.966975562295
 30
0.0
 40
9.948672000000002
  1
C5S4-22/P5-TBAI1-10(A)
  7
Tahoma
100
AcDbText
  0
TEXT
  5
1F6
330
17
100
AcDbEntity
  8
0
100
AcDbText
 10
1422.2040974638912
 20
2038.3551880161172
 30
0.0
 40
9.948672000000002
  1
C5S4-21/P5-TBAI1-10(B)
  7
Tahoma
100
AcDbText
  0
LINE
  5
1F7
330
17
100
AcDbEntity
  8
IE-WIRE
 62
4
 48
25.39999961853027
100
AcDbLine
 10
1407.7198811064409
 20
2011.455217047568
 30
0.0
 11
1623.0897698023728
 21
2011.4552170476252
 31
0.0
  0
TEXT
  5
1F8
330
17
100
AcDbEntity
  8
0
 62
4
100
AcDbText
 10
1595.5118500861827
 20
2016.7086850677802
 30
0.0
 40
9.948672000000002
  1
WH
  7
Tahoma
100
AcDbText
  0
LINE
  5
1F9
330
17
100
AcDbEntity
  8
0
 48
25.39999961853027
100
AcDbLine
 10
1407.7198811064409
 20
1990.843429501391
 30
0.0
 11
1623.0897698023728
 21
1990.843429501446
 31
0.0
  0
TEXT
  5
1FA
330
17
100
AcDbEntity
  8
0
100
AcDbText
 10
1595.5118500861827
 20
1996.0968975215992
 30
0.0
 40
9.948672000000002
  1
BK
  7
Tahoma
100
AcDbText
  0
TEXT
  5
1FB
330
17
100
AcDbEntity
  8
0
 62
4
100
AcDbText
 10
1422.204097463833
 20
2017.7434004699471
 30
0.0
 40
9.948672000000002
  1
C5S4-24/P5-TBAI1-11(A)
  7
Tahoma
100
AcDbText
  0
TEXT
  5
1FC
330
17
100
AcDbEntity
  8
0
100
AcDbText
 10
1422.204097463833
 20
1997.131612923768
 30
0.0
 40
9.948672000000002
  1
C5S4-23/P5-TBAI1-11(B)
  7
Tahoma
100
AcDbText
  0
LINE
  5
1FD
330
17
100
AcDbEntity
  8
IE-WIRE
 62
4
 48
25.39999961853027
100
AcDbLine
 10
1407.7198811064409
 20
1970.2316419552221
 30
0.0
 11
1623.0897698023728
 21
1970.231641955276
 31
0.0
  0
TEXT
  5
1FE
330
17
100
AcDbEntity
  8
0
 62
4
100
AcDbText
 10
1595.5118500861827
 20
1975.485109975431
 30
0.0
 40
9.948672000000002
  1
WH
  7
Tahoma
100
AcDbText
  0
LINE
  5
1FF
330
17
100
AcDbEntity
  8
0
 48
25.39999961853027
100
AcDbLine
 10
1407.7198811064409
 20
1949.619854409043
 30
0.0
 11
1623.0897698023728
 21
1949.619854409098
 31
0.0
  0
TEXT
  5
200
330
17
100
AcDbEntity
  8
0
100
AcDbText
 10
1595.5118500861827
 20
1954.8733224292512
 30
0.0
 40
9.948672000000002
  1
BK
  7
Tahoma
100
AcDbText
  0
TEXT
  5
201
330
17
100
AcDbEntity
  8
0
 62
4
100
AcDbText
 10
1422.204097463833
 20
1976.519825377599
 30
0.0
 40
9.948672000000002
  1
C5S4-26/P5-TBAI1-12(A)
  7
Tahoma
100
AcDbText
  0
TEXT
  5
202
330
17
100
AcDbEntity
  8
0
100
AcDbText
 10
1422.204097463833
 20
1955.9080378314202
 30
0.0
 40
9.948672000000002
  1
C5S4-25/P5-TBAI1-12(B)
  7
Tahoma
100
AcDbText
  0
LINE
  5
203
330
17
100
AcDbEntity
  8
IE-WIRE
 62
4
 48
25.39999961853027
100
AcDbLine
 10
1407.7198811064409
 20
1929.008066862872
 30
0.0
 11
1623.0897698023728
 21
1929.0080668629262
 31
0.0
  0
TEXT
  5
204
330
17
100
AcDbEntity
  8
0
 62
4
100
AcDbText
 10
1595.5118500861827
 20
1934.2615348830811
 30
0.0
 40
9.948672000000002
  1
WH
  7
Tahoma
100
AcDbText
  0
LINE
  5
205
330
17
100
AcDbEntity
  8
0
 48
25.39999961853027
100
AcDbLine
 10
1407.7198811064409
 20
1908.3962793166932
 30
0.0
 11
1623.0897698023728
 21
1908.3962793167482
 31
0.0
  0
TEXT
  5
206
330
17
100
AcDbEntity
  8
0
100
AcDbText
 10
1595.5118500861827
 20
1913.649747336901
 30
0.0
 40
9.948672000000002
  1
BK
  7
Tahoma
100
AcDbText
  0
TEXT
  5
207
330
17
100
AcDbEntity
  8
0
 62
4
100
AcDbText
 10
1422.204097463833
 20
1935.296250285249
 30
0.0
 40
9.948672000000002
  1
C5S4-30/P5-TBAI1-13(A)
  7
Tahoma
100
AcDbText
  0
TEXT
  5
208
330
17
100
AcDbEntity
  8
0
100
AcDbText
 10
1422.204097463833
 20
1914.68446273907
 30
0.0
 40
9.948672000000002
  1
C5S4-29/P5-TBAI1-13(B)
  7
Tahoma
100
AcDbText
  0
LINE
  5
209
330
17
100
AcDbEntity
  8
IE-WIRE
 62
4
 48
25.39999961853027
100
AcDbLine
 10
1407.7198811064409
 20
1887.7844917705231
 30
0.0
 11
1623.0897698023728
 21
1887.7844917705802
 31
0.0
  0
TEXT
  5
20A
330
17
100
AcDbEntity
  8
0
 62
4
100
AcDbText
 10
1595.5118500861827
 20
1893.037959790733
 30
0.0
 40
9.948672000000002
  1
WH
  7
Tahoma
100
AcDbText
  0
LINE
  5
20B
330
17
100
AcDbEntity
  8
0
 48
25.39999961853027
100
AcDbLine
 10
1407.7198811064409
 20
1867.1727042243472
 30
0.0
 11
1623.0897698023728
 21
1867.172704224401
 31
0.0
  0
TEXT
  5
20C
330
17
100
AcDbEntity
  8
0
100
AcDbText
 10
1595.5118500861827
 20
1872.426172244554
 30
0.0
 40
9.948672000000002
  1
BK
  7
Tahoma
100
AcDbText
  0
TEXT
  5
20D
330
17
100
AcDbEntity
  8
0
 62
4
100
AcDbText
 10
1422.204097463833
 20
1894.0726751929021
 30
0.0
 40
9.948672000000002
  1
C5S4-32/P5-TBAI1-14(A)
  7
Tahoma
100
AcDbText
  0
TEXT
  5
20E
330
17
100
AcDbEntity
  8
0
100
AcDbText
 10
1422.204097463833
 20
1873.4608876467241
 30
0.0
 40
9.948672000000002
  1
C5S4-31/P5-TBAI1-14(B)
  7
Tahoma
100
AcDbText
  0
LINE
  5
20F
330
17
100
AcDbEntity
  8
IE-WIRE
 62
4
 48
25.39999961853027
100
AcDbLine
 10
1407.7198811064409
 20
1846.560916678175
 30
0.0
 11
1623.0897698023728
 21
1846.5609166782301
 31
0.0
  0
TEXT
  5
210
330
17
100
AcDbEntity
  8
0
 62
4
100
AcDbText
 10
1595.5118500861827
 20
1851.814384698385
 30
0.0
 40
9.948672000000002
  1
WH
  7
Tahoma
100
AcDbText
  0
LINE
  5
211
330
17
100
AcDbEntity
  8
0
 48
25.39999961853027
100
AcDbLine
 10
1407.7198811064409
 20
1825.9491291319962
 30
0.0
 11
1623.0897698023728
 21
1825.949129132051
 31
0.0
  0
TEXT
  5
212
330
17
100
AcDbEntity
  8
0
100
AcDbText
 10
1595.5118500861827
 20
1831.2025971522041
 30
0.0
 40
9.948672000000002
  1
BK
  7
Tahoma
100
AcDbText
  0
TEXT
  5
213
330
17
100
AcDbEntity
  8
0
 62
4
100
AcDbText
 10
1422.204097463833
 20
1852.849100100552
 30
0.0
 40
9.948672000000002
  1
C5S4-34/P5-TBAI1-15(A)
  7
Tahoma
100
AcDbText
  0
TEXT
  5
214
330
17
100
AcDbEntity
  8
0
100
AcDbText
 10
1422.204097463833
 20
1832.237312554374
 30
0.0
 40
9.948672000000002
  1
C5S4-33/P5-TBAI1-15(B)
  7
Tahoma
100
AcDbText
  0
LINE
  5
215
330
17
100
AcDbEntity
  8
IE-WIRE
 62
4
 48
25.39999961853027
100
AcDbLine
 10
1407.7198811064409
 20
1805.337341585827
 30
0.0
 11
1623.0897698023728
 21
1805.3373415858812
 31
0.0
  0
TEXT
  5
216
330
17
100
AcDbEntity
  8
0
 62
4
100
AcDbText
 10
1595.5118500861827
 20
1810.590809606037
 30
0.0
 40
9.948672000000002
  1
WH
  7
Tahoma
100
AcDbText
  0
LINE
  5
217
330
17
100
AcDbEntity
  8
0
 48
25.39999961853027
100
AcDbLine
 10
1407.7198811064409
 20
1784.7255540396482
 30
0.0
 11
1623.0897698023728
 21
1784.7255540397032
 31
0.0
  0
TEXT
  5
218
330
17
100
AcDbEntity
  8
0
100
AcDbText
 10
1595.5118500861827
 20
1789.979022059856
 30
0.0
 40
9.948672000000002
  1
BK
  7
Tahoma
100
AcDbText
  0
TEXT
  5
219
330
17
100
AcDbEntity
  8
0
 62
4
100
AcDbText
 10
1422.204097463833
 20
1811.625525008204
 30
0.0
 40
9.948672000000002
  1
C5S4-36/P5-TBAI1-16(A)
  7
Tahoma
100
AcDbText
  0
TEXT
  5
21A
330
17
100
AcDbEntity
  8
0
100
AcDbText
 10
1422.204097463833
 20
1791.013737462024
 30
0.0
 40
9.948672000000002
  1
C5S4-35/P5-TBAI1-16(B)
  7
Tahoma
100
AcDbText
  0
LINE
  5
21B
330
17
100
AcDbEntity
  8
MEMBER
 62
4
100
AcDbLine
 10
3198.06873258785
 20
196.5829355864544
 30
0.0
 11
3893.301065759213
 21
196.5829355864544
 31
0.0
  0
LINE
  5
21C
330
17
100
AcDbEntity
  8
MEMBER
 62
4
100
AcDbLine
 10
3198.06873258785
 20
56.09811575745607
 30
0.0
 11
3893.301065759213
 21
56.09811575745607
 31
0.0
  0
LINE
  5
21D
330
17
100
AcDbEntity
  8
MEMBER
 62
4
370
35
100
AcDbLine
 10
5.093170329928398e-11
 20
288.1618445997001
 30
0.0
 11
3893.301065759213
 21
288.1618445997001
 31
0.0
  0
LINE
  5
21E
330
17
100
AcDbEntity
  8
HELPPOINT
 62
4
370
35
100
AcDbLine
 10
5.093170329928398e-11
 20
5.7298205298227074e-11
 30
0.0
 11
5.093170329928398e-11
 21
2704.214040749007
 31
0.0
  0
LINE
  5
21F
330
17
100
AcDbEntity
  8
HELPPOINT
 62
4
370
35
100
AcDbLine
 10
5.093170329928398e-11
 20
2704.214040749007
 30
0.0
 11
3893.301065759213
 21
2704.214040749007
 31
0.0
  0
LINE
  5
220
330
17
100
AcDbEntity
  8
HELPPOINT
 62
4
370
35
100
AcDbLine
 10
3893.301065759213
 20
2704.214040749007
 30
0.0
 11
3893.301065759213
 21
5.7298205298227074e-11
 31
0.0
  0
LINE
  5
221
330
17
100
AcDbEntity
  8
HELPPOINT
 62
4
370
35
100
AcDbLine
 10
3893.301065759213
 20
5.7298205298227074e-11
 30
0.0
 11
5.093170329928398e-11
 21
5.7298205298227074e-11
 31
0.0
  0
LINE
  5
222
330
17
100
AcDbEntity
  8
HELPPOINT
 62
4
100
AcDbLine
 10
3198.06873258785
 20
56.09811575745607
 30
0.0
 11
3893.301065759213
 21
56.09811575745607
 31
0.0
  0
LINE
  5
223
330
17
100
AcDbEntity
  8
HELPPOINT
 62
4
100
AcDbLine
 10
3198.06873258785
 20
196.5829355864544
 30
0.0
 11
3893.301065759213
 21
196.5829355864544
 31
0.0
  0
LINE
  5
224
330
17
100
AcDbEntity
  8
GT_1
 62
4
100
AcDbLine
 10
3198.06873258785
 20
5.7298205298227074e-11
 30
0.0
 11
3198.06873258785
 21
288.1618445997001
 31
0.0
  0
TEXT
  5
225
330
17
100
AcDbEntity
  8
GT_1
 62
4
100
AcDbText
 10
3207.9634227478527
 20
266.8088202108038
 30
0.0
 40
14.25048787328728
  1
PROJECT:
  7
HTX11
100
AcDbText
  0
TEXT
  5
226
330
17
100
AcDbEntity
  8
GT_1
 62
4
100
AcDbText
 10
3207.9634227478527
 20
174.42689290398178
 30
0.0
 40
14.25048787328728
  1
DRAWING:
  7
HTX11
100
AcDbText
  0
LINE
  5
227
330
17
100
AcDbEntity
  8
0
 62
4
 48
0.5
100
AcDbLine
 10
3845.855921829123
 20
56.09811575745607
 30
0.0
 11
3845.855921829123
 21
5.7298205298227074e-11
 31
0.0
  0
LINE
  5
228
330
17
100
AcDbEntity
  8
0
 62
4
 48
0.5
100
AcDbLine
 10
3774.6882059340714
 20
56.09811575745607
 30
0.0
 11
3774.6882059340714
 21
5.7298205298227074e-11
 31
0.0
  0
TEXT
  5
229
330
17
100
AcDbEntity
  8
MEMBER
 62
4
 48
0.8
100
AcDbText
 10
3782.6954069908206
 20
37.058994454156164
 30
0.0
 40
12.00362141431238
  1
SHEET.
  7
ROMANS
100
AcDbText
  0
TEXT
  5
22A
330
17
100
AcDbEntity
  8
MEMBER
 62
4
 48
0.8
100
AcDbText
 10
3852.627868443142
 20
37.058994454156164
 30
0.0
 40
12.00362141431238
  1
REV.
  7
ROMANS
100
AcDbText
  0
LINE
  5
22B
330
17
100
AcDbEntity
  8
MEMBER
 62
4
100
AcDbLine
 10
3198.06873258785
 20
196.5829355864544
 30
0.0
 11
3893.301065759213
 21
196.5829355864544
 31
0.0
  0
LINE
  5
22C
330
17
100
AcDbEntity
  8
MEMBER
 62
4
100
AcDbLine
 10
3198.06873258785
 20
56.09811575745607
 30
0.0
 11
3893.301065759213
 21
56.09811575745607
 31
0.0
  0
LINE
  5
22D
330
17
100
AcDbEntity
  8
MEMBER
 62
4
370
35
100
AcDbLine
 10
5.093170329928398e-11
 20
288.1618445997001
 30
0.0
 11
3893.301065759213
 21
288.1618445997001
 31
0.0
  0
LINE
  5
22E
330
17
100
AcDbEntity
  8
HELPPOINT
 62
4
370
35
100
AcDbLine
 10
5.093170329928398e-11
 20
5.7298205298227074e-11
 30
0.0
 11
5.093170329928398e-11
 21
2704.214040749007
 31
0.0
  0
LINE
  5
22F
330
17
100
AcDbEntity
  8
HELPPOINT
 62
4
370
35
100
AcDbLine
 10
5.093170329928398e-11
 20
2704.214040749007
 30
0.0
 11
3893.301065759213
 21
2704.214040749007
 31
0.0
  0
LINE
  5
230
330
17
100
AcDbEntity
  8
HELPPOINT
 62
4
370
35
100
AcDbLine
 10
3893.301065759213
 20
2704.214040749007
 30
0.0
 11
3893.301065759213
 21
5.7298205298227074e-11
 31
0.0
  0
LINE
  5
231
330
17
100
AcDbEntity
  8
HELPPOINT
 62
4
370
35
100
AcDbLine
 10
3893.301065759213
 20
5.7298205298227074e-11
 30
0.0
 11
5.093170329928398e-11
 21
5.7298205298227074e-11
 31
0.0
  0
LINE
  5
232
330
17
100
AcDbEntity
  8
GT_1
 62
4
100
AcDbLine
 10
3198.06873258785
 20
56.09811575745607
 30
0.0
 11
3893.301065759213
 21
56.09811575745607
 31
0.0
  0
LINE
  5
233
330
17
100
AcDbEntity
  8
HELPPOINT
 62
4
100
AcDbLine
 10
3198.06873258785
 20
196.5829355864544
 30
0.0
 11
3893.301065759213
 21
196.5829355864544
 31
0.0
  0
LINE
  5
234
330
17
100
AcDbEntity
  8
GT_1
 62
4
100
AcDbLine
 10
3198.06873258785
 20
5.7298205298227074e-11
 30
0.0
 11
3198.06873258785
 21
288.1618445997001
 31
0.0
  0
LINE
  5
235
330
17
100
AcDbEntity
  8
0
 62
4
 48
0.5
100
AcDbLine
 10
3845.855921829123
 20
56.09811575745607
 30
0.0
 11
3845.855921829123
 21
5.7298205298227074e-11
 31
0.0
  0
LINE
  5
236
330
17
100
AcDbEntity
  8
0
 62
4
 48
0.5
100
AcDbLine
 10
3774.6882059340714
 20
56.09811575745607
 30
0.0
 11
3774.6882059340714
 21
5.7298205298227074e-11
 31
0.0
  0
LINE
  5
237
330
17
100
AcDbEntity
  8
0
 62
4
100
AcDbLine
 10
3302.324110687121
 20
56.09801743127082
 30
0.0
 11
3302.324110687121
 21
-0.0001848549591158947
 31
0.0
  0
TEXT
  5
238
330
17
100
AcDbEntity
  8
MEMBER
 62
4
 48
0.8
100
AcDbText
 10
3203.95924253418
 20
37.05886676104183
 30
0.0
 40
11.87540656107273
  1
SCALE:
  7
ROMANS
100
AcDbText
  0
TEXT
  5
239
330
17
100
AcDbEntity
  8
MEMBER
 62
4
 48
0.8
100
AcDbText
 10
3319.2272382419324
 20
37.05886676104183
 30
0.0
 40
11.87540656107273
  1
PROJECT NO.
  7
ROMANS
100
AcDbText
  0
TEXT
  5
23A
330
17
100
AcDbEntity
  8
MEMBER
 62
4
 48
0.8
100
AcDbText
 10
3482.9110124419603
 20
37.05886676104183
 30
0.0
 40
11.87540656107273
  1
DRAWING NO:
  7
ROMANS
100
AcDbText
  0
TEXT
  5
23B
330
17
100
AcDbEntity
  8
MEMBER
 62
4
 48
0.8
100
AcDbText
 10
3320.4345589676523
 20
7.3359582641851375
 30
0.0
 40
14.23356513362789
  1
xxxxx
  7
ROMANS
100
AcDbText
  0
TEXT
  5
23C
330
17
100
AcDbEntity
  8
MEMBER
 62
4
 48
0.8
100
AcDbText
 10
3220.0034169732207
 20
7.3359582641851375
 30
0.0
 40
14.23356513362789
  1
NONE
  7
ROMANS
100
AcDbText
  0
LINE
  5
23D
330
17
100
AcDbEntity
  8
0
 62
4
100
AcDbLine
 10
3467.562921275501
 20
56.09801743127082
 30
0.0
 11
3467.562921275501
 21
-0.0001848549591158947
 31
0.0
  0
TEXT
  5
23E
330
17
100
AcDbEntity
  8
MEMBER
 62
4
 48
0.8
100
AcDbText
 10
1028.0207195297698
 20
13.446836132089631
 30
0.0
 40
11.87540656107273
  1
DESCRIPTION
  7
ROMANS
100
AcDbText
  0
TEXT
  5
23F
330
17
100
AcDbEntity
  8
MEMBER
 62
4
 48
0.8
100
AcDbText
 10
775.1369028742702
 20
13.446836132089631
 30
0.0
 40
11.87540656107273
  1
REV
  7
ROMANS
100
AcDbText
  0
TEXT
  5
240
330
17
100
AcDbEntity
  8
MEMBER
 62
4
 48
0.8
100
AcDbText
 10
181.36379024257985
 20
13.446836132089631
 30
0.0
 40
11.87540656107273
  1
REFERENCE DRAWINGS
  7
ROMANS
100
AcDbText
  0
TEXT
  5
241
330
17
100
AcDbEntity
  8
MEMBER
 62
4
 48
0.8
100
AcDbText
 10
621.5903530202922
 20
13.446836132089631
 30
0.0
 40
11.87540656107273
  1
DWG. NUMBER
  7
ROMANS
100
AcDbText
  0
TEXT
  5
242
330
17
100
AcDbEntity
  8
MEMBER
 62
4
 48
0.8
100
AcDbText
 10
1766.6006344539928
 20
7.9718823565626735
 30
0.0
 40
11.87540656107273
  1
INGREDION
  7
ROMANS
 41
0.8000000000000002
100
AcDbText
  0
TEXT
  5
243
330
17
100
AcDbEntity
  8
MEMBER
 62
4
 48
0.8
100
AcDbText
 10
1777.4076310621422
 20
29.66290853964074
 30
0.0
 40
11.87540656107273
  1
APP'D
  7
ROMANS
100
AcDbText
  0
TEXT
  5
244
330
17
100
AcDbEntity
  8
MEMBER
 62
4
 48
0.8
100
AcDbText
 10
1596.9238663113829
 20
5.128858318667881
 30
0.0
 40
11.87540656107273
  1
VENDOR
  7
ROMANS
100
AcDbText
  0
TEXT
  5
245
330
17
100
AcDbEntity
  8
MEMBER
 62
4
 48
0.8
100
AcDbText
 10
1696.16206125787
 20
29.66290853964074
 30
0.0
 40
11.87540656107273
  1
APP'D
  7
ROMANS
100
AcDbText
  0
TEXT
  5
246
330
17
100
AcDbEntity
  8
MEMBER
 62
4
 48
0.8
100
AcDbText
 10
1412.8092794021322
 20
14.19670663186025
 30
0.0
 40
11.87540656107273
  1
DATE
  7
ROMANS
100
AcDbText
  0
TEXT
  5
247
330
17
100
AcDbEntity
  8
MEMBER
 62
4
 48
0.8
100
AcDbText
 10
1520.787360114271
 20
27.2652131486675
 30
0.0
 40
11.87540656107273
  1
DRAWN
  7
ROMANS
100
AcDbText
  0
TEXT
  5
248
330
17
100
AcDbEntity
  8
MEMBER
 62
4
 48
0.8
100
AcDbText
 10
1610.5900035226914
 20
28.4928943455443
 30
0.0
 40
11.87540656107273
  1
CHK'D
  7
ROMANS
100
AcDbText
  0
TEXT
  5
249
330
17
100
AcDbEntity
  8
MEMBER
 62
4
 48
0.8
100
AcDbText
 10
1863.3532964918413
 20
33.58130130870177
 30
0.0
 40
11.87540656107273
  1
DATE:
  7
ROMANS
100
AcDbText
  0
TEXT
  5
24A
330
17
100
AcDbEntity
  8
MEMBER
 62
4
 48
0.8
100
AcDbText
 10
1863.3532964918413
 20
92.13950435677452
 30
0.0
 40
11.87540656107273
  1
DRAWN BY:
  7
ROMANS
100
AcDbText
  0
TEXT
  5
24B
330
17
100
AcDbEntity
  8
MEMBER
 62
4
 48
0.8
100
AcDbText
 10
2057.31717833137
 20
33.58130130870177
 30
0.0
 40
11.87540656107273
  1
DATE:
  7
ROMANS
100
AcDbText
  0
TEXT
  5
24C
330
17
100
AcDbEntity
  8
MEMBER
 62
4
 48
0.8
100
AcDbText
 10
2057.31717833137
 20
92.13950435677452
 30
0.0
 40
11.87540656107273
  1
CHECKED BY:
  7
ROMANS
100
AcDbText
  0
TEXT
  5
24D
330
17
100
AcDbEntity
  8
MEMBER
 62
4
 48
0.8
100
AcDbText
 10
2252.509550504732
 20
33.58130130870177
 30
0.0
 40
11.87540656107273
  1
DATE:
  7
ROMANS
100
AcDbText
  0
TEXT
  5
24E
330
17
100
AcDbEntity
  8
MEMBER
 62
4
 48
0.8
100
AcDbText
 10
2252.509550504732
 20
92.13950435677452
 30
0.0
 40
11.87540656107273
  1
APP'D.:
  7
ROMANS
100
AcDbText
  0
TEXT
  5
24F
330
17
100
AcDbEntity
  8
MEMBER
 62
4
 48
0.8
100
AcDbText
 10
2449.259648421372
 20
33.58130130870177
 30
0.0
 40
11.87540656107273
  1
DATE:
  7
ROMANS
100
AcDbText
  0
TEXT
  5
250
330
17
100
AcDbEntity
  8
GT_1
 62
4
100
AcDbText
 10
2645.2731558795713
 20
263.4849135645191
 30
0.0
 40
14.25048787328728
  1
CLIENT:
  7
HTX11
100
AcDbText
  0
LINE
  5
251
330
17
100
AcDbEntity
  8
GT_1
 62
4
100
AcDbLine
 10
3198.06873258785
 20
5.7298205298227074e-11
 30
0.0
 11
3198.06873258785
 21
288.1618445997001
 31
0.0
  0
LINE
  5
252
330
17
100
AcDbEntity
  8
GT_1
 62
4
100
AcDbLine
 10
2635.823104489471
 20
114.3235828064489
 30
0.0
 11
1848.8079709383928
 21
114.3235828064489
 31
0.0
  0
LINE
  5
253
330
17
100
AcDbEntity
  8
GT_1
 62
4
100
AcDbLine
 10
2635.823104489471
 20
52.8754790968369
 30
0.0
 11
1848.8079709383928
 21
52.8754790968369
 31
0.0
  0
LINE
  5
254
330
17
100
AcDbEntity
  8
GT_1
 62
4
100
AcDbLine
 10
1757.8195533197104
 20
21.80057040258453
 30
0.0
 11
1507.4361271654525
 21
21.80057040258453
 31
0.0
  0
LINE
  5
255
330
17
100
AcDbEntity
  8
GT_1
 62
4
100
AcDbLine
 10
1848.7146056729798
 20
49.810150015632644
 30
0.0
 11
5.093170329928398e-11
 21
49.810150015632644
 31
0.0
  0
LINE
  5
256
330
17
100
AcDbEntity
  8
GT_1
 62
4
100
AcDbLine
 10
1848.8079709383928
 20
89.73608586745013
 30
0.0
 11
5.093170329928398e-11
 21
89.73608586745013
 31
0.0
  0
LINE
  5
257
330
17
100
AcDbEntity
  8
GT_1
 62
4
100
AcDbLine
 10
1848.8079709383928
 20
129.662021719384
 30
0.0
 11
5.093170329928398e-11
 21
129.662021719384
 31
0.0
  0
LINE
  5
258
330
17
100
AcDbEntity
  8
GT_1
 62
4
100
AcDbLine
 10
1848.8079709383928
 20
169.5879575712597
 30
0.0
 11
5.093170329928398e-11
 21
169.5879575712597
 31
0.0
  0
LINE
  5
259
330
17
100
AcDbEntity
  8
GT_1
 62
4
100
AcDbLine
 10
1848.8079709383928
 20
209.5138934231936
 30
0.0
 11
5.093170329928398e-11
 21
209.5138934231936
 31
0.0
  0
LINE
  5
25A
330
17
100
AcDbEntity
  8
GT_1
 62
4
100
AcDbLine
 10
1848.8079709383928
 20
249.31698024168048
 30
0.0
 11
5.093170329928398e-11
 21
249.31698024168048
 31
0.0
  0
LINE
  5
25B
330
17
100
AcDbEntity
  8
GT_1
 62
4
100
AcDbLine
 10
1848.8079709383928
 20
5.7298205298227074e-11
 30
0.0
 11
1848.8079709383928
 21
288.1618445997001
 31
0.0
  0
LINE
  5
25C
330
17
100
AcDbEntity
  8
GT_1
 62
4
100
AcDbLine
 10
1674.510812576391
 20
21.83054556668412
 30
0.0
 11
1674.510812576391
 21
288.1918197639161
 31
0.0
  0
LINE
  5
25D
330
17
100
AcDbEntity
  8
GT_1
 62
4
100
AcDbLine
 10
595.3891111787525
 20
5.7298205298227074e-11
 30
0.0
 11
595.3891111787525
 21
288.1618445997001
 31
0.0
  0
LINE
  5
25E
330
17
100
AcDbEntity
  8
GT_1
 62
4
100
AcDbLine
 10
767.3040485053207
 20
5.7298205298227074e-11
 30
0.0
 11
767.3040485053207
 21
288.1618445997001
 31
0.0
  0
LINE
  5
25F
330
17
100
AcDbEntity
  8
GT_1
 62
4
100
AcDbLine
 10
816.4436618614127
 20
5.7298205298227074e-11
 30
0.0
 11
816.4436618614127
 21
288.1618445997001
 31
0.0
  0
LINE
  5
260
330
17
100
AcDbEntity
  8
GT_1
 62
4
100
AcDbLine
 10
1379.1339023691799
 20
5.7298205298227074e-11
 30
0.0
 11
1379.1339023691799
 21
288.1618445997001
 31
0.0
  0
LINE
  5
261
330
17
100
AcDbEntity
  8
GT_1
 62
4
100
AcDbLine
 10
1507.4361271654525
 20
5.7298205298227074e-11
 30
0.0
 11
1507.4361271654525
 21
288.1618445997001
 31
0.0
  0
LINE
  5
262
330
17
100
AcDbEntity
  8
GT_1
 62
4
100
AcDbLine
 10
1757.8195533197104
 20
5.7298205298227074e-11
 30
0.0
 11
1757.8195533197104
 21
288.1618445997001
 31
0.0
  0
LINE
  5
263
330
17
100
AcDbEntity
  8
GT_1
 62
4
100
AcDbLine
 10
1590.97346987098
 20
21.80057040258453
 30
0.0
 11
1590.97346987098
 21
288.1618445997001
 31
0.0
  0
LINE
  5
264
330
17
100
AcDbEntity
  8
GT_1
 62
4
100
AcDbLine
 10
2439.073006572613
 20
5.7298205298227074e-11
 30
0.0
 11
2439.073006572613
 21
114.3235828064489
 31
0.0
  0
LINE
  5
265
330
17
100
AcDbEntity
  8
GT_1
 62
4
100
AcDbLine
 10
2242.317994694571
 20
5.7298205298227074e-11
 30
0.0
 11
2242.317994694571
 21
114.3235828064489
 31
0.0
  0
LINE
  5
266
330
17
100
AcDbEntity
  8
GT_1
 62
4
100
AcDbLine
 10
2045.5580688551418
 20
5.7298205298227074e-11
 30
0.0
 11
2045.5580688551418
 21
114.3235828064489
 31
0.0
  0
LINE
  5
267
330
17
100
AcDbEntity
  8
GT_1
 62
4
100
AcDbLine
 10
2635.823104489471
 20
5.7298205298227074e-11
 30
0.0
 11
2635.823104489471
 21
288.1618445997001
 31
0.0
  0
TEXT
  5
268
330
17
100
AcDbEntity
  8
MEMBER
 62
4
 48
0.8
100
AcDbText
 10
2443.267598639821
 20
92.13950435677452
 30
0.0
 40
11.87540656107273
  1
INGREDION APP'D.:
  7
ROMANS
 41
0.8000000000000002
100
AcDbText
  0
TEXT
  5
269
330
17
100
AcDbEntity
  8
MEMBER
 62
4
 48
0.8
100
AcDbText
 10
3864.4398777363203
 20
7.336131803574062
 30
0.0
 40
14.23354317902654
  1
3
  7
ROMANS
 72
1
 11
3871.2177554406226
 21
7.336131803574062
 31
0.0
100
AcDbText
  0
TEXT
  5
26A
330
17
100
AcDbEntity
  8
0
 62
4
 48
100.0
100
AcDbText
 10
3454.8860245857504
 20
105.77028402061649
 30
0.0
 40
14.69257450479394
  1
WIRING DIAGRAM
  7
HTX11
 72
1
 11
3543.7411180195013
 21
113.11657127301349
 31
0.0
100
AcDbText
 73
2
  0
TEXT
  5
26B
330
17
100
AcDbEntity
  8
MEMBER
 62
4
 48
0.8
100
AcDbText
 10
3486.578024046201
 20
7.3359582641851375
 30
0.0
 40
14.23356513362789
  1
xxx:xxx:
  7
ROMANS
 41
0.7999999999999999
100
AcDbText
  0
TEXT
  5
26C
330
17
100
AcDbEntity
  8
MEMBER
 62
4
 48
0.8
100
AcDbText
 10
1861.8643391413498
 20
262.7434528949661
 30
0.0
 40
12.35042282351564
  1
CONTRACTOR:
  7
ROMANS
100
AcDbText
  0
TEXT
  5
26D
330
17
100
AcDbEntity
  8
MEMBER
 62
4
 48
0.8
100
AcDbText
 10
1887.8235282524802
 20
67.20880734128787
 30
0.0
 40
11.87540656107273
  1
cj@xDev.co.th
  7
ROMANS
100
AcDbText
  0
TEXT
  5
26E
330
17
100
AcDbEntity
  8
MEMBER
 62
4
 48
0.8
100
AcDbText
 10
1887.8235282524802
 20
8.504224909701406
 30
0.0
 40
11.87540656107273
  1
11/09/2026
  7
ROMANS
100
AcDbText
  0
TEXT
  5
26F
330
17
100
AcDbEntity
  8
MEMBER
 62
4
 48
0.8
100
AcDbText
 10
1541.1946874307032
 20
63.98455560463259
 30
0.0
 40
11.87540656107273
  1
cj
  7
ROMANS
 72
1
 11
1549.1116251380809
 21
69.92225888516896
 31
0.0
100
AcDbText
 73
2
  0
TEXT
  5
270
330
17
100
AcDbEntity
  8
MEMBER
 62
4
 48
0.8
100
AcDbText
 10
1382.7084205485298
 20
63.98455560463259
 30
0.0
 40
11.87540656107273
  1
11/09/2026
  7
ROMANS
 72
1
 11
1441.2372100281027
 21
69.92225888516896
 31
0.0
100
AcDbText
 73
2
  0
TEXT
  5
271
330
17
100
AcDbEntity
  8
MEMBER
 62
4
 48
0.8
100
AcDbText
 10
991.4021959852398
 20
63.98455560463259
 30
0.0
 40
11.87540656107273
  1
ISSUED FOR REVIEW
  7
ROMANS
 72
1
 11
1083.0124751706608
 21
69.92225888516896
 31
0.0
100
AcDbText
 73
2
  0
TEXT
  5
272
330
17
100
AcDbEntity
  8
MEMBER
 62
4
 48
0.8
100
AcDbText
 10
786.1306677141911
 20
63.98455560463259
 30
0.0
 40
11.87540656107273
  1
1
  7
ROMANS
 72
1
 11
790.9373798936722
 21
69.92225888516896
 31
0.0
100
AcDbText
 73
2
  0
TEXT
  5
273
330
17
100
AcDbEntity
  8
0
 62
4
 48
100.0
100
AcDbText
 10
3463.9162368408506
 20
224.8363720640027
 30
0.0
 40
14.69257450479394
  1
SPRINT PROJECT
  7
HTX11
 72
1
 11
3555.919739097062
 21
232.1826593163996
 31
0.0
100
AcDbText
 73
2
  0
TEXT
  5
274
330
17
100
AcDbEntity
  8
MEMBER
 62
4
 48
0.8
100
AcDbText
 10
1624.7320301362306
 20
63.98455560463259
 30
0.0
 40
11.87540656107273
  1
cj
  7
ROMANS
 72
1
 11
1632.6489678436228
 21
69.92225888516896
 31
0.0
100
AcDbText
 73
2
  0
TEXT
  5
275
330
17
100
AcDbEntity
  8
MEMBER
 62
4
 48
0.8
100
AcDbText
 10
1708.2693728417726
 20
63.98455560463259
 30
0.0
 40
11.87540656107273
  1
cj
  7
ROMANS
 72
1
 11
1716.1863105491502
 21
69.92225888516896
 31
0.0
100
AcDbText
 73
2
  0
TEXT
  5
276
330
17
100
AcDbEntity
  8
0
 62
4
 48
100.0
100
AcDbText
 10
3425.1510523736724
 20
138.6918464458849
 30
0.0
 40
14.69257450479394
  1
SPRINT PROJECT PLC
  7
HTX11
 72
1
 11
3543.7411180195013
 21
146.03813369828188
 31
0.0
100
AcDbText
 73
2
  0
ATTDEF
  5
277
330
17
100
AcDbEntity
  8
0
100
AcDbText
 10
3512.1089812502614
 20
72.41974765961567
 30
0.0
 40
14.82145673729213
  1
A
  7
HTX11
 72
1
 11
3517.755250483511
 21
79.83047602826173
 31
0.0
100
AcDbAttributeDefinition
  3
A
  2
A
 70
0
 74
2
280
1
  0
ATTDEF
  5
278
330
17
100
AcDbEntity
  8
0
100
AcDbText
 10
3806.6585341940918
 20
7.456581811623604
 30
0.0
 40
14.82145673729213
  1
CHASSIS C5 SLOT 4
  7
HTX11
 72
1
 11
3811.5990197731808
 21
14.867310180269671
 31
0.0
100
AcDbAttributeDefinition
  3
B
  2
B
 70
0
 74
2
280
1
  0
TEXT
  5
279
330
17
100
AcDbEntity
  8
MEMBER
 62
4
 48
0.8
100
AcDbText
 10
2084.580997111272
 20
67.20880734128787
 30
0.0
 40
11.87540656107273
  1
cj@xDev.co.th
  7
ROMANS
100
AcDbText
  0
TEXT
  5
27A
330
17
100
AcDbEntity
  8
MEMBER
 62
4
 48
0.8
100
AcDbText
 10
2281.3384659699514
 20
67.20880734128787
 30
0.0
 40
11.87540656107273
  1
cj@xDev.co.th
  7
ROMANS
100
AcDbText
  0
TEXT
  5
27B
330
17
100
AcDbEntity
  8
MEMBER
 62
4
 48
0.8
100
AcDbText
 10
2084.583454091913
 20
8.504224909701406
 30
0.0
 40
11.87540656107273
  1
11/09/2026
  7
ROMANS
100
AcDbText
  0
TEXT
  5
27C
330
17
100
AcDbEntity
  8
MEMBER
 62
4
 48
0.8
100
AcDbText
 10
2281.3384659699514
 20
8.504224909701406
 30
0.0
 40
11.87540656107273
  1
11/09/2026
  7
ROMANS
100
AcDbText
  0
TEXT
  5
27D
330
17
100
AcDbEntity
  8
MEMBER
 62
4
 48
0.8
100
AcDbText
 10
76.61549647859283
 20
975.5698373866007
 30
0.0
 40
12.35042282351564
  1
SLOT C5S4 - I/O POINT SCHEDULE & CHANNEL LIST
  7
ROMANS
100
AcDbText
  0
LINE
  5
27E
330
17
100
AcDbEntity
  8
0
 62
7
100
AcDbLine
 10
65.70000000000073
 20
937.8999999999987
 30
0.0
 11
1411.5
 21
937.8999999999987
 31
0.0
  0
LINE
  5
27F
330
17
100
AcDbEntity
  8
0
 62
7
100
AcDbLine
 10
125.0
 20
333.79999999999836
 30
0.0
 11
125.0
 21
965.8999999999987
 31
0.0
  0
LINE
  5
280
330
17
100
AcDbEntity
  8
0
 62
7
100
AcDbLine
 10
200.0
 20
333.79999999999836
 30
0.0
 11
200.0
 21
965.8999999999987
 31
0.0
  0
LINE
  5
281
330
17
100
AcDbEntity
  8
0
 62
7
100
AcDbLine
 10
400.0
 20
333.79999999999836
 30
0.0
 11
400.0
 21
965.8999999999987
 31
0.0
  0
LINE
  5
282
330
17
100
AcDbEntity
  8
0
 62
7
100
AcDbLine
 10
580.0
 20
333.79999999999836
 30
0.0
 11
580.0
 21
965.8999999999987
 31
0.0
  0
LINE
  5
283
330
17
100
AcDbEntity
  8
0
 62
7
100
AcDbLine
 10
1210.0
 20
333.79999999999836
 30
0.0
 11
1210.0
 21
965.8999999999987
 31
0.0
  0
TEXT
  5
284
330
17
100
AcDbEntity
  8
0
 62
3
100
AcDbText
 10
68.70000000000073
 20
948.8999999999987
 30
0.0
 40
7.5
  1
PIN
100
AcDbText
  0
TEXT
  5
285
330
17
100
AcDbEntity
  8
0
 62
3
100
AcDbText
 10
128.0
 20
948.8999999999987
 30
0.0
 40
7.5
  1
TERM
100
AcDbText
  0
TEXT
  5
286
330
17
100
AcDbEntity
  8
0
 62
3
100
AcDbText
 10
203.0
 20
948.8999999999987
 30
0.0
 40
7.5
  1
PLC TAG
100
AcDbText
  0
TEXT
  5
287
330
17
100
AcDbEntity
  8
0
 62
3
100
AcDbText
 10
403.0
 20
948.8999999999987
 30
0.0
 40
7.5
  1
INST TAG
100
AcDbText
  0
TEXT
  5
288
330
17
100
AcDbEntity
  8
0
 62
3
100
AcDbText
 10
583.0
 20
948.8999999999987
 30
0.0
 40
7.5
  1
SIGNAL DESCRIPTION
100
AcDbText
  0
TEXT
  5
289
330
17
100
AcDbEntity
  8
0
 62
3
100
AcDbText
 10
1213.0
 20
948.8999999999987
 30
0.0
 40
7.5
  1
DEST / JB
100
AcDbText
  0
LINE
  5
28A
330
17
100
AcDbEntity
  8
0
 62
8
100
AcDbLine
 10
65.70000000000073
 20
919.0218749999995
 30
0.0
 11
1411.5
 21
919.0218749999995
 31
0.0
  0
TEXT
  5
28B
330
17
100
AcDbEntity
  8
0
 62
7
100
AcDbText
 10
68.70000000000073
 20
922.0218749999995
 30
0.0
 40
5.5
  1
2
100
AcDbText
  0
TEXT
  5
28C
330
17
100
AcDbEntity
  8
0
 62
7
100
AcDbText
 10
128.0
 20
922.0218749999995
 30
0.0
 40
5.5
  1
IN-0
100
AcDbText
  0
TEXT
  5
28D
330
17
100
AcDbEntity
  8
0
 62
7
100
AcDbText
 10
203.0
 20
922.0218749999995
 30
0.0
 40
5.5
  1
AI_C5S4_00_EXT-BIILER
100
AcDbText
  0
TEXT
  5
28E
330
17
100
AcDbEntity
  8
0
 62
7
100
AcDbText
 10
403.0
 20
922.0218749999995
 30
0.0
 40
5.5
  1
EXT-BIILER
100
AcDbText
  0
TEXT
  5
28F
330
17
100
AcDbEntity
  8
0
 62
7
100
AcDbText
 10
583.0
 20
922.0218749999995
 30
0.0
 40
5.5
  1
External Boiler 4-20mA Interface
100
AcDbText
  0
TEXT
  5
290
330
17
100
AcDbEntity
  8
0
 62
7
100
AcDbText
 10
1213.0
 20
922.0218749999995
 30
0.0
 40
5.5
  1
RIO-200
100
AcDbText
  0
LINE
  5
291
330
17
100
AcDbEntity
  8
0
 62
8
100
AcDbLine
 10
65.70000000000073
 20
900.1437499999984
 30
0.0
 11
1411.5
 21
900.1437499999984
 31
0.0
  0
TEXT
  5
292
330
17
100
AcDbEntity
  8
0
 62
7
100
AcDbText
 10
68.70000000000073
 20
903.1437499999984
 30
0.0
 40
5.5
  1
1
100
AcDbText
  0
TEXT
  5
293
330
17
100
AcDbEntity
  8
0
 62
7
100
AcDbText
 10
128.0
 20
903.1437499999984
 30
0.0
 40
5.5
  1
i RTN-0
100
AcDbText
  0
TEXT
  5
294
330
17
100
AcDbEntity
  8
0
 62
7
100
AcDbText
 10
203.0
 20
903.1437499999984
 30
0.0
 40
5.5
  1
AI_C5S4_00_EXT-BIILER
100
AcDbText
  0
TEXT
  5
295
330
17
100
AcDbEntity
  8
0
 62
7
100
AcDbText
 10
403.0
 20
903.1437499999984
 30
0.0
 40
5.5
  1
EXT-BIILER
100
AcDbText
  0
TEXT
  5
296
330
17
100
AcDbEntity
  8
0
 62
7
100
AcDbText
 10
583.0
 20
903.1437499999984
 30
0.0
 40
5.5
  1
External Boiler 4-20mA Interface
100
AcDbText
  0
TEXT
  5
297
330
17
100
AcDbEntity
  8
0
 62
7
100
AcDbText
 10
1213.0
 20
903.1437499999984
 30
0.0
 40
5.5
  1
RIO-200
100
AcDbText
  0
LINE
  5
298
330
17
100
AcDbEntity
  8
0
 62
8
100
AcDbLine
 10
65.70000000000073
 20
881.2656249999991
 30
0.0
 11
1411.5
 21
881.2656249999991
 31
0.0
  0
TEXT
  5
299
330
17
100
AcDbEntity
  8
0
 62
7
100
AcDbText
 10
68.70000000000073
 20
884.2656249999991
 30
0.0
 40
5.5
  1
4
100
AcDbText
  0
TEXT
  5
29A
330
17
100
AcDbEntity
  8
0
 62
7
100
AcDbText
 10
128.0
 20
884.2656249999991
 30
0.0
 40
5.5
  1
IN-1
100
AcDbText
  0
TEXT
  5
29B
330
17
100
AcDbEntity
  8
0
 62
7
100
AcDbText
 10
203.0
 20
884.2656249999991
 30
0.0
 40
5.5
  1
AI_C5S4_01_FT-913201
100
AcDbText
  0
TEXT
  5
29C
330
17
100
AcDbEntity
  8
0
 62
7
100
AcDbText
 10
403.0
 20
884.2656249999991
 30
0.0
 40
5.5
  1
FT-913201
100
AcDbText
  0
TEXT
  5
29D
330
17
100
AcDbEntity
  8
0
 62
7
100
AcDbText
 10
583.0
 20
884.2656249999991
 30
0.0
 40
5.5
  1
Flow Transmitter
100
AcDbText
  0
TEXT
  5
29E
330
17
100
AcDbEntity
  8
0
 62
7
100
AcDbText
 10
1213.0
 20
884.2656249999991
 30
0.0
 40
5.5
  1
RIO-200
100
AcDbText
  0
LINE
  5
29F
330
17
100
AcDbEntity
  8
0
 62
8
100
AcDbLine
 10
65.70000000000073
 20
862.3874999999998
 30
0.0
 11
1411.5
 21
862.3874999999998
 31
0.0
  0
TEXT
  5
2A0
330
17
100
AcDbEntity
  8
0
 62
7
100
AcDbText
 10
68.70000000000073
 20
865.3874999999998
 30
0.0
 40
5.5
  1
3
100
AcDbText
  0
TEXT
  5
2A1
330
17
100
AcDbEntity
  8
0
 62
7
100
AcDbText
 10
128.0
 20
865.3874999999998
 30
0.0
 40
5.5
  1
i RTN-1
100
AcDbText
  0
TEXT
  5
2A2
330
17
100
AcDbEntity
  8
0
 62
7
100
AcDbText
 10
203.0
 20
865.3874999999998
 30
0.0
 40
5.5
  1
AI_C5S4_01_FT-913201
100
AcDbText
  0
TEXT
  5
2A3
330
17
100
AcDbEntity
  8
0
 62
7
100
AcDbText
 10
403.0
 20
865.3874999999998
 30
0.0
 40
5.5
  1
FT-913201
100
AcDbText
  0
TEXT
  5
2A4
330
17
100
AcDbEntity
  8
0
 62
7
100
AcDbText
 10
583.0
 20
865.3874999999998
 30
0.0
 40
5.5
  1
Flow Transmitter
100
AcDbText
  0
TEXT
  5
2A5
330
17
100
AcDbEntity
  8
0
 62
7
100
AcDbText
 10
1213.0
 20
865.3874999999998
 30
0.0
 40
5.5
  1
RIO-200
100
AcDbText
  0
LINE
  5
2A6
330
17
100
AcDbEntity
  8
0
 62
8
100
AcDbLine
 10
65.70000000000073
 20
843.5093749999987
 30
0.0
 11
1411.5
 21
843.5093749999987
 31
0.0
  0
TEXT
  5
2A7
330
17
100
AcDbEntity
  8
0
 62
7
100
AcDbText
 10
68.70000000000073
 20
846.5093749999987
 30
0.0
 40
5.5
  1
6
100
AcDbText
  0
TEXT
  5
2A8
330
17
100
AcDbEntity
  8
0
 62
7
100
AcDbText
 10
128.0
 20
846.5093749999987
 30
0.0
 40
5.5
  1
IN-2
100
AcDbText
  0
TEXT
  5
2A9
330
17
100
AcDbEntity
  8
0
 62
7
100
AcDbText
 10
203.0
 20
846.5093749999987
 30
0.0
 40
5.5
  1
AI_C5S4_02_FT-913201
100
AcDbText
  0
TEXT
  5
2AA
330
17
100
AcDbEntity
  8
0
 62
7
100
AcDbText
 10
403.0
 20
846.5093749999987
 30
0.0
 40
5.5
  1
FT-913201
100
AcDbText
  0
TEXT
  5
2AB
330
17
100
AcDbEntity
  8
0
 62
7
100
AcDbText
 10
583.0
 20
846.5093749999987
 30
0.0
 40
5.5
  1
Flow Transmitter
100
AcDbText
  0
TEXT
  5
2AC
330
17
100
AcDbEntity
  8
0
 62
7
100
AcDbText
 10
1213.0
 20
846.5093749999987
 30
0.0
 40
5.5
  1
RIO-200
100
AcDbText
  0
LINE
  5
2AD
330
17
100
AcDbEntity
  8
0
 62
8
100
AcDbLine
 10
65.70000000000073
 20
824.6312499999995
 30
0.0
 11
1411.5
 21
824.6312499999995
 31
0.0
  0
TEXT
  5
2AE
330
17
100
AcDbEntity
  8
0
 62
7
100
AcDbText
 10
68.70000000000073
 20
827.6312499999995
 30
0.0
 40
5.5
  1
5
100
AcDbText
  0
TEXT
  5
2AF
330
17
100
AcDbEntity
  8
0
 62
7
100
AcDbText
 10
128.0
 20
827.6312499999995
 30
0.0
 40
5.5
  1
i RTN-2
100
AcDbText
  0
TEXT
  5
2B0
330
17
100
AcDbEntity
  8
0
 62
7
100
AcDbText
 10
203.0
 20
827.6312499999995
 30
0.0
 40
5.5
  1
AI_C5S4_02_FT-913201
100
AcDbText
  0
TEXT
  5
2B1
330
17
100
AcDbEntity
  8
0
 62
7
100
AcDbText
 10
403.0
 20
827.6312499999995
 30
0.0
 40
5.5
  1
FT-913201
100
AcDbText
  0
TEXT
  5
2B2
330
17
100
AcDbEntity
  8
0
 62
7
100
AcDbText
 10
583.0
 20
827.6312499999995
 30
0.0
 40
5.5
  1
Flow Transmitter
100
AcDbText
  0
TEXT
  5
2B3
330
17
100
AcDbEntity
  8
0
 62
7
100
AcDbText
 10
1213.0
 20
827.6312499999995
 30
0.0
 40
5.5
  1
RIO-200
100
AcDbText
  0
LINE
  5
2B4
330
17
100
AcDbEntity
  8
0
 62
8
100
AcDbLine
 10
65.70000000000073
 20
805.7531249999984
 30
0.0
 11
1411.5
 21
805.7531249999984
 31
0.0
  0
TEXT
  5
2B5
330
17
100
AcDbEntity
  8
0
 62
7
100
AcDbText
 10
68.70000000000073
 20
808.7531249999984
 30
0.0
 40
5.5
  1
8
100
AcDbText
  0
TEXT
  5
2B6
330
17
100
AcDbEntity
  8
0
 62
7
100
AcDbText
 10
128.0
 20
808.7531249999984
 30
0.0
 40
5.5
  1
IN-3
100
AcDbText
  0
TEXT
  5
2B7
330
17
100
AcDbEntity
  8
0
 62
7
100
AcDbText
 10
203.0
 20
808.7531249999984
 30
0.0
 40
5.5
  1
AI_C5S4_03_FT-936201
100
AcDbText
  0
TEXT
  5
2B8
330
17
100
AcDbEntity
  8
0
 62
7
100
AcDbText
 10
403.0
 20
808.7531249999984
 30
0.0
 40
5.5
  1
FT-936201
100
AcDbText
  0
TEXT
  5
2B9
330
17
100
AcDbEntity
  8
0
 62
7
100
AcDbText
 10
583.0
 20
808.7531249999984
 30
0.0
 40
5.5
  1
Flow Transmitter
100
AcDbText
  0
TEXT
  5
2BA
330
17
100
AcDbEntity
  8
0
 62
7
100
AcDbText
 10
1213.0
 20
808.7531249999984
 30
0.0
 40
5.5
  1
RIO-200
100
AcDbText
  0
LINE
  5
2BB
330
17
100
AcDbEntity
  8
0
 62
8
100
AcDbLine
 10
65.70000000000073
 20
786.8749999999991
 30
0.0
 11
1411.5
 21
786.8749999999991
 31
0.0
  0
TEXT
  5
2BC
330
17
100
AcDbEntity
  8
0
 62
7
100
AcDbText
 10
68.70000000000073
 20
789.8749999999991
 30
0.0
 40
5.5
  1
7
100
AcDbText
  0
TEXT
  5
2BD
330
17
100
AcDbEntity
  8
0
 62
7
100
AcDbText
 10
128.0
 20
789.8749999999991
 30
0.0
 40
5.5
  1
i RTN-3
100
AcDbText
  0
TEXT
  5
2BE
330
17
100
AcDbEntity
  8
0
 62
7
100
AcDbText
 10
203.0
 20
789.8749999999991
 30
0.0
 40
5.5
  1
AI_C5S4_03_FT-936201
100
AcDbText
  0
TEXT
  5
2BF
330
17
100
AcDbEntity
  8
0
 62
7
100
AcDbText
 10
403.0
 20
789.8749999999991
 30
0.0
 40
5.5
  1
FT-936201
100
AcDbText
  0
TEXT
  5
2C0
330
17
100
AcDbEntity
  8
0
 62
7
100
AcDbText
 10
583.0
 20
789.8749999999991
 30
0.0
 40
5.5
  1
Flow Transmitter
100
AcDbText
  0
TEXT
  5
2C1
330
17
100
AcDbEntity
  8
0
 62
7
100
AcDbText
 10
1213.0
 20
789.8749999999991
 30
0.0
 40
5.5
  1
RIO-200
100
AcDbText
  0
LINE
  5
2C2
330
17
100
AcDbEntity
  8
0
 62
8
100
AcDbLine
 10
65.70000000000073
 20
767.9968749999998
 30
0.0
 11
1411.5
 21
767.9968749999998
 31
0.0
  0
TEXT
  5
2C3
330
17
100
AcDbEntity
  8
0
 62
7
100
AcDbText
 10
68.70000000000073
 20
770.9968749999998
 30
0.0
 40
5.5
  1
12
100
AcDbText
  0
TEXT
  5
2C4
330
17
100
AcDbEntity
  8
0
 62
7
100
AcDbText
 10
128.0
 20
770.9968749999998
 30
0.0
 40
5.5
  1
IN-4
100
AcDbText
  0
TEXT
  5
2C5
330
17
100
AcDbEntity
  8
0
 62
7
100
AcDbText
 10
203.0
 20
770.9968749999998
 30
0.0
 40
5.5
  1
AI_C5S4_04_FT-936202
100
AcDbText
  0
TEXT
  5
2C6
330
17
100
AcDbEntity
  8
0
 62
7
100
AcDbText
 10
403.0
 20
770.9968749999998
 30
0.0
 40
5.5
  1
FT-936202
100
AcDbText
  0
TEXT
  5
2C7
330
17
100
AcDbEntity
  8
0
 62
7
100
AcDbText
 10
583.0
 20
770.9968749999998
 30
0.0
 40
5.5
  1
Flow Transmitter
100
AcDbText
  0
TEXT
  5
2C8
330
17
100
AcDbEntity
  8
0
 62
7
100
AcDbText
 10
1213.0
 20
770.9968749999998
 30
0.0
 40
5.5
  1
RIO-200
100
AcDbText
  0
LINE
  5
2C9
330
17
100
AcDbEntity
  8
0
 62
8
100
AcDbLine
 10
65.70000000000073
 20
749.1187499999987
 30
0.0
 11
1411.5
 21
749.1187499999987
 31
0.0
  0
TEXT
  5
2CA
330
17
100
AcDbEntity
  8
0
 62
7
100
AcDbText
 10
68.70000000000073
 20
752.1187499999987
 30
0.0
 40
5.5
  1
11
100
AcDbText
  0
TEXT
  5
2CB
330
17
100
AcDbEntity
  8
0
 62
7
100
AcDbText
 10
128.0
 20
752.1187499999987
 30
0.0
 40
5.5
  1
i RTN-4
100
AcDbText
  0
TEXT
  5
2CC
330
17
100
AcDbEntity
  8
0
 62
7
100
AcDbText
 10
203.0
 20
752.1187499999987
 30
0.0
 40
5.5
  1
AI_C5S4_04_FT-936202
100
AcDbText
  0
TEXT
  5
2CD
330
17
100
AcDbEntity
  8
0
 62
7
100
AcDbText
 10
403.0
 20
752.1187499999987
 30
0.0
 40
5.5
  1
FT-936202
100
AcDbText
  0
TEXT
  5
2CE
330
17
100
AcDbEntity
  8
0
 62
7
100
AcDbText
 10
583.0
 20
752.1187499999987
 30
0.0
 40
5.5
  1
Flow Transmitter
100
AcDbText
  0
TEXT
  5
2CF
330
17
100
AcDbEntity
  8
0
 62
7
100
AcDbText
 10
1213.0
 20
752.1187499999987
 30
0.0
 40
5.5
  1
RIO-200
100
AcDbText
  0
LINE
  5
2D0
330
17
100
AcDbEntity
  8
0
 62
8
100
AcDbLine
 10
65.70000000000073
 20
730.2406249999995
 30
0.0
 11
1411.5
 21
730.2406249999995
 31
0.0
  0
TEXT
  5
2D1
330
17
100
AcDbEntity
  8
0
 62
7
100
AcDbText
 10
68.70000000000073
 20
733.2406249999995
 30
0.0
 40
5.5
  1
14
100
AcDbText
  0
TEXT
  5
2D2
330
17
100
AcDbEntity
  8
0
 62
7
100
AcDbText
 10
128.0
 20
733.2406249999995
 30
0.0
 40
5.5
  1
IN-5
100
AcDbText
  0
TEXT
  5
2D3
330
17
100
AcDbEntity
  8
0
 62
7
100
AcDbText
 10
203.0
 20
733.2406249999995
 30
0.0
 40
5.5
  1
AI_C5S4_05_LT-913201
100
AcDbText
  0
TEXT
  5
2D4
330
17
100
AcDbEntity
  8
0
 62
7
100
AcDbText
 10
403.0
 20
733.2406249999995
 30
0.0
 40
5.5
  1
LT-913201
100
AcDbText
  0
TEXT
  5
2D5
330
17
100
AcDbEntity
  8
0
 62
7
100
AcDbText
 10
583.0
 20
733.2406249999995
 30
0.0
 40
5.5
  1
Level Transmitter
100
AcDbText
  0
TEXT
  5
2D6
330
17
100
AcDbEntity
  8
0
 62
7
100
AcDbText
 10
1213.0
 20
733.2406249999995
 30
0.0
 40
5.5
  1
RIO-200
100
AcDbText
  0
LINE
  5
2D7
330
17
100
AcDbEntity
  8
0
 62
8
100
AcDbLine
 10
65.70000000000073
 20
711.3624999999984
 30
0.0
 11
1411.5
 21
711.3624999999984
 31
0.0
  0
TEXT
  5
2D8
330
17
100
AcDbEntity
  8
0
 62
7
100
AcDbText
 10
68.70000000000073
 20
714.3624999999984
 30
0.0
 40
5.5
  1
13
100
AcDbText
  0
TEXT
  5
2D9
330
17
100
AcDbEntity
  8
0
 62
7
100
AcDbText
 10
128.0
 20
714.3624999999984
 30
0.0
 40
5.5
  1
i RTN-5
100
AcDbText
  0
TEXT
  5
2DA
330
17
100
AcDbEntity
  8
0
 62
7
100
AcDbText
 10
203.0
 20
714.3624999999984
 30
0.0
 40
5.5
  1
AI_C5S4_05_LT-913201
100
AcDbText
  0
TEXT
  5
2DB
330
17
100
AcDbEntity
  8
0
 62
7
100
AcDbText
 10
403.0
 20
714.3624999999984
 30
0.0
 40
5.5
  1
LT-913201
100
AcDbText
  0
TEXT
  5
2DC
330
17
100
AcDbEntity
  8
0
 62
7
100
AcDbText
 10
583.0
 20
714.3624999999984
 30
0.0
 40
5.5
  1
Level Transmitter
100
AcDbText
  0
TEXT
  5
2DD
330
17
100
AcDbEntity
  8
0
 62
7
100
AcDbText
 10
1213.0
 20
714.3624999999984
 30
0.0
 40
5.5
  1
RIO-200
100
AcDbText
  0
LINE
  5
2DE
330
17
100
AcDbEntity
  8
0
 62
8
100
AcDbLine
 10
65.70000000000073
 20
692.4843749999991
 30
0.0
 11
1411.5
 21
692.4843749999991
 31
0.0
  0
TEXT
  5
2DF
330
17
100
AcDbEntity
  8
0
 62
7
100
AcDbText
 10
68.70000000000073
 20
695.4843749999991
 30
0.0
 40
5.5
  1
16
100
AcDbText
  0
TEXT
  5
2E0
330
17
100
AcDbEntity
  8
0
 62
7
100
AcDbText
 10
128.0
 20
695.4843749999991
 30
0.0
 40
5.5
  1
IN-6
100
AcDbText
  0
TEXT
  5
2E1
330
17
100
AcDbEntity
  8
0
 62
7
100
AcDbText
 10
203.0
 20
695.4843749999991
 30
0.0
 40
5.5
  1
AI_C5S4_06_PT-913201
100
AcDbText
  0
TEXT
  5
2E2
330
17
100
AcDbEntity
  8
0
 62
7
100
AcDbText
 10
403.0
 20
695.4843749999991
 30
0.0
 40
5.5
  1
PT-913201
100
AcDbText
  0
TEXT
  5
2E3
330
17
100
AcDbEntity
  8
0
 62
7
100
AcDbText
 10
583.0
 20
695.4843749999991
 30
0.0
 40
5.5
  1
Pressure Transmitter
100
AcDbText
  0
TEXT
  5
2E4
330
17
100
AcDbEntity
  8
0
 62
7
100
AcDbText
 10
1213.0
 20
695.4843749999991
 30
0.0
 40
5.5
  1
RIO-200
100
AcDbText
  0
LINE
  5
2E5
330
17
100
AcDbEntity
  8
0
 62
8
100
AcDbLine
 10
65.70000000000073
 20
673.6062499999998
 30
0.0
 11
1411.5
 21
673.6062499999998
 31
0.0
  0
TEXT
  5
2E6
330
17
100
AcDbEntity
  8
0
 62
7
100
AcDbText
 10
68.70000000000073
 20
676.6062499999998
 30
0.0
 40
5.5
  1
15
100
AcDbText
  0
TEXT
  5
2E7
330
17
100
AcDbEntity
  8
0
 62
7
100
AcDbText
 10
128.0
 20
676.6062499999998
 30
0.0
 40
5.5
  1
i RTN-6
100
AcDbText
  0
TEXT
  5
2E8
330
17
100
AcDbEntity
  8
0
 62
7
100
AcDbText
 10
203.0
 20
676.6062499999998
 30
0.0
 40
5.5
  1
AI_C5S4_06_PT-913201
100
AcDbText
  0
TEXT
  5
2E9
330
17
100
AcDbEntity
  8
0
 62
7
100
AcDbText
 10
403.0
 20
676.6062499999998
 30
0.0
 40
5.5
  1
PT-913201
100
AcDbText
  0
TEXT
  5
2EA
330
17
100
AcDbEntity
  8
0
 62
7
100
AcDbText
 10
583.0
 20
676.6062499999998
 30
0.0
 40
5.5
  1
Pressure Transmitter
100
AcDbText
  0
TEXT
  5
2EB
330
17
100
AcDbEntity
  8
0
 62
7
100
AcDbText
 10
1213.0
 20
676.6062499999998
 30
0.0
 40
5.5
  1
RIO-200
100
AcDbText
  0
LINE
  5
2EC
330
17
100
AcDbEntity
  8
0
 62
8
100
AcDbLine
 10
65.70000000000073
 20
654.7281249999987
 30
0.0
 11
1411.5
 21
654.7281249999987
 31
0.0
  0
TEXT
  5
2ED
330
17
100
AcDbEntity
  8
0
 62
7
100
AcDbText
 10
68.70000000000073
 20
657.7281249999987
 30
0.0
 40
5.5
  1
18
100
AcDbText
  0
TEXT
  5
2EE
330
17
100
AcDbEntity
  8
0
 62
7
100
AcDbText
 10
128.0
 20
657.7281249999987
 30
0.0
 40
5.5
  1
IN-7
100
AcDbText
  0
TEXT
  5
2EF
330
17
100
AcDbEntity
  8
0
 62
7
100
AcDbText
 10
203.0
 20
657.7281249999987
 30
0.0
 40
5.5
  1
AI_C5S4_07_XT-92201
100
AcDbText
  0
TEXT
  5
2F0
330
17
100
AcDbEntity
  8
0
 62
7
100
AcDbText
 10
403.0
 20
657.7281249999987
 30
0.0
 40
5.5
  1
XT-92201
100
AcDbText
  0
TEXT
  5
2F1
330
17
100
AcDbEntity
  8
0
 62
7
100
AcDbText
 10
583.0
 20
657.7281249999987
 30
0.0
 40
5.5
  1
Speed / Position Transmitter
100
AcDbText
  0
TEXT
  5
2F2
330
17
100
AcDbEntity
  8
0
 62
7
100
AcDbText
 10
1213.0
 20
657.7281249999987
 30
0.0
 40
5.5
  1
RIO-200
100
AcDbText
  0
LINE
  5
2F3
330
17
100
AcDbEntity
  8
0
 62
8
100
AcDbLine
 10
65.70000000000073
 20
635.8499999999995
 30
0.0
 11
1411.5
 21
635.8499999999995
 31
0.0
  0
TEXT
  5
2F4
330
17
100
AcDbEntity
  8
0
 62
7
100
AcDbText
 10
68.70000000000073
 20
638.8499999999995
 30
0.0
 40
5.5
  1
17
100
AcDbText
  0
TEXT
  5
2F5
330
17
100
AcDbEntity
  8
0
 62
7
100
AcDbText
 10
128.0
 20
638.8499999999995
 30
0.0
 40
5.5
  1
i RTN-7
100
AcDbText
  0
TEXT
  5
2F6
330
17
100
AcDbEntity
  8
0
 62
7
100
AcDbText
 10
203.0
 20
638.8499999999995
 30
0.0
 40
5.5
  1
AI_C5S4_07_XT-92201
100
AcDbText
  0
TEXT
  5
2F7
330
17
100
AcDbEntity
  8
0
 62
7
100
AcDbText
 10
403.0
 20
638.8499999999995
 30
0.0
 40
5.5
  1
XT-92201
100
AcDbText
  0
TEXT
  5
2F8
330
17
100
AcDbEntity
  8
0
 62
7
100
AcDbText
 10
583.0
 20
638.8499999999995
 30
0.0
 40
5.5
  1
Speed / Position Transmitter
100
AcDbText
  0
TEXT
  5
2F9
330
17
100
AcDbEntity
  8
0
 62
7
100
AcDbText
 10
1213.0
 20
638.8499999999995
 30
0.0
 40
5.5
  1
RIO-200
100
AcDbText
  0
LINE
  5
2FA
330
17
100
AcDbEntity
  8
0
 62
8
100
AcDbLine
 10
65.70000000000073
 20
616.9718749999984
 30
0.0
 11
1411.5
 21
616.9718749999984
 31
0.0
  0
TEXT
  5
2FB
330
17
100
AcDbEntity
  8
0
 62
7
100
AcDbText
 10
68.70000000000073
 20
619.9718749999984
 30
0.0
 40
5.5
  1
20
100
AcDbText
  0
TEXT
  5
2FC
330
17
100
AcDbEntity
  8
0
 62
7
100
AcDbText
 10
128.0
 20
619.9718749999984
 30
0.0
 40
5.5
  1
IN-8
100
AcDbText
  0
TEXT
  5
2FD
330
17
100
AcDbEntity
  8
0
 62
7
100
AcDbText
 10
203.0
 20
619.9718749999984
 30
0.0
 40
5.5
  1
AI_C5S4_08_XV-913201
100
AcDbText
  0
TEXT
  5
2FE
330
17
100
AcDbEntity
  8
0
 62
7
100
AcDbText
 10
403.0
 20
619.9718749999984
 30
0.0
 40
5.5
  1
XV-913201
100
AcDbText
  0
TEXT
  5
2FF
330
17
100
AcDbEntity
  8
0
 62
7
100
AcDbText
 10
583.0
 20
619.9718749999984
 30
0.0
 40
5.5
  1
Control Valve Position Feedback
100
AcDbText
  0
TEXT
  5
300
330
17
100
AcDbEntity
  8
0
 62
7
100
AcDbText
 10
1213.0
 20
619.9718749999984
 30
0.0
 40
5.5
  1
RIO-200
100
AcDbText
  0
LINE
  5
301
330
17
100
AcDbEntity
  8
0
 62
8
100
AcDbLine
 10
65.70000000000073
 20
598.0937499999991
 30
0.0
 11
1411.5
 21
598.0937499999991
 31
0.0
  0
TEXT
  5
302
330
17
100
AcDbEntity
  8
0
 62
7
100
AcDbText
 10
68.70000000000073
 20
601.0937499999991
 30
0.0
 40
5.5
  1
19
100
AcDbText
  0
TEXT
  5
303
330
17
100
AcDbEntity
  8
0
 62
7
100
AcDbText
 10
128.0
 20
601.0937499999991
 30
0.0
 40
5.5
  1
i RTN-8
100
AcDbText
  0
TEXT
  5
304
330
17
100
AcDbEntity
  8
0
 62
7
100
AcDbText
 10
203.0
 20
601.0937499999991
 30
0.0
 40
5.5
  1
AI_C5S4_08_XV-913201
100
AcDbText
  0
TEXT
  5
305
330
17
100
AcDbEntity
  8
0
 62
7
100
AcDbText
 10
403.0
 20
601.0937499999991
 30
0.0
 40
5.5
  1
XV-913201
100
AcDbText
  0
TEXT
  5
306
330
17
100
AcDbEntity
  8
0
 62
7
100
AcDbText
 10
583.0
 20
601.0937499999991
 30
0.0
 40
5.5
  1
Control Valve Position Feedback
100
AcDbText
  0
TEXT
  5
307
330
17
100
AcDbEntity
  8
0
 62
7
100
AcDbText
 10
1213.0
 20
601.0937499999991
 30
0.0
 40
5.5
  1
RIO-200
100
AcDbText
  0
LINE
  5
308
330
17
100
AcDbEntity
  8
0
 62
8
100
AcDbLine
 10
65.70000000000073
 20
579.2156249999998
 30
0.0
 11
1411.5
 21
579.2156249999998
 31
0.0
  0
TEXT
  5
309
330
17
100
AcDbEntity
  8
0
 62
7
100
AcDbText
 10
68.70000000000073
 20
582.2156249999998
 30
0.0
 40
5.5
  1
22
100
AcDbText
  0
TEXT
  5
30A
330
17
100
AcDbEntity
  8
0
 62
7
100
AcDbText
 10
128.0
 20
582.2156249999998
 30
0.0
 40
5.5
  1
IN-9
100
AcDbText
  0
TEXT
  5
30B
330
17
100
AcDbEntity
  8
0
 62
7
100
AcDbText
 10
203.0
 20
582.2156249999998
 30
0.0
 40
5.5
  1
AI_C5S4_09_Spare
100
AcDbText
  0
TEXT
  5
30C
330
17
100
AcDbEntity
  8
0
 62
7
100
AcDbText
 10
583.0
 20
582.2156249999998
 30
0.0
 40
5.5
  1
Spare Reserve Channel
100
AcDbText
  0
TEXT
  5
30D
330
17
100
AcDbEntity
  8
0
 62
7
100
AcDbText
 10
1213.0
 20
582.2156249999998
 30
0.0
 40
5.5
  1
RIO-200
100
AcDbText
  0
LINE
  5
30E
330
17
100
AcDbEntity
  8
0
 62
8
100
AcDbLine
 10
65.70000000000073
 20
560.3374999999987
 30
0.0
 11
1411.5
 21
560.3374999999987
 31
0.0
  0
TEXT
  5
30F
330
17
100
AcDbEntity
  8
0
 62
7
100
AcDbText
 10
68.70000000000073
 20
563.3374999999987
 30
0.0
 40
5.5
  1
21
100
AcDbText
  0
TEXT
  5
310
330
17
100
AcDbEntity
  8
0
 62
7
100
AcDbText
 10
128.0
 20
563.3374999999987
 30
0.0
 40
5.5
  1
i RTN-9
100
AcDbText
  0
TEXT
  5
311
330
17
100
AcDbEntity
  8
0
 62
7
100
AcDbText
 10
203.0
 20
563.3374999999987
 30
0.0
 40
5.5
  1
AI_C5S4_09_Spare
100
AcDbText
  0
TEXT
  5
312
330
17
100
AcDbEntity
  8
0
 62
7
100
AcDbText
 10
583.0
 20
563.3374999999987
 30
0.0
 40
5.5
  1
Spare Reserve Channel
100
AcDbText
  0
TEXT
  5
313
330
17
100
AcDbEntity
  8
0
 62
7
100
AcDbText
 10
1213.0
 20
563.3374999999987
 30
0.0
 40
5.5
  1
RIO-200
100
AcDbText
  0
LINE
  5
314
330
17
100
AcDbEntity
  8
0
 62
8
100
AcDbLine
 10
65.70000000000073
 20
541.4593749999995
 30
0.0
 11
1411.5
 21
541.4593749999995
 31
0.0
  0
TEXT
  5
315
330
17
100
AcDbEntity
  8
0
 62
7
100
AcDbText
 10
68.70000000000073
 20
544.4593749999995
 30
0.0
 40
5.5
  1
24
100
AcDbText
  0
TEXT
  5
316
330
17
100
AcDbEntity
  8
0
 62
7
100
AcDbText
 10
128.0
 20
544.4593749999995
 30
0.0
 40
5.5
  1
IN-10
100
AcDbText
  0
TEXT
  5
317
330
17
100
AcDbEntity
  8
0
 62
7
100
AcDbText
 10
203.0
 20
544.4593749999995
 30
0.0
 40
5.5
  1
AI_C5S4_10_Spare
100
AcDbText
  0
TEXT
  5
318
330
17
100
AcDbEntity
  8
0
 62
7
100
AcDbText
 10
583.0
 20
544.4593749999995
 30
0.0
 40
5.5
  1
Spare Reserve Channel
100
AcDbText
  0
TEXT
  5
319
330
17
100
AcDbEntity
  8
0
 62
7
100
AcDbText
 10
1213.0
 20
544.4593749999995
 30
0.0
 40
5.5
  1
RIO-200
100
AcDbText
  0
LINE
  5
31A
330
17
100
AcDbEntity
  8
0
 62
8
100
AcDbLine
 10
65.70000000000073
 20
522.5812499999984
 30
0.0
 11
1411.5
 21
522.5812499999984
 31
0.0
  0
TEXT
  5
31B
330
17
100
AcDbEntity
  8
0
 62
7
100
AcDbText
 10
68.70000000000073
 20
525.5812499999984
 30
0.0
 40
5.5
  1
23
100
AcDbText
  0
TEXT
  5
31C
330
17
100
AcDbEntity
  8
0
 62
7
100
AcDbText
 10
128.0
 20
525.5812499999984
 30
0.0
 40
5.5
  1
i RTN-10
100
AcDbText
  0
TEXT
  5
31D
330
17
100
AcDbEntity
  8
0
 62
7
100
AcDbText
 10
203.0
 20
525.5812499999984
 30
0.0
 40
5.5
  1
AI_C5S4_10_Spare
100
AcDbText
  0
TEXT
  5
31E
330
17
100
AcDbEntity
  8
0
 62
7
100
AcDbText
 10
583.0
 20
525.5812499999984
 30
0.0
 40
5.5
  1
Spare Reserve Channel
100
AcDbText
  0
TEXT
  5
31F
330
17
100
AcDbEntity
  8
0
 62
7
100
AcDbText
 10
1213.0
 20
525.5812499999984
 30
0.0
 40
5.5
  1
RIO-200
100
AcDbText
  0
LINE
  5
320
330
17
100
AcDbEntity
  8
0
 62
8
100
AcDbLine
 10
65.70000000000073
 20
503.7031249999991
 30
0.0
 11
1411.5
 21
503.7031249999991
 31
0.0
  0
TEXT
  5
321
330
17
100
AcDbEntity
  8
0
 62
7
100
AcDbText
 10
68.70000000000073
 20
506.7031249999991
 30
0.0
 40
5.5
  1
26
100
AcDbText
  0
TEXT
  5
322
330
17
100
AcDbEntity
  8
0
 62
7
100
AcDbText
 10
128.0
 20
506.7031249999991
 30
0.0
 40
5.5
  1
IN-11
100
AcDbText
  0
TEXT
  5
323
330
17
100
AcDbEntity
  8
0
 62
7
100
AcDbText
 10
203.0
 20
506.7031249999991
 30
0.0
 40
5.5
  1
AI_C5S4_11_Spare
100
AcDbText
  0
TEXT
  5
324
330
17
100
AcDbEntity
  8
0
 62
7
100
AcDbText
 10
583.0
 20
506.7031249999991
 30
0.0
 40
5.5
  1
Spare Reserve Channel
100
AcDbText
  0
TEXT
  5
325
330
17
100
AcDbEntity
  8
0
 62
7
100
AcDbText
 10
1213.0
 20
506.7031249999991
 30
0.0
 40
5.5
  1
RIO-200
100
AcDbText
  0
LINE
  5
326
330
17
100
AcDbEntity
  8
0
 62
8
100
AcDbLine
 10
65.70000000000073
 20
484.8249999999998
 30
0.0
 11
1411.5
 21
484.8249999999998
 31
0.0
  0
TEXT
  5
327
330
17
100
AcDbEntity
  8
0
 62
7
100
AcDbText
 10
68.70000000000073
 20
487.8249999999998
 30
0.0
 40
5.5
  1
25
100
AcDbText
  0
TEXT
  5
328
330
17
100
AcDbEntity
  8
0
 62
7
100
AcDbText
 10
128.0
 20
487.8249999999998
 30
0.0
 40
5.5
  1
i RTN-11
100
AcDbText
  0
TEXT
  5
329
330
17
100
AcDbEntity
  8
0
 62
7
100
AcDbText
 10
203.0
 20
487.8249999999998
 30
0.0
 40
5.5
  1
AI_C5S4_11_Spare
100
AcDbText
  0
TEXT
  5
32A
330
17
100
AcDbEntity
  8
0
 62
7
100
AcDbText
 10
583.0
 20
487.8249999999998
 30
0.0
 40
5.5
  1
Spare Reserve Channel
100
AcDbText
  0
TEXT
  5
32B
330
17
100
AcDbEntity
  8
0
 62
7
100
AcDbText
 10
1213.0
 20
487.8249999999998
 30
0.0
 40
5.5
  1
RIO-200
100
AcDbText
  0
LINE
  5
32C
330
17
100
AcDbEntity
  8
0
 62
8
100
AcDbLine
 10
65.70000000000073
 20
465.94687499999867
 30
0.0
 11
1411.5
 21
465.94687499999867
 31
0.0
  0
TEXT
  5
32D
330
17
100
AcDbEntity
  8
0
 62
7
100
AcDbText
 10
68.70000000000073
 20
468.94687499999867
 30
0.0
 40
5.5
  1
30
100
AcDbText
  0
TEXT
  5
32E
330
17
100
AcDbEntity
  8
0
 62
7
100
AcDbText
 10
128.0
 20
468.94687499999867
 30
0.0
 40
5.5
  1
IN-12
100
AcDbText
  0
TEXT
  5
32F
330
17
100
AcDbEntity
  8
0
 62
7
100
AcDbText
 10
203.0
 20
468.94687499999867
 30
0.0
 40
5.5
  1
AI_C5S4_12_Spare
100
AcDbText
  0
TEXT
  5
330
330
17
100
AcDbEntity
  8
0
 62
7
100
AcDbText
 10
583.0
 20
468.94687499999867
 30
0.0
 40
5.5
  1
Spare Reserve Channel
100
AcDbText
  0
TEXT
  5
331
330
17
100
AcDbEntity
  8
0
 62
7
100
AcDbText
 10
1213.0
 20
468.94687499999867
 30
0.0
 40
5.5
  1
RIO-200
100
AcDbText
  0
LINE
  5
332
330
17
100
AcDbEntity
  8
0
 62
8
100
AcDbLine
 10
65.70000000000073
 20
447.0687499999995
 30
0.0
 11
1411.5
 21
447.0687499999995
 31
0.0
  0
TEXT
  5
333
330
17
100
AcDbEntity
  8
0
 62
7
100
AcDbText
 10
68.70000000000073
 20
450.0687499999995
 30
0.0
 40
5.5
  1
29
100
AcDbText
  0
TEXT
  5
334
330
17
100
AcDbEntity
  8
0
 62
7
100
AcDbText
 10
128.0
 20
450.0687499999995
 30
0.0
 40
5.5
  1
i RTN-12
100
AcDbText
  0
TEXT
  5
335
330
17
100
AcDbEntity
  8
0
 62
7
100
AcDbText
 10
203.0
 20
450.0687499999995
 30
0.0
 40
5.5
  1
AI_C5S4_12_Spare
100
AcDbText
  0
TEXT
  5
336
330
17
100
AcDbEntity
  8
0
 62
7
100
AcDbText
 10
583.0
 20
450.0687499999995
 30
0.0
 40
5.5
  1
Spare Reserve Channel
100
AcDbText
  0
TEXT
  5
337
330
17
100
AcDbEntity
  8
0
 62
7
100
AcDbText
 10
1213.0
 20
450.0687499999995
 30
0.0
 40
5.5
  1
RIO-200
100
AcDbText
  0
LINE
  5
338
330
17
100
AcDbEntity
  8
0
 62
8
100
AcDbLine
 10
65.70000000000073
 20
428.19062499999836
 30
0.0
 11
1411.5
 21
428.19062499999836
 31
0.0
  0
TEXT
  5
339
330
17
100
AcDbEntity
  8
0
 62
7
100
AcDbText
 10
68.70000000000073
 20
431.19062499999836
 30
0.0
 40
5.5
  1
32
100
AcDbText
  0
TEXT
  5
33A
330
17
100
AcDbEntity
  8
0
 62
7
100
AcDbText
 10
128.0
 20
431.19062499999836
 30
0.0
 40
5.5
  1
IN-13
100
AcDbText
  0
TEXT
  5
33B
330
17
100
AcDbEntity
  8
0
 62
7
100
AcDbText
 10
203.0
 20
431.19062499999836
 30
0.0
 40
5.5
  1
AI_C5S4_13_Spare
100
AcDbText
  0
TEXT
  5
33C
330
17
100
AcDbEntity
  8
0
 62
7
100
AcDbText
 10
583.0
 20
431.19062499999836
 30
0.0
 40
5.5
  1
Spare Reserve Channel
100
AcDbText
  0
TEXT
  5
33D
330
17
100
AcDbEntity
  8
0
 62
7
100
AcDbText
 10
1213.0
 20
431.19062499999836
 30
0.0
 40
5.5
  1
RIO-200
100
AcDbText
  0
LINE
  5
33E
330
17
100
AcDbEntity
  8
0
 62
8
100
AcDbLine
 10
65.70000000000073
 20
409.3124999999991
 30
0.0
 11
1411.5
 21
409.3124999999991
 31
0.0
  0
TEXT
  5
33F
330
17
100
AcDbEntity
  8
0
 62
7
100
AcDbText
 10
68.70000000000073
 20
412.3124999999991
 30
0.0
 40
5.5
  1
31
100
AcDbText
  0
TEXT
  5
340
330
17
100
AcDbEntity
  8
0
 62
7
100
AcDbText
 10
128.0
 20
412.3124999999991
 30
0.0
 40
5.5
  1
i RTN-13
100
AcDbText
  0
TEXT
  5
341
330
17
100
AcDbEntity
  8
0
 62
7
100
AcDbText
 10
203.0
 20
412.3124999999991
 30
0.0
 40
5.5
  1
AI_C5S4_13_Spare
100
AcDbText
  0
TEXT
  5
342
330
17
100
AcDbEntity
  8
0
 62
7
100
AcDbText
 10
583.0
 20
412.3124999999991
 30
0.0
 40
5.5
  1
Spare Reserve Channel
100
AcDbText
  0
TEXT
  5
343
330
17
100
AcDbEntity
  8
0
 62
7
100
AcDbText
 10
1213.0
 20
412.3124999999991
 30
0.0
 40
5.5
  1
RIO-200
100
AcDbText
  0
LINE
  5
344
330
17
100
AcDbEntity
  8
0
 62
8
100
AcDbLine
 10
65.70000000000073
 20
390.4343749999998
 30
0.0
 11
1411.5
 21
390.4343749999998
 31
0.0
  0
TEXT
  5
345
330
17
100
AcDbEntity
  8
0
 62
7
100
AcDbText
 10
68.70000000000073
 20
393.4343749999998
 30
0.0
 40
5.5
  1
34
100
AcDbText
  0
TEXT
  5
346
330
17
100
AcDbEntity
  8
0
 62
7
100
AcDbText
 10
128.0
 20
393.4343749999998
 30
0.0
 40
5.5
  1
IN-14
100
AcDbText
  0
TEXT
  5
347
330
17
100
AcDbEntity
  8
0
 62
7
100
AcDbText
 10
203.0
 20
393.4343749999998
 30
0.0
 40
5.5
  1
AI_C5S4_14_Spare
100
AcDbText
  0
TEXT
  5
348
330
17
100
AcDbEntity
  8
0
 62
7
100
AcDbText
 10
583.0
 20
393.4343749999998
 30
0.0
 40
5.5
  1
Spare Reserve Channel
100
AcDbText
  0
TEXT
  5
349
330
17
100
AcDbEntity
  8
0
 62
7
100
AcDbText
 10
1213.0
 20
393.4343749999998
 30
0.0
 40
5.5
  1
RIO-200
100
AcDbText
  0
LINE
  5
34A
330
17
100
AcDbEntity
  8
0
 62
8
100
AcDbLine
 10
65.70000000000073
 20
371.55624999999867
 30
0.0
 11
1411.5
 21
371.55624999999867
 31
0.0
  0
TEXT
  5
34B
330
17
100
AcDbEntity
  8
0
 62
7
100
AcDbText
 10
68.70000000000073
 20
374.55624999999867
 30
0.0
 40
5.5
  1
33
100
AcDbText
  0
TEXT
  5
34C
330
17
100
AcDbEntity
  8
0
 62
7
100
AcDbText
 10
128.0
 20
374.55624999999867
 30
0.0
 40
5.5
  1
i RTN-14
100
AcDbText
  0
TEXT
  5
34D
330
17
100
AcDbEntity
  8
0
 62
7
100
AcDbText
 10
203.0
 20
374.55624999999867
 30
0.0
 40
5.5
  1
AI_C5S4_14_Spare
100
AcDbText
  0
TEXT
  5
34E
330
17
100
AcDbEntity
  8
0
 62
7
100
AcDbText
 10
583.0
 20
374.55624999999867
 30
0.0
 40
5.5
  1
Spare Reserve Channel
100
AcDbText
  0
TEXT
  5
34F
330
17
100
AcDbEntity
  8
0
 62
7
100
AcDbText
 10
1213.0
 20
374.55624999999867
 30
0.0
 40
5.5
  1
RIO-200
100
AcDbText
  0
LINE
  5
350
330
17
100
AcDbEntity
  8
0
 62
8
100
AcDbLine
 10
65.70000000000073
 20
352.6781249999995
 30
0.0
 11
1411.5
 21
352.6781249999995
 31
0.0
  0
TEXT
  5
351
330
17
100
AcDbEntity
  8
0
 62
7
100
AcDbText
 10
68.70000000000073
 20
355.6781249999995
 30
0.0
 40
5.5
  1
36
100
AcDbText
  0
TEXT
  5
352
330
17
100
AcDbEntity
  8
0
 62
7
100
AcDbText
 10
128.0
 20
355.6781249999995
 30
0.0
 40
5.5
  1
IN-15
100
AcDbText
  0
TEXT
  5
353
330
17
100
AcDbEntity
  8
0
 62
7
100
AcDbText
 10
203.0
 20
355.6781249999995
 30
0.0
 40
5.5
  1
AI_C5S4_15_Spare
100
AcDbText
  0
TEXT
  5
354
330
17
100
AcDbEntity
  8
0
 62
7
100
AcDbText
 10
583.0
 20
355.6781249999995
 30
0.0
 40
5.5
  1
Spare Reserve Channel
100
AcDbText
  0
TEXT
  5
355
330
17
100
AcDbEntity
  8
0
 62
7
100
AcDbText
 10
1213.0
 20
355.6781249999995
 30
0.0
 40
5.5
  1
RIO-200
100
AcDbText
  0
TEXT
  5
356
330
17
100
AcDbEntity
  8
0
 62
7
100
AcDbText
 10
68.70000000000073
 20
336.79999999999836
 30
0.0
 40
5.5
  1
35
100
AcDbText
  0
TEXT
  5
357
330
17
100
AcDbEntity
  8
0
 62
7
100
AcDbText
 10
128.0
 20
336.79999999999836
 30
0.0
 40
5.5
  1
i RTN-15
100
AcDbText
  0
TEXT
  5
358
330
17
100
AcDbEntity
  8
0
 62
7
100
AcDbText
 10
203.0
 20
336.79999999999836
 30
0.0
 40
5.5
  1
AI_C5S4_15_Spare
100
AcDbText
  0
TEXT
  5
359
330
17
100
AcDbEntity
  8
0
 62
7
100
AcDbText
 10
583.0
 20
336.79999999999836
 30
0.0
 40
5.5
  1
Spare Reserve Channel
100
AcDbText
  0
TEXT
  5
35A
330
17
100
AcDbEntity
  8
0
 62
7
100
AcDbText
 10
1213.0
 20
336.79999999999836
 30
0.0
 40
5.5
  1
RIO-200
100
AcDbText
  0
ENDSEC
  0
SECTION
  2
OBJECTS
  0
DICTIONARY
  5
A
330
0
100
AcDbDictionary
280
0
281
1
  3
ACAD_COLOR
350
B
  3
ACAD_GROUP
350
C
  3
ACAD_LAYOUT
350
D
  3
ACAD_MATERIAL
350
E
  3
ACAD_MLEADERSTYLE
350
F
  3
ACAD_MLINESTYLE
350
10
  3
ACAD_PLOTSETTINGS
350
11
  3
ACAD_PLOTSTYLENAME
350
12
  3
ACAD_SCALELIST
350
14
  3
ACAD_TABLESTYLE
350
15
  3
ACAD_VISUALSTYLE
350
16
  3
EZDXF_META
350
2D
  0
DICTIONARY
  5
B
330
A
100
AcDbDictionary
280
0
281
1
  0
DICTIONARY
  5
C
330
A
100
AcDbDictionary
280
0
281
1
  0
DICTIONARY
  5
D
330
A
100
AcDbDictionary
280
0
281
1
  3
Model
350
1A
  3
Layout1
350
1E
  0
DICTIONARY
  5
E
330
A
100
AcDbDictionary
280
0
281
1
  3
ByBlock
350
1F
  3
ByLayer
350
20
  3
Global
350
21
  0
DICTIONARY
  5
F
330
A
100
AcDbDictionary
280
0
281
1
  3
Standard
350
2C
  0
DICTIONARY
  5
10
330
A
100
AcDbDictionary
280
0
281
1
  3
Standard
350
22
  0
DICTIONARY
  5
11
330
A
100
AcDbDictionary
280
0
281
1
  0
ACDBDICTIONARYWDFLT
  5
12
330
A
100
AcDbDictionary
280
0
281
1
  3
Normal
350
13
100
AcDbDictionaryWithDefault
340
13
  0
ACDBPLACEHOLDER
  5
13
330
12
  0
DICTIONARY
  5
14
330
A
100
AcDbDictionary
280
0
281
1
  0
DICTIONARY
  5
15
330
A
100
AcDbDictionary
280
0
281
1
  0
DICTIONARY
  5
16
330
A
100
AcDbDictionary
280
0
281
1
  3
2dWireframe
350
5A
  3
Basic
350
5B
  3
Brighten
350
5C
  3
ColorChange
350
5D
  3
Conceptual
350
5E
  3
Dim
350
5F
  3
EdgeColorOff
350
60
  3
Facepattern
350
61
  3
Flat
350
62
  3
FlatWithEdges
350
63
  3
Gouraud
350
64
  3
GouraudWithEdges
350
65
  3
Hidden
350
66
  3
JitterOff
350
67
  3
Linepattern
350
68
  3
Modeling
350
69
  3
OverhangOff
350
6A
  3
Realistic
350
6B
  3
Shaded
350
6C
  3
Shaded with edges
350
6D
  3
Shades of Gray
350
6E
  3
Sketchy
350
6F
  3
Thicken
350
70
  3
Wireframe
350
71
  3
X-Ray
350
72
  0
LAYOUT
  5
1A
330
D
100
AcDbPlotSettings
  1

  2
Adobe PDF
  4
A3
  6

 40
7.5
 41
20.0
 42
7.5
 43
20.0
 44
420.0
 45
297.0
 46
0.0
 47
0.0
 48
0.0
 49
0.0
140
0.0
141
0.0
142
1.0
143
1.0
 70
1024
 72
1
 73
0
 74
5
  7

 75
16
 76
0
 77
2
 78
300
147
1.0
148
0.0
149
0.0
100
AcDbLayout
  1
Model
 70
1
 71
0
 10
0.0
 20
0.0
 11
420.0
 21
297.0
 12
0.0
 22
0.0
 32
0.0
 14
1e+20
 24
1e+20
 34
1e+20
 15
-1e+20
 25
-1e+20
 35
-1e+20
146
0.0
 13
0.0
 23
0.0
 33
0.0
 16
1.0
 26
0.0
 36
0.0
 17
0.0
 27
1.0
 37
0.0
 76
1
330
17
  0
LAYOUT
  5
1E
330
D
100
AcDbPlotSettings
  1

  2
Adobe PDF
  4
A3
  6

 40
7.5
 41
20.0
 42
7.5
 43
20.0
 44
420.0
 45
297.0
 46
0.0
 47
0.0
 48
0.0
 49
0.0
140
0.0
141
0.0
142
1.0
143
1.0
 70
0
 72
1
 73
0
 74
5
  7

 75
16
 76
0
 77
2
 78
300
147
1.0
148
0.0
149
0.0
100
AcDbLayout
  1
Layout1
 70
1
 71
1
 10
0.0
 20
0.0
 11
420.0
 21
297.0
 12
0.0
 22
0.0
 32
0.0
 14
1e+20
 24
1e+20
 34
1e+20
 15
-1e+20
 25
-1e+20
 35
-1e+20
146
0.0
 13
0.0
 23
0.0
 33
0.0
 16
1.0
 26
0.0
 36
0.0
 17
0.0
 27
1.0
 37
0.0
 76
1
330
1B
  0
MATERIAL
  5
1F
102
{ACAD_REACTORS
330
E
102
}
330
E
100
AcDbMaterial
  1
ByBlock
  2

 70
0
 40
1.0
 71
1
 41
1.0
 91
-1023410177
 42
1.0
 72
1
  3

 73
1
 74
1
 75
1
 44
0.5
 73
0
 45
1.0
 46
1.0
 77
1
  4

 78
1
 79
1
170
1
 48
1.0
171
1
  6

172
1
173
1
174
1
140
1.0
141
1.0
175
1
  7

176
1
177
1
178
1
143
1.0
179
1
  8

270
1
271
1
272
1
145
1.0
146
1.0
273
1
  9

274
1
275
1
276
1
 42
1.0
 72
1
  3

 73
1
 74
1
 75
1
 94
63
  0
MATERIAL
  5
20
102
{ACAD_REACTORS
330
E
102
}
330
E
100
AcDbMaterial
  1
ByLayer
  2

 70
0
 40
1.0
 71
1
 41
1.0
 91
-1023410177
 42
1.0
 72
1
  3

 73
1
 74
1
 75
1
 44
0.5
 73
0
 45
1.0
 46
1.0
 77
1
  4

 78
1
 79
1
170
1
 48
1.0
171
1
  6

172
1
173
1
174
1
140
1.0
141
1.0
175
1
  7

176
1
177
1
178
1
143
1.0
179
1
  8

270
1
271
1
272
1
145
1.0
146
1.0
273
1
  9

274
1
275
1
276
1
 42
1.0
 72
1
  3

 73
1
 74
1
 75
1
 94
63
  0
MATERIAL
  5
21
102
{ACAD_REACTORS
330
E
102
}
330
E
100
AcDbMaterial
  1
Global
  2

 70
0
 40
1.0
 71
1
 41
1.0
 91
-1023410177
 42
1.0
 72
1
  3

 73
1
 74
1
 75
1
 44
0.5
 73
0
 45
1.0
 46
1.0
 77
1
  4

 78
1
 79
1
170
1
 48
1.0
171
1
  6

172
1
173
1
174
1
140
1.0
141
1.0
175
1
  7

176
1
177
1
178
1
143
1.0
179
1
  8

270
1
271
1
272
1
145
1.0
146
1.0
273
1
  9

274
1
275
1
276
1
 42
1.0
 72
1
  3

 73
1
 74
1
 75
1
 94
63
  0
MLINESTYLE
  5
22
102
{ACAD_REACTORS
330
10
102
}
330
10
100
AcDbMlineStyle
  2
Standard
 70
0
  3

 62
256
 51
90.0
 52
90.0
 71
2
 49
0.5
 62
256
  6
BYLAYER
 49
-0.5
 62
256
  6
BYLAYER
  0
MLEADERSTYLE
  5
2C
102
{ACAD_REACTORS
330
F
102
}
330
F
100
AcDbMLeaderStyle
179
2
170
2
171
1
172
0
 90
2
 40
0.0
 41
0.0
173
1
 91
-1056964608
 92
-2
290
1
 42
2.0
291
1
 43
8.0
  3
Standard
 44
4.0
300

342
29
174
1
175
1
176
0
178
1
 93
-1056964608
 45
4.0
292
0
297
0
 46
4.0
 94
-1056964608
 47
1.0
 49
1.0
140
1.0
294
1
141
0.0
177
0
142
1.0
295
0
296
0
143
3.75
271
0
272
9
273
9
  0
DICTIONARY
  5
2D
330
A
100
AcDbDictionary
281
1
  3
CREATED_BY_EZDXF
350
2E
  3
WRITTEN_BY_EZDXF
350
36F
  0
DICTIONARYVAR
  5
2E
330
2D
100
DictionaryVariables
280
0
  1
1.2.0 @ 2026-10-09T13:51:03.433073+00:00
  0
VISUALSTYLE
  5
5A
102
{ACAD_REACTORS
330
16
102
}
330
16
100
AcDbVisualStyle
  2
2dWireframe
 70
4
177
3
291
0
 70
58
 90
2
176
1
 90
2
176
1
 90
0
176
1
 90
0
176
1
 40
0.6
176
1
 40
30.0
176
1
 62
7
420
16777215
176
1
 90
1
176
1
 90
4
176
1
 62
7
176
1
 62
257
176
1
 90
1
176
1
 90
1
176
1
 40
1.0
176
1
 90
8
176
1
 62
7
176
1
 40
1.0
176
1
 90
1
176
1
 90
6
176
1
 90
2
176
1
 62
7
176
1
 90
5
176
1
 90
0
176
1
 90
0
176
1
290
0
176
1
 90
1
176
1
 40
0.0
176
1
 90
0
176
1
290
1
176
1
290
1
176
1
290
0
176
1
290
0
176
1
290
0
176
1
290
0
176
1
290
0
176
1
290
0
176
1
290
0
176
1
 90
50
176
1
 40
0.0
176
1
 40
1.0
176
1
 90
0
176
1
 62
18
420
0
176
1
 90
50
176
1
 90
3
176
1
 62
5
420
255
176
1
290
0
176
1
 90
50
176
1
 90
50
176
1
 90
50
176
1
290
0
176
1
 90
50
176
1
 62
256
176
0
 40
1.0
176
0
 90
2
176
1
  1
strokes_ogs.tif
176
1
290
0
176
1
 40
1.0
176
1
 40
1.0
176
1
  0
VISUALSTYLE
  5
5B
102
{ACAD_REACTORS
330
16
102
}
330
16
100
AcDbVisualStyle
  2
Basic
 70
7
177
3
291
1
 70
58
 90
2
176
1
 90
2
176
1
 90
0
176
1
 90
1
176
1
 40
0.6
176
1
 40
30.0
176
1
 62
7
420
16777215
176
1
 90
1
176
1
 90
4
176
1
 62
7
176
1
 62
257
176
1
 90
1
176
1
 90
1
176
1
 40
1.0
176
1
 90
8
176
1
 62
7
176
1
 40
1.0
176
1
 90
1
176
1
 90
6
176
1
 90
2
176
1
 62
7
176
1
 90
5
176
1
 90
0
176
1
 90
0
176
1
290
0
176
1
 90
1
176
1
 40
0.0
176
1
 90
0
176
1
290
0
176
1
290
1
176
1
290
1
176
1
290
0
176
1
290
0
176
1
290
0
176
1
290
0
176
1
290
0
176
1
290
0
176
1
 90
50
176
1
 40
0.0
176
1
 40
1.0
176
1
 90
0
176
1
 62
18
420
0
176
1
 90
50
176
1
 90
3
176
1
 62
5
420
255
176
1
290
0
176
1
 90
50
176
1
 90
50
176
1
 90
50
176
1
290
0
176
1
 90
50
176
1
 62
256
176
0
 40
1.0
176
0
 90
2
176
1
  1
strokes_ogs.tif
176
1
290
0
176
1
 40
1.0
176
1
 40
1.0
176
1
  0
VISUALSTYLE
  5
5C
102
{ACAD_REACTORS
330
16
102
}
330
16
100
AcDbVisualStyle
  2
Brighten
 70
12
177
3
291
1
 70
58
 90
2
176
1
 90
2
176
1
 90
0
176
1
 90
2
176
1
 40
0.6
176
1
 40
30.0
176
1
 62
7
420
16777215
176
1
 90
1
176
1
 90
4
176
1
 62
7
176
1
 62
257
176
1
 90
1
176
1
 90
1
176
1
 40
1.0
176
1
 90
8
176
1
 62
7
176
1
 40
1.0
176
1
 90
1
176
1
 90
6
176
1
 90
2
176
1
 62
7
176
1
 90
5
176
1
 90
0
176
1
 90
0
176
1
290
0
176
1
 90
1
176
1
 40
0.0
176
1
 90
0
176
1
290
0
176
1
290
1
176
1
290
1
176
1
290
0
176
1
290
0
176
1
290
0
176
1
290
0
176
1
290
0
176
1
290
0
176
1
 90
50
176
1
 40
0.0
176
1
 40
1.0
176
1
 90
0
176
1
 62
18
420
0
176
1
 90
50
176
1
 90
3
176
1
 62
5
420
255
176
1
290
0
176
1
 90
50
176
1
 90
50
176
1
 90
50
176
1
290
0
176
1
 90
50
176
1
 62
256
176
0
 40
1.0
176
0
 90
2
176
1
  1
strokes_ogs.tif
176
1
290
0
176
1
 40
1.0
176
1
 40
1.0
176
1
  0
VISUALSTYLE
  5
5D
102
{ACAD_REACTORS
330
16
102
}
330
16
100
AcDbVisualStyle
  2
ColorChange
 70
16
177
3
291
1
 70
58
 90
2
176
1
 90
2
176
1
 90
0
176
1
 90
2
176
1
 40
0.6
176
1
 40
30.0
176
1
 62
7
420
16777215
176
1
 90
1
176
1
 90
4
176
1
 62
7
176
1
 62
257
176
1
 90
1
176
1
 90
1
176
1
 40
1.0
176
1
 90
8
176
1
 62
7
176
1
 40
1.0
176
1
 90
1
176
1
 90
6
176
1
 90
2
176
1
 62
7
176
1
 90
5
176
1
 90
0
176
1
 90
0
176
1
290
0
176
1
 90
1
176
1
 40
0.0
176
1
 90
0
176
1
290
0
176
1
290
1
176
1
290
1
176
1
290
0
176
1
290
0
176
1
290
0
176
1
290
0
176
1
290
0
176
1
290
0
176
1
 90
50
176
1
 40
0.0
176
1
 40
1.0
176
1
 90
0
176
1
 62
18
420
0
176
1
 90
50
176
1
 90
3
176
1
 62
5
420
255
176
1
290
0
176
1
 90
50
176
1
 90
50
176
1
 90
50
176
1
290
0
176
1
 90
50
176
1
 62
256
176
0
 40
1.0
176
0
 90
2
176
1
  1
strokes_ogs.tif
176
1
290
0
176
1
 40
1.0
176
1
 40
1.0
176
1
  0
VISUALSTYLE
  5
5E
102
{ACAD_REACTORS
330
16
102
}
330
16
100
AcDbVisualStyle
  2
Conceptual
 70
9
177
3
291
0
 70
58
 90
2
176
1
 90
2
176
1
 90
0
176
1
 90
3
176
1
 40
0.6
176
1
 40
30.0
176
1
 62
7
420
16777215
176
1
 90
1
176
1
 90
4
176
1
 62
7
176
1
 62
257
176
1
 90
1
176
1
 90
1
176
1
 40
1.0
176
1
 90
8
176
1
 62
7
176
1
 40
1.0
176
1
 90
1
176
1
 90
6
176
1
 90
2
176
1
 62
7
176
1
 90
5
176
1
 90
0
176
1
 90
0
176
1
290
0
176
1
 90
1
176
1
 40
0.0
176
1
 90
0
176
1
290
0
176
1
290
1
176
1
290
1
176
1
290
0
176
1
290
0
176
1
290
0
176
1
290
0
176
1
290
0
176
1
290
0
176
1
 90
50
176
1
 40
0.0
176
1
 40
1.0
176
1
 90
0
176
1
 62
18
420
0
176
1
 90
50
176
1
 90
3
176
1
 62
5
420
255
176
1
290
0
176
1
 90
50
176
1
 90
50
176
1
 90
50
176
1
290
0
176
1
 90
50
176
1
 62
256
176
0
 40
1.0
176
0
 90
2
176
1
  1
strokes_ogs.tif
176
1
290
0
176
1
 40
1.0
176
1
 40
1.0
176
1
  0
VISUALSTYLE
  5
5F
102
{ACAD_REACTORS
330
16
102
}
330
16
100
AcDbVisualStyle
  2
Dim
 70
11
177
3
291
1
 70
58
 90
2
176
1
 90
2
176
1
 90
0
176
1
 90
2
176
1
 40
0.6
176
1
 40
30.0
176
1
 62
7
420
16777215
176
1
 90
1
176
1
 90
4
176
1
 62
7
176
1
 62
257
176
1
 90
1
176
1
 90
1
176
1
 40
1.0
176
1
 90
8
176
1
 62
7
176
1
 40
1.0
176
1
 90
1
176
1
 90
6
176
1
 90
2
176
1
 62
7
176
1
 90
5
176
1
 90
0
176
1
 90
0
176
1
290
0
176
1
 90
1
176
1
 40
0.0
176
1
 90
0
176
1
290
0
176
1
290
1
176
1
290
1
176
1
290
0
176
1
290
0
176
1
290
0
176
1
290
0
176
1
290
0
176
1
290
0
176
1
 90
50
176
1
 40
0.0
176
1
 40
1.0
176
1
 90
0
176
1
 62
18
420
0
176
1
 90
50
176
1
 90
3
176
1
 62
5
420
255
176
1
290
0
176
1
 90
50
176
1
 90
50
176
1
 90
50
176
1
290
0
176
1
 90
50
176
1
 62
256
176
0
 40
1.0
176
0
 90
2
176
1
  1
strokes_ogs.tif
176
1
290
0
176
1
 40
1.0
176
1
 40
1.0
176
1
  0
VISUALSTYLE
  5
60
102
{ACAD_REACTORS
330
16
102
}
330
16
100
AcDbVisualStyle
  2
EdgeColorOff
 70
22
177
3
291
1
 70
58
 90
2
176
1
 90
2
176
1
 90
0
176
1
 90
2
176
1
 40
0.6
176
1
 40
30.0
176
1
 62
7
420
16777215
176
1
 90
1
176
1
 90
4
176
1
 62
7
176
1
 62
257
176
1
 90
1
176
1
 90
1
176
1
 40
1.0
176
1
 90
8
176
1
 62
7
176
1
 40
1.0
176
1
 90
1
176
1
 90
6
176
1
 90
2
176
1
 62
7
176
1
 90
5
176
1
 90
0
176
1
 90
0
176
1
290
0
176
1
 90
1
176
1
 40
0.0
176
1
 90
0
176
1
290
0
176
1
290
1
176
1
290
1
176
1
290
0
176
1
290
0
176
1
290
0
176
1
290
0
176
1
290
0
176
1
290
0
176
1
 90
50
176
1
 40
0.0
176
1
 40
1.0
176
1
 90
0
176
1
 62
18
420
0
176
1
 90
50
176
1
 90
3
176
1
 62
5
420
255
176
1
290
0
176
1
 90
50
176
1
 90
50
176
1
 90
50
176
1
290
0
176
1
 90
50
176
1
 62
256
176
0
 40
1.0
176
0
 90
2
176
1
  1
strokes_ogs.tif
176
1
290
0
176
1
 40
1.0
176
1
 40
1.0
176
1
  0
VISUALSTYLE
  5
61
102
{ACAD_REACTORS
330
16
102
}
330
16
100
AcDbVisualStyle
  2
Facepattern
 70
15
177
3
291
1
 70
58
 90
2
176
1
 90
2
176
1
 90
0
176
1
 90
2
176
1
 40
0.6
176
1
 40
30.0
176
1
 62
7
420
16777215
176
1
 90
1
176
1
 90
4
176
1
 62
7
176
1
 62
257
176
1
 90
1
176
1
 90
1
176
1
 40
1.0
176
1
 90
8
176
1
 62
7
176
1
 40
1.0
176
1
 90
1
176
1
 90
6
176
1
 90
2
176
1
 62
7
176
1
 90
5
176
1
 90
0
176
1
 90
0
176
1
290
0
176
1
 90
1
176
1
 40
0.0
176
1
 90
0
176
1
290
0
176
1
290
1
176
1
290
1
176
1
290
0
176
1
290
0
176
1
290
0
176
1
290
0
176
1
290
0
176
1
290
0
176
1
 90
50
176
1
 40
0.0
176
1
 40
1.0
176
1
 90
0
176
1
 62
18
420
0
176
1
 90
50
176
1
 90
3
176
1
 62
5
420
255
176
1
290
0
176
1
 90
50
176
1
 90
50
176
1
 90
50
176
1
290
0
176
1
 90
50
176
1
 62
256
176
0
 40
1.0
176
0
 90
2
176
1
  1
strokes_ogs.tif
176
1
290
0
176
1
 40
1.0
176
1
 40
1.0
176
1
  0
VISUALSTYLE
  5
62
102
{ACAD_REACTORS
330
16
102
}
330
16
100
AcDbVisualStyle
  2
Flat
 70
0
177
3
291
1
 70
58
 90
2
176
1
 90
2
176
1
 90
0
176
1
 90
2
176
1
 40
0.6
176
1
 40
30.0
176
1
 62
7
420
16777215
176
1
 90
1
176
1
 90
4
176
1
 62
7
176
1
 62
257
176
1
 90
1
176
1
 90
1
176
1
 40
1.0
176
1
 90
8
176
1
 62
7
176
1
 40
1.0
176
1
 90
1
176
1
 90
6
176
1
 90
2
176
1
 62
7
176
1
 90
5
176
1
 90
0
176
1
 90
0
176
1
290
0
176
1
 90
1
176
1
 40
0.0
176
1
 90
0
176
1
290
0
176
1
290
1
176
1
290
1
176
1
290
0
176
1
290
0
176
1
290
0
176
1
290
0
176
1
290
0
176
1
290
0
176
1
 90
50
176
1
 40
0.0
176
1
 40
1.0
176
1
 90
0
176
1
 62
18
420
0
176
1
 90
50
176
1
 90
3
176
1
 62
5
420
255
176
1
290
0
176
1
 90
50
176
1
 90
50
176
1
 90
50
176
1
290
0
176
1
 90
50
176
1
 62
256
176
0
 40
1.0
176
0
 90
2
176
1
  1
strokes_ogs.tif
176
1
290
0
176
1
 40
1.0
176
1
 40
1.0
176
1
  0
VISUALSTYLE
  5
63
102
{ACAD_REACTORS
330
16
102
}
330
16
100
AcDbVisualStyle
  2
FlatWithEdges
 70
1
177
3
291
1
 70
58
 90
2
176
1
 90
2
176
1
 90
0
176
1
 90
2
176
1
 40
0.6
176
1
 40
30.0
176
1
 62
7
420
16777215
176
1
 90
1
176
1
 90
4
176
1
 62
7
176
1
 62
257
176
1
 90
1
176
1
 90
1
176
1
 40
1.0
176
1
 90
8
176
1
 62
7
176
1
 40
1.0
176
1
 90
1
176
1
 90
6
176
1
 90
2
176
1
 62
7
176
1
 90
5
176
1
 90
0
176
1
 90
0
176
1
290
0
176
1
 90
1
176
1
 40
0.0
176
1
 90
0
176
1
290
0
176
1
290
1
176
1
290
1
176
1
290
0
176
1
290
0
176
1
290
0
176
1
290
0
176
1
290
0
176
1
290
0
176
1
 90
50
176
1
 40
0.0
176
1
 40
1.0
176
1
 90
0
176
1
 62
18
420
0
176
1
 90
50
176
1
 90
3
176
1
 62
5
420
255
176
1
290
0
176
1
 90
50
176
1
 90
50
176
1
 90
50
176
1
290
0
176
1
 90
50
176
1
 62
256
176
0
 40
1.0
176
0
 90
2
176
1
  1
strokes_ogs.tif
176
1
290
0
176
1
 40
1.0
176
1
 40
1.0
176
1
  0
VISUALSTYLE
  5
64
102
{ACAD_REACTORS
330
16
102
}
330
16
100
AcDbVisualStyle
  2
Gouraud
 70
2
177
3
291
1
 70
58
 90
2
176
1
 90
2
176
1
 90
0
176
1
 90
2
176
1
 40
0.6
176
1
 40
30.0
176
1
 62
7
420
16777215
176
1
 90
1
176
1
 90
4
176
1
 62
7
176
1
 62
257
176
1
 90
1
176
1
 90
1
176
1
 40
1.0
176
1
 90
8
176
1
 62
7
176
1
 40
1.0
176
1
 90
1
176
1
 90
6
176
1
 90
2
176
1
 62
7
176
1
 90
5
176
1
 90
0
176
1
 90
0
176
1
290
0
176
1
 90
1
176
1
 40
0.0
176
1
 90
0
176
1
290
0
176
1
290
1
176
1
290
1
176
1
290
0
176
1
290
0
176
1
290
0
176
1
290
0
176
1
290
0
176
1
290
0
176
1
 90
50
176
1
 40
0.0
176
1
 40
1.0
176
1
 90
0
176
1
 62
18
420
0
176
1
 90
50
176
1
 90
3
176
1
 62
5
420
255
176
1
290
0
176
1
 90
50
176
1
 90
50
176
1
 90
50
176
1
290
0
176
1
 90
50
176
1
 62
256
176
0
 40
1.0
176
0
 90
2
176
1
  1
strokes_ogs.tif
176
1
290
0
176
1
 40
1.0
176
1
 40
1.0
176
1
  0
VISUALSTYLE
  5
65
102
{ACAD_REACTORS
330
16
102
}
330
16
100
AcDbVisualStyle
  2
GouraudWithEdges
 70
3
177
3
291
1
 70
58
 90
2
176
1
 90
2
176
1
 90
0
176
1
 90
2
176
1
 40
0.6
176
1
 40
30.0
176
1
 62
7
420
16777215
176
1
 90
1
176
1
 90
4
176
1
 62
7
176
1
 62
257
176
1
 90
1
176
1
 90
1
176
1
 40
1.0
176
1
 90
8
176
1
 62
7
176
1
 40
1.0
176
1
 90
1
176
1
 90
6
176
1
 90
2
176
1
 62
7
176
1
 90
5
176
1
 90
0
176
1
 90
0
176
1
290
0
176
1
 90
1
176
1
 40
0.0
176
1
 90
0
176
1
290
0
176
1
290
1
176
1
290
1
176
1
290
0
176
1
290
0
176
1
290
0
176
1
290
0
176
1
290
0
176
1
290
0
176
1
 90
50
176
1
 40
0.0
176
1
 40
1.0
176
1
 90
0
176
1
 62
18
420
0
176
1
 90
50
176
1
 90
3
176
1
 62
5
420
255
176
1
290
0
176
1
 90
50
176
1
 90
50
176
1
 90
50
176
1
290
0
176
1
 90
50
176
1
 62
256
176
0
 40
1.0
176
0
 90
2
176
1
  1
strokes_ogs.tif
176
1
290
0
176
1
 40
1.0
176
1
 40
1.0
176
1
  0
VISUALSTYLE
  5
66
102
{ACAD_REACTORS
330
16
102
}
330
16
100
AcDbVisualStyle
  2
Hidden
 70
6
177
3
291
0
 70
58
 90
2
176
1
 90
2
176
1
 90
0
176
1
 90
1
176
1
 40
0.6
176
1
 40
30.0
176
1
 62
7
420
16777215
176
1
 90
1
176
1
 90
4
176
1
 62
7
176
1
 62
257
176
1
 90
1
176
1
 90
1
176
1
 40
1.0
176
1
 90
8
176
1
 62
7
176
1
 40
1.0
176
1
 90
1
176
1
 90
6
176
1
 90
2
176
1
 62
7
176
1
 90
5
176
1
 90
0
176
1
 90
0
176
1
290
0
176
1
 90
1
176
1
 40
0.0
176
1
 90
0
176
1
290
0
176
1
290
1
176
1
290
1
176
1
290
0
176
1
290
0
176
1
290
0
176
1
290
0
176
1
290
0
176
1
290
0
176
1
 90
50
176
1
 40
0.0
176
1
 40
1.0
176
1
 90
0
176
1
 62
18
420
0
176
1
 90
50
176
1
 90
3
176
1
 62
5
420
255
176
1
290
0
176
1
 90
50
176
1
 90
50
176
1
 90
50
176
1
290
0
176
1
 90
50
176
1
 62
256
176
0
 40
1.0
176
0
 90
2
176
1
  1
strokes_ogs.tif
176
1
290
0
176
1
 40
1.0
176
1
 40
1.0
176
1
  0
VISUALSTYLE
  5
67
102
{ACAD_REACTORS
330
16
102
}
330
16
100
AcDbVisualStyle
  2
JitterOff
 70
20
177
3
291
1
 70
58
 90
2
176
1
 90
2
176
1
 90
0
176
1
 90
2
176
1
 40
0.6
176
1
 40
30.0
176
1
 62
7
420
16777215
176
1
 90
1
176
1
 90
4
176
1
 62
7
176
1
 62
257
176
1
 90
1
176
1
 90
1
176
1
 40
1.0
176
1
 90
8
176
1
 62
7
176
1
 40
1.0
176
1
 90
1
176
1
 90
6
176
1
 90
2
176
1
 62
7
176
1
 90
5
176
1
 90
0
176
1
 90
0
176
1
290
0
176
1
 90
1
176
1
 40
0.0
176
1
 90
0
176
1
290
0
176
1
290
1
176
1
290
1
176
1
290
0
176
1
290
0
176
1
290
0
176
1
290
0
176
1
290
0
176
1
290
0
176
1
 90
50
176
1
 40
0.0
176
1
 40
1.0
176
1
 90
0
176
1
 62
18
420
0
176
1
 90
50
176
1
 90
3
176
1
 62
5
420
255
176
1
290
0
176
1
 90
50
176
1
 90
50
176
1
 90
50
176
1
290
0
176
1
 90
50
176
1
 62
256
176
0
 40
1.0
176
0
 90
2
176
1
  1
strokes_ogs.tif
176
1
290
0
176
1
 40
1.0
176
1
 40
1.0
176
1
  0
VISUALSTYLE
  5
68
102
{ACAD_REACTORS
330
16
102
}
330
16
100
AcDbVisualStyle
  2
Linepattern
 70
14
177
3
291
1
 70
58
 90
2
176
1
 90
2
176
1
 90
0
176
1
 90
2
176
1
 40
0.6
176
1
 40
30.0
176
1
 62
7
420
16777215
176
1
 90
1
176
1
 90
4
176
1
 62
7
176
1
 62
257
176
1
 90
1
176
1
 90
1
176
1
 40
1.0
176
1
 90
8
176
1
 62
7
176
1
 40
1.0
176
1
 90
1
176
1
 90
6
176
1
 90
2
176
1
 62
7
176
1
 90
5
176
1
 90
0
176
1
 90
0
176
1
290
0
176
1
 90
1
176
1
 40
0.0
176
1
 90
0
176
1
290
0
176
1
290
1
176
1
290
1
176
1
290
0
176
1
290
0
176
1
290
0
176
1
290
0
176
1
290
0
176
1
290
0
176
1
 90
50
176
1
 40
0.0
176
1
 40
1.0
176
1
 90
0
176
1
 62
18
420
0
176
1
 90
50
176
1
 90
3
176
1
 62
5
420
255
176
1
290
0
176
1
 90
50
176
1
 90
50
176
1
 90
50
176
1
290
0
176
1
 90
50
176
1
 62
256
176
0
 40
1.0
176
0
 90
2
176
1
  1
strokes_ogs.tif
176
1
290
0
176
1
 40
1.0
176
1
 40
1.0
176
1
  0
VISUALSTYLE
  5
69
102
{ACAD_REACTORS
330
16
102
}
330
16
100
AcDbVisualStyle
  2
Modeling
 70
10
177
3
291
0
 70
58
 90
2
176
1
 90
2
176
1
 90
0
176
1
 90
2
176
1
 40
0.6
176
1
 40
30.0
176
1
 62
7
420
16777215
176
1
 90
1
176
1
 90
4
176
1
 62
7
176
1
 62
257
176
1
 90
1
176
1
 90
1
176
1
 40
1.0
176
1
 90
8
176
1
 62
7
176
1
 40
1.0
176
1
 90
1
176
1
 90
6
176
1
 90
2
176
1
 62
7
176
1
 90
5
176
1
 90
0
176
1
 90
0
176
1
290
0
176
1
 90
1
176
1
 40
0.0
176
1
 90
0
176
1
290
0
176
1
290
1
176
1
290
1
176
1
290
0
176
1
290
0
176
1
290
0
176
1
290
0
176
1
290
0
176
1
290
0
176
1
 90
50
176
1
 40
0.0
176
1
 40
1.0
176
1
 90
0
176
1
 62
18
420
0
176
1
 90
50
176
1
 90
3
176
1
 62
5
420
255
176
1
290
0
176
1
 90
50
176
1
 90
50
176
1
 90
50
176
1
290
0
176
1
 90
50
176
1
 62
256
176
0
 40
1.0
176
0
 90
2
176
1
  1
strokes_ogs.tif
176
1
290
0
176
1
 40
1.0
176
1
 40
1.0
176
1
  0
VISUALSTYLE
  5
6A
102
{ACAD_REACTORS
330
16
102
}
330
16
100
AcDbVisualStyle
  2
OverhangOff
 70
21
177
3
291
1
 70
58
 90
2
176
1
 90
2
176
1
 90
0
176
1
 90
2
176
1
 40
0.6
176
1
 40
30.0
176
1
 62
7
420
16777215
176
1
 90
1
176
1
 90
4
176
1
 62
7
176
1
 62
257
176
1
 90
1
176
1
 90
1
176
1
 40
1.0
176
1
 90
8
176
1
 62
7
176
1
 40
1.0
176
1
 90
1
176
1
 90
6
176
1
 90
2
176
1
 62
7
176
1
 90
5
176
1
 90
0
176
1
 90
0
176
1
290
0
176
1
 90
1
176
1
 40
0.0
176
1
 90
0
176
1
290
0
176
1
290
1
176
1
290
1
176
1
290
0
176
1
290
0
176
1
290
0
176
1
290
0
176
1
290
0
176
1
290
0
176
1
 90
50
176
1
 40
0.0
176
1
 40
1.0
176
1
 90
0
176
1
 62
18
420
0
176
1
 90
50
176
1
 90
3
176
1
 62
5
420
255
176
1
290
0
176
1
 90
50
176
1
 90
50
176
1
 90
50
176
1
290
0
176
1
 90
50
176
1
 62
256
176
0
 40
1.0
176
0
 90
2
176
1
  1
strokes_ogs.tif
176
1
290
0
176
1
 40
1.0
176
1
 40
1.0
176
1
  0
VISUALSTYLE
  5
6B
102
{ACAD_REACTORS
330
16
102
}
330
16
100
AcDbVisualStyle
  2
Realistic
 70
8
177
3
291
0
 70
58
 90
2
176
1
 90
2
176
1
 90
0
176
1
 90
2
176
1
 40
0.6
176
1
 40
30.0
176
1
 62
7
420
16777215
176
1
 90
1
176
1
 90
4
176
1
 62
7
176
1
 62
257
176
1
 90
1
176
1
 90
1
176
1
 40
1.0
176
1
 90
8
176
1
 62
7
176
1
 40
1.0
176
1
 90
1
176
1
 90
6
176
1
 90
2
176
1
 62
7
176
1
 90
5
176
1
 90
0
176
1
 90
0
176
1
290
0
176
1
 90
1
176
1
 40
0.0
176
1
 90
0
176
1
290
0
176
1
290
1
176
1
290
1
176
1
290
0
176
1
290
0
176
1
290
0
176
1
290
0
176
1
290
0
176
1
290
0
176
1
 90
50
176
1
 40
0.0
176
1
 40
1.0
176
1
 90
0
176
1
 62
18
420
0
176
1
 90
50
176
1
 90
3
176
1
 62
5
420
255
176
1
290
0
176
1
 90
50
176
1
 90
50
176
1
 90
50
176
1
290
0
176
1
 90
50
176
1
 62
256
176
0
 40
1.0
176
0
 90
2
176
1
  1
strokes_ogs.tif
176
1
290
0
176
1
 40
1.0
176
1
 40
1.0
176
1
  0
VISUALSTYLE
  5
6C
102
{ACAD_REACTORS
330
16
102
}
330
16
100
AcDbVisualStyle
  2
Shaded
 70
27
177
3
291
0
 70
58
 90
2
176
1
 90
2
176
1
 90
0
176
1
 90
2
176
1
 40
0.6
176
1
 40
30.0
176
1
 62
7
420
16777215
176
1
 90
1
176
1
 90
4
176
1
 62
7
176
1
 62
257
176
1
 90
1
176
1
 90
1
176
1
 40
1.0
176
1
 90
8
176
1
 62
7
176
1
 40
1.0
176
1
 90
1
176
1
 90
6
176
1
 90
2
176
1
 62
7
176
1
 90
5
176
1
 90
0
176
1
 90
0
176
1
290
0
176
1
 90
1
176
1
 40
0.0
176
1
 90
0
176
1
290
0
176
1
290
1
176
1
290
1
176
1
290
0
176
1
290
0
176
1
290
0
176
1
290
0
176
1
290
0
176
1
290
0
176
1
 90
50
176
1
 40
0.0
176
1
 40
1.0
176
1
 90
0
176
1
 62
18
420
0
176
1
 90
50
176
1
 90
3
176
1
 62
5
420
255
176
1
290
0
176
1
 90
50
176
1
 90
50
176
1
 90
50
176
1
290
0
176
1
 90
50
176
1
 62
256
176
0
 40
1.0
176
0
 90
2
176
1
  1
strokes_ogs.tif
176
1
290
0
176
1
 40
1.0
176
1
 40
1.0
176
1
  0
VISUALSTYLE
  5
6D
102
{ACAD_REACTORS
330
16
102
}
330
16
100
AcDbVisualStyle
  2
Shaded with edges
 70
26
177
3
291
0
 70
58
 90
2
176
1
 90
2
176
1
 90
0
176
1
 90
2
176
1
 40
0.6
176
1
 40
30.0
176
1
 62
7
420
16777215
176
1
 90
1
176
1
 90
4
176
1
 62
7
176
1
 62
257
176
1
 90
1
176
1
 90
1
176
1
 40
1.0
176
1
 90
8
176
1
 62
7
176
1
 40
1.0
176
1
 90
1
176
1
 90
6
176
1
 90
2
176
1
 62
7
176
1
 90
5
176
1
 90
0
176
1
 90
0
176
1
290
0
176
1
 90
1
176
1
 40
0.0
176
1
 90
0
176
1
290
0
176
1
290
1
176
1
290
1
176
1
290
0
176
1
290
0
176
1
290
0
176
1
290
0
176
1
290
0
176
1
290
0
176
1
 90
50
176
1
 40
0.0
176
1
 40
1.0
176
1
 90
0
176
1
 62
18
420
0
176
1
 90
50
176
1
 90
3
176
1
 62
5
420
255
176
1
290
0
176
1
 90
50
176
1
 90
50
176
1
 90
50
176
1
290
0
176
1
 90
50
176
1
 62
256
176
0
 40
1.0
176
0
 90
2
176
1
  1
strokes_ogs.tif
176
1
290
0
176
1
 40
1.0
176
1
 40
1.0
176
1
  0
VISUALSTYLE
  5
6E
102
{ACAD_REACTORS
330
16
102
}
330
16
100
AcDbVisualStyle
  2
Shades of Gray
 70
23
177
3
291
0
 70
58
 90
2
176
1
 90
2
176
1
 90
0
176
1
 90
2
176
1
 40
0.6
176
1
 40
30.0
176
1
 62
7
420
16777215
176
1
 90
1
176
1
 90
4
176
1
 62
7
176
1
 62
257
176
1
 90
1
176
1
 90
1
176
1
 40
1.0
176
1
 90
8
176
1
 62
7
176
1
 40
1.0
176
1
 90
1
176
1
 90
6
176
1
 90
2
176
1
 62
7
176
1
 90
5
176
1
 90
0
176
1
 90
0
176
1
290
0
176
1
 90
1
176
1
 40
0.0
176
1
 90
0
176
1
290
0
176
1
290
1
176
1
290
1
176
1
290
0
176
1
290
0
176
1
290
0
176
1
290
0
176
1
290
0
176
1
290
0
176
1
 90
50
176
1
 40
0.0
176
1
 40
1.0
176
1
 90
0
176
1
 62
18
420
0
176
1
 90
50
176
1
 90
3
176
1
 62
5
420
255
176
1
290
0
176
1
 90
50
176
1
 90
50
176
1
 90
50
176
1
290
0
176
1
 90
50
176
1
 62
256
176
0
 40
1.0
176
0
 90
2
176
1
  1
strokes_ogs.tif
176
1
290
0
176
1
 40
1.0
176
1
 40
1.0
176
1
  0
VISUALSTYLE
  5
6F
102
{ACAD_REACTORS
330
16
102
}
330
16
100
AcDbVisualStyle
  2
Sketchy
 70
24
177
3
291
0
 70
58
 90
2
176
1
 90
2
176
1
 90
0
176
1
 90
1
176
1
 40
0.6
176
1
 40
30.0
176
1
 62
7
420
16777215
176
1
 90
1
176
1
 90
4
176
1
 62
7
176
1
 62
257
176
1
 90
1
176
1
 90
1
176
1
 40
1.0
176
1
 90
8
176
1
 62
7
176
1
 40
1.0
176
1
 90
1
176
1
 90
6
176
1
 90
2
176
1
 62
7
176
1
 90
5
176
1
 90
0
176
1
 90
0
176
1
290
0
176
1
 90
1
176
1
 40
0.0
176
1
 90
0
176
1
290
0
176
1
290
1
176
1
290
1
176
1
290
0
176
1
290
0
176
1
290
0
176
1
290
0
176
1
290
0
176
1
290
0
176
1
 90
50
176
1
 40
0.0
176
1
 40
1.0
176
1
 90
0
176
1
 62
18
420
0
176
1
 90
50
176
1
 90
3
176
1
 62
5
420
255
176
1
290
0
176
1
 90
50
176
1
 90
50
176
1
 90
50
176
1
290
0
176
1
 90
50
176
1
 62
256
176
0
 40
1.0
176
0
 90
2
176
1
  1
strokes_ogs.tif
176
1
290
0
176
1
 40
1.0
176
1
 40
1.0
176
1
  0
VISUALSTYLE
  5
70
102
{ACAD_REACTORS
330
16
102
}
330
16
100
AcDbVisualStyle
  2
Thicken
 70
13
177
3
291
1
 70
58
 90
2
176
1
 90
2
176
1
 90
0
176
1
 90
2
176
1
 40
0.6
176
1
 40
30.0
176
1
 62
7
420
16777215
176
1
 90
1
176
1
 90
4
176
1
 62
7
176
1
 62
257
176
1
 90
1
176
1
 90
1
176
1
 40
1.0
176
1
 90
8
176
1
 62
7
176
1
 40
1.0
176
1
 90
1
176
1
 90
6
176
1
 90
2
176
1
 62
7
176
1
 90
5
176
1
 90
0
176
1
 90
0
176
1
290
0
176
1
 90
1
176
1
 40
0.0
176
1
 90
0
176
1
290
0
176
1
290
1
176
1
290
1
176
1
290
0
176
1
290
0
176
1
290
0
176
1
290
0
176
1
290
0
176
1
290
0
176
1
 90
50
176
1
 40
0.0
176
1
 40
1.0
176
1
 90
0
176
1
 62
18
420
0
176
1
 90
50
176
1
 90
3
176
1
 62
5
420
255
176
1
290
0
176
1
 90
50
176
1
 90
50
176
1
 90
50
176
1
290
0
176
1
 90
50
176
1
 62
256
176
0
 40
1.0
176
0
 90
2
176
1
  1
strokes_ogs.tif
176
1
290
0
176
1
 40
1.0
176
1
 40
1.0
176
1
  0
VISUALSTYLE
  5
71
102
{ACAD_REACTORS
330
16
102
}
330
16
100
AcDbVisualStyle
  2
Wireframe
 70
5
177
3
291
0
 70
58
 90
2
176
1
 90
2
176
1
 90
0
176
1
 90
0
176
1
 40
0.6
176
1
 40
30.0
176
1
 62
7
420
16777215
176
1
 90
1
176
1
 90
4
176
1
 62
7
176
1
 62
257
176
1
 90
1
176
1
 90
1
176
1
 40
1.0
176
1
 90
8
176
1
 62
7
176
1
 40
1.0
176
1
 90
1
176
1
 90
6
176
1
 90
2
176
1
 62
7
176
1
 90
5
176
1
 90
0
176
1
 90
0
176
1
290
0
176
1
 90
1
176
1
 40
0.0
176
1
 90
0
176
1
290
0
176
1
290
1
176
1
290
1
176
1
290
0
176
1
290
0
176
1
290
0
176
1
290
0
176
1
290
0
176
1
290
0
176
1
 90
50
176
1
 40
0.0
176
1
 40
1.0
176
1
 90
0
176
1
 62
18
420
0
176
1
 90
50
176
1
 90
3
176
1
 62
5
420
255
176
1
290
0
176
1
 90
50
176
1
 90
50
176
1
 90
50
176
1
290
0
176
1
 90
50
176
1
 62
256
176
0
 40
1.0
176
0
 90
2
176
1
  1
strokes_ogs.tif
176
1
290
0
176
1
 40
1.0
176
1
 40
1.0
176
1
  0
VISUALSTYLE
  5
72
102
{ACAD_REACTORS
330
16
102
}
330
16
100
AcDbVisualStyle
  2
X-Ray
 70
25
177
3
291
0
 70
58
 90
2
176
1
 90
2
176
1
 90
0
176
1
 90
2
176
1
 40
0.5
176
1
 40
30.0
176
1
 62
7
420
16777215
176
1
 90
1
176
1
 90
4
176
1
 62
7
176
1
 62
257
176
1
 90
1
176
1
 90
1
176
1
 40
1.0
176
1
 90
8
176
1
 62
7
176
1
 40
1.0
176
1
 90
1
176
1
 90
6
176
1
 90
2
176
1
 62
7
176
1
 90
5
176
1
 90
0
176
1
 90
0
176
1
290
0
176
1
 90
1
176
1
 40
0.0
176
1
 90
0
176
1
290
0
176
1
290
1
176
1
290
1
176
1
290
0
176
1
290
0
176
1
290
0
176
1
290
0
176
1
290
0
176
1
290
0
176
1
 90
50
176
1
 40
0.0
176
1
 40
1.0
176
1
 90
0
176
1
 62
18
420
0
176
1
 90
50
176
1
 90
3
176
1
 62
5
420
255
176
1
290
0
176
1
 90
50
176
1
 90
50
176
1
 90
50
176
1
290
0
176
1
 90
50
176
1
 62
256
176
0
 40
1.0
176
0
 90
2
176
1
  1
strokes_ogs.tif
176
1
290
0
176
1
 40
1.0
176
1
 40
1.0
176
1
  0
DICTIONARYVAR
  5
36F
330
2D
100
DictionaryVariables
280
0
  1
1.2.0 @ 2026-10-09T14:57:44.606719+00:00
  0
ENDSEC
  0
EOF
